<?xml version="1.0" encoding="UTF-8"?><svg id="Capa_1" xmlns="http://www.w3.org/2000/svg" viewBox="0 0 500 359.28"><path d="M48.7,37H396.58c36.82,0,66.72,29.89,66.72,66.72v206.57c0,6.62-5.38,12-12,12H48.7c-6.62,0-12-5.38-12-12V49c0-6.62,5.38-12,12-12Z" fill="#385072"/><g><path d="M284.62,270.76c.79,0,1.58-.31,2.17-.91l74.73-75.97c1.18-1.2,1.16-3.12-.03-4.3l-11.32-11.22c-.57-.57-1.36-.88-2.16-.88-.81,0-1.58,.33-2.15,.91l-61.97,62.88-12.58-10.96c-.62-.54-1.43-.81-2.25-.74-.82,.07-1.58,.47-2.1,1.1l-10.57,12.89c-1.05,1.28-.88,3.16,.37,4.24l25.88,22.22c.57,.49,1.28,.73,1.98,.73Zm-14.95-33.8l12.37,10.78c1.21,1.06,3.04,.99,4.17-.16l61.84-62.74,7,6.94-70.6,71.78-21.47-18.43,6.69-8.16Z" fill="#fff"/><path d="M233.45,254.28h-89.32v-103.6h180.75v31.82c0,1.8,1.46,3.26,3.26,3.26s3.26-1.46,3.26-3.26v-33.61c.23-.45,.37-.94,.37-1.48s-.14-1.03-.37-1.48v-38.47c0-1.8-1.46-3.26-3.26-3.26h-26.59v-12.44c0-1.8-1.46-3.26-3.26-3.26s-3.26,1.46-3.26,3.26v12.44h-36.08v-12.44c0-1.8-1.46-3.26-3.26-3.26s-3.26,1.46-3.26,3.26v12.44h-35.65v-12.44c0-1.8-1.46-3.26-3.26-3.26s-3.26,1.46-3.26,3.26v12.44h-36.52v-12.44c0-1.8-1.46-3.26-3.26-3.26s-3.26,1.46-3.26,3.26v12.44h-26.35c-1.8,0-3.26,1.46-3.26,3.26v150.06c0,1.8,1.46,3.26,3.26,3.26h92.58c1.8,0,3.26-1.46,3.26-3.26s-1.46-3.26-3.26-3.26ZM167.22,110.74v6.25c0,1.8,1.46,3.26,3.26,3.26s3.26-1.46,3.26-3.26v-6.25h36.52v6.25c0,1.8,1.46,3.26,3.26,3.26s3.26-1.46,3.26-3.26v-6.25h35.65v6.25c0,1.8,1.46,3.26,3.26,3.26s3.26-1.46,3.26-3.26v-6.25h36.08v6.25c0,1.8,1.46,3.26,3.26,3.26s3.26-1.46,3.26-3.26v-6.25h23.32v33.43H144.13v-33.43h23.09Z" fill="#fff"/><path d="M252.43,188.07c1.8,0,3.26-1.46,3.26-3.26v-23.91c0-1.8-1.46-3.26-3.26-3.26s-3.26,1.46-3.26,3.26v20.65h-29.13v-20.65c0-1.8-1.46-3.26-3.26-3.26s-3.26,1.46-3.26,3.26v20.65h-28.69v-20.65c0-1.8-1.46-3.26-3.26-3.26s-3.26,1.46-3.26,3.26v20.65h-21.09c-1.8,0-3.26,1.46-3.26,3.26s1.46,3.26,3.26,3.26h21.09v25.65h-21.09c-1.8,0-3.26,1.46-3.26,3.26s1.46,3.26,3.26,3.26h21.09v23.26c0,1.8,1.46,3.26,3.26,3.26s3.26-1.46,3.26-3.26v-23.26h28.69v23.26c0,1.8,1.46,3.26,3.26,3.26s3.26-1.46,3.26-3.26v-23.26h11.96c1.8,0,3.26-1.46,3.26-3.26s-1.46-3.26-3.26-3.26h-11.96v-25.65h32.39Zm-38.91,25.65h-28.69v-25.65h28.69v25.65Z" fill="#fff"/></g></svg>