<?xml version="1.0" encoding="UTF-8"?><svg id="Capa_1" xmlns="http://www.w3.org/2000/svg" viewBox="0 0 500 359.28"><path d="M48.7,37H396.58c36.82,0,66.72,29.89,66.72,66.72v206.57c0,6.62-5.38,12-12,12H48.7c-6.62,0-12-5.38-12-12V49c0-6.62,5.38-12,12-12Z" fill="#385072"/><g><path d="M398.41,233.97H101.59c-5.44,0-9.87,4.43-9.87,10.01s4.43,9.87,9.87,9.87H398.41c5.44,0,9.87-4.43,9.87-10s-4.43-9.87-9.87-9.87Zm0,13.77H101.59c-2.08,0-3.77-1.69-3.77-3.9,0-2.08,1.69-3.77,3.77-3.77H398.41c2.08,0,3.77,1.69,3.77,3.91,0,2.08-1.69,3.77-3.77,3.77Z" fill="#fff"/><path d="M313.18,213.9c1.05,7.97,7.9,13.97,15.94,13.97h26.89c8.04,0,14.89-6.01,15.94-13.97l6.7-50.8h-72.17l6.7,50.8Zm58.51-44.7l-5.79,43.9c-.65,4.94-4.9,8.67-9.89,8.67h-26.89c-4.99,0-9.24-3.73-9.89-8.67l-5.79-43.9h58.25Z" fill="#fff"/><path d="M379.7,211.42c-.42-.07-.82-.26-1.22-.42l-.49,3.69c-.11,.84-.35,1.63-.55,2.44,.41,.12,.83,.23,1.26,.31,.68,.11,1.37,.17,2.06,.17,8.6,0,16.75-9.02,18.55-20.54,1.19-7.58-.34-15.15-4.11-20.26-2.36-3.21-5.41-5.16-8.81-5.66-.88-.13-1.76-.14-2.64-.08l-.82,6.24c.49-.11,.98-.22,1.47-.22,.37,0,.74,.05,1.11,.1,2.21,.32,3.82,1.94,4.78,3.25,2.77,3.76,3.92,9.78,2.99,15.69-1.39,8.87-7.88,16.22-13.58,15.29Z" fill="#fff"/><path d="M343.31,105.8c-2.1-.93-4.55,.02-5.47,2.12-6.57,14.85-3.18,21.71-.2,27.77,2.47,5.01,4.42,8.97,.17,19.09-.89,2.11,.11,4.55,2.22,5.43,.53,.22,1.07,.32,1.6,.32,1.62,0,3.16-.95,3.83-2.54,5.71-13.6,2.48-20.17-.38-25.97-2.6-5.28-4.65-9.44,.35-20.75,.93-2.09-.02-4.55-2.12-5.47Z" fill="#fff"/><path d="M325.66,105.8c-2.1-.93-4.54,.02-5.47,2.12-6.57,14.85-3.18,21.71-.2,27.77,2.47,5.01,4.42,8.97,.17,19.09-.89,2.11,.11,4.55,2.22,5.43,.53,.22,1.07,.32,1.6,.32,1.62,0,3.16-.95,3.83-2.54,5.71-13.6,2.48-20.17-.38-25.97-2.6-5.28-4.65-9.44,.35-20.75,.93-2.09-.02-4.55-2.12-5.47Z" fill="#fff"/><path d="M355.54,135.68c2.47,5.01,4.42,8.97,.17,19.09-.89,2.11,.11,4.55,2.22,5.43,.53,.22,1.07,.32,1.6,.32,1.62,0,3.16-.95,3.83-2.54,5.71-13.6,2.48-20.17-.38-25.97-2.6-5.28-4.65-9.44,.35-20.75,.93-2.09-.02-4.55-2.12-5.47-2.1-.93-4.54,.02-5.47,2.12-6.57,14.85-3.18,21.71-.2,27.77Z" fill="#fff"/><path d="M246.75,222.79l.04,5.07h6.12v-4.5l44.32-11.47c2.15-.56,3.51-2.56,3.22-4.76-.28-2.2-2.1-3.8-4.32-3.8H124.65c-2.22,0-4.03,1.6-4.32,3.8-.28,2.2,1.07,4.2,3.22,4.76l43.85,11.35v4.62h6.11v-5.38c.02-2.24-1.48-4.2-3.65-4.77l-31.48-8.29h144.01l-31.58,8.08c-2.41,.62-4.08,2.79-4.07,5.28Z" fill="#fff"/><path d="M238.57,192.92l10.47,4.31h16.02l-24.17-9.95c-19.6-8.08-41.88-8.16-61.55-.21l-25.18,10.17h16.29l11.17-4.51c18.2-7.34,38.81-7.27,56.94,.2Z" fill="#fff"/></g></svg>