<?xml version="1.0" encoding="UTF-8"?><svg id="Capa_1" xmlns="http://www.w3.org/2000/svg" viewBox="0 0 500 359.28"><path d="M48.7,37H396.58c36.82,0,66.72,29.89,66.72,66.72v206.57c0,6.62-5.38,12-12,12H48.7c-6.62,0-12-5.38-12-12V49c0-6.62,5.38-12,12-12Z" fill="#385072"/><path d="M230.22,158.48c0-32.69,15.46-61.76,39.46-80.32-56.03,.03-101.44,45.45-101.44,101.49s45.44,101.49,101.49,101.49c23.36,0,44.87-7.9,62.03-21.16-.02,0-.03,0-.05,0-56.05,0-101.49-45.44-101.49-101.49Z" fill="none" stroke="#fff" stroke-linecap="round" stroke-linejoin="round" stroke-width="5"/></svg>