<?xml version="1.0" encoding="UTF-8"?><svg id="Capa_1" xmlns="http://www.w3.org/2000/svg" viewBox="0 0 500 359.28"><path d="M48.7,37H396.58c36.82,0,66.72,29.89,66.72,66.72v206.57c0,6.62-5.38,12-12,12H48.7c-6.62,0-12-5.38-12-12V49c0-6.62,5.38-12,12-12Z" fill="#385072"/><g><path d="M201.83,132.85l8.51,5.95-4.39,9.41c-.38,.81-.34,1.75,.11,2.52,.45,.77,1.24,1.28,2.13,1.35l10.35,.9,.9,10.35c.08,.89,.58,1.68,1.35,2.13,.77,.45,1.71,.49,2.52,.11l9.41-4.39,5.95,8.51c.51,.73,1.34,1.16,2.24,1.16s1.72-.43,2.24-1.16l5.95-8.51,9.41,4.39c.81,.38,1.75,.34,2.52-.11,.77-.45,1.28-1.24,1.35-2.13l.9-10.35,10.35-.9c.89-.08,1.68-.58,2.13-1.35,.45-.77,.49-1.71,.11-2.52l-4.39-9.41,8.51-5.95c.73-.51,1.16-1.34,1.16-2.24s-.43-1.72-1.16-2.24l-8.51-5.95,4.39-9.41c.38-.81,.34-1.75-.11-2.52-.45-.77-1.24-1.28-2.13-1.35l-10.35-.9-.9-10.35c-.08-.89-.58-1.68-1.35-2.13-.77-.44-1.71-.49-2.52-.11l-9.41,4.39-5.95-8.51c-.51-.73-1.34-1.16-2.24-1.16s-1.72,.43-2.24,1.16l-5.95,8.51-9.41-4.39c-.81-.38-1.75-.34-2.52,.11-.77,.45-1.28,1.24-1.35,2.13l-.9,10.35-10.35,.9c-.89,.08-1.68,.58-2.13,1.35-.45,.77-.49,1.71-.11,2.52l4.39,9.41-8.51,5.95c-.73,.51-1.16,1.35-1.16,2.24s.43,1.72,1.16,2.24Zm13.52-7.27c1.09-.76,1.47-2.19,.91-3.39l-3.71-7.95,8.74-.76c1.32-.11,2.37-1.16,2.48-2.48l.76-8.75,7.95,3.71c1.2,.56,2.63,.18,3.39-.91l5.03-7.19,5.03,7.19c.76,1.09,2.19,1.47,3.39,.91l7.95-3.71,.76,8.75c.11,1.32,1.16,2.37,2.48,2.48l8.74,.76-3.71,7.95c-.56,1.2-.18,2.63,.91,3.39l7.19,5.03-7.19,5.03c-1.09,.76-1.47,2.19-.91,3.39l3.71,7.95-8.74,.76c-1.32,.11-2.37,1.16-2.48,2.48l-.76,8.74-7.95-3.71c-1.2-.56-2.63-.18-3.39,.91l-5.03,7.19-5.03-7.19c-.52-.75-1.37-1.16-2.24-1.16-.39,0-.78,.08-1.15,.26l-7.95,3.71-.76-8.74c-.11-1.32-1.16-2.37-2.48-2.48l-8.74-.76,3.71-7.95c.56-1.2,.18-2.63-.91-3.39l-7.19-5.03,7.19-5.03Z" fill="#fff"/><path d="M233.75,126.37c1.47,0,2.67-1.2,2.67-2.67s-1.2-2.67-2.67-2.67-2.67,1.2-2.67,2.67,1.2,2.67,2.67,2.67Z" fill="#fff"/><path d="M247.63,134.91c-1.47,0-2.67,1.2-2.67,2.67s1.2,2.67,2.67,2.67,2.67-1.2,2.67-2.67-1.2-2.67-2.67-2.67Z" fill="#fff"/><path d="M230.56,143.68c.7,0,1.4-.27,1.93-.8l20.68-20.68c1.07-1.07,1.07-2.79,0-3.86-1.07-1.07-2.79-1.07-3.86,0l-20.68,20.68c-1.07,1.07-1.07,2.79,0,3.86,.53,.53,1.23,.8,1.93,.8Z" fill="#fff"/><path d="M338.15,255.8l-26.4-45.73-4.27-7.4s0,0,0,0l-22.13-38.32c-.75-1.31-2.42-1.75-3.73-1l-15.61,9.01c-.63,.36-1.08,.96-1.27,1.66-.19,.7-.09,1.44,.27,2.07l23.26,40.29,.02,.03v47.04h-38.79v-54.7h22.52c1.51,0,2.73-1.22,2.73-2.73s-1.22-2.73-2.73-2.73h-78.18l2.21-1.6c1.22-.88,1.49-2.59,.61-3.81-.88-1.22-2.59-1.49-3.81-.61l-9.03,6.54c-.05,.04-.09,.09-.14,.13-.08,.06-.16,.13-.23,.2-.06,.06-.11,.13-.17,.2-.06,.07-.11,.14-.16,.21-.05,.07-.09,.15-.13,.23-.04,.08-.08,.16-.12,.24-.03,.08-.05,.17-.08,.25-.02,.08-.05,.17-.07,.25-.02,.1-.02,.2-.03,.3,0,.06-.02,.12-.02,.19v60.16c0,1.51,1.22,2.73,2.73,2.73h105.6c1.51,0,2.73-1.22,2.73-2.73v-40.32l1.94,3.36s0,0,0,0l22.13,38.32c.51,.88,1.42,1.36,2.36,1.36,.46,0,.93-.12,1.36-.37l15.61-9.01c.63-.36,1.08-.96,1.27-1.66,.19-.7,.09-1.44-.27-2.07Zm-94.1,7.65h-11.66v-54.7h11.66v54.7Zm-55.9-54.7h38.79v54.7h-38.79v-54.7Zm121.78,9.1l-10.88,6.28-2.91-5.04-2.91-5.04,10.88-6.28,2.91,5.04,2.91,5.04Zm-27.95-48.4l19.4,33.6-10.88,6.28-19.4-33.6,10.88-6.28Zm39.19,93.01l-19.4-33.6,10.88-6.28,19.4,33.6-10.88,6.28Z" fill="#fff"/><path d="M164.25,118.57c.53,.75,1.38,1.16,2.23,1.16,.54,0,1.09-.16,1.57-.5,1.23-.87,1.53-2.57,.66-3.8l-1.8-2.55c-.87-1.23-2.57-1.53-3.8-.66-1.23,.87-1.53,2.57-.66,3.8l1.8,2.55Z" fill="#fff"/><path d="M198.15,166.68c.53,.75,1.38,1.16,2.23,1.16,.54,0,1.09-.16,1.57-.5,1.23-.87,1.53-2.57,.66-3.8l-28.07-39.84c-.87-1.23-2.57-1.53-3.8-.66-1.23,.87-1.53,2.57-.66,3.8l28.07,39.84Z" fill="#fff"/><path d="M205.98,173.06c-1.23,.87-1.53,2.57-.66,3.8l1.81,2.57c.53,.75,1.38,1.16,2.23,1.16,.54,0,1.09-.16,1.57-.5,1.23-.87,1.53-2.57,.66-3.8l-1.81-2.57c-.87-1.23-2.57-1.53-3.8-.66Z" fill="#fff"/><path d="M206.06,199.49c.75,0,1.5-.31,2.04-.91,1-1.12,.9-2.85-.22-3.85l-.46-.41,4.59-2.97h49.84c1.51,0,2.73-1.22,2.73-2.73s-1.22-2.73-2.73-2.73h-50.64c-.53,0-1.04,.15-1.48,.44l-6.52,4.22-18.98-16.94c-1.12-1-2.85-.9-3.85,.22-1,1.12-.9,2.85,.22,3.85l23.67,21.11c.52,.46,1.17,.69,1.82,.69Z" fill="#fff"/><path d="M166.23,157.61c-1.12-1-2.85-.9-3.85,.22s-.9,2.85,.22,3.85l9.4,8.38c.52,.46,1.17,.69,1.81,.69,.75,0,1.5-.31,2.04-.91,1-1.12,.9-2.85-.22-3.85l-9.4-8.38Z" fill="#fff"/><path d="M173.17,191.11l-7.77-3.79c-1.35-.66-2.99-.1-3.65,1.26-.66,1.35-.1,2.99,1.26,3.65l7.77,3.79c.38,.19,.79,.28,1.19,.28,1.01,0,1.98-.56,2.45-1.53,.66-1.35,.1-2.99-1.26-3.65Z" fill="#fff"/><path d="M316.14,118.45c.48,.33,1.02,.49,1.56,.49,.86,0,1.71-.41,2.24-1.17l1.23-1.77c.86-1.24,.56-2.94-.67-3.8-1.23-.86-2.94-.56-3.8,.67l-1.23,1.77c-.86,1.24-.56,2.94,.67,3.8Z" fill="#fff"/><path d="M288.57,157.92c.48,.33,1.02,.49,1.56,.49,.86,0,1.71-.41,2.24-1.17l21.12-30.23c.86-1.24,.56-2.94-.67-3.8-1.23-.86-2.94-.56-3.8,.67l-21.12,30.23c-.86,1.24-.56,2.94,.67,3.8Z" fill="#fff"/><path d="M301.42,171.96l-1.21,1.07c-1.13,1-1.23,2.72-.23,3.85,.54,.61,1.29,.92,2.04,.92,.64,0,1.29-.23,1.81-.69l1.21-1.07c1.13-1,1.23-2.72,.23-3.85-1-1.13-2.72-1.23-3.85-.23Z" fill="#fff"/><path d="M309.18,168.74c.54,.61,1.29,.91,2.04,.91,.65,0,1.29-.23,1.81-.69l13.66-12.15c1.13-1,1.23-2.73,.22-3.85-1-1.13-2.73-1.23-3.85-.22l-13.66,12.15c-1.13,1-1.23,2.73-.22,3.85Z" fill="#fff"/><path d="M325.18,183.98l-6.23,3.03c-1.35,.66-1.92,2.29-1.26,3.65,.47,.97,1.44,1.54,2.46,1.54,.4,0,.81-.09,1.19-.28l6.23-3.03c1.35-.66,1.92-2.29,1.26-3.65-.66-1.35-2.29-1.92-3.65-1.26Z" fill="#fff"/></g></svg>