<?xml version="1.0" encoding="utf-8"?>
<!-- Generator: Adobe Illustrator 26.5.0, SVG Export Plug-In . SVG Version: 6.00 Build 0)  -->
<svg version="1.1" id="Capa_1" xmlns="http://www.w3.org/2000/svg" xmlns:xlink="http://www.w3.org/1999/xlink" x="0px" y="0px"
	 viewBox="0 0 500 359.3" style="enable-background:new 0 0 500 359.3;" xml:space="preserve">
<style type="text/css">
	.st0{fill:#385072;}
	.st1{fill:#FFFFFF;}
</style>
<path class="st0" d="M48.7,37h347.9c36.8,0,66.7,29.9,66.7,66.7v206.6c0,6.6-5.4,12-12,12H48.7c-6.6,0-12-5.4-12-12V49
	C36.7,42.4,42.1,37,48.7,37z"/>
<g>
	<path class="st1" d="M268.9,175.9c-4.3,2.6-5.9,8.1-3.5,12.6c5.7,10.5,10.5,21.6,14.4,33V210c-3.2-8.1-6.8-15.9-10.9-23.4
		c-1.4-2.6-0.5-5.8,2.2-7.4c0.8-0.5,1.7-0.7,2.6-0.7c1.9,0,3.6,1,4.5,2.8c0.5,1,1.1,2,1.6,3.1v-7.3
		C277,174.4,272.7,173.7,268.9,175.9L268.9,175.9z"/>
	<path class="st1" d="M287.7,290.2h48.8v-42.4h-48.8V290.2z M291.6,251.7h40.9v34.5h-40.9V251.7L291.6,251.7z"/>
	<path class="st1" d="M332.2,172.8c-1.7,0-3.3,0.6-4.6,1.5c-1.3-3.1-4.4-5.3-8.1-5.3c-2,0-3.8,0.6-5.2,1.8c-1.2-3.4-4.4-5.8-8.3-5.8
		c-1.7,0-3.4,0.5-4.7,1.4v-21.9c0-4.8-3.9-8.7-8.8-8.7s-8.7,3.9-8.7,8.7v80.2c0,6.5,2.8,12.5,7.8,16.6v2.6h4v-3.6
		c0-0.6-0.3-1.2-0.8-1.6c-4.5-3.4-7-8.5-7-14.1v-80.2c0-2.6,2.1-4.7,4.9-4.7s4.7,2.1,4.7,4.7v47.7c0,1.1,0.9,2,2,2s2-0.9,2-2v-18.5
		c0-2.6,2.1-4.7,4.9-4.7s4.7,2.1,4.7,4.7v18.5c0,1.1,0.9,2,2,2s2-0.9,2-2v-14.5c0-2.6,2.1-4.7,4.9-4.7s4.7,2.1,4.7,4.7v14.5
		c0,1.1,0.9,2,2,2s2-0.9,2-2v-11.4c0-2.2,1.8-4,4.1-4c2.2,0,4,1.8,4,4v43.9c0,5.6-2.6,10.7-7,14.1c-0.5,0.4-0.8,1-0.8,1.6v3.6h4
		v-2.6c5-4.1,7.8-10.1,7.8-16.6v-43.9C340.3,176.4,336.8,172.8,332.2,172.8L332.2,172.8z"/>
	<path class="st1" d="M327.2,167.6V90.1H172.6v91.4h88.1c0.3-1.4,0.7-2.7,1.4-3.9h-85.6V94.1h146.8v71.6
		C324.7,166.1,326.1,166.7,327.2,167.6L327.2,167.6z"/>
	<path class="st1" d="M166.2,191c-1.4,0-2.5-1.1-2.5-2.5V83.1c0-1.4,1.1-2.5,2.5-2.5h167.4c1.4,0,2.5,1.1,2.5,2.5v86.4
		c1.5,0.5,2.8,1.3,4,2.3V83.1c0-3.6-2.9-6.5-6.5-6.5H166.2c-3.6,0-6.5,2.9-6.5,6.5v105.3c0,3.6,2.9,6.5,6.5,6.5h98.1
		c-0.7-1.3-1.3-2.6-2-3.9H166.2z"/>
	<path class="st1" d="M229.1,103.6l-10.4,17h7.2v46.7h47.4v-46.7h8l-11.3-17L229.1,103.6L229.1,103.6z M252.4,162.8h-5.1v-5.9h5.1
		V162.8z M268.8,116.1v46.7h-12.4v-9.9h-13v9.9h-13.1v-46.7h-3.7l4.9-8h36.1l5.3,8H268.8z"/>
	<rect x="234.4" y="116.5" class="st1" width="4.5" height="6.6"/>
	<rect x="242.9" y="116.5" class="st1" width="4.5" height="6.6"/>
	<rect x="251.5" y="116.5" class="st1" width="4.5" height="6.6"/>
	<rect x="260" y="116.5" class="st1" width="4.5" height="6.6"/>
	<rect x="234.4" y="128.9" class="st1" width="4.5" height="6.6"/>
	<rect x="242.9" y="128.9" class="st1" width="4.5" height="6.6"/>
	<rect x="251.5" y="128.9" class="st1" width="4.5" height="6.6"/>
	<rect x="260" y="128.9" class="st1" width="4.5" height="6.6"/>
	<rect x="234.4" y="141.2" class="st1" width="4.5" height="6.6"/>
	<rect x="242.9" y="141.2" class="st1" width="4.5" height="6.6"/>
	<rect x="251.5" y="141.2" class="st1" width="4.5" height="6.6"/>
	<rect x="260" y="141.2" class="st1" width="4.5" height="6.6"/>
	<rect x="234.4" y="152.8" class="st1" width="4.5" height="6.6"/>
	<rect x="260" y="152.8" class="st1" width="4.5" height="6.6"/>
	<path class="st1" d="M177.5,73.6h12.3c1.2,0,2.2-1,2.2-2.2s-1-2.2-2.2-2.2h-12.3c-1.2,0-2.2,1-2.2,2.2S176.3,73.6,177.5,73.6z"/>
	<path class="st1" d="M199.5,73.6h21.1c1.2,0,2.2-1,2.2-2.2s-1-2.2-2.2-2.2h-21.1c-1.2,0-2.2,1-2.2,2.2S198.2,73.6,199.5,73.6z"/>
	<path class="st1" d="M243.3,184.3c-1.2,0-2.2,1-2.2,2.2s1,2.2,2.2,2.2h13.3c1.2,0,2.2-1,2.2-2.2s-1-2.2-2.2-2.2H243.3z"/>
	<path class="st1" d="M165.7,96.7v26.3c0,1.2,1,2.2,2.2,2.2s2.2-1,2.2-2.2V96.7c0-1.2-1-2.2-2.2-2.2S165.7,95.5,165.7,96.7z"/>
	<path class="st1" d="M331.5,94.5c-1.2,0-2.2,1-2.2,2.2v26.3c0,1.2,1,2.2,2.2,2.2s2.2-1,2.2-2.2V96.7
		C333.8,95.5,332.8,94.5,331.5,94.5z"/>
</g>
</svg>
