<?xml version="1.0" encoding="UTF-8"?><svg id="Capa_1" xmlns="http://www.w3.org/2000/svg" viewBox="0 0 500 359.28"><path d="M48.7,37H450.13c7.27,0,13.17,5.9,13.17,13.17V310.28c0,6.62-5.38,12-12,12H48.7c-6.62,0-12-5.38-12-12V49c0-6.62,5.38-12,12-12Z" fill="#385072"/><g><g><g><path d="M202.9,213.4c-8.32,.99-16.86-.26-24.66-3.6-24.77-10.62-36.1-38.9-26.1-64.5,1.66-4.26,9.73-19.38,16.54-30.01,.68-1.06,2.02-1.47,3.18-.98l79.62,34.16c1.16,.49,1.79,1.76,1.49,2.98-2.98,12.19-8.4,28.48-10.35,32.66-7.61,16.29-22.45,27.24-39.73,29.3Zm-31.05-93.48c-6.3,10.07-13.45,23.51-14.91,27.25-8.98,23,1.13,48.38,23.04,57.76,7.27,3.12,14.89,4.23,22.31,3.34,15.25-1.82,28.92-11.92,35.67-26.36,1.73-3.67,6.54-18.13,9.49-29.58l-75.6-32.42Z" fill="#fff"/><path d="M182.96,283.77c-.43,.05-.89-.01-1.32-.19l-59.44-25.5c-1.31-.56-1.91-2.07-1.35-3.39,.56-1.3,2.07-1.9,3.38-1.35,4.81,2.06,10.07,2.82,15.21,2.21,10.54-1.26,19.67-8.09,23.86-17.83,.56-1.31,2.08-1.91,3.38-1.36,1.29,.57,1.91,2.08,1.35,3.39-6.45,15.08,.56,32.6,15.62,39.08,1.32,.55,1.93,2.08,1.36,3.39-.37,.88-1.18,1.44-2.06,1.54Zm-41.95-23.22l25.91,11.11c-4.27-6.05-6.56-13.37-6.43-20.86-5.22,5.16-12.03,8.65-19.48,9.75Z" fill="#fff"/><path d="M201.85,204.62c-6.82,.81-13.79-.21-20.17-2.94-20.23-8.68-29.49-31.79-21.32-52.71,1.63-3.79,3.95-5.86,6.91-6.21,5.37-.64,11.1,4.52,18.37,11.04,7.84,7.05,16.71,15.04,25.58,15.74,2.57,.21,4.93,.18,7.05-.07,5.88-.7,10.21-3.1,14.45-8.04,5.41-6.29,7.03-11.33,5.43-16.83-.22-.75-.71-1.62-1.15-2.4-.64-1.13-1.19-2.1-1.24-3.18-.16-3.21,2.27-5.99,5.54-6.16,3.22-.16,5.98,2.32,6.16,5.53,.04,.83-.14,1.87-.6,3.4-2.08,8.43-6.53,24.87-12.52,38.84-6.25,13.37-18.38,22.31-32.49,24Zm-33.97-56.74c-.38,.04-1.52,.18-2.76,3.05-7.13,18.25,.93,38.45,18.36,45.92,5.78,2.47,11.84,3.37,17.76,2.66,12.15-1.45,23.03-9.49,28.4-20.99,1.5-3.49,2.89-7.15,4.18-10.81-6.12,5.7-13.17,7.76-23.01,6.97-10.6-.84-20.18-9.45-28.62-17.04-5.54-4.98-11.26-10.12-14.32-9.76Zm73.03-9.29c.12,.27,.37,.72,.58,1.08,.13,.24,.27,.47,.4,.73,.41-1.37,.43-1.77,.43-1.8-.02-.34-.36-.64-.75-.62-.36,.04-.61,.3-.66,.6Z" fill="#fff"/></g><path d="M165.96,241.3c-.42,.05-.89,0-1.31-.19-1.31-.56-1.91-2.07-1.35-3.38l13.45-31.37c.56-1.31,2.07-1.92,3.38-1.35,1.3,.57,1.92,2.07,1.35,3.39l-13.44,31.37c-.37,.87-1.19,1.44-2.07,1.54Z" fill="#fff"/><path d="M170.13,139.13c-.51,.06-1.04-.03-1.54-.3-1.25-.69-1.7-2.25-1.02-3.5l4.79-8.7c.69-1.25,2.25-1.71,3.5-1.02,1.25,.69,1.7,2.26,1.02,3.5l-4.79,8.7c-.42,.76-1.15,1.22-1.95,1.31Z" fill="#fff"/></g><g><g><path d="M259.09,143.79c-1.86-4.22-6.89-20.63-9.58-32.89-.27-1.23,.39-2.48,1.56-2.94l80.4-32.27c1.17-.46,2.5-.02,3.15,1.05,6.56,10.79,14.27,26.09,15.83,30.39,9.4,25.83-2.59,53.84-27.6,63.87-7.88,3.16-16.44,4.21-24.74,3.02-17.22-2.46-31.8-13.76-39.03-30.22Zm-4.07-31.87c2.67,11.51,7.15,26.09,8.79,29.79,6.41,14.59,19.84,25.01,35.04,27.19,7.4,1.06,15.05,.13,22.39-2.82,22.12-8.87,32.83-34,24.39-57.21-1.37-3.77-8.21-17.37-14.27-27.59l-76.34,30.64Z" fill="#fff"/><path d="M314.38,243.24c-.54-1.32,.11-2.83,1.44-3.35,15.2-6.12,22.62-23.47,16.53-38.7-.52-1.33,.13-2.82,1.43-3.36,1.32-.52,2.82,.12,3.35,1.44,3.96,9.84,12.92,16.88,23.43,18.39,5.13,.73,10.4,.09,15.26-1.85,1.32-.52,2.82,.11,3.35,1.43,.53,1.33-.1,2.83-1.43,3.35l-60.02,24.09c-.44,.17-.89,.22-1.33,.16-.87-.12-1.67-.7-2.02-1.59Zm25.26-30.84c-.04,7.48-2.51,14.75-6.92,20.7l26.16-10.5c-7.42-1.28-14.15-4.92-19.25-10.2Z" fill="#fff"/><path d="M267.46,140.5c-5.66-14.11-9.72-30.65-11.6-39.12-.42-1.54-.58-2.59-.52-3.42,.26-3.2,3.08-5.62,6.29-5.38,3.26,.25,5.63,3.09,5.39,6.29-.08,1.08-.65,2.03-1.32,3.15-.45,.77-.97,1.63-1.2,2.38-1.72,5.46-.22,10.54,5.04,16.95,4.13,5.04,8.4,7.54,14.26,8.38,2.12,.3,4.48,.39,7.05,.24,8.87-.49,17.93-8.27,25.94-15.14,7.41-6.35,13.27-11.37,18.62-10.61,2.96,.42,5.22,2.55,6.76,6.37,7.67,21.11-2.13,44-22.55,52.2-6.44,2.58-13.44,3.44-20.23,2.46-14.07-2.01-25.99-11.24-31.92-24.75Zm52.67-21.76c-8.62,7.39-18.39,15.77-29.01,16.36-9.85,.56-16.85-1.67-22.84-7.51,1.21,3.69,2.51,7.38,3.93,10.91,5.1,11.63,15.79,19.92,27.9,21.66,5.9,.84,11.98,.09,17.82-2.24,17.6-7.06,26.13-27.07,19.43-45.48-1.17-2.9-2.31-3.06-2.68-3.11-3.05-.44-8.89,4.58-14.54,9.42Zm-58.9-21.04c-.39-.03-.73,.26-.76,.6,0,.02,0,.43,.39,1.81,.14-.26,.28-.49,.42-.72,.22-.35,.48-.8,.61-1.07-.04-.3-.29-.56-.65-.61Z" fill="#fff"/></g><path d="M334.39,202.77c.42,.06,.89,.01,1.32-.16,1.32-.52,1.96-2.03,1.43-3.35l-12.71-31.68c-.52-1.32-2.02-1.97-3.35-1.43-1.32,.53-1.97,2.02-1.43,3.35l12.7,31.68c.35,.88,1.15,1.46,2.03,1.59Z" fill="#fff"/><path d="M332.62,100.53c.51,.07,1.04,0,1.55-.26,1.27-.66,1.75-2.21,1.1-3.48l-4.58-8.81c-.66-1.26-2.21-1.76-3.47-1.1-1.27,.66-1.75,2.22-1.1,3.48l4.58,8.81c.4,.77,1.13,1.25,1.92,1.36Z" fill="#fff"/></g></g></svg>