<?xml version="1.0" encoding="utf-8"?>
<!-- Generator: Adobe Illustrator 26.5.0, SVG Export Plug-In . SVG Version: 6.00 Build 0)  -->
<svg version="1.1" id="Capa_1" xmlns="http://www.w3.org/2000/svg" xmlns:xlink="http://www.w3.org/1999/xlink" x="0px" y="0px"
	 viewBox="0 0 500 359.3" style="enable-background:new 0 0 500 359.3;" xml:space="preserve">
<style type="text/css">
	.st0{fill:#385072;}
	.st1{fill:#FFFFFF;}
</style>
<path class="st0" d="M48.7,37h347.9c36.8,0,66.7,29.9,66.7,66.7v206.6c0,6.6-5.4,12-12,12H48.7c-6.6,0-12-5.4-12-12V49
	C36.7,42.4,42.1,37,48.7,37z"/>
<g>
	<g>
		<g>
			<path class="st1" d="M232.9,264.6h-46.2c-1.4,0-2.6-1.2-2.6-2.6v-68.2c0-6.4,2.2-14.3,5-24.3c4.3-15.3,10.2-36.3,10.2-62.2
				c0-1.4,1.1-2.6,2.6-2.6h15.7c1.4,0,2.6,1.2,2.6,2.6c0.1,25.9,5.9,46.9,10.2,62.2c2.8,10,5,17.9,5,24.3V262
				C235.5,263.4,234.3,264.6,232.9,264.6L232.9,264.6z M189.3,259.5h41.1v-65.6c0-5.7-2.1-13.3-4.8-22.9c-4.2-15.1-10-35.6-10.4-61
				h-10.6c-0.4,25.4-6.2,45.9-10.4,61c-2.7,9.6-4.8,17.2-4.8,22.9L189.3,259.5L189.3,259.5z"/>
			<path class="st1" d="M195,229.6c-1.4,0-2.6-1.2-2.6-2.6v-27c0-1.4,1.1-2.6,2.6-2.6s2.6,1.2,2.6,2.6v27
				C197.6,228.4,196.4,229.6,195,229.6z"/>
			<path class="st1" d="M195,256.4c-1.4,0-2.6-1.1-2.6-2.6v-14.6c0-1.4,1.1-2.6,2.6-2.6s2.6,1.1,2.6,2.6v14.6
				C197.6,255.2,196.4,256.4,195,256.4z"/>
		</g>
		<path class="st1" d="M217.7,109.9H202c-1.4,0-2.6-1.2-2.6-2.6v-5.5c0-3.9,3.2-7.2,7.3-7.2h6.4c4,0,7.3,3.2,7.3,7.2v5.5
			C220.3,108.8,219.1,109.9,217.7,109.9L217.7,109.9z M204.5,104.8h10.6v-2.9c0-1.1-1-2-2.1-2h-6.4c-1.1,0-2.1,0.9-2.1,2V104.8z"/>
	</g>
	<g>
		<g>
			<path class="st1" d="M282.1,220.1c-18.5,0-33.3-14.8-33.9-33.6c-0.1-3.4,1-15.3,2.3-23.2c0.2-1.2,1.3-2.1,2.5-2.1
				c0,0,58,0.2,58,0.2c1.3,0,2.3,0.9,2.5,2.1c1.4,8.3,2.4,19.9,2.3,23C315.2,205.3,300.4,220.1,282.1,220.1L282.1,220.1z
				 M255.2,166.3c-1.1,7.7-1.9,17.4-1.9,20c0.5,16.1,13.1,28.7,28.6,28.7s28.3-12.6,28.8-28.7c0.1-2.6-0.7-12.2-1.8-19.8
				L255.2,166.3L255.2,166.3z"/>
			<path class="st1" d="M267.9,205c-0.7,0-1.4-0.3-1.9-0.9c-2.4-2.8-4.2-5.9-5.3-9.3c-0.4-1.4,0.3-2.8,1.7-3.2
				c1.4-0.4,2.8,0.3,3.2,1.7c0.9,2.7,2.3,5.2,4.2,7.4c1,1.1,0.9,2.7-0.2,3.6C269.1,204.8,268.5,205,267.9,205L267.9,205z"/>
			<path class="st1" d="M262.2,186.8c-1.7-0.1-2.7-1.4-2.6-2.8l0.1-0.8c0.3-2.7,1.1-9.9,1.1-9.9l5.1,0.5c0,0-0.8,7.2-1,9.8l-0.1,0.8
				C264.6,185.8,263.5,186.8,262.2,186.8L262.2,186.8z"/>
			<path class="st1" d="M303.7,264.6h-43.3c-1.4,0-2.6-1.2-2.6-2.6s1.2-2.6,2.6-2.6c10.5,0,19.1-8.5,19.1-19.1
				c0-1.4,1.1-2.6,2.6-2.6s2.6,1.1,2.6,2.6c0,10.5,8.6,19.1,19.1,19.1c1.4,0,2.6,1.1,2.6,2.6S305.1,264.6,303.7,264.6L303.7,264.6z
				 M275.3,259.5h13.5c-2.8-2.2-5.1-5-6.7-8.2C280.4,254.4,278.1,257.3,275.3,259.5z"/>
		</g>
		<path class="st1" d="M282,243c-1.4,0-2.6-1.2-2.6-2.6v-22.9c0-1.4,1.1-2.6,2.6-2.6s2.6,1.2,2.6,2.6v22.9
			C284.6,241.8,283.4,243,282,243z"/>
	</g>
</g>
</svg>
