<?xml version="1.0" encoding="UTF-8"?>
<svg id="Capa_2" data-name="Capa 2" xmlns="http://www.w3.org/2000/svg" viewBox="0 0 22.91 23.74">
  <g id="Capa_3" data-name="Capa 3">
    <path d="M17.47,8.77h-1.06c-.14-.67-.28-1.34-.42-2.03-1.34,.28-2.66,.44-4.02,.47v1.56h-1.02v-1.56c-1.36-.03-2.69-.18-4.03-.47-.14,.69-.28,1.36-.42,2.03h-1.06c.15-.77,.3-1.52,.45-2.29-1.03-.29-2.04-.68-3-1.22-.83,1.06-1.43,2.24-1.82,3.52H.01C1,4.68,4.9,.51,10.4,.05c6.46-.54,11.28,3.93,12.51,8.72h-1.06c-.32-1.06-.8-2.06-1.43-2.98-.12-.18-.25-.35-.39-.54-.96,.53-1.97,.93-3.01,1.22,.15,.77,.3,1.52,.46,2.29M7.21,5.74c1.25,.27,2.47,.41,3.72,.43V1.1c-.09,.02-.16,.03-.22,.05-.67,.22-1.18,.64-1.64,1.15-.56,.62-.97,1.34-1.31,2.1-.19,.43-.36,.88-.55,1.33M11.98,1.08V6.17c1.25-.03,2.47-.16,3.69-.43,0-.04,0-.06-.02-.08-.3-.88-.67-1.73-1.18-2.51-.48-.74-1.04-1.4-1.85-1.81-.2-.1-.42-.17-.64-.26m2.51,.4c1.08,1.18,1.72,2.55,2.22,4.01,.92-.26,1.79-.59,2.64-1.04-1.36-1.42-2.95-2.4-4.85-2.98M6.16,5.48c.32-.71,.61-1.41,.94-2.1,.33-.69,.77-1.31,1.32-1.91-1.9,.58-3.5,1.56-4.85,2.98,.85,.45,1.72,.78,2.59,1.02"/>
    <path d="M2.89,18.49c.97-.54,1.98-.93,3.01-1.23-.15-.77-.3-1.51-.45-2.28h1.06c.14,.67,.27,1.33,.42,2.02,1.33-.28,2.66-.44,4.02-.46v-1.56h1.02v1.56c1.36,.03,2.69,.18,4.03,.47,.14-.68,.28-1.35,.42-2.03h1.06c-.15,.77-.3,1.52-.45,2.27,.5,.18,1.01,.34,1.51,.54,.5,.2,.99,.44,1.5,.68,.81-1.03,1.41-2.2,1.8-3.49h1.06c-1.02,4.17-4.97,8.29-10.46,8.73-6.21,.5-11.13-3.74-12.44-8.74,.34,0,.68,0,1.02,0,.03,0,.07,.07,.08,.11,.33,1.06,.82,2.05,1.46,2.97,.1,.15,.21,.29,.33,.44m4.36-.49s.01,.07,.02,.1c.33,.96,.75,1.89,1.33,2.73,.44,.62,.94,1.18,1.63,1.55,.22,.11,.46,.19,.71,.29v-5.1c-1.24,.02-2.47,.16-3.69,.43m4.73,4.64c.09-.02,.16-.03,.23-.06,.6-.2,1.1-.57,1.52-1.03,.93-1,1.48-2.21,1.93-3.48,0-.02,0-.05,0-.08-1.22-.26-2.44-.4-3.68-.42v5.07Zm-8.41-3.35c1.36,1.42,2.95,2.4,4.85,2.98-1.08-1.18-1.72-2.56-2.22-4.02-.91,.26-1.79,.58-2.64,1.04m13.14-1.04c-.5,1.47-1.14,2.84-2.22,4.02,1.9-.58,3.5-1.56,4.85-2.98-.85-.45-1.72-.78-2.64-1.04"/>
    <path d="M15.58,9.81c.37,0,.71,0,1.06,0,.04,0,.1,.07,.12,.12,.26,.85,.5,1.7,.75,2.55,0,.03,.02,.06,.05,.14,.12-.32,.22-.61,.32-.9,.21-.6,.42-1.2,.64-1.8,.02-.05,.08-.11,.13-.12,.36,0,.73,0,1.09,0,.12,0,.16,.04,.2,.15,.29,.87,.58,1.74,.87,2.61,.01,.03,.03,.06,.05,.11,.28-.96,.56-1.9,.84-2.85h1.11c-.01,.05-.02,.1-.04,.14-.42,1.29-.83,2.57-1.25,3.86-.03,.1-.08,.13-.18,.13-.29,0-.58-.01-.87,0-.13,0-.19-.04-.24-.17-.33-.94-.67-1.89-1-2.83,0-.02-.02-.04-.04-.09-.12,.34-.23,.65-.34,.96-.23,.66-.47,1.31-.7,1.98-.04,.11-.09,.13-.19,.13-.3,0-.59-.01-.89,0-.15,0-.2-.05-.24-.18-.33-1.06-.67-2.12-1.01-3.18-.08-.25-.16-.5-.25-.77"/>
    <path d="M5.35,12.67c.29-.98,.56-1.92,.84-2.86h1.12c-.08,.24-.15,.48-.22,.71-.35,1.08-.7,2.17-1.05,3.25-.04,.12-.09,.17-.22,.16-.3-.01-.59,0-.89,0-.09,0-.13-.03-.16-.12-.32-.9-.64-1.8-.96-2.7-.03-.08-.05-.15-.09-.26-.11,.31-.21,.58-.31,.86-.24,.69-.49,1.38-.73,2.07-.04,.12-.09,.16-.21,.15-.31,0-.63,0-.94,0-.05,0-.12-.05-.13-.09-.43-1.33-.85-2.67-1.27-4.01,0,0,0,0,.02-.03H.83q.4,0,.51,.38c.23,.8,.47,1.59,.72,2.44,.07-.21,.14-.38,.19-.54,.25-.72,.51-1.43,.76-2.15,.04-.11,.09-.14,.2-.14,.33,0,.66,.01,.99,0,.13,0,.19,.04,.23,.17,.27,.84,.55,1.68,.83,2.51,.02,.05,.04,.1,.08,.19"/>
    <path d="M11.45,10.86c-.19,.54-.36,1.04-.54,1.53-.17,.48-.34,.96-.51,1.44-.03,.09-.07,.12-.17,.12-.32,0-.64,0-.96,0-.08,0-.13,0-.16-.1-.42-1.33-.84-2.66-1.26-3.99,0,0,0-.01,0-.03h1.12c.27,.92,.54,1.85,.83,2.82,.32-.9,.63-1.76,.93-2.63,.05-.16,.12-.2,.28-.2,.32,.01,.64,.01,.96,0,.12,0,.17,.04,.21,.15,.29,.88,.58,1.75,.87,2.62,0,.02,.01,.04,.03,.09,.04-.13,.07-.23,.1-.33,.23-.8,.47-1.59,.7-2.4,.03-.11,.07-.14,.18-.14,.32,0,.64,0,.97,0-.14,.44-.28,.86-.41,1.29-.29,.9-.58,1.79-.87,2.69-.04,.12-.1,.15-.21,.15-.31,0-.62-.01-.92,0-.12,0-.12-.08-.15-.14-.31-.88-.63-1.77-.94-2.65-.03-.08-.06-.16-.1-.28"/>
  </g>
</svg>