<svg xmlns="http://www.w3.org/2000/svg" viewBox="0 0 50 15.47"><defs><style>.cls-1{fill:#a5a5a5;}.cls-2{fill:#fff;}</style></defs><g id="Capa_2" data-name="Capa 2"><rect x="0.31" y="0.42" width="49.38" height="14.63" rx="1.83"/><path class="cls-1" d="M47.86.71A1.54,1.54,0,0,1,49.4,2.25v11a1.54,1.54,0,0,1-1.54,1.54H2.14A1.54,1.54,0,0,1,.6,13.22v-11A1.54,1.54,0,0,1,2.14.71H47.86m0-.29H2.14A1.83,1.83,0,0,0,.31,2.25v11a1.83,1.83,0,0,0,1.83,1.83H47.86a1.83,1.83,0,0,0,1.83-1.83v-11A1.83,1.83,0,0,0,47.86.42Z"/><path class="cls-2" d="M15.41,5.17V3h.67a1,1,0,0,1,1.11,1.1,1.08,1.08,0,0,1-.3.79,1.09,1.09,0,0,1-.81.3Zm.28-.26h.39a.83.83,0,0,0,.6-.22.82.82,0,0,0,.23-.61.82.82,0,0,0-.23-.61.79.79,0,0,0-.6-.22h-.39Z"/><path class="cls-2" d="M15.41,5.17h0V3h.63a1,1,0,0,1,.78.29,1,1,0,0,1,.3.77,1,1,0,0,1-.3.76,1,1,0,0,1-.78.3h-.67v0h0v0h.67a1.13,1.13,0,0,0,.84-.31,1.12,1.12,0,0,0,.31-.82,1.12,1.12,0,0,0-.31-.82,1.14,1.14,0,0,0-.84-.32h-.71V5.21h0Zm.28-.26v0h.39a.85.85,0,0,0,.63-.23.82.82,0,0,0,.23-.63.85.85,0,0,0-.23-.64.89.89,0,0,0-.63-.23h-.42V4.94h0v0h0V3.29h.35a.82.82,0,0,1,.58.2.79.79,0,0,1,.21.59.73.73,0,0,1-.79.79h-.39v0h0Z"/><rect class="cls-2" x="17.59" y="2.98" width="0.28" height="2.19"/><polygon class="cls-2" points="17.59 5.17 17.63 5.17 17.63 3.02 17.83 3.02 17.83 5.14 17.59 5.14 17.59 5.17 17.63 5.17 17.59 5.17 17.59 5.21 17.87 5.21 17.91 5.21 17.91 2.94 17.59 2.94 17.55 2.94 17.55 5.21 17.59 5.21 17.59 5.17"/><path class="cls-2" d="M19,5.22a.81.81,0,0,1-.46-.15.68.68,0,0,1-.3-.44l.25-.1a.67.67,0,0,0,.19.3A.49.49,0,0,0,19,5a.55.55,0,0,0,.32-.09.33.33,0,0,0,.13-.26.36.36,0,0,0-.13-.29,1.46,1.46,0,0,0-.41-.18,1.06,1.06,0,0,1-.45-.24.5.5,0,0,1-.15-.37.55.55,0,0,1,.19-.41A.67.67,0,0,1,19,2.93a.73.73,0,0,1,.45.14.66.66,0,0,1,.23.31l-.26.1-.14-.19A.41.41,0,0,0,19,3.2a.42.42,0,0,0-.27.09l-.12.23.11.2a1,1,0,0,0,.31.16,1.18,1.18,0,0,1,.27.1l.22.13.17.2a.64.64,0,0,1,0,.56l-.18.2-.23.12Z"/><path class="cls-2" d="M19,5.22v0A.75.75,0,0,1,18.55,5a.7.7,0,0,1-.29-.42h0v0l.26-.1,0,0h0a.63.63,0,0,0,.2.33A.5.5,0,0,0,19,5a.55.55,0,0,0,.34-.1.36.36,0,0,0,.14-.29.37.37,0,0,0-.14-.32,1.39,1.39,0,0,0-.42-.19,1.08,1.08,0,0,1-.43-.23.46.46,0,0,1-.14-.34.51.51,0,0,1,.18-.39A.61.61,0,0,1,19,3a.65.65,0,0,1,.43.13.57.57,0,0,1,.21.29h0l0,0-.23.1-.12-.17h0a.52.52,0,0,0-.31-.1.54.54,0,0,0-.3.1h0l-.11.23v0l.11.22h0a1.27,1.27,0,0,0,.33.16l.26.1,0,0,0,0,.22.13.16.19,0,0h0a.76.76,0,0,1,.05.27.6.6,0,0,1-.06.27h0l0,0L19.46,5l-.22.11-.25,0v.07l.26,0h0l.23-.11h0l.18-.2h0a.6.6,0,0,0,.07-.3.73.73,0,0,0-.06-.3h0l-.17-.21h0L19.3,4h0L19,3.84a.94.94,0,0,1-.3-.14l0,0h0l-.1-.19.11-.21,0,0,0,0A.41.41,0,0,1,19,3.24a.4.4,0,0,1,.26.08l0,0,0,0,.14.19,0,0,.28-.12h0v0A.69.69,0,0,0,19.45,3,.72.72,0,0,0,19,2.89a.73.73,0,0,0-.51.19.55.55,0,0,0-.2.44.5.5,0,0,0,.16.39,1,1,0,0,0,.45.25,1.39,1.39,0,0,1,.4.18.3.3,0,0,1,.12.26.28.28,0,0,1-.11.23.49.49,0,0,1-.3.09.42.42,0,0,1-.29-.12.57.57,0,0,1-.18-.28v0l-.3.12h0v0a.83.83,0,0,0,.31.46.86.86,0,0,0,.49.16h0Z"/><path class="cls-2" d="M20.41,5.17h-.28V3h.75a.66.66,0,0,1,.48.19.58.58,0,0,1,.2.46.59.59,0,0,1-.2.47.71.71,0,0,1-.48.19h-.47Zm0-1.15h.47a.37.37,0,0,0,.29-.12.4.4,0,0,0,.11-.27.4.4,0,0,0-.11-.26.37.37,0,0,0-.29-.12h-.47Z"/><path class="cls-2" d="M20.41,5.17v0h-.24V3h.71a.64.64,0,0,1,.46.17.6.6,0,0,1,.19.44.58.58,0,0,1-.19.44.65.65,0,0,1-.46.18h-.5v.92h0v0h0V4.32h.43a.75.75,0,0,0,.51-.19.69.69,0,0,0,0-1,.76.76,0,0,0-.51-.2h-.79V5.21h.36v0Zm0-1.15v0h.47a.41.41,0,0,0,.32-.13.44.44,0,0,0,.11-.29.43.43,0,0,0-.11-.28.42.42,0,0,0-.32-.14h-.5v.84h0V4h0V3.29h.43a.33.33,0,0,1,.26.1l.1.24-.1.24a.33.33,0,0,1-.26.11h-.47V4h0Z"/><path class="cls-2" d="M23.71,4.89a1.13,1.13,0,0,1-1.6,0,1.1,1.1,0,0,1-.33-.81,1.14,1.14,0,0,1,.33-.82,1.06,1.06,0,0,1,.8-.33,1,1,0,0,1,.8.34,1.1,1.1,0,0,1,.33.81A1.1,1.1,0,0,1,23.71,4.89Zm-1.4-.18a.83.83,0,0,0,.6.24.85.85,0,0,0,.6-.24.88.88,0,0,0,.24-.63.85.85,0,0,0-.24-.63.82.82,0,0,0-.6-.25.8.8,0,0,0-.6.25.85.85,0,0,0-.24.63A.88.88,0,0,0,22.31,4.71Z"/><path class="cls-2" d="M23.71,4.89l0,0a1.11,1.11,0,0,1-1.56,0,1.09,1.09,0,0,1-.31-.79,1.08,1.08,0,0,1,.31-.79,1.11,1.11,0,0,1,1.56,0,1.09,1.09,0,0,1,.31.79,1.09,1.09,0,0,1-.31.79l0,0,0,0a1.17,1.17,0,0,0,.33-.84,1.17,1.17,0,0,0-.33-.84,1.16,1.16,0,0,0-1.66,0,1.17,1.17,0,0,0-.33.84,1.17,1.17,0,0,0,.33.84,1.18,1.18,0,0,0,1.66,0Zm-1.4-.18,0,0a.87.87,0,0,0,1.24,0,.89.89,0,0,0,.26-.65.9.9,0,0,0-.26-.66.87.87,0,0,0-1.24,0,.9.9,0,0,0-.26.66.89.89,0,0,0,.26.65l0,0,0,0a.79.79,0,0,1-.23-.6.81.81,0,0,1,.23-.61.82.82,0,0,1,1.14,0,.81.81,0,0,1,.23.61.79.79,0,0,1-.23.6.8.8,0,0,1-1.14,0Z"/><polygon class="cls-2" points="24.43 5.17 24.43 2.98 24.78 2.98 25.84 4.69 25.86 4.69 25.84 4.26 25.84 2.98 26.13 2.98 26.13 5.17 25.83 5.17 24.71 3.38 24.7 3.38 24.71 3.81 24.71 5.17 24.43 5.17"/><polygon class="cls-2" points="24.43 5.17 24.47 5.17 24.47 3.02 24.76 3.02 25.82 4.72 25.86 4.72 25.89 4.72 25.88 4.26 25.88 3.02 26.09 3.02 26.09 5.14 25.85 5.14 24.73 3.35 24.7 3.35 24.67 3.35 24.68 3.81 24.68 5.14 24.43 5.14 24.43 5.17 24.47 5.17 24.43 5.17 24.43 5.21 24.71 5.21 24.75 5.21 24.75 3.81 24.74 3.38 24.7 3.38 24.7 3.42 24.71 3.42 24.71 3.38 24.68 3.4 25.81 5.21 26.13 5.21 26.16 5.21 26.16 2.94 25.84 2.94 25.81 2.94 25.81 4.26 25.82 4.69 25.86 4.69 25.86 4.65 25.84 4.65 25.84 4.69 25.87 4.67 24.8 2.94 24.43 2.94 24.4 2.94 24.4 5.21 24.43 5.21 24.43 5.17"/><rect class="cls-2" x="26.63" y="2.98" width="0.28" height="2.19"/><polygon class="cls-2" points="26.63 5.17 26.66 5.17 26.66 3.02 26.87 3.02 26.87 5.14 26.63 5.14 26.63 5.17 26.66 5.17 26.63 5.17 26.63 5.21 26.91 5.21 26.95 5.21 26.95 2.94 26.63 2.94 26.59 2.94 26.59 5.21 26.63 5.21 26.63 5.17"/><path class="cls-2" d="M27.41,5.17V3h.8a.64.64,0,0,1,.44.17.54.54,0,0,1,.19.43.5.5,0,0,1-.08.27L28.54,4v0a.52.52,0,0,1,.27.19.48.48,0,0,1,.1.31.58.58,0,0,1-.19.45.68.68,0,0,1-.47.17Zm.28-1.25h.52a.32.32,0,0,0,.25-.1l.1-.24-.09-.23a.33.33,0,0,0-.25-.1h-.53Zm0,1h.57a.31.31,0,0,0,.26-.12.36.36,0,0,0,.11-.25l-.11-.24a.34.34,0,0,0-.27-.12h-.56Z"/><path class="cls-2" d="M27.41,5.17h0V3h.76a.6.6,0,0,1,.42.16.51.51,0,0,1,.17.4.41.41,0,0,1-.07.25l0,0,0,0L28.52,4h0v.05h0a.51.51,0,0,1,.25.18.43.43,0,0,1,.1.29.52.52,0,0,1-.19.42.64.64,0,0,1-.44.17h-.84v0h0v0h.84A.69.69,0,0,0,28.74,5,.59.59,0,0,0,29,4.55a.58.58,0,0,0-.11-.34.61.61,0,0,0-.29-.2v0h0V4h0l0,0,.21-.18h0a.48.48,0,0,0,.09-.29.61.61,0,0,0-.2-.46.67.67,0,0,0-.47-.18h-.83V5.21h0Zm.28-1.25V4h.52a.36.36,0,0,0,.28-.12h0l.09-.23v0l-.1-.24h0a.34.34,0,0,0-.27-.12h-.56V4h0v0h0V3.29h.49a.29.29,0,0,1,.22.09l0,0,0,0,.09.21-.09.22,0,0,0,0a.3.3,0,0,1-.23.09h-.52v0h0Zm0,1v0h.57a.37.37,0,0,0,.29-.12.43.43,0,0,0,.11-.28h0l-.1-.25h0a.41.41,0,0,0-.3-.12h-.59v.79h0v0h0V4.22h.52a.33.33,0,0,1,.25.1l0,0h0l.1.25,0,0h0l-.09.23a.3.3,0,0,1-.24.1h-.57v0h0Z"/><polygon class="cls-2" points="29.29 5.17 29.29 2.98 29.58 2.98 29.58 4.91 30.53 4.91 30.53 5.17 29.29 5.17"/><polygon class="cls-2" points="29.29 5.17 29.33 5.17 29.33 3.02 29.54 3.02 29.54 4.94 30.49 4.94 30.49 5.14 29.29 5.14 29.29 5.17 29.33 5.17 29.29 5.17 29.29 5.21 30.53 5.21 30.56 5.21 30.56 4.91 30.56 4.87 29.61 4.87 29.61 2.94 29.29 2.94 29.26 2.94 29.26 5.21 29.29 5.21 29.29 5.17"/><polygon class="cls-2" points="32.16 3.25 31.16 3.25 31.16 3.95 32.06 3.95 32.06 4.21 31.16 4.21 31.16 4.91 32.16 4.91 32.16 5.17 30.88 5.17 30.88 2.98 32.16 2.98 32.16 3.25"/><polygon class="cls-2" points="32.16 3.25 32.16 3.21 31.16 3.21 31.13 3.21 31.13 3.95 31.13 3.98 32.03 3.98 32.03 4.17 31.16 4.17 31.13 4.17 31.13 4.91 31.13 4.94 32.13 4.94 32.13 5.14 30.92 5.14 30.92 3.02 32.13 3.02 32.13 3.25 32.16 3.25 32.16 3.21 32.16 3.25 32.2 3.25 32.2 2.98 32.2 2.94 30.88 2.94 30.85 2.94 30.85 5.21 32.16 5.21 32.2 5.21 32.2 4.91 32.2 4.87 31.2 4.87 31.2 4.25 32.06 4.25 32.1 4.25 32.1 3.95 32.1 3.91 31.2 3.91 31.2 3.29 32.16 3.29 32.2 3.29 32.2 3.25 32.16 3.25"/><polygon class="cls-2" points="34.62 3.25 33.62 3.25 33.62 3.95 34.52 3.95 34.52 4.21 33.62 4.21 33.62 4.91 34.62 4.91 34.62 5.17 33.34 5.17 33.34 2.98 34.62 2.98 34.62 3.25"/><polygon class="cls-2" points="34.62 3.25 34.62 3.21 33.62 3.21 33.59 3.21 33.59 3.95 33.59 3.98 34.49 3.98 34.49 4.17 33.62 4.17 33.59 4.17 33.59 4.91 33.59 4.94 34.59 4.94 34.59 5.14 33.38 5.14 33.38 3.02 34.59 3.02 34.59 3.25 34.62 3.25 34.62 3.21 34.62 3.25 34.66 3.25 34.66 2.98 34.66 2.94 33.34 2.94 33.3 2.94 33.3 5.21 34.62 5.21 34.66 5.21 34.66 4.91 34.66 4.87 33.66 4.87 33.66 4.25 34.52 4.25 34.56 4.25 34.56 3.95 34.56 3.91 33.66 3.91 33.66 3.29 34.62 3.29 34.66 3.29 34.66 3.25 34.62 3.25"/><polygon class="cls-2" points="35.06 5.17 35.06 2.98 35.41 2.98 36.47 4.69 36.48 4.69 36.47 4.26 36.47 2.98 36.75 2.98 36.75 5.17 36.46 5.17 35.34 3.38 35.33 3.38 35.34 3.81 35.34 5.17 35.06 5.17"/><polygon class="cls-2" points="35.06 5.17 35.1 5.17 35.1 3.02 35.38 3.02 36.45 4.72 36.48 4.72 36.52 4.72 36.51 4.26 36.51 3.02 36.72 3.02 36.72 5.14 36.48 5.14 35.36 3.35 35.33 3.35 35.3 3.35 35.31 3.81 35.31 5.14 35.06 5.14 35.06 5.17 35.1 5.17 35.06 5.17 35.06 5.21 35.34 5.21 35.38 5.21 35.38 3.81 35.37 3.38 35.33 3.38 35.33 3.42 35.34 3.42 35.34 3.38 35.31 3.4 36.44 5.21 36.75 5.21 36.79 5.21 36.79 2.94 36.47 2.94 36.44 2.94 36.44 4.26 36.45 4.69 36.48 4.69 36.48 4.65 36.47 4.65 36.47 4.69 36.5 4.67 35.43 2.94 35.06 2.94 35.03 2.94 35.03 5.21 35.06 5.21 35.06 5.17"/><path class="cls-2" d="M12.43,8.25a1.78,1.78,0,0,1,.84-1.49A1.82,1.82,0,0,0,11.84,6c-.61-.06-1.19.36-1.5.36S9.55,6,9,6A1.93,1.93,0,0,0,7.43,7c-.69,1.2-.17,3,.49,3.95.34.47.73,1,1.24,1s.68-.32,1.28-.32.78.32,1.3.31.87-.48,1.19-1a4.35,4.35,0,0,0,.55-1.12A1.69,1.69,0,0,1,12.43,8.25Z"/><path class="cls-2" d="M11.44,5.34a1.69,1.69,0,0,0,.4-1.25,1.75,1.75,0,0,0-1.15.59,1.66,1.66,0,0,0-.41,1.21A1.47,1.47,0,0,0,11.44,5.34Z"/><path class="cls-2" d="M18.73,10.71H17l-.41,1.21H15.9l1.61-4.47h.75l1.61,4.47h-.73Zm-1.52-.56h1.35l-.67-2h0Z"/><path class="cls-2" d="M23.36,10.29c0,1-.55,1.66-1.36,1.66a1.12,1.12,0,0,1-1-.57h0V13h-.67V8.66h.65V9.2h0a1.14,1.14,0,0,1,1-.57C22.81,8.63,23.36,9.28,23.36,10.29Zm-.69,0c0-.66-.34-1.09-.86-1.09S21,9.64,21,10.29s.35,1.1.86,1.1S22.67,11,22.67,10.29Z"/><path class="cls-2" d="M26.94,10.29c0,1-.54,1.66-1.36,1.66a1.1,1.1,0,0,1-1-.57h0V13h-.67V8.66h.65V9.2h0a1.15,1.15,0,0,1,1-.57C26.4,8.63,26.94,9.28,26.94,10.29Zm-.69,0c0-.66-.34-1.09-.86-1.09s-.85.44-.85,1.09.34,1.1.85,1.1S26.25,11,26.25,10.29Z"/><path class="cls-2" d="M29.31,10.67c.05.45.48.74,1.07.74s1-.29,1-.69-.25-.56-.83-.7l-.58-.14c-.82-.2-1.2-.58-1.2-1.2s.67-1.3,1.63-1.3A1.43,1.43,0,0,1,32,8.68h-.67c0-.45-.41-.72-.95-.72s-.91.27-.91.67.24.5.81.64l.49.13c.92.21,1.3.58,1.3,1.23,0,.84-.66,1.36-1.72,1.36s-1.66-.51-1.71-1.32Z"/><path class="cls-2" d="M33.49,7.89v.77h.62v.53h-.62V11a.35.35,0,0,0,.4.4h.22v.53a2.73,2.73,0,0,1-.37,0c-.66,0-.92-.25-.92-.88V9.19h-.47V8.66h.47V7.89Z"/><path class="cls-2" d="M34.47,10.29a1.55,1.55,0,1,1,3.09,0,1.55,1.55,0,1,1-3.09,0Zm2.41,0c0-.7-.32-1.12-.86-1.12s-.87.42-.87,1.12.32,1.12.87,1.12S36.88,11,36.88,10.29Z"/><path class="cls-2" d="M38.11,8.66h.64v.56h0a.79.79,0,0,1,.79-.59l.23,0v.63a1,1,0,0,0-.3,0,.68.68,0,0,0-.7.75v1.93h-.67Z"/><path class="cls-2" d="M42.86,11a1.31,1.31,0,0,1-1.4,1,1.49,1.49,0,0,1-1.54-1.65,1.5,1.5,0,0,1,1.51-1.69,1.44,1.44,0,0,1,1.47,1.61v.23H40.6v0a.85.85,0,0,0,.87.92.74.74,0,0,0,.75-.46ZM40.6,10h1.63a.79.79,0,0,0-.8-.83A.83.83,0,0,0,40.6,10Z"/></g></svg>