<svg enable-background="new 0 0 525.3 66" viewBox="0 0 525.3 66" xmlns="http://www.w3.org/2000/svg"><path d="m42.3 50.8h2.7v1h-1.6v1h1v.9h-1v1.8h-1.2v-4.7z" fill="#38d430"/><path d="m48.5 50.8h1.7l1.4 4.7h-1.2l-.2-.8h-1.6l-.2.8h-1.2zm.3 2.9h1l-.4-1.2c-.1-.1-.1-.4-.1-.4h-.1s-.1.2-.1.4z" fill="#38d430"/><path d="m56.9 53.7 1.1 1.8h-1.4l-1-1.6h-.2v1.6h-1.2v-4.7h1.8c.4-.1.8.1 1.2.4.3.3.5.7.5 1.2.1.5-.2 1-.8 1.3zm-.5-1.8c-.1-.1-.2-.1-.4-.1h-.6v1.2h.6c.1 0 .3-.1.4-.1.1-.1.1-.3.1-.5.1-.2 0-.4-.1-.5z" fill="#38d430"/><path d="m63.4 54.9h-.6l-.8-1.7c-.1-.1-.1-.3-.1-.4h-.1s.1.5.1.7v2h-1.2v-4.7h1.3l1.1 2.5h.1l1.1-2.5h1.3v4.7h-1.2v-2c0-.2.1-.7.1-.7h-.1c-.1.1-.1.3-.1.4z" fill="#38d430"/><path d="m69.7 50.8h1.7l1.4 4.7h-1.2l-.2-.8h-1.6l-.2.8h-1.2zm.3 2.9h1l-.4-1.2c-.1-.1-.1-.4-.1-.4h-.1s-.1.2-.1.4z" fill="#38d430"/><path d="m78.7 55.2c-.4.2-.9.4-1.4.3-.5 0-1-.1-1.4-.4s-.7-.8-.7-2c0-1.3.2-1.7.6-2 .4-.4.9-.5 1.4-.5.4 0 .8.1 1.2.2l-.2 1c-.2-.1-.5-.1-.8-.1-.2 0-.5.1-.7.2s-.3.5-.3 1.2.1 1.1.3 1.2c.2.2.5.2.7.2.4 0 .7-.1 1-.2z" fill="#38d430"/><path d="m81.3 50.8h1.2v4.7h-1.2z" fill="#38d430"/><path d="m86.6 50.8h1.7l1.4 4.7h-1.2l-.2-.8h-1.6l-.2.8h-1.2zm.3 2.9h1l-.4-1.2c-.1-.1-.1-.4-.1-.4h-.1s-.1.2-.1.4z" fill="#38d430"/><path d="m94.1 55.6c-.6 0-1.2-.1-1.7-.4l.2-1c.4.2.9.3 1.4.4.4 0 .6-.1.6-.5 0-.2-.1-.4-.4-.5l-.5-.1c-.8-.2-1.3-.5-1.3-1.4s.6-1.4 1.7-1.4c.5 0 1 .1 1.4.4l-.4 1c-.3-.2-.7-.2-1.1-.2s-.5.2-.5.4.1.4.3.4l.5.1c.8.2 1.4.5 1.4 1.4 0 .8-.4 1.4-1.6 1.4z" fill="#38d430"/><path d="m72.9 31.2c-.7 1.4-1.6 5.2-.4 8.1 1.3 3.1 3.9 5.3 8.6 5.3s6.9-2.4 6.9-2.4c2.4 3.8 7.9 1.9 7.9 1.9l-.1-4h-1.3c-1.1 0-1.3-1.1-1.3-2.1v-10.7c-2.7-1.3-9.3-1.7-12.5-1.2.2 0-5.9.7-7.8 5.1zm14.3 6.6s-1.3 1.9-4.4 1.9c-2.9 0-4.2-1.5-4.4-3.1s-.4-6 5.4-6c1.2-.1 2.4.2 3.5.6z" fill="#fff"/><path d="m60 39.3 6.4-6.1c1.2-1.1 2.4-2.3 3.4-3.6l-.1-3.4h-19.1v5.1h9.6c-4.1 3.8-10.1 9.6-10.1 9.6v3.4h20.1l-.1-4.8z" fill="#fff"/><path d="m41.7 26.1-5 12.1-4.7-12.1h-7.1l7.8 18.7c-.2.2-.5.4-.8.5-.5.3-1.1.5-1.7.6-.5.1-1 .1-1.5.2-.5 0-1 0-1.4 0l-1 4.5c1 .1 2.2.1 3.6.1 2 .1 3.9-.3 5.7-1.1 1.4-.6 2.6-1.6 3.6-2.8.2-.2.4-.5.6-.8.2-.2.4-.5.5-.8l8.6-19.2z" fill="#fff"/><path d="m106.6 26.1v3.6c0 2.2 1.8 4 4 4s4-1.8 4-4v-3.6h3.6c2.2 0 4-1.8 4-4s-1.8-4-4-4h-3.6v-3.6c-.1-2.2-2-3.9-4.3-3.8-2 .1-3.7 1.7-3.8 3.8v3.5h-3.5c-2.2 0-4 1.8-4 4s1.8 4 4 4h3.6z" fill="#38d430"/><g fill="#001689"><path d="m114.6 19.1c0-.2.2-.4.4-.4.2 0 .4.2.4.4 0 .2-.2.4-.4.4s-.4-.2-.4-.4z"/><path d="m116.2 19.1c0-.2.1-.3.3-.3s.3.1.3.3-.1.3-.3.3-.3-.1-.3-.3z"/><path d="m117.7 19.1c0-.1.1-.2.2-.2s.2.1.2.2-.1.2-.1.2c-.1 0-.3 0-.3-.2z"/><path d="m119.3 19.1c0-.1.1-.1.1-.1.1 0 .1.1.1.1 0 .1-.1.1-.1.1-.1.1-.1 0-.1-.1z"/><path d="m119.3 20.6c0-.1.1-.1.1-.1.1 0 .1.1.1.1 0 .1-.1.1-.1.1-.1 0-.1-.1-.1-.1z"/><path d="m119.3 22c0-.1.1-.1.1-.1.1 0 .1.1.1.1 0 .1-.1.1-.1.1-.1 0-.1 0-.1-.1z"/><path d="m119.3 23.5c0-.1.1-.1.1-.1.1 0 .1.1.1.1 0 .1-.1.1-.1.1-.1.1-.1 0-.1-.1z"/><path d="m119.3 25c0-.1.1-.1.1-.1.1 0 .1.1.1.1 0 .1-.1.1-.1.1-.1 0-.1-.1-.1-.1z"/><path d="m115.4 19.9c0-.2.1-.3.3-.3s.3.1.3.3-.1.3-.3.3c-.2 0-.3-.2-.3-.3z"/><path d="m117 19.9c0-.1.1-.2.2-.2s.2.1.2.2-.1.2-.2.2-.2-.1-.2-.2z"/><path d="m118.5 19.9c0-.1.1-.1.1-.1s.1.1.2.1c0 .1-.1.1-.1.2h-.1c-.1-.1-.1-.2-.1-.2z"/><path d="m114.6 20.6c0-.2.2-.4.4-.4.2 0 .4.2.4.4s-.2.4-.4.4c-.2-.1-.4-.2-.4-.4z"/><path d="m116.2 20.6c0-.2.1-.3.3-.3s.3.1.3.3-.1.3-.3.3-.3-.1-.3-.3z"/><path d="m117.7 20.6c0-.1.1-.2.2-.2s.2.1.2.2-.1.2-.2.2-.2-.1-.2-.2z"/><path d="m115.4 21.3c0-.2.1-.3.3-.3s.3.1.3.3-.1.3-.3.3c-.2 0-.3-.1-.3-.3z"/><path d="m117 21.3c0-.1.1-.2.2-.2s.2.1.2.2-.1.2-.2.2-.2 0-.2-.2c0 .1 0 .1 0 0z"/><path d="m118.5 21.3c0-.1.1-.1.1-.1s.1.1.2.1c0 .1-.1.1-.1.2h-.1c-.1-.1-.1-.1-.1-.2z"/><path d="m114.6 22c0-.2.2-.4.4-.4.2 0 .4.2.4.4s-.2.4-.4.4c-.2 0-.4-.1-.4-.4z"/><path d="m116.2 22c0-.2.1-.3.3-.3s.3.1.3.3-.1.3-.3.3-.3-.1-.3-.3z"/><path d="m117.7 22c0-.1.1-.2.2-.2s.2.1.2.2-.1.2-.2.2-.2-.1-.2-.2z"/><path d="m115.4 22.7c0-.2.1-.3.3-.3s.3.1.3.3-.1.3-.3.3c-.2 0-.3-.1-.3-.3z"/><path d="m117 22.7c0-.1.1-.2.2-.2s.2.1.2.2-.1.2-.2.2c-.2.1-.2 0-.2-.2z"/><path d="m118.5 22.7c0-.1.1-.1.1-.1s.1.1.1.1c0 .1-.1.1-.1.1-.1.1-.1.1-.1-.1z"/><path d="m114.6 23.5c0-.2.2-.4.4-.4.2 0 .4.2.4.4 0 .2-.2.4-.4.4s-.4-.2-.4-.4z"/><path d="m116.2 23.5c0-.2.1-.3.3-.3s.3.1.3.3-.1.3-.3.3-.3-.1-.3-.3z"/><path d="m117.7 23.5c0-.1.1-.2.2-.2s.2.1.2.2-.1.2-.2.2-.2 0-.2-.2z"/><path d="m115.4 24.3c.1-.2.2-.3.4-.2.1 0 .2.1.2.2-.1.2-.2.3-.4.2-.1-.1-.1-.1-.2-.2z"/><path d="m117 24.3c0-.1.1-.2.2-.2s.2.1.2.2-.1.2-.2.2c-.2-.1-.2-.1-.2-.2z"/><path d="m118.5 24.3c0-.1.1-.1.1-.1s.1.1.2.1c0 .1-.1.1-.1.2h-.1c-.1-.1-.1-.2-.1-.2z"/><path d="m114.6 25c0-.2.2-.4.4-.4.2 0 .4.2.4.4s-.2.4-.4.4c-.2-.1-.4-.2-.4-.4z"/><path d="m116.2 25c0-.2.1-.3.3-.3s.3.1.3.3c0 .2-.1.3-.3.3s-.3-.2-.3-.3z"/><path d="m117.7 25c0-.1.1-.2.2-.2s.2.1.2.2-.1.2-.2.2-.2-.1-.2-.2z"/><path d="m113.5 26.1c.2 0 .4.2.4.4 0 .2-.2.4-.4.4-.2 0-.4-.2-.4-.4 0-.2.2-.4.4-.4z"/><path d="m113.5 27.6c.2 0 .3.1.3.3s-.1.3-.3.3-.3-.1-.3-.3c0-.1.2-.3.3-.3z"/><path d="m113.5 29.2c.1 0 .2.1.2.2s-.1.2-.2.2c-.1 0-.2-.1-.2-.2s.1-.2.2-.2z"/><path d="m113.5 30.8c.1 0 .1.1.1.1 0 .1-.1.1-.1.1-.1 0-.1-.1-.1-.1 0-.1 0-.1.1-.1z"/><path d="m112 30.8c.1 0 .1.1.1.1 0 .1-.1.1-.1.1-.1 0-.1-.1-.1-.1.1-.1.1-.1.1-.1z"/><path d="m110.6 30.8c.1 0 .1.1.1.1 0 .1-.1.1-.1.1-.1 0-.1-.1-.1-.1s0-.1.1-.1z"/><path d="m109.1 30.8c.1 0 .1.1.1.1 0 .1-.1.1-.1.1-.1 0-.1-.1-.1-.1s.1-.1.1-.1z"/><path d="m107.7 30.8c.1 0 .1.1.1.1 0 .1-.1.1-.1.1-.1 0-.1-.1-.1-.1s0-.1.1-.1z"/><path d="m112.8 26.9c.2.1.3.2.2.4 0 .1-.1.2-.2.2-.2-.1-.3-.2-.2-.4 0-.1 0-.2.2-.2z"/><path d="m112.8 28.5c.1 0 .2.1.2.2s-.1.2-.2.2-.2-.1-.2-.2c-.1-.2 0-.2.2-.2z"/><path d="m112.8 30c.1 0 .1.1.1.1 0 .1-.1.1-.1.2-.1 0-.1-.1-.2-.1v-.1c0-.1.1-.1.2-.1z"/><path d="m112 26.1c.2 0 .4.2.4.4s-.2.4-.4.4c-.2 0-.4-.2-.4-.4.1-.2.3-.4.4-.4z"/><path d="m112 27.6c.2 0 .3.1.3.3s-.1.3-.3.3-.3-.1-.3-.3c0-.1.2-.3.3-.3z"/><path d="m112 29.2c.1 0 .2.1.2.2s-.1.2-.2.2c-.1 0-.2-.1-.2-.2.1-.1.1-.2.2-.2z"/><path d="m111.3 26.9c.2.1.3.2.2.4 0 .1-.1.2-.2.2-.2-.1-.3-.2-.2-.4 0-.1.1-.2.2-.2z"/><path d="m111.3 28.5c.1 0 .2.1.2.2s-.1.2-.2.2-.2-.1-.2-.2 0-.2.2-.2c0-.1 0-.1 0 0z"/><path d="m111.3 30c.1 0 .1.1.1.1 0 .1-.1.1-.1.2-.1 0-.1-.1-.2-.1v-.1c.1-.1.2-.1.2-.1z"/><path d="m110.6 26.1c.2 0 .4.2.4.4 0 .2-.2.4-.4.4s-.4-.2-.4-.4.2-.4.4-.4z"/><path d="m110.6 27.6c.2 0 .3.1.3.3s-.1.3-.3.3-.3-.1-.3-.3c0-.1.1-.3.3-.3z"/><path d="m110.6 29.2c.1 0 .2.1.2.2s-.1.2-.2.2-.2-.1-.2-.2.1-.2.2-.2z"/><path d="m109.9 26.9c.2 0 .3.1.3.3s-.1.3-.3.3-.3-.1-.3-.3c0-.2.1-.3.3-.3z"/><path d="m109.9 28.5c.1 0 .2.1.2.2s-.1.3-.2.3-.2-.1-.2-.2c-.1-.3 0-.4.2-.3z"/><path d="m109.9 30c.1 0 .1.1.1.1s-.1.1-.1.1c-.1 0-.1-.1-.1-.1-.1-.1 0-.1.1-.1z"/><path d="m109.1 26.1c.2 0 .4.2.4.4 0 .2-.2.4-.4.4s-.4-.2-.4-.4.2-.4.4-.4z"/><path d="m109.1 27.6c.2 0 .3.1.3.3s-.1.3-.3.3-.3-.1-.3-.3c0-.1.2-.3.3-.3z"/><path d="m109.1 29.2c.1 0 .2.1.2.2s-.1.2-.2.2-.2-.1-.2-.2.1-.2.2-.2z"/><path d="m108.4 26.9c.2.1.3.2.2.4 0 .1-.1.2-.2.2-.2-.1-.3-.2-.2-.4 0-.1.1-.2.2-.2z"/><path d="m108.4 28.5c.1 0 .2.1.2.2s-.1.2-.2.2-.2-.1-.2-.2c0-.2.1-.2.2-.2z"/><path d="m108.4 30c.1 0 .1.1.1.1 0 .1-.1.1-.1.2-.1 0-.1-.1-.2-.1v-.1c0-.1.1-.1.2-.1z"/><path d="m107.7 26.1c.2 0 .4.2.4.4 0 .2-.2.4-.4.4s-.4-.2-.4-.4.2-.4.4-.4z"/><path d="m107.7 27.6c.2 0 .3.1.3.3s-.1.3-.3.3-.3-.1-.3-.3c0-.1.1-.3.3-.3z"/><path d="m107.7 29.2c.1 0 .2.1.2.2s-.1.2-.2.2-.2-.1-.2-.2.1-.2.2-.2z"/></g><path d="m103.1 44.1c-1.9 0-3.4-1.5-3.4-3.4s1.5-3.4 3.4-3.4 3.4 1.5 3.4 3.4c0 1.9-1.6 3.4-3.4 3.4zm0-6.4c-1.7 0-3 1.3-3 3s1.3 3 3 3 3-1.3 3-3-1.4-3-3-3zm-1.1 1.2h1.3c.5 0 .9.4.9.8v.1c.1.5-.3.9-.8 1l1.1 1.5h-.5l-1-1.5h-.6v1.5h-.4zm1.1.4h-.8v1.3h.7c.4 0 .7-.1.7-.7.1-.4-.1-.6-.6-.6z" fill="#fff"/><path d="m418.4 39c-.7.4-1.7.7-3 .7-1.2 0-2.4-.4-3.1-1-.8-.7-1.4-1.8-1.4-4.6 0-2.7.5-3.7 1.3-4.5.8-.7 1.9-1.1 3.1-1.1 1.1 0 1.9.2 2.6.5l-.4 1.5c-.7-.2-1.3-.4-2-.4s-1.4.2-1.9.7c-.4.4-.8 1.3-.8 3.3s.4 2.8.8 3.3c.4.4 1.1.6 1.9.6.9 0 1.7-.2 2.4-.5z" fill="#70d14d"/><path d="m425.2 37c0 .5.1.7.5.8l.3.1c-.2.5-.4 1.4-.5 1.6-1.1-.1-1.7-.4-2-1.1h-.1c-.4.6-1.1 1.1-2.2 1.1-1.6 0-2.4-.9-2.4-2.7v-5.1h1.9v4.9c0 1 .5 1.3 1 1.3 1 0 1.6-.8 1.6-2.2v-4h1.9z" fill="#70d14d"/><path d="m428.4 39.4h-1.9v-7.7h1.9zm1.2-9.7-1.9 1.2h-1l1.3-1.7c.4-.4.8-.5 1.3-.5.4 0 .6.2.6.5 0 .2-.1.4-.3.5z" fill="#70d14d"/><path d="m436.3 37c0 .5.1.7.5.8l.2.1-.5 1.6c-1-.1-1.6-.4-2-1h-.1c-.5.7-1.1 1-2.2 1-1.7 0-2.7-1.1-2.7-4 0-3.3 1.3-4 2.8-4 .8 0 1.6.4 2 1.1l.1-.1s-.1-.4-.1-.6v-3.7h1.9v8.8zm-1.9-1.8c0-1-.6-1.9-1.6-1.9-.4 0-.7.1-.9.4-.3.3-.5.8-.5 2 0 2.1.7 2.4 1.4 2.4.8 0 1.6-.8 1.6-1.7z" fill="#70d14d"/><path d="m444.7 37.9-.5 1.6c-1-.1-1.7-.4-2-1h-.1c-.5.6-1.3 1-2.4 1-1.4 0-2.4-.8-2.4-2.3 0-1.3.7-2.3 2.6-2.5.8-.1 1.9-.2 2.2-.2v-.2c0-.8-.4-1-1.3-1-.7 0-1.7.2-2.7.6l-.4-1.4c1-.4 2.2-.7 3.2-.7 2.2 0 3.1 1 3.1 2.5v2.9c0 .5.2.7.5.8h.2zm-2.6-1.9c-.2.1-1.3.1-1.9.2-.8.1-1 .5-1 1s.4.8 1 .8c.7 0 1.6-.4 2-.8z" fill="#70d14d"/><path d="m449.1 38.1-.3 1.5c-2.2 0-3.2-.5-3.2-2.7v-3.6h-1v-1.5h1v-1.9l1.9-.4v2.4h1.6v1.5h-1.6v3.3c0 1.1.4 1.4 1.3 1.4z" fill="#70d14d"/><path d="m455.9 38.8c-.5.4-1.7.8-3 .8-2.5 0-3.6-.8-3.6-4s1.2-4 3.4-4 3.2 1.1 3.2 3.1c0 .7-.1 1.3-.1 1.3h-4.7v.1c0 1.4.5 1.8 1.8 1.8.9 0 1.7-.2 2.5-.5zm-1.7-4.1c0-1.1-.3-1.4-1.4-1.4-1 0-1.6.3-1.6 1.4z" fill="#70d14d"/><path d="m466.5 32.9c.5-.8 1.3-1.3 2.4-1.3 1.4 0 2.2 1 2.2 2.5v5.2h-2.3v-4.8c0-.8-.2-1.1-.7-1.1-.7 0-1.3.6-1.3 1.8v4.1h-2.3v-4.8c0-.8-.3-1.1-.7-1.1-.7 0-1.3.6-1.3 1.9v4h-2.3v-7.6h1.6l.5 1h.1c.5-.7 1.2-1.1 2.1-1.1 1.1.1 1.7.5 2 1.3z" fill="#fff"/><path d="m479.5 37.7c-.2.6-.5 1.9-.5 1.9-1.1 0-1.9-.4-2.4-1h-.1c-.4.5-1.1 1-2.1 1-1.6 0-2.4-.8-2.4-2.8v-5h2.3v4.8c0 .9.4 1.1.8 1.1.8 0 1.3-.7 1.3-2v-3.9h2.3v4.9c0 .6.2.8.5.8z" fill="#fff"/><path d="m485.3 39.1c-.5.2-1.4.5-2.2.5-1.1 0-2-.2-2.5-.8-.5-.4-.9-1.2-.9-3.2s.5-2.8 1-3.3 1.4-.7 2.4-.7c.8 0 1.6.1 2.1.4l-.4 1.7c-.4-.1-.8-.2-1.4-.2-1 0-1.4.4-1.4 1.9 0 1.9.4 2.2 1.4 2.2.5 0 1.1-.2 1.5-.3.2.7.3 1.2.4 1.8z" fill="#fff"/><path d="m492.7 39.4h-2.3v-4.8c0-.8-.3-1.1-.8-1.1-.8 0-1.3.7-1.3 1.9v4h-2.3v-11h2.3v3.6c0 .3-.1.6-.1.7h.1c.5-.7 1.2-1 2.1-1 1.5 0 2.2 1 2.2 2.5z" fill="#fff"/><path d="m497 39.6c-2.8 0-3.4-1.7-3.4-4 0-2 .5-4 3.4-4 2.8 0 3.4 1.7 3.4 4 0 2.1-.5 4-3.4 4zm0-6.1c-1 0-1.1.7-1.1 2.1 0 1.3.1 2.1 1.1 2.1s1.1-.7 1.1-2.1c-.1-1.3-.2-2.1-1.1-2.1z" fill="#fff"/></svg>