<?xml version="1.0" encoding="UTF-8"?>
<svg id="Capa_2" data-name="Capa 2" xmlns="http://www.w3.org/2000/svg" viewBox="0 0 36.34 50.73">
  <defs>
    <style>
      .cls-1 {
        fill: #245966;
      }
    </style>
  </defs>
  <g id="Capa_2-2" data-name="Capa 2">
    <path class="cls-1" d="M17.99,24.52c.75-.17,1.45-.35,2.16-.48,6.14-1.16,11.22,1.51,14.52,6.96,4.67,7.72-.78,19.73-11.95,19.73-3.5,0-6.53-1.33-9.16-3.68-.54-.48-1.41-.66-2.16-.83-.55-.13-1.16-.09-1.73,0-3.16,.49-4.99-1.16-6.45-3.71C-.12,36.66-1.04,30.6,1.31,24.18c.85-2.32,1.65-4.65,2.57-6.94,.8-1.98,.78-3.93,.42-6.02-.35-2.04-.57-4.18-.34-6.22C4.31,1.96,6.75,0,9.55,0c2.83,0,5.18,1.92,5.58,4.98,.24,1.83,.18,3.79-.21,5.59-.55,2.57-.5,4.95,.57,7.38,.92,2.1,1.64,4.3,2.5,6.57m16.31,12.2c0-5.63-5.43-10.8-11.39-10.83-6.2-.03-11.33,5.06-11.4,11.29-.07,6.21,5.19,11.47,11.43,11.43,6.3-.04,11.35-5.32,11.35-11.89m-23.35,7.1c-2.93-7.97-1.8-12.46,4.33-17.76,.31-.27,.47-1.02,.34-1.43-.56-1.8-1.3-3.55-1.89-5.34-.28-.86-.76-1.11-1.62-1.08-1.73,.06-3.47-.06-5.2,.06-.52,.04-1.27,.51-1.46,.97-.89,2.18-1.65,4.42-2.4,6.66-1.87,5.53-.76,10.67,2.1,15.55,1.59,2.7,2.48,3.04,5.8,2.36m-1.37-33.12h0c.78-.01,1.58,.05,2.35-.04,.34-.04,.85-.33,.93-.6,.6-2.11,.76-4.25-.41-6.24-1.35-2.28-4.55-2.29-5.77,.06-.56,1.06-.83,2.39-.83,3.6-.02,3.06,.23,3.22,3.27,3.22h.47Zm-2.91,5.27h5.73c-.05-1.08-.09-2.04-.14-3.04H6.89c-.07,1-.14,1.93-.21,3.04"/>
    <path class="cls-1" d="M29.45,41.76c-.69,.46-1.42,1.3-2.07,1.25-.6-.05-1.56-1.07-1.55-1.66,0-.6,.97-1.61,1.57-1.65,.65-.04,1.37,.82,2.05,1.29,0,.26,0,.51,0,.77"/>
    <path class="cls-1" d="M24.14,35.41c.45,.64,1.19,1.25,1.27,1.94,.12,1.02-.58,1.78-1.74,1.74-1.14-.03-1.83-.81-1.65-1.83,.12-.68,.9-1.25,1.39-1.87l.73,.02Z"/>
    <path class="cls-1" d="M27.22,35.79c.61-.48,1.17-1.22,1.85-1.37,1.05-.23,1.81,.47,1.85,1.58,.03,1.1-.67,1.88-1.72,1.75-.69-.08-1.31-.81-1.96-1.25,0-.24-.01-.48-.02-.72"/>
  </g>
</svg>