<?xml version="1.0" encoding="UTF-8"?>
<svg id="Capa_2" data-name="Capa 2" xmlns="http://www.w3.org/2000/svg" viewBox="0 0 48.19 42.81">
  <defs>
    <style>
      .cls-1 {
        fill: #245966;
      }
    </style>
  </defs>
  <g id="Capa_2-2" data-name="Capa 2">
    <path class="cls-1" d="M13.23,42.47c-1.17-.22-2.38-.31-3.49-.7-2.2-.77-4.19-1.88-6.67-2.1-2.75-.24-3.8-3.62-2.54-6.39,.56-1.22,.98-2.58,1.12-3.91,.46-4.26,2.95-6.96,6.53-8.83,7.07-3.7,13.4-8.36,18.73-14.32,1.02-1.14,1.9-2.45,3.04-3.45,2.22-1.94,4.84-2.61,7.82-2.17,1.31,.19,2.77,.06,4.04-.33,3.5-1.1,6.62,1.52,6.07,5.14-.19,1.24-.15,2.58,.08,3.83,.79,4.38-.36,8.19-3.26,11.47-6.92,7.83-14.85,14.44-24.12,19.32-2.25,1.18-4.76,1.88-7.14,2.8-.07-.11-.13-.23-.2-.34m-8.53-4.08c.46-.16,1.35-.38,2.16-.77,15.26-7.29,28.1-17.64,38.76-30.73,1.2-1.47,1.08-3.41-.18-4.54-1.25-1.11-2.98-1.07-4.37,.23-1.02,.95-1.91,2.04-2.88,3.05-4.03,4.15-7.83,8.56-12.16,12.38-6.41,5.66-13.61,10.24-21.37,13.92-1.07,.51-2.19,1.38-2.74,2.39-1.07,1.93,.25,4,2.78,4.08m3.06,.6c2.35,1.65,4.66,2.32,6.85,1.58,3.08-1.04,6.11-2.42,8.89-4.1,8.62-5.21,16.37-11.49,22.13-19.88,1.56-2.27,1.25-4.93,.44-8.15-10.73,13.19-23.28,23.2-38.31,30.54M3.53,30.66C17.66,24.08,29.25,14.48,39.26,2.43c-.64-.28-.88-.44-1.13-.48-.41-.06-.84-.05-1.26-.05-3.38,.04-5.96,1.67-8.26,4-2.79,2.83-5.46,5.83-8.56,8.28-3.54,2.8-7.41,5.21-11.29,7.54-3.85,2.32-6,5.81-5.23,8.93"/>
    <path class="cls-1" d="M7.42,32.72c2.21,.42,3.16-.63,3.94-2.09,.83-1.56,2.28-2.26,4.02-2.21,1.67,.05,2.73-.54,3.34-2.2,.66-1.78,2.11-2.72,4.05-2.82,1.52-.08,2.57-.65,3.06-2.28,.62-2.08,2-3.55,4.28-3.84,1.95-.24,3.01-1.36,3.37-3.2,.4-2.06,1.66-3.09,3.65-3.51,1.45-.31,2.64-.99,2.51-2.83-.02-.29,.35-.62,.59-1.03,1,2.03,.49,3.71-1.52,4.47-2.42,.92-3.9,2.38-4.63,4.93-.28,.96-1.6,1.98-2.64,2.29-2.11,.61-3.69,1.47-4.35,3.74-.47,1.61-1.69,2.49-3.45,2.57-1.72,.08-3.09,.73-3.68,2.53-.63,1.91-1.97,2.82-3.99,2.69-1.74-.11-2.91,.67-3.74,2.19-.39,.71-.93,1.49-1.61,1.87-1.11,.63-2.36,.85-3.21-1.27"/>
  </g>
</svg>