<?xml version="1.0" encoding="UTF-8"?>
<svg id="Capa_2" data-name="Capa 2" xmlns="http://www.w3.org/2000/svg" viewBox="0 0 43.48 39.85">
  <defs>
    <style>
      .cls-1 {
        fill: #005f6f;
      }
    </style>
  </defs>
  <g id="Capa_2-2" data-name="Capa 2">
    <path class="cls-1" d="M41.04,24.6c2.93,2.93,3.16,4.75,1.01,7.91,.03,.02,.05,.07,.08,.07,1.26,.08,1.3,.13,1.3,1.41,0,.62,0,1.24,0,1.86,0,.88-.18,1.07-1.04,1.09-.09,0-.19,0-.39,0v1.51c0,1.27-.12,1.4-1.37,1.4-.69,0-1.39,0-2.08,0-.42,0-.71-.17-.9-.55-.33-.67-.66-1.35-1.01-2.01-.08-.14-.25-.33-.38-.34-1.44-.02-2.88-.02-4.41-.02,0,.66,0,1.28,0,1.89,0,.77-.25,1.01-1.01,1.01-9,0-17.99,0-26.99,0-.49,0-.81-.17-1.02-.62-.3-.64-.61-1.29-.97-1.9-.1-.18-.37-.33-.58-.36-.4-.06-.82-.02-1.27-.02v-1.44H4.43c-.29-.36-.61-.78-.95-1.17-2.07-2.42-2.58-5.13-1.57-8.14,.18-.54,.5-.8,1.07-.79,.69,.02,1.38,0,2.07,0,.23-.69,.43-1.46,.74-2.17,.63-1.45,1.67-2.56,2.99-3.42,.42-.27,.79-.3,1.19,0,.51,.39,1.01,.77,1.58,1.21v-.58c0-2.34,0-4.69,0-7.03,0-.83,.17-1.01,.99-1.13,2.63-.4,5.27-.81,7.9-1.22,.24-.04,.55,.02,.53-.4-.02-.32,.02-.58-.41-.72-1.68-.56-2.65-2.08-2.46-3.84,.25-2.33,1.51-4.16,3.05-5.82,.31-.34,.73-.37,1.05-.02,1.53,1.64,2.79,3.45,3.07,5.76,.22,1.84-.73,3.33-2.46,3.96q-.41,.15-.33,.77c1.18-.18,2.36-.35,3.54-.53,1.56-.24,3.12-.49,4.68-.72,.84-.13,1.14,.13,1.15,1,0,1.35,0,2.7,0,4.05,0,.2,0,.4,0,.68h.65c1.99,0,3.98-.03,5.97,.02,2.14,.05,3.94,1.36,4.66,3.32,.71,1.95,.15,4.13-1.43,5.54-.21,.18-.44,.34-.66,.52M13,13.67v.65c0,2.36,.07,4.73-.02,7.09-.06,1.43,.32,2.72,.72,4,.75,0,1.47,0,2.2,0,.48,0,.75,.24,.91,.68,1.08,3.02,.57,5.75-1.49,8.2-.35,.41-.68,.83-.99,1.21h4.45v1.46c-.57,0-1.19-.17-1.59,.05-.38,.21-.55,.83-.85,1.34h5.32v-1.41c-.15,0-.24,0-.33,0-.87-.02-1.05-.2-1.05-1.07,0-.54,0-1.09,0-1.63q0-1.44,1.42-1.72c-1.32-1.53-1.8-3.25-1.14-5.17,.66-1.94,2.1-3.02,4.13-3.42-.18-.23-.33-.4-.46-.57-.77-1.01-1.14-2.16-1.03-3.42,.23-2.72,2.3-4.64,5.04-4.71,.71-.02,1.42,0,2.15,0v-4.22c-5.79,.89-11.55,1.78-17.37,2.67m19.54,14.58c-1.65,0-3.22,0-4.8,0-.63,0-.94,.25-.94,.72,0,.47,.31,.72,.93,.72,2.31,0,4.62,.01,6.93,0,1.29,0,2.22-.9,2.24-2.11,.03-1.23-.89-2.21-2.2-2.22-3.14-.03-6.27-.06-9.41,.01-2.62,.06-4.22,2.49-3.35,4.9,.53,1.46,1.87,2.32,3.69,2.32,3.94,0,7.89,0,11.83,0,.41,0,.83,0,1.24-.04,1.61-.13,3-1.42,3.22-2.98,.25-1.73-.65-3.35-2.21-3.95-.64-.24-1.31-.34-2.04-.24,1.71,2.67-.11,5.79-3.11,5.77-2.33-.02-4.66,0-6.98-.01-1.32,0-2.25-.92-2.25-2.16,0-1.24,.92-2.16,2.24-2.18,1.5-.02,3,0,4.51,0,.15,0,.29,.02,.46,.03v1.42Zm6.69-11.41c.05,.11,.07,.16,.1,.21,1.26,2.41-.14,5.19-2.85,5.35-2.54,.15-5.1,.09-7.66,.04-1.25-.03-2.07-1.03-2.03-2.24,.04-1.16,.95-2.04,2.17-2.06,1.01-.02,2.03,0,3.04,0h1.98v1.45h-.64c-1.45,0-2.89,0-4.34,0-.46,0-.76,.23-.77,.71,0,.45,.29,.66,.71,.73,.09,.01,.19,.01,.28,.01,2.25,0,4.51,.02,6.76-.02,.47,0,.98-.15,1.38-.38,.81-.46,1.15-1.46,.91-2.35-.25-.94-1.05-1.59-2.07-1.6-2.07-.03-4.13-.01-6.2-.01-.71,0-1.43-.03-2.14,.03-2.05,.18-3.48,2-3.23,4.04,.24,1.88,1.73,3.15,3.76,3.15,3.23,.01,6.46,0,9.69,0,.24,0,.49-.01,.73-.04,1.73-.21,3.05-1.67,3.12-3.45,.07-1.68-1.09-3.23-2.72-3.57M8.6,33.31c.1,.59,.2,1.18,.3,1.77,.05,.32,.23,.41,.55,.41,4.15,.01,7.3-4.07,6.27-8.09-.13-.51-.36-.63-.86-.6-3.49,.21-6.17,3.02-6.26,6.51m-1.24,1.84c.01-.11,.03-.17,.02-.21-.4-1.99-.11-3.87,.94-5.62,.18-.3,.02-.44-.15-.61-1.22-1.2-2.68-1.8-4.38-1.91-.45-.03-.63,.12-.73,.54-.55,2.4,.04,4.49,1.74,6.25,.7,.73,1.55,1.27,2.57,1.56m34.61-1.08H21.73v1.38h20.24v-1.38ZM9.38,27.68c.83-.53,1.71-1.07,2.58-1.64,.11-.07,.23-.26,.21-.38-.27-1.91-1.22-3.41-2.81-4.5-1.54,1.1-2.46,2.52-2.78,4.32-.03,.17,.04,.47,.16,.55,.88,.59,1.79,1.14,2.63,1.66M21.7,1.84c-.23,.29-.44,.53-.62,.78-.78,1.11-1.43,2.29-1.54,3.68-.08,1.03,.51,1.94,1.44,2.16v-1.17h1.46v1.17c.9-.22,1.5-1.13,1.42-2.11-.14-1.77-1.05-3.16-2.16-4.52M3.32,36.96c.21,.42,.34,.78,.55,1.08,.11,.16,.36,.33,.54,.33,3.32,.02,6.64,.01,9.95,.01,.14,0,.34-.03,.4-.12,.24-.41,.44-.84,.68-1.31H3.32Zm23.2,1.39h3.85v-1.41h-2.66c-.09,0-.2-.03-.28,0-.11,.04-.24,.11-.3,.2-.21,.37-.39,.76-.61,1.2m11.65-1.39c.53,1.47,.97,1.71,2.35,1.33v-1.33h-2.35Zm-14.99,1.36c1.55,.25,2.09-.07,2.31-1.35h-2.31v1.35Z"/>
    <rect class="cls-1" x="14.49" y="15.26" width="1.38" height="5.72"/>
    <rect class="cls-1" x="14.48" y="22.5" width="1.38" height="1.37"/>
  </g>
</svg>