<?xml version="1.0" encoding="UTF-8"?>
<svg id="Capa_2" data-name="Capa 2" xmlns="http://www.w3.org/2000/svg" viewBox="0 0 81.02 81">
  <defs>
    <style>
      .cls-1 {
        fill: #868686;
      }
    </style>
  </defs>
  <g id="Capa_2-2" data-name="Capa 2">
    <path class="cls-1" d="M75.41,64.9c-.19,1.9-.19,3.85-.6,5.7-1.35,6.05-6.76,10.32-12.96,10.4-26.57,.33-50.92-17.35-58.92-42.71C1.02,32.23,.03,26.06,0,19.73-.04,11.94,5.6,6.04,13.4,5.78c2.14-.07,4.29-.04,6.43-.02,1.82,.02,2.71,.65,3.29,2.37,1.87,5.53,3.72,11.07,5.56,16.61,.58,1.74,.27,2.7-1.18,3.88-1.17,.96-2.29,2.02-3.56,2.83-1.28,.82-1.21,1.62-.62,2.85,4.34,9.19,10.8,16.42,19.67,21.43,1.4,.79,2.87,1.43,4.29,2.19,.78,.41,1.32,.41,1.9-.4,1.01-1.41,2.19-2.7,3.27-4.07,.97-1.22,2.15-1.66,3.66-1.16,5.67,1.89,11.34,3.76,17,5.67,1.45,.49,2.11,1.49,2.16,3.04,.02,.67,0,1.34,0,2.01,0,.62,0,1.25,0,1.88,.05,0,.1,.01,.15,.02m-6-2.05c-4.3-1.43-8.52-2.85-12.76-4.2-.33-.11-.94,.11-1.19,.39-1.15,1.3-2.23,2.67-3.32,4.02-1.44,1.78-2.45,2.13-4.54,1.25-2.34-.99-4.7-1.97-6.91-3.2-11.46-6.34-19.46-15.72-24.08-27.96-.69-1.84-.4-2.77,1.08-4,1.41-1.17,2.85-2.3,4.22-3.5,.3-.26,.59-.86,.49-1.18-1.36-4.28-2.8-8.54-4.24-12.87-1.47,0-2.89,0-4.31,0-4.66,.04-8.03,3.23-7.99,7.88,.03,3.11,.16,6.27,.75,9.32,3.75,19.51,14.69,33.49,32.76,41.79,6.99,3.21,14.4,4.64,22.09,4.63,4.35-.01,7.74-3.11,7.95-7.26,.08-1.65,.01-3.3,.01-5.09"/>
    <path class="cls-1" d="M43.4,34.8c-.76-.11-1.33-.16-1.89-.29-4.11-.95-6.78-4.33-6.81-8.77-.04-5.58-.05-11.16,0-16.73C34.75,3.62,38.32,.05,43.73,.03c9.55-.04,19.1-.04,28.65,0,4.89,.02,8.53,3.65,8.58,8.55,.06,5.89,.06,11.78,0,17.67-.05,4.62-3.56,8.22-8.2,8.4-3.21,.12-6.43,0-9.64,.11-.82,.03-1.76,.35-2.4,.85-4.09,3.17-8.12,6.42-12.14,9.67-1.09,.88-2.21,1.37-3.56,.72-1.34-.64-1.69-1.81-1.66-3.22,.05-2.62,.02-5.25,.02-7.98m5.8,2.39c.5-.33,.79-.5,1.05-.7,2.72-2.16,5.4-4.39,8.19-6.46,.79-.59,1.91-.99,2.9-1.03,3.57-.12,7.14-.03,10.71-.07,2.01-.02,3.16-1.17,3.17-3.18,.03-5.58,.03-11.16,0-16.73,0-2.06-1.1-3.22-3.12-3.22-9.51-.03-19.01-.02-28.52,.02-1.96,0-3.06,1.14-3.07,3.12-.02,5.67-.02,11.33,0,17,0,1.7,1.11,2.86,2.8,3,.8,.06,1.61,.02,2.41,.03,2.45,.02,3.42,.95,3.46,3.38,.03,1.54,0,3.09,0,4.86"/>
    <path class="cls-1" d="M57.82,20.22c-1.62-.02-2.9-1.32-2.85-2.92,.05-1.62,1.33-2.85,2.95-2.82,1.61,.03,2.88,1.33,2.88,2.92,0,1.55-1.36,2.83-2.97,2.81"/>
    <path class="cls-1" d="M69.43,17.32c.03,1.6-1.24,2.9-2.85,2.92-1.61,.02-2.93-1.25-2.94-2.84,0-1.64,1.21-2.88,2.86-2.91,1.62-.03,2.9,1.21,2.93,2.83"/>
    <path class="cls-1" d="M49.16,20.25c-1.63,0-2.86-1.27-2.86-2.91,0-1.65,1.24-2.87,2.9-2.85,1.65,.02,2.87,1.25,2.85,2.9-.02,1.65-1.25,2.87-2.89,2.86"/>
  </g>
</svg>