<?xml version="1.0" encoding="UTF-8"?>
<svg id="Capa_2" data-name="Capa 2" xmlns="http://www.w3.org/2000/svg" viewBox="0 0 74.75 74.95">
  <defs>
    <style>
      .cls-1 {
        fill: #fff;
      }
    </style>
  </defs>
  <g id="Capa_1-2" data-name="Capa 1">
    <path class="cls-1" d="M18.25,74.95c-2.34-.29-4.78-.45-7.14-.93C3.91,72.58,.01,67.49,0,58.6-.04,25.08,25.52-1.79,60.96,.09c8.67,.46,12.93,4.57,13.62,13.21,.89,11.1-1.72,21.5-6.81,31.43-8.57,16.73-22.78,25.4-40.55,29.17-2.9,.62-5.9,.7-8.96,1.04m-9.24-7.57c11.3,6.13,34.36-.69,45.21-11.58,12.81-12.85,17.76-28.13,15.54-45.74-.35-.16-.7-.32-1.05-.48-3.72,3.99-7.44,7.98-11.1,11.9-1.83-1.45-2.9-2.3-5.12-4.06,4.67-4.16,8.72-7.77,12.89-11.49C52.17,.61,28.44,9.32,17.02,22.78,4.78,37.22,2.39,57.3,6.92,65.72c3.78-4.19,7.35-8.15,11.13-12.34,1.17,1.15,2.02,1.98,3.66,3.59-4.43,3.62-8.56,7.01-12.7,10.4"/>
    <path class="cls-1" d="M41.48,36.64c-1.6,1.78-3.12,3.47-4.71,5.24,.69,1.05,1.67,2.15,2.15,3.43,.28,.73-.24,1.77-.39,2.67-.81-.16-1.76-.1-2.4-.52-1.06-.7-1.92-1.71-3.01-2.71-1.85,1.96-3.48,3.68-5.25,5.55,.96,1.05,2.01,1.81,2.48,2.84,.4,.88,.14,2.06,.17,3.11-.95,0-2.26,.41-2.8-.06-3.22-2.82-6.33-5.79-9.31-8.86-.45-.46-.42-2.06,.02-2.53,.46-.49,1.89-.63,2.55-.28,1.21,.66,2.17,1.79,3.53,2.98,1.72-1.93,3.36-3.77,5.15-5.78-.95-1.01-2.09-1.82-2.61-2.93-.42-.89-.09-2.14-.09-3.22,1.03,.18,2.2,.1,3.05,.59,1.09,.63,1.91,1.71,2.89,2.65,1.93-2.03,3.65-3.84,6.38-6.7-1.26-.72-2.62-1.19-3.49-2.12-.54-.57-.31-1.86-.42-2.82,1-.09,2.21-.58,2.96-.19,1.2,.64,2.08,1.85,2.78,2.52,1.93-1.58,3.78-3.09,6.7-5.48-1.53-.95-2.97-1.42-3.67-2.41-.52-.72-.39-2.32,.09-3.16,.24-.42,2.29-.47,2.85,.04,3.18,2.89,6.21,5.95,9.14,9.09,.46,.5,.48,2.3,.14,2.48-.92,.51-2.27,.87-3.2,.55-1.04-.36-1.79-1.54-2.91-2.58-1.84,1.66-3.6,3.24-5.64,5.07,.84,1,1.75,1.81,2.28,2.82,.45,.86,.44,1.95,.63,2.93-.99,0-2.08,.25-2.96-.06-.99-.35-1.8-1.22-3.09-2.15"/>
  </g>
</svg>