<?xml version="1.0" encoding="UTF-8"?>
<svg id="Capa_2" data-name="Capa 2" xmlns="http://www.w3.org/2000/svg" viewBox="0 0 87.47 77.69">
  <defs>
    <style>
      .cls-1 {
        fill: #fff;
      }
    </style>
  </defs>
  <g id="Capa_2-2" data-name="Capa 2">
    <path class="cls-1" d="M24,77.07c-2.12-.41-4.32-.57-6.33-1.27-3.99-1.39-7.6-3.41-12.11-3.81-4.98-.44-6.89-6.58-4.6-11.6,1.01-2.22,1.77-4.68,2.03-7.1,.83-7.73,5.36-12.64,11.85-16.03,12.84-6.71,24.31-15.17,33.99-25.99,1.85-2.08,3.44-4.44,5.52-6.26,4.03-3.53,8.78-4.75,14.2-3.95,2.37,.35,5.03,.11,7.32-.61,6.35-1.99,12.02,2.77,11.01,9.33-.35,2.26-.26,4.69,.14,6.95,1.44,7.96-.65,14.86-5.91,20.82-12.56,14.22-26.96,26.2-43.78,35.06-4.08,2.15-8.63,3.41-12.96,5.08-.12-.21-.24-.42-.36-.62m-15.49-7.4c.84-.29,2.45-.7,3.92-1.4,27.69-13.23,51-32.02,70.35-55.77,2.17-2.67,1.96-6.2-.33-8.24-2.27-2.02-5.4-1.94-7.93,.42-1.85,1.73-3.46,3.7-5.23,5.52-7.31,7.54-14.21,15.54-22.06,22.47-11.64,10.27-24.7,18.58-38.78,25.27-1.94,.92-3.97,2.51-4.98,4.33-1.94,3.5,.45,7.25,5.04,7.4m5.55,1.09c4.26,2.99,8.47,4.21,12.44,2.87,5.59-1.88,11.08-4.39,16.13-7.43,15.65-9.45,29.7-20.86,40.17-36.08,2.84-4.12,2.28-8.95,.8-14.79-19.47,23.94-42.25,42.11-69.54,55.43m-7.65-15.12C32.05,43.7,53.08,26.29,71.26,4.42c-1.17-.51-1.6-.8-2.05-.87-.75-.11-1.52-.1-2.28-.08-6.13,.08-10.83,3.02-15,7.26-5.06,5.14-9.91,10.58-15.54,15.02-6.42,5.08-13.45,9.45-20.48,13.69-6.99,4.21-10.89,10.55-9.5,16.21"/>
    <path class="cls-1" d="M12.45,58.71c4.02,.77,5.74-1.14,7.16-3.79,1.52-2.83,4.14-4.1,7.3-4.01,3.03,.09,4.95-.98,6.07-4,1.19-3.23,3.83-4.93,7.35-5.11,2.76-.15,4.67-1.18,5.55-4.14,1.12-3.77,3.62-6.45,7.77-6.97,3.53-.44,5.47-2.47,6.11-5.81,.72-3.74,3.01-5.61,6.63-6.37,2.63-.56,4.79-1.8,4.55-5.13-.04-.53,.63-1.12,1.07-1.86,1.82,3.68,.89,6.73-2.76,8.11-4.38,1.66-7.08,4.32-8.41,8.95-.5,1.75-2.9,3.6-4.8,4.15-3.83,1.11-6.69,2.66-7.89,6.78-.85,2.92-3.06,4.53-6.26,4.67-3.12,.14-5.61,1.32-6.68,4.58-1.14,3.48-3.57,5.11-7.24,4.88-3.15-.2-5.29,1.21-6.79,3.97-.7,1.3-1.68,2.7-2.91,3.39-2.02,1.14-4.29,1.54-5.82-2.3"/>
  </g>
</svg>