<?xml version="1.0" encoding="UTF-8"?>
<svg id="Capa_2" data-name="Capa 2" xmlns="http://www.w3.org/2000/svg" viewBox="0 0 143.06 89.72">
  <defs>
    <style>
      .cls-1 {
        fill: #343434;
      }

      .cls-2 {
        fill: #1e3736;
      }

      .cls-3 {
        fill: #4d4d4d;
      }

      .cls-4 {
        fill: #868686;
      }

      .cls-5 {
        fill: #333;
      }

      .cls-6 {
        fill: #e6dedc;
      }
    </style>
  </defs>
  <g id="Capa_2-2" data-name="Capa 2">
    <path class="cls-4" d="M49.12,22.59c0,8.06-6.54,14.6-14.6,14.6s-14.6-6.54-14.6-14.6,6.54-14.6,14.6-14.6,14.6,6.54,14.6,14.6"/>
    <path class="cls-3" d="M102.84,41.15c4.66,.04,9.3-.62,13.99-.24,8.45,.68,14.56,4.92,18.93,11.96,4.02,6.48,5.72,13.71,6.66,21.16,.31,2.45,.54,4.91,.64,7.37,.15,3.72-2.55,6.6-6.12,6.69-3.54,.09-6.24-2.53-6.5-6.18-.41-5.9-1.05-11.76-3.12-17.36-.11-.29-.13-.64-.59-.83-.66,.41-.36,1.12-.36,1.67-.02,6.93-.01,13.85-.02,20.78,0,2.69-.8,3.51-3.42,3.51-9.83,0-19.65,0-29.48,0-1.35,0-2.6-.12-3.14-1.64,.17-.69,.08-1.39,.08-2.08,0-10.95,0-21.9,0-32.85,0-.21-.01-.43,.16-.59-.05,0-.09,0-.17,0,0,11.44,0,22.88,0,34.32,0,.32,.06,.65-.17,.93-.46-.56-.26-1.24-.26-1.86-.01-11.06-.03-22.12,.02-33.18,0-1.35-.38-2.12-1.66-2.73-7.03-3.3-12.45-8.45-16.76-14.86-.1-.13-.14-.28-.13-.44,.2-1.15,1.05-1.97,1.56-2.96,1.38-2.66,2.71-5.34,3.6-8.21,.17-.56,.29-1.15,.74-1.58,.13-.08,.27-.13,.42-.14,.3,0,.57,.37,.9,.08,.13-.04,.24,0,.32,.1,1.83,3.87,3.86,7.59,6.84,10.73,3.75,3.95,8.36,6.37,13.48,7.95,.15,.34,.64,.11,.79,.46,.77,.45,1.59,.1,2.38,.14,1.02,.49,2.12,.09,3.36,.31-1.09-.34-2.13,.36-2.95-.45"/>
    <path class="cls-5" d="M71.55,34.84c-2.93-4.39-5.14-9.1-6.22-14.3-.06-.31-.19-.61-.29-.92,.5-2.26,1.33-4.27,3.59-5.38,.53-.26,1.02-.56,1.62-.58,.1,.09,.22,.17,.34,.23,.62,.09,1.25,.09,1.87,0,.12-.06,.24-.14,.34-.23,2.96,.92,4.72,2.88,5.2,5.96,.13,.24,.05,.42-.16,.56-.29,.12-.49-.1-.72-.21,.21,.42,.39,.87,.71,1.23,.08,.31,.07,.6-.25,.79-1.58,4.49-3.31,8.9-6.04,12.85"/>
    <path class="cls-1" d="M63.33,11.4c-1.41-.39-2.5-1.38-3.78-2.02-.85-.42-1.61-1.01-1.11-2.14,.5-1.11,1.7-.62,2.17-.39,1.61,.8,3.18,1.72,4.59,2.87,.74,.6,.7,1.12,0,1.67-.62,.23-1.25,.23-1.87,0"/>
    <path class="cls-1" d="M78.16,11.46c-1.24-1.27,.05-1.88,.77-2.42,1.14-.85,2.45-1.48,3.68-2.22,.91-.54,1.71-.46,2.29,.45,.6,.95-.23,1.5-.8,1.89-1.22,.83-2.56,1.49-3.85,2.22-.69,.19-1.41-.53-2.08,.08"/>
    <path class="cls-3" d="M90.22,87.78V51.92c.5,.39,.32,.77,.32,1.09,.01,11.22,.01,22.44,0,33.67,0,.47,.13,.97-.23,1.39-.09-.07-.13-.17-.09-.28"/>
    <path class="cls-1" d="M70.83,.25c.47-.36,.94-.31,1.41-.01,.57,2.02,.08,4.08,.29,6.11,.05,.18,.12,.34,.24,.5-.97,1.31-1.5,1.31-2.48,0,.11-.15,.19-.31,.24-.49,.22-2.03-.27-4.09,.3-6.1"/>
    <path class="cls-3" d="M102.84,41.15c1,.5,2.12-.04,3.49,.44-1.65,.07-2.94,.32-4.21-.22-.75,.22-1.49,.24-2.23-.01,0-.42-.83-.05-.63-.66,1.19,.15,2.38,.31,3.57,.46"/>
    <path class="cls-1" d="M70.83,.25c.02,1.87,.04,3.74,.06,5.61,0,.37,.02,.76-.38,.98-.13-2.15-.25-4.31,.07-6.45,.05-.1,.14-.15,.25-.14"/>
    <path class="cls-1" d="M72.77,6.85h-.11s-.11,.01-.11,.01c-.4-2.16-.26-4.32-.07-6.48,.75,.62,.34,1.45,.36,2.18,.05,1.43-.04,2.86-.07,4.29"/>
    <path class="cls-1" d="M72.48,.38c.02,2.16,.04,4.32,.07,6.48-.83-1.34-.21-2.81-.36-4.21-.08-.79,.02-1.61,.05-2.41,.12-.02,.2,.03,.24,.14"/>
    <path class="cls-1" d="M70.58,.39c-.02,2.15-.04,4.3-.07,6.45h-.11s-.11,0-.11,0c-.03-1.96-.06-3.92-.08-5.88,0-.26,0-.54,.37-.58"/>
    <path class="cls-3" d="M77.71,20.15c.1-.17,.2-.34,.3-.52,.43,.75,.76,1.54,.93,2.39-.1,0-.21,0-.31,0-.22,0-.44-.01-.66,0h-.38c0-.33,.01-.65,.02-.97-.43-.35-.55-.67,.1-.9"/>
    <path class="cls-5" d="M72.81,13.67c0,.09,0,.18,.01,.28-.86,.26-1.72,.29-2.58-.02,0-.09,0-.17,0-.26,.85-.17,1.71-.16,2.56,0"/>
    <path class="cls-1" d="M78.16,11.46c.66-.89,1.37-.45,2.08-.08l-.08,.07-.09-.06c-.62,.23-1.24,.21-1.86,.04l-.05,.03Z"/>
    <path class="cls-1" d="M63.33,11.4c.62,0,1.25,0,1.87,0-.62,.73-1.25,.62-1.87,0"/>
    <path class="cls-6" d="M48.65,38.78c-.47,.38-.99,.64-1.62,.63,.34-.73,.99-.65,1.62-.63"/>
    <path class="cls-1" d="M78.21,11.43c.62-.01,1.24-.02,1.86-.04-.61,.61-1.23,.72-1.86,.04"/>
    <path class="cls-6" d="M49.96,38.14c-.36,.36-.79,.59-1.31,.64,.25-.6,.74-.69,1.31-.64"/>
    <path class="cls-3" d="M91.9,88.69h32.83v.19s-32.79,0-32.79,0c-.01-.06-.02-.13-.03-.19"/>
    <path class="cls-3" d="M125.58,64.66v23.47c-.09,0-.18,0-.26,0v-23.51c.09,.01,.18,.03,.26,.04"/>
    <path class="cls-3" d="M107.33,41.44h10.53s0,.09,0,.13h-10.54s0-.09,0-.13"/>
    <path class="cls-3" d="M142.39,76.87v6.31c-.01-2.01-.97-4.02,0-6.31"/>
    <path class="cls-3" d="M131.08,79.4v3.2c-.05,0-.1,0-.15,0v-3.2c.05,0,.1,0,.15,0"/>
    <path class="cls-3" d="M130.46,73.33v2.44c-.05,0-.11,0-.16,0v-2.44c.05,0,.11,0,.16,0"/>
    <path class="cls-3" d="M141.74,72.04v2.13c-.05,0-.11,0-.16,0v-2.13c.05,0,.11,0,.16,0"/>
    <path class="cls-3" d="M99.9,41.35c.74,0,1.49,0,2.23,.01-.69,.56-1.47,.26-2.22,.25-.03,0-.07-.08-.07-.12,0-.05,.04-.1,.06-.15"/>
    <path class="cls-3" d="M140.92,68.24c.35,.62,.21,1.05,.14,1.66-.35-.62-.21-1.05-.14-1.66"/>
    <path class="cls-3" d="M129.69,71.71c-.2-.5-.24-.93,.03-1.42,.2,.5,.23,.93-.03,1.42"/>
    <path class="cls-3" d="M77.97,22.01c.03-.18,0-.46,.27-.41,.15,.03,.26,.26,.39,.4-.04,.18,.01,.47-.26,.42-.15-.03-.26-.27-.39-.41"/>
    <path class="cls-3" d="M140.44,66.83c-.3-.72-.27-1.02,0-1.65v1.65Z"/>
    <path class="cls-4" d="M36.57,41.62h-10.1v-.16h10.23c-.05,.05-.09,.11-.14,.16"/>
    <path class="cls-4" d="M71.55,34.84c0,.11,0,.22,0,.32-3.18,4.47-6.7,8.63-11.34,11.68-1.73,1.14-3.5,2.26-5.38,3.11-1.28,.58-1.76,1.26-1.76,2.63,.04,11.06,.03,22.13,.02,33.19,0,.68,.18,1.4-.24,2.04-.33-.55-.17-1.16-.17-1.73-.01-10.95,0-21.9-.02-32.85,0-.5,.16-1.04-.27-1.71,0,.02-.1,.36,.07,.23,.08-.06,.1-.02,.14,.09,.12,.31,.06,.63,.06,.94,0,11.43,0,22.87,0,34.3,0,.37,.07,.75-.13,1.1-.3,1.47-1.47,1.53-2.6,1.54-4.94,.02-9.88,.01-14.82,.01s-9.99,0-14.98,0c-1.01,0-2.07,.08-2.68-1-.18-1-.22-2.02-.22-3.03,0-7.07,.05-14.13-.03-21.19-.02-.18-.07-.35-.16-.5-.1-.14-.23-.26-.38-.35-1.09,.04-.97,1.02-1.18,1.64-1.83,5.37-2.47,10.96-2.85,16.58-.25,3.77-3.01,6.37-6.6,6.23-3.63-.14-6.2-3.04-6.04-6.92,.08-1.92,.08-3.85,.57-5.74,.14,.07,.16,.23,.24,.33,.01-.07-.03-.12-.04-.19-.04-.45,.1-.91-.11-1.34,.18-2.3,.5-4.58,1.17-6.8,.54-.44-.01-1.14,.38-1.61,1.54-6.85,4.2-13.08,9.27-18.18,2.73-2.75,5.82-4.7,9.52-5.67,3.92-1.03,7.93-1.27,11.98-1.11,3.95,.16,7.93,.7,11.82-.56,.76-.25,1.57-.38,2.22-.89,.45-.43,1.08-.4,1.62-.63,.37-.35,.88-.42,1.31-.64,5.08-2.45,8.72-6.39,11.6-11.13,1.42-2.34,2.39-4.89,3.48-7.39,.47,.16,.63,.56,.71,.99,.85,4.32,2.76,8.21,4.85,12.03,.38,.7,.86,1.37,.95,2.2"/>
    <path class="cls-4" d="M52.54,88.17V51.69h.31v36.11c-.1,.12-.21,.24-.31,.36"/>
    <path class="cls-4" d="M17.38,63.59c.41,.31,.32,.77,.32,1.19,0,7.62,0,15.24,0,22.86,0,.37,.05,.76-.24,1.07-.15-.19-.29-.39-.44-.58-.17-.29-.12-.6-.03-.9,.13-7.21,.02-14.42,.07-21.63,0-.68-.16-1.4,.31-2.01"/>
    <path class="cls-4" d="M17.07,87.45c-.02,.23-.03,.46-.05,.69-.53-.66-.32-1.43-.32-2.16-.03-7.45-.03-14.9-.03-22.35,.13-.01,.25-.02,.38-.03,.2,.28,.15,.61,.15,.93,0,7.33,0,14.66,0,21.98,0,.32,.04,.65-.14,.94"/>
    <path class="cls-4" d="M.67,74.24c.42,.42,.24,.95,.24,1.44,0,.22-.15,.19-.25,.04-.05-.08-.06-.19-.09-.29,.03-.4,.07-.8,.1-1.2"/>
    <path class="cls-4" d="M2.22,65.82c-.1,.54,.3,1.2-.38,1.61,.02-.56,.03-1.13,.38-1.61"/>
    <path class="cls-4" d="M51.32,89.03H21.67c0-.07,0-.15,0-.23h29.65c0,.08,0,.15,0,.23"/>
    <path class="cls-4" d="M17.07,87.45c0-7.95-.01-15.9-.02-23.85h.32c0,7.34,0,14.68-.01,22.01,0,.62,.23,1.3-.29,1.84"/>
    <path class="cls-4" d="M12.14,79.14v3.47h-.16v-3.46c.05,0,.11,0,.16-.01"/>
    <path class="cls-4" d="M12.78,73.94v1.89c-.05,0-.1,0-.15,0v-1.89s.1,0,.15,0"/>
    <path class="cls-4" d="M1.33,73.88v-1.82s.09-.01,.14-.02v1.78s-.09,.04-.14,.06"/>
    <path class="cls-4" d="M38.23,41.53c.63-.26,1.17-.22,1.81-.03-.63,.26-1.17,.22-1.81,.03"/>
    <path class="cls-5" d="M77.71,20.15c-.23,.28-.12,.59-.1,.9-1.41-.08-.16-1.11-.48-1.61,.19,.24,.39,.47,.58,.71"/>
    <path class="cls-2" d="M65.9,21.31c-.19-.64-.24-1.24-.01-2.05,.26,.82,.18,1.45,.01,2.05"/>
    <path class="cls-5" d="M70.24,13.93c.86,0,1.72,.01,2.58,.02-.86,.5-1.72,.52-2.58-.02"/>
    <path class="cls-3" d="M121.65,23.54c0,8.06-6.54,14.6-14.6,14.6s-14.6-6.54-14.6-14.6,6.54-14.6,14.6-14.6,14.6,6.54,14.6,14.6"/>
  </g>
</svg>