<?xml version="1.0" encoding="UTF-8"?>
<svg id="Capa_2" data-name="Capa 2" xmlns="http://www.w3.org/2000/svg" viewBox="0 0 85.57 82.6">
  <defs>
    <style>
      .cls-1 {
        fill: none;
        stroke: #fff;
        stroke-miterlimit: 10;
        stroke-width: 7px;
      }

      .cls-2 {
        fill: #a0a0a0;
      }

      .cls-3 {
        fill: #868686;
      }
    </style>
  </defs>
  <g id="Capa_2-2" data-name="Capa 2">
    <path class="cls-3" d="M16.52,42.01c10.74,10.52,27.94,9.99,38.12,.06,10.54,6.46,16.74,19.45,16.57,31.61H0c0-5.68,1.18-11.1,3.5-16.27,2.86-6.38,7.24-11.49,13.02-15.39"/>
    <path class="cls-3" d="M35.93,0c11.16,.04,20.18,9.14,20.16,20.33-.03,11.13-9.11,20.12-20.32,20.11-11.13-.01-20.16-9.14-20.13-20.33C15.68,9.04,24.83-.03,35.93,0"/>
    <polygon class="cls-2" points="59.32 40.6 65.11 52.32 78.04 54.2 68.68 63.32 70.89 76.21 59.32 70.12 47.76 76.21 49.96 63.32 40.6 54.2 53.54 52.32 59.32 40.6"/>
    <polygon class="cls-1" points="59.32 40.6 65.11 52.32 78.04 54.2 68.68 63.32 70.89 76.21 59.32 70.12 47.76 76.21 49.96 63.32 40.6 54.2 53.54 52.32 59.32 40.6"/>
  </g>
</svg>