<?xml version="1.0" encoding="UTF-8"?>
<svg id="Capa_2" data-name="Capa 2" xmlns="http://www.w3.org/2000/svg" viewBox="0 0 65.95 92.07">
  <defs>
    <style>
      .cls-1 {
        fill: #fff;
      }
    </style>
  </defs>
  <g id="Capa_2-2" data-name="Capa 2">
    <path class="cls-1" d="M32.64,44.5c1.37-.31,2.64-.63,3.92-.87,11.14-2.11,20.37,2.74,26.35,12.63,8.47,14.02-1.42,35.81-21.7,35.81-6.34,0-11.86-2.41-16.62-6.67-.98-.88-2.56-1.19-3.92-1.51-.99-.23-2.11-.17-3.14-.01-5.73,.88-9.06-2.11-11.7-6.74C-.22,66.53-1.89,55.53,2.38,43.88c1.54-4.21,3-8.45,4.67-12.6,1.45-3.6,1.42-7.14,.76-10.93-.64-3.7-1.04-7.59-.62-11.29C7.81,3.57,12.24,0,17.33,0c5.14,0,9.4,3.48,10.13,9.05,.44,3.32,.33,6.88-.38,10.15-1,4.67-.9,8.99,1.03,13.39,1.67,3.82,2.98,7.81,4.53,11.92m29.6,22.14c.01-10.22-9.86-19.61-20.67-19.66-11.24-.06-20.57,9.18-20.69,20.5-.12,11.27,9.42,20.81,20.75,20.74,11.43-.07,20.59-9.66,20.6-21.57m-42.37,12.9c-5.32-14.48-3.27-22.61,7.85-32.23,.56-.49,.85-1.85,.62-2.6-1.02-3.27-2.36-6.43-3.42-9.69-.51-1.57-1.39-2.01-2.94-1.96-3.14,.1-6.3-.11-9.44,.12-.95,.07-2.31,.93-2.65,1.77-1.62,3.96-2.99,8.03-4.37,12.08-3.39,10.03-1.38,19.37,3.82,28.23,2.88,4.9,4.5,5.51,10.53,4.28m-2.49-60.11v-.02c1.43,0,2.86,.11,4.27-.05,.61-.07,1.54-.6,1.68-1.1,1.08-3.84,1.37-7.72-.75-11.32-2.44-4.14-8.25-4.16-10.48,.11-1.01,1.93-1.5,4.34-1.51,6.54-.03,5.56,.42,5.84,5.94,5.84h.85Zm-5.28,9.57h10.41c-.09-1.96-.17-3.7-.26-5.51H12.5c-.13,1.82-.25,3.49-.39,5.51"/>
    <path class="cls-1" d="M53.44,75.78c-1.26,.83-2.58,2.36-3.76,2.27-1.08-.08-2.83-1.95-2.81-3.01,.02-1.08,1.77-2.92,2.85-3,1.18-.08,2.48,1.49,3.73,2.34,0,.46,0,.93,0,1.39"/>
    <path class="cls-1" d="M43.81,64.27c.81,1.17,2.16,2.27,2.31,3.52,.22,1.86-1.06,3.23-3.16,3.17-2.08-.06-3.32-1.48-3-3.32,.21-1.24,1.63-2.27,2.51-3.4,.44,0,.89,.02,1.33,.03"/>
    <path class="cls-1" d="M49.41,64.95c1.11-.87,2.12-2.22,3.36-2.49,1.9-.41,3.29,.84,3.35,2.87,.06,2-1.22,3.4-3.12,3.18-1.26-.15-2.37-1.47-3.55-2.26-.01-.43-.03-.87-.04-1.3"/>
  </g>
</svg>