<?xml version="1.0" encoding="UTF-8"?>
<svg id="Capa_2" data-name="Capa 2" xmlns="http://www.w3.org/2000/svg" viewBox="0 0 106.76 83.41">
  <defs>
    <style>
      .cls-1 {
        fill: #fff;
      }
    </style>
  </defs>
  <g id="Capa_2-2" data-name="Capa 2">
    <path class="cls-1" d="M3.34,63.39h1.36c8.97,0,17.93,.01,26.9-.01,.73,0,1.24,.19,1.68,.78,.62,.82,1.32,1.58,2.16,2.56H3.4c-.02,.46-.06,.79-.06,1.13,0,1.63,.56,2.21,2.17,2.22,1.08,0,2.15,0,3.23,0,8.69,0,17.38,0,26.06,0h1.21v3.33h-1.02c-9.83,0-19.67,0-29.5,0C2.03,73.39,0,71.36,0,67.89,0,47.11,0,26.33,0,5.55,0,2.01,2.02,0,5.56,0H101.16c3.61,0,5.6,1.99,5.6,5.61,0,20.71,0,41.42,0,62.14,0,3.68-1.97,5.64-5.67,5.64-12.89,0-25.79,0-38.68,0h-1.44v6.67h5.41c.42,0,.84-.02,1.25,.01,.92,.08,1.57,.75,1.59,1.62,.02,.91-.65,1.61-1.62,1.69-.24,.02-.48,0-.73,0h-27c-.21,0-.42,0-.62,0-1-.07-1.68-.71-1.7-1.62-.03-.95,.67-1.69,1.72-1.7,2.01-.03,4.03,0,6.05,0h1.41c0-1.73,.05-3.38-.02-5.03-.04-.93,.2-1.59,.93-2.24,.59-.52,1.01-1.33,1.31-2.08,.22-.53,.45-.71,.97-.67,.35,.03,.7,0,1.04,0h49.73c2.47,0,3.01-.64,2.65-3.29H54.7c-.03-.07-.06-.14-.09-.21,1.31-1.04,2.59-2.11,3.94-3.1,.26-.19,.74-.07,1.12-.07,14.07,0,28.15,0,42.22,0h1.47c.02-.42,.05-.78,.05-1.15,0-18.83,0-37.67,0-56.5,0-1.9-.5-2.4-2.41-2.4-31.76,0-63.53,0-95.29,0-1.82,0-2.38,.52-2.38,2.22,0,18.94,0,37.88,0,56.82v1.01Zm46.74,16.59h7.4v-6.5h-7.4v6.5Z"/>
    <path class="cls-1" d="M45.44,36.64c1.8-1.63,3.52-3.19,5.23-4.75,2-1.82,3.99-3.66,6-5.48,2.07-1.87,4.66-1.85,6.39,.03,1.71,1.86,1.52,4.54-.47,6.4-1.19,1.11-2.39,2.2-3.63,3.33,1.76,1.52,2.36,3.29,1.56,5.46-.06,.17,0,.5,.14,.61,1.87,1.54,2.13,3.45,1.34,5.48,.62,.8,1.33,1.45,1.73,2.26,.91,1.84,.4,3.73-1.24,5.26-5.14,4.78-10.24,9.61-16.74,12.85,.83,1.59-.28,2.31-1.31,3.07-.76,.55-1.48,1.15-2.24,1.7-.86,.62-1.84,.52-2.41-.21-.62-.78-.47-1.74,.41-2.46,.53-.44,1.08-.85,1.73-1.36-4.07-4.69-8.09-9.32-12.18-14.04-.81,.63-1.62,1.27-2.44,1.9-.99,.75-1.97,.73-2.59-.03-.65-.8-.45-1.81,.54-2.61,1.06-.85,2.09-1.73,3.21-2.5,.64-.44,1.42-.67,2.14-.99l.21,.28c.84-2.53,1.69-5.05,2.52-7.59,.85-2.61,1.61-5.24,2.52-7.83,.42-1.2,1-2.37,1.71-3.43,.92-1.38,2.27-2.19,4.01-1.83,1.82,.38,3.06,1.5,3.5,3.32,.23,.96,.24,1.98,.36,3.15m-3.24-.83c-.06-.02-.11-.04-.17-.07-.05-.45-.02-.93-.18-1.33-.14-.35-.45-.74-.78-.85-.22-.07-.73,.24-.88,.51-.48,.84-.94,1.71-1.24,2.62-1.77,5.37-3.49,10.77-5.26,16.14-.22,.66-.19,1.12,.3,1.67,2.94,3.34,5.87,6.69,8.72,10.09,.69,.82,1.17,.78,2.04,.31,5.82-3.13,10.59-7.6,15.38-12.04,.57-.52,.99-1.08,.37-1.77-.66-.74-1.22-.23-1.77,.26-1.51,1.39-3.02,2.78-4.56,4.13-1.1,.96-2.5,.56-2.88-.77-.24-.84,.07-1.47,.7-2.03,2.19-1.98,4.37-3.97,6.55-5.96,.54-.49,.74-1.05,.24-1.64-.54-.63-1.08-.37-1.61,.11-2.17,1.99-4.36,3.98-6.55,5.95-1,.9-1.96,.93-2.65,.14-.71-.79-.56-1.71,.42-2.62,2.82-2.58,5.64-5.15,8.47-7.71,.57-.52,.97-1.08,.35-1.77-.62-.68-1.17-.27-1.69,.22-1.28,1.18-2.56,2.35-3.85,3.52-1.57,1.42-3.12,2.86-4.71,4.26-.78,.69-1.78,.71-2.45,.09-.64-.59-.77-1.32-.32-2.07,.19-.32,.49-.58,.77-.83,2.95-2.69,5.91-5.38,8.86-8.07,2.16-1.97,4.32-3.93,6.46-5.91,.72-.67,.73-1.4,.07-1.83-.66-.44-1.09,0-1.54,.41-5.08,4.63-10.17,9.26-15.26,13.89-.94,.85-1.66,.95-2.5,.35-.9-.65-.68-1.44-.39-2.33,.55-1.67,1-3.38,1.5-5.07"/>
    <path class="cls-1" d="M53.38,7.51c13.83,0,27.66,0,41.49,0,2.67,0,4.56,1.34,5.09,3.59,.09,.4,.12,.82,.12,1.24,0,7.68,0,15.36,0,23.04,0,.28,.02,.57-.04,.83-.22,.83-.77,1.32-1.65,1.32-.88,0-1.42-.52-1.6-1.36-.07-.33-.04-.69-.04-1.04,0-7.37,0-14.73,0-22.1,0-1.83-.34-2.17-2.19-2.17-13.07,0-26.13,0-39.2,0-14.25,0-28.49,0-42.74,0-.48,0-.98,0-1.45,.08-.73,.13-1.16,.58-1.15,1.37,0,.59,0,1.18,0,1.77,0,12.27,0,24.53,0,36.8,0,.38,.04,.78-.04,1.14-.18,.85-.72,1.34-1.6,1.35-.88,0-1.44-.47-1.64-1.31-.08-.36-.05-.76-.05-1.14,0-12.61,0-25.23,0-37.84,0-3.79,1.76-5.56,5.53-5.56H53.38Z"/>
    <path class="cls-1" d="M74.73,27.53c1.1-.06,1.92,.51,2,1.53,.08,1.04-.65,1.72-1.93,1.82-1.42,.11-2.83,.23-4.25,.33-1.22,.09-2.03-.48-2.14-1.47-.11-1.05,.58-1.76,1.87-1.87,1.42-.12,2.84-.22,4.45-.34"/>
    <path class="cls-1" d="M59.28,18.42c0-.83-.04-1.66,.01-2.49,.08-1.14,.79-1.81,1.77-1.75,.94,.06,1.56,.77,1.55,1.85-.01,1.52-.05,3.05-.12,4.57-.05,1.22-.75,1.95-1.74,1.91-1.01-.04-1.6-.78-1.6-2.02,0-.69,0-1.39,0-2.08h.12Z"/>
    <path class="cls-1" d="M72.77,19.87c-.32,.59-.47,1.07-.78,1.4-1.02,1.09-2.08,2.14-3.16,3.18-.77,.74-1.75,.76-2.42,.11-.69-.66-.72-1.64,.02-2.42,1.07-1.13,2.15-2.29,3.34-3.28,.41-.34,1.26-.46,1.79-.29,.48,.15,.79,.82,1.22,1.31"/>
    <path class="cls-1" d="M100.08,42.51c.01,.91-.71,1.66-1.61,1.69-.95,.03-1.73-.74-1.72-1.69,.01-.91,.76-1.64,1.66-1.64,.91,0,1.65,.74,1.67,1.64"/>
  </g>
</svg>