<?xml version="1.0" encoding="UTF-8"?>
<svg id="Capa_2" data-name="Capa 2" xmlns="http://www.w3.org/2000/svg" viewBox="0 0 89.7 89.72">
  <defs>
    <style>
      .cls-1 {
        fill: #868686;
      }
    </style>
  </defs>
  <g id="Capa_2-2" data-name="Capa 2">
    <path class="cls-1" d="M74.75,14.96c1.52,0,2.94,0,4.36,0,6.01,.01,10.57,4.5,10.58,10.51,.03,14.25,.02,28.5,0,42.75,0,5.57-4.67,10.22-10.24,10.27-1.54,.01-3.08,0-4.69,0v.8c0,2.17-.01,4.33,0,6.5,.01,1.6-.67,2.79-2.08,3.51-1.43,.73-2.8,.48-4.06-.46-2.31-1.73-4.62-3.47-6.93-5.21-2.15-1.62-4.29-3.24-6.46-4.83-.27-.2-.68-.3-1.02-.3-5.58-.02-11.16-.01-16.74-.01-1.46,0-2.63-.55-3.33-1.86-.7-1.33-.65-2.7,.14-3.98,.68-1.11,1.74-1.61,3.02-1.62,4.58-.02,9.17,0,13.75,0,1.59,0,3.19,.02,4.78,0,.99-.02,1.85,.27,2.64,.86,2.67,2,5.34,4,8.01,5.99,.22,.16,.43,.32,.81,.6v-1.2c0-.85,0-1.69,0-2.54,.02-2.02,1.62-3.67,3.64-3.69,2.72-.03,5.43,0,8.15-.01,2.03,0,3.16-1.11,3.16-3.13,0-6.85,0-13.7,0-20.55,0-7.24,0-14.48,0-21.73,0-2.08-1.09-3.17-3.18-3.18-1.34,0-2.69,0-4.03,0-.05,0-.1,.02-.27,.05,0,.96,0,1.94,0,2.93,0,9.22,.03,18.44,0,27.65-.02,5.94-4.6,10.47-10.55,10.47-9.52,0-19.03,0-28.55,.02-.45,0-.98,.18-1.34,.45-4.42,3.27-8.81,6.59-13.23,9.88-1.45,1.08-3.04,1.15-4.45,.2-1.11-.75-1.65-1.83-1.66-3.17,0-2.42,0-4.83,0-7.37-.41,0-.8,.01-1.18,0-1.94-.09-3.92,.05-5.79-.33C3.41,62.27,.04,58.04,.02,53.36c-.04-9.34-.02-18.69-.01-28.03,0-5.06,.01-10.11,0-15.17C0,5.37,3.93,.82,8.66,.16,9.42,.06,10.2,0,10.97,0,18.44,0,25.92,0,33.39,0,43.68,0,53.97,0,64.25,0c5.04,0,9.24,3.31,10.24,8.23,.32,1.56,.19,3.22,.25,4.83,.02,.59,0,1.19,0,1.88M22.44,63.48c.31-.21,.5-.33,.67-.46,2.69-2.01,5.38-4.02,8.07-6.04,.82-.62,1.72-.92,2.77-.92,10.01,.02,20.03,0,30.04,0,2.22,0,3.29-1.07,3.29-3.3,0-13.55,0-27.1,0-40.65,0-.6,0-1.2,0-1.79-.02-1.3-.79-2.36-2.05-2.7-.42-.12-.88-.14-1.33-.14-12.85-.01-25.71-.02-38.56-.02-4.96,0-9.91,0-14.87,.02-1.79,0-2.99,1.18-2.99,2.92,0,14.17,0,28.35,0,42.52,0,2.01,1.14,3.14,3.15,3.15,2.64,0,5.28,0,7.92,0,2.27,0,3.86,1.58,3.88,3.84,.01,1.14,0,2.28,0,3.58"/>
    <path class="cls-1" d="M37.29,13.94c7.03,0,11.94,3.98,11.94,10.96s-5.01,10.39-11.89,10.39l-.21,3.98h-6.36l-.26-8.79h2.33c5.38,0,9.41-.98,9.36-5.64,0-3-1.86-4.86-4.91-4.86s-5.01,1.81-5.01,4.86h-6.82c-.1-6.25,4.29-10.91,11.84-10.91m-3.36,37.69c-2.64,0-4.5-1.86-4.5-4.24s1.86-4.24,4.5-4.24,4.39,1.86,4.39,4.24-1.86,4.24-4.39,4.24"/>
  </g>
</svg>