<?xml version="1.0" encoding="UTF-8"?>
<svg id="Capa_2" data-name="Capa 2" xmlns="http://www.w3.org/2000/svg" viewBox="0 0 96 96">
  <defs>
    <style>
      .cls-1 {
        fill: #01b1eb;
      }
    </style>
  </defs>
  <g id="Capa_2-2" data-name="Capa 2">
    <path class="cls-1" d="M45.65,0h4.69c.97,.1,1.94,.19,2.91,.3,6.26,.66,12.17,2.51,17.68,5.54,7.87,4.31,14.08,10.36,18.6,18.11,3.39,5.82,5.45,12.09,6.17,18.8,.11,.97,.2,1.94,.3,2.91v4.69c-.03,.21-.07,.42-.1,.62-.3,2.29-.44,4.61-.93,6.86-2.89,13.18-10.04,23.45-21.37,30.76-6.21,4-13.04,6.34-20.4,7.12-.95,.1-1.9,.2-2.86,.29h-4.69c-.17-.03-.35-.08-.52-.09-4.83-.28-9.51-1.25-14.02-2.97-9.52-3.63-17.16-9.67-22.89-18.08C3.77,68.31,1.14,61.08,.29,53.2c-.1-.95-.2-1.9-.29-2.85v-4.69c.03-.19,.08-.38,.09-.57,.23-3.96,.94-7.83,2.15-11.6,2.89-9,7.98-16.54,15.28-22.55C24.88,4.88,33.32,1.33,42.8,.29c.95-.1,1.9-.2,2.85-.29M18.95,79.78c.05-.19,.09-.32,.12-.46,1.13-5.32,3.72-9.81,7.75-13.44,4.06-3.66,8.8-5.79,14.33-5.86,4.55-.06,9.1-.02,13.65-.01,1.8,0,3.59,.23,5.31,.78,8.74,2.81,14.1,8.83,16.59,17.56,.13,.47,.23,.95,.35,1.45,11.2-9.85,17.69-27.16,12.17-44.72-5.81-18.47-22.99-30.7-42.36-30.27C27.81,5.24,11.2,18.34,6.23,37.03c-4.6,17.29,2.31,33.7,12.72,42.76"/>
    <path class="cls-1" d="M48.02,55.2c-9.31,.03-16.85-7.52-16.86-16.9-.01-9.18,7.56-16.74,16.79-16.76,9.27-.02,16.85,7.48,16.89,16.72,.04,9.35-7.46,16.91-16.81,16.94"/>
  </g>
</svg>