<?xml version="1.0" encoding="UTF-8"?>
<svg id="Capa_2" data-name="Capa 2" xmlns="http://www.w3.org/2000/svg" viewBox="0 0 28.49 29.9">
  <defs>
    <style>
      .cls-1 {
        fill: none;
        stroke: #042121;
        stroke-miterlimit: 10;
        stroke-width: 3px;
      }

      .cls-2 {
        fill: #085369;
      }

      .cls-3 {
        fill: #042121;
      }
    </style>
  </defs>
  <g id="Capa_2-2" data-name="Capa 2">
    <path class="cls-1" d="M26.99,15.25v-7.02c0-2.13-1.73-3.86-3.86-3.86H5.36c-2.13,0-3.86,1.73-3.86,3.86V24.54c0,2.13,1.73,3.86,3.86,3.86H15.73l7.38-.1c2.04-.03,3.69-1.68,3.73-3.72l.16-9.33Z"/>
    <path class="cls-3" d="M26.63,11.29H1.86v-1.39c0-3.26,2.64-5.89,5.89-5.89h12.97c3.26,0,5.9,2.64,5.9,5.89v1.39Z"/>
    <polygon class="cls-2" points="13.95 14.78 15.41 17.73 18.67 18.21 16.31 20.5 16.87 23.75 13.95 22.22 11.04 23.75 11.6 20.5 9.24 18.21 12.5 17.73 13.95 14.78"/>
    <rect class="cls-3" x="4.41" width="3.64" height="4.37"/>
    <rect class="cls-3" x="20.44" width="3.64" height="4.37"/>
  </g>
</svg>