<?xml version="1.0" encoding="UTF-8"?>
<svg id="Capa_2" data-name="Capa 2" xmlns="http://www.w3.org/2000/svg" viewBox="0 0 130.9 75.21">
  <defs>
    <style>
      .cls-1 {
        fill: #868686;
      }
    </style>
  </defs>
  <g id="Capa_2-2" data-name="Capa 2">
    <path class="cls-1" d="M45.92,42.88c10.96,10.74,28.53,10.2,38.92,.06,10.76,6.59,17.09,19.86,16.91,32.27H29.05c0-5.8,1.2-11.33,3.57-16.61,2.92-6.51,7.39-11.73,13.29-15.71"/>
    <path class="cls-1" d="M65.74,0c11.39,.04,20.6,9.33,20.58,20.75-.03,11.36-9.3,20.55-20.74,20.53-11.36-.01-20.58-9.33-20.54-20.76C45.06,9.22,54.4-.03,65.74,0"/>
    <path class="cls-1" d="M32.6,4.86c3.57,.06,7.74,1.82,11.21,5.27,.47,.47,.59,.85,.32,1.52-2.78,6.91-2.42,13.67,1.08,20.24,.31,.58,.29,.93-.11,1.45-4.79,6.07-12.98,8.33-20.2,5.55-7.18-2.76-11.74-9.9-11.23-17.59,.63-9.32,8.27-16.46,18.94-16.44"/>
    <path class="cls-1" d="M98.61,4.85c11.01,.03,18.64,7.4,19.1,16.98,.44,9.06-6.52,17.18-15.7,18.12-6.35,.65-11.61-1.63-15.73-6.54-.44-.53-.47-.91-.14-1.54,3.49-6.49,3.85-13.2,1.14-20.04-.32-.8-.25-1.28,.37-1.87,3.5-3.36,7.64-5.08,10.95-5.11"/>
    <path class="cls-1" d="M130.84,69.07c-.42,.03-.72,.06-1.03,.06-8.2,0-16.41-.01-24.61,.01-.85,0-1.14-.2-1.3-1.09-1.27-7.49-4.22-14.22-9.16-20.05-.09-.1-.15-.22-.3-.45,2.82,.57,5.54,.78,8.28,.43,4.93-.63,9.26-2.57,12.95-5.9,.59-.53,.96-.63,1.64-.13,8.8,6.53,13.08,15.38,13.58,26.2,.01,.27-.03,.54-.06,.92"/>
    <path class="cls-1" d="M.02,69.06c-.11-2.76,.27-5.37,.89-7.95,1.88-7.92,6.05-14.33,12.66-19.13,.43-.31,.77-.7,1.4-.13,6.11,5.5,13.25,7.29,21.37,5.75-.15,.22-.25,.42-.39,.58-4.82,5.81-7.76,12.47-9,19.9-.14,.82-.43,1.08-1.25,1.07-8.2-.03-16.41-.02-24.61-.02-.33,0-.67-.04-1.07-.07"/>
  </g>
</svg>