<?xml version="1.0" encoding="UTF-8"?>
<svg id="Capa_2" data-name="Capa 2" xmlns="http://www.w3.org/2000/svg" viewBox="0 0 98.1 89.91">
  <defs>
    <style>
      .cls-1 {
        fill: #fff;
      }
    </style>
  </defs>
  <g id="Capa_2-2" data-name="Capa 2">
    <path class="cls-1" d="M92.61,55.51c6.6,6.6,7.12,10.71,2.29,17.85,.06,.06,.11,.15,.18,.16,2.83,.19,2.93,.29,2.93,3.19,0,1.4,0,2.79,0,4.19-.01,1.99-.41,2.4-2.35,2.45-.21,0-.42,0-.88,0,0,1.16,0,2.28,0,3.39,0,2.87-.28,3.16-3.09,3.15-1.57,0-3.14-.02-4.7,0-.95,.02-1.61-.37-2.03-1.23-.74-1.52-1.49-3.04-2.29-4.53-.17-.32-.56-.75-.85-.76-3.25-.05-6.51-.03-9.95-.03,0,1.5,.01,2.88,0,4.26-.02,1.73-.55,2.28-2.29,2.29-20.3,0-40.6,0-60.9,.02-1.11,0-1.84-.4-2.31-1.41-.68-1.46-1.38-2.91-2.18-4.3-.23-.4-.84-.75-1.31-.82-.91-.13-1.84-.04-2.86-.04v-3.26H9.99c-.66-.82-1.38-1.75-2.14-2.64-4.67-5.45-5.83-11.57-3.55-18.37,.41-1.21,1.12-1.82,2.42-1.79,1.55,.04,3.11,0,4.66,0,.53-1.56,.98-3.28,1.68-4.89,1.43-3.26,3.77-5.78,6.75-7.73,.94-.61,1.79-.67,2.68,.01,1.14,.87,2.27,1.74,3.56,2.73v-1.3c0-5.29,0-10.58,0-15.87,0-1.88,.38-2.28,2.23-2.56,5.95-.91,11.89-1.82,17.83-2.75,.54-.08,1.25,.05,1.2-.91-.04-.73,.04-1.3-.93-1.62-3.79-1.26-5.97-4.69-5.54-8.67,.57-5.26,3.42-9.38,6.89-13.14,.71-.77,1.64-.83,2.37-.05,3.45,3.71,6.3,7.78,6.92,12.99,.49,4.16-1.64,7.51-5.55,8.92q-.93,.33-.74,1.75c2.66-.4,5.33-.79,7.99-1.2,3.52-.54,7.03-1.1,10.55-1.63,1.89-.29,2.58,.3,2.58,2.25,.01,3.05,0,6.1,0,9.14v1.54c.57,0,1.02,0,1.47,0,4.49,0,8.99-.06,13.48,.03,4.82,.1,8.89,3.08,10.51,7.49,1.61,4.39,.35,9.31-3.22,12.49-.47,.42-.98,.78-1.48,1.16M29.32,30.83v1.46c0,5.33,.16,10.67-.06,15.99-.13,3.22,.73,6.13,1.62,9.02,1.68,0,3.32,0,4.96,0,1.08,0,1.7,.54,2.05,1.55,2.43,6.82,1.28,12.97-3.37,18.5-.78,.93-1.54,1.88-2.24,2.73h10.04v3.3c-1.28,0-2.67-.39-3.58,.11-.87,.48-1.23,1.88-1.91,3.03h12v-3.19c-.33,0-.54,0-.75,0-1.96-.04-2.36-.45-2.37-2.41,0-1.23,0-2.45,0-3.68q0-3.25,3.2-3.88c-2.98-3.45-4.05-7.34-2.58-11.67,1.48-4.37,4.74-6.8,9.31-7.72-.42-.51-.74-.9-1.04-1.29-1.74-2.28-2.57-4.87-2.32-7.72,.52-6.14,5.19-10.48,11.38-10.63,1.6-.04,3.2,0,4.86,0v-9.52c-13.08,2.01-26.07,4.01-39.19,6.02m44.09,32.9c-3.72,0-7.28,0-10.83,0-1.41,0-2.11,.57-2.12,1.63-.01,1.06,.7,1.63,2.11,1.63,5.21,0,10.42,.02,15.63,0,2.91-.02,5-2.03,5.06-4.77,.06-2.78-2-4.98-4.95-5.01-7.07-.06-14.15-.14-21.22,.03-5.91,.15-9.53,5.62-7.56,11.05,1.2,3.3,4.23,5.23,8.33,5.24,8.9,.02,17.79,0,26.69,0,.93,0,1.86-.01,2.79-.08,3.63-.29,6.76-3.21,7.26-6.72,.55-3.91-1.47-7.57-4.99-8.91-1.45-.55-2.95-.78-4.59-.55,3.85,6.02-.25,13.07-7.02,13.01-5.25-.04-10.51,.02-15.76-.02-2.98-.02-5.07-2.08-5.07-4.88,0-2.79,2.08-4.86,5.05-4.91,3.39-.05,6.78-.01,10.17,0,.33,0,.65,.05,1.03,.07v3.2Zm15.1-25.75c.11,.25,.16,.36,.22,.47,2.85,5.44-.32,11.7-6.43,12.07-5.74,.34-11.52,.19-17.27,.08-2.81-.06-4.68-2.33-4.59-5.06,.09-2.61,2.14-4.59,4.91-4.65,2.29-.05,4.58-.01,6.86-.02,1.47,0,2.94,0,4.47,0v3.27c-.53,0-.98,0-1.44,0-3.26,0-6.53,0-9.79,.01-1.05,0-1.72,.53-1.74,1.6-.02,1.02,.66,1.49,1.61,1.64,.21,.03,.42,.03,.63,.03,5.08,0,10.17,.05,15.25-.04,1.05-.02,2.21-.33,3.12-.85,1.83-1.03,2.59-3.29,2.05-5.3-.57-2.12-2.36-3.58-4.67-3.61-4.66-.06-9.32-.03-13.98-.02-1.61,0-3.23-.06-4.83,.08-4.64,.42-7.86,4.51-7.28,9.12,.53,4.24,3.89,7.09,8.48,7.11,7.29,.03,14.58,.01,21.86,0,.55,0,1.1-.03,1.65-.09,3.9-.47,6.88-3.76,7.04-7.78,.15-3.79-2.47-7.3-6.14-8.06M19.4,75.16c.23,1.33,.46,2.65,.67,3.98,.12,.72,.51,.92,1.23,.93,9.36,.03,16.48-9.19,14.14-18.25-.3-1.16-.81-1.42-1.93-1.36-7.86,.48-13.92,6.81-14.12,14.7m-2.79,4.15c.03-.25,.07-.37,.05-.48-.91-4.5-.26-8.74,2.11-12.68,.42-.69,.05-.99-.34-1.38-2.74-2.7-6.06-4.06-9.89-4.31-1.01-.07-1.43,.28-1.65,1.22-1.24,5.42,.09,10.13,3.92,14.11,1.58,1.64,3.49,2.86,5.79,3.52m78.09-2.44H49.04v3.1h45.66v-3.1ZM21.17,62.45c1.87-1.19,3.86-2.43,5.83-3.71,.25-.16,.51-.59,.48-.86-.61-4.32-2.74-7.69-6.34-10.16-3.46,2.47-5.54,5.69-6.26,9.74-.07,.4,.08,1.06,.37,1.25,1.98,1.33,4.03,2.56,5.93,3.74M48.96,4.15c-.51,.65-.98,1.19-1.39,1.77-1.77,2.52-3.23,5.16-3.48,8.32-.18,2.32,1.14,4.38,3.25,4.88v-2.64h3.29v2.63c2.02-.49,3.39-2.55,3.21-4.75-.32-3.98-2.37-7.14-4.87-10.21M7.48,83.39c.47,.96,.77,1.76,1.24,2.44,.26,.37,.81,.75,1.23,.75,7.49,.04,14.97,.04,22.46,.02,.31,0,.77-.06,.89-.26,.54-.91,.99-1.89,1.53-2.95H7.48Zm52.34,3.13h8.68v-3.18c-2.06,0-4.03,0-6,0-.21,0-.45-.06-.63,.02-.25,.1-.55,.24-.67,.46-.47,.83-.88,1.7-1.38,2.71m26.28-3.13c1.2,3.32,2.19,3.86,5.31,3.01v-3.01h-5.31Zm-33.83,3.07c3.5,.57,4.71-.15,5.21-3.04h-5.21v3.04Z"/>
    <rect class="cls-1" x="32.69" y="34.44" width="3.12" height="12.9"/>
    <rect class="cls-1" x="32.67" y="50.77" width="3.12" height="3.08"/>
  </g>
</svg>