<?xml version="1.0" encoding="UTF-8"?>
<svg id="Capa_2" data-name="Capa 2" xmlns="http://www.w3.org/2000/svg" viewBox="0 0 85.41 85.57">
  <defs>
    <style>
      .cls-1 {
        fill: #fff;
      }
    </style>
  </defs>
  <g id="Capa_2-2" data-name="Capa 2">
    <path class="cls-1" d="M75.75,16.45c.43,.29,.52,.39,.62,.41,7.92,1.38,9.91,6.44,8.71,13.7-.36,2.18-.1,4.47-.05,6.71,.04,1.85-.13,3.36-2.17,4.34-.79,.38-1.31,2.08-1.33,3.19-.12,7.66-.14,15.32-.02,22.97,.04,2.35-.71,3.61-2.97,4.46-11.34,4.28-22.61,8.76-33.97,13.02-1.26,.48-3.04,.37-4.33-.11-11.24-4.23-22.4-8.67-33.64-12.89-2.41-.9-3.15-2.21-3.1-4.7,.15-7.54,.15-15.08-.04-22.62-.03-1.31-1.3-2.58-2-3.86-.47-.86-1.33-1.71-1.35-2.58-.13-5.3-.17-10.6,.01-15.9,.03-1,1.04-2.2,1.93-2.88,.99-.76,2.33-1.13,3.56-1.49,2.69-.78,3.69-2,3.46-5.24C8.34,2.98,18.97-3.4,28.1,1.93c4.71,2.75,8.46,5.15,13.81,1.88,1.07-.65,3.56,.63,5.21,1.42,2.29,1.09,3.91,.96,5.96-.8,1.99-1.71,4.54-3.05,7.07-3.77,9.2-2.64,17.19,4.53,15.89,14.01-.08,.56-.18,1.13-.28,1.79M40.82,81.72c0-8.26,.02-15.83-.05-23.41,0-.56-.56-1.41-1.07-1.62-4.51-1.82-9.06-3.53-14.11-5.46,0,8.22-.03,15.71,.06,23.2,0,.65,.64,1.63,1.23,1.87,4.4,1.81,8.86,3.47,13.95,5.43m3.46-.06c2.92-1.08,5.11-1.87,7.29-2.71q7.89-3.03,7.88-11.51c0-5.23,0-10.46,0-16.24-5.04,1.95-9.43,3.59-13.75,5.4-.66,.28-1.35,1.39-1.36,2.13-.1,7.4-.06,14.81-.06,22.93m18.62-7.14c3.23-1.23,5.85-2.21,8.46-3.23q6.7-2.64,6.7-9.86c0-5.6,0-11.19,0-17.41-5.07,1.95-9.46,3.57-13.77,5.38-.65,.27-1.31,1.4-1.32,2.13-.1,7.41-.06,14.82-.06,22.99M6.99,44c0,8.23-.02,15.82,.05,23.42,0,.55,.57,1.4,1.08,1.6,4.49,1.82,9.02,3.52,14.02,5.44,0-8.11,.04-15.49-.05-22.87-.01-.75-.6-1.91-1.22-2.17-4.4-1.84-8.88-3.49-13.87-5.41m15.12,1.72c0-4.71,.04-8.79-.05-12.86-.01-.54-.63-1.33-1.15-1.55-5.61-2.35-11.26-4.61-17.45-7.11,0,4.7-.04,8.78,.05,12.86,.01,.55,.58,1.37,1.09,1.59,5.62,2.34,11.27,4.58,17.51,7.08m59.52-21.5c-6.31,2.56-12.06,4.86-17.76,7.26-.48,.2-.91,1.11-.93,1.7-.08,3.96-.04,7.93-.04,12.64,6.3-2.57,12.04-4.88,17.73-7.29,.49-.21,.94-1.1,.96-1.69,.08-3.98,.04-7.96,.04-12.6m-40.8,29.08c0-4.7,.05-8.55-.05-12.41-.02-.69-.51-1.74-1.06-1.97-4.46-1.92-8.99-3.68-14.14-5.75,0,4.71-.06,8.65,.06,12.59,.02,.64,.67,1.59,1.26,1.84,4.38,1.88,8.81,3.63,13.93,5.7m3.48-.05c5-2.01,9.46-3.73,13.84-5.63,.63-.27,1.21-1.42,1.23-2.17,.12-3.85,.06-7.71,.06-12.22-4.98,1.99-9.52,3.76-14.01,5.64-.51,.21-1.06,1.04-1.07,1.6-.09,4.06-.05,8.13-.05,12.79m12.2-22.69c-4.55-1.83-8.11-3.31-11.71-4.69-.95-.36-2.17-.83-3.01-.52-4.16,1.49-8.23,3.22-13.21,5.22,5,2.03,9.09,3.72,13.21,5.31,.58,.23,1.43,.1,2.05-.15,3.92-1.55,7.81-3.18,12.67-5.18m-21.05-12.53c.48-1.14,1.27-2.07,1.12-2.79-1.07-5.02-10.43-12-15.56-11.77-5.56,.25-9.57,5.3-7.92,10.09,8.62-5.83,15.52-2.05,22.35,4.47m37.02-4.22c.61-7.82-5.95-12.38-12.96-9.44-4.88,2.04-8.08,6-10.71,10.39-.39,.65,.26,1.92,.56,3.61,7.18-7.02,14.15-10.55,23.12-4.56m-39.58,7.66c-5.14-8.15-14.62-9.66-18.5-3.28,5.38,5.37,12,2.33,18.5,3.28m19.27,.1c6.67-1.15,13.43,2.06,18.67-3.59-4.39-6.66-14.51-3.58-18.67,3.59m26.15,.22c-2.59-1.63-3.95-2.12-6.24-.4-2.36,1.78-5.62,2.71-8.63,3.22-3.13,.53-6.42,.12-9.63,.12-.08,.42-.16,.84-.24,1.26,2.92,.76,6.1,2.65,8.69,2.04,5.28-1.27,10.24-3.88,16.05-6.24m-46.97,2.93c-3.4,0-6.86,.39-10.18-.12-2.78-.43-5.82-1.36-7.96-3.06-2.32-1.83-3.82-1.54-6.23,.31,4.28,1.74,8.47,2.99,12.19,5.07,4.75,2.66,8.4,.5,12.18-2.2m5.93-15.14c1.53,2.16,2.05,5.7,5.67,4.56,1.97-.62,3.53-2.57,5.49-4.09-4.27-3.33-7.62-3.25-11.15-.47m.69,11.36h9.31c-3.1-4.26-6.43-4.25-9.31,0"/>
  </g>
</svg>