<?xml version="1.0" encoding="UTF-8"?>
<svg id="Capa_2" data-name="Capa 2" xmlns="http://www.w3.org/2000/svg" viewBox="0 0 32 32.31">
  <defs>
    <style>
      .cls-1 {
        fill: #0bcd05;
      }
    </style>
  </defs>
  <g id="Capa_1-2" data-name="Capa 1">
    <path class="cls-1" d="M.11,32.31h-.11c.05-.23,.08-.46,.15-.68,.81-2.43,1.63-4.86,2.46-7.29,.11-.33,.09-.59-.08-.9C.76,20.29,.14,16.91,.69,13.36,2.02,4.92,9.61-.84,18.08,.1c6.51,.73,12,5.6,13.48,11.99,.19,.83,.29,1.69,.44,2.54v2.26c-.08,.55-.15,1.1-.26,1.64-1.94,10.44-13.26,16.01-22.74,11.19-.22-.11-.56-.14-.79-.06-2.58,.8-5.16,1.64-7.74,2.46-.13,.04-.24,.12-.37,.18m3.9-4.04c.28-.08,.46-.12,.64-.18,1.32-.42,2.63-.83,3.94-1.27,.32-.11,.56-.07,.85,.11,2.77,1.66,5.75,2.26,8.95,1.74,7.09-1.15,11.86-7.75,10.82-14.99-.99-6.91-7.63-11.86-14.67-10.93C5.29,3.96,.2,14.25,4.93,22.27c.55,.93,.63,1.66,.23,2.61-.44,1.07-.76,2.19-1.16,3.39"/>
    <path class="cls-1" d="M11.34,8.11c.86-.2,1.19,.29,1.42,.98,.29,.88,.62,1.76,.98,2.62,.17,.42,.14,.77-.12,1.11-.29,.37-.59,.73-.91,1.06-.28,.29-.33,.55-.14,.91,1.23,2.23,2.98,3.89,5.32,4.92,.35,.15,.62,.11,.86-.17,.39-.45,.81-.87,1.16-1.34,.3-.41,.63-.49,1.06-.26,1.03,.55,2.06,1.09,3.1,1.63,.36,.19,.37,.49,.34,.83-.18,1.63-1.22,2.74-2.85,3.09-.85,.18-1.66,.13-2.49-.12-3.66-1.1-6.52-3.25-8.62-6.44-.84-1.28-1.72-2.53-1.98-4.09-.29-1.73,.17-3.22,1.51-4.36,.35-.29,.88-.37,1.33-.54,0,.06,.02,.13,.02,.19"/>
  </g>
</svg>