<svg id="Capa_1" data-name="Capa 1" xmlns="http://www.w3.org/2000/svg" viewBox="0 0 360.78 43.38"><defs><style>.cls-1{fill:#011e41;}.cls-2{fill:#8ab7e9;}</style></defs><path class="cls-1" d="M10.45,21.37h9.41c5.45,0,7.32,4,7.32,8,0,5.52-3.41,8-8.47,8H15.83V48H10.45Zm5.38,12.07h2.39c2.13,0,3.58-1.27,3.58-4s-1.05-4.12-3.74-4.12H15.83Z" transform="translate(-10.45 -12.82)"/><path class="cls-1" d="M38,20.86C46,20.86,47,26.6,47,34.71S46,48.56,38,48.56s-9.06-5.76-9.06-13.85S29.9,20.86,38,20.86Zm0,23.73c3.18,0,3.69-2.73,3.69-9.88s-.51-9.9-3.69-9.9-3.69,2.76-3.69,9.9S34.78,44.59,38,44.59Z" transform="translate(-10.45 -12.82)"/><path class="cls-1" d="M48.25,21.37H53.4l2.94,19.71h.08l3.13-19.71H64.7l3.13,19.71h.08l3-19.71H76L71.16,48h-6l-3-19.32h-.09L59.1,48h-6Z" transform="translate(-10.45 -12.82)"/><path class="cls-1" d="M92.69,21.37v4.41H83.16v6.28h9v4.41h-9v7.16h9.9V48H77.8V21.37Z" transform="translate(-10.45 -12.82)"/><path class="cls-1" d="M95.36,21.37h9.93c4.4,0,7.08,2.33,7.08,6.88,0,3.54-1.41,5.93-4.43,6.57v.07c3.66.49,4.21,2.5,4.3,8.13,0,2.8.17,4.26,1.19,4.78V48H107.6a5.2,5.2,0,0,1-.67-2.79l-.15-5.11c-.07-2.09-1-3.36-3.17-3.36h-2.87V48H95.36ZM100.74,33H103c2.58,0,4-1.12,4-4,0-2.46-1.31-3.7-3.74-3.7h-2.53Z" transform="translate(-10.45 -12.82)"/><path class="cls-1" d="M130.63,21.37v4.41h-9.52v6.28h9v4.41h-9v7.16H131V48H115.74V21.37Z" transform="translate(-10.45 -12.82)"/><path class="cls-1" d="M133.57,21.37h8.8c7.47,0,8.81,5.12,8.81,13,0,9.45-2,13.69-9.15,13.69h-8.46Zm5.37,22.7h2.39c3.73,0,4.47-2.34,4.47-9.61,0-6-.47-9.13-4.59-9.13h-2.27Z" transform="translate(-10.45 -12.82)"/><path class="cls-1" d="M162.92,21.37h9c4.39,0,7.58,1.65,7.58,6.76,0,2.88-1.38,5.07-4,5.84V34c3,.41,4.86,2.65,4.86,6.19,0,4.19-2,7.8-8.33,7.8h-9.07Zm5.37,11h1.53c3,0,4.3-1,4.3-3.51s-1.23-3.48-3.88-3.48h-2Zm0,11.75h2.1c2.57,0,4.32-.93,4.32-4s-1.75-4-4.1-4h-2.32Z" transform="translate(-10.45 -12.82)"/><path class="cls-1" d="M187.59,21.37l3.5,10.31h.08l3.73-10.31h5.83L193.8,37.54V48h-5.35V37.54l-6.91-16.17Z" transform="translate(-10.45 -12.82)"/><path class="cls-1" d="M209.24,13.75h24.12q6,0,9.26,3a9.65,9.65,0,0,1,3.22,7.38,9.34,9.34,0,0,1-2.29,6.35,10.16,10.16,0,0,1-4.49,2.78,11.68,11.68,0,0,1,6.59,3.7,10.17,10.17,0,0,1,2.11,6.59,11.4,11.4,0,0,1-1.51,5.82,11.05,11.05,0,0,1-4.13,4.07,13.51,13.51,0,0,1-4.88,1.36,56.46,56.46,0,0,1-5.77.57H209.24Zm13,16.36h5.64c2,0,3.43-.34,4.22-1a3.76,3.76,0,0,0,1.19-3,3.5,3.5,0,0,0-1.19-2.83c-.79-.69-2.17-1-4.14-1H222.2Zm0,16.3h6.59c2.22,0,3.79-.39,4.7-1.18a3.93,3.93,0,0,0,1.37-3.15,3.62,3.62,0,0,0-1.36-2.95c-.91-.74-2.48-1.12-4.74-1.12H222.2Z" transform="translate(-10.45 -12.82)"/><path class="cls-2" d="M248.65,13.75h12.83V45.11h20.06V55.36H248.65Z" transform="translate(-10.45 -12.82)"/><path class="cls-2" d="M308.61,13.75h12.83V38.56a20.84,20.84,0,0,1-1.15,7,15,15,0,0,1-3.6,5.73,14.51,14.51,0,0,1-5.17,3.45,25.87,25.87,0,0,1-9,1.39,55.82,55.82,0,0,1-6.65-.43,17.6,17.6,0,0,1-6-1.68,15.31,15.31,0,0,1-4.42-3.6,13.07,13.07,0,0,1-2.74-4.79,24.71,24.71,0,0,1-1.19-7V13.75h12.83V39.17a7.24,7.24,0,0,0,1.9,5.32,8.15,8.15,0,0,0,10.47,0,7.19,7.19,0,0,0,1.9-5.35Z" transform="translate(-10.45 -12.82)"/><path class="cls-2" d="M337.76,38.05c.4,4.7,3.13,8,8.1,8,2.57,0,5.37-1,6.66-3h14.83c-3.2,8.92-12,13.06-21.41,13.06-13.31,0-23.34-7.8-23.34-21.57,0-12,8.82-21.81,22-21.81,16.52,0,23.66,9.15,23.66,25.23ZM353,29.85a6.81,6.81,0,0,0-7-6.92c-4.73,0-7.46,2.46-8.18,6.92Z" transform="translate(-10.45 -12.82)"/><path class="cls-2" d="M371.24,17.55a3.53,3.53,0,1,1-3.5-3.44A3.47,3.47,0,0,1,371.24,17.55Zm-6.18,0a2.67,2.67,0,0,0,2.68,2.74,2.63,2.63,0,0,0,2.62-2.72,2.65,2.65,0,1,0-5.3,0Zm2.11,1.78h-.79V15.89a9.58,9.58,0,0,1,1.31-.1,1.82,1.82,0,0,1,1.18.27.87.87,0,0,1,.36.73.9.9,0,0,1-.72.82v0c.34.11.5.38.61.84a3.61,3.61,0,0,0,.25.84h-.83a2.71,2.71,0,0,1-.28-.84c-.06-.35-.27-.52-.71-.52h-.38Zm0-1.93h.38c.44,0,.8-.15.8-.5s-.23-.53-.74-.53a1.46,1.46,0,0,0-.44.05Z" transform="translate(-10.45 -12.82)"/></svg>