<?xml version="1.0" encoding="utf-8"?>
<!-- Generator: Adobe Illustrator 23.0.1, SVG Export Plug-In . SVG Version: 6.00 Build 0)  -->
<svg version="1.1" xmlns="http://www.w3.org/2000/svg" xmlns:xlink="http://www.w3.org/1999/xlink" x="0px" y="0px"
	 viewBox="0 0 480 480" style="enable-background:new 0 0 480 480;" xml:space="preserve">
<style type="text/css">
	.st0{fill:url(#SVGID_1_);}
	.st1{fill:url(#SVGID_2_);}
	.st2{fill:url(#SVGID_3_);}
	.st3{fill:url(#SVGID_4_);}
	.st4{fill:url(#SVGID_5_);}
	.st5{fill:url(#SVGID_6_);}
	.st6{fill:url(#SVGID_7_);}
	.st7{fill:url(#SVGID_8_);}
	.st8{fill:url(#SVGID_9_);}
	.st9{fill:url(#SVGID_10_);}
	.st10{fill:url(#SVGID_11_);}
	.st11{fill:url(#SVGID_12_);}
	.st12{fill:url(#SVGID_13_);}
</style>
<g id="Capa_1">
	<g>
		<g id="Capa_1-2">
			<linearGradient id="SVGID_1_" gradientUnits="userSpaceOnUse" x1="165.7866" y1="183.5043" x2="312.258" y2="329.9757">
				<stop  offset="0" style="stop-color:#FBBE0E"/>
				<stop  offset="1" style="stop-color:#D85452"/>
			</linearGradient>
			<path class="st0" d="M342.8,220.8c-0.2,2.8-1.4,5.4-3.3,7.4l-31.7,34.9c-2.2,2.5-4.4,5-6.7,7.4c-0.5,0.5-0.7,1.2-0.6,2
				c2.5,16.4,5,32.7,7.5,49.1c0.3,1.9,0.7,3.7,0.9,5.6c0.6,4.3-1.4,8.6-5.1,11c-3.5,2.5-8.2,2.8-12.1,0.8
				c-17.6-8.5-35.1-17-52.7-25.5c-0.6-0.3-1.3-0.3-1.9,0c-16,7.7-32,15.4-48,23.1c-0.8,0.4-1.5,0.8-2.2,1.2
				c-4.4,2.3-8.8,2.2-12.8-0.7s-5.5-7-4.7-11.8c2.7-17.9,5.5-35.8,8.2-53.7c0.1-0.6-0.1-1.3-0.5-1.8c-12-13.4-24-26.8-36.1-40.1
				c-0.6-0.7-1.3-1.3-1.9-2c-3.3-3.5-4.5-7.6-3-12.2s4.8-7.2,9.5-8.1c8.3-1.5,16.5-3,24.8-4.5c9.8-1.8,19.5-3.6,29.2-5.5
				c0.6-0.2,1.2-0.6,1.5-1.1c8.5-16.7,17-33.3,25.4-50.1c0.5-0.9,0.7-1.9,1.2-2.9c2.2-4.9,5.8-8,11.3-8.4
				c6.3-0.3,11.7,4.3,12.4,10.5c0.1,0.9,0.4,1.8,0.8,2.6c8.2,16.2,16.4,32.5,24.7,48.7c0.4,1,1.4,1.7,2.5,1.8
				c16.7,3.1,33.4,6.2,50.1,9.3c1.3,0.3,2.7,0.4,4,0.6C338.8,209.5,342.7,214.3,342.8,220.8z M238.9,173.9c-0.3,0.6-0.5,0.9-0.7,1.2
				c-5.6,11-11.1,21.9-16.7,32.8c-0.4,0.8-0.7,1.7-1,2.6c-1.2,4.4-4.7,7.7-9.2,8.6c-1.3,0.3-2.6,0.4-3.9,0.7l-31.6,5.9
				c-1.8,0.3-3.6,0.7-5.6,1.1c0.4,0.5,0.6,0.7,0.8,1c8,8.9,16,17.8,24,26.6c0.7,0.7,1.4,1.4,2.2,2c3.3,2.4,5.1,6.3,4.8,10.4
				c-0.2,1.6-0.4,3.2-0.7,4.7l-4.8,31.4c-0.2,1.3-0.4,2.6-0.6,4.1l1.4-0.6c4.4-2.1,8.7-4.2,13.1-6.3c7-3.4,14.1-6.7,21.1-10.3
				c4.4-2.3,8.7-2.5,13-0.1c1.4,0.8,2.8,1.6,4.2,2.3c10.7,5.1,21.3,10.3,32,15.4l1.2,0.5c0-0.4,0-0.7-0.1-1c-0.5-3-0.9-5.9-1.4-8.9
				c-1.4-9.3-2.8-18.6-4.4-28c-0.9-5.4,0.6-9.8,5.1-13.1c0.7-0.5,1.3-1.1,1.8-1.7c7.7-8.5,15.3-17,23-25.5c0.5-0.6,1.1-1.2,1.8-2
				l-2.7-0.5c-12.6-2.3-25.2-4.6-37.7-7c-4.8-0.7-8.8-4.2-10-8.9c-0.3-1-0.7-1.9-1.1-2.8c-4.6-9.1-9.2-18.1-13.8-27.2
				C241.4,178.9,240.2,176.5,238.9,173.9L238.9,173.9z"/>
			<g>
				<linearGradient id="SVGID_2_" gradientUnits="userSpaceOnUse" x1="39.7845" y1="286.6698" x2="108.8332" y2="355.7185">
					<stop  offset="0" style="stop-color:#66A25D"/>
					<stop  offset="1" style="stop-color:#4B738E"/>
				</linearGradient>
				<path class="st1" d="M140.2,295c-3-0.1-6,0-9,0c-11,0-21.9,0-32.9-0.1c-4.4-0.2-8.7,1.9-11.2,5.5c-5.8,7.9-11.7,15.8-17.5,23.6
					c-0.4,0.4-0.9,0.7-1.5,0.7c-4.8-0.1-9.7-0.2-14.5-0.3c-3.6-0.1-7.3-0.2-10.9-0.1c-0.8,0.1-1.6-0.2-2-0.9
					c-4.4-6.6-10.6-10.1-18.5-10.1c-12,0-21.8,9.7-21.8,21.8l-0.3,0.1c0.6,2.6,0.8,5.2,1.8,7.7c3.1,8,8.9,12.8,17.4,14
					s15.4-1.9,20.6-8.7c0.3-0.6,1.1-0.9,1.8-0.7c0.9,0.2,1.7,0.3,2.6,0.3l30,0.8c4.2,0.2,8.1-1.7,10.5-5.2
					c5.9-8,11.8-15.9,17.7-23.9c0.4-0.6,1.1-1,1.8-0.9c9.8,0,19.7,0,29.5,0c1.2,0,2.4,0.2,3.5,0.5c6,1.6,12.1-1.7,14.2-7.5
					c0.5-1.4,0.8-2.8,0.8-4.3C152.3,300.5,146.9,295,140.2,295z M22.6,342.8c-4.4,0.1-8-3.3-8.1-7.7c0-0.1,0-0.1,0-0.2
					c0.1-4.3,3.7-7.7,8-7.6c0,0,0,0,0,0c4.3,0,7.8,3.6,7.8,7.9C30,339.3,26.7,342.7,22.6,342.8z"/>
				<linearGradient id="SVGID_3_" gradientUnits="userSpaceOnUse" x1="357.1325" y1="272.4205" x2="454.0997" y2="369.3877">
					<stop  offset="0" style="stop-color:#66A25D"/>
					<stop  offset="1" style="stop-color:#4B738E"/>
				</linearGradient>
				<path class="st2" d="M470.5,317.2c-9.8-7.1-23.4-4.9-30.5,4.9c-1,1.4-1.9,2.5-3.8,1.8c-0.4-0.1-0.9-0.1-1.3,0
					c-7.6,0.2-15.1,0.4-22.7,0.6c-0.9,0.1-1.7-0.3-2.2-1c-5.8-7.9-11.7-15.8-17.6-23.7c-2.3-3.3-6.1-5.2-10.1-5.1c-7,0-14,0-21,0
					l0,0c-5.6,0-11.3,0-17,0c-2.2-0.1-4.3,0-6.5,0.2c-6.9,0.9-11.3,7.7-9.8,14.7c0.1,0.3,0.1,0.6,0.2,0.9c1.8,6.3,8.3,9.9,14.6,8.1
					c1-0.3,2-0.4,3.1-0.4c9.9,0,19.8,0,29.8,0c0.7-0.1,1.4,0.3,1.8,0.9c5.9,8,11.8,15.9,17.7,23.9c2.3,3.4,6.2,5.4,10.4,5.2
					c7.8-0.2,15.7-0.4,23.5-0.6c3.1-0.1,6.2-0.2,9.3-0.5c0.6-0.1,1.3,0.1,1.7,0.7c5,6.6,11.7,9.6,20,8.8c6.1-0.7,11.7-3.9,15.3-8.9
					C482.5,337.9,480.3,324.3,470.5,317.2z M457.7,342.8c-4.4,0-7.9-3.5-7.9-7.9c0,0,0-0.1,0-0.1c0.1-4.3,3.6-7.8,7.9-7.7
					c0,0,0,0,0,0c4.3,0,7.8,3.5,7.8,7.9C465.6,339.3,462.1,342.8,457.7,342.8z"/>
				<linearGradient id="SVGID_4_" gradientUnits="userSpaceOnUse" x1="371.3975" y1="113.7286" x2="439.7975" y2="182.1286">
					<stop  offset="0" style="stop-color:#66A25D"/>
					<stop  offset="1" style="stop-color:#4B738E"/>
				</linearGradient>
				<path class="st3" d="M340.2,174.8c7,0.1,14.1,0,21.1,0c7,0,14.1,0,21.1,0c4.1,0.1,7.9-1.9,10.2-5.2c5.8-7.9,11.7-15.8,17.6-23.7
					c0.4-0.6,1.1-0.9,1.8-0.9c5.7,0.2,11.4,0.3,17.1,0.4c3,0,6,0.1,9-0.1c0.7-0.1,1.4,0.1,1.8,0.7c5.1,6.8,11.9,9.9,20.4,9
					c7.7-0.9,14.4-5.9,17.5-13c4.8-11.1-0.3-24-11.4-28.8c-9-3.9-19.5-1.3-25.6,6.4c-1.1,1.7-3,2.7-5.1,2.5
					c-9.9-0.5-19.9-0.6-29.9-0.9c-4.2-0.2-8.2,1.7-10.6,5.2c-5.9,7.9-11.8,15.9-17.7,23.9c-0.4,0.6-1.1,0.9-1.8,0.9
					c-10,0-19.9,0-29.9,0c-0.9,0-1.8-0.1-2.7-0.4c-1.8-0.5-3.7-0.6-5.6-0.3c-6.5,1.2-10.8,7.4-9.6,13.9
					C329,170.7,333.7,174.7,340.2,174.8z M449.8,133.2c0.1-4.3,3.6-7.8,7.9-7.7c0,0,0,0,0,0c4.3,0,7.8,3.5,7.8,7.9
					c0,4.4-3.5,7.9-7.9,7.9c-4.4,0-7.9-3.5-7.9-7.9C449.8,133.3,449.8,133.2,449.8,133.2z"/>
				<linearGradient id="SVGID_5_" gradientUnits="userSpaceOnUse" x1="25.5391" y1="99.313" x2="123.1976" y2="196.9715">
					<stop  offset="0" style="stop-color:#66A25D"/>
					<stop  offset="1" style="stop-color:#4B738E"/>
				</linearGradient>
				<path class="st4" d="M24.9,155.2c6-0.6,11.5-3.8,15-8.8c0.4-0.8,1.3-1.1,2.2-0.8c1,0.2,2,0.3,3,0.2c7.6-0.2,15.1-0.4,22.7-0.6
					c0.9-0.1,1.7,0.3,2.1,1.1c5.8,7.9,11.7,15.7,17.5,23.6c2.3,3.3,6.1,5.3,10.2,5.2h21l0,0c4.4,0,8.8,0,13.2,0
					c3.4,0.1,6.8,0,10.2-0.2c7-0.8,11.5-7.5,10-14.6c-0.1-0.4-0.2-0.7-0.2-1c-1.8-6.2-8.3-9.9-14.6-8.1c-0.8,0.2-1.7,0.4-2.6,0.4
					c-10.1,0-20.2,0-30.4,0c-0.6,0-1.2-0.3-1.6-0.8c-5.9-7.9-11.8-15.9-17.7-23.9c-2.4-3.6-6.5-5.6-10.8-5.4
					c-5.9,0.2-11.7,0.3-17.6,0.5c-4.4,0.1-9,0.1-13.4,0.4c-1.2,0.2-2.4-0.4-3-1.5c-4.7-6.5-12.5-10-20.5-9
					c-12,1.5-20.5,12.4-19,24.4S13,156.7,24.9,155.2z M14.4,133.4c0.1-4.3,3.6-7.8,7.9-7.7c0,0,0.1,0,0.1,0c4.4,0.1,7.8,3.7,7.7,8
					c-0.1,4.4-3.7,7.8-8,7.7C17.8,141.4,14.4,137.8,14.4,133.4C14.4,133.5,14.4,133.5,14.4,133.4z"/>
				<linearGradient id="SVGID_6_" gradientUnits="userSpaceOnUse" x1="367.6547" y1="207.21" x2="432.9498" y2="272.5051">
					<stop  offset="0" style="stop-color:#66A25D"/>
					<stop  offset="1" style="stop-color:#4B738E"/>
				</linearGradient>
				<path class="st5" d="M417.6,226.3c-0.9,1.4-2.5,2.2-4.2,2c-10.1-0.1-20.2-0.1-30.2-0.1c-10.3,0-20.6,0-30.9,0.1
					c-1,0-2.1,0.1-3.1,0.2c-4.8,0.9-8.6,4.6-9.5,9.5c-1.1,6.4,3.1,12.4,9.5,13.5c1.2,0.2,2.4,0.3,3.6,0.3c15.1,0,30.2,0,45.2,0
					c5.8,0,11.5,0,17.3-0.1c0.7-0.1,1.5,0.2,1.9,0.8c5.5,7.2,12.8,10.1,21.8,8.6c5.2-1,9.9-3.9,13.2-8.1c7.4-9.5,5.6-23.3-3.9-30.6
					C438.7,215,425,216.8,417.6,226.3z M434.9,247.5c-4.3,0-7.9-3.5-7.9-7.8c0,0,0-0.1,0-0.1c0.1-4.3,3.6-7.8,7.9-7.7
					c0.2,0,0.4,0,0.6,0c4.3,0.2,7.7,3.8,7.6,8.1C442.9,244.2,439.2,247.6,434.9,247.5z"/>
				<linearGradient id="SVGID_7_" gradientUnits="userSpaceOnUse" x1="46.8386" y1="207.2604" x2="112.4968" y2="272.9186">
					<stop  offset="0" style="stop-color:#66A25D"/>
					<stop  offset="1" style="stop-color:#4B738E"/>
				</linearGradient>
				<path class="st6" d="M127.2,228.5H91.6c-8.8,0-17.6,0-26.4,0.1c-0.8,0.1-1.6-0.2-2-0.9c-5.2-7.2-12.2-10.5-21.1-9.4
					c-7.4,1-13.7,5.7-16.9,12.5c-5.1,11-0.3,24,10.7,29c8.7,4.1,19.1,1.9,25.5-5.4c1.2-1.7,3.3-2.6,5.3-2.4
					c10.1,0.2,20.2,0.1,30.2,0.1c10.2,0,20.3,0,30.5,0c1.1,0,2.2-0.1,3.2-0.2c4.8-0.9,8.6-4.6,9.5-9.5c1.1-6.4-3.1-12.4-9.5-13.5
					C129.5,228.6,128.4,228.5,127.2,228.5z M53,240.4c-0.2,4.4-3.9,7.7-8.2,7.6c-4.4-0.2-7.7-3.9-7.6-8.2c0,0,0,0,0-0.1
					c0.1-4.3,3.6-7.8,7.9-7.7v0c0,0,0,0,0,0c4.3,0,7.8,3.5,7.8,7.8C53,240.1,53,240.2,53,240.4z"/>
			</g>
		</g>
	</g>
</g>
<g id="Capa_2">
	<linearGradient id="SVGID_8_" gradientUnits="userSpaceOnUse" x1="93.298" y1="33.7613" x2="141.9066" y2="82.3699">
		<stop  offset="0" style="stop-color:#467ABD"/>
		<stop  offset="1" style="stop-color:#504F95"/>
	</linearGradient>
	<path class="st7" d="M107.4,56.2v1.3c0,12,0.1,23.9,0,35.9c0.1,3.6-1.1,7.1-3.6,9.8c-4.5,4.7-11.9,4.9-16.6,0.4
		c-2.4-2.3-3.7-5.5-3.6-8.9c0.1-12.6,0.1-25.3,0.2-37.9c0-2.4,0-4.9,0.2-7.3c0.8-10,8.3-16.9,18.4-16.9c18.6,0,37.2,0,55.8,0
		c2.3-0.1,4.5,0,6.8,0.2c6.4,0.9,10.8,6.8,10,13.2c-0.7,5.2-4.8,9.3-10,10c-1.1,0.1-2.3,0.2-3.5,0.2h-53
		C108.1,56.1,107.8,56.2,107.4,56.2z"/>
	<linearGradient id="SVGID_9_" gradientUnits="userSpaceOnUse" x1="325.2656" y1="19.9704" x2="401.127" y2="95.8319">
		<stop  offset="0" style="stop-color:#467ABD"/>
		<stop  offset="1" style="stop-color:#504F95"/>
	</linearGradient>
	<path class="st8" d="M373.5,56.1h-1.6c-17.1,0-34.2,0-51.4,0c-1.8,0-3.6-0.2-5.4-0.6c-4.5-0.8-8.1-4.3-9-8.8
		c-1.1-4.8,0.5-8.7,4.2-11.9c2.1-1.7,4.8-2.6,7.6-2.4c7.1,0,14.2,0.1,21.4,0.2c12.9,0,25.8,0,38.6,0c5.4,0,10.2,1.6,14,5.5
		s5,8.5,5.1,13.7c0,12.8,0,25.6,0,38.4c0,1.3,0.1,2.7,0.2,4.1c0.5,6.7-5.4,12.4-11.9,12.2c-5-0.2-9.3-3.4-10.9-8.1
		c-0.7-2-1-4.2-1-6.3c0-11.5,0-23,0-34.6L373.5,56.1z"/>
	<linearGradient id="SVGID_10_" gradientUnits="userSpaceOnUse" x1="338.6726" y1="397.5278" x2="387.4557" y2="446.3109">
		<stop  offset="0" style="stop-color:#467ABD"/>
		<stop  offset="1" style="stop-color:#504F95"/>
	</linearGradient>
	<path class="st9" d="M373.5,423.8v-7.1c0-10.4-0.1-20.9,0-31.3c0.1-5.7,4.1-10.5,9.7-11.6c5.6-1,11.1,2.1,13.1,7.4
		c0.5,1.4,0.8,2.8,0.8,4.3c0,14.1,0,28.2-0.1,42.4c0,5.1-1.2,9.8-4.8,13.7c-3.4,3.7-8.2,5.8-13.3,5.8c-10.3,0.1-20.6,0.1-31,0.1
		c-10,0-20,0.3-30-0.1c-5.5-0.2-10.5-3.3-11.9-9.5c-1.2-5.5,1.6-11,6.8-13.2c1.7-0.6,3.4-1,5.2-0.9c5.8,0,11.7,0.2,17.5,0.2
		c12,0,24.1,0,36.1,0L373.5,423.8z"/>
	<linearGradient id="SVGID_11_" gradientUnits="userSpaceOnUse" x1="80.1943" y1="384.4416" x2="155.5891" y2="459.8364">
		<stop  offset="0" style="stop-color:#467ABD"/>
		<stop  offset="1" style="stop-color:#504F95"/>
	</linearGradient>
	<path class="st10" d="M107.5,423.8h52.7c1.6-0.1,3.2,0,4.8,0.1c6.4,0.9,10.9,6.7,10,13.1c-0.7,5.2-4.8,9.3-9.9,10
		c-1.4,0.2-2.8,0.3-4.3,0.3c-18.4,0-36.8,0-55.2,0c-2.2,0-4.4-0.1-6.6-0.4c-8.3-1.1-14.7-8-15-16.4c-0.3-5.2-0.2-10.4-0.2-15.6
		c0-9.6,0.1-19.2-0.1-28.8c-0.1-5.9,4.1-11.1,9.9-12.2c5.9-0.9,11.1,2.4,13.2,8.3c0.4,1.3,0.6,2.7,0.6,4l-0.1,36.6
		C107.4,423.1,107.4,423.4,107.5,423.8z"/>
	<linearGradient id="SVGID_12_" gradientUnits="userSpaceOnUse" x1="208.8775" y1="406.3853" x2="267.415" y2="464.9229">
		<stop  offset="0" style="stop-color:#467ABD"/>
		<stop  offset="1" style="stop-color:#504F95"/>
	</linearGradient>
	<path class="st11" d="M237.8,447.3h-37.4c-1.2,0-2.5,0.1-3.7,0.1c-6.5,0.3-12-4.8-12.2-11.3c-0.2-5.4,3.2-10.2,8.3-11.7
		c3.1-1.1,6.3-0.6,9.4-0.6c26.1-0.1,52.1-0.1,78.2,0c6.5,0.1,11.7,5.5,11.5,12c-0.1,5.1-3.4,9.5-8.3,11c-1.1,0.4-2.3,0.6-3.5,0.6
		C266,447.4,251.9,447.4,237.8,447.3L237.8,447.3z"/>
	<linearGradient id="SVGID_13_" gradientUnits="userSpaceOnUse" x1="209.9523" y1="16.2173" x2="266.5359" y2="72.801">
		<stop  offset="0" style="stop-color:#467ABD"/>
		<stop  offset="1" style="stop-color:#504F95"/>
	</linearGradient>
	<path class="st12" d="M236.9,32.6c12.9,0,25.8,0,38.6,0c1.8,0,3.5,0.2,5.2,0.6c4.8,1.1,8.4,5,9,9.9c0.6,4.9-1.9,9.6-6.2,11.9
		c-1.8,0.9-3.7,1.4-5.7,1.3c-8.2-0.1-16.5-0.2-24.7-0.2c-17,0-34.1,0-51.1,0c-1.6,0-3.2,0-4.8,0c-6.4-0.5-11.2-6.2-10.7-12.6
		c0.5-5.9,5.3-10.5,11.1-10.7c5.7-0.2,11.4-0.1,17.1-0.1C222.3,32.6,229.6,32.6,236.9,32.6L236.9,32.6z"/>
</g>
</svg>
