<?xml version="1.0" encoding="utf-8"?>
<!-- Generator: Adobe Illustrator 23.0.1, SVG Export Plug-In . SVG Version: 6.00 Build 0)  -->
<svg version="1.1" id="Capa_1" xmlns="http://www.w3.org/2000/svg" xmlns:xlink="http://www.w3.org/1999/xlink" x="0px" y="0px"
	 viewBox="0 0 480 480" style="enable-background:new 0 0 480 480;" xml:space="preserve">
<style type="text/css">
	.st0{fill:url(#SVGID_1_);}
	.st1{fill:url(#SVGID_2_);}
	.st2{fill:url(#SVGID_3_);}
	.st3{fill:url(#SVGID_4_);}
	.st4{fill:url(#SVGID_5_);}
	.st5{fill:url(#SVGID_6_);}
	.st6{fill:url(#SVGID_7_);}
</style>
<g>
	<g id="Capa_1-2">
		<linearGradient id="SVGID_1_" gradientUnits="userSpaceOnUse" x1="101.187" y1="199.185" x2="378.7977" y2="476.7957">
			<stop  offset="0" style="stop-color:#D85949"/>
			<stop  offset="1" style="stop-color:#B93775"/>
		</linearGradient>
		<path class="st0" d="M366.4,232h1.5c12.1,0,24.2-0.1,36.2-0.1c4.5,0,8.7,1.1,12,4.5c1,1,1.6,2.3,1.5,3.7
			c-0.1,58.5-0.1,117-0.1,175.4c0,5.4,0,10.9,0,16.3c0,8.3-5.5,13.7-13.9,13.7c-7.7,0-15.4-0.1-23.1,0.1
			c-23.5,0.6-46.9,3.2-69.9,7.7c-19.8,3.9-39.3,9.7-58.1,17.2c-1.2,0.5-2.2,1.2-3.2,2c-5.6,5-15.4,4.6-20.5-0.9
			c-0.7-0.7-1.5-1.2-2.3-1.6c-19.8-7.8-40.3-13.7-61.2-17.5c-19-3.6-38.3-5.8-57.6-6.6c-8.6-0.4-17.3-0.4-25.9-0.6
			c-1.5,0-3,0-4.4,0.1c-5.4,0.2-10-1.5-13.1-6.3c-1.2-1.9-1.7-4.2-1.6-6.4c0-16.5,0-33,0-49.4V282.7c0-10.5,0-21,0-31.6
			c0-3.7,0-7.4-0.1-11c-0.1-1.3,0.4-2.6,1.4-3.5c2.6-2.8,6.3-4.5,10.1-4.5c4.8-0.2,9.6-0.1,14.4-0.1c9.2,0,18.4,0,27.6-0.2h-3.3
			v-0.2h3.3c0-0.5,0.1-0.8,0.1-1.2c0-6.9,0-13.8,0-20.6c0-1.2-0.2-2.3-0.2-3.5c-0.4-6.2,3.9-12,10.5-12.4c3.5-0.2,7-0.1,10.4,0.3
			c22.3,1.5,44.3,6.5,65.1,14.8c11.3,4.6,22.2,10.3,32.5,16.9c2.1,1.3,4.1,2.6,6.1,4c0.4,0.3,1,0.3,1.4-0.1
			c27.3-18.8,58.9-30.6,91.8-34.4c6.5-0.8,13-1.1,19.5-1.6c3.4-0.4,6.9,0.7,9.5,3c2.5,2.2,3.9,5.3,3.8,8.6c0,4.6-0.2,9.1-0.2,13.7
			C366.1,223.3,366.3,227.6,366.4,232z M115.9,255.2c-0.2,0-0.3-0.1-0.5-0.1c-8.2,0.1-16.5,0.3-24.7,0.4c-0.9,0-0.8,0.5-0.8,1.1
			v72.1c0,20.8,0,41.7,0,62.5c0,9.8,0,19.6,0,29.4c0,1,0.2,1.4,1.3,1.4c11.1,0.5,22.1,0.7,33.2,1.5c21.2,1.5,42.3,4.7,63,9.6
			c17.6,4.1,34.9,9.5,51.7,16.1c0.5,0.2,1.2,0.2,1.7,0c11.1-4.4,22.3-8.2,33.8-11.5c19.8-5.6,39.9-9.7,60.3-12.2
			c17.7-2.2,35.6-3.4,53.5-3.6c1.7,0,1.7,0,1.7-1.7c0-7.5,0-14.9,0-22.4c0-20.7,0-41.5,0-62.3c0-21.5,0-43,0-64.4
			c0-4.8,0-9.7,0-14.5c0-0.8-0.3-1.1-1.1-1.1c-1.6,0-3.2-0.1-4.8-0.1c-5.6,0-11.3,0.1-16.9,0.1c-0.4,0-0.8,0-1.3,0.1v32.2
			c0,31.8,0,63.7,0,95.5c0,1.5-0.1,3-0.5,4.4c-1.3,4.9-5.7,8.5-10.8,8.7c-7.2,0.6-14.4,0.9-21.5,1.9c-25.3,3.2-49.6,11.9-71.2,25.4
			c-4.2,2.6-8.6,5-11.8,9c-4.8,5.9-12.8,6-18.1,0.5c-1.1-1.2-2-2.7-3.3-3.6c-18.9-13.4-40.4-23-63-28.2c-12.5-2.8-25.2-4.5-38-5
			c-1.7,0-3.4-0.4-5-1.1c-4.9-2.3-7-6.3-7-11.7c0-41.5,0-83,0-124.6L115.9,255.2z M139.4,218v82c0,24.1,0,48.2,0,72.3
			c0,1,0.3,1.4,1.3,1.4c2.8,0.2,5.6,0.5,8.5,0.9c13.8,1.7,27.4,4.7,40.6,9.1c13.2,4.4,25.9,10.1,37.9,17.1c0.3,0.2,0.6,0.3,1,0.5
			v-56.2c0-31.1,0-62.1,0-93.2c0.1-0.9-0.4-1.7-1.1-2.1c-9.8-6.8-20.2-12.6-31.2-17.4c-15.8-6.8-32.4-11.3-49.5-13.5
			C144.5,218.6,142.1,218.3,139.4,218z M342.5,218.1c-0.4,0-0.6,0-0.8,0c-2.1,0.2-4.1,0.4-6.2,0.7c-29,3.5-56.6,14-80.6,30.5
			c-1.2,0.7-1.8,2-1.7,3.3c0,49.1,0,98.2,0,147.3c0,0.4,0,0.8,0.1,1.4c0.4-0.2,0.6-0.3,0.8-0.4c8.3-4.8,16.9-9,25.7-12.6
			c19.5-7.9,40.1-12.8,61-14.5c1.8-0.2,1.7,0.3,1.7-1.9L342.5,218.1L342.5,218.1z"/>
		<linearGradient id="SVGID_2_" gradientUnits="userSpaceOnUse" x1="90.9925" y1="80.0119" x2="172.3089" y2="161.3284">
			<stop  offset="0" style="stop-color:#F0E33C"/>
			<stop  offset="1" style="stop-color:#A2C455"/>
		</linearGradient>
		<path class="st1" d="M129.6,83.7c0,4.6,0,9.3,0,13.9c0,0.7,0.3,1.5,0.8,2c7.1,7.1,14.1,14.3,21.3,21.3c3.5,3.4,5.4,8,5.4,12.8
			c0.2,12.5,0.1,25,0,37.5c0,5-2.3,8.9-6.9,11c-4.1,2-9,1.3-12.4-1.7c-2.8-2.2-4.3-5.6-4.2-9.2c0-6.8,0-13.6,0-20.4
			c0-4.6,0-9.2,0-13.8c0-0.7-0.3-1.3-0.7-1.8c-6.7-6.8-13.4-13.5-20.1-20.2c-0.4-0.4-0.8-0.7-1.2-1c-3.5-2.2-5.5-6-5.5-10.1
			c-0.1-6.1,0-12.2,0-18.3c0-4.9,0-9.8,0-14.8c0-3.4,0.7-6.6,3.2-9.2c3-3.4,7.7-4.7,12-3.3c4.4,1.2,7.6,4.8,8.1,9.3
			c0.2,1.7,0.3,3.3,0.3,5C129.6,76.5,129.6,80.1,129.6,83.7z"/>
		<linearGradient id="SVGID_3_" gradientUnits="userSpaceOnUse" x1="326.6474" y1="94.0697" x2="380.2815" y2="147.7038">
			<stop  offset="0" style="stop-color:#F0E33C"/>
			<stop  offset="1" style="stop-color:#A2C455"/>
		</linearGradient>
		<path class="st2" d="M327.9,152.6c0-5.9-0.1-11.8,0-17.6c-0.1-5.4,2-10.6,5.9-14.3c7-6.8,13.9-13.8,20.8-20.7
			c0.6-0.6,1-1.4,0.9-2.2c0-8.6,0-17.1,0-25.7c0-1.2,0-2.4,0.2-3.6c0.7-5.8,5.7-10.2,11.5-10.2c5.8-0.1,10.8,4.2,11.6,10
			c0.3,3.5,0.4,7.1,0.2,10.7c0,8,0,16,0,24c0,4.9-1.6,8.9-5.8,11.7c-0.8,0.6-1.6,1.3-2.3,2.1c-6.2,6.2-12.4,12.4-18.7,18.6
			c-0.6,0.6-1,1.5-0.9,2.3c0,11,0,22.1,0,33.1c0,4-1.2,7.5-4.4,10.1c-5,4.1-12.4,3.3-16.4-1.7c-1.3-1.6-2.1-3.5-2.5-5.5
			c-0.2-1.2-0.3-2.5-0.2-3.7C327.8,164.2,327.9,158.4,327.9,152.6z"/>
		<linearGradient id="SVGID_4_" gradientUnits="userSpaceOnUse" x1="213.038" y1="137.5351" x2="267.8681" y2="192.3651">
			<stop  offset="0" style="stop-color:#F0E33C"/>
			<stop  offset="1" style="stop-color:#A2C455"/>
		</linearGradient>
		<path class="st3" d="M252.3,165v33.7c0,1.8,0.1,3.7,0,5.5c-0.2,2.9-1.6,5.6-3.8,7.5c-3.2,2.9-7.6,3.8-11.7,2.4
			c-5.3-1.6-8.4-6.3-8.3-12.1c0.1-5.6,0.2-11.1,0.2-16.7c0-19.3,0-38.6,0-57.8c0-6.9,4.6-12.1,11-12.6c7-0.5,12.5,4.9,12.6,12.3
			c0.1,5.8,0,11.7,0,17.5L252.3,165z"/>
		<linearGradient id="SVGID_5_" gradientUnits="userSpaceOnUse" x1="103.3137" y1="15.153" x2="132.5908" y2="44.4301">
			<stop  offset="0" style="stop-color:#F0E33C"/>
			<stop  offset="1" style="stop-color:#A2C455"/>
		</linearGradient>
		<path class="st4" d="M117.9,50.5c-11.4,0-20.7-9.3-20.6-20.8S106.6,9.1,118,9.1c11.4,0,20.7,9.3,20.6,20.8c0,0,0,0.1,0,0.1
			C138.6,41.4,129.3,50.5,117.9,50.5z M111.3,29.8c0,3.7,2.9,6.7,6.6,6.7c3.7,0,6.7-2.9,6.7-6.6s-2.9-6.7-6.6-6.7c0,0,0,0-0.1,0
			C114.3,23.2,111.3,26.1,111.3,29.8z"/>
		<linearGradient id="SVGID_6_" gradientUnits="userSpaceOnUse" x1="352.4233" y1="15.4229" x2="381.6802" y2="44.6798">
			<stop  offset="0" style="stop-color:#F0E33C"/>
			<stop  offset="1" style="stop-color:#A2C455"/>
		</linearGradient>
		<path class="st5" d="M367.1,50.8c-11.4,0-20.7-9.3-20.7-20.7c0-11.4,9.3-20.7,20.7-20.7c11.4,0,20.7,9.3,20.7,20.7
			c0,0,0,0.1,0,0.1C387.7,41.6,378.4,50.7,367.1,50.8z M360.4,30.1c0,3.7,3,6.6,6.7,6.6c3.7,0,6.6-3,6.6-6.7c0-3.6-3-6.6-6.6-6.6
			C363.4,23.4,360.5,26.4,360.4,30.1C360.4,30.1,360.4,30.1,360.4,30.1L360.4,30.1z"/>
		<linearGradient id="SVGID_7_" gradientUnits="userSpaceOnUse" x1="226.0647" y1="73.4112" x2="255.4641" y2="102.8106">
			<stop  offset="0" style="stop-color:#F0E33C"/>
			<stop  offset="1" style="stop-color:#A2C455"/>
		</linearGradient>
		<path class="st6" d="M240.5,108.8c-11.4-0.1-20.5-9.3-20.6-20.7c0-11.3,9.3-20.7,20.5-20.7c11.4-0.3,20.9,8.8,21.2,20.2
			s-8.8,20.9-20.2,21.2C241.1,108.8,240.8,108.8,240.5,108.8z M247.3,88.1c0-3.7-2.9-6.7-6.6-6.7c-3.7,0-6.7,2.9-6.7,6.6
			c0,3.7,2.9,6.7,6.6,6.7c0,0,0,0,0.1,0C244.3,94.8,247.3,91.8,247.3,88.1z"/>
	</g>
</g>
</svg>
