<?xml version="1.0" encoding="utf-8"?>
<!-- Generator: Adobe Illustrator 26.5.0, SVG Export Plug-In . SVG Version: 6.00 Build 0)  -->
<svg version="1.1" id="Capa_3" xmlns="http://www.w3.org/2000/svg" xmlns:xlink="http://www.w3.org/1999/xlink" x="0px" y="0px"
	 viewBox="0 0 480 384" style="enable-background:new 0 0 480 384;" xml:space="preserve">
<style type="text/css">
	.st0{fill:url(#SVGID_1_);}
	.st1{fill:url(#SVGID_00000146501603778546585870000008279881516870667169_);}
	.st2{fill:url(#SVGID_00000181084883232769871230000008481503567597801105_);}
	.st3{fill:url(#SVGID_00000106844289390558500460000003878800039526917300_);}
</style>
<linearGradient id="SVGID_1_" gradientUnits="userSpaceOnUse" x1="155.7292" y1="76.2436" x2="267.213" y2="205.5339">
	<stop  offset="1.438503e-07" style="stop-color:#C8544A"/>
	<stop  offset="1" style="stop-color:#875882"/>
</linearGradient>
<path class="st0" d="M243.8,348.2c5.2-6,11.9-10.5,15.8-17.8c1.4,1.2,2.6,2.3,4,3.3c4.3,3.2,9,3.7,13.8,1.3c7.6-3.9,9.4-14,3.4-20.1
	c-2.5-2.6-5.4-5-8.3-7.3c-5.8-4.4-6.9-12.1-2.5-17.6c4.5-5.4,12.7-6.1,18-1.4c5.9,5.2,11.8,10.5,17.7,15.8c2.3,2.1,5,3.5,8.1,3.7
	c5.6,0.4,10.5-2.6,12.7-7.6c2.2-5.1,1-10.8-3.2-14.7c-3.8-3.5-7.8-6.9-11.6-10.4c-2.1-1.9-4.4-3.8-6.5-5.7
	c-3.6-3.5-4.9-7.7-3.4-12.5c1.5-4.8,4.9-7.6,9.8-8.4c3.7-0.6,7,0.5,9.8,3c5.9,5.2,11.7,10.4,17.6,15.6c4,3.5,8.5,4.4,13.4,2.5
	c8.7-3.4,10.9-14.6,4.2-21.1c-1.8-1.8-3.8-3.4-5.7-5.1c-3.9-3.4-7.8-6.8-11.8-10.2c-5.2-4.5-6-12-1.7-16.9c4.7-5.5,12-6,17.5-1.3
	c2.5,2.2,5,4.5,7.6,6.6c4.7,3.9,11.5,3.9,16.1,0.1c4.8-3.9,6.2-10.4,3.3-15.8c-0.6-1.1-1.4-2.1-2.4-3c-13.2-12-26.4-24-39.5-36
	c-4.4-4-8.8-7.9-13.1-12c-1-0.9-2-1.4-3.4-1.5c-11.1-0.8-22.2-1.7-33.2-2.5c-2.5-0.2-5.1-0.4-7.6-0.8c-6.3-1.2-10.3-6.6-9.7-13.1
	c0.6-6,5.8-10.7,12-10.5c5.3,0.2,10.5,0.7,15.8,1.1c9.3,0.7,18.6,1.5,28,2.2c4.5,0.3,8.3,1.8,11.6,4.9
	c15.7,14.5,31.5,28.8,47.4,43.1c2.4,2.2,5,4.3,7.4,6.5c20.2,18.5,14.6,51-10.7,61.6c-0.4,0.2-0.9,0.4-1.5,0.7c3,11,2,21.5-4.3,31.2
	c-6.3,9.7-15.4,15.1-27,16.7c-0.3,11.6-4.5,21.4-13.4,28.9c-9,7.5-19.4,9.8-30.8,7.9c-4.4,15.2-13.8,25.2-29.5,28.3
	C264.7,362.4,253.4,357.9,243.8,348.2L243.8,348.2z"/>
<linearGradient id="SVGID_00000171687175792420520010000007104962477654058146_" gradientUnits="userSpaceOnUse" x1="112.0649" y1="113.8942" x2="223.5488" y2="243.1845">
	<stop  offset="1.438503e-07" style="stop-color:#C8544A"/>
	<stop  offset="1" style="stop-color:#875882"/>
</linearGradient>
<path style="fill:url(#SVGID_00000171687175792420520010000007104962477654058146_);" d="M147,72c3.1,1.8,6,3.5,9,5.3
	c4.3,2.5,8.6,5,12.8,7.5c1.4,0.8,2.7,1.1,4.3,1c13.4-0.7,26.8-1.4,40.2-2.1c0.4,0,0.9,0,1.8,0c-1.2,1-2.1,1.7-2.9,2.5
	c-4.9,4.6-9.7,9.3-14.5,14c-2.7,2.6-5.4,5.2-8.1,7.9c-0.7,0.7-1.5,1.1-2.5,1.1c-6.1,0.3-12.3,0.6-18.4,0.9c-2.5,0.1-4.8-0.4-6.9-1.6
	c-7.3-4.2-14.6-8.4-21.8-12.5c-1.2-0.7-2.3-1.3-3.6-2.1c-0.5,0.8-1,1.5-1.4,2.2c-6.5,11.1-13.1,22.2-19.6,33.3
	c-4.5,7.6-9,15.3-13.5,22.9c-2.2,3.6-4,7.5-6.6,10.9c-7.4,9.9-17.6,14.7-29.9,15.1c-7.7,0.3-14.7-1.7-21.2-5.7
	c-5.5-3.3-11.2-6.5-16.7-9.9c-17.1-10.2-23.7-30.9-15.5-49c1.7-3.8,4-7.3,6.1-10.9C31.4,80.1,44.8,57.5,58,34.9
	c6.4-10.8,15.6-17.4,28-19.3c8.1-1.3,16-0.1,23.2,3.9c7.1,3.9,14.2,7.8,20.9,12.3c13.7,9.2,19.2,22.4,17.1,38.7
	C147.2,71,147.1,71.3,147,72L147,72z M64.6,154.2c5.2-0.1,9.2-2.2,12.1-6.5c0.6-0.9,1.2-1.9,1.7-2.9c11.3-19.2,22.6-38.4,33.9-57.6
	c3.1-5.2,6.2-10.4,9.2-15.7c4.1-7.2,2.1-15.5-4.7-19.7c-6.1-3.7-12.2-7.3-18.4-10.8c-6.5-3.7-14.7-1.6-18.8,4.6
	c-1,1.5-1.8,3-2.7,4.5c-5.9,10-11.8,20-17.6,30c-8.2,13.9-16.4,27.8-24.6,41.7c-4.2,7.3-2.2,15.6,5,20c5.9,3.6,12,7.1,18,10.6
	C59.8,153.7,62.1,154.2,64.6,154.2L64.6,154.2z"/>
<g id="Capa_1-2">
	<g>
		
			<linearGradient id="SVGID_00000123422303487328171740000009509956125592697246_" gradientUnits="userSpaceOnUse" x1="290.6139" y1="74.2949" x2="354.6139" y2="229.6498">
			<stop  offset="1.385225e-07" style="stop-color:#D4D857"/>
			<stop  offset="1" style="stop-color:#A5B961"/>
		</linearGradient>
		<path style="fill:url(#SVGID_00000123422303487328171740000009509956125592697246_);" d="M344.9,92.1c-2,1.1-4,2.2-6,3.3
			c-5.6,3.2-11.3,6.3-17,9.5c-2.4,1.4-5,2.1-7.8,1.8c-9.2-0.7-18.5-1.3-27.7-2.1c-10-0.8-20.1-1.6-30.1-2.3
			c-5.8-0.5-11.6-0.9-17.4-1.4c-1.4-0.1-2.9-0.1-4.3,0c-2.6,0.2-4.8,1.2-6.6,3.1c-10.1,9.9-20.2,19.8-30.3,29.8
			c-2.6,2.5-5.3,4.9-7.7,7.6c-5.4,6-4,15.3,2.9,19.5c5,3,11.1,2.4,15.5-1.8c4.3-4.1,8.5-8.2,12.8-12.3c5.8-5.6,11.6-11.2,17.4-16.9
			c4.3-4.2,12.4-5.1,17.4,0.3c4.7,5,4.1,12.6-1,17.4c-6,5.6-11.9,11.4-17.8,17.1c-4,3.8-7.9,7.7-11.9,11.5
			c-15.9,15.1-40.5,13.8-54.3-3c-12-14.6-11-36.1,2.5-49.3c9.5-9.4,19.1-18.6,28.7-27.9c2.6-2.6,5.3-5.1,7.9-7.7
			c9.1-8.8,19.9-12.2,32.5-10.4c3.9,0.6,8,0.7,11.9,1c13.6,0.9,27.1,1.8,40.7,2.6c5.2,0.3,10.4,0.7,15.6,1c1,0.1,2.1-0.2,3-0.6
			c6.6-3.6,13.1-7.3,19.7-11c0.3-0.2,0.6-0.4,1-0.7c-0.1-0.9-0.2-1.8-0.2-2.6c-1.5-15.8,4.3-28.4,17.6-37.1c6.8-4.5,14-8.4,21.3-12
			c17.4-8.9,38.6-3.1,49.2,13.4c3.4,5.2,6.2,10.8,9.3,16.2c11.6,20.5,23.1,41.1,34.8,61.6c8.5,14.9,6.5,32.8-4.1,44.9
			c-2.5,2.9-5.4,5.5-8.8,7.4c-6.8,3.9-13.5,8-20.5,11.5c-14.3,7.1-28,5.5-41-3.6c-4-2.9-7.1-6.6-9.6-10.9
			c-5.8-10.1-11.4-20.2-17.1-30.2c-6.5-11.6-13-23.1-19.6-34.7C345.7,93.2,345.4,92.7,344.9,92.1L344.9,92.1z M448,129.1
			c0.1-2.8-0.8-5.3-2.2-7.8c-10-17.7-20-35.3-29.9-53c-4.3-7.6-8.5-15.2-12.8-22.8c-4.1-7.2-12.4-9.5-19.7-5.6
			c-6,3.3-12,6.7-18,10.1c-4.2,2.4-6.6,6.2-7.2,11c-0.4,3.3,0.5,6.3,2.1,9.2c9,15.9,17.9,31.7,26.8,47.6
			c5.3,9.4,10.6,18.8,15.9,28.2c3.9,6.9,12,9.5,18.8,6c6.7-3.4,13.2-7.2,19.6-11.1C445.9,138.4,447.8,134.2,448,129.1L448,129.1z"/>
		
			<linearGradient id="SVGID_00000057118647689560571170000016049355213249032107_" gradientUnits="userSpaceOnUse" x1="121.9186" y1="144.7907" x2="185.9186" y2="300.1455">
			<stop  offset="1.385225e-07" style="stop-color:#D4D857"/>
			<stop  offset="1" style="stop-color:#A5B961"/>
		</linearGradient>
		<path style="fill:url(#SVGID_00000057118647689560571170000016049355213249032107_);" d="M233.7,276.9c5.1,1.1,9.6,2.8,13.8,5.5
			c19.1,12.5,22.2,39.5,6.4,56c-3.3,3.5-6.8,6.8-10.3,10c-19.9,18-51.2,9.9-59.9-15.5c-0.2-0.7-0.5-1.3-0.8-2.2
			c-11.4,2.4-21.9,0.6-31.2-6.4c-9.2-7-14-16.4-14.7-28.2c-11.4-1.2-20.9-6-27.7-15.5c-6.7-9.4-8.2-19.9-5.6-31.3
			c-0.7-0.3-1.3-0.6-1.9-0.9c-15.7-6-25-20.1-24.2-36.8c0.5-9.3,4.2-17.3,10.8-23.9c3.1-3.1,6.2-6.1,9.3-9
			c20.4-19.1,54.4-8.9,60.9,18.3c0.2,0.9,0.4,1.9,0.7,3c10.4-0.5,19.8,2.3,27.6,9.3c7.8,6.9,11.8,15.8,12.3,26.3
			c10.5,1,19.2,5.2,25.9,13.2C232.1,257,234.7,266.4,233.7,276.9L233.7,276.9z M209.9,271.8c-0.2-4.7-2.7-8.7-7.7-10.9
			s-9.8-1.4-13.8,2.4c-7.9,7.5-15.6,15.1-23.4,22.7c-5.1,5-5.1,12.7-0.3,17.9c4.7,5,12.9,5.4,17.9,0.6c7.9-7.5,15.8-15.2,23.6-22.8
			C208.7,279.2,209.9,276.1,209.9,271.8L209.9,271.8z M162.6,224.2c-3.5,0-6.6,1.3-9.1,3.7c-3.8,3.7-7.6,7.3-11.4,11
			c-4,3.8-8,7.6-11.8,11.5c-5.1,5.2-4.9,13.1,0.1,18.1c5,4.9,12.7,5,17.9,0c7.8-7.5,15.5-15,23.2-22.5c3.8-3.7,4.8-9.1,2.8-13.9
			C172.5,227.3,167.9,224.2,162.6,224.2L162.6,224.2z M135.9,205.2c-0.2-4.7-2.6-8.7-7.3-10.9c-4.9-2.3-9.7-1.7-13.9,1.9
			c-3.2,2.8-6.2,5.8-9.1,8.8c-5,5.1-5.1,12.8-0.2,17.9c4.7,5,12.7,5.3,17.9,0.6c3.1-2.8,6-5.7,9-8.6
			C134.7,212.3,135.8,209.3,135.9,205.2L135.9,205.2z M205.9,322.1c0.2,4.5,2.6,8.6,7.4,10.8c4.9,2.3,9.7,1.6,13.9-2
			c3.3-2.9,6.4-6,9.5-9.2c4.6-4.9,4.6-12.5,0-17.4c-4.6-4.9-12.4-5.5-17.5-1.1c-3.5,3-6.8,6.3-10,9.7
			C206.9,315.3,205.9,318.2,205.9,322.1L205.9,322.1z"/>
	</g>
</g>
</svg>
