<?xml version="1.0" encoding="utf-8"?>
<!-- Generator: Adobe Illustrator 23.0.1, SVG Export Plug-In . SVG Version: 6.00 Build 0)  -->
<svg version="1.1" id="Capa_1" xmlns="http://www.w3.org/2000/svg" xmlns:xlink="http://www.w3.org/1999/xlink" x="0px" y="0px"
	 viewBox="0 0 480 480" style="enable-background:new 0 0 480 480;" xml:space="preserve">
<style type="text/css">
	.st0{fill:url(#SVGID_1_);}
	.st1{fill:url(#SVGID_2_);}
	.st2{fill:url(#SVGID_3_);}
	.st3{fill:url(#SVGID_4_);}
</style>
<g>
	<g id="Capa_1-2">
		<linearGradient id="SVGID_1_" gradientUnits="userSpaceOnUse" x1="68.6339" y1="52.202" x2="409.6583" y2="393.2264">
			<stop  offset="1.117318e-02" style="stop-color:#417DD0"/>
			<stop  offset="1" style="stop-color:#524C85"/>
		</linearGradient>
		<path class="st0" d="M274.4,366.3V386c0.7-0.1,1.3-0.1,1.9-0.2c6.7-1.2,11.4,1.2,14.3,7.3c4.8,10.2,9.7,20.4,14.5,30.6
			c0.3,0.9,1.2,1.5,2.1,1.4c13.8,0,27.7,0,41.5,0c7,0,12.3,4.9,12.5,11.5c0.2,6.8-5.2,12.1-12.4,12.1c-8.8,0-17.5,0-26.3,0
			l-100.3-0.1c-31.8,0-63.5,0-95.3,0c-4.4,0-8.1-1.4-10.7-5.1c-2.9-4-3.1-9.3-0.5-13.5c2.6-4.1,7.2-6,12.2-5.4
			c3.9,0.3,7.7,0.4,11.6,0.3c10.1,0,20.2,0,30.2,0.1c1,0.1,2-0.5,2.4-1.4c4.1-8.9,8.3-17.8,12.5-26.8c0.4-1,0.8-2,1.2-3
			c2-5.5,7.6-8.8,13.4-7.9c2.6,0.2,5.1,0.2,7.7,0v-19.7c-0.3,0-0.7-0.1-1-0.1h-65.1c-21.2,0-42.4,0-63.6-0.1
			c-7.7,0.1-15.3-1.6-22.2-4.9c-10.4-5-17.1-13.3-20.6-24.2c-2.2-7-2.6-14.1-2.6-21.4c0-67.7,0-135.4,0-203.1
			c0-7.2,0.7-14.3,3.2-21.1C39.9,78,49.6,69.7,63.5,66c7.3-1.9,14.7-1.9,22.2-1.9c46.5,0,93,0,139.5,0h143c11.2,0,22.3,0,33.5,0
			c8.2,0,16.2,1.1,23.7,4.5c11.4,5.1,18.4,14,21.9,25.8c2.1,7.2,2.3,14.7,2.3,22.1c0,21.4,0,42.9,0,64.3v62.5c0,21.4,0,42.8,0,64.2
			c0,6.7,0,13.5-0.6,20.1c-0.7,8.5-3.9,16.5-9.2,23.1c-6,7.5-14,11.8-23.2,13.9c-6.4,1.5-12.8,1.6-19.3,1.6c-21.5,0-43,0-64.5,0
			L274.4,366.3L274.4,366.3z M240.8,87.7h-46c-35.9,0-71.8,0-107.6,0c-5.1-0.1-10.2,0.1-15.2,0.7c-7.9,0.9-13.5,5-15.4,13.1
			c-0.3,1-0.5,1.9-0.6,2.9c-0.2,5.4-0.6,10.9-0.6,16.3c-0.1,34.2-0.1,68.5,0,102.7v94.4c-0.1,3.8,0.3,7.7,1.3,11.4
			c1.3,6.1,6.1,10.9,12.2,12.3c3.5,0.9,7.2,1.3,10.8,1.3h319.7c4.4,0.2,8.8-0.3,13.1-1.2c6.7-1.7,10.9-6,12.5-12.7
			c0.8-3.7,1.2-7.5,1.2-11.3c0-67.8,0-135.5,0-203.3c0.1-4.3-0.3-8.6-1.2-12.9c-1.6-6.1-5.1-10.3-11.3-12.1c-2-0.7-4-1.1-6.1-1.2
			c-5.3-0.2-10.7-0.3-16.1-0.3C341.2,87.7,291,87.7,240.8,87.7z M197.5,424.9h82.1c-0.2-0.5-0.4-0.8-0.5-1.2
			c-1.9-4-3.9-7.9-5.6-11.9c-0.8-1.9-1.8-2.3-3.8-2.3c-10.7,0.1-21.4,0.1-32,0.2s-21.5,0-32.3,0c-0.6,0-1.2,0.4-1.3,1
			c-2.1,4.4-4.1,8.8-6.2,13.3C197.8,424.2,197.6,424.5,197.5,424.9z M250.7,386.1c0-0.5,0.1-0.9,0.1-1.2c0-4,0-8.1,0-12.1
			c0-0.9-0.3-1.2-1.2-1.2c-4.3,0-8.6,0-12.9,0h-6.1c-0.1,0.2-0.1,0.4-0.1,0.6c0,4.3,0,8.6,0,12.9c0,0.9,0.5,1,1.1,0.9
			c3.3,0,6.6,0,10,0L250.7,386.1z"/>
		<linearGradient id="SVGID_2_" gradientUnits="userSpaceOnUse" x1="125.7037" y1="152.4897" x2="311.4345" y2="338.2204">
			<stop  offset="0" style="stop-color:#FAB603"/>
			<stop  offset="1" style="stop-color:#EC475D"/>
		</linearGradient>
		<path class="st1" d="M289.2,163.3c-0.3,1.2-0.5,2.1-0.8,3.1c-9.7,40-19.5,80-29.3,120c-0.2,0.8,0,1.7,0.5,2.4
			c4.8,7.2,5.3,14.7,1,22.2s-11.2,11.1-19.8,10.3s-14.4-5.4-17.5-13.4c-2.1-5.3-1.8-11.2,0.8-16.2c0.4-0.7,0.4-1.5,0-2.2
			c-18.7-39.9-37.4-79.9-56.2-119.8c-0.1-0.3-0.3-0.6-0.6-1.1l-0.9,2c-16.3,39-32.6,77.9-48.9,116.9c-0.5,1-0.4,2.2,0.2,3.1
			c5.7,9.9,2.2,22.5-7.7,28.2s-22.5,2.2-28.2-7.7c-5.7-9.9-2.2-22.5,7.7-28.2c1.4-0.8,2.8-1.4,4.3-1.8c0.6-0.2,1.1-0.7,1.4-1.3
			c17.7-42.2,35.4-84.5,53-126.7c0.3-0.6,0.3-1.3-0.1-1.9c-5.5-10-1.8-22.6,8.2-28.1c10-5.5,22.6-1.8,28.1,8.2
			c1.8,3.2,2.6,6.8,2.5,10.5c-0.3,2.6-0.8,5.1-1.6,7.6c-0.3,0.8-0.3,1.6,0.1,2.4c12.4,26.4,24.8,52.8,37.1,79.2l16.2,34.6
			c0.2,0.4,0.4,0.8,0.8,1.5c0.5-1.9,0.9-3.5,1.3-5.1c9-36.8,18-73.7,27-110.5c0.2-0.8,0.1-1.6-0.4-2.2c-6.9-9.1-5.2-22,3.9-29
			s22-5.2,29,3.9c2.8,3.7,4.3,8.3,4.2,12.9c0,1.6-0.5,3.2-0.6,4.9c-0.1,0.6,0,1.3,0.4,1.8c11.7,16.5,23.5,33.1,35.2,49.6
			c8.8,12.4,17.7,24.8,26.5,37.3c0.5,0.9,1.5,1.4,2.5,1.3c11.4,0.2,20.5,9.6,20.3,21.1c-0.2,8.8-5.9,16.5-14.3,19.2
			c-7.6,2.4-14.6,0.9-20.4-4.5s-7.7-12-6.1-19.7c0.3-1.1,0.1-2.3-0.6-3.2c-19.1-26.8-38.2-53.6-57.3-80.4
			C289.8,164.1,289.6,163.8,289.2,163.3z M290.5,136.7c0-3.7-2.9-6.7-6.6-6.7c-3.7,0-6.7,2.9-6.7,6.6s2.9,6.7,6.6,6.7c0,0,0,0,0,0
			C287.4,143.3,290.4,140.4,290.5,136.7C290.5,136.7,290.5,136.7,290.5,136.7z M100,294.1c-3.6,0-6.6,2.9-6.6,6.5c0,0,0,0.1,0,0.1
			c0,3.7,3,6.6,6.7,6.6s6.7-3,6.7-6.6l0,0c0-3.6-2.9-6.6-6.5-6.6C100.1,294.1,100,294.1,100,294.1z M173.1,141.3
			c0.1-3.7-2.8-6.7-6.5-6.8c-3.7-0.1-6.7,2.8-6.8,6.5c0,3.7,2.9,6.7,6.6,6.9C170.1,147.9,173.1,144.9,173.1,141.3z M374.7,252.5
			c0-3.7-3-6.7-6.6-6.7s-6.7,3-6.7,6.6c0,0,0,0,0,0c0.2,3.6,3.1,6.5,6.7,6.6C371.8,259.1,374.7,256.1,374.7,252.5L374.7,252.5z
			 M236.6,301.2c-0.2,3.2,2.2,6,5.5,6.2c0.2,0,0.4,0,0.6,0c3.7,0,6.7-2.9,6.7-6.6s-2.9-6.7-6.6-6.7
			C239,294.1,236.6,296.8,236.6,301.2z"/>
		<linearGradient id="SVGID_3_" gradientUnits="userSpaceOnUse" x1="354.4013" y1="136.2905" x2="394.0511" y2="175.9403">
			<stop  offset="0" style="stop-color:#727880"/>
			<stop  offset="1" style="stop-color:#4D4979"/>
		</linearGradient>
		<path class="st2" d="M376,164.3c-8.6,0-17.2,0-25.8,0c-0.9,0-1.8,0.1-2.7,0.2c-4.3,0.9-8.6-1.8-9.6-6.2c-1-4.4,1.6-8.8,5.9-10
			c1.2-0.3,2.5-0.5,3.8-0.4c18.2-0.1,36.3-0.2,54.5-0.4c4.9,0,8.7,3.5,8.7,8.1s-3.7,8.3-8.7,8.3H376V164.3z"/>
		<linearGradient id="SVGID_4_" gradientUnits="userSpaceOnUse" x1="364.8828" y1="110.0482" x2="395.0317" y2="140.1971">
			<stop  offset="0" style="stop-color:#727880"/>
			<stop  offset="1" style="stop-color:#4D4979"/>
		</linearGradient>
		<path class="st3" d="M379.8,133.4c-5.9,0-11.8-0.1-17.6,0c-5,0.1-8.8-3.2-9-8c-0.2-4.6,3.4-8.4,7.9-8.5c0.2,0,0.4,0,0.6,0
			c8.5,0,17,0,25.5,0c3.4,0,6.7,0,10.1,0c1.3,0,2.6,0.2,3.8,0.5c3.7,1.2,6.1,4.9,5.5,8.8c-0.6,4.1-4,7.1-8.1,7.1
			c-4.9,0.1-9.8,0-14.6,0h-4.1L379.8,133.4z"/>
	</g>
</g>
</svg>
