<?xml version="1.0" encoding="utf-8"?>
<!-- Generator: Adobe Illustrator 26.5.0, SVG Export Plug-In . SVG Version: 6.00 Build 0)  -->
<svg version="1.1" id="Capa_3" xmlns="http://www.w3.org/2000/svg" xmlns:xlink="http://www.w3.org/1999/xlink" x="0px" y="0px"
	 viewBox="0 0 414.2 487.8" style="enable-background:new 0 0 414.2 487.8;" xml:space="preserve">
<style type="text/css">
	.st0{fill:url(#SVGID_1_);}
	.st1{fill:url(#SVGID_00000075859130794039752110000003211702809726021803_);}
	.st2{fill:url(#SVGID_00000096019320903058283340000002394515167658604202_);}
	.st3{fill:url(#SVGID_00000057866616062208093730000017472085131888779424_);}
	.st4{fill:url(#SVGID_00000078025631362460796270000009862300170000386460_);}
	.st5{fill:url(#SVGID_00000014612332062006156760000002815346092776178347_);}
	.st6{fill:url(#SVGID_00000059989260765441308580000005647164881103487382_);}
	.st7{fill:url(#SVGID_00000005970608015440885490000007616773532998837912_);}
	.st8{fill:url(#SVGID_00000107571320098146435340000013872131613786503830_);}
	.st9{fill:url(#SVGID_00000176727318187505878460000012577749242015571610_);}
</style>
<linearGradient id="SVGID_1_" gradientUnits="userSpaceOnUse" x1="186.3239" y1="33.6519" x2="432.5174" y2="351.0712">
	<stop  offset="1.385225e-07" style="stop-color:#CE5C55"/>
	<stop  offset="1" style="stop-color:#7D4E8F"/>
</linearGradient>
<path class="st0" d="M291.5,127.1v-24.4c1.9,0.4,3.6,0.6,5.3,1c8.3,2.1,14.9,6.7,20.2,13.4c10.2,13,20.4,26.1,30.6,39.1
	c13,16.6,25.9,33.1,38.9,49.7c6.2,8,5.3,7.2,6.1,16.1c1,11.8,1.9,23.6,2.8,35.4c0.7,8.9,1.4,17.8,2.1,26.8
	c0.8,9.6,1.5,19.3,2.3,28.9c0.7,8.7,1.4,17.4,2,26c0.6,7.9,1.2,15.8,1.8,23.7c0.5,6.3-3.7,11.9-9.9,13c-6,1.1-11.9-2.5-13.7-8.3
	c-0.4-1.2-0.5-2.5-0.6-3.8c-0.9-11.4-1.7-22.8-2.6-34.2c-1.2-15.4-2.4-30.8-3.6-46.1c-0.9-11.4-1.7-22.8-2.6-34.2
	c-0.6-8.5-1.3-17-2-25.6c-0.1-1.4-0.5-2.6-1.4-3.7c-23-29.3-46-58.6-68.9-88C296.4,129.8,294.2,128.1,291.5,127.1L291.5,127.1z"/>
<linearGradient id="SVGID_00000152260672531387070760000016937912125638974382_" gradientUnits="userSpaceOnUse" x1="11.4262" y1="169.3042" x2="257.6198" y2="486.7236">
	<stop  offset="1.385225e-07" style="stop-color:#CE5C55"/>
	<stop  offset="1" style="stop-color:#7D4E8F"/>
</linearGradient>
<path style="fill:url(#SVGID_00000152260672531387070760000016937912125638974382_);" d="M64.9,340.6C41,338.3,23.7,311,37,286.1
	c-20.6-12.6-23.9-40.2-8.6-57.1c-7.3-8.8-10.7-19-8.8-30.5c1.8-11.4,8.1-20,17.9-26c-6.5-13.7-6.3-26.9,2.5-39.4
	c6-8.5,14.4-13.4,25.1-15c0.1,8.3,0,16.3,0,24.4c-5,2.5-8.1,6.4-8.1,12.1c0,5.6,3,9.5,7.9,12v24.8c-0.6,0.1-1.2,0.2-1.8,0.2
	c-2.6,0-5.1-0.1-7.7,0c-7.1,0.2-12.4,5.9-12.4,13c0.1,6.9,5.6,12.4,12.6,12.5c3,0.1,6.1,0,9.2,0v23.8c-0.6,0.1-1.1,0.2-1.7,0.2
	c-2.5,0-5,0-7.4,0c-6.9,0-12.4,5.2-12.8,12.1c-0.4,6.7,4.4,12.6,11.1,13.4c2.7,0.3,5.4,0.2,8.1,0.2c0.9,0,1.7,0,2.7,0v24.9
	c-11.2,4.8-11.4,19.5,0,24.7L64.9,340.6L64.9,340.6z"/>
<linearGradient id="SVGID_00000006683810350255033640000000274901741233242502_" gradientUnits="userSpaceOnUse" x1="170.7154" y1="45.7579" x2="416.909" y2="363.1773">
	<stop  offset="1.385225e-07" style="stop-color:#CE5C55"/>
	<stop  offset="1" style="stop-color:#7D4E8F"/>
</linearGradient>
<path style="fill:url(#SVGID_00000006683810350255033640000000274901741233242502_);" d="M291.6,165.4c0.7,0.8,1.2,1.4,1.7,2
	c8.2,10.5,16.5,21,24.7,31.5c0.9,1.1,1.8,2.2,2.8,3.3c1.7,2,2.8,4.3,3,6.9c0.7,8.4,1.3,16.9,2,25.3c0.4,4.7,0.8,9.4,1,14.1
	c0.2,5.5-3.3,10.2-8.4,11.8c-7.3,2.2-14.8-2.7-15.5-10.3c-0.8-8.4-1.3-16.9-2-25.3c-0.2-2.7-0.3-5.4-0.6-8.1c-0.1-1-0.5-2-1.1-2.8
	c-2.2-3-4.5-5.8-6.7-8.7c-0.5-0.7-1-1.7-1-2.6c-0.1-12.1,0-24.1,0-36.2C291.4,166.2,291.4,166,291.6,165.4L291.6,165.4z"/>
<linearGradient id="SVGID_00000102506829245425775380000012315214604303045252_" gradientUnits="userSpaceOnUse" x1="142.4172" y1="67.7063" x2="388.6108" y2="385.1256">
	<stop  offset="1.385225e-07" style="stop-color:#CE5C55"/>
	<stop  offset="1" style="stop-color:#7D4E8F"/>
</linearGradient>
<path style="fill:url(#SVGID_00000102506829245425775380000012315214604303045252_);" d="M305.6,284.6c0-1.5-0.1-2.9,0-4.2
	c0.4-6.1,5.2-10.7,11.3-11c6.2-0.3,11.5,4,12.3,10.1c0.5,3.7,0.4,7.5,1,11.2c0.6,4.2,1.5,8.3,2.6,12.4c0.6,2.2,1.8,4.3,3.1,6.2
	c3.3,4.8,7.4,8.8,12.5,11.7c5.3,3,7.8,8.3,6.4,13.7c-1.7,6.7-8.5,10.6-15.1,8.4c-2.6-0.9-5.1-2.3-7.4-3.8
	c-5.7-3.9-10.6-8.8-14.8-14.3c-5.3-6.9-8.2-14.7-9.9-23.2C306.4,296.1,305.7,290.3,305.6,284.6L305.6,284.6z"/>
<linearGradient id="SVGID_00000029745059450647029040000018141729446195066521_" gradientUnits="userSpaceOnUse" x1="23.525" y1="159.9202" x2="269.7186" y2="477.3396">
	<stop  offset="1.385225e-07" style="stop-color:#CE5C55"/>
	<stop  offset="1" style="stop-color:#7D4E8F"/>
</linearGradient>
<path style="fill:url(#SVGID_00000029745059450647029040000018141729446195066521_);" d="M208,437.9h2.3c9.5,0,19-0.1,28.6,0
	c4.9,0.1,9.7-0.6,14.4-1.8c1.1-0.3,2.1-0.3,3.2,0.3c6.6,3.5,13.2,6.8,19.8,10.3c7.9,4.3,8.7,14.9,1.6,20.2
	c-3.8,2.8-7.9,3.2-12.2,1.3c-2-0.9-3.9-1.9-5.8-2.9c-16.5-8.5-32.9-17-49.4-25.5c-0.9-0.4-1.7-0.9-2.5-1.4
	C207.9,438.3,207.9,438.1,208,437.9L208,437.9z"/>
<linearGradient id="SVGID_00000062165294305983072880000007139966109764589219_" gradientUnits="userSpaceOnUse" x1="72.5848" y1="69.2454" x2="250.1332" y2="340.2131">
	<stop  offset="1.385225e-07" style="stop-color:#FDB70A"/>
	<stop  offset="1" style="stop-color:#EE6A5B"/>
	<stop  offset="1" style="stop-color:#7D4E8F"/>
</linearGradient>
<path style="fill:url(#SVGID_00000062165294305983072880000007139966109764589219_);" d="M291.3,230c0,52.4,0.1,104.7-0.1,157.1
	c-0.1,18.2-7.8,32.9-23,43.2c-6.7,4.6-14.3,7.2-22.4,8c-3.2,0.3-6.4,0.5-9.6,0.5c-40.2,0-80.3,0.2-120.5-0.1
	c-25.1-0.2-42.3-16.2-48.5-34.9c-1.5-4.6-2.3-9.2-2.3-14.1c0-106.1,0.1-212.2,0-318.3c0-11.8,3.7-22.2,11.1-31.2
	c8.6-10.7,19.9-16.8,33.6-18.5c1.2-0.1,2.4-0.1,3.6-0.1c42.7,0,85.4,0,128.2,0c12.3,0,23,4.2,32.2,12.2c10,8.7,15.8,19.8,17.2,33
	c0.3,2.9,0.5,5.9,0.5,8.8C291.3,127.2,291.3,178.6,291.3,230L291.3,230z M267.2,230.2c0-51.9,0-103.8,0-155.7c0-1,0-1.9,0-2.9
	c-0.5-14.6-12-26.1-26.5-26.2c-41.8-0.1-83.5-0.1-125.3,0c-11.1,0-19.1,5.6-24.1,15.5c-2,4-2.5,8.4-2.5,12.8
	c0,104.2,0,208.4,0,312.5c0,0.7,0,1.4,0,2.2c0.6,10.9,5.8,18.9,15.6,23.8c4,2,8.2,2.5,12.6,2.5c40.6,0,81.3,0,121.9,0
	c0.6,0,1.1,0,1.7,0c10.5-0.4,18.4-5.2,23.5-14.4c2.3-4.2,3-8.9,3-13.7C267.1,334.5,267.2,282.4,267.2,230.2L267.2,230.2z"/>
<linearGradient id="SVGID_00000050665210405477398610000013643941715073367945_" gradientUnits="userSpaceOnUse" x1="-1.0808" y1="117.5139" x2="176.4676" y2="388.4816">
	<stop  offset="1.385225e-07" style="stop-color:#FDB70A"/>
	<stop  offset="1" style="stop-color:#EE6A5B"/>
	<stop  offset="1" style="stop-color:#7D4E8F"/>
</linearGradient>
<path style="fill:url(#SVGID_00000050665210405477398610000013643941715073367945_);" d="M177.9,378.4c11.3,0,22.6,0,33.8,0
	c5.9,0,10.4,3.4,11.9,8.9c2,7.1-2.7,14.2-10,15.2c-1,0.1-2.1,0.2-3.1,0.2c-21.8,0-43.7,0-65.5,0c-1.7,0-3.4-0.1-5-0.5
	c-5.6-1.6-9.3-7.2-8.6-12.9c0.8-6.1,5.5-10.6,11.6-10.8c5.6-0.1,11.2,0,16.8,0C165.9,378.4,171.9,378.4,177.9,378.4L177.9,378.4z"/>
<linearGradient id="SVGID_00000157995902380676963820000011745340833271685288_" gradientUnits="userSpaceOnUse" x1="135.2181" y1="28.2057" x2="312.7665" y2="299.1734">
	<stop  offset="1.385225e-07" style="stop-color:#FDB70A"/>
	<stop  offset="1" style="stop-color:#EE6A5B"/>
	<stop  offset="1" style="stop-color:#7D4E8F"/>
</linearGradient>
<path style="fill:url(#SVGID_00000157995902380676963820000011745340833271685288_);" d="M162.2,81.7c-8.9,0-17.8,0-26.6,0
	c-1.6,0-3.2-0.1-4.8-0.5c-5.8-1.6-9.3-7-8.6-13.3c0.6-5.6,5.4-10.1,11.1-10.4c0.6,0,1.3,0,1.9,0c18,0,36,0,54,0
	c1.5,0,3.1,0.1,4.5,0.5c5.6,1.5,9.1,6.7,8.6,12.8c-0.4,5.5-4.7,10-10.2,10.8c-1.1,0.2-2.2,0.2-3.4,0.2
	C180,81.7,171.1,81.7,162.2,81.7L162.2,81.7z"/>
<linearGradient id="SVGID_00000145026820967820017640000015733586065996273795_" gradientUnits="userSpaceOnUse" x1="176.568" y1="1.1116" x2="354.1164" y2="272.0794">
	<stop  offset="1.385225e-07" style="stop-color:#FDB70A"/>
	<stop  offset="1" style="stop-color:#EE6A5B"/>
	<stop  offset="1" style="stop-color:#7D4E8F"/>
</linearGradient>
<path style="fill:url(#SVGID_00000145026820967820017640000015733586065996273795_);" d="M209.6,69.7c0-6.7,5.3-12,12-11.9
	c6.6,0,11.9,5.3,11.9,11.9c0.1,6.6-5.4,12.1-12,12.1C214.9,81.7,209.6,76.4,209.6,69.7L209.6,69.7z"/>
<linearGradient id="SVGID_00000064345421164840154520000001144738319877486504_" gradientUnits="userSpaceOnUse" x1="64.5634" y1="74.5013" x2="242.1118" y2="345.4691">
	<stop  offset="1.385225e-07" style="stop-color:#FDB70A"/>
	<stop  offset="1" style="stop-color:#EE6A5B"/>
	<stop  offset="1" style="stop-color:#7D4E8F"/>
</linearGradient>
<path style="fill:url(#SVGID_00000064345421164840154520000001144738319877486504_);" d="M121.7,230.3c0-11.6-0.1-23.2,0-34.8
	c0.1-12.4,8.3-22.6,20.3-25.5c6.9-1.6,13.3-0.6,19.4,2.9c10.2,5.9,20.5,11.8,30.7,17.7c9.6,5.6,19.2,11.1,28.9,16.6
	c6.4,3.7,10.6,9.1,12.6,16.2c3.1,11.6-1.9,23.4-12.4,29.6c-9.3,5.4-18.7,10.8-28,16.2c-10.6,6.1-21.2,12.3-31.8,18.3
	c-7.6,4.4-15.7,5-23.7,1.5c-10.2-4.5-15.8-12.6-16-23.8C121.6,253.7,121.7,242,121.7,230.3L121.7,230.3z M145.7,230.2
	c0,8.5,0,16.9,0,25.4c0,3,0,5.9,0,8.9c0.1,2.6,1.7,3.5,4,2.3c0.3-0.1,0.6-0.3,0.8-0.5c19.1-11,38.2-22.1,57.3-33
	c2.9-1.6,3.6-3.8,0-5.9c-19.2-10.9-38.3-21.9-57.3-33.1c-3.3-1.9-5.1-0.6-5,3C145.8,208.3,145.7,219.2,145.7,230.2L145.7,230.2z"/>
</svg>
