<?xml version="1.0" encoding="utf-8"?>
<!-- Generator: Adobe Illustrator 23.0.1, SVG Export Plug-In . SVG Version: 6.00 Build 0)  -->
<svg version="1.1" id="Capa_1" xmlns="http://www.w3.org/2000/svg" xmlns:xlink="http://www.w3.org/1999/xlink" x="0px" y="0px"
	 viewBox="0 0 480 480" style="enable-background:new 0 0 480 480;" xml:space="preserve">
<style type="text/css">
	.st0{fill:url(#SVGID_1_);}
	.st1{fill:url(#SVGID_2_);}
	.st2{fill:url(#SVGID_3_);}
	.st3{fill:url(#SVGID_4_);}
	.st4{fill:url(#SVGID_5_);}
</style>
<linearGradient id="SVGID_1_" gradientUnits="userSpaceOnUse" x1="309.2191" y1="445.9392" x2="439.0588" y2="316.0995">
	<stop  offset="0" style="stop-color:#75A26A"/>
	<stop  offset="1" style="stop-color:#3180B8"/>
</linearGradient>
<path class="st0" d="M373.6,285.6c53.3,0.6,96.1,44.3,95.5,97.6c-0.6,52.6-43.1,95-95.7,95.5c-53.3,0.1-96.6-43.6-96.4-96.8
	S320.5,285.4,373.6,285.6z M437,346.4l-1.3,1.2c-4.9,4.6-10.3,8.6-16,12c-0.7,0.3-1,1.1-0.8,1.8c0.6,3.3,1.3,6.7,1.6,10
	c1.1,10.2,0.7,20.6-1.2,30.7c-0.1,0.7-0.1,1.2,0.6,1.6c6,3.6,11.6,7.8,16.6,12.6c0.3,0.3,0.6,0.5,0.9,0.8
	C449.5,395.9,449.5,367.7,437,346.4z M308.5,349c-11.1,21.1-10.3,47-0.1,66c0.2-0.1,0.3-0.2,0.5-0.3c5.5-5,11.6-9.2,18.1-12.8
	c0.6-0.3,0.6-0.8,0.5-1.4c-2.2-12.3-2.2-24.8,0.1-37.1c0.3-0.7-0.1-1.4-0.8-1.7c0,0,0,0,0,0c-6.2-3.2-11.9-7.2-17.2-11.8L308.5,349z
	 M347.7,393.5c29.6-4.7,28.5-3.5,51.4,0.9c1.4-3.7,1.1-22.2-0.4-25.5c-16.5,5-34.1,5.4-50.8,1.1
	C346.8,377.8,346.7,385.7,347.7,393.5L347.7,393.5z M394.5,412.8c-13.7-4.3-28.3-4.6-42.1-0.9c4.6,12.2,11.9,23.3,21.4,32.2
	C380.6,438.9,392.5,420.8,394.5,412.8z M393.7,350.8c-2.4-8.2-14.5-25.7-20.4-29.7c-6.9,5.4-19.5,24.4-20.4,30.7
	C366.3,355.3,380.4,354.9,393.7,350.8L393.7,350.8z M351.7,451.6c-8-9.4-14.4-20-18.8-31.5c-5,3.1-9.6,6.7-13.8,10.7
	C327.8,440.6,339.1,447.8,351.7,451.6L351.7,451.6z M352,312.6c-12.6,3.7-23.9,10.9-32.7,20.7c4.2,4,8.9,7.4,13.9,10.4
	C337.6,332.4,344,321.8,352,312.6L352,312.6z M425.5,331.2c-5.7-7.2-24-18.2-31.3-18.8c7.8,8.7,14.1,18.6,18.6,29.3
	C417.4,338.7,421.6,335.1,425.5,331.2z M395.8,451.5c8.5-1.6,26.9-13.3,30.3-19.1c-3.8-3.9-8-7.4-12.5-10.4
	C409.4,432.7,403.4,442.7,395.8,451.5z"/>
<linearGradient id="SVGID_2_" gradientUnits="userSpaceOnUse" x1="20.6535" y1="30.3772" x2="135.5864" y2="145.31">
	<stop  offset="0" style="stop-color:#FFCB00"/>
	<stop  offset="1" style="stop-color:#F45561"/>
</linearGradient>
<path class="st1" d="M42.5,143.9c0-5.9,0-11.8,0-17.6c0.1-1.1-0.5-2.2-1.5-2.8c-13-8.5-22.6-21.4-27-36.3c-5.2-17.3-3.8-34.1,4.6-50
	c11-20.8,28.5-32.9,52-35.7c36.6-4.1,69.7,22.2,73.8,58.9c2.6,23.4-7.2,46.4-26,60.6c-1.6,1.1-3.4,2-5.2,2.7
	c-0.6,0.3-0.9,0.5-0.9,1.3c0,12.1,0,24.2,0.1,36.4c0,6.5-3.5,11.1-9.8,12.5c-0.5,0.2-0.8,0.6-1,1.1c-3.4,12.5-16.2,19.8-28.7,16.4
	c-7.7-2.1-13.8-8-16.2-15.6c-0.1-0.4-0.2-0.9-0.4-1.3c-0.2-0.3-0.7-0.7-1-0.7c-6.2,0.6-13.3-4.5-12.7-13.4c0.2-2.8,0-5.5,0-8.3v-8.1
	H42.5z M88.8,148.2v-7.8c0-7.7-0.1-15.4,0.1-23c0.1-5.2,2.9-8.7,7.7-10.7c1-0.3,1.9-0.8,2.8-1.3c15.1-9.4,22.7-23,21.6-40.8
	c-1.6-23.7-22.1-41.6-45.8-40c-1,0.1-1.9,0.2-2.9,0.3C45,28.4,27.7,56.7,37.3,82.5c4.1,11.1,11.4,19.4,22.3,24.3
	c4.6,2.1,6.8,5.9,6.8,11c0,9.2,0,18.3,0,27.5c0,0.9,0,1.8,0,2.9L88.8,148.2z M70.3,171.8c1.1,3.9,5.4,6.6,9.6,6.3
	c3.3-0.3,7.2-3,7.7-6.3H70.3z"/>
<linearGradient id="SVGID_3_" gradientUnits="userSpaceOnUse" x1="63.5323" y1="278.3254" x2="271.1373" y2="278.3254">
	<stop  offset="0" style="stop-color:#C85557"/>
	<stop  offset="1" style="stop-color:#834B93"/>
</linearGradient>
<path class="st2" d="M104,208.6c2.8-1.5,5.4-3,8.2-4.2c3.7-1.6,7.5-3.1,11.3-4.4c5.9-1.9,12.2,1.1,14.5,6.8
	c2.3,5.7-0.2,12.3-5.8,14.9c-1.8,0.9-3.8,1.4-5.7,2.2c-22.7,9.4-36.1,26.3-38.9,50.8c-3.3,29,14.5,55.8,42.3,64.6
	c0.7,0.2,1.5,0.2,2.2,0c4.6-1.4,8.7-0.6,12.1,2.8s4.2,7.5,2.9,12.1c-0.2,0.7-0.1,1.4,0.2,2c0.7,1.4,1.5,2.6,2.4,3.8
	c11.3,13.8,25.6,20.8,43.7,18c9.1-1.4,17.5-5.8,23.8-12.4c0.5-0.5,0.7-1.2,0.8-1.9c0.1-39.7,0.1-79.4,0.1-119.1
	c0-25.2,0-50.4,0-75.6c0-1,0-1.9,0-2.9c0.2-6.5,5.6-11.7,12.1-11.5c6.3,0.2,11.3,5.2,11.5,11.5c0,5,0,10.1,0,15.1v135.4
	c0,14.2,0,28.4,0,42.6c0,1.6,0,3.1,0.1,4.7c0,0.7,0.3,1.4,0.8,2c5.4,5.5,12.2,9.4,19.6,11.3c5.9,1.5,9.7,7.2,8.9,13.2
	c-0.8,6.5-6.7,11.1-13.2,10.2c-0.9-0.1-1.7-0.3-2.5-0.6c-7.9-2.8-15.5-5.9-22.2-11.1c-0.1-0.1-0.2-0.2-0.3-0.2
	c-2.3,0.1-4.8-1-6.8,0.4c-25.7,19-61.2,17.3-85-3.9c-6.7-5.8-12.1-13-15.8-21c-0.5-1.1-1.4-2-2.6-2.3c-36.3-11.5-60.4-45.8-59-83.8
	c0.8-20.5,8.2-38.4,21.8-53.7c0.1-0.1,0.3-0.3,0.4-0.6c-0.3-0.4-0.6-0.8-0.9-1.2c-2.3-3.4-4.9-6.6-7-10.2c-3.4-5.6-1.6-13,4.1-16.4
	c5.6-3.4,13-1.6,16.4,4.1c0.3,0.4,0.5,0.9,0.7,1.3C100.4,203.9,102.1,206.4,104,208.6z"/>
<linearGradient id="SVGID_4_" gradientUnits="userSpaceOnUse" x1="152.2841" y1="156.8029" x2="394.9733" y2="156.8029">
	<stop  offset="0" style="stop-color:#C85557"/>
	<stop  offset="1" style="stop-color:#834B93"/>
</linearGradient>
<path class="st3" d="M229.6,50.1c19.1-20.6,49.8-25.6,74.5-12.1c16.9,9.3,28.5,26.1,31.1,45.3c1.3,9.4,0.4,19-2.6,28
	c25.6,5.5,43.9,19.8,52.9,44.5s4.1,47.4-12,68c1,1.2,2.1,2.4,3.1,3.7c9.8,12.1,16.1,25.9,18.1,41.3c1.1,8.8-4.8,14.5-12.2,14.5
	c-6.3-0.1-11.4-5.1-11.6-11.4c0-2.8-0.5-5.7-1.4-8.3c-6.6-20.3-19.9-33.9-40.2-40.7c-5.6-1.9-9.1-6.3-9-11.8
	c0.1-6.2,5-11.2,11.1-11.5c1.8-0.1,3.5,0.1,5.2,0.8c3.1,1.2,6.3,2.3,9.4,3.7s6,3,9.1,4.6c0.2-0.2,0.3-0.3,0.5-0.5
	c16-19.1,13.4-47.6-5.7-63.5c-5.6-4.7-12.3-8-19.5-9.5c-2.7-0.6-5.4-0.9-8.2-1c-1.7-0.1-3.4,0.1-5,0.6c-6.3,1.7-12.8-2-14.5-8.2
	c-0.5-1.7-0.5-3.5-0.2-5.3c0.3-1.6,0.9-3.2,1.8-4.6c1.3-2.3,2.7-4.7,3.8-7.1c6.8-15.1,5.9-32.3-7.9-45.3
	c-17.5-16.5-45.7-12.3-58,8.4c-0.6,1-0.9,2.2-0.8,3.4c0.1,4.2,0.1,8.3,0.1,12.5c0,5.8,0,11.6,0,17.4c0,3.4-0.8,6.5-3.2,9
	c-3,3.4-7.8,4.7-12.1,3.2c-4.4-1.2-7.6-5-8.1-9.5c-0.3-3.5-0.4-6.9-0.2-10.4c0-5.4,0-10.8,0-16.2c0-2.3,0-4.7,0-7
	c0-0.5-0.2-0.9-0.4-1.3c-6.4-11.1-16-17.6-28.8-19.2c-5.3-0.7-10.7-0.1-15.7,1.6c-1.6,0.5-3,1.4-4.5,2c-6.1,2.4-13-0.6-15.4-6.7
	c-0.3-0.7-0.5-1.4-0.6-2.1c-1.1-5.7,2-11.4,7.4-13.5c12.7-5.5,26.9-6.6,40.3-3.1c10.5,2.7,20.1,8.3,27.8,16
	C228.5,48.9,229,49.5,229.6,50.1z"/>
<linearGradient id="SVGID_5_" gradientUnits="userSpaceOnUse" x1="218.102" y1="137.22" x2="241.502" y2="137.22">
	<stop  offset="0" style="stop-color:#C85557"/>
	<stop  offset="1" style="stop-color:#834B93"/>
</linearGradient>
<path class="st4" d="M241.5,137.2c0,6.5-5.2,11.7-11.7,11.7c-6.5,0-11.7-5.2-11.7-11.7c0-6.5,5.2-11.7,11.7-11.7c0,0,0,0,0,0
	C236.2,125.5,241.5,130.7,241.5,137.2z"/>
</svg>
