<?xml version="1.0" encoding="utf-8"?>
<!-- Generator: Adobe Illustrator 26.5.0, SVG Export Plug-In . SVG Version: 6.00 Build 0)  -->
<svg version="1.1" id="DDC" xmlns="http://www.w3.org/2000/svg" xmlns:xlink="http://www.w3.org/1999/xlink" x="0px" y="0px"
	 viewBox="0 0 480 480" style="enable-background:new 0 0 480 480;" xml:space="preserve">
<style type="text/css">
	.st0{fill:url(#SVGID_1_);}
	.st1{fill:url(#SVGID_00000040534353429679528580000006032432403389237414_);}
	.st2{fill:url(#SVGID_00000100369851879746107030000006712535207300105382_);}
	.st3{fill:url(#SVGID_00000004507168691065237490000016265121184330099348_);}
	.st4{fill:url(#SVGID_00000140718386246213645080000012879680599562067383_);}
</style>
<g id="Capa_2_00000178887172202269693820000018407469998170634943_">
	<g id="Capa_1-2">
		<g>
			<linearGradient id="SVGID_1_" gradientUnits="userSpaceOnUse" x1="256.0746" y1="131.2491" x2="330.9133" y2="279.8943">
				<stop  offset="5.327789e-09" style="stop-color:#497FBF"/>
				<stop  offset="1" style="stop-color:#6159A6"/>
			</linearGradient>
			<path class="st0" d="M313.2,99.5c0,40.4-32.7,73.1-73.1,73.1S167,139.9,167,99.5c0-40.4,32.8-73.1,73.1-73.1
				C280.5,26.5,313.2,59.2,313.2,99.5z M240,148.6c27,0,49.1-22,49.1-49s-22-49.1-49.1-49.1c-27,0-49,22-49.1,49
				C191,126.5,213,148.6,240,148.6z"/>
			
				<linearGradient id="SVGID_00000068665887059125634210000014819302405205867151_" gradientUnits="userSpaceOnUse" x1="199.2309" y1="159.8683" x2="274.0696" y2="308.5135">
				<stop  offset="5.327789e-09" style="stop-color:#497FBF"/>
				<stop  offset="1" style="stop-color:#6159A6"/>
			</linearGradient>
			<path style="fill:url(#SVGID_00000068665887059125634210000014819302405205867151_);" d="M217.4,179.1
				c7.7-0.1,13.4,6.8,11.9,14.4c-4.2,20.8-8.4,41.6-12.6,62.4c-0.2,0.9-0.1,1.4,0.6,1.9c7.3,5.6,14.6,11.2,21.9,16.8
				c0.6,0.5,1.1,0.5,1.7,0c7.3-5.6,14.6-11.2,21.8-16.9c0.7-0.5,0.9-1,0.7-1.9c-4.2-20.8-8.5-41.6-12.6-62.4
				c-1.4-6.7,2.8-12.8,9.5-14.2c6.4-1.3,12.7,2.8,14.1,9.4c2.5,12.2,5,24.3,7.4,36.5c2.3,11.2,4.5,22.5,6.8,33.7
				c1.1,5.3-0.5,9.6-4.8,12.9c-12,9.3-24.1,18.6-36.2,27.9c-4.8,3.7-10.5,3.7-15.3,0c-12.1-9.3-24.1-18.6-36.2-27.9
				c-4.2-3.3-5.9-7.6-4.8-12.9c4.5-22.2,9-44.5,13.6-66.7c0.3-1.4,0.5-2.8,0.9-4.1C207.1,182.7,211.8,179.1,217.4,179.1L217.4,179.1
				z"/>
			
				<linearGradient id="SVGID_00000028312961543560595240000013737142740556182437_" gradientUnits="userSpaceOnUse" x1="266.0464" y1="126.2286" x2="340.8851" y2="274.8737">
				<stop  offset="5.327789e-09" style="stop-color:#497FBF"/>
				<stop  offset="1" style="stop-color:#6159A6"/>
			</linearGradient>
			<path style="fill:url(#SVGID_00000028312961543560595240000013737142740556182437_);" d="M349.2,313H325v-1.5
				c0-22,0.2-44.1,0-66.1c-0.2-25.6-10.8-46.2-31-61.8c-2.3-1.8-4.6-3.6-5.7-6.4c-2-5-0.5-10.6,3.7-13.9c4.2-3.3,10.1-3.5,14.4-0.4
				c22,16.1,35.9,37.3,41,64.2c0.7,3.9,1.2,7.9,1.4,11.9c0.3,5.4,0.5,10.9,0.5,16.4c0,18.7,0,37.4,0,56.1V313L349.2,313z"/>
			
				<linearGradient id="SVGID_00000017474910588646629690000003385205450898107818_" gradientUnits="userSpaceOnUse" x1="136.5952" y1="191.4036" x2="211.4339" y2="340.0488">
				<stop  offset="5.327789e-09" style="stop-color:#497FBF"/>
				<stop  offset="1" style="stop-color:#6159A6"/>
			</linearGradient>
			<path style="fill:url(#SVGID_00000017474910588646629690000003385205450898107818_);" d="M154.8,313H131v-1.3
				c0-24.2-0.1-48.4,0.1-72.6c0.1-8.8,2.1-17.4,4.9-25.8c6.8-20,18.7-36.3,35.6-49c2.5-1.9,5-3.4,8.2-3.6c5.4-0.3,10.2,2.9,12,8
				s0,10.5-4.3,13.8c-3.4,2.6-6.8,5.3-9.9,8.3c-12.9,12.8-20.4,28.3-22.3,46.5c-0.3,2.8-0.4,5.7-0.4,8.5c0,21.9,0,43.8,0,65.8V313z"
				/>
		</g>
	</g>
</g>
<g id="Capa_4">
	
		<linearGradient id="SVGID_00000148629940459124812200000013137476158138257064_" gradientUnits="userSpaceOnUse" x1="126.9586" y1="165.1513" x2="372.8694" y2="411.0621">
		<stop  offset="5.327789e-09" style="stop-color:#F2BF00"/>
		<stop  offset="1" style="stop-color:#E5765E"/>
	</linearGradient>
	<path style="fill:url(#SVGID_00000148629940459124812200000013137476158138257064_);" d="M206.9,401.5v-14.4h-1.5
		c-33.4,0-66.9,0-100.3,0c-19,0-34.8-13-38.2-31.8c-0.4-2.2-0.6-4.5-0.6-6.7c0-61.2,0-122.3,0-183.5c0-18.8,13.4-34.7,31.9-37.9
		c2.3-0.4,4.6-0.5,6.9-0.6c16.4-0.1,32.8,0,49.2,0c6.9,0,12.3,5.3,12.3,12c0,6.7-5.4,12-12.3,12c-16.3,0-32.6,0-49,0
		c-8.9,0-15.1,6.2-15.1,15.1c0,48.6,0,97.1,0,145.7v1.4H390v-1.3c0-48.6,0-97.3,0-145.9c0-8.7-6.2-15-15-15c-16.4,0-32.9,0-49.3,0
		c-4.8,0-8.4-2.2-10.6-6.4c-2.2-4.2-1.9-8.4,0.7-12.3c2.3-3.4,5.6-5.2,9.7-5.2c16.9-0.1,33.8-0.1,50.8,0
		c18.7,0.1,34.6,14.2,37.3,32.7c0.3,2,0.4,4.1,0.4,6.1c0,60.9,0,121.8,0,182.8c0,19.1-13,34.7-31.8,38.2c-2.3,0.4-4.7,0.6-7,0.6
		c-33.5,0-67,0-100.4,0h-1.6v14.3c0.3,0,0.7,0.1,1,0.1c2.2,0,4.4,0,6.6,0c5.7,0.1,9.8,2.7,12.2,7.8c4.6,9.8,9.2,19.6,13.7,29.4
		c0.5,1,1,1.4,2.2,1.4c14.2,0,28.4,0,42.6,0c6.4,0,11.2,4.1,12.2,10.3c1.2,6.9-4.3,13.6-11.3,13.9c-0.4,0-0.7,0-1.1,0
		c-74.2,0-148.5,0-222.7,0c-6.4,0-11.3-4-12.3-10.2c-1.2-7.1,4.2-13.9,11.4-14c6.7-0.1,13.4,0,20,0c7.8,0,15.6,0,23.4,0
		c1,0,1.5-0.3,2-1.2c4.6-9.9,9.2-19.7,13.8-29.5c2.4-5.2,6.6-7.9,12.4-7.9C201.8,401.5,204.3,401.5,206.9,401.5L206.9,401.5z
		 M90.3,337c0,4.4,0,8.6,0,12.8c0,0.7,0.2,1.4,0.3,2.1c1.6,6.8,7.3,11.1,14.5,11.1c46.6,0,93.3,0,139.9,0c43.3,0,86.5,0,129.8,0
		c9.1,0,15.2-6.1,15.2-15.2c0-3.2,0-6.5,0-9.7c0-0.4,0-0.8,0-1.2L90.3,337L90.3,337z M280.6,440.1c-0.2-0.4-0.3-0.7-0.4-1
		c-1.9-4.1-3.9-8.2-5.8-12.4c-0.3-0.8-0.8-1-1.5-1c-7.1,0-14.2,0-21.2,0c-14.8,0-29.6,0-44.4,0c-0.6,0-1.2-0.1-1.6,0.7
		c-2,4.4-4.1,8.8-6.1,13.1c-0.1,0.1-0.1,0.3-0.1,0.5L280.6,440.1L280.6,440.1z M231,387.2v14.2h18.1v-14.2H231z"/>
</g>
</svg>
