<?xml version="1.0" encoding="utf-8"?>
<!-- Generator: Adobe Illustrator 23.0.1, SVG Export Plug-In . SVG Version: 6.00 Build 0)  -->
<svg version="1.1" id="Capa_1" xmlns="http://www.w3.org/2000/svg" xmlns:xlink="http://www.w3.org/1999/xlink" x="0px" y="0px"
	 viewBox="0 0 480 480" style="enable-background:new 0 0 480 480;" xml:space="preserve">
<style type="text/css">
	.st0{fill:url(#SVGID_1_);}
	.st1{fill:url(#SVGID_2_);}
	.st2{fill:url(#SVGID_3_);}
	.st3{fill:url(#SVGID_4_);}
</style>
<g>
	<g id="Capa_1-2">
		<linearGradient id="SVGID_1_" gradientUnits="userSpaceOnUse" x1="58.2742" y1="99.8112" x2="239.8737" y2="281.4107">
			<stop  offset="0" style="stop-color:#D2594B"/>
			<stop  offset="1" style="stop-color:#8F4287"/>
		</linearGradient>
		<path class="st0" d="M44.1,161.5v4.4c0,23.4,0,46.9,0,70.3c-0.1,0.8,0.4,1.5,1.2,1.7c15.2,5.6,23,22.5,17.4,37.7
			c-1.6,4.3-4.1,8.1-7.5,11.3c-13.5,12.9-36.2,9.5-45.4-6.7c-7.9-14-3.8-30.8,9.8-39.6c0.8-0.4,1.2-1.3,1.1-2.1
			c-0.1-7-0.1-14-0.1-21v-66.2c0-3.2-0.1-6.3,0.1-9.5c0.1-4.3,2.6-8.2,6.5-10c9.2-4.7,18.4-9.4,27.5-14.2
			C92.1,98.1,129.6,78.5,167,59c4.5-2.4,8.8-2.2,13.3,0.2c10,5.5,20.2,10.7,30.4,16l109.2,57c6.3,3.3,8.9,9.6,6.4,15.7
			c-1.2,2.9-3.5,5.3-6.4,6.8c-12.4,7-24.8,13.9-37.3,20.9l-32.4,18.2c-0.1,0.1-0.3,0.2-0.4,0.2c-2.3,0.6-2.6,2.2-2.5,4.3
			c0.1,10.4,0.1,20.9,0,31.3c0,6.3,0.2,12.6-0.2,18.9c-3,41-38.7,71.9-79.7,68.9c-25.4-1.8-48.1-16.5-60.2-38.9
			c-5.3-9.6-8.3-20.2-8.8-31.2c-0.2-4.3,0.2-8.6,0.3-12.9c0-1.6-0.1-3.2-0.1-4.8c0-12.1,0-24.2,0-36.2c0.1-0.9-0.4-1.7-1.2-2.1
			c-17.4-9.7-34.8-19.5-52.2-29.3C45,161.9,44.6,161.8,44.1,161.5z M172.8,192c-27.6-0.1-50.7,22.8-51,50.1
			c-0.5,28.2,21.9,51.4,50.1,51.9c28.2,0.5,51.4-21.9,51.9-50.1s-21.9-51.4-50.1-51.9C173.4,192,173.1,192,172.8,192L172.8,192z
			 M98.8,165c0-2.1,0-4,0-5.9c0-5.6,2.4-9.7,7.7-11.9c0.8-0.3,1.5-0.7,2.2-1.2c18.8-11.6,37.6-23.2,56.4-34.7
			c5.4-3.3,10.7-3.3,16.1,0c16.4,10.1,32.9,20.3,49.3,30.4c3.2,2,6.4,4,9.7,5.7c4.3,2.2,6.9,5.6,7.2,10.4c0.2,3,0.1,6.1,0.1,9.1
			c0,0.4,0,0.8,0.1,1.4l43.7-24.6l-1.6-0.9c-38.4-20-76.7-40-115-60.1c-0.7-0.4-1.6-0.4-2.3,0c-37.5,19.6-75,39.2-112.6,58.8
			l-1.3,0.7L98.8,165z M122.3,188.2c14.6-13,31.5-19.7,50.8-19.7s36.1,6.9,50.7,20v-1.6c0-6.7,0-13.4,0-20.2c0.1-1-0.4-1.9-1.3-2.3
			c-16.1-9.9-32.2-19.8-48.3-29.7c-0.7-0.5-1.7-0.5-2.4,0c-16.1,10-32.2,19.9-48.4,29.9c-0.8,0.4-1.3,1.3-1.2,2.2
			c0,6.6,0,13.3,0,19.9L122.3,188.2z M29.4,265.4c0,3.2,2.5,5.7,5.7,5.8c3.2,0,5.7-2.5,5.8-5.7c0-3.2-2.5-5.7-5.7-5.8c0,0,0,0,0,0
			C32,259.7,29.4,262.2,29.4,265.4C29.4,265.4,29.4,265.4,29.4,265.4z"/>
		<linearGradient id="SVGID_2_" gradientUnits="userSpaceOnUse" x1="221.5703" y1="93.9945" x2="443.259" y2="315.6833">
			<stop  offset="0" style="stop-color:#BDCD35"/>
			<stop  offset="1" style="stop-color:#3A83A4"/>
		</linearGradient>
		<path class="st1" d="M305.7,45.6l-10.1,9.5c-9.3,8.7-18.7,17.4-28,26.1c-2.4,2.2-5.1,3.8-8.4,3.9c-4.9,0.1-8.7-2-10.9-6.4
			c-2.3-4.1-1.7-9.1,1.4-12.6c2.3-2.5,4.8-5,7.4-7.2c13.5-12.6,26.9-25.2,40.4-37.8c3.7-3.5,8-5,13-3.2c3.4,1.2,6.4,3.4,8.6,6.3
			c18.1,23.8,36.2,47.7,54.3,71.5l81.2,106.8c4.7,6.2,9.5,12.5,14.2,18.7c2.3,2.7,3.3,6.2,2.8,9.7c-0.5,3-2.1,5.7-4.5,7.6
			c-0.6,0.4-1.1,0.9-1.6,1.4c-2.4,3.3-6.3,5.2-10.4,5.1h-82.4c-0.4,0-0.7,0-1.2,0.1v133.7c0.1,1.8,0,3.6-0.1,5.4
			c-0.8,6.2-6.3,10.7-12.5,10.3c-6.3-0.5-11.2-5.7-11.1-12.1c0.1-13.1,0.2-26.2,0.2-39.4c0-34.8,0-69.6,0-104.4
			c-0.2-3.1,0.7-6.2,2.5-8.8c0.3-0.4,0.5-0.8,0.7-1.3c1.8-4.3,6.1-7.1,10.7-7c6.2-0.1,12.5-0.1,18.7-0.1h57.8c0.2,0,0.4,0,0.9-0.1
			L305.7,45.6z"/>
		<linearGradient id="SVGID_3_" gradientUnits="userSpaceOnUse" x1="214.8187" y1="313.1694" x2="286.0653" y2="384.416">
			<stop  offset="0" style="stop-color:#D2594B"/>
			<stop  offset="1" style="stop-color:#8F4287"/>
		</linearGradient>
		<path class="st2" d="M281.6,383.6c0.1,6.5-4.9,11.9-11.4,12.3c-6.3,0.4-11.8-4.3-12.4-10.6c-1.2-10.4-4-20.6-8.3-30.2
			c-3.8-8.8-8.9-16.7-16.3-22.8c-2.8-2.3-5.8-4.3-9-6.1c-4-2.4-6.6-5.6-6.8-10.4c-0.3-6.4,4.6-11.8,10.9-12.1
			c1.7-0.1,3.3,0.2,4.9,0.8c3.7,1.6,7.2,3.6,10.4,6c11.9,8.4,20.3,19.7,26.4,32.8c5.2,11.3,8.8,23.3,10.9,35.6
			c0.1,0.8,0.3,1.6,0.4,2.4S281.5,382.9,281.6,383.6z"/>
		<linearGradient id="SVGID_4_" gradientUnits="userSpaceOnUse" x1="80.9641" y1="331.1133" x2="113.5154" y2="363.6646">
			<stop  offset="0" style="stop-color:#D2594B"/>
			<stop  offset="1" style="stop-color:#8F4287"/>
		</linearGradient>
		<path class="st3" d="M130.4,314.4c0,3.5-1.7,6.9-4.5,9.1c-0.6,0.5-1.3,1-2.1,1.4c-10.6,5.5-18,14.1-23.5,24.6
			c-5.2,10.1-8.3,20.9-10.3,32c-0.2,0.9-0.2,1.8-0.3,2.7c-1,6.5-7.1,10.9-13.6,9.9c-5.1-0.8-9.1-4.8-9.9-9.9c-0.2-1.4-0.2-2.8,0-4.1
			c1.5-8.2,3.5-16.4,6-24.3c4.2-12.4,9.8-23.9,18.3-33.9c6-7.2,13.4-13.1,21.6-17.5c5.3-2.9,10.9-2.2,14.7,1.7
			C129.1,308.3,130.4,311.3,130.4,314.4z"/>
	</g>
</g>
</svg>
