<?xml version="1.0" encoding="utf-8"?>
<!-- Generator: Adobe Illustrator 26.5.0, SVG Export Plug-In . SVG Version: 6.00 Build 0)  -->
<svg version="1.1" id="Capa_3" xmlns="http://www.w3.org/2000/svg" xmlns:xlink="http://www.w3.org/1999/xlink" x="0px" y="0px"
	 viewBox="0 0 480 480" style="enable-background:new 0 0 480 480;" xml:space="preserve">
<style type="text/css">
	.st0{fill:url(#SVGID_1_);}
	.st1{fill:url(#SVGID_00000171680842744481554850000001315355874842711977_);}
</style>
<linearGradient id="SVGID_1_" gradientUnits="userSpaceOnUse" x1="11.8988" y1="293.2227" x2="97.1425" y2="403.118">
	<stop  offset="0" style="stop-color:#77AA5D"/>
	<stop  offset="1" style="stop-color:#44899B"/>
</linearGradient>
<path class="st0" d="M41.8,355.4v-1.5c0-37.7,0-75.4,0-113c0-6.3,4.1-11.1,10.4-12.2c6.9-1.1,13.6,4.3,13.9,11.3c0,0.5,0,1,0,1.6
	c0,41.1,0,82.2,0,123.3c0,6.9-3.5,11.4-10.2,12.8c-1.5,0.3-3.2,0.2-4.8,0.4c-10.1,1.2-18.2,10-18.6,20.2c-0.4,10.6,6.8,20,16.9,22
	c14,2.9,26.7-8,26-22.3c-0.1-2.8-0.9-5.4-2.1-8c-3.7-8.4,2.5-17.5,11.6-17c5,0.3,8.7,2.9,10.5,7.5c7.3,18.1,5.1,35-8.2,49.5
	c-12.4,13.5-28.2,17.9-45.8,12.8c-17.6-5.1-28.5-17.2-32.1-35.2c-4.6-22.8,9.3-45.4,31.7-52C41.2,355.6,41.4,355.5,41.8,355.4
	L41.8,355.4z"/>
<g id="Capa_1-2">
	<g>
		
			<linearGradient id="SVGID_00000051350681937018613100000015371676057632726960_" gradientUnits="userSpaceOnUse" x1="59.7111" y1="112.4345" x2="400.8417" y2="316.3795">
			<stop  offset="0.1055" style="stop-color:#5577B6"/>
			<stop  offset="0.8132" style="stop-color:#6159A6"/>
		</linearGradient>
		<path style="fill:url(#SVGID_00000051350681937018613100000015371676057632726960_);" d="M86.8,192.2
			c5.3-12.2,15.4-19.2,26.6-24.9c11.6-5.9,23.8-9.8,36.4-12.9c13.1-3.3,26.4-5.5,39.9-7c19.6-2.3,39.2-3.1,58.9-2.7
			c13.4,0.2,26.8,1.1,40.1,2.6c19.9,2.3,39.6,5.8,58.7,12.2c10,3.4,19.7,7.5,28.5,13.4c5.5,3.7,10.3,8,14,13.5
			c3.4,5.1,5.1,10.6,5.1,16.7c0,37.6,0,75.3,0,112.9c0,5.8-1.6,11.1-4.6,16c-3.8,6.2-9.2,10.8-15.2,14.7
			c-9.7,6.4-20.4,10.6-31.4,14.1c-13.9,4.4-28,7.3-42.4,9.4c-26,3.8-52.1,4.9-78.2,4c-22.2-0.8-44.2-3.1-66-7.9
			c-14.7-3.2-29.2-7.4-42.8-14.1c-7.1-3.5-13.7-7.7-19.4-13.4c-5.3-5.3-8.8-11.5-9.9-19c-0.1-0.7-0.1-1.4-0.1-2.1
			c0-33.1,0-66.2,0-99.4c0-1.1-0.3-1.5-1.3-1.8C67.3,211,51,205.6,34.8,200.1c-6.5-2.2-12.4-5.5-17.2-10.3
			c-12.9-12.9-12.1-32.4,1.7-44.2c5.1-4.4,11-7.3,17.4-9.4c55.6-18.5,111.2-37,166.8-55.5c8.2-2.7,16.7-4.1,25.4-4.8
			c8.8-0.7,17.5-0.6,26.2,0.3c8.8,0.9,17.3,3.1,25.8,5.9c54.1,18.1,108.2,36,162.3,54.1c7.3,2.4,14.1,5.8,19.6,11.4
			c5.5,5.6,8.7,12.3,8.9,20.3c0.2,9.5-3.7,17.3-10.7,23.5c-5.3,4.7-11.6,7.6-18.2,9.8c-4.6,1.5-9.2,3.1-13.8,4.6
			c-8.5,2.9-16.8-3.1-16.5-11.8c0.2-5.1,3.7-9.4,8.7-11c5.7-1.8,11.5-3.6,17.1-5.8c2.4-0.9,4.8-2.3,6.8-3.9c3.6-2.8,3.5-6.4,0-9.4
			c-2.7-2.4-6-3.7-9.4-4.9c-51.2-17-102.4-34.1-153.6-51.1c-6.1-2-12.1-4.2-18.3-5.8c-9.4-2.5-19-2.9-28.7-2.5
			c-7.9,0.3-15.6,1.2-23.1,3.7c-17.9,5.9-35.8,11.9-53.7,17.8c-38.2,12.7-76.4,25.4-114.5,38.2c-2.6,0.9-5,2.2-7.4,3.6
			c-1.1,0.6-2,1.6-2.8,2.6c-1.6,2.1-1.7,4.4,0.1,6.4c1.4,1.5,3.1,3,4.9,3.9c3.8,1.7,7.8,3.1,11.9,4.5c11.8,4,23.6,7.9,35.4,11.8
			C86.1,192,86.4,192.1,86.8,192.2L86.8,192.2z M370.8,283.4v-1.5c0-25.8,0-51.6,0-77.4c0-0.5-0.1-1.1,0-1.6c0.3-1.4-0.2-2.5-1-3.6
			c-0.8-1.1-1.6-2.2-2.7-3c-3-2.3-6-4.6-9.3-6.5c-9.9-5.6-20.6-8.9-31.6-11.7c-18.5-4.7-37.3-7.3-56.3-8.6
			c-16.5-1.2-33.1-1.3-49.6-0.6c-18.8,0.9-37.5,2.9-56,6.8c-12.1,2.5-24.1,5.8-35.4,10.8c-5.7,2.5-11.2,5.4-15.8,9.6
			c-2.5,2.3-4,4.8-3.9,8.6c0.2,25.8,0.1,51.5,0.1,77.3v1.5c2.2-1.1,4.2-2.2,6.2-3.2c13.7-6.5,28.1-10.8,42.9-13.9
			c21.8-4.7,44-6.9,66.3-7.7c18.9-0.7,37.7-0.1,56.4,1.6c14.1,1.3,28.1,3.3,41.9,6.3c12.9,2.8,25.5,6.4,37.5,11.8
			C363.9,279.9,367.2,281.7,370.8,283.4L370.8,283.4z M240,350.4c0,0.1,0,0.2,0,0.4c11.2-0.5,22.4-0.8,33.5-1.7
			c10.3-0.9,20.7-2.2,30.9-3.8c12.1-1.8,24-4.7,35.6-8.6c7.9-2.7,15.6-5.8,22.5-10.5c2.6-1.8,5.1-3.8,7-6.3c1.7-2.1,1.7-4.9,0-6.9
			c-1.3-1.5-2.7-3-4.2-4.2c-5.8-4.7-12.5-7.8-19.5-10.4c-18.8-7.2-38.5-10.9-58.4-13.1c-9.5-1.1-19-1.7-28.5-2.2
			c-16.5-0.9-32.9-0.6-49.4,0.6c-12.8,0.9-25.5,2.4-38.2,4.7c-12.3,2.2-24.4,5.2-36.1,9.6c-6.9,2.6-13.6,5.5-19.4,10
			c-2.2,1.7-4,3.8-5.9,5.9c-0.5,0.5-0.7,1.5-0.8,2.3c-0.3,1.9,0.6,3.3,1.8,4.6c2.2,2.6,4.9,4.6,7.7,6.4c7.5,4.7,15.7,8,24.2,10.6
			c18.3,5.7,37,8.9,56,10.8C212.5,349.9,226.2,350.5,240,350.4L240,350.4z"/>
	</g>
</g>
</svg>
