<?xml version="1.0" encoding="utf-8"?>
<!-- Generator: Adobe Illustrator 25.2.3, SVG Export Plug-In . SVG Version: 6.00 Build 0)  -->
<svg version="1.1" id="Capa_1" xmlns="http://www.w3.org/2000/svg" xmlns:xlink="http://www.w3.org/1999/xlink" x="0px" y="0px"
	 viewBox="0 0 525.3 66" style="enable-background:new 0 0 525.3 66;" xml:space="preserve">
<style type="text/css">
	.st0{fill:#38D430;}
	.st1{fill:#FFFFFF;}
	.st2{fill:#001689;}
	.st3{fill:#70D14D;}
</style>
<g>
	<g id="Capa_1_1_">
		<g id="Modo_de_aislamiento">
			<path class="st0" d="M42.3,50.8H45v1h-1.6v1h1v0.9h-1v1.8h-1.2V50.8z"/>
			<path class="st0" d="M48.5,50.8h1.7l1.4,4.7h-1.2l-0.2-0.8h-1.6l-0.2,0.8h-1.2L48.5,50.8z M48.8,53.7h1l-0.4-1.2
				c-0.1-0.1-0.1-0.4-0.1-0.4h-0.1c0,0-0.1,0.2-0.1,0.4L48.8,53.7z"/>
			<path class="st0" d="M56.9,53.7l1.1,1.8h-1.4l-1-1.6h-0.2v1.6h-1.2v-4.7H56c0.4-0.1,0.8,0.1,1.2,0.4c0.3,0.3,0.5,0.7,0.5,1.2
				C57.8,52.9,57.5,53.4,56.9,53.7L56.9,53.7z M56.4,51.9c-0.1-0.1-0.2-0.1-0.4-0.1h-0.6V53h0.6c0.1,0,0.3-0.1,0.4-0.1
				c0.1-0.1,0.1-0.3,0.1-0.5C56.6,52.2,56.5,52,56.4,51.9L56.4,51.9z"/>
			<path class="st0" d="M63.4,54.9h-0.6L62,53.2c-0.1-0.1-0.1-0.3-0.1-0.4h-0.1c0,0,0.1,0.5,0.1,0.7v2h-1.2v-4.7H62l1.1,2.5h0.1
				l1.1-2.5h1.3v4.7h-1.2v-2c0-0.2,0.1-0.7,0.1-0.7h-0.1c-0.1,0.1-0.1,0.3-0.1,0.4L63.4,54.9z"/>
			<path class="st0" d="M69.7,50.8h1.7l1.4,4.7h-1.2l-0.2-0.8h-1.6l-0.2,0.8h-1.2L69.7,50.8z M70,53.7h1l-0.4-1.2
				c-0.1-0.1-0.1-0.4-0.1-0.4h-0.1c0,0-0.1,0.2-0.1,0.4L70,53.7z"/>
			<path class="st0" d="M78.7,55.2c-0.4,0.2-0.9,0.4-1.4,0.3c-0.5,0-1-0.1-1.4-0.4s-0.7-0.8-0.7-2c0-1.3,0.2-1.7,0.6-2
				c0.4-0.4,0.9-0.5,1.4-0.5c0.4,0,0.8,0.1,1.2,0.2l-0.2,1c-0.2-0.1-0.5-0.1-0.8-0.1c-0.2,0-0.5,0.1-0.7,0.2
				c-0.2,0.1-0.3,0.5-0.3,1.2c0,0.7,0.1,1.1,0.3,1.2c0.2,0.2,0.5,0.2,0.7,0.2c0.4,0,0.7-0.1,1-0.2L78.7,55.2z"/>
			<path class="st0" d="M81.3,50.8h1.2v4.7h-1.2V50.8z"/>
			<path class="st0" d="M86.6,50.8h1.7l1.4,4.7h-1.2l-0.2-0.8h-1.6l-0.2,0.8h-1.2L86.6,50.8z M86.9,53.7h1l-0.4-1.2
				c-0.1-0.1-0.1-0.4-0.1-0.4h-0.1c0,0-0.1,0.2-0.1,0.4L86.9,53.7z"/>
			<path class="st0" d="M94.1,55.6c-0.6,0-1.2-0.1-1.7-0.4l0.2-1c0.4,0.2,0.9,0.3,1.4,0.4c0.4,0,0.6-0.1,0.6-0.5
				c0-0.2-0.1-0.4-0.4-0.5l-0.5-0.1c-0.8-0.2-1.3-0.5-1.3-1.4s0.6-1.4,1.7-1.4c0.5,0,1,0.1,1.4,0.4l-0.4,1c-0.3-0.2-0.7-0.2-1.1-0.2
				c-0.4,0-0.5,0.2-0.5,0.4c0,0.2,0.1,0.4,0.3,0.4l0.5,0.1c0.8,0.2,1.4,0.5,1.4,1.4C95.7,55,95.3,55.6,94.1,55.6z"/>
			<path class="st1" d="M72.9,31.2c-0.7,1.4-1.6,5.2-0.4,8.1c1.3,3.1,3.9,5.3,8.6,5.3c4.7,0,6.9-2.4,6.9-2.4
				c2.4,3.8,7.9,1.9,7.9,1.9l-0.1-4h-1.3c-1.1,0-1.3-1.1-1.3-2.1V27.3c-2.7-1.3-9.3-1.7-12.5-1.2C80.9,26.1,74.8,26.8,72.9,31.2z
				 M87.2,37.8c0,0-1.3,1.9-4.4,1.9c-2.9,0-4.2-1.5-4.4-3.1c-0.2-1.6-0.4-6,5.4-6c1.2-0.1,2.4,0.2,3.5,0.6L87.2,37.8L87.2,37.8z"/>
			<path class="st1" d="M60,39.3l6.4-6.1c1.2-1.1,2.4-2.3,3.4-3.6l-0.1-3.4H50.6v5.1h9.6c-4.1,3.8-10.1,9.6-10.1,9.6v3.4h20.1
				l-0.1-4.8L60,39.3z"/>
			<path class="st1" d="M41.7,26.1l-5,12.1L32,26.1h-7.1l7.8,18.7c-0.2,0.2-0.5,0.4-0.8,0.5c-0.5,0.3-1.1,0.5-1.7,0.6
				c-0.5,0.1-1,0.1-1.5,0.2c-0.5,0-1,0-1.4,0l-1,4.5c1,0.1,2.2,0.1,3.6,0.1c2,0.1,3.9-0.3,5.7-1.1c1.4-0.6,2.6-1.6,3.6-2.8
				c0.2-0.2,0.4-0.5,0.6-0.8c0.2-0.2,0.4-0.5,0.5-0.8l8.6-19.2L41.7,26.1L41.7,26.1z"/>
			<path class="st0" d="M106.6,26.1v3.6c0,2.2,1.8,4,4,4s4-1.8,4-4l0,0v-3.6h3.6c2.2,0,4-1.8,4-4s-1.8-4-4-4l0,0h-3.6v-3.6
				c-0.1-2.2-2-3.9-4.3-3.8c-2,0.1-3.7,1.7-3.8,3.8V18H103c-2.2,0-4,1.8-4,4s1.8,4,4,4H106.6z"/>
			<path class="st2" d="M114.6,19.1c0-0.2,0.2-0.4,0.4-0.4l0,0c0.2,0,0.4,0.2,0.4,0.4l0,0c0,0.2-0.2,0.4-0.4,0.4
				C114.8,19.5,114.6,19.3,114.6,19.1L114.6,19.1z"/>
			<path class="st2" d="M116.2,19.1c0-0.2,0.1-0.3,0.3-0.3s0.3,0.1,0.3,0.3c0,0.2-0.1,0.3-0.3,0.3S116.2,19.3,116.2,19.1L116.2,19.1
				z"/>
			<path class="st2" d="M117.7,19.1c0-0.1,0.1-0.2,0.2-0.2s0.2,0.1,0.2,0.2c0,0.1-0.1,0.2-0.1,0.2C117.9,19.3,117.7,19.3,117.7,19.1
				L117.7,19.1z"/>
			<path class="st2" d="M119.3,19.1c0-0.1,0.1-0.1,0.1-0.1c0.1,0,0.1,0.1,0.1,0.1c0,0.1-0.1,0.1-0.1,0.1
				C119.3,19.3,119.3,19.2,119.3,19.1z"/>
			<path class="st2" d="M119.3,20.6c0-0.1,0.1-0.1,0.1-0.1c0.1,0,0.1,0.1,0.1,0.1l0,0c0,0.1-0.1,0.1-0.1,0.1
				C119.3,20.7,119.3,20.6,119.3,20.6z"/>
			<path class="st2" d="M119.3,22c0-0.1,0.1-0.1,0.1-0.1c0.1,0,0.1,0.1,0.1,0.1c0,0.1-0.1,0.1-0.1,0.1
				C119.3,22.1,119.3,22.1,119.3,22L119.3,22z"/>
			<path class="st2" d="M119.3,23.5c0-0.1,0.1-0.1,0.1-0.1c0.1,0,0.1,0.1,0.1,0.1c0,0.1-0.1,0.1-0.1,0.1
				C119.3,23.7,119.3,23.6,119.3,23.5L119.3,23.5z"/>
			<path class="st2" d="M119.3,25c0-0.1,0.1-0.1,0.1-0.1c0.1,0,0.1,0.1,0.1,0.1l0,0c0,0.1-0.1,0.1-0.1,0.1
				C119.3,25.1,119.3,25,119.3,25z"/>
			<path class="st2" d="M115.4,19.9c0-0.2,0.1-0.3,0.3-0.3c0.2,0,0.3,0.1,0.3,0.3s-0.1,0.3-0.3,0.3l0,0
				C115.5,20.2,115.4,20,115.4,19.9L115.4,19.9z"/>
			<path class="st2" d="M117,19.9c0-0.1,0.1-0.2,0.2-0.2s0.2,0.1,0.2,0.2c0,0.1-0.1,0.2-0.2,0.2S117,20,117,19.9L117,19.9z"/>
			<path class="st2" d="M118.5,19.9c0-0.1,0.1-0.1,0.1-0.1s0.1,0.1,0.2,0.1c0,0.1-0.1,0.1-0.1,0.2h-0.1
				C118.5,20,118.5,19.9,118.5,19.9z"/>
			<path class="st2" d="M114.6,20.6c0-0.2,0.2-0.4,0.4-0.4l0,0c0.2,0,0.4,0.2,0.4,0.4c0,0.2-0.2,0.4-0.4,0.4l0,0
				C114.8,20.9,114.6,20.8,114.6,20.6L114.6,20.6z"/>
			<path class="st2" d="M116.2,20.6c0-0.2,0.1-0.3,0.3-0.3s0.3,0.1,0.3,0.3s-0.1,0.3-0.3,0.3S116.2,20.8,116.2,20.6L116.2,20.6z"/>
			<path class="st2" d="M117.7,20.6c0-0.1,0.1-0.2,0.2-0.2s0.2,0.1,0.2,0.2c0,0.1-0.1,0.2-0.2,0.2S117.7,20.7,117.7,20.6z"/>
			<path class="st2" d="M115.4,21.3c0-0.2,0.1-0.3,0.3-0.3c0.2,0,0.3,0.1,0.3,0.3s-0.1,0.3-0.3,0.3l0,0
				C115.5,21.6,115.4,21.5,115.4,21.3z"/>
			<path class="st2" d="M117,21.3c0-0.1,0.1-0.2,0.2-0.2s0.2,0.1,0.2,0.2s-0.1,0.2-0.2,0.2S117,21.5,117,21.3
				C117,21.4,117,21.4,117,21.3z"/>
			<path class="st2" d="M118.5,21.3c0-0.1,0.1-0.1,0.1-0.1s0.1,0.1,0.2,0.1c0,0.1-0.1,0.1-0.1,0.2h-0.1
				C118.5,21.4,118.5,21.4,118.5,21.3z"/>
			<path class="st2" d="M114.6,22c0-0.2,0.2-0.4,0.4-0.4l0,0c0.2,0,0.4,0.2,0.4,0.4s-0.2,0.4-0.4,0.4l0,0
				C114.8,22.4,114.6,22.3,114.6,22z"/>
			<path class="st2" d="M116.2,22c0-0.2,0.1-0.3,0.3-0.3s0.3,0.1,0.3,0.3s-0.1,0.3-0.3,0.3S116.2,22.2,116.2,22L116.2,22z"/>
			<path class="st2" d="M117.7,22c0-0.1,0.1-0.2,0.2-0.2s0.2,0.1,0.2,0.2c0,0.1-0.1,0.2-0.2,0.2S117.7,22.1,117.7,22L117.7,22z"/>
			<path class="st2" d="M115.4,22.7c0-0.2,0.1-0.3,0.3-0.3c0.2,0,0.3,0.1,0.3,0.3s-0.1,0.3-0.3,0.3l0,0
				C115.5,23,115.4,22.9,115.4,22.7z"/>
			<path class="st2" d="M117,22.7c0-0.1,0.1-0.2,0.2-0.2s0.2,0.1,0.2,0.2s-0.1,0.2-0.2,0.2l0,0C117,23,117,22.9,117,22.7z"/>
			<path class="st2" d="M118.5,22.7c0-0.1,0.1-0.1,0.1-0.1s0.1,0.1,0.1,0.1c0,0.1-0.1,0.1-0.1,0.1C118.5,22.9,118.5,22.9,118.5,22.7
				z"/>
			<path class="st2" d="M114.6,23.5c0-0.2,0.2-0.4,0.4-0.4l0,0c0.2,0,0.4,0.2,0.4,0.4l0,0c0,0.2-0.2,0.4-0.4,0.4
				C114.8,23.9,114.6,23.7,114.6,23.5L114.6,23.5z"/>
			<path class="st2" d="M116.2,23.5c0-0.2,0.1-0.3,0.3-0.3s0.3,0.1,0.3,0.3s-0.1,0.3-0.3,0.3S116.2,23.7,116.2,23.5L116.2,23.5z"/>
			<path class="st2" d="M117.7,23.5c0-0.1,0.1-0.2,0.2-0.2s0.2,0.1,0.2,0.2s-0.1,0.2-0.2,0.2S117.7,23.7,117.7,23.5L117.7,23.5z"/>
			<path class="st2" d="M115.4,24.3c0.1-0.2,0.2-0.3,0.4-0.2c0.1,0,0.2,0.1,0.2,0.2c-0.1,0.2-0.2,0.3-0.4,0.2
				C115.5,24.4,115.5,24.4,115.4,24.3z"/>
			<path class="st2" d="M117,24.3c0-0.1,0.1-0.2,0.2-0.2s0.2,0.1,0.2,0.2c0,0.1-0.1,0.2-0.2,0.2l0,0C117,24.4,117,24.4,117,24.3
				L117,24.3z"/>
			<path class="st2" d="M118.5,24.3c0-0.1,0.1-0.1,0.1-0.1s0.1,0.1,0.2,0.1c0,0.1-0.1,0.1-0.1,0.2h-0.1
				C118.5,24.4,118.5,24.3,118.5,24.3z"/>
			<path class="st2" d="M114.6,25c0-0.2,0.2-0.4,0.4-0.4l0,0c0.2,0,0.4,0.2,0.4,0.4s-0.2,0.4-0.4,0.4
				C114.8,25.3,114.6,25.2,114.6,25L114.6,25z"/>
			<path class="st2" d="M116.2,25c0-0.2,0.1-0.3,0.3-0.3s0.3,0.1,0.3,0.3l0,0c0,0.2-0.1,0.3-0.3,0.3S116.2,25.1,116.2,25z"/>
			<path class="st2" d="M117.7,25c0-0.1,0.1-0.2,0.2-0.2s0.2,0.1,0.2,0.2s-0.1,0.2-0.2,0.2C117.8,25.2,117.7,25.1,117.7,25z"/>
			<path class="st2" d="M113.5,26.1c0.2,0,0.4,0.2,0.4,0.4l0,0c0,0.2-0.2,0.4-0.4,0.4l0,0c-0.2,0-0.4-0.2-0.4-0.4l0,0
				C113.1,26.3,113.3,26.1,113.5,26.1z"/>
			<path class="st2" d="M113.5,27.6c0.2,0,0.3,0.1,0.3,0.3c0,0.2-0.1,0.3-0.3,0.3c-0.2,0-0.3-0.1-0.3-0.3
				C113.2,27.8,113.4,27.6,113.5,27.6L113.5,27.6z"/>
			<path class="st2" d="M113.5,29.2c0.1,0,0.2,0.1,0.2,0.2c0,0.1-0.1,0.2-0.2,0.2l0,0c-0.1,0-0.2-0.1-0.2-0.2
				C113.3,29.3,113.4,29.2,113.5,29.2L113.5,29.2z"/>
			<path class="st2" d="M113.5,30.8c0.1,0,0.1,0.1,0.1,0.1c0,0.1-0.1,0.1-0.1,0.1c-0.1,0-0.1-0.1-0.1-0.1
				C113.4,30.8,113.4,30.8,113.5,30.8L113.5,30.8z"/>
			<path class="st2" d="M112,30.8c0.1,0,0.1,0.1,0.1,0.1c0,0.1-0.1,0.1-0.1,0.1l0,0c-0.1,0-0.1-0.1-0.1-0.1
				C112,30.8,112,30.8,112,30.8z"/>
			<path class="st2" d="M110.6,30.8c0.1,0,0.1,0.1,0.1,0.1c0,0.1-0.1,0.1-0.1,0.1c-0.1,0-0.1-0.1-0.1-0.1S110.5,30.8,110.6,30.8
				L110.6,30.8z"/>
			<path class="st2" d="M109.1,30.8c0.1,0,0.1,0.1,0.1,0.1c0,0.1-0.1,0.1-0.1,0.1c-0.1,0-0.1-0.1-0.1-0.1S109.1,30.8,109.1,30.8
				L109.1,30.8z"/>
			<path class="st2" d="M107.7,30.8c0.1,0,0.1,0.1,0.1,0.1c0,0.1-0.1,0.1-0.1,0.1l0,0c-0.1,0-0.1-0.1-0.1-0.1S107.6,30.8,107.7,30.8
				z"/>
			<path class="st2" d="M112.8,26.9c0.2,0.1,0.3,0.2,0.2,0.4c0,0.1-0.1,0.2-0.2,0.2c-0.2-0.1-0.3-0.2-0.2-0.4
				C112.6,27,112.6,26.9,112.8,26.9z"/>
			<path class="st2" d="M112.8,28.5c0.1,0,0.2,0.1,0.2,0.2s-0.1,0.2-0.2,0.2c-0.1,0-0.2-0.1-0.2-0.2l0,0
				C112.5,28.5,112.6,28.5,112.8,28.5L112.8,28.5z"/>
			<path class="st2" d="M112.8,30c0.1,0,0.1,0.1,0.1,0.1c0,0.1-0.1,0.1-0.1,0.2c-0.1,0-0.1-0.1-0.2-0.1v-0.1
				C112.6,30,112.7,30,112.8,30L112.8,30z"/>
			<path class="st2" d="M112,26.1c0.2,0,0.4,0.2,0.4,0.4s-0.2,0.4-0.4,0.4l0,0c-0.2,0-0.4-0.2-0.4-0.4l0,0
				C111.7,26.3,111.9,26.1,112,26.1L112,26.1z"/>
			<path class="st2" d="M112,27.6c0.2,0,0.3,0.1,0.3,0.3c0,0.2-0.1,0.3-0.3,0.3c-0.2,0-0.3-0.1-0.3-0.3
				C111.7,27.8,111.9,27.6,112,27.6L112,27.6z"/>
			<path class="st2" d="M112,29.2c0.1,0,0.2,0.1,0.2,0.2c0,0.1-0.1,0.2-0.2,0.2l0,0c-0.1,0-0.2-0.1-0.2-0.2
				C111.9,29.3,111.9,29.2,112,29.2L112,29.2z"/>
			<path class="st2" d="M111.3,26.9c0.2,0.1,0.3,0.2,0.2,0.4c0,0.1-0.1,0.2-0.2,0.2c-0.2-0.1-0.3-0.2-0.2-0.4
				C111.1,27,111.2,26.9,111.3,26.9z"/>
			<path class="st2" d="M111.3,28.5c0.1,0,0.2,0.1,0.2,0.2s-0.1,0.2-0.2,0.2s-0.2-0.1-0.2-0.2S111.1,28.5,111.3,28.5
				C111.3,28.4,111.3,28.4,111.3,28.5z"/>
			<path class="st2" d="M111.3,30c0.1,0,0.1,0.1,0.1,0.1l0,0c0,0.1-0.1,0.1-0.1,0.2c-0.1,0-0.1-0.1-0.2-0.1v-0.1
				C111.2,30,111.3,30,111.3,30z"/>
			<path class="st2" d="M110.6,26.1c0.2,0,0.4,0.2,0.4,0.4l0,0c0,0.2-0.2,0.4-0.4,0.4c-0.2,0-0.4-0.2-0.4-0.4S110.4,26.1,110.6,26.1
				L110.6,26.1z"/>
			<path class="st2" d="M110.6,27.6c0.2,0,0.3,0.1,0.3,0.3c0,0.2-0.1,0.3-0.3,0.3c-0.2,0-0.3-0.1-0.3-0.3
				C110.3,27.8,110.4,27.6,110.6,27.6L110.6,27.6z"/>
			<path class="st2" d="M110.6,29.2c0.1,0,0.2,0.1,0.2,0.2c0,0.1-0.1,0.2-0.2,0.2s-0.2-0.1-0.2-0.2
				C110.4,29.3,110.5,29.2,110.6,29.2L110.6,29.2z"/>
			<path class="st2" d="M109.9,26.9c0.2,0,0.3,0.1,0.3,0.3s-0.1,0.3-0.3,0.3s-0.3-0.1-0.3-0.3l0,0C109.6,27,109.7,26.9,109.9,26.9z"
				/>
			<path class="st2" d="M109.9,28.5c0.1,0,0.2,0.1,0.2,0.2S110,29,109.9,29s-0.2-0.1-0.2-0.2l0,0C109.6,28.5,109.7,28.4,109.9,28.5z
				"/>
			<path class="st2" d="M109.9,30c0.1,0,0.1,0.1,0.1,0.1s-0.1,0.1-0.1,0.1c-0.1,0-0.1-0.1-0.1-0.1C109.7,30,109.8,30,109.9,30z"/>
			<path class="st2" d="M109.1,26.1c0.2,0,0.4,0.2,0.4,0.4l0,0c0,0.2-0.2,0.4-0.4,0.4s-0.4-0.2-0.4-0.4S108.9,26.1,109.1,26.1
				L109.1,26.1z"/>
			<path class="st2" d="M109.1,27.6c0.2,0,0.3,0.1,0.3,0.3c0,0.2-0.1,0.3-0.3,0.3s-0.3-0.1-0.3-0.3C108.8,27.8,109,27.6,109.1,27.6
				L109.1,27.6z"/>
			<path class="st2" d="M109.1,29.2c0.1,0,0.2,0.1,0.2,0.2c0,0.1-0.1,0.2-0.2,0.2s-0.2-0.1-0.2-0.2C108.9,29.3,109,29.2,109.1,29.2
				L109.1,29.2z"/>
			<path class="st2" d="M108.4,26.9c0.2,0.1,0.3,0.2,0.2,0.4c0,0.1-0.1,0.2-0.2,0.2c-0.2-0.1-0.3-0.2-0.2-0.4
				C108.2,27,108.3,26.9,108.4,26.9z"/>
			<path class="st2" d="M108.4,28.5c0.1,0,0.2,0.1,0.2,0.2s-0.1,0.2-0.2,0.2s-0.2-0.1-0.2-0.2l0,0C108.2,28.5,108.3,28.5,108.4,28.5
				L108.4,28.5z"/>
			<path class="st2" d="M108.4,30c0.1,0,0.1,0.1,0.1,0.1c0,0.1-0.1,0.1-0.1,0.2c-0.1,0-0.1-0.1-0.2-0.1v-0.1
				C108.2,30,108.3,30,108.4,30L108.4,30z"/>
			<path class="st2" d="M107.7,26.1c0.2,0,0.4,0.2,0.4,0.4l0,0c0,0.2-0.2,0.4-0.4,0.4c-0.2,0-0.4-0.2-0.4-0.4
				C107.3,26.3,107.5,26.1,107.7,26.1z"/>
			<path class="st2" d="M107.7,27.6c0.2,0,0.3,0.1,0.3,0.3c0,0.2-0.1,0.3-0.3,0.3c-0.2,0-0.3-0.1-0.3-0.3
				C107.4,27.8,107.5,27.6,107.7,27.6L107.7,27.6z"/>
			<path class="st2" d="M107.7,29.2c0.1,0,0.2,0.1,0.2,0.2c0,0.1-0.1,0.2-0.2,0.2s-0.2-0.1-0.2-0.2
				C107.5,29.3,107.6,29.2,107.7,29.2z"/>
			<path class="st1" d="M103.1,44.1c-1.9,0-3.4-1.5-3.4-3.4c0-1.9,1.5-3.4,3.4-3.4s3.4,1.5,3.4,3.4l0,0
				C106.5,42.6,104.9,44.1,103.1,44.1L103.1,44.1z M103.1,37.7c-1.7,0-3,1.3-3,3c0,1.7,1.3,3,3,3c1.7,0,3-1.3,3-3
				S104.7,37.7,103.1,37.7z M102,38.9h1.3c0.5,0,0.9,0.4,0.9,0.8c0,0.1,0,0.1,0,0.1c0.1,0.5-0.3,0.9-0.8,1l1.1,1.5H104l-1-1.5h-0.6
				v1.5H102V38.9z M103.1,39.3h-0.8v1.3h0.7c0.4,0,0.7-0.1,0.7-0.7C103.8,39.5,103.6,39.3,103.1,39.3z"/>
		</g>
	</g>
	<g id="Modo_de_aislamiento_1_">
		<g>
			<path class="st3" d="M418.4,39c-0.7,0.4-1.7,0.7-3,0.7c-1.2,0-2.4-0.4-3.1-1c-0.8-0.7-1.4-1.8-1.4-4.6c0-2.7,0.5-3.7,1.3-4.5
				c0.8-0.7,1.9-1.1,3.1-1.1c1.1,0,1.9,0.2,2.6,0.5l-0.4,1.5c-0.7-0.2-1.3-0.4-2-0.4s-1.4,0.2-1.9,0.7c-0.4,0.4-0.8,1.3-0.8,3.3
				c0,2,0.4,2.8,0.8,3.3c0.4,0.4,1.1,0.6,1.9,0.6c0.9,0,1.7-0.2,2.4-0.5L418.4,39z"/>
			<path class="st3" d="M425.2,37c0,0.5,0.1,0.7,0.5,0.8l0.3,0.1c-0.2,0.5-0.4,1.4-0.5,1.6c-1.1-0.1-1.7-0.4-2-1.1h-0.1
				c-0.4,0.6-1.1,1.1-2.2,1.1c-1.6,0-2.4-0.9-2.4-2.7v-5.1h1.9v4.9c0,1,0.5,1.3,1,1.3c1,0,1.6-0.8,1.6-2.2v-4h1.9L425.2,37L425.2,37
				z"/>
			<path class="st3" d="M428.4,39.4h-1.9v-7.7h1.9V39.4z M429.6,29.7l-1.9,1.2h-1l1.3-1.7c0.4-0.4,0.8-0.5,1.3-0.5
				c0.4,0,0.6,0.2,0.6,0.5C429.9,29.4,429.8,29.6,429.6,29.7z"/>
			<path class="st3" d="M436.3,37c0,0.5,0.1,0.7,0.5,0.8l0.2,0.1l-0.5,1.6c-1-0.1-1.6-0.4-2-1h-0.1c-0.5,0.7-1.1,1-2.2,1
				c-1.7,0-2.7-1.1-2.7-4c0-3.3,1.3-4,2.8-4c0.8,0,1.6,0.4,2,1.1l0.1-0.1c0,0-0.1-0.4-0.1-0.6v-3.7h1.9V37z M434.4,35.2
				c0-1-0.6-1.9-1.6-1.9c-0.4,0-0.7,0.1-0.9,0.4c-0.3,0.3-0.5,0.8-0.5,2c0,2.1,0.7,2.4,1.4,2.4c0.8,0,1.6-0.8,1.6-1.7V35.2z"/>
			<path class="st3" d="M444.7,37.9l-0.5,1.6c-1-0.1-1.7-0.4-2-1h-0.1c-0.5,0.6-1.3,1-2.4,1c-1.4,0-2.4-0.8-2.4-2.3
				c0-1.3,0.7-2.3,2.6-2.5c0.8-0.1,1.9-0.2,2.2-0.2v-0.2c0-0.8-0.4-1-1.3-1c-0.7,0-1.7,0.2-2.7,0.6l-0.4-1.4c1-0.4,2.2-0.7,3.2-0.7
				c2.2,0,3.1,1,3.1,2.5v2.9c0,0.5,0.2,0.7,0.5,0.8H444.7z M442.1,36c-0.2,0.1-1.3,0.1-1.9,0.2c-0.8,0.1-1,0.5-1,1
				c0,0.5,0.4,0.8,1,0.8c0.7,0,1.6-0.4,2-0.8L442.1,36L442.1,36z"/>
			<path class="st3" d="M449.1,38.1l-0.3,1.5c-2.2,0-3.2-0.5-3.2-2.7v-3.6h-1v-1.5h1v-1.9l1.9-0.4v2.4h1.6v1.5h-1.6v3.3
				c0,1.1,0.4,1.4,1.3,1.4H449.1z"/>
			<path class="st3" d="M455.9,38.8c-0.5,0.4-1.7,0.8-3,0.8c-2.5,0-3.6-0.8-3.6-4c0-3.2,1.2-4,3.4-4s3.2,1.1,3.2,3.1
				c0,0.7-0.1,1.3-0.1,1.3h-4.7v0.1c0,1.4,0.5,1.8,1.8,1.8c0.9,0,1.7-0.2,2.5-0.5L455.9,38.8z M454.2,34.7c0-1.1-0.3-1.4-1.4-1.4
				c-1,0-1.6,0.3-1.6,1.4H454.2z"/>
			<path class="st1" d="M466.5,32.9L466.5,32.9c0.5-0.8,1.3-1.3,2.4-1.3c1.4,0,2.2,1,2.2,2.5v5.2h-2.3v-4.8c0-0.8-0.2-1.1-0.7-1.1
				c-0.7,0-1.3,0.6-1.3,1.8v4.1h-2.3v-4.8c0-0.8-0.3-1.1-0.7-1.1c-0.7,0-1.3,0.6-1.3,1.9v4h-2.3v-7.6h1.6l0.5,1h0.1
				c0.5-0.7,1.2-1.1,2.1-1.1C465.6,31.7,466.2,32.1,466.5,32.9z"/>
			<path class="st1" d="M479.5,37.7c-0.2,0.6-0.5,1.9-0.5,1.9c-1.1,0-1.9-0.4-2.4-1h-0.1c-0.4,0.5-1.1,1-2.1,1
				c-1.6,0-2.4-0.8-2.4-2.8v-5h2.3v4.8c0,0.9,0.4,1.1,0.8,1.1c0.8,0,1.3-0.7,1.3-2v-3.9h2.3v4.9c0,0.6,0.2,0.8,0.5,0.8L479.5,37.7z"
				/>
			<path class="st1" d="M485.3,39.1c-0.5,0.2-1.4,0.5-2.2,0.5c-1.1,0-2-0.2-2.5-0.8c-0.5-0.4-0.9-1.2-0.9-3.2c0-2,0.5-2.8,1-3.3
				c0.5-0.5,1.4-0.7,2.4-0.7c0.8,0,1.6,0.1,2.1,0.4l-0.4,1.7c-0.4-0.1-0.8-0.2-1.4-0.2c-1,0-1.4,0.4-1.4,1.9c0,1.9,0.4,2.2,1.4,2.2
				c0.5,0,1.1-0.2,1.5-0.3C485.1,38,485.2,38.5,485.3,39.1z"/>
			<path class="st1" d="M492.7,39.4h-2.3v-4.8c0-0.8-0.3-1.1-0.8-1.1c-0.8,0-1.3,0.7-1.3,1.9v4h-2.3V28.4h2.3V32
				c0,0.3-0.1,0.6-0.1,0.7c0.1,0,0.1,0,0.1,0c0.5-0.7,1.2-1,2.1-1c1.5,0,2.2,1,2.2,2.5L492.7,39.4L492.7,39.4z"/>
			<path class="st1" d="M497,39.6c-2.8,0-3.4-1.7-3.4-4c0-2,0.5-4,3.4-4c2.8,0,3.4,1.7,3.4,4C500.4,37.7,499.9,39.6,497,39.6z
				 M497,33.5c-1,0-1.1,0.7-1.1,2.1c0,1.3,0.1,2.1,1.1,2.1s1.1-0.7,1.1-2.1C498,34.3,497.9,33.5,497,33.5z"/>
		</g>
	</g>
</g>
</svg>
