<svg viewBox="0 0 50 15.47" xmlns="http://www.w3.org/2000/svg"><rect height="14.63" rx="1.83" width="49.38" x=".31" y=".42"/><path d="m47.86.71a1.54 1.54 0 0 1 1.54 1.54v11a1.54 1.54 0 0 1 -1.54 1.54h-45.72a1.54 1.54 0 0 1 -1.54-1.57v-11a1.54 1.54 0 0 1 1.54-1.51zm0-.29h-45.72a1.83 1.83 0 0 0 -1.83 1.83v11a1.83 1.83 0 0 0 1.83 1.83h45.72a1.83 1.83 0 0 0 1.83-1.83v-11a1.83 1.83 0 0 0 -1.83-1.83z" fill="#a5a5a5"/><g fill="#fff"><path d="m15.41 5.17v-2.17h.67a1 1 0 0 1 1.11 1.1 1.08 1.08 0 0 1 -.3.79 1.09 1.09 0 0 1 -.81.3zm.28-.26h.39a.83.83 0 0 0 .6-.22.82.82 0 0 0 .23-.61.82.82 0 0 0 -.23-.61.79.79 0 0 0 -.6-.22h-.39z"/><path d="m15.41 5.17v-2.17h.63a1 1 0 0 1 .78.29 1 1 0 0 1 .3.77 1 1 0 0 1 -.3.76 1 1 0 0 1 -.78.3h-.67.67a1.13 1.13 0 0 0 .84-.31 1.12 1.12 0 0 0 .31-.82 1.12 1.12 0 0 0 -.31-.82 1.14 1.14 0 0 0 -.84-.32h-.71v2.36zm.28-.26h.39a.85.85 0 0 0 .63-.23.82.82 0 0 0 .23-.63.85.85 0 0 0 -.23-.64.89.89 0 0 0 -.63-.23h-.42v1.76-1.65h.35a.82.82 0 0 1 .58.2.79.79 0 0 1 .21.59.73.73 0 0 1 -.79.79h-.39z"/><path d="m17.59 2.98h.28v2.19h-.28z"/><path d="m17.59 5.17h.04v-2.15h.2v2.12h-.24v.03h.04-.04v.04h.28.04v-2.27h-.32-.04v2.27h.04z"/><path d="m19 5.22a.81.81 0 0 1 -.46-.15.68.68 0 0 1 -.3-.44l.25-.1a.67.67 0 0 0 .19.3.49.49 0 0 0 .32.17.55.55 0 0 0 .32-.09.33.33 0 0 0 .13-.26.36.36 0 0 0 -.13-.29 1.46 1.46 0 0 0 -.41-.18 1.06 1.06 0 0 1 -.45-.24.5.5 0 0 1 -.15-.37.55.55 0 0 1 .19-.41.67.67 0 0 1 .5-.23.73.73 0 0 1 .45.14.66.66 0 0 1 .23.31l-.26.1-.14-.19a.41.41 0 0 0 -.28-.09.42.42 0 0 0 -.27.09l-.12.23.11.2a1 1 0 0 0 .31.16 1.18 1.18 0 0 1 .27.1l.22.13.17.2a.64.64 0 0 1 0 .56l-.18.2-.23.12z"/><path d="m19 5.22a.75.75 0 0 1 -.45-.22.7.7 0 0 1 -.29-.42l.26-.1a.63.63 0 0 0 .2.33.5.5 0 0 0 .28.19.55.55 0 0 0 .34-.1.36.36 0 0 0 .14-.29.37.37 0 0 0 -.14-.32 1.39 1.39 0 0 0 -.42-.19 1.08 1.08 0 0 1 -.43-.23.46.46 0 0 1 -.14-.34.51.51 0 0 1 .18-.39.61.61 0 0 1 .47-.14.65.65 0 0 1 .43.13.57.57 0 0 1 .21.29l-.23.1-.12-.17a.52.52 0 0 0 -.31-.1.54.54 0 0 0 -.3.1l-.11.23.11.22a1.27 1.27 0 0 0 .33.16l.26.1.22.13.16.19a.76.76 0 0 1 .05.27.6.6 0 0 1 -.06.27l-.18.08-.22.11h-.25v.07h.26l.23-.11.18-.2a.6.6 0 0 0 .07-.3.73.73 0 0 0 -.06-.3l-.17-.21-.2-.06-.3-.16a.94.94 0 0 1 -.3-.14l-.1-.19.11-.21a.41.41 0 0 1 .29-.06.4.4 0 0 1 .26.08l.14.19.28-.12a.69.69 0 0 0 -.23-.39.72.72 0 0 0 -.45-.11.73.73 0 0 0 -.51.19.55.55 0 0 0 -.2.44.5.5 0 0 0 .16.39 1 1 0 0 0 .45.25 1.39 1.39 0 0 1 .4.18.3.3 0 0 1 .12.26.28.28 0 0 1 -.11.23.49.49 0 0 1 -.3.09.42.42 0 0 1 -.29-.12.57.57 0 0 1 -.18-.28l-.3.12a.83.83 0 0 0 .31.46.86.86 0 0 0 .49.16z"/><path d="m20.41 5.17h-.28v-2.17h.75a.66.66 0 0 1 .48.19.58.58 0 0 1 .2.46.59.59 0 0 1 -.2.47.71.71 0 0 1 -.48.19h-.47zm0-1.15h.47a.37.37 0 0 0 .29-.12.4.4 0 0 0 .11-.27.4.4 0 0 0 -.11-.26.37.37 0 0 0 -.29-.12h-.47z"/><path d="m20.41 5.17h-.24v-2.17h.71a.64.64 0 0 1 .46.17.6.6 0 0 1 .19.44.58.58 0 0 1 -.19.44.65.65 0 0 1 -.46.18h-.5v.92-.83h.43a.75.75 0 0 0 .51-.19.69.69 0 0 0 0-1 .76.76 0 0 0 -.51-.2h-.79v2.28h.36zm0-1.15h.47a.41.41 0 0 0 .32-.13.44.44 0 0 0 .11-.29.43.43 0 0 0 -.11-.28.42.42 0 0 0 -.32-.14h-.5v.84-.02-.71h.43a.33.33 0 0 1 .26.1l.1.24-.1.24a.33.33 0 0 1 -.26.11h-.47v.02z"/><path d="m23.71 4.89a1.13 1.13 0 0 1 -1.6 0 1.1 1.1 0 0 1 -.33-.81 1.14 1.14 0 0 1 .33-.82 1.06 1.06 0 0 1 .8-.33 1 1 0 0 1 .8.34 1.1 1.1 0 0 1 .33.81 1.1 1.1 0 0 1 -.33.81zm-1.4-.18a.83.83 0 0 0 .6.24.85.85 0 0 0 .6-.24.88.88 0 0 0 .24-.63.85.85 0 0 0 -.24-.63.82.82 0 0 0 -.6-.25.8.8 0 0 0 -.6.25.85.85 0 0 0 -.24.63.88.88 0 0 0 .24.63z"/><path d="m23.71 4.89a1.11 1.11 0 0 1 -1.56 0 1.09 1.09 0 0 1 -.31-.79 1.08 1.08 0 0 1 .31-.79 1.11 1.11 0 0 1 1.56 0 1.09 1.09 0 0 1 .31.79 1.09 1.09 0 0 1 -.31.79 1.17 1.17 0 0 0 .33-.84 1.17 1.17 0 0 0 -.33-.84 1.16 1.16 0 0 0 -1.66 0 1.17 1.17 0 0 0 -.33.84 1.17 1.17 0 0 0 .33.84 1.18 1.18 0 0 0 1.66 0zm-1.4-.18a.87.87 0 0 0 1.24 0 .89.89 0 0 0 .26-.65.9.9 0 0 0 -.26-.66.87.87 0 0 0 -1.24 0 .9.9 0 0 0 -.26.66.89.89 0 0 0 .26.65.79.79 0 0 1 -.23-.6.81.81 0 0 1 .23-.61.82.82 0 0 1 1.14 0 .81.81 0 0 1 .23.61.79.79 0 0 1 -.23.6.8.8 0 0 1 -1.14 0z"/><path d="m24.43 5.17v-2.19h.35l1.06 1.71h.02l-.02-.43v-1.28h.29v2.19h-.3l-1.12-1.79h-.01l.01.43v1.36z"/><path d="m24.43 5.17h.04v-2.15h.29l1.06 1.7h.04.03l-.01-.46v-1.24h.21v2.12h-.24l-1.12-1.79h-.03-.03l.01.46v1.33h-.25v.03h.04-.04v.04h.28.04v-1.4l-.01-.43h-.04v.04h.01v-.04l-.03.02 1.13 1.81h.32.03v-2.27h-.32-.03v1.32l.01.43h.04v-.04h-.02v.04l.03-.02-1.07-1.73h-.37-.03v2.27h.03z"/><path d="m26.63 2.98h.28v2.19h-.28z"/><path d="m26.63 5.17h.03v-2.15h.21v2.12h-.24v.03h.03-.03v.04h.28.04v-2.27h-.32-.04v2.27h.04z"/><path d="m27.41 5.17v-2.17h.8a.64.64 0 0 1 .44.17.54.54 0 0 1 .19.43.5.5 0 0 1 -.08.27l-.22.13a.52.52 0 0 1 .27.19.48.48 0 0 1 .1.31.58.58 0 0 1 -.19.45.68.68 0 0 1 -.47.17zm.28-1.25h.52a.32.32 0 0 0 .25-.1l.1-.24-.09-.23a.33.33 0 0 0 -.25-.1h-.53zm0 1h.57a.31.31 0 0 0 .26-.12.36.36 0 0 0 .11-.25l-.11-.24a.34.34 0 0 0 -.27-.12h-.56z"/><path d="m27.41 5.17v-2.17h.76a.6.6 0 0 1 .42.16.51.51 0 0 1 .17.4.41.41 0 0 1 -.07.25l-.17.19v.05a.51.51 0 0 1 .25.18.43.43 0 0 1 .1.29.52.52 0 0 1 -.19.42.64.64 0 0 1 -.44.17h-.84.84a.69.69 0 0 0 .5-.11.59.59 0 0 0 .26-.45.58.58 0 0 0 -.11-.34.61.61 0 0 0 -.29-.2v-.01l.21-.18a.48.48 0 0 0 .09-.29.61.61 0 0 0 -.2-.46.67.67 0 0 0 -.47-.18h-.83v2.32zm.28-1.25v.08h.52a.36.36 0 0 0 .28-.12l.09-.23-.1-.24a.34.34 0 0 0 -.27-.12h-.56v.71-.71h.49a.29.29 0 0 1 .22.09l.09.21-.09.22a.3.3 0 0 1 -.23.09h-.52zm0 1h.57a.37.37 0 0 0 .29-.12.43.43 0 0 0 .11-.28l-.1-.25a.41.41 0 0 0 -.3-.12h-.59v.79-.72h.52a.33.33 0 0 1 .25.1l.1.25-.09.23a.3.3 0 0 1 -.24.1h-.57z"/><path d="m29.29 5.17v-2.19h.29v1.93h.95v.26z"/><path d="m29.29 5.17h.04v-2.15h.21v1.92h.95v.2h-1.2v.03h.04-.04v.04h1.24.03v-.3-.04h-.95v-1.93h-.32-.03v2.27h.03z"/><path d="m32.16 3.25h-1v.7h.9v.26h-.9v.7h1v.26h-1.28v-2.19h1.28z"/><path d="m32.16 3.25v-.04h-1-.03v.74.03h.9v.19h-.87-.03v.74.03h1v.2h-1.21v-2.12h1.21v.23h.03v-.04.04h.04v-.27-.04h-1.32-.03v2.27h1.31.04v-.3-.04h-1v-.62h.86.04v-.3-.04h-.9v-.62h.96.04v-.04z"/><path d="m34.62 3.25h-1v.7h.9v.26h-.9v.7h1v.26h-1.28v-2.19h1.28z"/><path d="m34.62 3.25v-.04h-1-.03v.74.03h.9v.19h-.87-.03v.74.03h1v.2h-1.21v-2.12h1.21v.23h.03v-.04.04h.04v-.27-.04h-1.32-.04v2.27h1.32.04v-.3-.04h-1v-.62h.86.04v-.3-.04h-.9v-.62h.96.04v-.04z"/><path d="m35.06 5.17v-2.19h.35l1.06 1.71h.01l-.01-.43v-1.28h.28v2.19h-.29l-1.12-1.79h-.01l.01.43v1.36z"/><path d="m35.06 5.17h.04v-2.15h.28l1.07 1.7h.03.04l-.01-.46v-1.24h.21v2.12h-.24l-1.12-1.79h-.03-.03l.01.46v1.33h-.25v.03h.04-.04v.04h.28.04v-1.4l-.01-.43h-.04v.04h.01v-.04l-.03.02 1.13 1.81h.31.04v-2.27h-.32-.03v1.32l.01.43h.03v-.04h-.01v.04l.03-.02-1.07-1.73h-.37-.03v2.27h.03z"/><path d="m12.43 8.25a1.78 1.78 0 0 1 .84-1.49 1.82 1.82 0 0 0 -1.43-.76c-.61-.06-1.19.36-1.5.36s-.79-.36-1.34-.36a1.93 1.93 0 0 0 -1.57 1c-.69 1.2-.17 3 .49 3.95.34.47.73 1 1.24 1s.68-.32 1.28-.32.78.32 1.3.31.87-.48 1.19-1a4.35 4.35 0 0 0 .55-1.12 1.69 1.69 0 0 1 -1.05-1.57z"/><path d="m11.44 5.34a1.69 1.69 0 0 0 .4-1.25 1.75 1.75 0 0 0 -1.15.59 1.66 1.66 0 0 0 -.41 1.21 1.47 1.47 0 0 0 1.16-.55z"/><path d="m18.73 10.71h-1.73l-.41 1.21h-.69l1.61-4.47h.75l1.61 4.47h-.73zm-1.52-.56h1.35l-.67-2z"/><path d="m23.36 10.29c0 1-.55 1.66-1.36 1.66a1.12 1.12 0 0 1 -1-.57v1.62h-.67v-4.34h.65v.54a1.14 1.14 0 0 1 1-.57c.83 0 1.38.65 1.38 1.66zm-.69 0c0-.66-.34-1.09-.86-1.09s-.81.44-.81 1.09.35 1.1.86 1.1.81-.39.81-1.1z"/><path d="m26.94 10.29c0 1-.54 1.66-1.36 1.66a1.1 1.1 0 0 1 -1-.57v1.62h-.67v-4.34h.65v.54a1.15 1.15 0 0 1 1-.57c.84 0 1.38.65 1.38 1.66zm-.69 0c0-.66-.34-1.09-.86-1.09s-.85.44-.85 1.09.34 1.1.85 1.1.86-.39.86-1.1z"/><path d="m29.31 10.67c.05.45.48.74 1.07.74s1-.29 1-.69-.25-.56-.83-.7l-.58-.14c-.82-.2-1.2-.58-1.2-1.2s.67-1.3 1.63-1.3a1.43 1.43 0 0 1 1.6 1.3h-.67c0-.45-.41-.72-.95-.72s-.91.27-.91.67.24.5.81.64l.49.13c.92.21 1.3.58 1.3 1.23 0 .84-.66 1.36-1.72 1.36s-1.66-.51-1.71-1.32z"/><path d="m33.49 7.89v.77h.62v.53h-.62v1.81a.35.35 0 0 0 .4.4h.22v.53a2.73 2.73 0 0 1 -.37 0c-.66 0-.92-.25-.92-.88v-1.86h-.47v-.53h.47v-.77z"/><path d="m34.47 10.29a1.55 1.55 0 1 1 3.09 0 1.55 1.55 0 1 1 -3.09 0zm2.41 0c0-.7-.32-1.12-.86-1.12s-.87.42-.87 1.12.32 1.12.87 1.12.86-.41.86-1.12z"/><path d="m38.11 8.66h.64v.56a.79.79 0 0 1 .79-.59h.23v.63a1 1 0 0 0 -.3 0 .68.68 0 0 0 -.7.75v1.93h-.67z"/><path d="m42.86 11a1.31 1.31 0 0 1 -1.4 1 1.49 1.49 0 0 1 -1.54-1.65 1.5 1.5 0 0 1 1.51-1.69 1.44 1.44 0 0 1 1.47 1.61v.23h-2.3a.85.85 0 0 0 .87.92.74.74 0 0 0 .75-.46zm-2.26-1h1.63a.79.79 0 0 0 -.8-.83.83.83 0 0 0 -.83.83z"/></g></svg>