<?xml version="1.0" encoding="UTF-8"?>
<svg id="Capa_2" data-name="Capa 2" xmlns="http://www.w3.org/2000/svg" viewBox="0 0 1641.45 705.96">
  <defs>
    <style>
      .cls-1 {
        fill: #3588c3;
      }

      .cls-2 {
        fill: #7e3e6c;
      }

      .cls-3 {
        fill: #fff;
      }

      .cls-4 {
        fill: #35aea8;
      }

      .cls-5 {
        fill: #873b63;
      }

      .cls-6 {
        fill: #3aaa41;
      }

      .cls-7 {
        fill: #f4a835;
      }

      .cls-8 {
        fill: #0c969e;
      }

      .cls-9 {
        fill: #852a39;
      }

      .cls-10 {
        fill: #63bb5f;
      }

      .cls-11 {
        fill: #62519a;
      }

      .cls-12 {
        fill: #d55217;
      }

      .cls-13 {
        fill: #9d6181;
      }

      .cls-14 {
        fill: #ec6a16;
      }

      .cls-15 {
        fill: #35ab67;
      }

      .cls-16 {
        fill: #ed7d3e;
      }

      .cls-17 {
        fill: #06486c;
      }

      .cls-18 {
        fill: #0c9b56;
      }
    </style>
  </defs>
  <g id="WPT">
    <rect class="cls-12" x="1375.16" y="59.83" width="90.77" height="67.16"/>
    <rect class="cls-12" x="1380.71" y="124.48" width="62.97" height="53.42"/>
    <g id="Capa_1-2" data-name="Capa 1-2">
      <g>
        <path class="cls-13" d="M772.3,.25c21.88-.09,43.76-.33,65.64-.22,19.07,.09,38.2-.33,57.19,1.08,42.47,3.17,80.13,19.1,112.63,46.46,41.27,34.73,65.33,79.2,71.95,132.68,13.19,106.6-61.81,207.06-167.16,224.87-20.08,3.39-40.22,2.95-60.4,3.18-.03-2.61-.09-5.23-.09-7.84,0-101.39,.02-202.79-.05-304.18,0-6.49-.24-13.05-1.17-19.46-2.97-20.46-12.4-37.92-27.42-51.83-13.64-12.64-29.96-20.67-48.78-22.87-.85-.1-1.57-1.22-2.35-1.86h.01Z"/>
        <path class="cls-2" d="M772.3,.25c.67,.17,1.66,.43,2.86,.75,8.87,2.36,16.19,4.76,18.59,5.61,15.96,5.69,29.68,18.37,29.68,18.37,11.87,10.98,17.72,22.31,19.53,26.01,3.89,7.96,6.55,16.58,7.89,25.82,.93,6.41,1.17,12.97,1.17,19.46,.07,101.39,.05,202.79,.05,304.18,0,2.61,.06,5.23,.09,7.84,0,0-.06,0-.05,0-9.35-.02-18.7,.04-28.04-.08-24.26-.32-48.66,.76-72.75-1.47-29.37-2.72-50.97-19.47-66.34-44.24-6.86-11.05-10.25-23.39-12.33-36.13-.06-11.58-.18-23.15-.18-34.73-.02-65.36,1.05-130.75-.34-196.08-.64-29.97,15.45-64.33,46.55-83.28C738.34,.31,759.28-.53,772.3,.25Z"/>
        <path class="cls-7" d="M1447.1,180.74c-.02,100.54,0,201.08-.08,301.63-.04,41.54-26.26,76.26-65.75,87.43-52.08,14.73-105.72-20.46-112.83-74.09-.68-5.16-.97-10.41-.98-15.62-.06-97.55-.04-195.1-.05-292.66,0-2.24-.06-4.48-.09-6.72,0,0,.27-.4,.27-.39,25.76,.04,51.53,.08,77.29,.12l22.61-.02c26.46-.02,52.92-.05,79.37-.07l.22,.41,.02-.02Z"/>
        <path class="cls-1" d="M472.47,302.4c.05-33.82,.12-67.64,.15-101.46,.03-36.44-.08-72.88,.03-109.31,.14-51.64,40.89-91.42,92.54-90.49,42.88,.77,80.61,34.51,86.02,77.01,.56,4.43,.99,8.92,.99,13.38,.06,126.13,.05,252.26,.04,378.4,0,1.12-.12,2.23-.19,3.35-.27-.48-.73-.94-.79-1.44-2.52-20.35-10.6-38.09-26.03-51.74-11.69-10.34-24.06-19.94-36.47-29.42-30.16-23.04-60.49-45.86-90.83-68.67-8.29-6.23-16.85-12.11-25.28-18.16-.06-.48-.12-.96-.18-1.44h0Z"/>
        <path class="cls-10" d="M.28,466.61c-.09-1.67-.26-3.35-.26-5.02-.01-123.34-.06-246.67,.02-370.01C.07,47.48,29.87,11.38,73.1,2.65c49.48-9.99,99.1,25.51,105.48,75.56,.68,5.35,1,10.79,1,16.18,.07,66.9,.04,133.8,.05,200.7,0,2.43,.08,4.86,.12,7.29-.05,.49-.11,.97-.16,1.46-6.4,4.42-12.97,8.62-19.17,13.3-40.4,30.52-80.76,61.09-121.04,91.77-18.8,14.32-32.78,31.98-37.29,55.9-.13,.69-1.19,1.2-1.81,1.79h0Z"/>
        <path class="cls-5" d="M1367.4,1.27c14.02-.06,28.03-.15,42.05-.16,46.92-.02,93.85-.07,140.77,.01,44.41,.07,80.2,29.14,89.39,72.43,10.48,49.36-25.26,99.66-75.38,105.96-5.36,.67-10.79,.98-16.19,1-33.65,.15-67.29,.17-100.94,.23l-.22-.41c.03-26.5,.06-52.99,.09-79.49-.31-7.42-.04-14.91-1.04-22.23-4.22-31.04-20.76-53.81-48.52-67.78-9.26-4.66-19.97-6.46-30.02-9.56h.01Z"/>
        <path class="cls-16" d="M1267.33,180.7c-34.4-.05-68.79-.06-103.19-.15-44.16-.12-79.89-29-89.17-72.01-10.72-49.67,24.96-100.06,75.4-106.41,4.25-.54,8.55-.97,12.83-.97,60.01-.07,120.02-.05,180.03-.05,.93,0,1.86,.12,2.79,.19-.48,.27-.94,.71-1.45,.79-31.27,4.7-53.71,21.58-68.12,49.42-8.22,15.89-9.91,32.99-8.98,50.53,.04,26.09,.08,52.18,.12,78.27l-.27,.4h.01Z"/>
        <path class="cls-6" d="M.28,466.61c.62-.59,1.68-1.1,1.81-1.79,4.5-23.93,18.49-41.58,37.29-55.9,40.28-30.68,80.64-61.25,121.04-91.77,6.2-4.69,12.77-8.88,19.18-13.3,.01,59.97,.11,119.94-.01,179.91-.04,17.71-4.81,34.15-14.9,48.91-2.57,3.75-4.85,7.7-7.27,11.56l.05-.11c-.45,.39-.9,.77-1.35,1.16-20.05,18.39-43.04,28.74-70.91,27.93-40.38-1.18-79.1-35.2-83.93-75.31-1.24-10.32-.71-20.85-.99-31.29h0Z"/>
        <path class="cls-8" d="M472.65,303.84c8.43,6.04,16.99,11.92,25.28,18.16,30.34,22.81,60.67,45.63,90.83,68.67,12.41,9.48,24.78,19.08,36.47,29.42,15.43,13.65,23.51,31.39,26.03,51.74,.06,.51,.52,.96,.79,1.44,2.34,33.97-9.05,62.13-36.63,82.59-32.29,23.95-75.94,23.08-107.93-1.38-4.29-3.28-8.39-6.81-12.58-10.23-.84-1.57-1.48-3.3-2.56-4.67-12.07-15.23-19.37-32.61-19.53-51.89-.5-61.28-.17-122.56-.16-183.84h-.01Z"/>
        <path class="cls-11" d="M672.63,326.38c2.08,12.74,5.48,25.08,12.33,36.13,15.37,24.77,36.98,41.52,66.34,44.24,24.09,2.23,48.49,1.15,72.75,1.47,9.35,.12,18.7,.06,28.04,.08-.01,24.65,.03,49.3-.05,73.95-.17,52.87-42.02,92.86-94.92,90.78-41.38-1.63-78.41-35.44-83.61-76.43-.56-4.43-1.03-8.91-1.03-13.37-.07-51.17-.05-102.33-.04-153.5,0-1.12,.12-2.23,.18-3.35h0Z"/>
        <path class="cls-18" d="M254.68,246.41c14.82-13.27,30.32-25.45,50.38-29.82,29.79-6.49,56.53-.05,80.08,19.34,2.73,2.25,5.31,4.68,7.96,7.02,.66,.54,1.32,1.07,1.99,1.61h0c.4,.34,.8,.69,1.21,1.03l-.03-.02c.41,.36,.82,.72,1.24,1.07l-.02-.04c1.53,2.91,2.83,5.97,4.63,8.69,22.65,34.15,18.98,82.13-10.97,109.91-20.01,18.56-42.87,34.04-64.46,50.9-2.22-1.29-4.59-2.39-6.63-3.92-11.92-8.89-24.03-17.56-35.57-26.93-10.39-8.43-21.64-16.44-29.88-26.74-24.44-30.58-25.11-71.79-3.41-104.71,1.49-2.26,2.34-4.93,3.48-7.41v.02Z"/>
        <path class="cls-12" d="M1267.48,102.03c-.93-17.54,.75-34.65,8.98-50.53,14.41-27.84,36.85-44.72,68.12-49.42,.51-.08,.97-.52,1.45-.79,7.12,0,14.25-.01,21.37-.02,10.05,3.1,20.76,4.9,30.02,9.56,27.77,13.98,44.31,36.74,48.52,67.78,1,7.32,.73,14.82,1.04,22.23-.34,1.03-.82,2.03-1,3.08-5.86,34.47-25.16,58.13-57.64,70.87-6.65,2.61-13.87,3.78-20.83,5.61-7.54,0-15.07,.01-22.61,.02-.65-.32-1.27-.79-1.95-.93-34.02-6.7-57.82-25.69-69.99-58.43-2.29-6.17-3.68-12.68-5.48-19.04h0Z"/>
        <path class="cls-15" d="M254.68,246.41c-1.15,2.48-1.99,5.15-3.48,7.41-21.7,32.92-21.03,74.13,3.41,104.71,8.23,10.3,19.49,18.31,29.88,26.74,11.54,9.36,23.65,18.04,35.57,26.93,2.05,1.53,4.41,2.62,6.63,3.92-.03,.32-.05,.64-.08,.96-13.47,10.01-27.02,19.92-40.4,30.04-41.87,31.65-83.67,63.38-125.51,95.06-1.02,.78-2.19,1.36-3.29,2.04,2.42-3.86,4.7-7.8,7.27-11.56,10.09-14.76,14.86-31.2,14.9-48.91,.12-59.97,.03-119.94,.01-179.91,.05-.49,.1-.97,.16-1.46,23.43-17.65,46.85-35.3,70.3-52.93,1.48-1.11,3.09-2.03,4.65-3.04h-.02Z"/>
        <path class="cls-4" d="M326.61,417.08c.03-.32,.05-.64,.08-.96,21.59-16.86,44.45-32.34,64.46-50.9,29.95-27.78,33.62-75.76,10.97-109.91-1.81-2.72-3.1-5.79-4.63-8.69,10.21,7.48,20.47,14.9,30.62,22.47,14.83,11.05,29.58,22.21,44.36,33.32,.06,.48,.12,.96,.18,1.44,0,61.28-.34,122.56,.16,183.84,.16,19.28,7.46,36.67,19.53,51.89,1.09,1.37,1.72,3.11,2.56,4.67-15.53-11.6-31.11-23.12-46.56-34.82-40.61-30.74-81.16-61.56-121.73-92.35h0Z"/>
        <path class="cls-4" d="M395.09,244.56c-.66-.53-1.32-1.07-1.99-1.61,.66,.53,1.32,1.07,1.99,1.61Z"/>
        <path class="cls-4" d="M396.31,245.6c-.4-.34-.8-.69-1.21-1.03,.4,.34,.8,.69,1.21,1.03Z"/>
        <path class="cls-4" d="M397.51,246.65c-.41-.36-.82-.72-1.24-1.07,.41,.36,.82,.72,1.24,1.07Z"/>
        <path class="cls-15" d="M156.1,545.27c.45-.39,.9-.77,1.35-1.16-.45,.39-.9,.77-1.35,1.16Z"/>
        <path class="cls-9" d="M1367.51,180.4c6.96-1.83,14.18-3,20.83-5.61,7.37-2.89,24.64-9.86,38.85-27.34,3.74-4.6,16.41-20.35,19.2-43.39,.31-2.58,.44-4.75,.5-6.29,.04,14.27,.06,28.54,.05,42.81,0,13.25-.02,26.5-.05,39.75-13.23,.01-26.46,.02-39.69,.03-13.23,.01-26.45,.02-39.68,.04Z"/>
        <path class="cls-14" d="M1267.48,102.03c1.8,6.35,3.18,12.86,5.48,19.04,12.16,32.74,35.96,51.73,69.99,58.43,.68,.13,1.3,.61,1.95,.93-25.76-.04-51.53-.08-77.29-.12-.04-26.09-.08-52.18-.12-78.27h0Z"/>
      </g>
    </g>
    <ellipse class="cls-12" cx="1356.99" cy="91.08" rx="90.12" ry="89.81"/>
    <g id="Capa_1-2-2" data-name="Capa 1-2">
      <g>
        <path class="cls-3" d="M940.35,147.44c-.04,7.62-.53,15.21-1.52,22.77-2.83,21.73-8.89,42.56-17.38,62.72-.45,1.08-.46,1.08-1.87,.96-5.09-.44-10.16-1.01-15.21-1.8-9.69-1.51-19.24-3.69-28.66-6.41-9.74-2.82-19.16-6.45-28.22-11.01-9.12-4.59-17.67-10.05-25.66-16.42-.47-.37-.74-.67-.54-1.38,4.26-14.57,9.66-28.7,16.48-42.26,7-13.91,15.35-26.95,25.2-39.02,4.82-5.9,9.95-11.54,15.45-16.83,10.35-9.96,21.59-18.75,34.14-25.81,1.05-.6,2.15-1.13,3.2-1.74,.52-.3,.81-.24,1.21,.25,3.21,4,6,8.28,8.46,12.77,6,10.98,9.95,22.69,12.31,34.95,1.22,6.37,1.99,12.79,2.34,19.26,.16,2.99,.28,5.98,.27,8.98h0Z"/>
        <path class="cls-3" d="M818.49,326.05c-23.69-11.04-42.98-27.29-57.5-49.06-15.8-23.67-23.5-49.83-23.19-78.25,.3-26.72,7.85-51.3,22.46-73.89,1.1,4.08,2.31,7.94,3.66,11.74,6.04,16.97,14.54,32.58,25.72,46.72,4.28,5.42,8.91,10.52,13.87,15.33,1,.97,2.02,1.92,3.07,2.84,.4,.35,.49,.68,.35,1.2-1.97,7.83-3.54,15.75-4.66,23.75-.77,5.52-1.31,11.06-1.63,16.63-.31,5.45-.4,10.89-.2,16.34,.66,18.21,4.05,35.84,11.24,52.66,1.96,4.58,4.2,9.03,6.71,13.33,.1,.17,.19,.35,.28,.52-.06,.04-.11,.09-.16,.14h0Z"/>
        <path class="cls-3" d="M850.85,336.21c4.31-2.62,8.32-5.31,12.21-8.16,7.05-5.17,13.7-10.81,19.99-16.87,11.26-10.85,21.11-22.87,29.74-35.9,5.91-8.92,11.13-18.24,15.75-27.89,.22-.46,.45-.66,.98-.64,6.07,.14,12.14-.06,18.18-.61,17.27-1.58,33.82-5.79,49.39-13.58,5.04-2.52,9.87-5.4,14.46-8.68,.08-.06,.17-.11,.4-.25-2.48,14.57-7.13,28.26-13.97,41.2-6.88,13-15.61,24.61-26.18,34.83-10.56,10.2-22.43,18.54-35.62,24.96-13.21,6.43-27.09,10.62-41.66,12.58-14.54,1.96-29.02,1.62-43.65-.98h0Z"/>
        <path class="cls-3" d="M934.98,75.6c1.66,.84,3.29,1.64,4.9,2.48,10.39,5.45,19.94,12.1,28.61,19.99,17.29,15.74,29.86,34.63,37.66,56.68,2.85,8.04,4.87,16.29,6.15,24.73,.73,4.8,1.19,9.62,1.43,14.47,.18,3.67,.11,7.33,.11,11,0,.61-.24,.97-.66,1.38-1.58,1.53-3.19,3.02-4.89,4.4-6.54,5.3-13.75,9.5-21.43,12.91-9.79,4.35-20.01,7.23-30.58,8.9-4.84,.76-9.71,1.31-14.61,1.55-2.16,.11-4.33,.19-6.49,.27-.25,.01-.5,0-.84,0,.54-1.36,1.05-2.65,1.55-3.95,5.6-14.38,9.96-29.12,12.95-44.26,1.45-7.37,2.51-14.79,3.18-22.28,.64-7.24,.91-14.48,.68-21.74-.47-15.04-2.83-29.76-7.68-44.04-2.58-7.59-5.81-14.89-9.81-21.85-.1-.17-.27-.32-.2-.66h0Z"/>
        <path class="cls-3" d="M817.71,210.78c2.47,1.83,4.84,3.53,7.27,5.14,14.15,9.43,29.47,16.37,45.74,21.23,9.87,2.95,19.88,5.27,30.05,6.95,4.53,.74,9.08,1.36,13.66,1.77,.97,.09,.98,.09,.55,.93-7.3,14.4-16.04,27.86-26.41,40.25-11.42,13.62-24.36,25.55-39.18,35.39-3.91,2.6-7.95,5-12.13,7.16-.52,.27-.77,.19-1.13-.25-6-7.47-10.5-15.8-14.08-24.65-3.76-9.3-6.23-18.95-7.71-28.86-.83-5.57-1.3-11.17-1.5-16.79-.17-4.73-.14-9.45,.11-14.17,.47-9.05,1.56-18.03,3.32-26.93,.47-2.35,.94-4.7,1.44-7.18h0Z"/>
        <path class="cls-3" d="M901.78,64.84c-1.59,1.02-3.09,1.95-4.58,2.93-8.17,5.38-15.83,11.4-23.06,18-18.15,16.56-32.78,35.86-44.42,57.45-7.63,14.14-13.73,28.93-18.53,44.26-.1,.31-.13,.65-.42,.98-1.89-2-3.8-3.96-5.62-5.99-7.35-8.17-13.67-17.09-19-26.7-6.64-11.98-11.68-24.59-14.84-37.92-.43-1.83-.77-3.68-1.15-5.53-.09-.43,.02-.78,.32-1.13,12.91-15.13,28.3-27.01,46.26-35.57,10.91-5.2,22.32-8.86,34.21-11.01,5.74-1.04,11.53-1.72,17.36-2.03,2.63-.14,5.27-.25,7.89-.23,8.35,.06,16.65,.79,24.86,2.31,.22,.04,.42,.11,.74,.2h0Z"/>
      </g>
    </g>
    <g>
      <path class="cls-17" d="M86.48,648.07l-14.43,57.89h-11.48l-12.22-44.77-12.22,44.77h-11.48l-14.43-57.89h10.25l10,47.07,12.71-47.07h10.33l12.71,47.07,10-47.07h10.25Z"/>
      <path class="cls-17" d="M180.21,693.42h-24.44l-4.43,12.55h-10l21.32-56.99h10.74l21.24,56.99h-10l-4.43-12.55Zm-2.62-7.22l-9.59-27.06-9.59,27.06h19.19Z"/>
      <path class="cls-17" d="M299.27,705.96h-9.35l-28.13-42.72v42.72h-9.35v-57.81h9.35l28.13,42.89v-42.89h9.35v57.81Z"/>
      <path class="cls-17" d="M407.55,692.23c-2.38,4.35-5.85,7.72-10.41,10.13-4.57,2.41-10.02,3.61-16.36,3.61h-19.35v-57.89h19.35c6.34,0,11.79,1.19,16.36,3.57,4.56,2.38,8.04,5.73,10.41,10.04,2.38,4.32,3.57,9.4,3.57,15.25s-1.19,10.95-3.57,15.29Zm-11.52-.12c3.72-3.61,5.58-8.66,5.58-15.17s-1.86-11.56-5.58-15.17c-3.72-3.61-9.05-5.41-15.99-5.41h-9.27v41.16h9.27c6.94,0,12.27-1.8,15.99-5.41Z"/>
      <path class="cls-17" d="M480.74,655.61v17.55h21.32v7.22h-21.32v17.96h23.78v7.63h-33.13v-57.89h33.13v7.54h-23.78Z"/>
      <path class="cls-17" d="M594.88,705.96l-14.43-23.12h-6.64v23.12h-9.35v-57.89h20.42c6.61,0,11.63,1.61,15.05,4.84,3.42,3.23,5.12,7.49,5.12,12.79,0,4.54-1.27,8.25-3.81,11.15-2.54,2.9-6.22,4.76-11.03,5.58l15.17,23.53h-10.5Zm-21.07-29.77h10.33c7.54,0,11.32-3.33,11.32-10,0-3.17-.92-5.64-2.75-7.42-1.83-1.78-4.69-2.67-8.57-2.67h-10.33v20.09Z"/>
      <path class="cls-17" d="M743.71,683.49v22.47h-9.35v-57.89h19.68c6.67,0,11.69,1.59,15.05,4.76,3.36,3.17,5.04,7.52,5.04,13.04s-1.72,9.77-5.17,12.92c-3.44,3.14-8.42,4.71-14.92,4.71h-10.33Zm20.91-17.63c0-3.28-.92-5.78-2.75-7.5-1.83-1.72-4.77-2.58-8.81-2.58h-9.35v20.09h9.35c7.71,0,11.56-3.33,11.56-10Z"/>
      <path class="cls-17" d="M867.69,693.42h-24.44l-4.43,12.55h-10l21.32-56.99h10.74l21.24,56.99h-10l-4.43-12.55Zm-2.62-7.22l-9.59-27.06-9.59,27.06h19.19Z"/>
      <path class="cls-17" d="M949.28,698.66h20.01v7.3h-29.36v-57.89h9.35v50.59Z"/>
      <path class="cls-17" d="M1134.68,648.07v7.54h-16.15v50.35h-9.43v-50.35h-16.07v-7.54h41.66Z"/>
      <path class="cls-17" d="M1222.91,705.96l-14.43-23.12h-6.64v23.12h-9.35v-57.89h20.42c6.61,0,11.63,1.61,15.05,4.84,3.42,3.23,5.12,7.49,5.12,12.79,0,4.54-1.27,8.25-3.81,11.15-2.54,2.9-6.22,4.76-11.03,5.58l15.17,23.53h-10.5Zm-21.07-29.77h10.33c7.54,0,11.32-3.33,11.32-10,0-3.17-.92-5.64-2.75-7.42-1.83-1.78-4.69-2.67-8.57-2.67h-10.33v20.09Z"/>
      <path class="cls-17" d="M1326.89,693.42h-24.44l-4.43,12.55h-10l21.32-56.99h10.74l21.24,56.99h-10l-4.43-12.55Zm-2.62-7.22l-9.59-27.06-9.59,27.06h19.19Z"/>
      <path class="cls-17" d="M1404.95,648.07l16.65,47.89,16.73-47.89h10.17l-20.91,57.89h-11.97l-20.83-57.89h10.17Z"/>
      <path class="cls-17" d="M1515.65,655.61v17.55h21.32v7.22h-21.32v17.96h23.78v7.63h-33.13v-57.89h33.13v7.54h-23.78Z"/>
      <path class="cls-17" d="M1608.72,698.66h20.01v7.3h-29.36v-57.89h9.35v50.59Z"/>
    </g>
  </g>
</svg>