<?xml version="1.0" encoding="utf-8"?>
<!-- Generator: Adobe Illustrator 26.5.0, SVG Export Plug-In . SVG Version: 6.00 Build 0)  -->
<svg version="1.1" id="Capa_2_00000049940825812522759300000006045985712793515964_"
	 xmlns="http://www.w3.org/2000/svg" xmlns:xlink="http://www.w3.org/1999/xlink" x="0px" y="0px" viewBox="0 0 487.4 243.3"
	 style="enable-background:new 0 0 487.4 243.3;" xml:space="preserve">
<style type="text/css">
	.st0{fill:#005F6F;}
	.st1{clip-path:url(#SVGID_00000104702835617283325020000002636987241124121506_);}
	.st2{fill:#00A7C0;}
</style>
<g id="Capa_1-2">
	<g>
		<g>
			<path class="st0" d="M58.5,99.5c0-6.7,1.3-13.3,3.8-19.7c2.5-6.4,6.2-12.3,11.1-17.6c4.9-5.3,10.8-9.5,17.7-12.6
				s14.8-4.7,23.6-4.7c10.5,0,19.7,2.2,27.5,6.6s13.7,10.2,17.5,17.4l-23.1,16.4c-1.3-3.6-3.3-6.4-5.8-8.4c-2.5-2-5.3-3.3-8.2-4.1
				s-5.8-1.2-8.6-1.2c-4.3,0-8.1,0.8-11.2,2.6c-3.1,1.7-5.7,3.9-7.7,6.7c-2,2.8-3.5,5.9-4.5,9.3c-1,3.4-1.5,6.8-1.5,10.2
				c0,3.8,0.6,7.5,1.7,11c1.1,3.5,2.8,6.6,5,9.4c2.2,2.7,4.8,4.9,8,6.4c3.1,1.6,6.7,2.3,10.6,2.3c2.8,0,5.6-0.4,8.5-1.3
				c2.9-0.9,5.5-2.3,7.9-4.3c2.4-2,4.2-4.6,5.4-7.9l24.6,14.7c-2.2,5.4-5.8,10-10.8,13.8c-5.1,3.8-10.8,6.7-17.2,8.7
				c-6.4,2-12.7,3-19,3c-8.1,0-15.6-1.6-22.4-4.9c-6.8-3.2-12.6-7.6-17.5-13c-4.9-5.4-8.7-11.5-11.4-18.3
				C59.9,113.4,58.5,106.5,58.5,99.5"/>
			<path class="st0" d="M168.9,42.6h29.4v80.6c0,3,0.6,5.3,1.9,6.9c1.3,1.6,3.2,2.4,5.6,2.4c1.2,0,2.6-0.2,4-0.6
				c1.4-0.4,2.8-1,4-1.7l3.7,21.7c-3.5,1.6-7.5,2.9-11.8,3.9c-4.4,0.9-8.5,1.4-12.5,1.4c-7.8,0-13.9-2-18.1-6.1
				c-4.2-4.1-6.3-9.9-6.3-17.4L168.9,42.6L168.9,42.6z"/>
			<path class="st0" d="M223.6,128.1V75.2H253v46c0,3.4,0.8,6.1,2.4,8.1c1.6,2,3.8,3,6.6,3c1.5,0,3.1-0.2,4.6-0.6
				c1.5-0.4,3.1-1.2,4.7-2.4c1.6-1.2,3.2-2.8,4.7-5V75.2h29.4v48c0,2.7,0.4,4.6,1.2,5.7c0.8,1.1,2.3,1.7,4.3,1.9v24.8
				c-2.6,0.5-4.9,0.9-7,1.2c-2.1,0.3-3.9,0.4-5.4,0.4c-5,0-8.9-0.9-11.8-2.8s-4.8-4.6-5.6-8.4l-0.6-2.9c-3.8,5-8.4,8.6-13.7,10.8
				s-11.3,3.3-18,3.3c-8.1,0-14.4-2.5-18.8-7.5C225.8,144.6,223.6,137.4,223.6,128.1"/>
			<path class="st0" d="M375,157.1c-6.1,0-11.3-1.2-15.8-3.6c-4.4-2.4-7.9-6-10.5-10.6v12.7h-25.5v-113h29.4v45
				c2.4-4.4,5.7-7.8,10.1-10.1S372,74,377.9,74c5,0,9.5,1,13.8,3.1c4.2,2.1,7.9,5,11.1,8.8c3.1,3.8,5.6,8.2,7.3,13.3
				c1.8,5.1,2.6,10.7,2.6,16.7s-1,11.3-2.9,16.4s-4.5,9.4-7.9,13.2c-3.3,3.8-7.3,6.6-11.9,8.7C385.5,156.1,380.5,157.1,375,157.1
				 M366.5,132.3c2.4,0,4.5-0.4,6.5-1.2c2-0.8,3.7-1.9,5.1-3.3c1.5-1.4,2.6-3.1,3.3-5.1c0.8-2,1.2-4.2,1.2-6.7
				c0-3.2-0.6-6.1-1.9-8.7s-3-4.7-5.3-6.2c-2.2-1.5-4.8-2.3-7.7-2.3c-2.1,0-4.1,0.5-6,1.5c-2,1-3.7,2.4-5.3,4.1s-2.9,3.7-3.8,6v14
				c0.9,1.3,1.9,2.4,3,3.5c1.1,1,2.2,1.9,3.3,2.5c1.1,0.6,2.3,1.1,3.6,1.5C363.8,132.1,365.2,132.3,366.5,132.3"/>
			<path d="M389.4,191.4l3.7,11.3h-7.5l3.7-11.3H389.4L389.4,191.4z M383,211.1l2.5-7.7h8l3.1,9.2l-2.8,0.3v0.5H406v-0.5l-1.7-0.3
				l-10.9-27.2l-3.7,2.5l-7.6,23.2l-4.2,1.8v0.5h9.4v-0.5L383,211.1L383,211.1z"/>
			<polygon points="136.6,212.6 136.6,186.3 139,186.1 139,185.5 127.8,185.5 127.8,186.1 130.2,186.3 130.2,212.4 127.8,212.6 
				127.8,213.3 148.9,213.3 149.3,206.4 148.9,206.4 144.3,212.4 			"/>
			<polygon points="168.9,186.1 176.2,186.3 180.5,192.3 180.9,192.3 180.7,185.5 160.1,185.5 160.1,186.1 162.5,186.3 162.5,212.4 
				160.1,212.6 160.1,213.3 181.1,213.3 181.5,206.4 181.1,206.4 176.6,212.4 168.9,212.6 168.9,199.8 174.4,200 176.6,204.4 
				177,204.4 177,194.2 176.6,194.2 174.4,198.8 168.9,199 			"/>
			<polygon points="325.6,212.6 325.6,213.3 336.6,213.3 336.6,212.6 334.2,212.3 334.2,186.4 336.6,186.1 336.6,185.5 325.6,185.5 
				325.6,186.1 327.9,186.4 327.9,212.3 			"/>
			<polygon points="113,186.1 120.3,186.3 124.6,192.3 125,192.3 124.8,185.5 104.2,185.5 104.2,186.1 106.6,186.3 106.6,212.4 
				104.2,212.6 104.2,213.3 125.2,213.3 125.6,206.4 125.2,206.4 120.7,212.4 113,212.6 113,199.8 118.5,200 120.7,204.4 
				121.1,204.4 121.1,194.2 120.7,194.2 118.5,198.8 113,199 			"/>
			<path d="M213.9,199.4c0-8.9,2.3-13.4,7.4-13.4s7.4,4.5,7.4,13.4s-2.3,13.4-7.4,13.4S213.9,208.3,213.9,199.4 M207.3,199.4
				c0,8.1,6.7,14,14,14s14-5.9,14-14.1s-6.7-14.1-14-14.1S207.3,191.2,207.3,199.4"/>
			<path d="M205.2,211l0.4-6.6h-0.4l-2.7,4.6c-0.8,1.4-2.9,3.8-5.5,3.8c-5.5,0-7.8-4.5-7.8-13.4s2.7-13.4,7.8-13.4
				c2.5,0,4.5,2.4,5.3,3.8l2.7,4.6h0.4l-0.2-6.6c-1.6-1-5.1-2.4-9-2.4c-8.2,0-13.6,5.9-13.6,14.1s5.5,14.1,13.6,14.1
				C200.1,213.4,203.6,212,205.2,211"/>
			<polygon points="257,202.6 245.2,185.5 235.4,185.5 235.4,186.1 239.6,186.3 239.6,211.1 235.4,212.8 235.4,213.3 244.8,213.3 
				244.8,212.8 240.4,211.1 240.3,189.9 240.5,189.9 257.1,213.4 258,213.4 258,187.7 262.2,185.9 262.2,185.5 252.7,185.5 
				252.7,185.9 257.1,187.7 257.2,202.6 			"/>
			<path d="M269.2,199.4c0-8.9,2.3-13.4,7.4-13.4s7.4,4.5,7.4,13.4s-2.3,13.4-7.4,13.4S269.2,208.3,269.2,199.4 M262.6,199.4
				c0,8.1,6.7,14,14,14s14-5.9,14-14.1s-6.7-14.1-14-14.1S262.6,191.2,262.6,199.4"/>
			<polygon points="309,203 301.5,185.5 291.1,185.5 291.1,186.1 295.3,186.4 295.3,211 291.1,212.8 291.1,213.3 300.5,213.3 
				300.5,212.8 296.1,211 295.9,189.8 296.2,189.8 306,213.2 306.9,213.2 314.4,188.3 314.7,188.3 314.7,212.3 312.4,212.7 
				312.4,213.3 323.4,213.3 323.4,212.7 321,212.3 321,186.3 323.4,186 323.4,185.5 314.6,185.5 309.3,203 			"/>
			<path d="M340.3,211c2.1,1.4,4.7,2.4,7.5,2.4c5.2,0,9.8-2.8,9.8-8.6c0-5.1-4.5-7.6-8.4-9.1c-2.8-1.1-5.5-2.5-5.5-5.4
				c0-3.7,3.5-4.3,4.8-4.3c2.6,0,4.4,1.5,6.1,5.2c0.4,0.9,0.8,1.7,1.2,2.5h0.4l-0.2-8.2h-0.4l-0.4,1.6c-1.6-1.1-4.4-1.9-6.8-1.9
				c-5.3,0-9.6,2.8-9.6,7.8s4,6.9,7.9,8.5c2.9,1.2,5.9,2.9,5.9,6.2c0,3.7-2.6,4.9-5,4.9c-3.2,0-5.4-2-7-5.6
				c-0.4-0.9-0.8-1.8-1.2-2.7h-0.4l0.2,8.7h0.4L340.3,211L340.3,211z"/>
			<polygon points="359.1,192.2 359.5,192.2 363.8,186.4 367,186.2 367,212.4 364.6,212.7 364.6,213.3 375.6,213.3 375.6,212.7 
				373.3,212.4 373.3,186.2 376.4,186.4 380.8,192.2 381.1,192.2 380.9,185.5 359.3,185.5 			"/>
		</g>
	</g>
	<g>
		<defs>
			<path id="SVGID_1_" d="M65,198.6c0,9.2,7.5,16.7,16.8,16.7c9.3,0,16.8-7.5,16.8-16.7s-7.5-16.7-16.8-16.7S65,189.4,65,198.6"/>
		</defs>
		<clipPath id="SVGID_00000002382293464589282790000017908689742002400184_">
			<use xlink:href="#SVGID_1_"  style="overflow:visible;"/>
		</clipPath>
		<g style="clip-path:url(#SVGID_00000002382293464589282790000017908689742002400184_);">
			<path class="st2" d="M97.7,196.3L97.7,196.3L97.7,196.3c0-0.1,0-0.1-0.1-0.1c0,0-0.1,0-0.1,0.1l0,0c-1.5,5.4-5.8,9.9-11.6,11.3
				c-8.6,2.1-17.3-5-18.9-11.5c-0.3-1.7-0.2-1.8-0.1-2.4c0,0.1,0,0.3,0.1,0.4c0.3,1.7,1.1,3.4,2.4,4.9c4.3,4.9,13,6.4,19.3,3
				c6.2-3.4,7.6-10.2,3.2-15.2c-1.1-1.3-2.5-2.3-4.1-3.1l0,0c0,0,0,0-0.1,0c-0.1,0-0.1,0.1-0.1,0.1c0,0,0,0.1,0,0.1l0,0
				c3.8,4.6,3,11-1.9,14.5c-5.1,3.6-12.6,2.6-16.6-2c-0.8-0.9-1.6-2.2-1.8-2.9c-0.1-0.2-0.1-0.4-0.1-0.5c0,0,0,0,0,0
				c1,0.8,3.8,2.8,7.5,2.8c12.1,0.1,10.9-11.3,2.9-11.4c-2.2,0-4.8,0.9-7.3,3.1c-1.4,1.5-2.5,2.8-3.4,5.1l0,0c0,0-0.6,1.4-0.8,2.6
				c-0.1,0.3-0.1,0.7-0.2,1c-0.1,0.5-0.1,1-0.1,1.5c-0.4,8.7,6.3,16.5,15.3,17c5.8,0.3,11-2.5,14-6.9l-0.1-0.1
				c-3.5,4-9,6.1-14.8,5.2c-8.1-1.3-13.7-8-14-15.4c0-0.4,0-0.9,0.2-1.9c0,0,0-0.1,0-0.1c0,0.5,0.1,1.1,0.2,1.6
				c1.4,8.5,9.5,14.8,18.2,13.5C92,209.5,97.2,203.4,97.7,196.3L97.7,196.3L97.7,196.3"/>
		</g>
	</g>
</g>
</svg>
