<?xml version="1.0" encoding="UTF-8"?>
<svg id="Capa_2" data-name="Capa 2" xmlns="http://www.w3.org/2000/svg" viewBox="0 0 44.88 45.31">
  <defs>
    <style>
      .cls-1 {
        fill: #01b1eb;
      }
    </style>
  </defs>
  <g id="Capa_4" data-name="Capa 4">
    <path class="cls-1" d="M.15,45.31h-.15c.07-.32,.11-.64,.21-.95,1.14-3.41,2.28-6.82,3.45-10.22,.16-.47,.13-.83-.11-1.27C1.07,28.46,.19,23.71,.97,18.73,2.83,6.89,13.48-1.18,25.36,.14c9.13,1.02,16.83,7.86,18.9,16.82,.27,1.17,.42,2.37,.62,3.55v3.17c-.12,.77-.22,1.54-.36,2.3-2.72,14.65-18.59,22.45-31.89,15.7-.31-.16-.78-.19-1.11-.09-3.62,1.13-7.24,2.29-10.85,3.46-.18,.06-.34,.17-.52,.26m5.46-5.67c.39-.11,.65-.17,.9-.25,1.85-.59,3.69-1.17,5.53-1.78,.45-.15,.78-.09,1.19,.15,3.88,2.34,8.06,3.17,12.54,2.45,9.95-1.61,16.63-10.87,15.17-21.02-1.38-9.69-10.7-16.63-20.57-15.33C7.41,5.55,.28,19.98,6.91,31.23c.77,1.3,.88,2.32,.33,3.65-.62,1.5-1.06,3.07-1.63,4.75"/>
    <path class="cls-1" d="M15.91,11.38c1.21-.28,1.67,.4,1.99,1.37,.41,1.24,.87,2.47,1.37,3.68,.24,.58,.2,1.08-.17,1.55-.4,.51-.82,1.02-1.28,1.48-.4,.4-.46,.78-.19,1.28,1.72,3.13,4.18,5.45,7.45,6.9,.49,.21,.87,.16,1.21-.24,.54-.63,1.14-1.22,1.63-1.88,.43-.57,.88-.69,1.49-.37,1.45,.76,2.89,1.53,4.34,2.28,.51,.26,.52,.68,.47,1.16-.25,2.29-1.71,3.84-3.99,4.33-1.19,.25-2.33,.18-3.5-.17-5.13-1.55-9.14-4.56-12.09-9.03-1.18-1.79-2.41-3.55-2.78-5.73-.41-2.42,.24-4.52,2.12-6.11,.49-.41,1.24-.52,1.86-.77,.01,.09,.02,.18,.03,.27"/>
  </g>
</svg>