<?xml version="1.0" encoding="utf-8"?>
<!-- Generator: Adobe Illustrator 26.5.0, SVG Export Plug-In . SVG Version: 6.00 Build 0)  -->
<svg version="1.1" id="Capa_1" xmlns="http://www.w3.org/2000/svg" xmlns:xlink="http://www.w3.org/1999/xlink" x="0px" y="0px"
	 viewBox="0 0 500 500" style="enable-background:new 0 0 500 500;" xml:space="preserve">
<style type="text/css">
	.st0{fill:#385072;}
	.st1{fill:#FFFFFF;}
	.st2{enable-background:new    ;}
</style>
<path class="st0" d="M449,32.8H47.6c-6.6,0-12,5.4-12,12V306c0,6.6,5.4,12,12,12h402.6c6.6,0,12-5.4,12-12V45.9
	C462.2,38.7,456.3,32.8,449,32.8z"/>
<path class="st1" d="M268.9,171.2c-4.3,2.6-5.9,8.1-3.5,12.6c5.7,10.5,10.5,21.6,14.4,33v-11.4c-3.2-8.1-6.8-15.9-10.9-23.4
	c-1.4-2.6-0.5-5.8,2.2-7.4c0.8-0.5,1.7-0.7,2.6-0.7c1.9,0,3.6,1,4.5,2.8c0.5,1,1.1,2,1.6,3.1v-7.3C277,169.7,272.7,169,268.9,171.2
	L268.9,171.2z"/>
<path class="st1" d="M287.7,285.5h48.8V243h-48.8V285.5z M291.6,247h40.9v34.5h-40.9V247z"/>
<path class="st1" d="M332.2,168.1c-1.7,0-3.3,0.6-4.6,1.5c-1.3-3.1-4.4-5.3-8.1-5.3c-2,0-3.8,0.6-5.2,1.8c-1.2-3.4-4.4-5.8-8.3-5.8
	c-1.7,0-3.4,0.5-4.7,1.4v-21.9c0-4.8-3.9-8.7-8.8-8.7s-8.7,3.9-8.7,8.7V220c0,6.5,2.8,12.5,7.8,16.6v2.6h4v-3.6
	c0-0.6-0.3-1.2-0.8-1.6c-4.5-3.4-7-8.5-7-14.1v-80.2c0-2.6,2.1-4.7,4.9-4.7s4.7,2.1,4.7,4.7v47.7c0,1.1,0.9,2,2,2s2-0.9,2-2v-18.5
	c0-2.6,2.1-4.7,4.9-4.7s4.7,2.1,4.7,4.7v18.5c0,1.1,0.9,2,2,2s2-0.9,2-2v-14.5c0-2.6,2.1-4.7,4.9-4.7s4.7,2.1,4.7,4.7v14.5
	c0,1.1,0.9,2,2,2s2-0.9,2-2V176c0-2.2,1.8-4,4.1-4c2.2,0,4,1.8,4,4v43.9c0,5.6-2.6,10.7-7,14.1c-0.5,0.4-0.8,1-0.8,1.6v3.6h4v-2.6
	c5-4.1,7.8-10.1,7.8-16.6v-44C340.3,171.6,336.8,168.1,332.2,168.1L332.2,168.1z"/>
<path class="st1" d="M327.2,162.9V85.4H172.6v91.4h88.1c0.3-1.4,0.7-2.7,1.4-3.9h-85.6V89.4h146.8V161
	C324.7,161.4,326.1,162,327.2,162.9L327.2,162.9z"/>
<path class="st1" d="M166.2,186.3c-1.4,0-2.5-1.1-2.5-2.5V78.4c0-1.4,1.1-2.5,2.5-2.5h167.4c1.4,0,2.5,1.1,2.5,2.5v86.4
	c1.5,0.5,2.8,1.3,4,2.3V78.4c0-3.6-2.9-6.5-6.5-6.5H166.2c-3.6,0-6.5,2.9-6.5,6.5v105.3c0,3.6,2.9,6.5,6.5,6.5h98.1
	c-0.7-1.3-1.3-2.6-2-3.9L166.2,186.3L166.2,186.3z"/>
<path class="st1" d="M229.1,98.9l-10.4,17h7.2v46.7h47.4v-46.7h8l-11.3-17L229.1,98.9L229.1,98.9z M252.4,158.1h-5.1v-5.9h5.1V158.1
	z M268.8,111.4v46.7h-12.4v-9.9h-13v9.9h-13.1v-46.7h-3.7l4.9-8h36.1l5.3,8C272.9,111.4,268.8,111.4,268.8,111.4z"/>
<path class="st1" d="M234.4,111.8h4.5v6.6h-4.5V111.8z"/>
<path class="st1" d="M242.9,111.8h4.5v6.6h-4.5V111.8z"/>
<path class="st1" d="M251.5,111.8h4.5v6.6h-4.5V111.8z"/>
<path class="st1" d="M260,111.8h4.5v6.6H260V111.8z"/>
<path class="st1" d="M234.4,124.1h4.5v6.6h-4.5V124.1z"/>
<path class="st1" d="M242.9,124.1h4.5v6.6h-4.5V124.1z"/>
<path class="st1" d="M251.5,124.1h4.5v6.6h-4.5V124.1z"/>
<path class="st1" d="M260,124.1h4.5v6.6H260V124.1z"/>
<path class="st1" d="M234.4,136.5h4.5v6.6h-4.5V136.5z"/>
<path class="st1" d="M242.9,136.5h4.5v6.6h-4.5V136.5z"/>
<path class="st1" d="M251.5,136.5h4.5v6.6h-4.5V136.5z"/>
<path class="st1" d="M260,136.5h4.5v6.6H260V136.5z"/>
<path class="st1" d="M234.4,148.1h4.5v6.6h-4.5V148.1z"/>
<path class="st1" d="M260,148.1h4.5v6.6H260V148.1z"/>
<path class="st1" d="M177.5,68.9h12.3c1.2,0,2.2-1,2.2-2.2s-1-2.2-2.2-2.2h-12.3c-1.2,0-2.2,1-2.2,2.2S176.3,68.9,177.5,68.9z"/>
<path class="st1" d="M199.5,68.9h21.1c1.2,0,2.2-1,2.2-2.2s-1-2.2-2.2-2.2h-21.1c-1.2,0-2.2,1-2.2,2.2S198.2,68.9,199.5,68.9z"/>
<path class="st1" d="M243.3,179.6c-1.2,0-2.2,1-2.2,2.2s1,2.2,2.2,2.2h13.3c1.2,0,2.2-1,2.2-2.2s-1-2.2-2.2-2.2H243.3z"/>
<path class="st1" d="M165.7,92v26.3c0,1.2,1,2.2,2.2,2.2s2.2-1,2.2-2.2V92c0-1.2-1-2.2-2.2-2.2S165.7,90.8,165.7,92z"/>
<path class="st1" d="M331.5,89.8c-1.2,0-2.2,1-2.2,2.2v26.3c0,1.2,1,2.2,2.2,2.2s2.2-1,2.2-2.2V92C333.8,90.8,332.8,89.8,331.5,89.8
	z"/>
<g class="st2">
	<path class="st0" d="M42.5,385.9v-25.6h10.6c1.1,0,2.1,0.2,3,0.7s1.7,1.1,2.3,1.8c0.7,0.8,1.2,1.6,1.5,2.5c0.4,0.9,0.6,1.9,0.6,2.9
		c0,1.3-0.3,2.5-0.8,3.6s-1.2,2-2.1,2.8s-2,1.2-3.1,1.4l6.4,9.9h-2.1l-6.2-9.6h-8.3v9.6L42.5,385.9L42.5,385.9z M44.4,374.6h9
		c1.1,0,2.1-0.3,2.9-0.9c0.8-0.6,1.4-1.4,1.9-2.3c0.4-1,0.7-2,0.7-3.1s-0.3-2.1-0.8-3.1c-0.5-0.9-1.2-1.7-2.1-2.3
		c-0.9-0.6-1.8-0.9-2.9-0.9h-8.7C44.4,362,44.4,374.6,44.4,374.6z"/>
	<path class="st0" d="M72.7,386.3c-1.3,0-2.5-0.3-3.7-0.8c-1.1-0.5-2.1-1.2-2.9-2.1s-1.5-1.9-1.9-3.1c-0.5-1.2-0.7-2.4-0.7-3.7
		c0-1.8,0.4-3.4,1.2-4.8c0.8-1.4,1.9-2.6,3.3-3.5s3-1.3,4.7-1.3c1.8,0,3.3,0.4,4.7,1.3c1.4,0.9,2.5,2.1,3.3,3.5s1.2,3,1.2,4.8
		c0,0.1,0,0.3,0,0.4s0,0.3,0,0.4H65.4c0.1,1.4,0.5,2.7,1.2,3.8c0.7,1.1,1.6,2,2.7,2.7s2.3,1,3.6,1s2.5-0.3,3.7-1s2-1.5,2.4-2.6
		l1.6,0.4c-0.4,0.9-0.9,1.7-1.7,2.4c-0.8,0.7-1.7,1.2-2.7,1.6C75,386.1,73.9,386.3,72.7,386.3z M65.3,375.9h14.8
		c-0.1-1.5-0.5-2.7-1.2-3.9c-0.7-1.1-1.6-2-2.6-2.7c-1.1-0.6-2.3-1-3.6-1c-1.3,0-2.5,0.3-3.6,1c-1.1,0.6-2,1.5-2.6,2.7
		C65.8,373.2,65.4,374.5,65.3,375.9z"/>
	<path class="st0" d="M84.5,376.6c0-1.7,0.4-3.3,1.1-4.8s1.8-2.6,3.1-3.5s2.8-1.3,4.4-1.3s3.1,0.4,4.3,1.3c1.3,0.9,2.2,1.9,3,3.1
		v-11.7h1.8v23.9c0,0.3,0.1,0.5,0.2,0.6s0.3,0.2,0.6,0.3v1.5c-0.4,0-0.7,0.1-0.9,0c-0.4-0.1-0.8-0.3-1.1-0.6
		c-0.3-0.3-0.4-0.7-0.4-1.1v-2.1c-0.8,1.2-1.8,2.2-3.1,3c-1.3,0.7-2.6,1.1-4,1.1c-1.3,0-2.5-0.3-3.6-0.8s-2.1-1.3-2.9-2.2
		c-0.8-0.9-1.4-1.9-1.9-3.1C84.7,379.1,84.5,377.9,84.5,376.6z M100.4,379.7v-6.1c-0.3-0.9-0.9-1.7-1.6-2.5s-1.6-1.3-2.5-1.8
		c-0.9-0.4-1.9-0.7-2.8-0.7c-1.1,0-2.1,0.2-2.9,0.7c-0.9,0.5-1.6,1.1-2.3,1.8c-0.6,0.8-1.1,1.6-1.5,2.6c-0.3,1-0.5,2-0.5,3
		c0,1.1,0.2,2.1,0.6,3s0.9,1.8,1.6,2.6c0.7,0.8,1.5,1.3,2.4,1.8s1.9,0.6,2.9,0.6c0.6,0,1.3-0.1,2.1-0.4c0.7-0.3,1.4-0.6,2.1-1.1
		s1.2-1,1.7-1.6C100.1,381,100.3,380.3,100.4,379.7z"/>
	<path class="st0" d="M115.9,386.3c-1.3,0-2.5-0.3-3.7-0.8c-1.1-0.5-2.1-1.2-2.9-2.1s-1.5-1.9-1.9-3.1c-0.5-1.2-0.7-2.4-0.7-3.7
		c0-1.8,0.4-3.4,1.2-4.8s1.9-2.6,3.3-3.5s3-1.3,4.7-1.3c1.8,0,3.3,0.4,4.7,1.3c1.4,0.9,2.5,2.1,3.3,3.5s1.2,3,1.2,4.8
		c0,0.1,0,0.3,0,0.4s0,0.3,0,0.4h-16.4c0.1,1.4,0.5,2.7,1.2,3.8c0.7,1.1,1.6,2,2.7,2.7s2.3,1,3.6,1s2.5-0.3,3.7-1s2-1.5,2.4-2.6
		l1.6,0.4c-0.4,0.9-0.9,1.7-1.7,2.4c-0.8,0.7-1.7,1.2-2.7,1.6C118.1,386.1,117,386.3,115.9,386.3z M108.4,375.9h14.8
		c-0.1-1.5-0.5-2.7-1.2-3.9c-0.7-1.1-1.6-2-2.6-2.7c-1.1-0.6-2.3-1-3.6-1c-1.3,0-2.5,0.3-3.6,1c-1.1,0.6-2,1.5-2.6,2.7
		C108.9,373.2,108.5,374.5,108.4,375.9z"/>
	<path class="st0" d="M136.9,386.3c-1.3,0-2.5-0.3-3.7-0.8c-1.1-0.5-2.1-1.2-2.9-2.1c-0.8-0.9-1.5-1.9-1.9-3.1
		c-0.5-1.2-0.7-2.4-0.7-3.7c0-1.8,0.4-3.4,1.2-4.8s1.9-2.6,3.3-3.5c1.4-0.9,3-1.3,4.7-1.3c1.8,0,3.3,0.4,4.7,1.3s2.5,2.1,3.3,3.5
		s1.2,3,1.2,4.8c0,0.1,0,0.3,0,0.4s0,0.3,0,0.4h-16.4c0.1,1.4,0.5,2.7,1.2,3.8c0.7,1.1,1.6,2,2.7,2.7c1.1,0.7,2.3,1,3.6,1
		s2.5-0.3,3.7-1s2-1.5,2.4-2.6l1.6,0.4c-0.4,0.9-0.9,1.7-1.7,2.4c-0.8,0.7-1.7,1.2-2.7,1.6C139.1,386.1,138,386.3,136.9,386.3z
		 M129.4,375.9h14.8c-0.1-1.5-0.5-2.7-1.2-3.9c-0.7-1.1-1.6-2-2.6-2.7c-1.1-0.6-2.3-1-3.6-1s-2.5,0.3-3.6,1c-1.1,0.6-2,1.5-2.6,2.7
		C129.9,373.2,129.5,374.5,129.4,375.9z"/>
	<path class="st0" d="M177.4,385.9h-1.8v-10.4c0-2.4-0.4-4.1-1.1-5.2c-0.7-1.1-1.9-1.7-3.4-1.7s-2.9,0.5-4.1,1.6s-2,2.5-2.5,4.2
		v11.5h-1.8v-10.4c0-2.4-0.4-4.1-1.1-5.3c-0.7-1.1-1.8-1.7-3.3-1.7s-2.9,0.5-4.1,1.6s-2,2.5-2.5,4.2v11.5h-1.8v-18.7h1.7v4.5
		c0.8-1.5,1.8-2.7,3.1-3.5c1.2-0.8,2.6-1.2,4.1-1.2c1.6,0,2.8,0.5,3.8,1.4s1.6,2.1,1.8,3.7c0.9-1.7,1.9-2.9,3.2-3.8
		c1.2-0.8,2.6-1.3,4.2-1.3c1,0,1.9,0.2,2.6,0.6c0.7,0.4,1.3,0.9,1.8,1.6s0.8,1.6,1,2.6s0.3,2.2,0.3,3.5L177.4,385.9L177.4,385.9z"/>
	<path class="st0" d="M192.6,385.9v-25.6h10.5c1.1,0,2.1,0.2,3,0.7s1.7,1.1,2.4,1.8c0.7,0.8,1.2,1.6,1.6,2.5
		c0.4,0.9,0.6,1.9,0.6,2.9c0,1.4-0.3,2.7-0.9,3.9s-1.5,2.2-2.5,3c-1.1,0.8-2.3,1.2-3.8,1.2h-8.9v9.6H192.6z M194.5,374.6h8.8
		c1.1,0,2.1-0.3,2.9-0.9c0.8-0.6,1.4-1.4,1.9-2.3s0.6-2,0.6-3.1s-0.3-2.2-0.8-3.1s-1.2-1.7-2.1-2.3S204,362,203,362h-8.6v12.6H194.5
		z"/>
	<path class="st0" d="M222,386.3c-1.3,0-2.5-0.3-3.7-0.8c-1.1-0.5-2.1-1.2-2.9-2.1c-0.8-0.9-1.5-1.9-1.9-3.1s-0.7-2.4-0.7-3.7
		c0-1.3,0.2-2.6,0.7-3.7s1.1-2.2,1.9-3.1s1.8-1.6,2.9-2.1c1.1-0.5,2.3-0.8,3.6-0.8s2.5,0.3,3.6,0.8s2.1,1.2,2.9,2.1
		c0.8,0.9,1.5,1.9,1.9,3.1c0.5,1.2,0.7,2.4,0.7,3.7c0,1.3-0.2,2.5-0.7,3.7s-1.1,2.2-1.9,3.1s-1.8,1.6-2.9,2.1
		C224.5,386,223.3,386.3,222,386.3z M214.6,376.7c0,1.5,0.3,2.8,1,4s1.5,2.2,2.6,2.9c1.1,0.7,2.3,1.1,3.7,1.1c1.3,0,2.6-0.4,3.7-1.1
		c1.1-0.7,2-1.7,2.7-2.9c0.7-1.2,1-2.6,1-4c0-1.5-0.3-2.8-1-4s-1.5-2.2-2.7-2.9c-1.1-0.7-2.3-1.1-3.7-1.1c-1.3,0-2.6,0.4-3.7,1.1
		c-1.1,0.7-2,1.7-2.7,2.9C215,373.8,214.6,375.2,214.6,376.7z"/>
	<path class="st0" d="M235.4,363v-3.3h1.8v3.3H235.4z M235.4,385.9v-18.7h1.8v18.7H235.4z"/>
	<path class="st0" d="M258.2,385.9h-1.8v-10.4c0-2.4-0.3-4.1-1-5.3c-0.7-1.1-1.8-1.7-3.3-1.7c-1.1,0-2.1,0.3-3.1,0.8
		s-1.9,1.2-2.7,2.1s-1.3,1.9-1.6,3v11.5h-1.8v-18.7h1.7v4.5c0.5-1,1.2-1.8,2-2.5s1.8-1.3,2.8-1.7c1-0.4,2.1-0.6,3.2-0.6
		c1,0,1.9,0.2,2.6,0.6s1.3,0.9,1.7,1.6c0.4,0.7,0.8,1.6,1,2.6s0.3,2.2,0.3,3.5V385.9z"/>
	<path class="st0" d="M271.8,385.2c-0.1,0-0.4,0.2-0.7,0.4c-0.4,0.2-0.8,0.4-1.4,0.5c-0.6,0.2-1.2,0.2-1.8,0.2
		c-0.6,0-1.3-0.1-1.8-0.4c-0.6-0.3-1-0.6-1.4-1.1c-0.3-0.5-0.5-1.1-0.5-1.8v-14.2h-2.6v-1.5h2.6v-6.4h1.8v6.4h4.4v1.5H266v13.8
		c0,0.7,0.3,1.2,0.8,1.6s1,0.5,1.6,0.5c0.7,0,1.4-0.1,1.9-0.4s0.9-0.4,1-0.5L271.8,385.2z"/>
	<path class="st0" d="M280.9,386.3c-1.5,0-2.9-0.3-4.1-0.8c-1.3-0.5-2.4-1.3-3.3-2.3l0.8-1.3c1,1,2.1,1.7,3.1,2.1
		c1.1,0.4,2.2,0.7,3.5,0.7c1.6,0,2.9-0.3,3.9-1s1.5-1.6,1.5-2.8c0-0.8-0.2-1.4-0.7-1.9c-0.5-0.4-1.1-0.8-2-1.1
		c-0.9-0.3-1.9-0.6-3.2-0.9c-1.3-0.3-2.3-0.7-3.2-1c-0.9-0.4-1.5-0.8-2-1.4c-0.4-0.6-0.6-1.4-0.6-2.3c0-1.2,0.3-2.2,0.9-3
		s1.4-1.4,2.5-1.8s2.2-0.6,3.5-0.6c1.5,0,2.7,0.2,3.8,0.7c1.1,0.5,1.9,1.1,2.5,1.9l-1,1.2c-0.6-0.8-1.4-1.3-2.3-1.7
		c-1-0.4-2-0.6-3.2-0.6c-0.9,0-1.7,0.1-2.4,0.4c-0.8,0.2-1.4,0.6-1.9,1.2c-0.5,0.5-0.7,1.3-0.7,2.2c0,0.7,0.2,1.3,0.5,1.7
		c0.3,0.4,0.9,0.7,1.6,1s1.6,0.5,2.6,0.8c1.5,0.4,2.7,0.7,3.8,1.1c1.1,0.4,1.9,0.9,2.4,1.5s0.9,1.5,0.9,2.6c0,1.7-0.6,3-1.9,4
		C284.7,385.8,283,386.3,280.9,386.3z"/>
	<path class="st0" d="M302.3,385.9v-17.2h-2.6v-1.5h2.6v-0.6c0-1.5,0.2-2.8,0.6-3.9s1-1.9,1.8-2.5s1.7-0.9,2.8-0.9
		c0.7,0,1.4,0.1,2.1,0.3c0.7,0.2,1.2,0.5,1.7,0.9l-0.6,1.3c-0.3-0.3-0.7-0.5-1.2-0.7s-1-0.2-1.5-0.2c-1.2,0-2.2,0.5-2.8,1.5
		c-0.7,1-1,2.4-1,4.2v0.6h5.3v1.5h-5.3v17.2L302.3,385.9L302.3,385.9z"/>
	<path class="st0" d="M320,386.3c-1.3,0-2.5-0.3-3.7-0.8c-1.1-0.5-2.1-1.2-2.9-2.1s-1.5-1.9-1.9-3.1s-0.7-2.4-0.7-3.7
		c0-1.3,0.2-2.6,0.7-3.7s1.1-2.2,1.9-3.1s1.8-1.6,2.9-2.1s2.3-0.8,3.6-0.8c1.3,0,2.5,0.3,3.6,0.8s2.1,1.2,2.9,2.1s1.5,1.9,1.9,3.1
		c0.5,1.2,0.7,2.4,0.7,3.7c0,1.3-0.2,2.5-0.7,3.7s-1.1,2.2-1.9,3.1s-1.8,1.6-2.9,2.1C322.5,386,321.3,386.3,320,386.3z M312.7,376.7
		c0,1.5,0.3,2.8,1,4s1.5,2.2,2.6,2.9c1.1,0.7,2.3,1.1,3.7,1.1c1.3,0,2.6-0.4,3.7-1.1s2-1.7,2.7-2.9s1-2.6,1-4c0-1.5-0.3-2.8-1-4
		s-1.5-2.2-2.7-2.9c-1.1-0.7-2.3-1.1-3.7-1.1c-1.3,0-2.6,0.4-3.7,1.1s-2,1.7-2.7,2.9C313,373.8,312.7,375.2,312.7,376.7z"/>
	<path class="st0" d="M342.3,368.8c-1.7,0-3.1,0.5-4.4,1.5c-1.3,0.9-2.1,2.2-2.6,3.9v11.7h-1.8v-18.7h1.7v4.6
		c0.6-1.3,1.5-2.4,2.6-3.2s2.2-1.3,3.4-1.4c0.2,0,0.5,0,0.6,0c0.2,0,0.3,0,0.5,0L342.3,368.8L342.3,368.8z"/>
	<path class="st0" d="M354.7,385.9v-25.6h10.5c1.1,0,2.1,0.2,3,0.7s1.7,1.1,2.4,1.8c0.7,0.8,1.2,1.6,1.6,2.5s0.6,1.9,0.6,2.9
		c0,1.4-0.3,2.7-0.9,3.9c-0.6,1.2-1.5,2.2-2.5,3c-1.1,0.8-2.3,1.2-3.8,1.2h-8.9v9.6H354.7z M356.5,374.6h8.8c1.1,0,2.1-0.3,2.9-0.9
		s1.4-1.4,1.9-2.3c0.4-1,0.6-2,0.6-3.1s-0.3-2.2-0.8-3.1s-1.2-1.7-2.1-2.3c-0.9-0.6-1.8-0.9-2.8-0.9h-8.6v12.6H356.5z"/>
	<path class="st0" d="M385.4,368.8c-1.7,0-3.2,0.5-4.4,1.5c-1.3,0.9-2.1,2.2-2.6,3.9v11.7h-1.8v-18.7h1.7v4.6
		c0.6-1.3,1.5-2.4,2.6-3.2s2.2-1.3,3.4-1.4c0.2,0,0.5,0,0.6,0s0.3,0,0.5,0L385.4,368.8L385.4,368.8z"/>
	<path class="st0" d="M395.9,386.3c-1.3,0-2.5-0.3-3.7-0.8c-1.1-0.5-2.1-1.2-2.9-2.1s-1.5-1.9-1.9-3.1s-0.7-2.4-0.7-3.7
		c0-1.3,0.2-2.6,0.7-3.7s1.1-2.2,1.9-3.1s1.8-1.6,2.9-2.1s2.3-0.8,3.6-0.8s2.5,0.3,3.6,0.8s2.1,1.2,2.9,2.1s1.5,1.9,1.9,3.1
		s0.7,2.4,0.7,3.7c0,1.3-0.2,2.5-0.7,3.7s-1.1,2.2-1.9,3.1s-1.8,1.6-2.9,2.1C398.4,386,397.2,386.3,395.9,386.3z M388.6,376.7
		c0,1.5,0.3,2.8,1,4s1.5,2.2,2.6,2.9c1.1,0.7,2.3,1.1,3.7,1.1c1.3,0,2.6-0.4,3.7-1.1s2-1.7,2.7-2.9c0.7-1.2,1-2.6,1-4
		c0-1.5-0.3-2.8-1-4s-1.5-2.2-2.7-2.9c-1.1-0.7-2.3-1.1-3.7-1.1c-1.3,0-2.6,0.4-3.7,1.1s-2,1.7-2.7,2.9
		C388.9,373.8,388.6,375.2,388.6,376.7z"/>
	<path class="st0" d="M436.9,385.9h-1.8v-10.4c0-2.4-0.4-4.1-1.1-5.2s-1.9-1.7-3.4-1.7s-2.9,0.5-4.1,1.6s-2,2.5-2.5,4.2v11.5h-1.8
		v-10.4c0-2.4-0.4-4.1-1.1-5.3s-1.8-1.7-3.3-1.7s-2.9,0.5-4.1,1.6s-2,2.5-2.5,4.2v11.5h-1.8v-18.7h1.7v4.5c0.8-1.5,1.8-2.7,3.1-3.5
		c1.2-0.8,2.6-1.2,4.1-1.2c1.6,0,2.8,0.5,3.8,1.4s1.6,2.1,1.8,3.7c0.9-1.7,1.9-2.9,3.2-3.8s2.6-1.3,4.2-1.3c1,0,1.9,0.2,2.6,0.6
		s1.3,0.9,1.8,1.6s0.8,1.6,1,2.6s0.3,2.2,0.3,3.5v10.7H436.9z"/>
	<path class="st0" d="M450.2,386.3c-1.3,0-2.5-0.3-3.7-0.8c-1.1-0.5-2.1-1.2-2.9-2.1s-1.5-1.9-1.9-3.1s-0.7-2.4-0.7-3.7
		c0-1.3,0.2-2.6,0.7-3.7s1.1-2.2,1.9-3.1s1.8-1.6,2.9-2.1s2.3-0.8,3.6-0.8c1.3,0,2.5,0.3,3.6,0.8s2.1,1.2,2.9,2.1s1.5,1.9,1.9,3.1
		c0.5,1.2,0.7,2.4,0.7,3.7c0,1.3-0.2,2.5-0.7,3.7s-1.1,2.2-1.9,3.1s-1.8,1.6-2.9,2.1C452.7,386,451.5,386.3,450.2,386.3z
		 M442.8,376.7c0,1.5,0.3,2.8,1,4s1.5,2.2,2.6,2.9c1.1,0.7,2.3,1.1,3.7,1.1c1.3,0,2.6-0.4,3.7-1.1s2-1.7,2.7-2.9s1-2.6,1-4
		c0-1.5-0.3-2.8-1-4s-1.5-2.2-2.7-2.9c-1.1-0.7-2.3-1.1-3.7-1.1c-1.3,0-2.6,0.4-3.7,1.1s-2,1.7-2.7,2.9
		C443.2,373.8,442.8,375.2,442.8,376.7z"/>
	<path class="st0" d="M92.9,416.1c0-1.5,0.3-3.1,0.8-4.6s1.3-2.9,2.4-4.1c1-1.2,2.3-2.2,3.8-3c1.5-0.7,3.2-1.1,5.1-1.1
		c2.3,0,4.2,0.5,5.8,1.6c1.6,1,2.8,2.4,3.6,4l-1.5,0.9c-0.6-1.2-1.3-2.1-2.2-2.8c-0.9-0.7-1.8-1.2-2.8-1.5s-2-0.5-3-0.5
		c-1.6,0-3,0.3-4.3,1c-1.3,0.6-2.3,1.5-3.2,2.6c-0.9,1.1-1.5,2.3-2,3.6c-0.4,1.3-0.7,2.7-0.7,4c0,1.5,0.3,2.9,0.8,4.3
		s1.3,2.6,2.2,3.6c0.9,1.1,2,1.9,3.2,2.5s2.6,0.9,4,0.9c1,0,2.1-0.2,3.1-0.5c1.1-0.3,2.1-0.9,3-1.6s1.7-1.7,2.3-2.9l1.6,0.8
		c-0.6,1.3-1.4,2.4-2.5,3.2c-1.1,0.9-2.3,1.6-3.7,2c-1.3,0.5-2.7,0.7-4,0.7c-1.7,0-3.3-0.4-4.8-1.1s-2.7-1.8-3.8-3
		c-1.1-1.3-1.9-2.7-2.5-4.2C93.2,419.3,92.9,417.7,92.9,416.1z"/>
	<path class="st0" d="M126.8,429.5c-1.3,0-2.5-0.3-3.7-0.8c-1.1-0.5-2.1-1.2-2.9-2.1s-1.5-1.9-1.9-3.1s-0.7-2.4-0.7-3.7
		c0-1.3,0.2-2.6,0.7-3.7s1.1-2.2,1.9-3.1s1.8-1.6,2.9-2.1s2.3-0.8,3.6-0.8s2.5,0.3,3.6,0.8c1.1,0.5,2.1,1.2,2.9,2.1
		c0.8,0.9,1.5,1.9,1.9,3.1c0.5,1.2,0.7,2.4,0.7,3.7c0,1.3-0.2,2.5-0.7,3.7s-1.1,2.2-1.9,3.1s-1.8,1.6-2.9,2.1
		C129.3,429.2,128.1,429.5,126.8,429.5z M119.4,419.9c0,1.5,0.3,2.8,1,4s1.5,2.2,2.6,2.9c1.1,0.7,2.3,1.1,3.7,1.1
		c1.3,0,2.6-0.4,3.7-1.1c1.1-0.7,2-1.7,2.7-2.9c0.7-1.2,1-2.6,1-4c0-1.5-0.3-2.8-1-4s-1.5-2.2-2.7-2.9c-1.1-0.7-2.3-1.1-3.7-1.1
		c-1.3,0-2.6,0.4-3.7,1.1s-2,1.7-2.7,2.9C119.8,417,119.4,418.4,119.4,419.9z"/>
	<path class="st0" d="M138.9,419.8c0-1.7,0.4-3.3,1.1-4.8c0.7-1.5,1.8-2.6,3.1-3.5s2.8-1.3,4.4-1.3c1.6,0,3.1,0.4,4.3,1.3
		c1.3,0.9,2.2,1.9,3,3.1v-11.7h1.8v23.9c0,0.3,0.1,0.5,0.2,0.6c0.1,0.1,0.3,0.2,0.6,0.3v1.5c-0.4,0-0.7,0.1-0.9,0
		c-0.4-0.1-0.8-0.3-1.1-0.6c-0.3-0.3-0.4-0.7-0.4-1.1v-2.1c-0.8,1.2-1.8,2.2-3.1,3c-1.3,0.7-2.6,1.1-4,1.1c-1.3,0-2.5-0.3-3.6-0.8
		s-2.1-1.3-2.9-2.2c-0.8-0.9-1.4-1.9-1.9-3.1C139.2,422.3,138.9,421.1,138.9,419.8z M154.9,422.9v-6.1c-0.3-0.9-0.9-1.7-1.6-2.5
		c-0.7-0.8-1.6-1.3-2.5-1.8c-0.9-0.4-1.9-0.7-2.8-0.7c-1.1,0-2.1,0.2-2.9,0.7c-0.9,0.5-1.6,1.1-2.3,1.8c-0.6,0.8-1.1,1.6-1.5,2.6
		c-0.3,1-0.5,2-0.5,3c0,1.1,0.2,2.1,0.6,3s0.9,1.8,1.6,2.6c0.7,0.8,1.5,1.3,2.4,1.8s1.9,0.6,2.9,0.6c0.6,0,1.3-0.1,2.1-0.4
		c0.7-0.3,1.4-0.6,2.1-1.1c0.7-0.5,1.2-1,1.7-1.6C154.5,424.2,154.8,423.5,154.9,422.9z"/>
	<path class="st0" d="M170.3,429.5c-1.3,0-2.5-0.3-3.7-0.8c-1.1-0.5-2.1-1.2-2.9-2.1c-0.8-0.9-1.5-1.9-1.9-3.1
		c-0.5-1.2-0.7-2.4-0.7-3.7c0-1.8,0.4-3.4,1.2-4.8s1.9-2.6,3.3-3.5c1.4-0.9,3-1.3,4.7-1.3c1.8,0,3.3,0.4,4.7,1.3s2.5,2.1,3.3,3.5
		s1.2,3,1.2,4.8c0,0.1,0,0.3,0,0.4s0,0.3,0,0.4H163c0.1,1.4,0.5,2.7,1.2,3.8c0.7,1.1,1.6,2,2.7,2.7c1.1,0.7,2.3,1,3.6,1
		s2.5-0.3,3.7-1s2-1.5,2.4-2.6l1.6,0.4c-0.4,0.9-0.9,1.7-1.7,2.4c-0.8,0.7-1.7,1.2-2.7,1.6C172.6,429.3,171.5,429.5,170.3,429.5z
		 M162.9,419.1h14.8c-0.1-1.5-0.5-2.7-1.2-3.9c-0.7-1.1-1.6-2-2.6-2.7c-1.1-0.6-2.3-1-3.6-1s-2.5,0.3-3.6,1c-1.1,0.6-2,1.5-2.6,2.7
		C163.4,416.4,163,417.7,162.9,419.1z"/>
	<path class="st0" d="M189.3,429.5c-1.5,0-2.9-0.3-4.1-0.8c-1.3-0.5-2.4-1.3-3.3-2.3l0.8-1.3c1,1,2.1,1.7,3.1,2.1
		c1.1,0.4,2.2,0.7,3.5,0.7c1.6,0,2.9-0.3,3.9-1s1.5-1.6,1.5-2.8c0-0.8-0.2-1.4-0.7-1.9c-0.5-0.4-1.1-0.8-2-1.1
		c-0.9-0.3-1.9-0.6-3.2-0.9s-2.3-0.7-3.2-1c-0.9-0.4-1.5-0.8-2-1.4c-0.4-0.6-0.6-1.4-0.6-2.3c0-1.2,0.3-2.2,0.9-3
		c0.6-0.8,1.4-1.4,2.5-1.8s2.2-0.6,3.5-0.6c1.5,0,2.7,0.2,3.8,0.7s1.9,1.1,2.5,1.9l-1,1.2c-0.6-0.8-1.4-1.3-2.3-1.7
		c-1-0.4-2-0.6-3.2-0.6c-0.9,0-1.7,0.1-2.4,0.4c-0.8,0.2-1.4,0.6-1.9,1.2c-0.5,0.5-0.7,1.3-0.7,2.2c0,0.7,0.2,1.3,0.5,1.7
		c0.3,0.4,0.9,0.7,1.6,1c0.7,0.3,1.6,0.5,2.6,0.8c1.5,0.4,2.7,0.7,3.8,1.1s1.9,0.9,2.4,1.5s0.9,1.5,0.9,2.6c0,1.7-0.6,3-1.9,4
		C193.1,429,191.4,429.5,189.3,429.5z"/>
	<path class="st0" d="M208.3,423.7c0-1.1,0.3-2.1,1-2.9s1.6-1.5,2.8-1.9c1.2-0.5,2.5-0.7,4.1-0.7c1,0,2,0.1,3,0.3
		c1,0.2,2,0.4,2.8,0.7v-1.8c0-1.7-0.5-3.1-1.5-4.1s-2.4-1.5-4.1-1.5c-0.9,0-1.9,0.2-2.9,0.6s-2,0.9-3.1,1.7l-0.8-1.3
		c1.2-0.8,2.4-1.4,3.5-1.9c1.1-0.4,2.3-0.6,3.4-0.6c2.2,0,4,0.7,5.3,2s1.9,3.1,1.9,5.4v9.2c0,0.3,0.1,0.5,0.2,0.6
		c0.1,0.1,0.3,0.2,0.6,0.3v1.5c-0.2,0-0.4,0-0.5,0s-0.3,0-0.4,0c-0.5-0.1-0.8-0.3-1.1-0.6c-0.3-0.3-0.4-0.7-0.4-1v-1.5
		c-0.9,1.1-2,1.9-3.3,2.5s-2.8,0.9-4.3,0.9c-1.2,0-2.2-0.3-3.2-0.8s-1.7-1.2-2.2-2.1C208.6,425.8,208.3,424.8,208.3,423.7z
		 M221.2,425.3c0.2-0.3,0.4-0.6,0.5-0.9s0.2-0.5,0.2-0.8v-3.1c-0.9-0.3-1.8-0.6-2.7-0.8c-0.9-0.2-1.9-0.3-2.9-0.3
		c-1.9,0-3.4,0.4-4.6,1.1c-1.2,0.7-1.7,1.7-1.7,3c0,0.8,0.2,1.5,0.6,2.2c0.4,0.7,1,1.2,1.7,1.6s1.6,0.6,2.5,0.6
		c1.3,0,2.6-0.3,3.7-0.8C219.8,426.8,220.6,426.1,221.2,425.3z"/>
	<path class="st0" d="M237.4,428.4c-0.1,0-0.4,0.2-0.7,0.4c-0.4,0.2-0.8,0.4-1.4,0.5s-1.2,0.2-1.8,0.2s-1.3-0.1-1.8-0.4
		c-0.6-0.3-1-0.6-1.4-1.1c-0.3-0.5-0.5-1.1-0.5-1.8V412h-2.6v-1.5h2.6V404h1.8v6.4h4.4v1.5h-4.4v13.8c0,0.7,0.3,1.2,0.8,1.6
		s1,0.5,1.6,0.5c0.7,0,1.4-0.1,1.9-0.4c0.6-0.3,0.9-0.4,1-0.5L237.4,428.4z"/>
	<path class="st0" d="M258.2,428.4c-0.1,0-0.4,0.2-0.7,0.4c-0.4,0.2-0.8,0.4-1.4,0.5c-0.6,0.2-1.2,0.2-1.8,0.2s-1.3-0.1-1.8-0.4
		c-0.6-0.3-1-0.6-1.4-1.1c-0.3-0.5-0.5-1.1-0.5-1.8V412H248v-1.5h2.6V404h1.8v6.4h4.4v1.5h-4.4v13.8c0,0.7,0.3,1.2,0.8,1.6
		s1,0.5,1.6,0.5c0.7,0,1.4-0.1,1.9-0.4s0.9-0.4,1-0.5L258.2,428.4z"/>
	<path class="st0" d="M276.6,429.1h-1.8v-10.4c0-2.3-0.4-4-1.2-5.2s-1.9-1.7-3.5-1.7c-1,0-2,0.3-3,0.8s-1.8,1.2-2.6,2.1
		c-0.7,0.9-1.2,1.9-1.5,3v11.5h-1.8v-26.3h1.8V415c0.8-1.5,1.8-2.6,3.2-3.5s2.8-1.3,4.4-1.3c1.1,0,2,0.2,2.7,0.6s1.4,0.9,1.8,1.7
		c0.5,0.7,0.8,1.6,1.1,2.6c0.2,1,0.3,2.2,0.3,3.4v10.6H276.6z"/>
	<path class="st0" d="M290,429.5c-1.3,0-2.5-0.3-3.7-0.8c-1.1-0.5-2.1-1.2-2.9-2.1s-1.5-1.9-1.9-3.1c-0.5-1.2-0.7-2.4-0.7-3.7
		c0-1.8,0.4-3.4,1.2-4.8s1.9-2.6,3.3-3.5s3-1.3,4.7-1.3c1.8,0,3.3,0.4,4.7,1.3c1.4,0.9,2.5,2.1,3.3,3.5s1.2,3,1.2,4.8
		c0,0.1,0,0.3,0,0.4s0,0.3,0,0.4h-16.4c0.1,1.4,0.5,2.7,1.2,3.8c0.7,1.1,1.6,2,2.7,2.7s2.3,1,3.6,1s2.5-0.3,3.7-1s2-1.5,2.4-2.6
		l1.6,0.4c-0.4,0.9-0.9,1.7-1.7,2.4c-0.8,0.7-1.7,1.2-2.7,1.6C292.3,429.3,291.2,429.5,290,429.5z M282.6,419.1h14.8
		c-0.1-1.5-0.5-2.7-1.2-3.9c-0.7-1.1-1.6-2-2.6-2.7c-1.1-0.6-2.3-1-3.6-1c-1.3,0-2.5,0.3-3.6,1c-1.1,0.6-2,1.5-2.6,2.7
		C283.1,416.4,282.7,417.7,282.6,419.1z"/>
	<path class="st0" d="M312.9,429.1v-25.6h1.8v25.6H312.9z"/>
	<path class="st0" d="M336.1,429.1h-1.8v-10.4c0-2.4-0.3-4.1-1-5.3c-0.7-1.1-1.8-1.7-3.3-1.7c-1.1,0-2.1,0.3-3.1,0.8
		s-1.9,1.2-2.7,2.1c-0.8,0.9-1.3,1.9-1.6,3v11.5h-1.8v-18.7h1.7v4.5c0.5-1,1.2-1.8,2-2.5s1.8-1.3,2.8-1.7c1-0.4,2.1-0.6,3.2-0.6
		c1,0,1.9,0.2,2.6,0.6s1.3,0.9,1.7,1.6c0.4,0.7,0.8,1.6,1,2.6s0.3,2.2,0.3,3.5L336.1,429.1L336.1,429.1z"/>
	<path class="st0" d="M356.9,429.1h-1.8v-10.4c0-2.4-0.3-4.1-1-5.3s-1.8-1.7-3.3-1.7c-1.1,0-2.1,0.3-3.1,0.8s-1.9,1.2-2.7,2.1
		c-0.8,0.9-1.3,1.9-1.6,3v11.5h-1.8v-18.7h1.7v4.5c0.5-1,1.2-1.8,2-2.5s1.8-1.3,2.8-1.7c1-0.4,2.1-0.6,3.2-0.6c1,0,1.9,0.2,2.6,0.6
		s1.3,0.9,1.7,1.6c0.4,0.7,0.8,1.6,1,2.6s0.3,2.2,0.3,3.5L356.9,429.1L356.9,429.1z"/>
	<path class="st0" d="M370,423.7c0-1.1,0.3-2.1,1-2.9s1.6-1.5,2.8-1.9s2.5-0.7,4.1-0.7c1,0,2,0.1,3,0.3c1,0.2,2,0.4,2.8,0.7v-1.8
		c0-1.7-0.5-3.1-1.5-4.1s-2.4-1.5-4.1-1.5c-0.9,0-1.9,0.2-2.9,0.6s-2,0.9-3.1,1.7l-0.8-1.3c1.2-0.8,2.4-1.4,3.5-1.9
		c1.1-0.4,2.3-0.6,3.4-0.6c2.2,0,4,0.7,5.3,2s1.9,3.1,1.9,5.4v9.2c0,0.3,0.1,0.5,0.2,0.6s0.3,0.2,0.6,0.3v1.5c-0.2,0-0.4,0-0.5,0
		s-0.3,0-0.4,0c-0.5-0.1-0.8-0.3-1.1-0.6c-0.3-0.3-0.4-0.7-0.4-1v-1.5c-0.9,1.1-2,1.9-3.3,2.5c-1.4,0.6-2.8,0.9-4.3,0.9
		c-1.2,0-2.2-0.3-3.2-0.8s-1.7-1.2-2.2-2.1C370.3,425.8,370,424.8,370,423.7z M382.9,425.3c0.2-0.3,0.4-0.6,0.5-0.9s0.2-0.5,0.2-0.8
		v-3.1c-0.9-0.3-1.8-0.6-2.7-0.8c-0.9-0.2-1.9-0.3-2.9-0.3c-1.9,0-3.4,0.4-4.6,1.1s-1.7,1.7-1.7,3c0,0.8,0.2,1.5,0.6,2.2
		s1,1.2,1.7,1.6s1.6,0.6,2.5,0.6c1.3,0,2.6-0.3,3.7-0.8C381.5,426.8,382.3,426.1,382.9,425.3z"/>
	<path class="st0" d="M399.1,428.4c-0.1,0-0.4,0.2-0.7,0.4c-0.4,0.2-0.8,0.4-1.4,0.5c-0.6,0.2-1.2,0.2-1.8,0.2
		c-0.6,0-1.3-0.1-1.8-0.4s-1-0.6-1.3-1.1s-0.5-1.1-0.5-1.8V412H389v-1.5h2.6V404h1.8v6.4h4.4v1.5h-4.4v13.8c0,0.7,0.3,1.2,0.8,1.6
		s1,0.5,1.6,0.5c0.7,0,1.4-0.1,1.9-0.4c0.6-0.3,0.9-0.4,1-0.5L399.1,428.4z"/>
	<path class="st0" d="M93.1,446.8v25.6h-1.8v-12.2H75.1v12.2h-1.8v-25.6h1.8v11.7h16.1v-11.7H93.1z"/>
	<path class="st0" d="M97.5,466.9c0-1.1,0.3-2.1,1-2.9s1.6-1.5,2.8-1.9c1.2-0.5,2.5-0.7,4.1-0.7c1,0,2,0.1,3,0.3
		c1,0.2,2,0.4,2.8,0.7v-1.8c0-1.7-0.5-3.1-1.5-4.1s-2.4-1.5-4.1-1.5c-0.9,0-1.9,0.2-2.9,0.6s-2,0.9-3.1,1.7l-0.8-1.3
		c1.2-0.8,2.4-1.4,3.5-1.9c1.1-0.4,2.3-0.6,3.4-0.6c2.2,0,4,0.7,5.3,2s1.9,3.1,1.9,5.4v9.2c0,0.3,0.1,0.5,0.2,0.6s0.3,0.2,0.6,0.3
		v1.5c-0.2,0-0.4,0-0.5,0s-0.3,0-0.4,0c-0.5-0.1-0.8-0.3-1.1-0.6c-0.3-0.3-0.4-0.7-0.4-1v-1.5c-0.9,1.1-2,1.9-3.3,2.5
		s-2.8,0.9-4.3,0.9c-1.2,0-2.2-0.3-3.2-0.8s-1.7-1.2-2.2-2.1C97.7,469,97.5,468,97.5,466.9z M110.4,468.5c0.2-0.3,0.4-0.6,0.5-0.9
		s0.2-0.5,0.2-0.8v-3.1c-0.9-0.3-1.8-0.6-2.7-0.8c-0.9-0.2-1.9-0.3-2.9-0.3c-1.9,0-3.4,0.4-4.6,1.1s-1.7,1.7-1.7,3
		c0,0.8,0.2,1.5,0.6,2.2s1,1.2,1.7,1.6s1.6,0.6,2.5,0.6c1.3,0,2.6-0.3,3.7-0.8C108.9,470,109.8,469.3,110.4,468.5z"/>
	<path class="st0" d="M124.3,472.7c-1.5,0-2.9-0.3-4.1-0.8c-1.3-0.5-2.4-1.3-3.3-2.3l0.8-1.3c1,1,2.1,1.7,3.1,2.1
		c1.1,0.4,2.2,0.7,3.5,0.7c1.6,0,2.9-0.3,3.9-1c1-0.7,1.5-1.6,1.5-2.8c0-0.8-0.2-1.4-0.7-1.9c-0.5-0.4-1.1-0.8-2-1.1
		c-0.9-0.3-1.9-0.6-3.2-0.9c-1.3-0.3-2.3-0.7-3.2-1c-0.9-0.4-1.5-0.8-2-1.4c-0.4-0.6-0.6-1.4-0.6-2.3c0-1.2,0.3-2.2,0.9-3
		s1.4-1.4,2.5-1.8s2.2-0.6,3.5-0.6c1.5,0,2.7,0.2,3.8,0.7s1.9,1.1,2.5,1.9l-1,1.2c-0.6-0.8-1.4-1.3-2.3-1.7c-1-0.4-2-0.6-3.2-0.6
		c-0.9,0-1.7,0.1-2.4,0.4c-0.8,0.2-1.4,0.6-1.9,1.2c-0.5,0.5-0.7,1.3-0.7,2.2c0,0.7,0.2,1.3,0.5,1.7c0.3,0.4,0.9,0.7,1.6,1
		s1.6,0.5,2.6,0.8c1.5,0.4,2.7,0.7,3.8,1.1s1.9,0.9,2.4,1.5s0.9,1.5,0.9,2.6c0,1.7-0.6,3-1.9,4C128.1,472.2,126.4,472.7,124.3,472.7
		z"/>
	<path class="st0" d="M143.9,471.6c-0.1,0-0.4,0.2-0.7,0.4c-0.4,0.2-0.8,0.4-1.4,0.5s-1.2,0.2-1.8,0.2s-1.3-0.1-1.8-0.4
		c-0.6-0.3-1-0.6-1.4-1.1c-0.3-0.5-0.5-1.1-0.5-1.8v-14.2h-2.6v-1.5h2.6v-6.4h1.8v6.4h4.4v1.5h-4.4V469c0,0.7,0.3,1.2,0.8,1.6
		s1,0.5,1.6,0.5c0.7,0,1.4-0.1,1.9-0.4c0.6-0.3,0.9-0.4,1-0.5L143.9,471.6z"/>
	<path class="st0" d="M147.1,449.4V446h1.8v3.3h-1.8V449.4z M147.1,472.3v-18.7h1.8v18.7H147.1z"/>
	<path class="st0" d="M169.9,472.3h-1.8v-10.4c0-2.4-0.3-4.1-1-5.3c-0.7-1.1-1.8-1.7-3.3-1.7c-1.1,0-2.1,0.3-3.1,0.8
		s-1.9,1.2-2.7,2.1s-1.3,1.9-1.6,3v11.5h-1.8v-18.7h1.7v4.5c0.5-1,1.2-1.8,2-2.5s1.8-1.3,2.8-1.7c1-0.4,2.1-0.6,3.2-0.6
		c1,0,1.9,0.2,2.6,0.6c0.7,0.4,1.3,0.9,1.7,1.6s0.8,1.6,1,2.6s0.3,2.2,0.3,3.5L169.9,472.3L169.9,472.3z"/>
	<path class="st0" d="M182.9,472.7c-1.3,0-2.5-0.3-3.5-0.8c-1.1-0.5-2-1.3-2.8-2.2c-0.8-0.9-1.4-2-1.8-3.1c-0.4-1.1-0.7-2.3-0.7-3.5
		c0-1.3,0.2-2.5,0.6-3.7c0.4-1.2,1-2.2,1.8-3.1s1.7-1.6,2.8-2.1s2.2-0.8,3.5-0.8c1.6,0,3.1,0.4,4.3,1.3c1.2,0.8,2.2,1.9,3.1,3.1
		v-4.1h1.7v19.1c0,1.7-0.4,3.1-1.2,4.2c-0.8,1.2-1.9,2-3.2,2.6s-2.8,0.8-4.4,0.8c-2.2,0-3.9-0.4-5.2-1.2c-1.3-0.8-2.3-1.8-3.1-3.1
		l1.2-0.8c0.7,1.2,1.8,2.2,3,2.8c1.3,0.6,2.6,0.9,4.1,0.9c1.3,0,2.4-0.2,3.5-0.7s1.9-1.2,2.6-2.1c0.6-0.9,1-2,1-3.4v-4.1
		c-0.7,1.2-1.8,2.2-3,2.9C185.6,472.3,184.3,472.7,182.9,472.7z M183.3,471.1c0.8,0,1.6-0.1,2.3-0.4s1.4-0.7,2.1-1.2
		c0.6-0.5,1.1-1,1.5-1.6s0.6-1.2,0.7-1.8v-6.2c-0.4-1-0.9-1.8-1.6-2.6c-0.7-0.8-1.6-1.3-2.5-1.8S184,455,183,455
		c-1.1,0-2.1,0.2-3,0.7s-1.6,1.1-2.2,1.9c-0.6,0.8-1.1,1.7-1.4,2.6c-0.3,1-0.5,1.9-0.5,2.9c0,1.1,0.2,2.1,0.6,3.1
		c0.4,1,0.9,1.8,1.6,2.6s1.5,1.3,2.4,1.8C181.3,470.9,182.3,471.1,183.3,471.1z"/>
	<path class="st0" d="M203.2,472.7c-1.5,0-2.9-0.3-4.1-0.8c-1.3-0.5-2.4-1.3-3.3-2.3l0.8-1.3c1,1,2.1,1.7,3.1,2.1
		c1.1,0.4,2.2,0.7,3.5,0.7c1.6,0,2.9-0.3,3.9-1s1.5-1.6,1.5-2.8c0-0.8-0.2-1.4-0.7-1.9c-0.5-0.4-1.1-0.8-2-1.1
		c-0.9-0.3-1.9-0.6-3.2-0.9s-2.3-0.7-3.2-1c-0.9-0.4-1.5-0.8-2-1.4c-0.4-0.6-0.6-1.4-0.6-2.3c0-1.2,0.3-2.2,0.9-3
		c0.6-0.8,1.4-1.4,2.5-1.8s2.2-0.6,3.5-0.6c1.5,0,2.7,0.2,3.8,0.7s1.9,1.1,2.5,1.9l-1,1.2c-0.6-0.8-1.4-1.3-2.3-1.7
		c-1-0.4-2-0.6-3.2-0.6c-0.9,0-1.7,0.1-2.4,0.4c-0.8,0.2-1.4,0.6-1.9,1.2c-0.5,0.5-0.7,1.3-0.7,2.2c0,0.7,0.2,1.3,0.5,1.7
		c0.3,0.4,0.9,0.7,1.6,1c0.7,0.3,1.6,0.5,2.6,0.8c1.5,0.4,2.7,0.7,3.8,1.1s1.9,0.9,2.4,1.5s0.9,1.5,0.9,2.6c0,1.7-0.6,3-1.9,4
		C207.1,472.2,205.4,472.7,203.2,472.7z"/>
	<path class="st0" d="M224.4,472.3v-25.6h10.5c1.1,0,2.1,0.2,3,0.7s1.7,1.1,2.4,1.8c0.7,0.8,1.2,1.6,1.6,2.5
		c0.4,0.9,0.6,1.9,0.6,2.9c0,1.4-0.3,2.7-0.9,3.9s-1.5,2.2-2.5,3c-1.1,0.8-2.3,1.2-3.8,1.2h-8.9v9.6H224.4z M226.2,461h8.8
		c1.1,0,2.1-0.3,2.9-0.9c0.8-0.6,1.4-1.4,1.9-2.3s0.6-2,0.6-3.1s-0.3-2.2-0.8-3.1s-1.2-1.7-2.1-2.3s-1.8-0.9-2.8-0.9h-8.6V461H226.2
		z"/>
	<path class="st0" d="M244.5,466.9c0-1.1,0.3-2.1,1-2.9s1.6-1.5,2.8-1.9c1.2-0.5,2.5-0.7,4.1-0.7c1,0,2,0.1,3,0.3
		c1,0.2,2,0.4,2.8,0.7v-1.8c0-1.7-0.5-3.1-1.5-4.1s-2.4-1.5-4.1-1.5c-0.9,0-1.9,0.2-2.9,0.6s-2,0.9-3.1,1.7l-0.8-1.3
		c1.2-0.8,2.4-1.4,3.5-1.9c1.1-0.4,2.3-0.6,3.4-0.6c2.2,0,4,0.7,5.3,2s1.9,3.1,1.9,5.4v9.2c0,0.3,0.1,0.5,0.2,0.6s0.3,0.2,0.6,0.3
		v1.5c-0.2,0-0.4,0-0.5,0s-0.3,0-0.4,0c-0.5-0.1-0.8-0.3-1.1-0.6c-0.3-0.3-0.4-0.7-0.4-1v-1.5c-0.9,1.1-2,1.9-3.3,2.5
		c-1.4,0.6-2.8,0.9-4.3,0.9c-1.2,0-2.2-0.3-3.2-0.8s-1.7-1.2-2.2-2.1C244.7,469,244.5,468,244.5,466.9z M257.3,468.5
		c0.2-0.3,0.4-0.6,0.5-0.9s0.2-0.5,0.2-0.8v-3.1c-0.9-0.3-1.8-0.6-2.7-0.8c-0.9-0.2-1.9-0.3-2.9-0.3c-1.9,0-3.4,0.4-4.6,1.1
		c-1.2,0.7-1.7,1.7-1.7,3c0,0.8,0.2,1.5,0.6,2.2c0.4,0.7,1,1.2,1.7,1.6s1.6,0.6,2.5,0.6c1.3,0,2.6-0.3,3.7-0.8
		C255.9,470,256.8,469.3,257.3,468.5z"/>
	<path class="st0" d="M274.2,455.2c-1.7,0-3.1,0.5-4.4,1.5c-1.3,0.9-2.1,2.2-2.6,3.9v11.7h-1.8v-18.7h1.7v4.6
		c0.6-1.3,1.5-2.4,2.6-3.2s2.2-1.3,3.4-1.4c0.2,0,0.5,0,0.6,0c0.2,0,0.3,0,0.5,0L274.2,455.2L274.2,455.2z"/>
	<path class="st0" d="M291.2,472.3l-7.3-10l-4.4,4.1v5.9h-1.8V446h1.8v18.3l11.4-10.7h2.1l-7.8,7.6l8.1,11.1H291.2z"/>
	<path class="st0" d="M328.4,453.6h1.8l-8.1,18.7h-1.6l-4.1-9.7l-4.1,9.7h-1.6l-8.1-18.7h1.8l7.2,16.7l3.9-9.1l-3.1-7.5h1.6l2.6,6.1
		l2.5-6.1h1.7l-3.1,7.5l3.9,9.1L328.4,453.6z"/>
	<path class="st0" d="M341,472.7c-1.3,0-2.5-0.3-3.7-0.8c-1.1-0.5-2.1-1.2-2.9-2.1s-1.5-1.9-1.9-3.1s-0.7-2.4-0.7-3.7
		c0-1.8,0.4-3.4,1.2-4.8s1.9-2.6,3.3-3.5s3-1.3,4.7-1.3c1.8,0,3.3,0.4,4.7,1.3c1.4,0.9,2.5,2.1,3.3,3.5s1.2,3,1.2,4.8
		c0,0.1,0,0.3,0,0.4s0,0.3,0,0.4h-16.4c0.1,1.4,0.5,2.7,1.2,3.8c0.7,1.1,1.6,2,2.7,2.7s2.3,1,3.6,1s2.5-0.3,3.7-1s2-1.5,2.4-2.6
		l1.6,0.4c-0.4,0.9-0.9,1.7-1.7,2.4c-0.8,0.7-1.7,1.2-2.7,1.6C343.2,472.5,342.1,472.7,341,472.7z M333.5,462.3h14.8
		c-0.1-1.5-0.5-2.7-1.2-3.9c-0.7-1.1-1.6-2-2.6-2.7s-2.3-1-3.6-1s-2.5,0.3-3.6,1s-2,1.5-2.6,2.7C334,459.6,333.6,460.9,333.5,462.3z
		"/>
	<path class="st0" d="M362.8,472.7c-1.5,0-2.8-0.4-4.1-1.2c-1.3-0.8-2.3-1.8-3-2.9v3.7H354V446h1.8v11.7c0.9-1.3,1.9-2.4,3.1-3.2
		c1.2-0.8,2.6-1.2,4.2-1.2c1.3,0,2.5,0.3,3.6,0.8c1,0.5,1.9,1.3,2.7,2.2s1.3,2,1.7,3.1c0.4,1.1,0.6,2.3,0.6,3.6
		c0,1.3-0.2,2.5-0.7,3.6s-1.1,2.2-1.9,3.1s-1.8,1.6-2.8,2.1C365.2,472.4,364,472.7,362.8,472.7z M362.4,471.1c1.1,0,2.1-0.2,3-0.7
		c0.9-0.4,1.7-1,2.4-1.8s1.2-1.6,1.5-2.6c0.4-1,0.6-1.9,0.6-2.9c0-1.4-0.3-2.7-0.9-4c-0.6-1.2-1.4-2.2-2.5-3s-2.3-1.1-3.7-1.1
		c-1.1,0-2,0.2-2.9,0.7s-1.7,1.1-2.3,1.8c-0.7,0.7-1.2,1.6-1.7,2.4v6.2c0.1,0.7,0.4,1.3,0.8,2c0.4,0.6,1,1.1,1.6,1.6
		c0.7,0.4,1.4,0.8,2.1,1.1C361.1,470.9,361.7,471.1,362.4,471.1z"/>
	<path class="st0" d="M381.9,472.7c-1.5,0-2.9-0.3-4.1-0.8c-1.3-0.5-2.4-1.3-3.3-2.3l0.8-1.3c1,1,2.1,1.7,3.1,2.1
		c1.1,0.4,2.2,0.7,3.5,0.7c1.6,0,2.9-0.3,3.9-1s1.5-1.6,1.5-2.8c0-0.8-0.2-1.4-0.7-1.9c-0.5-0.4-1.1-0.8-2-1.1
		c-0.9-0.3-1.9-0.6-3.2-0.9c-1.3-0.3-2.3-0.7-3.2-1c-0.9-0.4-1.5-0.8-2-1.4c-0.4-0.6-0.6-1.4-0.6-2.3c0-1.2,0.3-2.2,0.9-3
		s1.4-1.4,2.5-1.8s2.2-0.6,3.5-0.6c1.5,0,2.7,0.2,3.8,0.7c1.1,0.5,1.9,1.1,2.5,1.9l-1,1.2c-0.6-0.8-1.4-1.3-2.3-1.7
		c-1-0.4-2-0.6-3.2-0.6c-0.9,0-1.7,0.1-2.4,0.4c-0.8,0.2-1.4,0.6-1.9,1.2c-0.5,0.5-0.7,1.3-0.7,2.2c0,0.7,0.2,1.3,0.5,1.7
		c0.3,0.4,0.9,0.7,1.6,1s1.6,0.5,2.6,0.8c1.5,0.4,2.7,0.7,3.8,1.1c1.1,0.4,1.9,0.9,2.4,1.5s0.9,1.5,0.9,2.6c0,1.7-0.6,3-1.9,4
		C385.8,472.2,384.1,472.7,381.9,472.7z"/>
	<path class="st0" d="M393.3,449.4V446h1.8v3.3h-1.8V449.4z M393.3,472.3v-18.7h1.8v18.7H393.3z"/>
	<path class="st0" d="M409.1,471.6c-0.1,0-0.4,0.2-0.7,0.4c-0.4,0.2-0.8,0.4-1.4,0.5c-0.6,0.2-1.2,0.2-1.8,0.2
		c-0.6,0-1.3-0.1-1.8-0.4c-0.6-0.3-1-0.6-1.4-1.1c-0.3-0.5-0.5-1.1-0.5-1.8v-14.2h-2.6v-1.5h2.6v-6.4h1.8v6.4h4.4v1.5h-4.4V469
		c0,0.7,0.3,1.2,0.8,1.6s1,0.5,1.6,0.5c0.7,0,1.4-0.1,1.9-0.4s0.9-0.4,1-0.5L409.1,471.6z"/>
	<path class="st0" d="M419.8,472.7c-1.3,0-2.5-0.3-3.7-0.8c-1.1-0.5-2.1-1.2-2.9-2.1s-1.5-1.9-1.9-3.1c-0.5-1.2-0.7-2.4-0.7-3.7
		c0-1.8,0.4-3.4,1.2-4.8s1.9-2.6,3.3-3.5s3-1.3,4.7-1.3c1.8,0,3.3,0.4,4.7,1.3c1.4,0.9,2.5,2.1,3.3,3.5s1.2,3,1.2,4.8
		c0,0.1,0,0.3,0,0.4s0,0.3,0,0.4h-16.4c0.1,1.4,0.5,2.7,1.2,3.8c0.7,1.1,1.6,2,2.7,2.7s2.3,1,3.6,1s2.5-0.3,3.7-1s2-1.5,2.4-2.6
		l1.6,0.4c-0.4,0.9-0.9,1.7-1.7,2.4c-0.8,0.7-1.7,1.2-2.7,1.6C422.1,472.5,421,472.7,419.8,472.7z M412.4,462.3h14.8
		c-0.1-1.5-0.5-2.7-1.2-3.9c-0.7-1.1-1.6-2-2.6-2.7c-1.1-0.6-2.3-1-3.6-1c-1.3,0-2.5,0.3-3.6,1c-1.1,0.6-2,1.5-2.6,2.7
		C412.9,459.6,412.5,460.9,412.4,462.3z"/>
</g>
</svg>
