<?xml version="1.0" encoding="utf-8"?>
<!-- Generator: Adobe Illustrator 26.5.0, SVG Export Plug-In . SVG Version: 6.00 Build 0)  -->
<svg version="1.1" id="Capa_1" xmlns="http://www.w3.org/2000/svg" xmlns:xlink="http://www.w3.org/1999/xlink" x="0px" y="0px"
	 viewBox="0 0 500 500" style="enable-background:new 0 0 500 500;" xml:space="preserve">
<style type="text/css">
	.st0{fill:#385072;}
	.st1{fill:#FFFFFF;}
</style>
<path class="st0" d="M449,32.8H47.6c-6.6,0-12,5.4-12,12V306c0,6.6,5.4,12,12,12h402.6c6.6,0,12-5.4,12-12V45.9
	C462.2,38.7,456.3,32.8,449,32.8z"/>
<g>
	<path class="st0" d="M74.2,384.3v1.7h-17v-25.6h16.7v1.7H59v10h13v1.6H59v10.6L74.2,384.3L74.2,384.3z"/>
	<path class="st0" d="M76.9,380.5c0-1.1,0.3-2.1,1-2.9s1.6-1.5,2.8-1.9s2.5-0.7,4.1-0.7c1,0,2,0.1,3,0.2s2,0.4,2.8,0.7v-1.8
		c0-1.7-0.5-3.1-1.5-4.1s-2.4-1.5-4.1-1.5c-0.9,0-1.9,0.2-2.9,0.6s-2,0.9-3.1,1.7l-0.8-1.3c1.2-0.8,2.4-1.4,3.6-1.9s2.3-0.6,3.4-0.6
		c2.2,0,4,0.7,5.3,2s1.9,3.1,1.9,5.4v9.2c0,0.3,0.1,0.5,0.2,0.6s0.3,0.2,0.6,0.2v1.5c-0.2,0-0.4,0-0.5,0h-0.4
		c-0.5-0.1-0.8-0.3-1.1-0.6c-0.2-0.3-0.4-0.7-0.4-1v-1.5c-0.9,1.1-2,1.9-3.3,2.5c-1.4,0.6-2.8,0.9-4.3,0.9c-1.2,0-2.2-0.2-3.2-0.8
		c-0.9-0.5-1.7-1.2-2.2-2.1S76.8,381.6,76.9,380.5L76.9,380.5z M89.8,382.1c0.2-0.3,0.4-0.6,0.5-0.9s0.2-0.5,0.2-0.8v-3.1
		c-0.9-0.3-1.8-0.6-2.7-0.8c-0.9-0.2-1.9-0.2-2.9-0.2c-1.9,0-3.4,0.4-4.6,1.1s-1.8,1.8-1.8,3c0,0.8,0.2,1.5,0.6,2.2s1,1.2,1.7,1.6
		s1.6,0.6,2.5,0.6c1.3,0,2.6-0.3,3.7-0.8C88.3,383.6,89.2,382.9,89.8,382.1z"/>
	<path class="st0" d="M106.6,368.8c-1.7,0-3.2,0.5-4.4,1.5c-1.3,1-2.1,2.2-2.7,3.9v11.7h-1.8v-18.7h1.7v4.6c0.7-1.3,1.5-2.4,2.6-3.2
		s2.2-1.3,3.4-1.4c0.2,0,0.5,0,0.7,0h0.5C106.6,367.2,106.6,368.8,106.6,368.8z"/>
	<path class="st0" d="M125.3,385.9h-1.8v-10.4c0-2.4-0.3-4.1-1-5.2s-1.8-1.7-3.3-1.7c-1.1,0-2.1,0.2-3.1,0.8c-1,0.5-1.9,1.2-2.7,2.1
		c-0.8,0.9-1.3,1.9-1.6,3V386H110v-18.7h1.7v4.5c0.5-1,1.2-1.8,2-2.5s1.8-1.3,2.8-1.7s2.1-0.6,3.2-0.6c1,0,1.9,0.2,2.6,0.6
		s1.3,0.9,1.7,1.6c0.4,0.7,0.8,1.5,0.9,2.6c0.2,1,0.3,2.2,0.3,3.5L125.3,385.9L125.3,385.9z"/>
	<path class="st0" d="M140.5,385.9v-25.6H151c1.1,0,2.1,0.2,3,0.7s1.7,1.1,2.4,1.8s1.2,1.6,1.6,2.5c0.4,0.9,0.6,1.9,0.6,2.9
		c0,1.4-0.3,2.7-0.9,3.9s-1.4,2.2-2.5,3s-2.3,1.1-3.8,1.1h-8.9v9.6h-2L140.5,385.9L140.5,385.9z M142.4,374.6h8.8
		c1.1,0,2.1-0.3,2.9-0.9c0.8-0.6,1.4-1.4,1.9-2.3s0.6-2,0.6-3.1s-0.3-2.2-0.8-3.1c-0.5-1-1.2-1.7-2.1-2.3c-0.9-0.6-1.8-0.9-2.8-0.9
		h-8.6L142.4,374.6L142.4,374.6z"/>
	<path class="st0" d="M169.9,386.3c-1.3,0-2.5-0.2-3.6-0.8c-1.1-0.5-2.1-1.2-2.9-2.1c-0.8-0.9-1.4-1.9-1.9-3.1s-0.7-2.4-0.7-3.7
		s0.2-2.5,0.7-3.7s1.1-2.2,1.9-3.1s1.8-1.6,2.9-2.1c1.1-0.5,2.3-0.8,3.6-0.8s2.5,0.3,3.6,0.8s2.1,1.2,2.9,2.1s1.5,1.9,1.9,3.1
		c0.5,1.2,0.7,2.4,0.7,3.7s-0.2,2.5-0.7,3.7s-1.1,2.2-1.9,3.1s-1.8,1.6-2.9,2.1S171.2,386.3,169.9,386.3L169.9,386.3z M162.5,376.7
		c0,1.5,0.3,2.8,1,4s1.5,2.2,2.6,2.9c1.1,0.7,2.3,1.1,3.7,1.1s2.6-0.4,3.7-1.1s2-1.7,2.7-2.9s1-2.6,1-4s-0.3-2.8-1-4
		s-1.6-2.2-2.7-2.9c-1.1-0.7-2.3-1.1-3.6-1.1s-2.6,0.4-3.7,1.1c-1.1,0.7-2,1.7-2.7,2.9S162.6,375.2,162.5,376.7L162.5,376.7z"/>
	<path class="st0" d="M183.4,363v-3.3h1.8v3.3H183.4z M183.4,385.9v-18.7h1.8v18.7H183.4z"/>
	<path class="st0" d="M206.1,385.9h-1.8v-10.4c0-2.4-0.3-4.1-1-5.2s-1.8-1.7-3.3-1.7c-1.1,0-2.1,0.2-3.1,0.8s-1.9,1.2-2.7,2.1
		s-1.3,1.9-1.6,3V386h-1.8v-18.7h1.7v4.5c0.5-1,1.2-1.8,2-2.5s1.8-1.3,2.8-1.7s2.1-0.6,3.2-0.6c1,0,1.9,0.2,2.6,0.6s1.3,0.9,1.7,1.6
		s0.8,1.5,0.9,2.6s0.3,2.2,0.3,3.5L206.1,385.9L206.1,385.9z"/>
	<path class="st0" d="M219.7,385.2c-0.1,0-0.4,0.2-0.7,0.4c-0.4,0.2-0.8,0.4-1.4,0.5c-0.6,0.2-1.2,0.2-1.8,0.2s-1.2-0.1-1.8-0.4
		c-0.6-0.2-1-0.6-1.4-1.1c-0.3-0.5-0.5-1.1-0.5-1.9v-14.2h-2.6v-1.5h2.6v-6.4h1.8v6.4h4.4v1.5h-4.4v13.8c0.1,0.7,0.3,1.2,0.8,1.6
		s1,0.5,1.6,0.5c0.7,0,1.4-0.1,1.9-0.4s0.9-0.4,1-0.5L219.7,385.2L219.7,385.2z"/>
	<path class="st0" d="M228.8,386.3c-1.5,0-2.9-0.2-4.1-0.8c-1.3-0.5-2.4-1.3-3.4-2.3l0.8-1.3c1,1,2.1,1.7,3.1,2.1
		c1.1,0.4,2.2,0.7,3.5,0.7c1.6,0,2.9-0.3,3.9-1s1.5-1.6,1.5-2.8c0-0.8-0.2-1.4-0.7-1.9s-1.1-0.8-2-1.1c-0.9-0.3-1.9-0.6-3.2-0.9
		s-2.4-0.7-3.2-1c-0.9-0.4-1.5-0.8-2-1.4c-0.4-0.6-0.6-1.4-0.6-2.3c0-1.2,0.3-2.2,0.9-3c0.6-0.8,1.4-1.4,2.5-1.8s2.2-0.6,3.5-0.6
		c1.5,0,2.7,0.2,3.8,0.7s1.9,1.1,2.5,1.9l-1,1.1c-0.6-0.8-1.4-1.3-2.3-1.7c-1-0.4-2-0.6-3.2-0.6c-0.9,0-1.7,0.1-2.4,0.4
		s-1.4,0.6-1.9,1.2c-0.5,0.5-0.7,1.3-0.7,2.2c0,0.7,0.2,1.3,0.5,1.7s0.9,0.7,1.6,1c0.7,0.2,1.6,0.5,2.6,0.8c1.5,0.4,2.7,0.7,3.8,1.1
		s1.9,0.9,2.4,1.5s0.9,1.5,0.9,2.6c0,1.7-0.6,3-1.9,4C232.6,385.8,230.9,386.3,228.8,386.3L228.8,386.3z"/>
	<path class="st0" d="M250.2,385.9v-17.2h-2.6v-1.5h2.6v-0.6c0-1.5,0.2-2.8,0.6-3.9s1-1.9,1.8-2.5s1.7-0.9,2.8-0.9
		c0.7,0,1.4,0.1,2.1,0.3c0.7,0.2,1.2,0.5,1.7,0.9l-0.6,1.3c-0.3-0.3-0.7-0.5-1.2-0.7s-1-0.2-1.6-0.2c-1.2,0-2.2,0.5-2.8,1.5
		s-1,2.4-1,4.2v0.6h5.3v1.5H252v17.2L250.2,385.9L250.2,385.9z"/>
	<path class="st0" d="M268,386.3c-1.3,0-2.5-0.2-3.6-0.8c-1.1-0.5-2.1-1.2-2.9-2.1s-1.5-1.9-1.9-3.1s-0.7-2.4-0.7-3.7
		s0.2-2.5,0.7-3.7s1.1-2.2,1.9-3.1s1.8-1.6,2.9-2.1s2.3-0.8,3.6-0.8s2.5,0.3,3.6,0.8s2.1,1.2,2.9,2.1s1.5,1.9,2,3.1s0.7,2.4,0.7,3.7
		s-0.2,2.5-0.7,3.7s-1.1,2.2-1.9,3.1s-1.8,1.6-2.9,2.1C270.5,386,269.3,386.3,268,386.3L268,386.3z M260.6,376.7c0,1.5,0.3,2.8,1,4
		s1.5,2.2,2.6,2.9c1.1,0.7,2.3,1.1,3.7,1.1s2.6-0.4,3.7-1.1s2-1.7,2.7-2.9s1-2.6,1-4s-0.3-2.8-1-4s-1.5-2.2-2.7-2.9
		c-1.1-0.7-2.3-1.1-3.6-1.1s-2.6,0.4-3.7,1.1s-2,1.7-2.7,2.9S260.6,375.2,260.6,376.7L260.6,376.7z"/>
	<path class="st0" d="M290.3,368.8c-1.7,0-3.1,0.5-4.4,1.5s-2.1,2.2-2.6,3.9v11.7h-1.8v-18.7h1.7v4.6c0.6-1.3,1.5-2.4,2.6-3.2
		s2.2-1.3,3.4-1.4c0.2,0,0.5,0,0.6,0h0.5L290.3,368.8L290.3,368.8z"/>
	<path class="st0" d="M302.9,385.9v-17.2h-2.6v-1.5h2.6v-0.6c0-1.5,0.2-2.8,0.6-3.9s1-1.9,1.8-2.5s1.7-0.9,2.8-0.9
		c0.7,0,1.4,0.1,2.1,0.3c0.7,0.2,1.2,0.5,1.7,0.9l-0.6,1.3c-0.3-0.3-0.7-0.5-1.2-0.7s-1-0.2-1.5-0.2c-1.2,0-2.2,0.5-2.8,1.5
		c-0.7,1-1,2.4-1,4.2v0.6h5.3v1.5h-5.3v17.2L302.9,385.9L302.9,385.9z"/>
	<path class="st0" d="M320.6,386.3c-1.3,0-2.5-0.2-3.6-0.8c-1.1-0.5-2.1-1.2-2.9-2.1s-1.5-1.9-1.9-3.1s-0.7-2.4-0.7-3.7
		s0.2-2.5,0.7-3.7s1.1-2.2,1.9-3.1s1.8-1.6,2.9-2.1s2.3-0.8,3.6-0.8s2.5,0.3,3.6,0.8s2.1,1.2,2.9,2.1s1.5,1.9,1.9,3.1
		s0.7,2.4,0.7,3.7s-0.2,2.5-0.7,3.7s-1.1,2.2-1.9,3.1s-1.8,1.6-2.9,2.1C323.2,386,322,386.3,320.6,386.3L320.6,386.3z M313.3,376.7
		c0,1.5,0.3,2.8,1,4s1.5,2.2,2.6,2.9s2.3,1.1,3.7,1.1s2.6-0.4,3.7-1.1s2-1.7,2.7-2.9s1-2.6,1-4s-0.3-2.8-1-4s-1.5-2.2-2.7-2.9
		c-1.1-0.7-2.3-1.1-3.6-1.1s-2.6,0.4-3.7,1.1s-2,1.7-2.7,2.9S313.3,375.2,313.3,376.7L313.3,376.7z"/>
	<path class="st0" d="M342,386.3c-1.3,0-2.5-0.2-3.6-0.8c-1.1-0.5-2.1-1.2-2.9-2.1s-1.5-1.9-1.9-3.1s-0.7-2.4-0.7-3.7
		s0.2-2.5,0.7-3.7s1.1-2.2,1.9-3.1s1.8-1.6,2.9-2.1s2.3-0.8,3.6-0.8s2.5,0.3,3.6,0.8s2.1,1.2,2.9,2.1s1.5,1.9,2,3.1s0.7,2.4,0.7,3.7
		s-0.2,2.5-0.7,3.7s-1.1,2.2-1.9,3.1s-1.8,1.6-2.9,2.1C344.5,386,343.3,386.3,342,386.3L342,386.3z M334.6,376.7c0,1.5,0.3,2.8,1,4
		s1.5,2.2,2.6,2.9c1.1,0.7,2.3,1.1,3.7,1.1s2.6-0.4,3.7-1.1s2-1.7,2.7-2.9s1-2.6,1-4s-0.3-2.8-1-4s-1.5-2.2-2.7-2.9
		c-1.1-0.7-2.3-1.1-3.6-1.1s-2.6,0.4-3.7,1.1s-2,1.7-2.7,2.9S334.6,375.2,334.6,376.7L334.6,376.7z"/>
	<path class="st0" d="M354.1,376.6c0-1.8,0.4-3.4,1.1-4.8c0.7-1.5,1.8-2.6,3.1-3.5s2.8-1.3,4.4-1.3s3.1,0.4,4.3,1.3s2.2,1.9,3,3.1
		v-11.7h1.8v23.9c0,0.3,0.1,0.5,0.2,0.6s0.3,0.2,0.6,0.2v1.5c-0.4,0-0.7,0.1-0.9,0c-0.4-0.1-0.8-0.3-1.1-0.6
		c-0.3-0.3-0.4-0.7-0.4-1.1v-2.1c-0.8,1.2-1.8,2.2-3.1,3c-1.3,0.7-2.6,1.1-4,1.1c-1.3,0-2.5-0.3-3.6-0.8s-2.1-1.3-2.9-2.2
		s-1.4-1.9-1.9-3.1C354.4,379.1,354.1,377.9,354.1,376.6L354.1,376.6z M370,379.6v-6.1c-0.3-0.9-0.9-1.7-1.6-2.5s-1.6-1.4-2.5-1.8
		s-1.9-0.7-2.8-0.7c-1.1,0-2.1,0.2-2.9,0.7c-0.9,0.5-1.6,1.1-2.3,1.8c-0.6,0.8-1.1,1.6-1.5,2.6s-0.5,2-0.5,3s0.2,2.1,0.6,3
		c0.4,1,0.9,1.8,1.6,2.6s1.5,1.3,2.4,1.8s1.9,0.6,2.9,0.6c0.6,0,1.3-0.1,2.1-0.4s1.4-0.6,2.1-1.1s1.2-1,1.7-1.6
		C369.7,381,370,380.3,370,379.6L370,379.6z"/>
	<path class="st0" d="M385.3,380.5c0-1.1,0.3-2.1,1-2.9s1.6-1.5,2.8-1.9s2.5-0.7,4.1-0.7c1,0,2,0.1,3,0.2s2,0.4,2.8,0.7v-1.8
		c0-1.7-0.5-3.1-1.5-4.1s-2.4-1.5-4.1-1.5c-0.9,0-1.9,0.2-2.9,0.6s-2,0.9-3.1,1.7l-0.8-1.3c1.2-0.8,2.4-1.4,3.5-1.9
		c1.1-0.4,2.3-0.6,3.4-0.6c2.2,0,4,0.7,5.3,2s1.9,3.1,1.9,5.4v9.2c0,0.3,0.1,0.5,0.2,0.6s0.3,0.2,0.6,0.2v1.5c-0.2,0-0.4,0-0.5,0
		h-0.4c-0.5-0.1-0.8-0.3-1.1-0.6c-0.2-0.3-0.4-0.7-0.4-1v-1.5c-0.9,1.1-2,1.9-3.3,2.5s-2.8,0.9-4.3,0.9c-1.2,0-2.2-0.2-3.2-0.8
		s-1.7-1.2-2.2-2.1S385.3,381.6,385.3,380.5L385.3,380.5z M398.2,382.1c0.2-0.3,0.4-0.6,0.5-0.9s0.2-0.5,0.2-0.8v-3.1
		c-0.9-0.3-1.8-0.6-2.7-0.8c-0.9-0.2-1.9-0.2-2.9-0.2c-1.9,0-3.4,0.4-4.5,1.1c-1.2,0.7-1.8,1.8-1.8,3c0,0.8,0.2,1.5,0.6,2.2
		s1,1.2,1.7,1.6s1.6,0.6,2.5,0.6c1.3,0,2.6-0.3,3.7-0.8S397.6,382.9,398.2,382.1z"/>
	<path class="st0" d="M421.5,385.9h-1.8v-10.4c0-2.4-0.3-4.1-1-5.2s-1.8-1.7-3.3-1.7c-1.1,0-2.1,0.2-3.1,0.8s-1.9,1.2-2.7,2.1
		c-0.8,0.9-1.3,1.9-1.6,3V386h-1.8v-18.7h1.7v4.5c0.5-1,1.2-1.8,2-2.5s1.8-1.3,2.8-1.7s2.1-0.6,3.2-0.6c1,0,1.9,0.2,2.6,0.6
		s1.3,0.9,1.7,1.6s0.8,1.5,1,2.6c0.2,1,0.3,2.2,0.3,3.5L421.5,385.9L421.5,385.9z"/>
	<path class="st0" d="M425.6,376.6c0-1.8,0.4-3.4,1.1-4.8c0.7-1.5,1.8-2.6,3.1-3.5c1.3-0.9,2.8-1.3,4.4-1.3s3.1,0.4,4.3,1.3
		s2.2,1.9,3,3.1v-11.7h1.8v23.9c0,0.3,0.1,0.5,0.2,0.6s0.3,0.2,0.6,0.2v1.5c-0.4,0-0.7,0.1-0.9,0c-0.4-0.1-0.8-0.3-1.1-0.6
		c-0.3-0.3-0.4-0.7-0.4-1.1v-2.1c-0.8,1.2-1.8,2.2-3.1,3c-1.3,0.7-2.6,1.1-4,1.1c-1.3,0-2.5-0.3-3.6-0.8s-2.1-1.3-2.9-2.2
		s-1.4-1.9-1.9-3.1C425.8,379.1,425.6,377.9,425.6,376.6L425.6,376.6z M441.5,379.6v-6.1c-0.3-0.9-0.9-1.7-1.6-2.5s-1.6-1.4-2.5-1.8
		s-1.9-0.7-2.8-0.7c-1.1,0-2.1,0.2-2.9,0.7s-1.6,1.1-2.3,1.8c-0.6,0.8-1.1,1.6-1.5,2.6s-0.5,2-0.5,3s0.2,2.1,0.6,3
		c0.4,1,0.9,1.8,1.6,2.6s1.5,1.3,2.4,1.8s1.9,0.6,2.9,0.6c0.6,0,1.3-0.1,2.1-0.4s1.4-0.6,2.1-1.1s1.2-1,1.7-1.6
		C441.2,381,441.4,380.3,441.5,379.6L441.5,379.6z"/>
	<path class="st0" d="M62.3,429.5c-1.5,0-2.8-0.4-4.1-1.2c-1.3-0.8-2.3-1.8-3-2.9v3.7h-1.7v-26.3h1.8v11.7c0.9-1.3,1.9-2.4,3.2-3.2
		c1.2-0.8,2.6-1.2,4.2-1.2c1.3,0,2.5,0.3,3.6,0.8c1,0.5,1.9,1.3,2.7,2.2s1.3,2,1.7,3.1s0.6,2.3,0.6,3.5s-0.2,2.5-0.7,3.6
		c-0.5,1.2-1.1,2.2-1.9,3.1s-1.8,1.6-2.8,2.1C64.8,429.2,63.6,429.5,62.3,429.5L62.3,429.5z M62,427.9c1.1,0,2.1-0.2,3-0.7
		c0.9-0.4,1.7-1,2.4-1.8s1.2-1.6,1.6-2.6s0.6-1.9,0.6-2.9c0-1.4-0.3-2.7-0.9-4c-0.6-1.2-1.4-2.2-2.5-3s-2.3-1.1-3.7-1.1
		c-1.1,0-2,0.2-2.9,0.7s-1.7,1.1-2.3,1.8s-1.2,1.5-1.7,2.4v6.2c0.1,0.7,0.4,1.3,0.8,2c0.4,0.6,1,1.1,1.6,1.6
		c0.7,0.4,1.4,0.8,2.1,1.1C60.7,427.7,61.3,427.9,62,427.9L62,427.9z"/>
	<path class="st0" d="M83.6,429.5c-1.3,0-2.5-0.3-3.7-0.8c-1.1-0.5-2.1-1.2-2.9-2.1s-1.5-1.9-1.9-3.1c-0.5-1.2-0.7-2.4-0.7-3.8
		c0-1.8,0.4-3.4,1.2-4.8s1.9-2.6,3.3-3.5s2.9-1.3,4.7-1.3s3.3,0.4,4.7,1.3c1.4,0.9,2.4,2,3.3,3.5c0.8,1.5,1.2,3,1.2,4.8v0.4
		c0,0.1,0,0.3,0,0.4H76.2c0.1,1.4,0.5,2.7,1.2,3.8c0.7,1.1,1.6,2,2.7,2.7s2.3,1,3.6,1s2.5-0.3,3.7-1s2-1.5,2.4-2.6l1.6,0.4
		c-0.4,0.9-0.9,1.7-1.7,2.4s-1.7,1.2-2.7,1.6C85.8,429.3,84.7,429.5,83.6,429.5L83.6,429.5z M76.1,419.1h14.8
		c-0.1-1.5-0.5-2.8-1.2-3.9s-1.6-2-2.7-2.6s-2.3-1-3.6-1s-2.5,0.3-3.6,1c-1.1,0.6-2,1.5-2.6,2.6S76.2,417.7,76.1,419.1z"/>
	<path class="st0" d="M101.9,429.1l-7.8-18.7H96l6.9,16.8l6.9-16.8h1.8l-7.8,18.7H101.9L101.9,429.1z"/>
	<path class="st0" d="M122.4,429.5c-1.3,0-2.5-0.3-3.7-0.8c-1.1-0.5-2.1-1.2-2.9-2.1s-1.5-1.9-1.9-3.1c-0.5-1.2-0.7-2.4-0.7-3.8
		c0-1.8,0.4-3.4,1.2-4.8s1.9-2.6,3.3-3.5s2.9-1.3,4.7-1.3s3.3,0.4,4.7,1.3c1.4,0.9,2.4,2,3.3,3.5c0.8,1.5,1.2,3,1.2,4.8v0.4
		c0,0.1,0,0.3,0,0.4h-16.4c0.1,1.4,0.5,2.7,1.2,3.8c0.7,1.1,1.6,2,2.7,2.7s2.3,1,3.6,1s2.5-0.3,3.7-1s2-1.5,2.4-2.6l1.6,0.4
		c-0.4,0.9-0.9,1.7-1.7,2.4c-0.8,0.7-1.7,1.2-2.7,1.6C124.7,429.3,123.6,429.5,122.4,429.5L122.4,429.5z M115,419.1h14.8
		c-0.1-1.5-0.5-2.8-1.1-3.9s-1.6-2-2.7-2.6s-2.3-1-3.6-1s-2.5,0.3-3.6,1c-1.1,0.6-2,1.5-2.6,2.6S115.1,417.7,115,419.1z"/>
	<path class="st0" d="M144.3,412c-1.7,0-3.1,0.5-4.4,1.5c-1.3,1-2.1,2.2-2.6,3.9v11.7h-1.8v-18.7h1.7v4.6c0.6-1.3,1.5-2.4,2.6-3.2
		s2.2-1.3,3.4-1.4c0.2,0,0.5,0,0.6,0h0.5V412L144.3,412z"/>
	<path class="st0" d="M146,423.7c0-1.1,0.3-2.1,1-2.9s1.6-1.5,2.8-1.9s2.5-0.7,4.1-0.7c1,0,2,0.1,3,0.2s2,0.4,2.8,0.7v-1.8
		c0-1.7-0.5-3.1-1.5-4.1s-2.4-1.5-4.1-1.5c-0.9,0-1.9,0.2-2.9,0.6s-2,0.9-3.1,1.7l-0.8-1.3c1.2-0.8,2.4-1.4,3.6-1.9s2.3-0.6,3.4-0.6
		c2.2,0,4,0.7,5.3,2s1.9,3.1,1.9,5.4v9.2c0,0.3,0.1,0.5,0.2,0.6c0.1,0.1,0.3,0.2,0.6,0.2v1.5c-0.2,0-0.4,0-0.5,0h-0.4
		c-0.5-0.1-0.8-0.3-1.1-0.6c-0.2-0.3-0.4-0.7-0.4-1V426c-0.9,1.1-2,1.9-3.3,2.5s-2.8,0.9-4.3,0.9c-1.2,0-2.2-0.2-3.2-0.8
		s-1.7-1.2-2.2-2.1S146,424.8,146,423.7L146,423.7z M158.9,425.3c0.2-0.3,0.4-0.6,0.5-0.9s0.2-0.5,0.2-0.8v-3.1
		c-0.9-0.3-1.8-0.6-2.7-0.8s-1.9-0.2-2.9-0.2c-1.9,0-3.4,0.4-4.6,1.1s-1.8,1.8-1.8,3c0,0.8,0.2,1.5,0.6,2.2s1,1.2,1.7,1.6
		s1.6,0.6,2.5,0.6c1.3,0,2.6-0.3,3.7-0.8C157.5,426.8,158.3,426.1,158.9,425.3L158.9,425.3z"/>
	<path class="st0" d="M174.5,429.5c-1.3,0-2.5-0.3-3.6-0.8s-2-1.2-2.8-2.2c-0.8-0.9-1.4-2-1.8-3.1c-0.4-1.1-0.7-2.3-0.7-3.5
		s0.2-2.5,0.6-3.7s1-2.2,1.8-3.1s1.7-1.6,2.8-2.1s2.2-0.8,3.5-0.8c1.6,0,3.1,0.4,4.3,1.3s2.2,1.9,3.1,3.1v-4.1h1.7v19
		c0,1.7-0.4,3.1-1.2,4.2s-1.9,2-3.2,2.6s-2.8,0.8-4.4,0.8c-2.2,0-3.9-0.4-5.2-1.2c-1.3-0.8-2.3-1.8-3.1-3.1l1.2-0.8
		c0.7,1.2,1.8,2.2,3,2.8c1.3,0.6,2.6,0.9,4.1,0.9c1.3,0,2.4-0.2,3.5-0.7s1.9-1.1,2.6-2.1c0.6-0.9,0.9-2,0.9-3.4v-4.1
		c-0.7,1.2-1.8,2.2-3,2.9C177.2,429.1,175.9,429.5,174.5,429.5L174.5,429.5z M174.9,427.9c0.8,0,1.6-0.1,2.3-0.4s1.4-0.7,2.1-1.2
		c0.6-0.5,1.1-1,1.6-1.6s0.6-1.2,0.7-1.8v-6.2c-0.4-1-0.9-1.8-1.6-2.6c-0.7-0.8-1.6-1.3-2.5-1.8s-1.9-0.6-2.8-0.6
		c-1.1,0-2.1,0.2-3,0.7s-1.6,1.1-2.2,1.9c-0.6,0.8-1.1,1.7-1.4,2.6c-0.3,1-0.5,1.9-0.5,2.9c0,1.1,0.2,2.1,0.6,3.1
		c0.4,1,0.9,1.8,1.6,2.6s1.5,1.3,2.4,1.8C172.9,427.7,173.9,427.9,174.9,427.9L174.9,427.9z"/>
	<path class="st0" d="M196.9,429.5c-1.3,0-2.5-0.3-3.7-0.8c-1.1-0.5-2.1-1.2-2.9-2.1c-0.8-0.9-1.5-1.9-1.9-3.1
		c-0.5-1.2-0.7-2.4-0.7-3.8c0-1.8,0.4-3.4,1.2-4.8s1.9-2.6,3.3-3.5c1.4-0.9,2.9-1.3,4.7-1.3s3.4,0.4,4.7,1.3c1.4,0.9,2.4,2,3.3,3.5
		c0.8,1.5,1.2,3,1.2,4.8v0.4c0,0.1,0,0.3,0,0.4h-16.4c0.1,1.4,0.5,2.7,1.2,3.8c0.7,1.1,1.6,2,2.7,2.7s2.3,1,3.6,1s2.5-0.3,3.7-1
		s2-1.5,2.4-2.6l1.6,0.4c-0.4,0.9-0.9,1.7-1.7,2.4c-0.8,0.7-1.7,1.2-2.7,1.6C199.2,429.3,198.1,429.5,196.9,429.5L196.9,429.5z
		 M189.4,419.1h14.8c-0.1-1.5-0.5-2.8-1.1-3.9s-1.6-2-2.6-2.6s-2.3-1-3.6-1s-2.5,0.3-3.6,1c-1.1,0.6-2,1.5-2.6,2.6
		S189.5,417.7,189.4,419.1L189.4,419.1z"/>
	<path class="st0" d="M227.1,429.5c-1.3,0-2.5-0.3-3.6-0.8s-2.1-1.2-2.9-2.1s-1.5-1.9-2-3.1s-0.7-2.4-0.7-3.8c0-1.8,0.4-3.4,1.2-4.8
		s1.9-2.6,3.3-3.4c1.4-0.9,3-1.3,4.8-1.3s3.2,0.4,4.5,1.2c1.3,0.8,2.3,1.8,2.9,3.2l-1.8,0.6c-0.6-1-1.3-1.8-2.4-2.4
		s-2.1-0.9-3.4-0.9c-1.4,0-2.6,0.4-3.7,1c-1.1,0.7-2,1.6-2.6,2.9c-0.7,1.2-1,2.6-1,4.1s0.3,2.8,1,4.1s1.6,2.2,2.7,3
		c1.1,0.7,2.4,1.1,3.7,1.1c0.9,0,1.7-0.2,2.5-0.5s1.6-0.8,2.2-1.3s1-1.1,1.2-1.7l1.8,0.5c-0.3,0.9-0.9,1.7-1.6,2.4
		c-0.8,0.7-1.7,1.2-2.7,1.6C229.4,429.3,228.3,429.5,227.1,429.5L227.1,429.5z"/>
	<path class="st0" d="M246.5,429.5c-1.3,0-2.5-0.2-3.6-0.8c-1.1-0.5-2.1-1.2-2.9-2.1c-0.8-0.9-1.4-1.9-1.9-3.1s-0.7-2.4-0.7-3.7
		s0.2-2.5,0.7-3.7s1.1-2.2,1.9-3.1s1.8-1.6,2.9-2.1c1.1-0.5,2.3-0.8,3.6-0.8s2.5,0.3,3.6,0.8s2.1,1.2,2.9,2.1s1.5,1.9,1.9,3.1
		s0.7,2.4,0.7,3.7s-0.2,2.5-0.7,3.7s-1.1,2.2-1.9,3.1s-1.8,1.6-2.9,2.1S247.8,429.5,246.5,429.5L246.5,429.5z M239.1,419.9
		c0,1.5,0.3,2.8,1,4s1.5,2.2,2.6,2.9c1.1,0.7,2.3,1.1,3.7,1.1s2.6-0.4,3.7-1.1s2-1.7,2.7-2.9s1-2.6,1-4s-0.3-2.8-1-4
		s-1.6-2.2-2.7-2.9c-1.1-0.7-2.3-1.1-3.6-1.1s-2.6,0.4-3.7,1.1c-1.1,0.7-2,1.7-2.7,2.9S239.1,418.4,239.1,419.9L239.1,419.9z"/>
	<path class="st0" d="M275.2,429.1h-1.8v-10.4c0-2.4-0.3-4.1-1-5.2s-1.8-1.7-3.3-1.7c-1.1,0-2.1,0.2-3.1,0.8s-1.9,1.2-2.7,2.1
		c-0.8,0.9-1.3,1.9-1.6,3v11.5h-1.8v-18.7h1.7v4.5c0.5-1,1.2-1.8,2-2.5s1.8-1.3,2.8-1.7s2.1-0.6,3.2-0.6c1,0,1.9,0.2,2.6,0.6
		s1.3,0.9,1.7,1.6c0.4,0.7,0.8,1.5,1,2.6s0.3,2.2,0.3,3.5L275.2,429.1L275.2,429.1z"/>
	<path class="st0" d="M286.6,429.5c-1.5,0-2.9-0.2-4.1-0.8c-1.3-0.5-2.4-1.3-3.4-2.3l0.8-1.3c1,1,2.1,1.7,3.1,2.1
		c1.1,0.4,2.2,0.7,3.5,0.7c1.6,0,2.9-0.3,3.9-1s1.5-1.6,1.5-2.8c0-0.8-0.2-1.4-0.7-1.9s-1.1-0.8-2-1.1c-0.9-0.3-1.9-0.6-3.2-0.9
		c-1.3-0.3-2.4-0.7-3.2-1c-0.9-0.4-1.5-0.8-2-1.4s-0.6-1.4-0.6-2.3c0-1.2,0.3-2.2,0.9-3s1.4-1.4,2.5-1.8s2.2-0.6,3.5-0.6
		c1.5,0,2.7,0.2,3.8,0.7s1.9,1.1,2.5,1.9l-1,1.1c-0.6-0.8-1.4-1.3-2.3-1.7s-2-0.6-3.2-0.6c-0.9,0-1.7,0.1-2.5,0.4
		c-0.8,0.2-1.4,0.6-1.9,1.2c-0.5,0.5-0.7,1.3-0.7,2.2c0,0.7,0.2,1.3,0.5,1.7s0.9,0.7,1.6,1s1.6,0.5,2.6,0.8c1.5,0.4,2.7,0.7,3.8,1.1
		c1,0.4,1.9,0.9,2.5,1.5s0.9,1.5,0.9,2.6c0,1.7-0.6,3-1.9,4C290.4,429,288.7,429.5,286.6,429.5L286.6,429.5z"/>
	<path class="st0" d="M297.7,421.2v-10.8h1.8V421c0,2.3,0.4,4,1.2,5.2s2,1.7,3.5,1.7c1.1,0,2.1-0.2,3-0.7s1.8-1.1,2.6-2
		c0.7-0.9,1.3-1.8,1.7-3v-11.8h1.8v16.3c0,0.3,0.1,0.5,0.2,0.6s0.3,0.2,0.6,0.2v1.5c-0.2,0-0.4,0-0.6,0s-0.2,0-0.3,0
		c-0.4,0-0.7-0.2-1-0.5s-0.4-0.7-0.4-1.1v-2.8c-0.8,1.5-1.9,2.6-3.4,3.5s-3,1.3-4.6,1.3c-2,0-3.5-0.7-4.5-2.1
		C298.2,426,297.7,423.9,297.7,421.2L297.7,421.2z"/>
	<path class="st0" d="M346.5,429.1h-1.8v-10.4c0-2.4-0.4-4.1-1.1-5.2s-1.9-1.7-3.4-1.7s-2.9,0.5-4.1,1.6s-2,2.5-2.5,4.2v11.5h-1.8
		v-10.4c0-2.4-0.4-4.1-1.1-5.2s-1.8-1.7-3.4-1.7s-2.9,0.5-4.1,1.6s-2,2.5-2.5,4.2v11.5H319v-18.7h1.7v4.5c0.8-1.5,1.8-2.7,3.1-3.5
		c1.2-0.8,2.6-1.2,4.1-1.2s2.8,0.5,3.8,1.4s1.6,2.1,1.8,3.7c0.9-1.7,1.9-2.9,3.2-3.8s2.6-1.3,4.2-1.3c1,0,1.9,0.2,2.6,0.6
		s1.3,0.9,1.8,1.6s0.8,1.6,1,2.6s0.3,2.2,0.3,3.5L346.5,429.1L346.5,429.1z"/>
	<path class="st0" d="M361.1,429.5c-1.6,0-3-0.4-4.3-1.3s-2.3-1.9-3-3.1v11.7H352v-26.4h1.7v3.8c0.8-1.2,1.8-2.2,3.1-2.9
		s2.6-1.1,4-1.1c1.3,0,2.5,0.3,3.6,0.8s2,1.3,2.8,2.2c0.8,0.9,1.4,2,1.9,3.1c0.4,1.1,0.7,2.3,0.7,3.6c0,1.7-0.4,3.3-1.1,4.8
		s-1.7,2.6-3,3.5S362.8,429.5,361.1,429.5L361.1,429.5z M360.7,427.9c1.1,0,2.1-0.2,3-0.7s1.6-1.1,2.2-1.8c0.6-0.8,1.1-1.6,1.4-2.6
		s0.5-1.9,0.5-2.9c0-1.1-0.2-2.1-0.6-3.1s-0.9-1.8-1.6-2.6s-1.5-1.3-2.4-1.8s-1.9-0.7-2.9-0.7c-0.6,0-1.3,0.1-2.1,0.4
		s-1.4,0.6-2.1,1.1s-1.2,1-1.6,1.6s-0.7,1.2-0.8,1.9v6.1c0.4,0.9,1,1.7,1.7,2.5s1.5,1.4,2.4,1.8S359.7,427.9,360.7,427.9
		L360.7,427.9z"/>
	<path class="st0" d="M382.1,428.4c-0.1,0-0.4,0.2-0.7,0.4c-0.4,0.2-0.8,0.4-1.4,0.5s-1.2,0.2-1.8,0.2s-1.2-0.1-1.8-0.4
		s-1-0.6-1.4-1.1s-0.5-1.1-0.5-1.9v-14.2h-2.6v-1.5h2.6V404h1.8v6.4h4.4v1.5h-4.4v13.8c0,0.7,0.3,1.2,0.8,1.6s1,0.5,1.6,0.5
		c0.7,0,1.4-0.1,1.9-0.4s0.9-0.4,1-0.5L382.1,428.4L382.1,428.4z"/>
	<path class="st0" d="M385.3,406.1v-3.3h1.8v3.3H385.3z M385.3,429.1v-18.7h1.8v18.7H385.3z"/>
	<path class="st0" d="M400.6,429.5c-1.3,0-2.5-0.2-3.6-0.8c-1.1-0.5-2.1-1.2-2.9-2.1s-1.5-1.9-1.9-3.1s-0.7-2.4-0.7-3.7
		s0.2-2.5,0.7-3.7s1.1-2.2,1.9-3.1s1.8-1.6,2.9-2.1s2.3-0.8,3.6-0.8s2.5,0.3,3.6,0.8s2.1,1.2,2.9,2.1s1.5,1.9,2,3.1s0.7,2.4,0.7,3.7
		s-0.2,2.5-0.7,3.7s-1.1,2.2-1.9,3.1s-1.8,1.6-2.9,2.1C403.1,429.2,401.9,429.5,400.6,429.5L400.6,429.5z M393.2,419.9
		c0,1.5,0.3,2.8,1,4s1.5,2.2,2.6,2.9c1.1,0.7,2.3,1.1,3.7,1.1s2.6-0.4,3.7-1.1s2-1.7,2.7-2.9s1-2.6,1-4s-0.3-2.8-1-4
		s-1.5-2.2-2.7-2.9c-1.1-0.7-2.3-1.1-3.6-1.1s-2.6,0.4-3.7,1.1s-2,1.7-2.7,2.9S393.2,418.4,393.2,419.9L393.2,419.9z"/>
	<path class="st0" d="M429.4,429.1h-1.8v-10.4c0-2.4-0.3-4.1-1-5.2s-1.8-1.7-3.3-1.7c-1.1,0-2.1,0.2-3.1,0.8s-1.9,1.2-2.7,2.1
		c-0.8,0.9-1.3,1.9-1.6,3v11.5h-1.8v-18.7h1.7v4.5c0.5-1,1.2-1.8,2-2.5s1.8-1.3,2.8-1.7s2.1-0.6,3.2-0.6c1,0,1.9,0.2,2.6,0.6
		s1.3,0.9,1.7,1.6s0.8,1.5,1,2.6c0.2,1,0.3,2.2,0.3,3.5L429.4,429.1L429.4,429.1z"/>
	<path class="st0" d="M440.7,429.5c-1.5,0-2.9-0.2-4.1-0.8c-1.3-0.5-2.4-1.3-3.4-2.3l0.8-1.3c1,1,2.1,1.7,3.1,2.1
		c1.1,0.4,2.2,0.7,3.5,0.7c1.6,0,2.9-0.3,3.9-1s1.5-1.6,1.5-2.8c0-0.8-0.2-1.4-0.7-1.9s-1.1-0.8-2-1.1c-0.9-0.3-1.9-0.6-3.2-0.9
		c-1.3-0.3-2.4-0.7-3.2-1c-0.9-0.4-1.5-0.8-2-1.4s-0.6-1.4-0.6-2.3c0-1.2,0.3-2.2,0.9-3s1.4-1.4,2.5-1.8s2.2-0.6,3.5-0.6
		c1.5,0,2.7,0.2,3.8,0.7s1.9,1.1,2.5,1.9l-1,1.1c-0.6-0.8-1.4-1.3-2.3-1.7s-2-0.6-3.2-0.6c-0.9,0-1.7,0.1-2.5,0.4
		c-0.8,0.2-1.4,0.6-1.9,1.2s-0.7,1.3-0.7,2.2c0,0.7,0.2,1.3,0.5,1.7s0.9,0.7,1.6,1s1.6,0.5,2.6,0.8c1.5,0.4,2.7,0.7,3.8,1.1
		c1.1,0.4,1.9,0.9,2.5,1.5s0.9,1.5,0.9,2.6c0,1.7-0.6,3-1.9,4C444.5,429,442.8,429.5,440.7,429.5L440.7,429.5z"/>
</g>
<g>
	<path class="st1" d="M398.4,246.7H283.9h-85.5h-96.9c-5.4,0-9.9,4.4-9.9,10c0,5.4,4.4,9.9,9.9,9.9h296.8c5.4,0,9.9-4.4,9.9-10
		C408.3,251.2,403.8,246.7,398.4,246.7z M398.4,260.5H101.6c-2.1,0-3.8-1.7-3.8-3.9c0-2.1,1.7-3.8,3.8-3.8h296.8
		c2.1,0,3.8,1.7,3.8,3.9C402.2,258.8,400.5,260.5,398.4,260.5z"/>
	<path class="st1" d="M313.2,226.7c1.1,8,7.9,14,15.9,14H356c8,0,14.9-6,15.9-14l6.7-50.8h-72.2L313.2,226.7z M371.7,182l-5.8,43.9
		c-0.7,4.9-4.9,8.7-9.9,8.7h-26.9c-5,0-9.2-3.7-9.9-8.7l-5.8-43.9H371.7z"/>
	<path class="st1" d="M379.7,224.2c-0.4-0.1-0.8-0.3-1.2-0.4l-0.5,3.7c-0.1,0.8-0.4,1.6-0.6,2.4c0.4,0.1,0.8,0.2,1.3,0.3
		c0.7,0.1,1.4,0.2,2.1,0.2c8.6,0,16.7-9,18.6-20.5c1.2-7.6-0.3-15.2-4.1-20.3c-2.4-3.2-5.4-5.2-8.8-5.7c-0.9-0.1-1.8-0.1-2.6-0.1
		l-0.8,6.2c0.5-0.1,1-0.2,1.5-0.2c0.4,0,0.7,0,1.1,0.1c2.2,0.3,3.8,1.9,4.8,3.2c2.8,3.8,3.9,9.8,3,15.7
		C391.9,217.8,385.4,225.1,379.7,224.2z"/>
	<path class="st1" d="M343.3,118.6c-2.1-0.9-4.5,0-5.5,2.1c-6.6,14.8-3.2,21.7-0.2,27.8c2.5,5,4.4,9,0.2,19.1
		c-0.9,2.1,0.1,4.5,2.2,5.4c0.5,0.2,1.1,0.3,1.6,0.3c1.6,0,3.2-1,3.8-2.5c5.7-13.6,2.5-20.2-0.4-26c-2.6-5.3-4.7-9.4,0.3-20.7
		C346.4,122,345.4,119.5,343.3,118.6z"/>
	<path class="st1" d="M325.7,118.6c-2.1-0.9-4.5,0-5.5,2.1c-6.6,14.8-3.2,21.7-0.2,27.8c2.5,5,4.4,9,0.2,19.1
		c-0.9,2.1,0.1,4.5,2.2,5.4c0.5,0.2,1.1,0.3,1.6,0.3c1.6,0,3.2-1,3.8-2.5c5.7-13.6,2.5-20.2-0.4-26c-2.6-5.3-4.7-9.4,0.3-20.7
		C328.7,122,327.8,119.5,325.7,118.6z"/>
	<path class="st1" d="M355.5,148.5c2.5,5,4.4,9,0.2,19.1c-0.9,2.1,0.1,4.5,2.2,5.4c0.5,0.2,1.1,0.3,1.6,0.3c1.6,0,3.2-1,3.8-2.5
		c5.7-13.6,2.5-20.2-0.4-26c-2.6-5.3-4.7-9.4,0.3-20.7c0.9-2.1,0-4.5-2.1-5.5c-2.1-0.9-4.5,0-5.5,2.1
		C349.2,135.5,352.6,142.4,355.5,148.5z"/>
	<path class="st1" d="M246.7,235.6v5.1h6.1v-4.5l44.3-11.5c2.1-0.6,3.5-2.6,3.2-4.8s-2.1-3.8-4.3-3.8H124.7c-2.2,0-4,1.6-4.3,3.8
		s1.1,4.2,3.2,4.8l43.9,11.4v4.6h6.1v-5.4c0-2.2-1.5-4.2-3.7-4.8l-31.5-8.3h144l-31.6,8.1C248.4,230.9,246.7,233.1,246.7,235.6z"/>
	<path class="st1" d="M238.6,205.7L249,210h16l-24.2-10c-19.6-8.1-41.9-8.2-61.5-0.2L154.2,210h16.3l11.2-4.5
		C199.8,198.2,220.4,198.2,238.6,205.7z"/>
</g>
</svg>
