<?xml version="1.0" encoding="utf-8"?>
<!-- Generator: Adobe Illustrator 26.5.0, SVG Export Plug-In . SVG Version: 6.00 Build 0)  -->
<svg version="1.1" id="Capa_1" xmlns="http://www.w3.org/2000/svg" xmlns:xlink="http://www.w3.org/1999/xlink" x="0px" y="0px"
	 viewBox="0 0 500 500" style="enable-background:new 0 0 500 500;" xml:space="preserve">
<style type="text/css">
	.st0{fill:#385072;}
	.st1{fill:#FFFFFF;}
</style>
<path class="st0" d="M449,32.8H47.6c-6.6,0-12,5.4-12,12V306c0,6.6,5.4,12,12,12h402.6c6.6,0,12-5.4,12-12V45.9
	C462.2,38.7,456.3,32.8,449,32.8z"/>
<g>
	<path class="st0" d="M65.9,384v1.7h-17v-25.6h16.7v1.7H50.7v10h13v1.6h-13V384H65.9L65.9,384z"/>
	<path class="st0" d="M68.6,380.2c0-1.1,0.3-2.1,1-2.9c0.7-0.8,1.6-1.5,2.8-1.9c1.2-0.5,2.5-0.7,4.1-0.7c1,0,2,0.1,3,0.2
		s2,0.4,2.8,0.7v-1.8c0-1.7-0.5-3.1-1.5-4.1c-1-1-2.4-1.5-4.1-1.5c-0.9,0-1.9,0.2-2.9,0.6c-1,0.4-2,0.9-3.1,1.7l-0.8-1.3
		c1.2-0.8,2.4-1.4,3.6-1.9s2.3-0.6,3.4-0.6c2.2,0,4,0.7,5.3,2s1.9,3.1,1.9,5.4v9.2c0,0.3,0.1,0.5,0.2,0.6c0.1,0.1,0.3,0.2,0.6,0.2
		v1.5c-0.2,0-0.4,0-0.5,0h-0.4c-0.5-0.1-0.8-0.3-1.1-0.6c-0.2-0.3-0.4-0.7-0.4-1v-1.5c-0.9,1.1-2,1.9-3.3,2.5s-2.8,0.9-4.3,0.9
		c-1.2,0-2.2-0.2-3.2-0.8s-1.7-1.2-2.2-2.1S68.6,381.3,68.6,380.2L68.6,380.2z M81.5,381.8c0.2-0.3,0.4-0.6,0.5-0.9s0.2-0.5,0.2-0.8
		V377c-0.9-0.3-1.8-0.6-2.7-0.8c-0.9-0.2-1.9-0.2-2.9-0.2c-1.9,0-3.4,0.4-4.6,1.1s-1.8,1.8-1.8,3c0,0.8,0.2,1.5,0.6,2.2
		s1,1.2,1.7,1.6c0.7,0.4,1.6,0.6,2.5,0.6c1.3,0,2.6-0.3,3.7-0.8C80,383.2,80.9,382.6,81.5,381.8z"/>
	<path class="st0" d="M98.3,368.5c-1.7,0-3.2,0.5-4.4,1.5c-1.3,1-2.1,2.2-2.7,3.9v11.7h-1.8v-18.7h1.7v4.6c0.7-1.3,1.5-2.4,2.6-3.2
		s2.2-1.3,3.4-1.4c0.2,0,0.5,0,0.7,0h0.5V368.5z"/>
	<path class="st0" d="M117,385.6h-1.8v-10.4c0-2.4-0.3-4.1-1-5.2c-0.7-1.1-1.8-1.7-3.3-1.7c-1.1,0-2.1,0.2-3.1,0.8
		c-1,0.5-1.9,1.2-2.7,2.1c-0.8,0.9-1.3,1.9-1.6,3v11.5h-1.8v-18.7h1.7v4.5c0.5-1,1.2-1.8,2-2.5c0.8-0.7,1.8-1.3,2.8-1.7
		s2.1-0.6,3.2-0.6c1,0,1.9,0.2,2.6,0.6s1.3,0.9,1.7,1.6c0.4,0.7,0.8,1.5,0.9,2.6c0.2,1,0.3,2.2,0.3,3.5L117,385.6L117,385.6z"/>
	<path class="st0" d="M132.3,385.6V360h10.5c1.1,0,2.1,0.2,3,0.7s1.7,1.1,2.4,1.8s1.2,1.6,1.6,2.5c0.4,0.9,0.6,1.9,0.6,2.9
		c0,1.4-0.3,2.7-0.9,3.9s-1.4,2.2-2.5,3s-2.3,1.1-3.8,1.1h-8.9v9.6H132.3z M134.1,374.3h8.8c1.1,0,2.1-0.3,2.9-0.9
		c0.8-0.6,1.4-1.4,1.9-2.3s0.6-2,0.6-3.1s-0.3-2.2-0.8-3.1c-0.5-1-1.2-1.7-2.1-2.3s-1.8-0.9-2.8-0.9h-8.6L134.1,374.3L134.1,374.3z"
		/>
	<path class="st0" d="M161.6,386c-1.3,0-2.5-0.2-3.6-0.8c-1.1-0.5-2.1-1.2-2.9-2.1c-0.8-0.9-1.4-1.9-1.9-3.1s-0.7-2.4-0.7-3.7
		s0.2-2.5,0.7-3.7s1.1-2.2,1.9-3.1s1.8-1.6,2.9-2.1c1.1-0.5,2.3-0.8,3.6-0.8s2.5,0.3,3.6,0.8c1.1,0.5,2.1,1.2,2.9,2.1
		s1.5,1.9,1.9,3.1c0.5,1.2,0.7,2.4,0.7,3.7s-0.2,2.5-0.7,3.7c-0.5,1.2-1.1,2.2-1.9,3.1s-1.8,1.6-2.9,2.1S162.9,386,161.6,386
		L161.6,386z M154.3,376.4c0,1.5,0.3,2.8,1,4s1.5,2.2,2.6,2.9c1.1,0.7,2.3,1.1,3.7,1.1s2.6-0.4,3.7-1.1s2-1.7,2.7-2.9s1-2.6,1-4
		s-0.3-2.8-1-4s-1.6-2.2-2.7-2.9c-1.1-0.7-2.3-1.1-3.6-1.1s-2.6,0.4-3.7,1.1c-1.1,0.7-2,1.7-2.7,2.9S154.3,374.9,154.3,376.4
		L154.3,376.4z"/>
	<path class="st0" d="M175.1,362.6v-3.3h1.8v3.3H175.1z M175.1,385.6v-18.7h1.8v18.7H175.1z"/>
	<path class="st0" d="M197.8,385.6H196v-10.4c0-2.4-0.3-4.1-1-5.2c-0.7-1.1-1.8-1.7-3.3-1.7c-1.1,0-2.1,0.2-3.1,0.8
		s-1.9,1.2-2.7,2.1c-0.8,0.9-1.3,1.9-1.6,3v11.5h-1.8v-18.7h1.7v4.5c0.5-1,1.2-1.8,2-2.5c0.8-0.7,1.8-1.3,2.8-1.7s2.1-0.6,3.2-0.6
		c1,0,1.9,0.2,2.6,0.6s1.3,0.9,1.7,1.6c0.4,0.7,0.8,1.5,0.9,2.6s0.3,2.2,0.3,3.5L197.8,385.6L197.8,385.6z"/>
	<path class="st0" d="M211.4,384.9c-0.1,0-0.4,0.2-0.7,0.4c-0.4,0.2-0.8,0.4-1.4,0.5s-1.2,0.2-1.8,0.2s-1.2-0.1-1.8-0.4
		c-0.6-0.2-1-0.6-1.4-1.1c-0.3-0.5-0.5-1.1-0.5-1.9v-14.2h-2.6v-1.5h2.6v-6.4h1.8v6.4h4.4v1.5h-4.4v13.8c0.1,0.7,0.3,1.2,0.8,1.6
		c0.5,0.4,1,0.5,1.6,0.5c0.7,0,1.4-0.1,1.9-0.4s0.9-0.4,1-0.5L211.4,384.9L211.4,384.9z"/>
	<path class="st0" d="M220.5,386c-1.5,0-2.9-0.2-4.1-0.8c-1.3-0.5-2.4-1.3-3.4-2.3l0.8-1.3c1,1,2.1,1.7,3.1,2.1
		c1.1,0.4,2.2,0.7,3.5,0.7c1.6,0,2.9-0.3,3.9-1s1.5-1.6,1.5-2.8c0-0.8-0.2-1.4-0.7-1.9s-1.1-0.8-2-1.1c-0.9-0.3-1.9-0.6-3.2-0.9
		c-1.3-0.3-2.4-0.7-3.2-1c-0.9-0.4-1.5-0.8-2-1.4c-0.4-0.6-0.6-1.4-0.6-2.3c0-1.2,0.3-2.2,0.9-3s1.4-1.4,2.5-1.8s2.2-0.6,3.5-0.6
		c1.5,0,2.7,0.2,3.8,0.7s1.9,1.1,2.5,1.9l-1,1.1c-0.6-0.8-1.4-1.3-2.3-1.7c-1-0.4-2-0.6-3.2-0.6c-0.9,0-1.7,0.1-2.4,0.4
		s-1.4,0.6-1.9,1.2c-0.5,0.5-0.7,1.3-0.7,2.2c0,0.7,0.2,1.3,0.5,1.7s0.9,0.7,1.6,1c0.7,0.2,1.6,0.5,2.6,0.8c1.5,0.4,2.7,0.7,3.8,1.1
		c1.1,0.4,1.9,0.9,2.4,1.5s0.9,1.5,0.9,2.6c0,1.7-0.6,3-1.9,4C224.3,385.5,222.6,386,220.5,386L220.5,386z"/>
	<path class="st0" d="M241.9,385.6v-17.2h-2.6v-1.5h2.6v-0.6c0-1.5,0.2-2.8,0.6-3.9s1-1.9,1.8-2.5c0.8-0.6,1.7-0.9,2.8-0.9
		c0.7,0,1.4,0.1,2.1,0.3c0.7,0.2,1.2,0.5,1.7,0.9l-0.6,1.3c-0.3-0.3-0.7-0.5-1.2-0.7s-1-0.2-1.6-0.2c-1.2,0-2.2,0.5-2.8,1.5
		s-1,2.4-1,4.2v0.6h5.3v1.5h-5.3v17.2L241.9,385.6L241.9,385.6z"/>
	<path class="st0" d="M259.7,386c-1.3,0-2.5-0.2-3.6-0.8c-1.1-0.5-2.1-1.2-2.9-2.1c-0.8-0.9-1.4-1.9-1.9-3.1s-0.7-2.4-0.7-3.7
		s0.2-2.5,0.7-3.7c0.5-1.2,1.1-2.2,1.9-3.1s1.8-1.6,2.9-2.1c1.1-0.5,2.3-0.8,3.6-0.8s2.5,0.3,3.6,0.8c1.1,0.5,2.1,1.2,2.9,2.1
		s1.5,1.9,2,3.1c0.5,1.2,0.7,2.4,0.7,3.7s-0.2,2.5-0.7,3.7c-0.5,1.2-1.1,2.2-1.9,3.1c-0.8,0.9-1.8,1.6-2.9,2.1
		C262.2,385.7,261,386,259.7,386L259.7,386z M252.3,376.4c0,1.5,0.3,2.8,1,4s1.5,2.2,2.6,2.9c1.1,0.7,2.3,1.1,3.7,1.1
		s2.6-0.4,3.7-1.1s2-1.7,2.7-2.9s1-2.6,1-4s-0.3-2.8-1-4s-1.5-2.2-2.7-2.9c-1.1-0.7-2.3-1.1-3.6-1.1s-2.6,0.4-3.7,1.1
		s-2,1.7-2.7,2.9S252.3,374.9,252.3,376.4L252.3,376.4z"/>
	<path class="st0" d="M282,368.5c-1.7,0-3.1,0.5-4.4,1.5c-1.3,1-2.1,2.2-2.6,3.9v11.7h-1.8v-18.7h1.7v4.6c0.6-1.3,1.5-2.4,2.6-3.2
		s2.2-1.3,3.4-1.4c0.2,0,0.5,0,0.6,0h0.5L282,368.5L282,368.5z"/>
	<path class="st0" d="M302.9,386c-1.6,0-3-0.4-4.3-1.3c-1.3-0.9-2.3-1.9-3-3.1v11.7h-1.8v-26.4h1.7v3.8c0.8-1.2,1.8-2.2,3.1-2.9
		s2.6-1.1,4-1.1c1.3,0,2.5,0.3,3.6,0.8c1.1,0.5,2,1.3,2.8,2.2c0.8,0.9,1.4,2,1.9,3.1c0.4,1.1,0.7,2.3,0.7,3.6c0,1.7-0.4,3.3-1.1,4.8
		s-1.7,2.6-3,3.5S304.7,386,302.9,386L302.9,386z M302.5,384.4c1.1,0,2.1-0.2,3-0.7c0.9-0.5,1.6-1.1,2.2-1.8
		c0.6-0.8,1.1-1.6,1.4-2.6s0.5-1.9,0.5-2.9c0-1.1-0.2-2.1-0.6-3.1c-0.4-1-0.9-1.8-1.6-2.6s-1.5-1.3-2.4-1.8s-1.9-0.7-2.9-0.7
		c-0.6,0-1.3,0.1-2.1,0.4s-1.4,0.6-2.1,1.1c-0.7,0.5-1.2,1-1.6,1.6c-0.4,0.6-0.7,1.2-0.8,1.9v6.1c0.4,0.9,1,1.7,1.7,2.5
		c0.7,0.8,1.5,1.4,2.4,1.8S301.5,384.4,302.5,384.4L302.5,384.4z"/>
	<path class="st0" d="M314.3,380.2c0-1.1,0.3-2.1,1-2.9c0.7-0.8,1.6-1.5,2.8-1.9s2.5-0.7,4.1-0.7c1,0,2,0.1,3,0.2s2,0.4,2.8,0.7
		v-1.8c0-1.7-0.5-3.1-1.5-4.1c-1-1-2.4-1.5-4.1-1.5c-0.9,0-1.9,0.2-2.9,0.6s-2,0.9-3.1,1.7l-0.8-1.3c1.2-0.8,2.4-1.4,3.5-1.9
		c1.1-0.4,2.3-0.6,3.4-0.6c2.2,0,4,0.7,5.3,2s1.9,3.1,1.9,5.4v9.2c0,0.3,0.1,0.5,0.2,0.6c0.1,0.1,0.3,0.2,0.6,0.2v1.5
		c-0.2,0-0.4,0-0.5,0h-0.4c-0.5-0.1-0.8-0.3-1.1-0.6c-0.2-0.3-0.4-0.7-0.4-1v-1.5c-0.9,1.1-2,1.9-3.3,2.5c-1.4,0.6-2.8,0.9-4.3,0.9
		c-1.2,0-2.2-0.2-3.2-0.8s-1.7-1.2-2.2-2.1S314.3,381.3,314.3,380.2L314.3,380.2z M327.2,381.8c0.2-0.3,0.4-0.6,0.5-0.9
		s0.2-0.5,0.2-0.8V377c-0.9-0.3-1.8-0.6-2.7-0.8s-1.9-0.2-2.9-0.2c-1.9,0-3.4,0.4-4.5,1.1c-1.2,0.7-1.8,1.8-1.8,3
		c0,0.8,0.2,1.5,0.6,2.2c0.4,0.7,1,1.2,1.7,1.6s1.6,0.6,2.5,0.6c1.3,0,2.6-0.3,3.7-0.8C325.7,383.2,326.6,382.6,327.2,381.8z"/>
	<path class="st0" d="M335.9,392c0.4,0,0.7,0,1,0s0.5-0.1,0.7-0.2c0.2-0.1,0.4-0.3,0.7-0.6s0.5-0.9,0.9-1.8c0.4-0.9,0.9-2.2,1.6-3.9
		l-8.4-18.7h1.9l7.4,16.8l6.9-16.8h1.8l-10.3,24.6c-0.1,0.4-0.3,0.7-0.6,1s-0.6,0.5-0.9,0.7c-0.4,0.2-0.8,0.3-1.3,0.3
		c-0.2,0-0.4,0-0.7,0c-0.2,0-0.5,0-0.8,0L335.9,392L335.9,392z"/>
	<path class="st0" d="M381.6,385.6h-1.8v-10.4c0-2.4-0.4-4.1-1.1-5.2c-0.7-1.1-1.9-1.7-3.4-1.7s-2.9,0.5-4.1,1.6s-2,2.5-2.5,4.2
		v11.5h-1.8v-10.4c0-2.4-0.4-4.1-1.1-5.2s-1.8-1.7-3.4-1.7s-2.9,0.5-4.1,1.6s-2,2.5-2.5,4.2v11.5H354v-18.7h1.7v4.5
		c0.8-1.5,1.8-2.7,3.1-3.5c1.2-0.8,2.6-1.2,4.1-1.2s2.8,0.5,3.8,1.4c1,0.9,1.6,2.1,1.8,3.7c0.9-1.7,1.9-2.9,3.2-3.8
		c1.2-0.9,2.6-1.3,4.2-1.3c1,0,1.9,0.2,2.6,0.6s1.3,0.9,1.8,1.6c0.5,0.7,0.8,1.6,1,2.6s0.3,2.2,0.3,3.5L381.6,385.6L381.6,385.6z"/>
	<path class="st0" d="M395,386c-1.3,0-2.5-0.3-3.7-0.8c-1.1-0.5-2.1-1.2-2.9-2.1s-1.5-1.9-1.9-3.1s-0.7-2.4-0.7-3.8
		c0-1.8,0.4-3.4,1.2-4.8s1.9-2.6,3.3-3.5s3-1.3,4.7-1.3s3.4,0.4,4.7,1.3c1.4,0.9,2.5,2,3.3,3.5c0.8,1.5,1.2,3,1.2,4.8v0.4
		c0,0.1,0,0.3,0,0.4h-16.4c0.1,1.4,0.5,2.7,1.2,3.8c0.7,1.1,1.6,2,2.7,2.7s2.3,1,3.6,1s2.5-0.3,3.7-1c1.1-0.7,2-1.5,2.4-2.6l1.6,0.4
		c-0.4,0.9-0.9,1.7-1.7,2.4s-1.7,1.2-2.7,1.6C397.2,385.8,396.1,386,395,386L395,386z M387.5,375.6h14.8c-0.1-1.5-0.5-2.8-1.1-3.9
		c-0.7-1.1-1.5-2-2.6-2.6s-2.3-1-3.6-1s-2.5,0.3-3.6,1s-2,1.5-2.6,2.6S387.6,374.1,387.5,375.6z"/>
	<path class="st0" d="M423.3,385.6h-1.8v-10.4c0-2.4-0.3-4.1-1-5.2c-0.7-1.1-1.8-1.7-3.3-1.7c-1.1,0-2.1,0.2-3.1,0.8
		s-1.9,1.2-2.7,2.1c-0.8,0.9-1.3,1.9-1.6,3v11.5H408v-18.7h1.7v4.5c0.5-1,1.2-1.8,2-2.5s1.8-1.3,2.8-1.7s2.1-0.6,3.2-0.6
		c1,0,1.9,0.2,2.6,0.6s1.3,0.9,1.7,1.6c0.4,0.7,0.8,1.5,1,2.6s0.3,2.2,0.3,3.5L423.3,385.6L423.3,385.6z"/>
	<path class="st0" d="M436.9,384.9c-0.1,0-0.4,0.2-0.7,0.4c-0.4,0.2-0.8,0.4-1.4,0.5c-0.5,0.2-1.2,0.2-1.8,0.2s-1.2-0.1-1.8-0.4
		c-0.6-0.2-1-0.6-1.4-1.1s-0.5-1.1-0.5-1.9v-14.2h-2.6v-1.5h2.6v-6.4h1.8v6.4h4.4v1.5h-4.4v13.8c0,0.7,0.3,1.2,0.8,1.6
		c0.5,0.4,1,0.5,1.6,0.5c0.7,0,1.4-0.1,1.9-0.4s0.9-0.4,1-0.5L436.9,384.9L436.9,384.9z"/>
	<path class="st0" d="M446,386c-1.5,0-2.9-0.2-4.1-0.8c-1.3-0.5-2.4-1.3-3.4-2.3l0.8-1.3c1,1,2.1,1.7,3.1,2.1
		c1.1,0.4,2.2,0.7,3.5,0.7c1.6,0,2.9-0.3,3.9-1s1.5-1.6,1.5-2.8c0-0.8-0.2-1.4-0.7-1.9s-1.1-0.8-2-1.1c-0.9-0.3-1.9-0.6-3.2-0.9
		c-1.3-0.3-2.4-0.7-3.2-1c-0.9-0.4-1.5-0.8-2-1.4s-0.6-1.4-0.6-2.3c0-1.2,0.3-2.2,0.9-3c0.6-0.8,1.4-1.4,2.5-1.8s2.2-0.6,3.5-0.6
		c1.5,0,2.7,0.2,3.8,0.7s1.9,1.1,2.5,1.9l-1,1.1c-0.6-0.8-1.4-1.3-2.3-1.7s-2-0.6-3.2-0.6c-0.9,0-1.7,0.1-2.5,0.4
		c-0.8,0.2-1.4,0.6-1.9,1.2c-0.5,0.5-0.7,1.3-0.7,2.2c0,0.7,0.2,1.3,0.5,1.7s0.9,0.7,1.6,1s1.6,0.5,2.6,0.8c1.5,0.4,2.7,0.7,3.8,1.1
		c1.1,0.4,1.9,0.9,2.5,1.5c0.6,0.6,0.9,1.5,0.9,2.6c0,1.7-0.6,3-1.9,4C449.8,385.5,448.1,386,446,386L446,386z"/>
	<path class="st0" d="M48.2,429.2c-1.3,0-2.5-0.2-3.7-0.8c-1.1-0.5-2.1-1.2-2.9-2.1c-0.8-0.9-1.5-1.9-1.9-3.1s-0.7-2.4-0.7-3.7
		s0.2-2.5,0.7-3.7s1.1-2.2,1.9-3.1s1.8-1.6,2.9-2.1c1.1-0.5,2.3-0.8,3.6-0.8s2.5,0.3,3.6,0.8c1.1,0.5,2.1,1.2,2.9,2.1
		c0.8,0.9,1.5,1.9,1.9,3.1c0.5,1.2,0.7,2.4,0.7,3.7s-0.2,2.5-0.7,3.7c-0.5,1.2-1.1,2.2-1.9,3.1s-1.8,1.6-2.9,2.1
		C50.7,428.9,49.5,429.2,48.2,429.2z M40.9,419.6c0,1.5,0.3,2.8,1,4s1.5,2.2,2.7,2.9c1.1,0.7,2.3,1.1,3.7,1.1s2.6-0.4,3.7-1.1
		s2-1.7,2.7-2.9s1-2.6,1-4s-0.3-2.8-1-4s-1.5-2.2-2.7-2.9c-1.1-0.7-2.3-1.1-3.7-1.1s-2.6,0.4-3.7,1.1c-1.1,0.7-2,1.7-2.7,2.9
		S40.9,418.1,40.9,419.6L40.9,419.6z"/>
	<path class="st0" d="M62.2,428.8v-17.2h-2.6v-1.5h2.6v-0.6c0-1.5,0.2-2.8,0.7-3.9s1-1.9,1.8-2.5c0.8-0.6,1.7-0.9,2.8-0.9
		c0.7,0,1.4,0.1,2.1,0.3c0.7,0.2,1.2,0.5,1.7,0.9l-0.7,1.3c-0.3-0.3-0.7-0.5-1.2-0.7s-1-0.2-1.6-0.2c-1.2,0-2.2,0.5-2.8,1.5
		s-1,2.4-1,4.2v0.6h5.3v1.5H64v17.2L62.2,428.8L62.2,428.8z"/>
	<path class="st0" d="M96.7,407.5c-0.4-0.5-0.9-0.9-1.4-1.2s-1-0.6-1.6-0.9c-0.6-0.2-1.2-0.4-1.9-0.5c-0.7-0.1-1.4-0.2-2.2-0.2
		c-2.5,0-4.3,0.5-5.4,1.4s-1.7,2.2-1.7,3.8c0,1.1,0.3,1.9,0.8,2.6c0.5,0.6,1.3,1.1,2.4,1.5s2.5,0.8,4.3,1.1c1.8,0.4,3.4,0.8,4.8,1.4
		c1.3,0.5,2.4,1.2,3.1,2.1c0.7,0.9,1.1,2.1,1.1,3.6c0,1.1-0.2,2.1-0.7,3s-1.1,1.5-1.9,2.1c-0.8,0.5-1.8,1-2.9,1.3s-2.4,0.4-3.7,0.4
		s-2.6-0.1-3.8-0.4c-1.2-0.3-2.3-0.7-3.4-1.3c-1.1-0.5-2-1.3-2.9-2.1l1-1.5c0.5,0.6,1.1,1.1,1.8,1.5c0.7,0.4,1.4,0.8,2.2,1.1
		c0.8,0.3,1.6,0.6,2.5,0.7s1.8,0.3,2.8,0.3c2.2,0,4-0.4,5.2-1.2c1.3-0.8,1.9-2,1.9-3.7c0-1.1-0.3-2-0.9-2.7
		c-0.6-0.7-1.5-1.3-2.7-1.7s-2.7-0.9-4.5-1.2s-3.3-0.8-4.6-1.3c-1.3-0.5-2.2-1.1-2.8-1.9s-0.9-1.9-0.9-3.3c0-1.5,0.4-2.8,1.1-3.9
		s1.8-1.9,3.2-2.4s2.9-0.8,4.7-0.8c1.1,0,2.1,0.1,3.1,0.3c0.9,0.2,1.8,0.5,2.6,1s1.6,1,2.2,1.7L96.7,407.5L96.7,407.5z"/>
	<path class="st0" d="M110.9,429.2c-1.3,0-2.5-0.2-3.7-0.8c-1.1-0.5-2.1-1.2-2.9-2.1s-1.4-1.9-1.9-3.1s-0.7-2.4-0.7-3.7
		s0.2-2.5,0.7-3.7s1.1-2.2,1.9-3.1s1.8-1.6,2.9-2.1c1.1-0.5,2.3-0.8,3.6-0.8s2.5,0.3,3.6,0.8c1.1,0.5,2.1,1.2,2.9,2.1
		s1.5,1.9,1.9,3.1c0.5,1.2,0.7,2.4,0.7,3.7s-0.2,2.5-0.7,3.7c-0.5,1.2-1.1,2.2-1.9,3.1s-1.8,1.6-2.9,2.1
		C113.4,428.9,112.2,429.2,110.9,429.2z M103.6,419.6c0,1.5,0.3,2.8,1,4c0.7,1.2,1.5,2.2,2.7,2.9c1.1,0.7,2.3,1.1,3.7,1.1
		s2.6-0.4,3.7-1.1s2-1.7,2.7-2.9s1-2.6,1-4s-0.3-2.8-1-4c-0.7-1.2-1.6-2.2-2.7-2.9c-1.1-0.7-2.3-1.1-3.7-1.1s-2.6,0.4-3.7,1.1
		s-2,1.7-2.7,2.9C104,416.7,103.6,418.1,103.6,419.6L103.6,419.6z"/>
	<path class="st0" d="M132.4,429.2c-1.3,0-2.5-0.3-3.6-0.8c-1.1-0.5-2.1-1.2-2.9-2.1s-1.5-1.9-2-3.1s-0.7-2.4-0.7-3.8
		c0-1.8,0.4-3.4,1.2-4.8s1.9-2.6,3.3-3.4c1.4-0.9,3-1.3,4.7-1.3s3.2,0.4,4.5,1.2s2.3,1.8,2.9,3.2l-1.8,0.6c-0.6-1-1.3-1.8-2.4-2.4
		s-2.1-0.9-3.4-0.9c-1.4,0-2.6,0.4-3.7,1c-1.1,0.7-2,1.6-2.7,2.9s-1,2.6-1,4.1s0.3,2.8,1,4.1s1.6,2.2,2.7,3c1.1,0.7,2.4,1.1,3.7,1.1
		c0.9,0,1.7-0.2,2.5-0.5s1.6-0.8,2.2-1.3s1-1.1,1.2-1.7l1.8,0.5c-0.3,0.9-0.9,1.7-1.6,2.4c-0.8,0.7-1.7,1.2-2.7,1.6
		C134.7,429,133.6,429.2,132.4,429.2L132.4,429.2z"/>
	<path class="st0" d="M144,405.8v-3.3h1.8v3.3H144z M144,428.8v-18.7h1.8v18.7H144z"/>
	<path class="st0" d="M149.9,423.4c0-1.1,0.3-2.1,1-2.9c0.7-0.8,1.6-1.5,2.8-1.9c1.2-0.5,2.5-0.7,4.1-0.7c1,0,2,0.1,3,0.2
		s2,0.4,2.8,0.7V417c0-1.7-0.5-3.1-1.5-4.1c-1-1-2.4-1.5-4.1-1.5c-0.9,0-1.9,0.2-2.9,0.6c-1,0.4-2,0.9-3.1,1.7l-0.8-1.3
		c1.2-0.8,2.4-1.4,3.6-1.9s2.3-0.6,3.4-0.6c2.2,0,4,0.7,5.3,2s1.9,3.1,1.9,5.4v9.2c0,0.3,0.1,0.5,0.2,0.6c0.1,0.1,0.3,0.2,0.6,0.2
		v1.5c-0.2,0-0.4,0-0.5,0h-0.4c-0.5-0.1-0.8-0.3-1.1-0.6c-0.2-0.3-0.4-0.7-0.4-1v-1.5c-0.9,1.1-2,1.9-3.3,2.5s-2.8,0.9-4.3,0.9
		c-1.2,0-2.2-0.2-3.2-0.8s-1.7-1.2-2.2-2.1S149.9,424.5,149.9,423.4L149.9,423.4z M162.8,425c0.2-0.3,0.4-0.6,0.5-0.9
		s0.2-0.5,0.2-0.8v-3.1c-0.9-0.3-1.8-0.6-2.7-0.8s-1.9-0.2-2.9-0.2c-1.9,0-3.4,0.4-4.6,1.1s-1.8,1.8-1.8,3c0,0.8,0.2,1.5,0.6,2.2
		s1,1.2,1.7,1.6c0.7,0.4,1.6,0.6,2.5,0.6c1.3,0,2.6-0.3,3.7-0.8C161.4,426.4,162.3,425.8,162.8,425L162.8,425z"/>
	<path class="st0" d="M171,402.5h1.8v22.7c0,0.9,0.2,1.5,0.5,1.8c0.4,0.3,0.8,0.5,1.4,0.5c0.4,0,0.8,0,1.2-0.1
		c0.4-0.1,0.8-0.2,1.1-0.3l0.4,1.5c-0.4,0.1-0.9,0.3-1.5,0.4c-0.6,0.1-1.1,0.2-1.6,0.2c-1,0-1.8-0.3-2.4-0.9
		c-0.6-0.6-0.9-1.4-0.9-2.5V402.5z"/>
	<path class="st0" d="M197.2,403.2l-16.8,25.6h-2.1l16.8-25.6H197.2L197.2,403.2z"/>
	<path class="st0" d="M220.4,422.2c0,1.2-0.3,2.4-0.9,3.4s-1.4,1.8-2.5,2.4s-2.2,0.9-3.5,0.9h-11.9v-25.6h11.9c1.2,0,2.2,0.3,3.1,1
		c0.9,0.6,1.6,1.5,2,2.5s0.7,2,0.7,3.1c0,1.3-0.3,2.5-1,3.5c-0.6,1.1-1.6,1.9-2.7,2.4c1.5,0.4,2.6,1.2,3.5,2.4
		S220.4,420.7,220.4,422.2L220.4,422.2z M203.4,404.9v10.2h9.4c0.9,0,1.8-0.2,2.5-0.7s1.3-1.1,1.7-1.9c0.4-0.8,0.6-1.6,0.6-2.5
		c0-0.9-0.2-1.8-0.6-2.6c-0.4-0.8-0.9-1.4-1.6-1.9c-0.7-0.5-1.5-0.7-2.4-0.7L203.4,404.9L203.4,404.9z M218.5,421.9
		c0-0.9-0.2-1.8-0.6-2.6c-0.4-0.8-1-1.4-1.7-1.9s-1.5-0.8-2.4-0.8h-10.4v10.5h10.1c0.9,0,1.8-0.2,2.6-0.7s1.4-1.1,1.8-1.9
		C218.3,423.7,218.5,422.8,218.5,421.9L218.5,421.9z"/>
	<path class="st0" d="M224.6,420.9v-10.8h1.8v10.5c0,2.3,0.4,4,1.2,5.2s2,1.7,3.6,1.7c1.1,0,2.1-0.2,3-0.7s1.8-1.1,2.6-2
		c0.7-0.9,1.3-1.8,1.7-3v-11.8h1.8v16.3c0,0.3,0.1,0.5,0.2,0.6c0.1,0.1,0.3,0.2,0.6,0.2v1.5c-0.2,0-0.4,0-0.6,0s-0.2,0-0.3,0
		c-0.4,0-0.7-0.2-1-0.5c-0.3-0.3-0.4-0.7-0.4-1.1l0-2.8c-0.8,1.5-1.9,2.6-3.4,3.5s-3,1.3-4.6,1.3c-2,0-3.5-0.7-4.5-2.1
		C225.1,425.7,224.6,423.6,224.6,420.9L224.6,420.9z"/>
	<path class="st0" d="M251.9,429.2c-1.5,0-2.9-0.2-4.1-0.8c-1.3-0.5-2.4-1.3-3.4-2.3l0.8-1.3c1,1,2.1,1.7,3.1,2.1
		c1.1,0.4,2.2,0.7,3.5,0.7c1.6,0,2.9-0.3,3.9-1c1-0.7,1.5-1.6,1.5-2.8c0-0.8-0.2-1.4-0.7-1.9s-1.1-0.8-2-1.1
		c-0.9-0.3-1.9-0.6-3.2-0.9c-1.3-0.3-2.4-0.7-3.2-1c-0.9-0.4-1.5-0.8-2-1.4c-0.4-0.6-0.6-1.4-0.6-2.3c0-1.2,0.3-2.2,0.9-3
		s1.4-1.4,2.5-1.8s2.2-0.6,3.5-0.6c1.5,0,2.7,0.2,3.8,0.7c1.1,0.5,1.9,1.1,2.5,1.9l-1,1.1c-0.6-0.8-1.4-1.3-2.3-1.7
		c-1-0.4-2-0.6-3.2-0.6c-0.9,0-1.7,0.1-2.4,0.4s-1.4,0.6-1.9,1.2c-0.5,0.5-0.7,1.3-0.7,2.2c0,0.7,0.2,1.3,0.5,1.7s0.9,0.7,1.6,1
		c0.7,0.2,1.6,0.5,2.6,0.8c1.5,0.4,2.7,0.7,3.8,1.1c1.1,0.4,1.9,0.9,2.5,1.5c0.6,0.6,0.9,1.5,0.9,2.6c0,1.7-0.6,3-1.9,4
		C255.7,428.7,254,429.2,251.9,429.2L251.9,429.2z"/>
	<path class="st0" d="M263.2,405.8v-3.3h1.8v3.3H263.2z M263.2,428.8v-18.7h1.8v18.7H263.2z"/>
	<path class="st0" d="M286,428.8h-1.8v-10.4c0-2.4-0.3-4.1-1-5.2c-0.7-1.1-1.8-1.7-3.3-1.7c-1.1,0-2.1,0.2-3.1,0.8s-1.9,1.2-2.7,2.1
		c-0.8,0.9-1.3,1.9-1.6,3v11.5h-1.8v-18.7h1.7v4.5c0.5-1,1.2-1.8,2-2.5s1.8-1.3,2.8-1.7s2.1-0.6,3.2-0.6c1,0,1.9,0.2,2.6,0.6
		s1.3,0.9,1.7,1.6c0.4,0.7,0.8,1.5,1,2.6s0.3,2.2,0.3,3.5L286,428.8L286,428.8z"/>
	<path class="st0" d="M299.3,429.2c-1.3,0-2.5-0.3-3.7-0.8c-1.1-0.5-2.1-1.2-2.9-2.1s-1.5-1.9-1.9-3.1s-0.7-2.4-0.7-3.8
		c0-1.8,0.4-3.4,1.2-4.8s1.9-2.6,3.3-3.5s3-1.3,4.7-1.3s3.4,0.4,4.7,1.3c1.4,0.9,2.5,2,3.3,3.5c0.8,1.5,1.2,3,1.2,4.8v0.4
		c0,0.1,0,0.3,0,0.4H292c0.1,1.4,0.5,2.7,1.2,3.8c0.7,1.1,1.6,2,2.7,2.7s2.3,1,3.6,1s2.5-0.3,3.7-1c1.1-0.7,2-1.5,2.4-2.6l1.6,0.4
		c-0.4,0.9-0.9,1.7-1.7,2.4s-1.7,1.2-2.7,1.6C301.6,429,300.5,429.2,299.3,429.2L299.3,429.2z M291.9,418.8h14.8
		c-0.1-1.5-0.5-2.8-1.1-3.9c-0.7-1.1-1.5-2-2.6-2.6s-2.3-1-3.6-1s-2.5,0.3-3.6,1s-2,1.5-2.6,2.6S292,417.3,291.9,418.8z"/>
	<path class="st0" d="M318.3,429.2c-1.5,0-2.9-0.2-4.1-0.8c-1.3-0.5-2.4-1.3-3.4-2.3l0.8-1.3c1,1,2.1,1.7,3.1,2.1
		c1.1,0.4,2.2,0.7,3.5,0.7c1.6,0,2.9-0.3,3.9-1s1.5-1.6,1.5-2.8c0-0.8-0.2-1.4-0.7-1.9s-1.1-0.8-2-1.1c-0.9-0.3-1.9-0.6-3.2-0.9
		c-1.3-0.3-2.4-0.7-3.2-1c-0.9-0.4-1.5-0.8-2-1.4s-0.6-1.4-0.6-2.3c0-1.2,0.3-2.2,0.9-3c0.6-0.8,1.4-1.4,2.5-1.8s2.2-0.6,3.5-0.6
		c1.5,0,2.7,0.2,3.8,0.7s1.9,1.1,2.5,1.9l-1,1.1c-0.6-0.8-1.4-1.3-2.3-1.7s-2-0.6-3.2-0.6c-0.9,0-1.7,0.1-2.5,0.4
		c-0.8,0.2-1.4,0.6-1.9,1.2c-0.5,0.5-0.7,1.3-0.7,2.2c0,0.7,0.2,1.3,0.5,1.7s0.9,0.7,1.6,1s1.6,0.5,2.6,0.8c1.5,0.4,2.7,0.7,3.8,1.1
		c1.1,0.4,1.9,0.9,2.5,1.5c0.6,0.6,0.9,1.5,0.9,2.6c0,1.7-0.6,3-1.9,4C322.1,428.7,320.4,429.2,318.3,429.2L318.3,429.2z"/>
	<path class="st0" d="M335.5,429.2c-1.5,0-2.9-0.2-4.1-0.8c-1.3-0.5-2.4-1.3-3.4-2.3l0.8-1.3c1,1,2.1,1.7,3.1,2.1
		c1.1,0.4,2.2,0.7,3.5,0.7c1.6,0,2.9-0.3,3.9-1s1.5-1.6,1.5-2.8c0-0.8-0.2-1.4-0.7-1.9s-1.1-0.8-2-1.1c-0.9-0.3-1.9-0.6-3.2-0.9
		c-1.3-0.3-2.4-0.7-3.2-1c-0.9-0.4-1.5-0.8-2-1.4s-0.6-1.4-0.6-2.3c0-1.2,0.3-2.2,0.9-3c0.6-0.8,1.4-1.4,2.5-1.8s2.2-0.6,3.5-0.6
		c1.5,0,2.7,0.2,3.8,0.7s1.9,1.1,2.5,1.9l-1,1.1c-0.6-0.8-1.4-1.3-2.3-1.7s-2-0.6-3.2-0.6c-0.9,0-1.7,0.1-2.5,0.4
		c-0.8,0.2-1.4,0.6-1.9,1.2c-0.5,0.5-0.7,1.3-0.7,2.2c0,0.7,0.2,1.3,0.5,1.7s0.9,0.7,1.6,1s1.6,0.5,2.6,0.8c1.5,0.4,2.7,0.7,3.8,1.1
		c1.1,0.4,1.9,0.9,2.5,1.5c0.6,0.6,0.9,1.5,0.9,2.6c0,1.7-0.6,3-1.9,4C339.3,428.7,337.6,429.2,335.5,429.2L335.5,429.2z"/>
	<path class="st0" d="M364.1,429.2c-1.3,0-2.5-0.3-3.7-0.8c-1.1-0.5-2.1-1.2-2.9-2.1s-1.5-1.9-1.9-3.1s-0.7-2.4-0.7-3.8
		c0-1.8,0.4-3.4,1.2-4.8s1.9-2.6,3.3-3.5s3-1.3,4.7-1.3s3.4,0.4,4.7,1.3c1.4,0.9,2.5,2,3.3,3.5c0.8,1.5,1.2,3,1.2,4.8v0.4
		c0,0.1,0,0.3,0,0.4h-16.4c0.1,1.4,0.5,2.7,1.2,3.8c0.7,1.1,1.6,2,2.7,2.7s2.3,1,3.6,1s2.5-0.3,3.7-1c1.1-0.7,2-1.5,2.4-2.6l1.6,0.4
		c-0.4,0.9-0.9,1.7-1.7,2.4s-1.7,1.2-2.7,1.6C366.3,429,365.2,429.2,364.1,429.2L364.1,429.2z M356.6,418.8h14.8
		c-0.1-1.5-0.5-2.8-1.1-3.9c-0.7-1.1-1.5-2-2.6-2.6s-2.3-1-3.6-1s-2.5,0.3-3.6,1s-2,1.5-2.6,2.6S356.7,417.3,356.6,418.8z"/>
	<path class="st0" d="M382.4,428.8l-7.8-18.7h1.9l6.9,16.8l6.9-16.8h1.8l-7.8,18.7H382.4L382.4,428.8z"/>
	<path class="st0" d="M402.9,429.2c-1.3,0-2.5-0.3-3.7-0.8c-1.1-0.5-2.1-1.2-2.9-2.1s-1.5-1.9-1.9-3.1s-0.7-2.4-0.7-3.8
		c0-1.8,0.4-3.4,1.2-4.8s1.9-2.6,3.3-3.5s3-1.3,4.7-1.3s3.4,0.4,4.7,1.3c1.4,0.9,2.5,2,3.3,3.5c0.8,1.5,1.2,3,1.2,4.8v0.4
		c0,0.1,0,0.3,0,0.4h-16.4c0.1,1.4,0.5,2.7,1.2,3.8c0.7,1.1,1.6,2,2.7,2.7s2.3,1,3.6,1s2.5-0.3,3.7-1c1.1-0.7,2-1.5,2.4-2.6l1.6,0.4
		c-0.4,0.9-0.9,1.7-1.7,2.4s-1.7,1.2-2.7,1.6C405.2,429,404.1,429.2,402.9,429.2L402.9,429.2z M395.5,418.8h14.8
		c-0.1-1.5-0.5-2.8-1.1-3.9c-0.7-1.1-1.5-2-2.6-2.6s-2.3-1-3.6-1s-2.5,0.3-3.6,1s-2,1.5-2.6,2.6S395.5,417.3,395.5,418.8z"/>
	<path class="st0" d="M431.2,428.8h-1.8v-10.4c0-2.4-0.3-4.1-1-5.2c-0.7-1.1-1.8-1.7-3.3-1.7c-1.1,0-2.1,0.2-3.1,0.8
		s-1.9,1.2-2.7,2.1c-0.8,0.9-1.3,1.9-1.6,3v11.5h-1.8v-18.7h1.7v4.5c0.5-1,1.2-1.8,2-2.5s1.8-1.3,2.8-1.7s2.1-0.6,3.2-0.6
		c1,0,1.9,0.2,2.6,0.6s1.3,0.9,1.7,1.6c0.4,0.7,0.8,1.5,1,2.6s0.3,2.2,0.3,3.5L431.2,428.8L431.2,428.8z"/>
	<path class="st0" d="M444.8,428.1c-0.1,0-0.4,0.2-0.7,0.4c-0.4,0.2-0.8,0.4-1.4,0.5c-0.5,0.2-1.2,0.2-1.8,0.2s-1.2-0.1-1.8-0.4
		c-0.6-0.2-1-0.6-1.4-1.1s-0.5-1.1-0.5-1.9v-14.2h-2.6v-1.5h2.6v-6.4h1.8v6.4h4.4v1.5H439v13.8c0,0.7,0.3,1.2,0.8,1.6
		c0.5,0.4,1,0.5,1.6,0.5c0.7,0,1.4-0.1,1.9-0.4s0.9-0.4,1-0.5L444.8,428.1L444.8,428.1z"/>
	<path class="st0" d="M453.9,429.2c-1.5,0-2.9-0.2-4.1-0.8c-1.3-0.5-2.4-1.3-3.4-2.3l0.8-1.3c1,1,2.1,1.7,3.1,2.1
		c1.1,0.4,2.2,0.7,3.5,0.7c1.6,0,2.9-0.3,3.9-1s1.5-1.6,1.5-2.8c0-0.8-0.2-1.4-0.7-1.9s-1.1-0.8-2-1.1c-0.9-0.3-1.9-0.6-3.2-0.9
		c-1.3-0.3-2.4-0.7-3.2-1c-0.9-0.4-1.5-0.8-2-1.4s-0.6-1.4-0.6-2.3c0-1.2,0.3-2.2,0.9-3c0.6-0.8,1.4-1.4,2.5-1.8s2.2-0.6,3.5-0.6
		c1.5,0,2.7,0.2,3.8,0.7s1.9,1.1,2.5,1.9l-1,1.1c-0.6-0.8-1.4-1.3-2.3-1.7s-2-0.6-3.2-0.6c-0.9,0-1.7,0.1-2.5,0.4
		c-0.8,0.2-1.4,0.6-1.9,1.2c-0.5,0.5-0.7,1.3-0.7,2.2c0,0.7,0.2,1.3,0.5,1.7s0.9,0.7,1.6,1s1.6,0.5,2.6,0.8c1.5,0.4,2.7,0.7,3.8,1.1
		c1.1,0.4,1.9,0.9,2.5,1.5c0.6,0.6,0.9,1.5,0.9,2.6c0,1.7-0.6,3-1.9,4C457.8,428.7,456,429.2,453.9,429.2L453.9,429.2z"/>
	<path class="st0" d="M38.6,466.6c0-1.1,0.3-2.1,1-2.9c0.7-0.8,1.6-1.5,2.8-1.9c1.2-0.5,2.5-0.7,4.1-0.7c1,0,2,0.1,3,0.2
		c1,0.2,2,0.4,2.8,0.7v-1.8c0-1.7-0.5-3.1-1.5-4.1c-1-1-2.4-1.5-4.1-1.5c-0.9,0-1.9,0.2-2.9,0.6c-1,0.4-2,0.9-3.1,1.7l-0.8-1.3
		c1.2-0.8,2.4-1.4,3.5-1.9s2.3-0.6,3.4-0.6c2.2,0,4,0.7,5.3,2s1.9,3.1,1.9,5.4v9.2c0,0.3,0.1,0.5,0.2,0.6c0.1,0.1,0.3,0.2,0.6,0.2
		v1.5c-0.2,0-0.4,0-0.5,0h-0.4c-0.5-0.1-0.8-0.3-1.1-0.6c-0.2-0.3-0.4-0.7-0.4-1V469c-0.9,1.1-2,1.9-3.3,2.5s-2.8,0.9-4.3,0.9
		c-1.2,0-2.2-0.2-3.2-0.8s-1.7-1.2-2.2-2.1S38.6,467.7,38.6,466.6L38.6,466.6z M51.5,468.2c0.2-0.3,0.4-0.6,0.5-0.9
		c0.1-0.3,0.2-0.5,0.2-0.8v-3.1c-0.9-0.3-1.8-0.6-2.7-0.8c-0.9-0.2-1.9-0.2-2.9-0.2c-1.9,0-3.4,0.4-4.5,1.1s-1.8,1.8-1.8,3
		c0,0.8,0.2,1.5,0.6,2.2s1,1.2,1.7,1.6c0.7,0.4,1.6,0.6,2.5,0.6c1.3,0,2.6-0.3,3.7-0.8C50,469.6,50.9,469,51.5,468.2z"/>
	<path class="st0" d="M67.7,471.3c-0.1,0-0.4,0.2-0.7,0.4c-0.4,0.2-0.8,0.4-1.4,0.5s-1.2,0.2-1.8,0.2s-1.2-0.1-1.8-0.4
		c-0.6-0.2-1-0.6-1.3-1.1s-0.5-1.1-0.5-1.9v-14.2h-2.6v-1.5h2.6v-6.4h1.8v6.4h4.4v1.5h-4.4v13.8c0,0.7,0.3,1.2,0.8,1.6
		c0.5,0.4,1,0.5,1.6,0.5c0.7,0,1.4-0.1,1.9-0.4s0.9-0.4,1-0.5L67.7,471.3L67.7,471.3z"/>
	<path class="st0" d="M88.4,471.3c-0.1,0-0.4,0.2-0.7,0.4c-0.4,0.2-0.8,0.4-1.4,0.5s-1.2,0.2-1.8,0.2s-1.2-0.1-1.8-0.4
		c-0.6-0.2-1-0.6-1.3-1.1s-0.5-1.1-0.5-1.9v-14.2h-2.6v-1.5h2.6v-6.4h1.8v6.4H87v1.5h-4.4v13.8c0.1,0.7,0.3,1.2,0.8,1.6
		c0.5,0.4,1,0.5,1.6,0.5c0.7,0,1.4-0.1,1.9-0.4s0.9-0.4,1-0.5L88.4,471.3L88.4,471.3z"/>
	<path class="st0" d="M106.9,472h-1.8v-10.4c0-2.3-0.4-4-1.2-5.2s-1.9-1.7-3.5-1.7c-1,0-2,0.2-2.9,0.8c-1,0.5-1.8,1.2-2.6,2.1
		s-1.2,1.9-1.6,3V472h-1.8v-26.3h1.8v12.1c0.8-1.5,1.8-2.6,3.2-3.5s2.8-1.3,4.4-1.3c1.1,0,2,0.2,2.7,0.6s1.4,0.9,1.8,1.6
		c0.5,0.7,0.8,1.6,1.1,2.6c0.2,1,0.3,2.1,0.3,3.4L106.9,472L106.9,472z"/>
	<path class="st0" d="M120.3,472.4c-1.3,0-2.5-0.3-3.7-0.8c-1.1-0.5-2.1-1.2-2.9-2.1c-0.8-0.9-1.5-1.9-1.9-3.1
		c-0.5-1.2-0.7-2.4-0.7-3.8c0-1.8,0.4-3.4,1.2-4.8s1.9-2.6,3.3-3.5c1.4-0.9,2.9-1.3,4.7-1.3s3.3,0.4,4.7,1.3c1.4,0.9,2.4,2,3.3,3.5
		c0.8,1.5,1.2,3,1.2,4.8v0.4c0,0.1,0,0.3,0,0.4H113c0.1,1.4,0.5,2.7,1.2,3.8c0.7,1.1,1.6,2,2.7,2.7c1.1,0.7,2.3,1,3.6,1
		s2.5-0.3,3.7-1s2-1.5,2.4-2.6l1.6,0.4c-0.4,0.9-0.9,1.7-1.7,2.4s-1.7,1.2-2.7,1.6C122.6,472.2,121.5,472.4,120.3,472.4L120.3,472.4
		z M112.9,462h14.8c-0.1-1.5-0.5-2.8-1.2-3.9s-1.6-2-2.7-2.6c-1.1-0.6-2.3-1-3.6-1s-2.5,0.3-3.6,1c-1.1,0.6-2,1.5-2.6,2.6
		S113,460.5,112.9,462z"/>
	<path class="st0" d="M143.1,472v-25.6h1.8V472H143.1z"/>
	<path class="st0" d="M166.4,472h-1.8v-10.4c0-2.4-0.3-4.1-1-5.2c-0.7-1.1-1.8-1.7-3.3-1.7c-1.1,0-2.1,0.2-3.1,0.8s-1.9,1.2-2.7,2.1
		c-0.8,0.9-1.3,1.9-1.6,3V472h-1.8v-18.7h1.7v4.5c0.5-1,1.2-1.8,2-2.5c0.8-0.7,1.8-1.3,2.8-1.7s2.1-0.6,3.2-0.6c1,0,1.9,0.2,2.6,0.6
		s1.3,0.9,1.7,1.6c0.4,0.7,0.8,1.5,0.9,2.6s0.3,2.2,0.3,3.5L166.4,472L166.4,472z"/>
	<path class="st0" d="M187.2,472h-1.8v-10.4c0-2.4-0.3-4.1-1-5.2c-0.7-1.1-1.8-1.7-3.3-1.7c-1.1,0-2.1,0.2-3.1,0.8s-1.9,1.2-2.7,2.1
		c-0.8,0.9-1.3,1.9-1.6,3V472h-1.8v-18.7h1.7v4.5c0.5-1,1.2-1.8,2-2.5c0.8-0.7,1.8-1.3,2.8-1.7s2.1-0.6,3.2-0.6c1,0,1.9,0.2,2.6,0.6
		s1.3,0.9,1.7,1.6c0.4,0.7,0.8,1.5,0.9,2.6s0.3,2.2,0.3,3.5L187.2,472L187.2,472z"/>
	<path class="st0" d="M200.3,466.6c0-1.1,0.3-2.1,1-2.9c0.7-0.8,1.6-1.5,2.8-1.9c1.2-0.5,2.5-0.7,4.1-0.7c1,0,2,0.1,3,0.2
		s2,0.4,2.8,0.7v-1.8c0-1.7-0.5-3.1-1.5-4.1c-1-1-2.4-1.5-4.1-1.5c-0.9,0-1.9,0.2-2.9,0.6c-1,0.4-2,0.9-3.1,1.7l-0.8-1.3
		c1.2-0.8,2.4-1.4,3.6-1.9s2.3-0.6,3.4-0.6c2.2,0,4,0.7,5.3,2s1.9,3.1,1.9,5.4v9.2c0,0.3,0.1,0.5,0.2,0.6c0.1,0.1,0.3,0.2,0.6,0.2
		v1.5c-0.2,0-0.4,0-0.5,0h-0.4c-0.5-0.1-0.8-0.3-1.1-0.6c-0.2-0.3-0.4-0.7-0.4-1V469c-0.9,1.1-2,1.9-3.3,2.5s-2.8,0.9-4.3,0.9
		c-1.2,0-2.2-0.2-3.2-0.8s-1.7-1.2-2.2-2.1S200.3,467.7,200.3,466.6L200.3,466.6z M213.2,468.2c0.2-0.3,0.4-0.6,0.5-0.9
		s0.2-0.5,0.2-0.8v-3.1c-0.9-0.3-1.8-0.6-2.7-0.8s-1.9-0.2-2.9-0.2c-1.9,0-3.4,0.4-4.6,1.1s-1.8,1.8-1.8,3c0,0.8,0.2,1.5,0.6,2.2
		s1,1.2,1.7,1.6c0.7,0.4,1.6,0.6,2.5,0.6c1.3,0,2.6-0.3,3.7-0.8C211.8,469.6,212.6,469,213.2,468.2L213.2,468.2z"/>
	<path class="st0" d="M229.4,471.3c-0.1,0-0.4,0.2-0.7,0.4c-0.4,0.2-0.8,0.4-1.4,0.5s-1.2,0.2-1.8,0.2s-1.2-0.1-1.8-0.4
		c-0.6-0.2-1-0.6-1.4-1.1c-0.3-0.5-0.5-1.1-0.5-1.9v-14.2h-2.6v-1.5h2.6v-6.4h1.8v6.4h4.4v1.5h-4.4v13.8c0.1,0.7,0.3,1.2,0.8,1.6
		c0.5,0.4,1,0.5,1.6,0.5c0.7,0,1.4-0.1,1.9-0.4s0.9-0.4,1-0.5L229.4,471.3L229.4,471.3z"/>
	<path class="st0" d="M262.1,446.5V472h-1.8v-12.2h-16.1V472h-1.8v-25.6h1.8v11.7h16.1v-11.7H262.1z"/>
	<path class="st0" d="M266.5,466.6c0-1.1,0.3-2.1,1-2.9c0.7-0.8,1.6-1.5,2.8-1.9s2.5-0.7,4.1-0.7c1,0,2,0.1,3,0.2s2,0.4,2.8,0.7
		v-1.8c0-1.7-0.5-3.1-1.5-4.1c-1-1-2.4-1.5-4.1-1.5c-0.9,0-1.9,0.2-2.9,0.6s-2,0.9-3.1,1.7l-0.8-1.3c1.2-0.8,2.4-1.4,3.5-1.9
		c1.1-0.4,2.3-0.6,3.4-0.6c2.2,0,4,0.7,5.3,2s1.9,3.1,1.9,5.4v9.2c0,0.3,0.1,0.5,0.2,0.6c0.1,0.1,0.3,0.2,0.6,0.2v1.5
		c-0.2,0-0.4,0-0.5,0h-0.4c-0.5-0.1-0.8-0.3-1.1-0.6c-0.2-0.3-0.4-0.7-0.4-1V469c-0.9,1.1-2,1.9-3.3,2.5c-1.4,0.6-2.8,0.9-4.3,0.9
		c-1.2,0-2.2-0.2-3.2-0.8s-1.7-1.2-2.2-2.1S266.5,467.7,266.5,466.6L266.5,466.6z M279.4,468.2c0.2-0.3,0.4-0.6,0.5-0.9
		s0.2-0.5,0.2-0.8v-3.1c-0.9-0.3-1.8-0.6-2.7-0.8s-1.9-0.2-2.9-0.2c-1.9,0-3.4,0.4-4.5,1.1c-1.2,0.7-1.8,1.8-1.8,3
		c0,0.8,0.2,1.5,0.6,2.2c0.4,0.7,1,1.2,1.7,1.6s1.6,0.6,2.5,0.6c1.3,0,2.6-0.3,3.7-0.8C278,469.6,278.9,469,279.4,468.2z"/>
	<path class="st0" d="M293.3,472.4c-1.5,0-2.9-0.2-4.1-0.8c-1.3-0.5-2.4-1.3-3.4-2.3l0.8-1.3c1,1,2.1,1.7,3.1,2.1
		c1.1,0.4,2.2,0.7,3.5,0.7c1.6,0,2.9-0.3,3.9-1s1.5-1.6,1.5-2.8c0-0.8-0.2-1.4-0.7-1.9s-1.1-0.8-2-1.1c-0.9-0.3-1.9-0.6-3.2-0.9
		c-1.3-0.3-2.4-0.7-3.2-1c-0.9-0.4-1.5-0.8-2-1.4s-0.6-1.4-0.6-2.3c0-1.2,0.3-2.2,0.9-3c0.6-0.8,1.4-1.4,2.5-1.8s2.2-0.6,3.5-0.6
		c1.5,0,2.7,0.2,3.8,0.7s1.9,1.1,2.5,1.9l-1,1.1c-0.6-0.8-1.4-1.3-2.3-1.7s-2-0.6-3.2-0.6c-0.9,0-1.7,0.1-2.5,0.4
		c-0.8,0.2-1.4,0.6-1.9,1.2c-0.5,0.5-0.7,1.3-0.7,2.2c0,0.7,0.2,1.3,0.5,1.7s0.9,0.7,1.6,1s1.6,0.5,2.6,0.8c1.5,0.4,2.7,0.7,3.8,1.1
		c1.1,0.4,1.9,0.9,2.5,1.5c0.6,0.6,0.9,1.5,0.9,2.6c0,1.7-0.6,3-1.9,4C297.2,471.9,295.4,472.4,293.3,472.4L293.3,472.4z"/>
	<path class="st0" d="M313,471.3c-0.1,0-0.4,0.2-0.7,0.4c-0.4,0.2-0.8,0.4-1.4,0.5c-0.5,0.2-1.2,0.2-1.8,0.2s-1.2-0.1-1.8-0.4
		c-0.6-0.2-1-0.6-1.4-1.1s-0.5-1.1-0.5-1.9v-14.2h-2.6v-1.5h2.6v-6.4h1.8v6.4h4.4v1.5h-4.4v13.8c0,0.7,0.3,1.2,0.8,1.6
		c0.5,0.4,1,0.5,1.6,0.5c0.7,0,1.4-0.1,1.9-0.4s0.9-0.4,1-0.5L313,471.3L313,471.3z"/>
	<path class="st0" d="M316.2,449v-3.3h1.8v3.3H316.2z M316.2,472v-18.7h1.8V472H316.2z"/>
	<path class="st0" d="M338.9,472h-1.8v-10.4c0-2.4-0.3-4.1-1-5.2c-0.7-1.1-1.8-1.7-3.3-1.7c-1.1,0-2.1,0.2-3.1,0.8s-1.9,1.2-2.7,2.1
		c-0.8,0.9-1.3,1.9-1.6,3V472h-1.8v-18.7h1.7v4.5c0.5-1,1.2-1.8,2-2.5s1.8-1.3,2.8-1.7s2.1-0.6,3.2-0.6c1,0,1.9,0.2,2.6,0.6
		s1.3,0.9,1.7,1.6c0.4,0.7,0.8,1.5,1,2.6s0.3,2.2,0.3,3.5L338.9,472L338.9,472z"/>
	<path class="st0" d="M351.9,472.4c-1.3,0-2.5-0.3-3.5-0.8c-1.1-0.5-2-1.2-2.8-2.2c-0.8-0.9-1.4-2-1.8-3.1c-0.4-1.1-0.7-2.3-0.7-3.5
		s0.2-2.5,0.6-3.7s1-2.2,1.8-3.1s1.7-1.6,2.8-2.1c1.1-0.5,2.2-0.8,3.5-0.8c1.6,0,3,0.4,4.3,1.3c1.2,0.8,2.2,1.9,3.1,3.1v-4.1h1.7v19
		c0,1.7-0.4,3.1-1.2,4.2c-0.8,1.1-1.9,2-3.2,2.6s-2.8,0.8-4.4,0.8c-2.2,0-3.9-0.4-5.2-1.2s-2.3-1.8-3.1-3.1l1.2-0.8
		c0.7,1.2,1.8,2.2,3,2.8c1.3,0.6,2.6,0.9,4.1,0.9c1.3,0,2.4-0.2,3.5-0.7s1.9-1.1,2.6-2.1c0.6-0.9,1-2,1-3.4v-4.1
		c-0.7,1.2-1.8,2.2-3,2.9C354.7,472,353.3,472.4,351.9,472.4L351.9,472.4z M352.4,470.8c0.8,0,1.6-0.1,2.3-0.4s1.4-0.7,2-1.2
		c0.6-0.5,1.1-1,1.5-1.6c0.4-0.6,0.6-1.2,0.7-1.8v-6.2c-0.4-1-0.9-1.8-1.6-2.6c-0.7-0.8-1.5-1.3-2.5-1.8c-0.9-0.4-1.9-0.6-2.8-0.6
		c-1.1,0-2.1,0.2-3,0.7c-0.9,0.5-1.6,1.1-2.2,1.9c-0.6,0.8-1.1,1.7-1.4,2.6s-0.5,1.9-0.5,2.9c0,1.1,0.2,2.1,0.6,3.1
		c0.4,1,0.9,1.8,1.6,2.6c0.7,0.8,1.5,1.3,2.4,1.8S351.3,470.8,352.4,470.8L352.4,470.8z"/>
	<path class="st0" d="M372.3,472.4c-1.5,0-2.9-0.2-4.1-0.8c-1.3-0.5-2.4-1.3-3.4-2.3l0.8-1.3c1,1,2.1,1.7,3.1,2.1
		c1.1,0.4,2.2,0.7,3.5,0.7c1.6,0,2.9-0.3,3.9-1s1.5-1.6,1.5-2.8c0-0.8-0.2-1.4-0.7-1.9s-1.1-0.8-2-1.1c-0.9-0.3-1.9-0.6-3.2-0.9
		c-1.3-0.3-2.4-0.7-3.2-1c-0.9-0.4-1.5-0.8-2-1.4s-0.6-1.4-0.6-2.3c0-1.2,0.3-2.2,0.9-3c0.6-0.8,1.4-1.4,2.5-1.8s2.2-0.6,3.5-0.6
		c1.5,0,2.7,0.2,3.8,0.7s1.9,1.1,2.5,1.9l-1,1.1c-0.6-0.8-1.4-1.3-2.3-1.7s-2-0.6-3.2-0.6c-0.9,0-1.7,0.1-2.5,0.4
		c-0.8,0.2-1.4,0.6-1.9,1.2c-0.5,0.5-0.7,1.3-0.7,2.2c0,0.7,0.2,1.3,0.5,1.7s0.9,0.7,1.6,1s1.6,0.5,2.6,0.8c1.5,0.4,2.7,0.7,3.8,1.1
		c1.1,0.4,1.9,0.9,2.5,1.5c0.6,0.6,0.9,1.5,0.9,2.6c0,1.7-0.6,3-1.9,4C376.1,471.9,374.4,472.4,372.3,472.4L372.3,472.4z"/>
	<path class="st0" d="M393.4,472v-25.6H404c1.1,0,2.1,0.2,3,0.7s1.7,1.1,2.4,1.8c0.7,0.8,1.2,1.6,1.6,2.5c0.4,0.9,0.6,1.9,0.6,2.9
		c0,1.4-0.3,2.7-0.9,3.9c-0.6,1.2-1.5,2.2-2.5,3c-1.1,0.8-2.3,1.1-3.8,1.1h-8.9v9.6H393.4z M395.3,460.7h8.8c1.1,0,2.1-0.3,2.9-0.9
		s1.4-1.4,1.9-2.3s0.6-2,0.6-3.1s-0.3-2.2-0.8-3.1c-0.5-1-1.2-1.7-2-2.3c-0.9-0.6-1.8-0.9-2.8-0.9h-8.6L395.3,460.7L395.3,460.7z"/>
	<path class="st0" d="M413.5,466.6c0-1.1,0.3-2.1,1-2.9c0.7-0.8,1.6-1.5,2.8-1.9s2.5-0.7,4.1-0.7c1,0,2,0.1,3,0.2s2,0.4,2.8,0.7
		v-1.8c0-1.7-0.5-3.1-1.5-4.1c-1-1-2.4-1.5-4.1-1.5c-0.9,0-1.9,0.2-2.9,0.6s-2,0.9-3.1,1.7l-0.8-1.3c1.2-0.8,2.4-1.4,3.5-1.9
		c1.1-0.4,2.3-0.6,3.4-0.6c2.2,0,4,0.7,5.3,2s1.9,3.1,1.9,5.4v9.2c0,0.3,0.1,0.5,0.2,0.6c0.1,0.1,0.3,0.2,0.6,0.2v1.5
		c-0.2,0-0.4,0-0.5,0h-0.4c-0.5-0.1-0.8-0.3-1.1-0.6c-0.2-0.3-0.4-0.7-0.4-1V469c-0.9,1.1-2,1.9-3.3,2.5c-1.4,0.6-2.8,0.9-4.3,0.9
		c-1.2,0-2.2-0.2-3.2-0.8s-1.7-1.2-2.2-2.1S413.5,467.7,413.5,466.6L413.5,466.6z M426.4,468.2c0.2-0.3,0.4-0.6,0.5-0.9
		s0.2-0.5,0.2-0.8v-3.1c-0.9-0.3-1.8-0.6-2.7-0.8s-1.9-0.2-2.9-0.2c-1.9,0-3.4,0.4-4.5,1.1c-1.2,0.7-1.8,1.8-1.8,3
		c0,0.8,0.2,1.5,0.6,2.2c0.4,0.7,1,1.2,1.7,1.6s1.6,0.6,2.5,0.6c1.3,0,2.6-0.3,3.7-0.8C425,469.6,425.8,469,426.4,468.2z"/>
	<path class="st0" d="M443.3,454.9c-1.7,0-3.1,0.5-4.4,1.5c-1.3,1-2.1,2.2-2.6,3.9V472h-1.8v-18.7h1.7v4.6c0.6-1.3,1.5-2.4,2.6-3.2
		s2.2-1.3,3.4-1.4c0.2,0,0.5,0,0.6,0h0.5L443.3,454.9L443.3,454.9z"/>
	<path class="st0" d="M460.2,472l-7.3-10l-4.4,4.1v5.9h-1.8v-26.3h1.8v18.3l11.4-10.7h2l-7.8,7.6l8.1,11.1H460.2L460.2,472z"/>
</g>
<g>
	<path class="st1" d="M284.6,266.5c0.8,0,1.6-0.3,2.2-0.9l74.7-76c1.2-1.2,1.2-3.1,0-4.3l-11.3-11.2c-0.6-0.6-1.4-0.9-2.2-0.9
		c-0.8,0-1.6,0.3-2.1,0.9l-62,62.9l-12.6-11c-0.6-0.5-1.4-0.8-2.2-0.7c-0.8,0.1-1.6,0.5-2.1,1.1l-10.6,12.9
		c-1.1,1.3-0.9,3.2,0.4,4.2l25.9,22.2C283.2,266.3,283.9,266.5,284.6,266.5L284.6,266.5z M269.7,232.7l12.4,10.8
		c1.2,1.1,3,1,4.2-0.2l61.8-62.7l7,6.9l-70.6,71.8L263,240.9L269.7,232.7L269.7,232.7z"/>
	<path class="st1" d="M233.4,250h-89.3V146.4h180.8v31.8c0,1.8,1.5,3.3,3.3,3.3s3.3-1.5,3.3-3.3v-33.6c0.2-0.4,0.4-0.9,0.4-1.5
		s-0.1-1-0.4-1.5v-38.5c0-1.8-1.5-3.3-3.3-3.3h-26.6V87.5c0-1.8-1.5-3.3-3.3-3.3s-3.3,1.5-3.3,3.3V100H259V87.5
		c0-1.8-1.5-3.3-3.3-3.3s-3.3,1.5-3.3,3.3V100h-35.6V87.5c0-1.8-1.5-3.3-3.3-3.3s-3.3,1.5-3.3,3.3V100h-36.5V87.5
		c0-1.8-1.5-3.3-3.3-3.3s-3.3,1.5-3.3,3.3V100h-26.4c-1.8,0-3.3,1.5-3.3,3.3v150.1c0,1.8,1.5,3.3,3.3,3.3h92.6
		c1.8,0,3.3-1.5,3.3-3.3S235.3,250,233.4,250L233.4,250z M167.2,106.5v6.2c0,1.8,1.5,3.3,3.3,3.3s3.3-1.5,3.3-3.3v-6.2h36.5v6.2
		c0,1.8,1.5,3.3,3.3,3.3s3.3-1.5,3.3-3.3v-6.2h35.7v6.2c0,1.8,1.5,3.3,3.3,3.3c1.8,0,3.3-1.5,3.3-3.3v-6.2H295v6.2
		c0,1.8,1.5,3.3,3.3,3.3s3.3-1.5,3.3-3.3v-6.2h23.3v33.4H144.1v-33.4H167.2z"/>
	<path class="st1" d="M252.4,183.8c1.8,0,3.3-1.5,3.3-3.3v-23.9c0-1.8-1.5-3.3-3.3-3.3s-3.3,1.5-3.3,3.3v20.6H220v-20.6
		c0-1.8-1.5-3.3-3.3-3.3s-3.3,1.5-3.3,3.3v20.6h-28.7v-20.6c0-1.8-1.5-3.3-3.3-3.3s-3.3,1.5-3.3,3.3v20.6h-21.1
		c-1.8,0-3.3,1.5-3.3,3.3s1.5,3.3,3.3,3.3h21.1v25.6h-21.1c-1.8,0-3.3,1.5-3.3,3.3s1.5,3.3,3.3,3.3h21.1v23.3c0,1.8,1.5,3.3,3.3,3.3
		s3.3-1.5,3.3-3.3V216h28.7v23.3c0,1.8,1.5,3.3,3.3,3.3s3.3-1.5,3.3-3.3V216h12c1.8,0,3.3-1.5,3.3-3.3s-1.5-3.3-3.3-3.3h-12v-25.6
		L252.4,183.8L252.4,183.8z M213.5,209.5h-28.7v-25.6h28.7V209.5z"/>
</g>
</svg>
