<?xml version="1.0" encoding="utf-8"?>
<!-- Generator: Adobe Illustrator 26.5.0, SVG Export Plug-In . SVG Version: 6.00 Build 0)  -->
<svg version="1.1" id="Capa_1" xmlns="http://www.w3.org/2000/svg" xmlns:xlink="http://www.w3.org/1999/xlink" x="0px" y="0px"
	 viewBox="0 0 500 500" style="enable-background:new 0 0 500 500;" xml:space="preserve">
<style type="text/css">
	.st0{fill:#385072;}
	.st1{fill:#FFFFFF;}
</style>
<path class="st0" d="M449,32.8H47.6c-6.6,0-12,5.4-12,12V306c0,6.6,5.4,12,12,12h402.6c6.6,0,12-5.4,12-12V45.9
	C462.2,38.7,456.3,32.8,449,32.8z"/>
<g>
	<path class="st0" d="M46.8,385.9v-25.6h10.6c1.1,0,2.1,0.2,3,0.7s1.7,1.1,2.3,1.8s1.2,1.6,1.6,2.5s0.6,1.9,0.6,2.9
		c0,1.3-0.2,2.5-0.8,3.6c-0.5,1.1-1.2,2-2.1,2.8s-2,1.2-3.2,1.4l6.4,9.9h-2.1l-6.2-9.6h-8.3v9.6L46.8,385.9L46.8,385.9z M48.6,374.6
		h9c1.1,0,2.1-0.3,2.9-0.9s1.5-1.4,1.9-2.3s0.7-2,0.7-3.1s-0.3-2.1-0.8-3.1s-1.2-1.7-2-2.3c-0.8-0.6-1.8-0.9-2.9-0.9h-8.7
		L48.6,374.6L48.6,374.6z"/>
	<path class="st0" d="M77,386.3c-1.3,0-2.5-0.3-3.7-0.8c-1.1-0.5-2.1-1.2-2.9-2.1s-1.5-1.9-1.9-3.1c-0.5-1.2-0.7-2.4-0.7-3.8
		c0-1.8,0.4-3.4,1.2-4.8s1.9-2.6,3.3-3.5s2.9-1.3,4.7-1.3s3.3,0.4,4.7,1.3c1.4,0.9,2.4,2,3.3,3.5c0.8,1.5,1.2,3,1.2,4.8v0.4
		c0,0.1,0,0.3,0,0.4H69.6c0.1,1.4,0.5,2.7,1.2,3.8c0.7,1.1,1.6,2,2.7,2.7s2.3,1,3.6,1s2.5-0.3,3.7-1s2-1.5,2.4-2.6l1.6,0.4
		c-0.4,0.9-0.9,1.7-1.7,2.4s-1.7,1.2-2.7,1.6C79.2,386.1,78.1,386.3,77,386.3L77,386.3z M69.5,375.9h14.8c-0.1-1.5-0.5-2.8-1.2-3.9
		s-1.6-2-2.7-2.6s-2.3-1-3.6-1s-2.5,0.3-3.6,1c-1.1,0.6-2,1.5-2.6,2.6S69.6,374.5,69.5,375.9z"/>
	<path class="st0" d="M88.7,376.6c0-1.8,0.4-3.4,1.1-4.8c0.7-1.5,1.8-2.6,3.1-3.5s2.8-1.3,4.4-1.3s3.1,0.4,4.3,1.3
		c1.3,0.9,2.2,1.9,3,3.1v-11.7h1.8v23.9c0,0.3,0.1,0.5,0.2,0.6s0.3,0.2,0.6,0.2v1.5c-0.4,0-0.7,0.1-0.9,0c-0.4-0.1-0.8-0.3-1.1-0.6
		c-0.3-0.3-0.4-0.7-0.4-1.1v-2.1c-0.8,1.2-1.8,2.2-3.1,3s-2.6,1.1-4,1.1c-1.3,0-2.5-0.3-3.6-0.8s-2.1-1.3-2.9-2.2s-1.4-1.9-1.9-3.1
		C88.9,379.1,88.7,377.9,88.7,376.6L88.7,376.6z M104.6,379.6v-6.1c-0.3-0.9-0.9-1.7-1.6-2.5s-1.6-1.4-2.5-1.8s-1.9-0.7-2.8-0.7
		c-1.1,0-2.1,0.2-2.9,0.7c-0.9,0.5-1.6,1.1-2.3,1.8s-1.1,1.6-1.5,2.6s-0.5,2-0.5,3s0.2,2.1,0.6,3s0.9,1.8,1.6,2.6s1.5,1.3,2.4,1.8
		c0.9,0.4,1.9,0.6,2.9,0.6c0.7,0,1.3-0.1,2.1-0.4s1.4-0.6,2.1-1.1s1.2-1,1.7-1.6C104.3,381,104.6,380.3,104.6,379.6L104.6,379.6z"/>
	<path class="st0" d="M120.1,386.3c-1.3,0-2.5-0.3-3.7-0.8c-1.1-0.5-2.1-1.2-2.9-2.1s-1.5-1.9-1.9-3.1s-0.7-2.4-0.7-3.8
		c0-1.8,0.4-3.4,1.2-4.8s1.9-2.6,3.3-3.5s2.9-1.3,4.7-1.3s3.3,0.4,4.7,1.3c1.4,0.9,2.4,2,3.3,3.5c0.8,1.5,1.2,3,1.2,4.8v0.4
		c0,0.1,0,0.3,0,0.4h-16.4c0.1,1.4,0.5,2.7,1.2,3.8c0.7,1.1,1.6,2,2.7,2.7s2.3,1,3.6,1s2.5-0.3,3.7-1s2-1.5,2.4-2.6l1.6,0.4
		c-0.4,0.9-0.9,1.7-1.7,2.4s-1.7,1.2-2.7,1.6C122.4,386.1,121.3,386.3,120.1,386.3L120.1,386.3z M112.7,375.9h14.8
		c-0.1-1.5-0.5-2.8-1.2-3.9s-1.6-2-2.7-2.6s-2.3-1-3.6-1s-2.5,0.3-3.6,1s-2,1.5-2.6,2.6S112.7,374.5,112.7,375.9z"/>
	<path class="st0" d="M141.1,386.3c-1.3,0-2.5-0.3-3.7-0.8c-1.1-0.5-2.1-1.2-2.9-2.1s-1.5-1.9-1.9-3.1c-0.5-1.2-0.7-2.4-0.7-3.8
		c0-1.8,0.4-3.4,1.2-4.8s1.9-2.6,3.3-3.5c1.4-0.9,2.9-1.3,4.7-1.3s3.4,0.4,4.7,1.3c1.4,0.9,2.4,2,3.3,3.5c0.8,1.5,1.2,3,1.2,4.8v0.4
		c0,0.1,0,0.3,0,0.4h-16.4c0.1,1.4,0.5,2.7,1.2,3.8c0.7,1.1,1.6,2,2.7,2.7s2.3,1,3.6,1s2.5-0.3,3.7-1s2-1.5,2.4-2.6l1.6,0.4
		c-0.4,0.9-0.9,1.7-1.7,2.4c-0.8,0.7-1.7,1.2-2.7,1.6C143.3,386.1,142.2,386.3,141.1,386.3L141.1,386.3z M133.6,375.9h14.8
		c-0.1-1.5-0.5-2.8-1.1-3.9s-1.6-2-2.6-2.6c-1.1-0.6-2.3-1-3.6-1s-2.5,0.3-3.6,1c-1.1,0.6-2,1.5-2.6,2.6S133.7,374.5,133.6,375.9
		L133.6,375.9z"/>
	<path class="st0" d="M181.6,385.9h-1.8v-10.4c0-2.4-0.4-4.1-1.1-5.2c-0.7-1.1-1.9-1.7-3.4-1.7s-2.9,0.5-4.1,1.6s-2,2.5-2.5,4.2
		v11.5H167v-10.4c0-2.4-0.4-4.1-1.1-5.2s-1.8-1.7-3.4-1.7s-2.9,0.5-4.1,1.6s-2,2.5-2.5,4.2v11.5h-1.8v-18.7h1.7v4.5
		c0.8-1.5,1.8-2.7,3.1-3.5c1.2-0.8,2.6-1.2,4.1-1.2s2.8,0.5,3.8,1.4s1.6,2.1,1.8,3.7c0.9-1.7,1.9-2.9,3.2-3.8
		c1.2-0.9,2.6-1.3,4.2-1.3c1,0,1.9,0.2,2.6,0.6s1.3,0.9,1.8,1.6s0.8,1.6,1,2.6s0.3,2.2,0.3,3.5L181.6,385.9L181.6,385.9z"/>
	<path class="st0" d="M196.9,385.9v-25.6h10.5c1.1,0,2.1,0.2,3,0.7s1.7,1.1,2.4,1.8s1.2,1.6,1.6,2.5c0.4,0.9,0.6,1.9,0.6,2.9
		c0,1.4-0.3,2.7-0.9,3.9s-1.4,2.2-2.5,3s-2.3,1.1-3.8,1.1h-8.9v9.6h-2L196.9,385.9L196.9,385.9z M198.7,374.6h8.8
		c1.1,0,2.1-0.3,2.9-0.9c0.8-0.6,1.4-1.4,1.9-2.3s0.6-2,0.6-3.1s-0.3-2.2-0.8-3.1c-0.5-1-1.2-1.7-2.1-2.3c-0.9-0.6-1.8-0.9-2.8-0.9
		h-8.6L198.7,374.6L198.7,374.6z"/>
	<path class="st0" d="M226.2,386.3c-1.3,0-2.5-0.2-3.6-0.8c-1.1-0.5-2.1-1.2-2.9-2.1c-0.8-0.9-1.4-1.9-1.9-3.1s-0.7-2.4-0.7-3.7
		s0.2-2.5,0.7-3.7s1.1-2.2,1.9-3.1s1.8-1.6,2.9-2.1c1.1-0.5,2.3-0.8,3.6-0.8s2.5,0.3,3.6,0.8s2.1,1.2,2.9,2.1s1.5,1.9,1.9,3.1
		s0.7,2.4,0.7,3.7s-0.2,2.5-0.7,3.7s-1.1,2.2-1.9,3.1s-1.8,1.6-2.9,2.1S227.5,386.3,226.2,386.3L226.2,386.3z M218.9,376.7
		c0,1.5,0.3,2.8,1,4s1.5,2.2,2.6,2.9c1.1,0.7,2.3,1.1,3.7,1.1s2.6-0.4,3.7-1.1s2-1.7,2.7-2.9s1-2.6,1-4s-0.3-2.8-1-4
		s-1.6-2.2-2.7-2.9c-1.1-0.7-2.3-1.1-3.6-1.1s-2.6,0.4-3.7,1.1c-1.1,0.7-2,1.7-2.7,2.9S218.9,375.2,218.9,376.7L218.9,376.7z"/>
	<path class="st0" d="M239.6,363v-3.3h1.8v3.3H239.6z M239.6,385.9v-18.7h1.8v18.7H239.6z"/>
	<path class="st0" d="M262.4,385.9h-1.8v-10.4c0-2.4-0.3-4.1-1-5.2s-1.8-1.7-3.3-1.7c-1.1,0-2.1,0.2-3.1,0.8s-1.9,1.2-2.7,2.1
		s-1.3,1.9-1.6,3V386h-1.8v-18.7h1.7v4.5c0.5-1,1.2-1.8,2-2.5s1.8-1.3,2.8-1.7s2.1-0.6,3.2-0.6c1,0,1.9,0.2,2.6,0.6s1.3,0.9,1.7,1.6
		s0.8,1.5,1,2.6c0.2,1,0.3,2.2,0.3,3.5L262.4,385.9L262.4,385.9z"/>
	<path class="st0" d="M276,385.2c-0.1,0-0.4,0.2-0.7,0.4c-0.4,0.2-0.8,0.4-1.4,0.5c-0.5,0.2-1.2,0.2-1.8,0.2s-1.2-0.1-1.8-0.4
		c-0.6-0.2-1-0.6-1.4-1.1s-0.5-1.1-0.5-1.9v-14.2h-2.6v-1.5h2.6v-6.4h1.8v6.4h4.4v1.5h-4.4v13.8c0,0.7,0.3,1.2,0.8,1.6
		s1,0.5,1.6,0.5c0.7,0,1.4-0.1,1.9-0.4s0.9-0.4,1-0.5L276,385.2L276,385.2z"/>
	<path class="st0" d="M285.1,386.3c-1.5,0-2.9-0.2-4.1-0.8c-1.3-0.5-2.4-1.3-3.4-2.3l0.8-1.3c1,1,2.1,1.7,3.1,2.1
		c1.1,0.4,2.2,0.7,3.5,0.7c1.6,0,2.9-0.3,3.9-1s1.5-1.6,1.5-2.8c0-0.8-0.2-1.4-0.7-1.9s-1.1-0.8-2-1.1c-0.9-0.3-1.9-0.6-3.2-0.9
		c-1.3-0.3-2.4-0.7-3.2-1c-0.9-0.4-1.5-0.8-2-1.4s-0.6-1.4-0.6-2.3c0-1.2,0.3-2.2,0.9-3s1.4-1.4,2.5-1.8s2.2-0.6,3.5-0.6
		c1.5,0,2.7,0.2,3.8,0.7s1.9,1.1,2.5,1.9l-1,1.1c-0.6-0.8-1.4-1.3-2.3-1.7s-2-0.6-3.2-0.6c-0.9,0-1.7,0.1-2.5,0.4
		c-0.8,0.2-1.4,0.6-1.9,1.2c-0.5,0.5-0.7,1.3-0.7,2.2c0,0.7,0.2,1.3,0.5,1.7s0.9,0.7,1.6,1s1.6,0.5,2.6,0.8c1.5,0.4,2.7,0.7,3.8,1.1
		c1.1,0.4,1.9,0.9,2.5,1.5s0.9,1.5,0.9,2.6c0,1.7-0.6,3-1.9,4C288.9,385.8,287.2,386.3,285.1,386.3L285.1,386.3z"/>
	<path class="st0" d="M314,385.2c-0.1,0-0.4,0.2-0.7,0.4c-0.4,0.2-0.8,0.4-1.4,0.5c-0.5,0.2-1.2,0.2-1.8,0.2s-1.2-0.1-1.8-0.4
		c-0.6-0.2-1-0.6-1.4-1.1s-0.5-1.1-0.5-1.9v-14.2h-2.6v-1.5h2.6v-6.4h1.8v6.4h4.4v1.5h-4.4v13.8c0,0.7,0.3,1.2,0.8,1.6
		s1,0.5,1.6,0.5c0.7,0,1.4-0.1,1.9-0.4s0.9-0.4,1-0.5L314,385.2L314,385.2z"/>
	<path class="st0" d="M324.7,386.3c-1.3,0-2.5-0.2-3.6-0.8c-1.1-0.5-2.1-1.2-2.9-2.1s-1.5-1.9-1.9-3.1s-0.7-2.4-0.7-3.7
		s0.2-2.5,0.7-3.7s1.1-2.2,1.9-3.1s1.8-1.6,2.9-2.1s2.3-0.8,3.6-0.8s2.5,0.3,3.6,0.8s2.1,1.2,2.9,2.1s1.5,1.9,1.9,3.1
		c0.5,1.2,0.7,2.4,0.7,3.7s-0.2,2.5-0.7,3.7s-1.1,2.2-1.9,3.1s-1.8,1.6-2.9,2.1S326,386.3,324.7,386.3L324.7,386.3z M317.3,376.7
		c0,1.5,0.3,2.8,1,4s1.5,2.2,2.6,2.9c1.1,0.7,2.3,1.1,3.7,1.1s2.6-0.4,3.7-1.1s2-1.7,2.7-2.9s1-2.6,1-4s-0.3-2.8-1-4
		s-1.5-2.2-2.7-2.9c-1.1-0.7-2.3-1.1-3.6-1.1s-2.6,0.4-3.7,1.1s-2,1.7-2.7,2.9S317.3,375.2,317.3,376.7L317.3,376.7z"/>
	<path class="st0" d="M356.5,386.3c-1.6,0-3-0.4-4.3-1.3s-2.3-1.9-3-3.1v11.7h-1.8v-26.4h1.7v3.8c0.8-1.2,1.8-2.2,3.1-2.9
		s2.6-1.1,4-1.1c1.3,0,2.5,0.3,3.6,0.8s2,1.3,2.8,2.2c0.8,0.9,1.4,2,1.9,3.1c0.4,1.1,0.7,2.3,0.7,3.6c0,1.7-0.4,3.3-1.1,4.8
		s-1.7,2.6-3,3.5S358.3,386.3,356.5,386.3L356.5,386.3z M356.1,384.7c1.1,0,2.1-0.2,3-0.7s1.6-1.1,2.2-1.8c0.6-0.8,1.1-1.6,1.4-2.6
		s0.5-1.9,0.5-2.9c0-1.1-0.2-2.1-0.6-3.1s-0.9-1.8-1.6-2.6s-1.5-1.3-2.4-1.8s-1.9-0.7-2.9-0.7c-0.6,0-1.3,0.1-2.1,0.4
		s-1.4,0.6-2.1,1.1s-1.2,1-1.6,1.6s-0.7,1.2-0.8,1.9v6.1c0.4,0.9,1,1.7,1.7,2.5s1.5,1.4,2.4,1.8S355.1,384.7,356.1,384.7
		L356.1,384.7z"/>
	<path class="st0" d="M367.9,380.5c0-1.1,0.3-2.1,1-2.9s1.6-1.5,2.8-1.9s2.5-0.7,4.1-0.7c1,0,2,0.1,3,0.2s2,0.4,2.8,0.7v-1.8
		c0-1.7-0.5-3.1-1.5-4.1s-2.4-1.5-4.1-1.5c-0.9,0-1.9,0.2-2.9,0.6s-2,0.9-3.1,1.7l-0.8-1.3c1.2-0.8,2.4-1.4,3.5-1.9
		c1.1-0.4,2.3-0.6,3.4-0.6c2.2,0,4,0.7,5.3,2s1.9,3.1,1.9,5.4v9.2c0,0.3,0.1,0.5,0.2,0.6s0.3,0.2,0.6,0.2v1.5c-0.2,0-0.4,0-0.5,0
		h-0.4c-0.5-0.1-0.8-0.3-1.1-0.6c-0.2-0.3-0.4-0.7-0.4-1v-1.5c-0.9,1.1-2,1.9-3.3,2.5c-1.4,0.6-2.8,0.9-4.3,0.9
		c-1.2,0-2.2-0.2-3.2-0.8s-1.7-1.2-2.2-2.1S367.9,381.6,367.9,380.5L367.9,380.5z M380.8,382.1c0.2-0.3,0.4-0.6,0.5-0.9
		s0.2-0.5,0.2-0.8v-3.1c-0.9-0.3-1.8-0.6-2.7-0.8s-1.9-0.2-2.9-0.2c-1.9,0-3.4,0.4-4.5,1.1c-1.2,0.7-1.8,1.8-1.8,3
		c0,0.8,0.2,1.5,0.6,2.2s1,1.2,1.7,1.6s1.6,0.6,2.5,0.6c1.3,0,2.6-0.3,3.7-0.8C379.3,383.6,380.2,382.9,380.8,382.1z"/>
	<path class="st0" d="M389.5,392.2c0.4,0,0.7,0,1,0s0.5-0.1,0.7-0.2s0.4-0.3,0.7-0.6s0.5-0.9,0.9-1.8s0.9-2.2,1.6-3.9L386,367h1.9
		l7.4,16.8l6.9-16.8h1.8l-10.3,24.6c-0.1,0.4-0.3,0.7-0.6,1s-0.6,0.5-0.9,0.7c-0.4,0.2-0.8,0.3-1.3,0.3c-0.2,0-0.4,0-0.7,0
		c-0.2,0-0.5,0-0.8,0L389.5,392.2L389.5,392.2z"/>
	<path class="st0" d="M416.8,385.9v-17.2h-2.6v-1.5h2.6v-0.6c0-1.5,0.2-2.8,0.6-3.9s1-1.9,1.8-2.5s1.7-0.9,2.8-0.9
		c0.7,0,1.4,0.1,2.1,0.3c0.7,0.2,1.2,0.5,1.7,0.9l-0.6,1.3c-0.3-0.3-0.7-0.5-1.2-0.7s-1-0.2-1.5-0.2c-1.2,0-2.2,0.5-2.8,1.5
		c-0.7,1-1,2.4-1,4.2v0.6h5.3v1.5h-5.3v17.2L416.8,385.9L416.8,385.9z"/>
	<path class="st0" d="M434.5,386.3c-1.3,0-2.5-0.2-3.6-0.8c-1.1-0.5-2.1-1.2-2.9-2.1s-1.5-1.9-1.9-3.1s-0.7-2.4-0.7-3.7
		s0.2-2.5,0.7-3.7s1.1-2.2,1.9-3.1s1.8-1.6,2.9-2.1s2.3-0.8,3.6-0.8s2.5,0.3,3.6,0.8s2.1,1.2,2.9,2.1s1.5,1.9,1.9,3.1
		c0.5,1.2,0.7,2.4,0.7,3.7s-0.2,2.5-0.7,3.7s-1.1,2.2-1.9,3.1s-1.8,1.6-2.9,2.1S435.8,386.3,434.5,386.3L434.5,386.3z M427.2,376.7
		c0,1.5,0.3,2.8,1,4s1.5,2.2,2.6,2.9c1.1,0.7,2.3,1.1,3.7,1.1s2.6-0.4,3.7-1.1s2-1.7,2.7-2.9s1-2.6,1-4s-0.3-2.8-1-4
		s-1.5-2.2-2.7-2.9c-1.1-0.7-2.3-1.1-3.6-1.1s-2.6,0.4-3.7,1.1s-2,1.7-2.7,2.9S427.2,375.2,427.2,376.7L427.2,376.7z"/>
	<path class="st0" d="M456.8,368.8c-1.7,0-3.1,0.5-4.4,1.5s-2.1,2.2-2.6,3.9v11.7H448v-18.7h1.7v4.6c0.6-1.3,1.5-2.4,2.6-3.2
		s2.2-1.3,3.4-1.4c0.2,0,0.5,0,0.6,0h0.5L456.8,368.8L456.8,368.8z"/>
	<path class="st0" d="M56.8,435.5c0.4,0,0.7,0,1,0s0.5-0.1,0.7-0.2s0.4-0.3,0.7-0.6s0.5-0.9,0.9-1.8s0.9-2.2,1.6-3.9l-8.3-18.7h1.9
		l7.4,16.8l6.9-16.8h1.8L61.2,435c-0.1,0.4-0.3,0.7-0.6,1s-0.6,0.5-0.9,0.7c-0.4,0.2-0.8,0.3-1.3,0.3c-0.2,0-0.4,0-0.7,0
		c-0.2,0-0.5,0-0.8,0L56.8,435.5L56.8,435.5z"/>
	<path class="st0" d="M82.2,429.5c-1.3,0-2.5-0.2-3.7-0.8c-1.1-0.5-2.1-1.2-2.9-2.1s-1.4-1.9-1.9-3.1s-0.7-2.4-0.7-3.7
		s0.2-2.5,0.7-3.7s1.1-2.2,1.9-3.1s1.8-1.6,2.9-2.1s2.3-0.8,3.6-0.8s2.5,0.3,3.6,0.8s2.1,1.2,2.9,2.1s1.5,1.9,1.9,3.1
		c0.5,1.2,0.7,2.4,0.7,3.7s-0.2,2.5-0.7,3.7s-1.1,2.2-1.9,3.1s-1.8,1.6-2.9,2.1C84.7,429.2,83.5,429.5,82.2,429.5z M74.9,419.9
		c0,1.5,0.3,2.8,1,4s1.5,2.2,2.7,2.9c1.1,0.7,2.3,1.1,3.7,1.1s2.6-0.4,3.7-1.1s2-1.7,2.7-2.9s1-2.6,1-4s-0.3-2.8-1-4
		s-1.6-2.2-2.7-2.9c-1.1-0.7-2.3-1.1-3.7-1.1s-2.6,0.4-3.7,1.1s-2,1.7-2.7,2.9C75.2,417,74.9,418.4,74.9,419.9L74.9,419.9z"/>
	<path class="st0" d="M95.5,421.2v-10.8h1.8V421c0,2.3,0.4,4,1.2,5.2s2,1.7,3.6,1.7c1.1,0,2.1-0.2,3-0.7s1.8-1.1,2.6-2
		c0.7-0.9,1.3-1.8,1.7-3v-11.8h1.8v16.3c0,0.3,0.1,0.5,0.2,0.6s0.3,0.2,0.6,0.2v1.5c-0.2,0-0.4,0-0.6,0s-0.2,0-0.3,0
		c-0.4,0-0.7-0.2-1-0.5s-0.4-0.7-0.4-1.1v-2.8c-0.8,1.5-1.9,2.6-3.4,3.5s-3,1.3-4.6,1.3c-2,0-3.5-0.7-4.5-2.1
		C96,426,95.5,423.9,95.5,421.2L95.5,421.2z"/>
	<path class="st0" d="M125.7,412c-1.7,0-3.2,0.5-4.4,1.5c-1.3,1-2.1,2.2-2.7,3.9v11.7h-1.8v-18.7h1.7v4.6c0.7-1.3,1.5-2.4,2.6-3.2
		s2.2-1.3,3.4-1.4c0.2,0,0.5,0,0.7,0h0.5C125.7,410.4,125.7,412,125.7,412z"/>
	<path class="st0" d="M138.3,429.1v-17.2h-2.6v-1.5h2.6v-0.6c0-1.5,0.2-2.8,0.6-3.9s1-1.9,1.8-2.5s1.7-0.9,2.8-0.9
		c0.7,0,1.4,0.1,2.1,0.3c0.7,0.2,1.2,0.5,1.7,0.9l-0.6,1.3c-0.3-0.3-0.7-0.5-1.2-0.7s-1-0.2-1.6-0.2c-1.2,0-2.2,0.5-2.8,1.5
		s-1,2.4-1,4.2v0.6h5.3v1.5h-5.3v17.2L138.3,429.1L138.3,429.1z"/>
	<path class="st0" d="M156.1,429.5c-1.3,0-2.5-0.2-3.6-0.8c-1.1-0.5-2.1-1.2-2.9-2.1c-0.8-0.9-1.4-1.9-1.9-3.1s-0.7-2.4-0.7-3.7
		s0.2-2.5,0.7-3.7s1.1-2.2,1.9-3.1s1.8-1.6,2.9-2.1c1.1-0.5,2.3-0.8,3.6-0.8s2.5,0.3,3.6,0.8s2.1,1.2,2.9,2.1s1.5,1.9,1.9,3.1
		c0.5,1.2,0.7,2.4,0.7,3.7s-0.2,2.5-0.7,3.7s-1.1,2.2-1.9,3.1s-1.8,1.6-2.9,2.1S157.4,429.5,156.1,429.5L156.1,429.5z M148.7,419.9
		c0,1.5,0.3,2.8,1,4s1.5,2.2,2.6,2.9c1.1,0.7,2.3,1.1,3.7,1.1s2.6-0.4,3.7-1.1s2-1.7,2.7-2.9s1-2.6,1-4s-0.3-2.8-1-4
		s-1.6-2.2-2.7-2.9c-1.1-0.7-2.3-1.1-3.6-1.1s-2.6,0.4-3.7,1.1c-1.1,0.7-2,1.7-2.7,2.9S148.7,418.4,148.7,419.9L148.7,419.9z"/>
	<path class="st0" d="M177.4,429.5c-1.3,0-2.5-0.2-3.6-0.8c-1.1-0.5-2.1-1.2-2.9-2.1c-0.8-0.9-1.4-1.9-1.9-3.1s-0.7-2.4-0.7-3.7
		s0.2-2.5,0.7-3.7s1.1-2.2,1.9-3.1s1.8-1.6,2.9-2.1c1.1-0.5,2.3-0.8,3.6-0.8s2.5,0.3,3.6,0.8s2.1,1.2,2.9,2.1s1.5,1.9,1.9,3.1
		s0.7,2.4,0.7,3.7s-0.2,2.5-0.7,3.7s-1.1,2.2-1.9,3.1s-1.8,1.6-2.9,2.1S178.7,429.5,177.4,429.5L177.4,429.5z M170,419.9
		c0,1.5,0.3,2.8,1,4s1.5,2.2,2.6,2.9c1.1,0.7,2.3,1.1,3.7,1.1s2.6-0.4,3.7-1.1s2-1.7,2.7-2.9s1-2.6,1-4s-0.3-2.8-1-4
		s-1.6-2.2-2.7-2.9c-1.1-0.7-2.3-1.1-3.6-1.1s-2.6,0.4-3.7,1.1c-1.1,0.7-2,1.7-2.7,2.9S170,418.4,170,419.9L170,419.9z"/>
	<path class="st0" d="M189.5,419.8c0-1.8,0.4-3.4,1.1-4.8c0.7-1.5,1.8-2.6,3.1-3.5s2.8-1.3,4.4-1.3s3.1,0.4,4.3,1.3
		c1.3,0.9,2.2,1.9,3,3.1v-11.7h1.8v23.9c0,0.3,0.1,0.5,0.2,0.6c0.1,0.1,0.3,0.2,0.6,0.2v1.5c-0.4,0-0.7,0.1-0.9,0
		c-0.4-0.1-0.8-0.3-1.1-0.6c-0.3-0.3-0.4-0.7-0.4-1.1v-2.1c-0.8,1.2-1.8,2.2-3.1,3s-2.6,1.1-4,1.1c-1.3,0-2.5-0.3-3.6-0.8
		s-2.1-1.3-2.9-2.2s-1.4-1.9-1.9-3.1C189.8,422.3,189.5,421.1,189.5,419.8L189.5,419.8z M205.4,422.8v-6.1c-0.3-0.9-0.9-1.7-1.6-2.5
		c-0.7-0.8-1.6-1.4-2.5-1.8s-1.9-0.7-2.8-0.7c-1.1,0-2.1,0.2-2.9,0.7c-0.9,0.5-1.6,1.1-2.3,1.8s-1.1,1.6-1.5,2.6c-0.3,1-0.5,2-0.5,3
		s0.2,2.1,0.6,3s0.9,1.8,1.6,2.6c0.7,0.8,1.5,1.3,2.4,1.8c0.9,0.4,1.9,0.6,2.9,0.6c0.6,0,1.3-0.1,2.1-0.4c0.7-0.3,1.4-0.6,2.1-1.1
		c0.7-0.5,1.2-1,1.7-1.6C205.1,424.2,205.4,423.5,205.4,422.8L205.4,422.8z"/>
	<path class="st0" d="M220.7,423.7c0-1.1,0.3-2.1,1-2.9s1.6-1.5,2.8-1.9s2.5-0.7,4.1-0.7c1,0,2,0.1,3,0.2s2,0.4,2.8,0.7v-1.8
		c0-1.7-0.5-3.1-1.5-4.1s-2.4-1.5-4.1-1.5c-0.9,0-1.9,0.2-2.9,0.6s-2,0.9-3.1,1.7l-0.8-1.3c1.2-0.8,2.4-1.4,3.6-1.9s2.3-0.6,3.4-0.6
		c2.2,0,4,0.7,5.3,2s1.9,3.1,1.9,5.4v9.2c0,0.3,0.1,0.5,0.2,0.6s0.3,0.2,0.6,0.2v1.5c-0.2,0-0.4,0-0.5,0H236
		c-0.5-0.1-0.8-0.3-1.1-0.6c-0.2-0.3-0.4-0.7-0.4-1V426c-0.9,1.1-2,1.9-3.3,2.5c-1.4,0.6-2.8,0.9-4.3,0.9c-1.2,0-2.2-0.2-3.2-0.8
		s-1.7-1.2-2.2-2.1S220.7,424.8,220.7,423.7L220.7,423.7z M233.6,425.3c0.2-0.3,0.4-0.6,0.5-0.9s0.2-0.5,0.2-0.8v-3.1
		c-0.9-0.3-1.8-0.6-2.7-0.8s-1.9-0.2-2.9-0.2c-1.9,0-3.4,0.4-4.6,1.1s-1.8,1.8-1.8,3c0,0.8,0.2,1.5,0.6,2.2s1,1.2,1.7,1.6
		s1.6,0.6,2.5,0.6c1.3,0,2.6-0.3,3.7-0.8C232.1,426.8,233,426.1,233.6,425.3L233.6,425.3z"/>
	<path class="st0" d="M256.9,429.1h-1.8v-10.4c0-2.4-0.3-4.1-1-5.2s-1.8-1.7-3.3-1.7c-1.1,0-2.1,0.2-3.1,0.8s-1.9,1.2-2.7,2.1
		s-1.3,1.9-1.6,3v11.5h-1.8v-18.7h1.7v4.5c0.5-1,1.2-1.8,2-2.5s1.8-1.3,2.8-1.7s2.1-0.6,3.2-0.6c1,0,1.9,0.2,2.6,0.6
		s1.3,0.9,1.7,1.6s0.8,1.5,0.9,2.6s0.3,2.2,0.3,3.5v10.6L256.9,429.1L256.9,429.1z"/>
	<path class="st0" d="M261,419.8c0-1.8,0.4-3.4,1.1-4.8c0.7-1.5,1.8-2.6,3.1-3.5c1.3-0.9,2.8-1.3,4.4-1.3s3.1,0.4,4.3,1.3
		s2.2,1.9,3,3.1v-11.7h1.8v23.9c0,0.3,0.1,0.5,0.2,0.6s0.3,0.2,0.6,0.2v1.5c-0.4,0-0.7,0.1-0.9,0c-0.4-0.1-0.8-0.3-1.1-0.6
		c-0.3-0.3-0.4-0.7-0.4-1.1v-2.1c-0.8,1.2-1.8,2.2-3.1,3s-2.6,1.1-4,1.1c-1.3,0-2.5-0.3-3.6-0.8s-2.1-1.3-2.9-2.2s-1.4-1.9-1.9-3.1
		S261,421.1,261,419.8L261,419.8z M276.9,422.8v-6.1c-0.3-0.9-0.9-1.7-1.6-2.5s-1.6-1.4-2.5-1.8s-1.9-0.7-2.8-0.7
		c-1.1,0-2.1,0.2-2.9,0.7c-0.9,0.5-1.6,1.1-2.3,1.8s-1.1,1.6-1.5,2.6s-0.5,2-0.5,3s0.2,2.1,0.6,3s0.9,1.8,1.6,2.6s1.5,1.3,2.4,1.8
		s1.9,0.6,2.9,0.6c0.6,0,1.3-0.1,2.1-0.4s1.4-0.6,2.1-1.1s1.2-1,1.7-1.6C276.6,424.2,276.9,423.5,276.9,422.8L276.9,422.8z"/>
	<path class="st0" d="M302.4,429.5c-1.5,0-2.8-0.4-4.1-1.2c-1.3-0.8-2.3-1.8-3-2.9v3.7h-1.7v-26.3h1.8v11.7c0.9-1.3,1.9-2.4,3.1-3.2
		s2.6-1.2,4.2-1.2c1.3,0,2.5,0.3,3.6,0.8c1,0.5,1.9,1.3,2.7,2.2s1.3,2,1.7,3.1s0.6,2.3,0.6,3.5s-0.2,2.5-0.7,3.6s-1.1,2.2-1.9,3.1
		s-1.8,1.6-2.8,2.1C304.9,429.2,303.7,429.5,302.4,429.5L302.4,429.5z M302.1,427.9c1.1,0,2.1-0.2,3-0.7s1.7-1,2.4-1.8
		s1.2-1.6,1.5-2.6s0.6-1.9,0.6-2.9c0-1.4-0.3-2.7-0.9-4c-0.6-1.2-1.4-2.2-2.5-3s-2.3-1.1-3.7-1.1c-1.1,0-2,0.2-2.9,0.7
		s-1.7,1.1-2.3,1.8s-1.2,1.5-1.7,2.4v6.2c0.1,0.7,0.4,1.3,0.8,2c0.4,0.6,1,1.1,1.6,1.6c0.7,0.4,1.4,0.8,2.1,1.1
		C300.7,427.7,301.4,427.9,302.1,427.9L302.1,427.9z"/>
	<path class="st0" d="M323.7,429.5c-1.3,0-2.5-0.3-3.7-0.8c-1.1-0.5-2.1-1.2-2.9-2.1s-1.5-1.9-1.9-3.1s-0.7-2.4-0.7-3.8
		c0-1.8,0.4-3.4,1.2-4.8s1.9-2.6,3.3-3.5s3-1.3,4.7-1.3s3.4,0.4,4.7,1.3c1.4,0.9,2.5,2,3.3,3.5s1.2,3,1.2,4.8v0.4c0,0.1,0,0.3,0,0.4
		h-16.4c0.1,1.4,0.5,2.7,1.2,3.8c0.7,1.1,1.6,2,2.7,2.7s2.3,1,3.6,1s2.5-0.3,3.7-1c1.1-0.7,2-1.5,2.4-2.6l1.6,0.4
		c-0.4,0.9-0.9,1.7-1.7,2.4s-1.7,1.2-2.7,1.6C325.9,429.3,324.8,429.5,323.7,429.5L323.7,429.5z M316.2,419.1H331
		c-0.1-1.5-0.5-2.8-1.1-3.9c-0.7-1.1-1.5-2-2.6-2.6s-2.3-1-3.6-1s-2.5,0.3-3.6,1s-2,1.5-2.6,2.6S316.3,417.7,316.2,419.1z"/>
	<path class="st0" d="M342,429.1l-7.8-18.7h1.9l6.9,16.8l6.9-16.8h1.8l-7.8,18.7H342L342,429.1z"/>
	<path class="st0" d="M362.5,429.5c-1.3,0-2.5-0.3-3.7-0.8c-1.1-0.5-2.1-1.2-2.9-2.1s-1.5-1.9-1.9-3.1s-0.7-2.4-0.7-3.8
		c0-1.8,0.4-3.4,1.2-4.8s1.9-2.6,3.3-3.5s3-1.3,4.7-1.3s3.4,0.4,4.7,1.3c1.4,0.9,2.5,2,3.3,3.5s1.2,3,1.2,4.8v0.4c0,0.1,0,0.3,0,0.4
		h-16.4c0.1,1.4,0.5,2.7,1.2,3.8c0.7,1.1,1.6,2,2.7,2.7s2.3,1,3.6,1s2.5-0.3,3.7-1c1.1-0.7,2-1.5,2.4-2.6l1.6,0.4
		c-0.4,0.9-0.9,1.7-1.7,2.4s-1.7,1.2-2.7,1.6C364.8,429.3,363.7,429.5,362.5,429.5L362.5,429.5z M355.1,419.1h14.8
		c-0.1-1.5-0.5-2.8-1.1-3.9c-0.7-1.1-1.5-2-2.6-2.6s-2.3-1-3.6-1s-2.5,0.3-3.6,1s-2,1.5-2.6,2.6S355.2,417.7,355.1,419.1z"/>
	<path class="st0" d="M384.4,412c-1.7,0-3.1,0.5-4.4,1.5s-2.1,2.2-2.6,3.9v11.7h-1.8v-18.7h1.7v4.6c0.6-1.3,1.5-2.4,2.6-3.2
		s2.2-1.3,3.4-1.4c0.2,0,0.5,0,0.6,0h0.5L384.4,412L384.4,412z"/>
	<path class="st0" d="M386.1,423.7c0-1.1,0.3-2.1,1-2.9s1.6-1.5,2.8-1.9s2.5-0.7,4.1-0.7c1,0,2,0.1,3,0.2s2,0.4,2.8,0.7v-1.8
		c0-1.7-0.5-3.1-1.5-4.1s-2.4-1.5-4.1-1.5c-0.9,0-1.9,0.2-2.9,0.6s-2,0.9-3.1,1.7l-0.8-1.3c1.2-0.8,2.4-1.4,3.5-1.9
		c1.1-0.4,2.3-0.6,3.4-0.6c2.2,0,4,0.7,5.3,2s1.9,3.1,1.9,5.4v9.2c0,0.3,0.1,0.5,0.2,0.6s0.3,0.2,0.6,0.2v1.5c-0.2,0-0.4,0-0.5,0
		h-0.4c-0.5-0.1-0.8-0.3-1.1-0.6c-0.2-0.3-0.4-0.7-0.4-1V426c-0.9,1.1-2,1.9-3.3,2.5c-1.4,0.6-2.8,0.9-4.3,0.9
		c-1.2,0-2.2-0.2-3.2-0.8s-1.7-1.2-2.2-2.1S386.1,424.8,386.1,423.7L386.1,423.7z M399,425.3c0.2-0.3,0.4-0.6,0.5-0.9
		s0.2-0.5,0.2-0.8v-3.1c-0.9-0.3-1.8-0.6-2.7-0.8s-1.9-0.2-2.9-0.2c-1.9,0-3.4,0.4-4.5,1.1c-1.2,0.7-1.8,1.8-1.8,3
		c0,0.8,0.2,1.5,0.6,2.2s1,1.2,1.7,1.6s1.6,0.6,2.5,0.6c1.3,0,2.6-0.3,3.7-0.8C397.6,426.8,398.5,426.1,399,425.3z"/>
	<path class="st0" d="M414.6,429.5c-1.3,0-2.5-0.3-3.5-0.8c-1.1-0.5-2-1.2-2.8-2.2c-0.8-0.9-1.4-2-1.8-3.1s-0.7-2.3-0.7-3.5
		s0.2-2.5,0.6-3.7s1-2.2,1.8-3.1s1.7-1.6,2.8-2.1c1.1-0.5,2.2-0.8,3.5-0.8c1.6,0,3,0.4,4.3,1.3c1.2,0.8,2.2,1.9,3.1,3.1v-4.1h1.7v19
		c0,1.7-0.4,3.1-1.2,4.2c-0.8,1.1-1.9,2-3.2,2.6s-2.8,0.8-4.4,0.8c-2.2,0-3.9-0.4-5.2-1.2s-2.3-1.8-3.1-3.1l1.2-0.8
		c0.7,1.2,1.8,2.2,3,2.8c1.3,0.6,2.6,0.9,4.1,0.9c1.3,0,2.4-0.2,3.5-0.7s1.9-1.1,2.6-2.1c0.6-0.9,1-2,1-3.4v-4.1
		c-0.7,1.2-1.8,2.2-3,2.9C417.3,429.1,416,429.5,414.6,429.5L414.6,429.5z M415,427.9c0.8,0,1.6-0.1,2.3-0.4s1.4-0.7,2-1.2
		s1.1-1,1.5-1.6s0.6-1.2,0.7-1.8v-6.2c-0.4-1-0.9-1.8-1.6-2.6c-0.7-0.8-1.5-1.3-2.5-1.8c-0.9-0.4-1.9-0.6-2.8-0.6
		c-1.1,0-2.1,0.2-3,0.7s-1.6,1.1-2.2,1.9s-1.1,1.7-1.4,2.6s-0.5,1.9-0.5,2.9c0,1.1,0.2,2.1,0.6,3.1s0.9,1.8,1.6,2.6
		c0.7,0.8,1.5,1.3,2.4,1.8S414,427.9,415,427.9L415,427.9z"/>
	<path class="st0" d="M437,429.5c-1.3,0-2.5-0.3-3.7-0.8c-1.1-0.5-2.1-1.2-2.9-2.1s-1.5-1.9-1.9-3.1s-0.7-2.4-0.7-3.8
		c0-1.8,0.4-3.4,1.2-4.8s1.9-2.6,3.3-3.5s3-1.3,4.7-1.3s3.4,0.4,4.7,1.3c1.4,0.9,2.5,2,3.3,3.5s1.2,3,1.2,4.8v0.4c0,0.1,0,0.3,0,0.4
		h-16.4c0.1,1.4,0.5,2.7,1.2,3.8c0.7,1.1,1.6,2,2.7,2.7s2.3,1,3.6,1s2.5-0.3,3.7-1c1.1-0.7,2-1.5,2.4-2.6l1.6,0.4
		c-0.4,0.9-0.9,1.7-1.7,2.4s-1.7,1.2-2.7,1.6C439.3,429.3,438.2,429.5,437,429.5L437,429.5z M429.5,419.1h14.8
		c-0.1-1.5-0.5-2.8-1.1-3.9c-0.7-1.1-1.5-2-2.6-2.6s-2.3-1-3.6-1s-2.5,0.3-3.6,1s-2,1.5-2.6,2.6S429.6,417.7,429.5,419.1z"/>
	<path class="st0" d="M144.3,472.7c-1.3,0-2.5-0.3-3.6-0.8s-2.1-1.2-2.9-2.1s-1.5-1.9-2-3.1s-0.7-2.4-0.7-3.8c0-1.8,0.4-3.4,1.2-4.8
		s1.9-2.6,3.3-3.4s3-1.3,4.8-1.3s3.2,0.4,4.5,1.2s2.3,1.8,2.9,3.2l-1.8,0.6c-0.6-1-1.3-1.8-2.4-2.4s-2.1-0.9-3.4-0.9
		c-1.4,0-2.6,0.4-3.7,1c-1.1,0.7-2,1.6-2.6,2.9c-0.7,1.2-1,2.6-1,4.1s0.3,2.8,1,4.1s1.6,2.2,2.7,3c1.1,0.7,2.4,1.1,3.7,1.1
		c0.9,0,1.7-0.2,2.5-0.5s1.6-0.8,2.2-1.3s1-1.1,1.2-1.7l1.8,0.5c-0.3,0.9-0.9,1.7-1.6,2.4c-0.8,0.7-1.7,1.2-2.7,1.6
		C146.6,472.5,145.5,472.7,144.3,472.7L144.3,472.7z"/>
	<path class="st0" d="M163.7,472.7c-1.3,0-2.5-0.2-3.6-0.8c-1.1-0.5-2.1-1.2-2.9-2.1c-0.8-0.9-1.4-1.9-1.9-3.1s-0.7-2.4-0.7-3.7
		s0.2-2.5,0.7-3.7s1.1-2.2,1.9-3.1s1.8-1.6,2.9-2.1c1.1-0.5,2.3-0.8,3.6-0.8s2.5,0.3,3.6,0.8s2.1,1.2,2.9,2.1s1.5,1.9,1.9,3.1
		c0.5,1.2,0.7,2.4,0.7,3.7s-0.2,2.5-0.7,3.7s-1.1,2.2-1.9,3.1s-1.8,1.6-2.9,2.1S165,472.7,163.7,472.7L163.7,472.7z M156.3,463.1
		c0,1.5,0.3,2.8,1,4s1.5,2.2,2.6,2.9c1.1,0.7,2.3,1.1,3.7,1.1s2.6-0.4,3.7-1.1s2-1.7,2.7-2.9s1-2.6,1-4s-0.3-2.8-1-4
		s-1.6-2.2-2.7-2.9c-1.1-0.7-2.3-1.1-3.6-1.1s-2.6,0.4-3.7,1.1c-1.1,0.7-2,1.7-2.7,2.9S156.3,461.6,156.3,463.1L156.3,463.1z"/>
	<path class="st0" d="M192.4,472.3h-1.8v-10.4c0-2.4-0.3-4.1-1-5.2s-1.8-1.7-3.3-1.7c-1.1,0-2.1,0.2-3.1,0.8s-1.9,1.2-2.7,2.1
		s-1.3,1.9-1.6,3v11.5h-1.8v-18.7h1.7v4.5c0.5-1,1.2-1.8,2-2.5s1.8-1.3,2.8-1.7s2.1-0.6,3.2-0.6c1,0,1.9,0.2,2.6,0.6
		s1.3,0.9,1.7,1.6s0.8,1.5,0.9,2.6s0.3,2.2,0.3,3.5L192.4,472.3L192.4,472.3z"/>
	<path class="st0" d="M203.8,472.7c-1.5,0-2.9-0.2-4.1-0.8c-1.3-0.5-2.4-1.3-3.4-2.3l0.8-1.3c1,1,2.1,1.7,3.1,2.1
		c1.1,0.4,2.2,0.7,3.5,0.7c1.6,0,2.9-0.3,3.9-1s1.5-1.6,1.5-2.8c0-0.8-0.2-1.4-0.7-1.9s-1.1-0.8-2-1.1c-0.9-0.3-1.9-0.6-3.2-0.9
		s-2.4-0.7-3.2-1c-0.9-0.4-1.5-0.8-2-1.4c-0.4-0.6-0.6-1.4-0.6-2.3c0-1.2,0.3-2.2,0.9-3s1.4-1.4,2.5-1.8s2.2-0.6,3.5-0.6
		c1.5,0,2.7,0.2,3.8,0.7s1.9,1.1,2.5,1.9l-1,1.1c-0.6-0.8-1.4-1.3-2.3-1.7c-1-0.4-2-0.6-3.2-0.6c-0.9,0-1.7,0.1-2.4,0.4
		s-1.4,0.6-1.9,1.2c-0.5,0.5-0.7,1.3-0.7,2.2c0,0.7,0.2,1.3,0.5,1.7s0.9,0.7,1.6,1c0.7,0.2,1.6,0.5,2.6,0.8c1.5,0.4,2.7,0.7,3.8,1.1
		s1.9,0.9,2.4,1.5s0.9,1.5,0.9,2.6c0,1.7-0.6,3-1.9,4C207.6,472.2,205.9,472.7,203.8,472.7L203.8,472.7z"/>
	<path class="st0" d="M214.9,464.4v-10.8h1.8v10.5c0,2.3,0.4,4,1.2,5.2s2,1.7,3.6,1.7c1.1,0,2.1-0.2,3-0.7c1-0.5,1.8-1.1,2.6-2
		c0.7-0.9,1.3-1.8,1.7-3v-11.8h1.8v16.3c0,0.3,0.1,0.5,0.2,0.6c0.1,0.1,0.3,0.2,0.6,0.2v1.5c-0.2,0-0.4,0-0.6,0s-0.2,0-0.3,0
		c-0.4,0-0.7-0.2-1-0.5s-0.4-0.7-0.4-1.1v-2.8c-0.8,1.5-1.9,2.6-3.4,3.5s-3,1.3-4.6,1.3c-2,0-3.5-0.7-4.5-2.1
		C215.4,469.2,214.9,467.1,214.9,464.4L214.9,464.4z"/>
	<path class="st0" d="M263.8,472.3H262v-10.4c0-2.4-0.4-4.1-1.1-5.2s-1.9-1.7-3.4-1.7s-2.9,0.5-4.1,1.6s-2,2.5-2.5,4.2v11.5h-1.8
		v-10.4c0-2.4-0.4-4.1-1.1-5.2s-1.8-1.7-3.4-1.7s-2.9,0.5-4.1,1.6s-2,2.5-2.5,4.2v11.5h-1.8v-18.7h1.7v4.5c0.8-1.5,1.8-2.7,3.1-3.5
		c1.2-0.8,2.6-1.2,4.1-1.2s2.8,0.5,3.8,1.4s1.6,2.1,1.8,3.7c0.9-1.7,1.9-2.9,3.2-3.8s2.6-1.3,4.2-1.3c1,0,1.9,0.2,2.6,0.6
		s1.3,0.9,1.8,1.6s0.8,1.6,1,2.6s0.3,2.2,0.3,3.5V472.3L263.8,472.3z"/>
	<path class="st0" d="M278.3,472.7c-1.6,0-3-0.4-4.3-1.3s-2.3-1.9-3-3.1V480h-1.8v-26.4h1.7v3.8c0.8-1.2,1.8-2.2,3.1-2.9
		s2.6-1.1,4-1.1c1.3,0,2.5,0.3,3.6,0.8s2,1.3,2.8,2.2c0.8,0.9,1.4,2,1.9,3.1c0.4,1.1,0.7,2.3,0.7,3.6c0,1.7-0.4,3.3-1.1,4.8
		s-1.7,2.6-3,3.5S280,472.7,278.3,472.7L278.3,472.7z M277.9,471.1c1.1,0,2.1-0.2,3-0.7s1.6-1.1,2.2-1.8c0.6-0.8,1.1-1.6,1.4-2.6
		s0.5-1.9,0.5-2.9c0-1.1-0.2-2.1-0.6-3.1s-0.9-1.8-1.6-2.6s-1.5-1.3-2.4-1.8s-1.9-0.7-2.9-0.7c-0.6,0-1.3,0.1-2.1,0.4
		s-1.4,0.6-2.1,1.1s-1.2,1-1.6,1.6s-0.7,1.2-0.8,1.9v6.1c0.4,0.9,1,1.7,1.7,2.5s1.5,1.4,2.4,1.8S276.9,471.1,277.9,471.1
		L277.9,471.1z"/>
	<path class="st0" d="M299.3,471.6c-0.1,0-0.4,0.2-0.7,0.4c-0.4,0.2-0.8,0.4-1.4,0.5c-0.5,0.2-1.2,0.2-1.8,0.2s-1.2-0.1-1.8-0.4
		c-0.6-0.2-1-0.6-1.4-1.1s-0.5-1.1-0.5-1.9v-14.2h-2.6v-1.5h2.6v-6.4h1.8v6.4h4.4v1.5h-4.4v13.8c0,0.7,0.3,1.2,0.8,1.6
		s1,0.5,1.6,0.5c0.7,0,1.4-0.1,1.9-0.4s0.9-0.4,1-0.5L299.3,471.6L299.3,471.6z"/>
	<path class="st0" d="M302.5,449.4V446h1.8v3.3h-1.8V449.4z M302.5,472.3v-18.7h1.8v18.7H302.5z"/>
	<path class="st0" d="M317.8,472.7c-1.3,0-2.5-0.2-3.6-0.8c-1.1-0.5-2.1-1.2-2.9-2.1s-1.5-1.9-1.9-3.1s-0.7-2.4-0.7-3.7
		s0.2-2.5,0.7-3.7s1.1-2.2,1.9-3.1s1.8-1.6,2.9-2.1s2.3-0.8,3.6-0.8s2.5,0.3,3.6,0.8s2.1,1.2,2.9,2.1s1.5,1.9,1.9,3.1
		c0.5,1.2,0.7,2.4,0.7,3.7s-0.2,2.5-0.7,3.7s-1.1,2.2-1.9,3.1s-1.8,1.6-2.9,2.1C320.3,472.4,319.1,472.7,317.8,472.7L317.8,472.7z
		 M310.5,463.1c0,1.5,0.3,2.8,1,4s1.5,2.2,2.6,2.9c1.1,0.7,2.3,1.1,3.7,1.1s2.6-0.4,3.7-1.1s2-1.7,2.7-2.9s1-2.6,1-4s-0.3-2.8-1-4
		s-1.5-2.2-2.7-2.9c-1.1-0.7-2.3-1.1-3.6-1.1s-2.6,0.4-3.7,1.1s-2,1.7-2.7,2.9S310.5,461.6,310.5,463.1L310.5,463.1z"/>
	<path class="st0" d="M346.5,472.3h-1.8v-10.4c0-2.4-0.3-4.1-1-5.2s-1.8-1.7-3.3-1.7c-1.1,0-2.1,0.2-3.1,0.8s-1.9,1.2-2.7,2.1
		c-0.8,0.9-1.3,1.9-1.6,3v11.5h-1.8v-18.7h1.7v4.5c0.5-1,1.2-1.8,2-2.5s1.8-1.3,2.8-1.7s2.1-0.6,3.2-0.6c1,0,1.9,0.2,2.6,0.6
		s1.3,0.9,1.7,1.6c0.4,0.7,0.8,1.5,1,2.6s0.3,2.2,0.3,3.5L346.5,472.3L346.5,472.3z"/>
	<path class="st0" d="M357.9,472.7c-1.5,0-2.9-0.2-4.1-0.8c-1.3-0.5-2.4-1.3-3.4-2.3l0.8-1.3c1,1,2.1,1.7,3.1,2.1
		c1.1,0.4,2.2,0.7,3.5,0.7c1.6,0,2.9-0.3,3.9-1s1.5-1.6,1.5-2.8c0-0.8-0.2-1.4-0.7-1.9s-1.1-0.8-2-1.1c-0.9-0.3-1.9-0.6-3.2-0.9
		c-1.3-0.3-2.4-0.7-3.2-1c-0.9-0.4-1.5-0.8-2-1.4s-0.6-1.4-0.6-2.3c0-1.2,0.3-2.2,0.9-3s1.4-1.4,2.5-1.8s2.2-0.6,3.5-0.6
		c1.5,0,2.7,0.2,3.8,0.7s1.9,1.1,2.5,1.9l-1,1.1c-0.6-0.8-1.4-1.3-2.3-1.7s-2-0.6-3.2-0.6c-0.9,0-1.7,0.1-2.5,0.4
		c-0.8,0.2-1.4,0.6-1.9,1.2c-0.5,0.5-0.7,1.3-0.7,2.2c0,0.7,0.2,1.3,0.5,1.7s0.9,0.7,1.6,1s1.6,0.5,2.6,0.8c1.5,0.4,2.7,0.7,3.8,1.1
		c1.1,0.4,1.9,0.9,2.5,1.5s0.9,1.5,0.9,2.6c0,1.7-0.6,3-1.9,4C361.7,472.2,360,472.7,357.9,472.7L357.9,472.7z"/>
</g>
<g>
	<g>
		<g>
			<g>
				<path class="st1" d="M232.9,256.7h-46.2c-1.4,0-2.6-1.2-2.6-2.6v-68.2c0-6.4,2.2-14.3,5-24.3c4.3-15.3,10.2-36.3,10.2-62.2
					c0-1.4,1.2-2.6,2.6-2.6h15.7c1.4,0,2.6,1.2,2.6,2.6c0.1,25.9,5.9,46.9,10.2,62.2c2.8,10,5,17.9,5,24.3v68.2
					C235.5,255.5,234.4,256.7,232.9,256.7z M189.3,251.5h41.1v-65.6c0-5.7-2.1-13.3-4.8-22.9c-4.2-15.1-10-35.6-10.4-61h-10.6
					c-0.4,25.4-6.2,45.9-10.4,61c-2.7,9.6-4.8,17.2-4.8,22.9L189.3,251.5L189.3,251.5z"/>
			</g>
			<g>
				<path class="st1" d="M195,221.6c-1.4,0-2.6-1.2-2.6-2.6v-27c0-1.4,1.1-2.6,2.6-2.6c1.4,0,2.6,1.2,2.6,2.6v27
					C197.6,220.5,196.4,221.6,195,221.6z"/>
			</g>
			<g>
				<path class="st1" d="M195,248.4c-1.4,0-2.6-1.1-2.6-2.6v-14.6c0-1.4,1.1-2.6,2.6-2.6c1.4,0,2.6,1.1,2.6,2.6v14.6
					C197.6,247.3,196.4,248.4,195,248.4z"/>
			</g>
		</g>
		<g>
			<path class="st1" d="M217.7,102H202c-1.4,0-2.6-1.2-2.6-2.6v-5.5c0-3.9,3.3-7.2,7.3-7.2h6.4c4,0,7.3,3.2,7.3,7.2v5.5
				C220.3,100.8,219.1,102,217.7,102z M204.5,96.8h10.6v-2.9c0-1.1-1-2-2.1-2h-6.4c-1.1,0-2.1,0.9-2.1,2V96.8z"/>
		</g>
	</g>
	<g>
		<g>
			<g>
				<path class="st1" d="M282.1,212.1c-18.5,0-33.3-14.8-33.9-33.7c-0.1-3.5,1-15.3,2.3-23.2c0.2-1.2,1.3-2.1,2.5-2.1l58.1,0.2
					c1.3,0,2.3,0.9,2.5,2.1c1.4,8.3,2.4,19.9,2.3,23C315.2,197.3,300.4,212.1,282.1,212.1z M255.2,158.3c-1.1,7.7-2,17.4-1.9,20
					c0.5,16.1,13.1,28.7,28.6,28.7c15.7,0,28.3-12.6,28.8-28.7c0.1-2.6-0.7-12.2-1.8-19.8L255.2,158.3z"/>
			</g>
			<g>
				<path class="st1" d="M267.9,197.1c-0.7,0-1.4-0.3-1.9-0.9c-2.4-2.7-4.2-5.9-5.3-9.3c-0.4-1.4,0.3-2.8,1.7-3.2
					c1.4-0.4,2.8,0.3,3.2,1.7c0.9,2.7,2.3,5.2,4.2,7.4c1,1.1,0.9,2.7-0.2,3.6C269.1,196.8,268.5,197.1,267.9,197.1z"/>
			</g>
			<g>
				<path class="st1" d="M262.2,178.8c-1.7-0.1-2.7-1.4-2.6-2.8l0.1-0.7c0.3-2.7,1.1-9.9,1.1-9.9l5.1,0.5c0,0-0.8,7.2-1,9.8
					l-0.1,0.8C264.6,177.9,263.5,178.8,262.2,178.8z"/>
			</g>
			<g>
				<path class="st1" d="M303.7,256.7h-43.3c-1.4,0-2.6-1.2-2.6-2.6c0-1.4,1.2-2.6,2.6-2.6c10.5,0,19.1-8.6,19.1-19.1
					c0-1.4,1.1-2.6,2.6-2.6c1.4,0,2.6,1.1,2.6,2.6c0,10.5,8.6,19.1,19.1,19.1c1.4,0,2.6,1.1,2.6,2.6
					C306.2,255.5,305.1,256.7,303.7,256.7z M275.3,251.5h13.5c-2.8-2.2-5.1-5-6.7-8.2C280.4,246.5,278.1,249.3,275.3,251.5z"/>
			</g>
		</g>
		<g>
			<path class="st1" d="M282,235c-1.4,0-2.6-1.2-2.6-2.6v-22.9c0-1.4,1.1-2.6,2.6-2.6c1.4,0,2.6,1.2,2.6,2.6v22.9
				C284.6,233.8,283.4,235,282,235z"/>
		</g>
	</g>
</g>
</svg>
