<?xml version="1.0" encoding="utf-8"?>
<!-- Generator: Adobe Illustrator 26.5.0, SVG Export Plug-In . SVG Version: 6.00 Build 0)  -->
<svg version="1.1" id="Capa_1" xmlns="http://www.w3.org/2000/svg" xmlns:xlink="http://www.w3.org/1999/xlink" x="0px" y="0px"
	 viewBox="0 0 500 500" style="enable-background:new 0 0 500 500;" xml:space="preserve">
<style type="text/css">
	.st0{fill:#385072;}
	.st1{fill:none;stroke:#FFFFFF;stroke-width:5;stroke-linecap:round;stroke-linejoin:round;stroke-miterlimit:10;}
</style>
<path class="st0" d="M449,32.8H47.6c-6.6,0-12,5.4-12,12V306c0,6.6,5.4,12,12,12h402.6c6.6,0,12-5.4,12-12V45.9
	C462.2,38.7,456.3,32.8,449,32.8z"/>
<g>
	<path class="st0" d="M65.3,384.3v1.7h-17v-25.6H65v1.7H50.1v10h13v1.6h-13v10.6L65.3,384.3L65.3,384.3z"/>
	<path class="st0" d="M68,380.5c0-1.1,0.3-2.1,1-2.9s1.6-1.5,2.8-1.9c1.2-0.5,2.5-0.7,4.1-0.7c1,0,2,0.1,3,0.2s2,0.4,2.8,0.7v-1.8
		c0-1.7-0.5-3.1-1.5-4.1s-2.4-1.5-4.1-1.5c-0.9,0-1.9,0.2-2.9,0.6s-2,0.9-3.1,1.7l-0.8-1.3c1.2-0.8,2.4-1.4,3.6-1.9s2.3-0.6,3.4-0.6
		c2.2,0,4,0.7,5.3,2s1.9,3.1,1.9,5.4v9.2c0,0.3,0.1,0.5,0.2,0.6s0.3,0.2,0.6,0.2v1.5c-0.2,0-0.4,0-0.5,0h-0.4
		c-0.5-0.1-0.8-0.3-1.1-0.6c-0.2-0.3-0.4-0.7-0.4-1v-1.5c-0.9,1.1-2,1.9-3.3,2.5s-2.8,0.9-4.3,0.9c-1.2,0-2.2-0.2-3.2-0.8
		s-1.7-1.2-2.2-2.1S68,381.6,68,380.5L68,380.5z M80.9,382.1c0.2-0.3,0.4-0.6,0.5-0.9s0.2-0.5,0.2-0.8v-3.1
		c-0.9-0.3-1.8-0.6-2.7-0.8c-0.9-0.2-1.9-0.2-2.9-0.2c-1.9,0-3.4,0.4-4.6,1.1s-1.8,1.8-1.8,3c0,0.8,0.2,1.5,0.6,2.2s1,1.2,1.7,1.6
		s1.6,0.6,2.5,0.6c1.3,0,2.6-0.3,3.7-0.8C79.5,383.6,80.3,382.9,80.9,382.1z"/>
	<path class="st0" d="M97.7,368.8c-1.7,0-3.2,0.5-4.4,1.5c-1.3,1-2.1,2.2-2.7,3.9v11.7h-1.8v-18.7h1.7v4.6c0.7-1.3,1.5-2.4,2.6-3.2
		s2.2-1.3,3.4-1.4c0.2,0,0.5,0,0.7,0h0.5C97.7,367.2,97.7,368.8,97.7,368.8z"/>
	<path class="st0" d="M116.5,385.9h-1.8v-10.4c0-2.4-0.3-4.1-1-5.2s-1.8-1.7-3.3-1.7c-1.1,0-2.1,0.2-3.1,0.8c-1,0.5-1.9,1.2-2.7,2.1
		c-0.8,0.9-1.3,1.9-1.6,3V386h-1.8v-18.7h1.7v4.5c0.5-1,1.2-1.8,2-2.5s1.8-1.3,2.8-1.7s2.1-0.6,3.2-0.6c1,0,1.9,0.2,2.6,0.6
		s1.3,0.9,1.7,1.6c0.4,0.7,0.8,1.5,0.9,2.6c0.2,1,0.3,2.2,0.3,3.5L116.5,385.9L116.5,385.9z"/>
	<path class="st0" d="M131.7,385.9v-25.6h10.5c1.1,0,2.1,0.2,3,0.7s1.7,1.1,2.4,1.8s1.2,1.6,1.6,2.5c0.4,0.9,0.6,1.9,0.6,2.9
		c0,1.4-0.3,2.7-0.9,3.9s-1.4,2.2-2.5,3s-2.3,1.1-3.8,1.1h-8.9v9.6h-2V385.9z M133.5,374.6h8.8c1.1,0,2.1-0.3,2.9-0.9
		c0.8-0.6,1.4-1.4,1.9-2.3s0.6-2,0.6-3.1s-0.3-2.2-0.8-3.1c-0.5-1-1.2-1.7-2.1-2.3S143,362,142,362h-8.6L133.5,374.6L133.5,374.6z"
		/>
	<path class="st0" d="M161,386.3c-1.3,0-2.5-0.2-3.6-0.8c-1.1-0.5-2.1-1.2-2.9-2.1c-0.8-0.9-1.4-1.9-1.9-3.1s-0.7-2.4-0.7-3.7
		s0.2-2.5,0.7-3.7s1.1-2.2,1.9-3.1s1.8-1.6,2.9-2.1c1.1-0.5,2.3-0.8,3.6-0.8s2.5,0.3,3.6,0.8s2.1,1.2,2.9,2.1s1.5,1.9,1.9,3.1
		c0.5,1.2,0.7,2.4,0.7,3.7s-0.2,2.5-0.7,3.7s-1.1,2.2-1.9,3.1s-1.8,1.6-2.9,2.1S162.3,386.3,161,386.3L161,386.3z M153.7,376.7
		c0,1.5,0.3,2.8,1,4s1.5,2.2,2.6,2.9c1.1,0.7,2.3,1.1,3.7,1.1s2.6-0.4,3.7-1.1s2-1.7,2.7-2.9s1-2.6,1-4s-0.3-2.8-1-4
		s-1.6-2.2-2.7-2.9c-1.1-0.7-2.3-1.1-3.6-1.1s-2.6,0.4-3.7,1.1c-1.1,0.7-2,1.7-2.7,2.9S153.7,375.2,153.7,376.7L153.7,376.7z"/>
	<path class="st0" d="M174.5,363v-3.3h1.8v3.3H174.5z M174.5,385.9v-18.7h1.8v18.7H174.5z"/>
	<path class="st0" d="M197.2,385.9h-1.8v-10.4c0-2.4-0.3-4.1-1-5.2s-1.8-1.7-3.3-1.7c-1.1,0-2.1,0.2-3.1,0.8s-1.9,1.2-2.7,2.1
		s-1.3,1.9-1.6,3V386h-1.8v-18.7h1.7v4.5c0.5-1,1.2-1.8,2-2.5s1.8-1.3,2.8-1.7s2.1-0.6,3.2-0.6c1,0,1.9,0.2,2.6,0.6s1.3,0.9,1.7,1.6
		s0.8,1.5,0.9,2.6s0.3,2.2,0.3,3.5L197.2,385.9L197.2,385.9z"/>
	<path class="st0" d="M210.9,385.2c-0.1,0-0.4,0.2-0.7,0.4c-0.4,0.2-0.8,0.4-1.4,0.5s-1.2,0.2-1.8,0.2s-1.2-0.1-1.8-0.4
		c-0.6-0.2-1-0.6-1.4-1.1c-0.3-0.5-0.5-1.1-0.5-1.9v-14.2h-2.6v-1.5h2.6v-6.4h1.8v6.4h4.4v1.5h-4.4v13.8c0.1,0.7,0.3,1.2,0.8,1.6
		s1,0.5,1.6,0.5c0.7,0,1.4-0.1,1.9-0.4s0.9-0.4,1-0.5L210.9,385.2L210.9,385.2z"/>
	<path class="st0" d="M219.9,386.3c-1.5,0-2.9-0.2-4.1-0.8c-1.3-0.5-2.4-1.3-3.4-2.3l0.8-1.3c1,1,2.1,1.7,3.1,2.1
		c1.1,0.4,2.2,0.7,3.5,0.7c1.6,0,2.9-0.3,3.9-1s1.5-1.6,1.5-2.8c0-0.8-0.2-1.4-0.7-1.9s-1.1-0.8-2-1.1c-0.9-0.3-1.9-0.6-3.2-0.9
		s-2.4-0.7-3.2-1c-0.9-0.4-1.5-0.8-2-1.4c-0.4-0.6-0.6-1.4-0.6-2.3c0-1.2,0.3-2.2,0.9-3s1.4-1.4,2.5-1.8s2.2-0.6,3.5-0.6
		c1.5,0,2.7,0.2,3.8,0.7s1.9,1.1,2.5,1.9l-1,1.1c-0.6-0.8-1.4-1.3-2.3-1.7c-1-0.4-2-0.6-3.2-0.6c-0.9,0-1.7,0.1-2.4,0.4
		s-1.4,0.6-1.9,1.2c-0.5,0.5-0.7,1.3-0.7,2.2c0,0.7,0.2,1.3,0.5,1.7s0.9,0.7,1.6,1c0.7,0.2,1.6,0.5,2.6,0.8c1.5,0.4,2.7,0.7,3.8,1.1
		s1.9,0.9,2.4,1.5s0.9,1.5,0.9,2.6c0,1.7-0.6,3-1.9,4C223.8,385.8,222.1,386.3,219.9,386.3L219.9,386.3z"/>
	<path class="st0" d="M241.3,385.9v-17.2h-2.6v-1.5h2.6v-0.6c0-1.5,0.2-2.8,0.6-3.9s1-1.9,1.8-2.5s1.7-0.9,2.8-0.9
		c0.7,0,1.4,0.1,2.1,0.3c0.7,0.2,1.2,0.5,1.7,0.9l-0.6,1.3c-0.3-0.3-0.7-0.5-1.2-0.7s-1-0.2-1.6-0.2c-1.2,0-2.2,0.5-2.8,1.5
		s-1,2.4-1,4.2v0.6h5.3v1.5h-5.3v17.2L241.3,385.9L241.3,385.9z"/>
	<path class="st0" d="M259.1,386.3c-1.3,0-2.5-0.2-3.6-0.8c-1.1-0.5-2.1-1.2-2.9-2.1c-0.8-0.9-1.4-1.9-1.9-3.1s-0.7-2.4-0.7-3.7
		s0.2-2.5,0.7-3.7s1.1-2.2,1.9-3.1s1.8-1.6,2.9-2.1c1.1-0.5,2.3-0.8,3.6-0.8s2.5,0.3,3.6,0.8s2.1,1.2,2.9,2.1s1.5,1.9,2,3.1
		s0.7,2.4,0.7,3.7s-0.2,2.5-0.7,3.7s-1.1,2.2-1.9,3.1s-1.8,1.6-2.9,2.1C261.6,386,260.4,386.3,259.1,386.3L259.1,386.3z
		 M251.8,376.7c0,1.5,0.3,2.8,1,4s1.5,2.2,2.6,2.9c1.1,0.7,2.3,1.1,3.7,1.1s2.6-0.4,3.7-1.1s2-1.7,2.7-2.9s1-2.6,1-4s-0.3-2.8-1-4
		s-1.5-2.2-2.7-2.9c-1.1-0.7-2.3-1.1-3.6-1.1s-2.6,0.4-3.7,1.1c-1.1,0.7-2,1.7-2.7,2.9S251.8,375.2,251.8,376.7L251.8,376.7z"/>
	<path class="st0" d="M281.4,368.8c-1.7,0-3.1,0.5-4.4,1.5s-2.1,2.2-2.6,3.9v11.7h-1.8v-18.7h1.7v4.6c0.6-1.3,1.5-2.4,2.6-3.2
		s2.2-1.3,3.4-1.4c0.2,0,0.5,0,0.6,0h0.5L281.4,368.8L281.4,368.8z"/>
	<path class="st0" d="M293.5,392.3c0.4,0,0.7,0,1,0s0.5-0.1,0.7-0.2s0.4-0.3,0.7-0.6s0.5-0.9,0.9-1.8s0.9-2.2,1.6-3.9l-8.4-18.7h1.9
		l7.4,16.8l6.9-16.8h1.8l-10.3,24.6c-0.1,0.4-0.3,0.7-0.6,1s-0.6,0.5-0.9,0.7c-0.4,0.2-0.8,0.3-1.3,0.3c-0.2,0-0.4,0-0.7,0
		c-0.2,0-0.5,0-0.8,0L293.5,392.3L293.5,392.3z"/>
	<path class="st0" d="M318.9,386.3c-1.3,0-2.5-0.2-3.6-0.8c-1.1-0.5-2.1-1.2-2.9-2.1s-1.5-1.9-1.9-3.1s-0.7-2.4-0.7-3.7
		s0.2-2.5,0.7-3.7s1.1-2.2,1.9-3.1s1.8-1.6,2.9-2.1s2.3-0.8,3.6-0.8s2.5,0.3,3.6,0.8s2.1,1.2,2.9,2.1s1.5,1.9,1.9,3.1
		c0.5,1.2,0.7,2.4,0.7,3.7s-0.2,2.5-0.7,3.7s-1.1,2.2-1.9,3.1s-1.8,1.6-2.9,2.1S320.2,386.3,318.9,386.3L318.9,386.3z M311.5,376.7
		c0,1.5,0.3,2.8,1,4s1.5,2.2,2.6,2.9c1.1,0.7,2.3,1.1,3.7,1.1s2.6-0.4,3.7-1.1s2-1.7,2.7-2.9s1-2.6,1-4s-0.3-2.8-1-4
		s-1.5-2.2-2.7-2.9c-1.1-0.7-2.3-1.1-3.6-1.1s-2.6,0.4-3.7,1.1s-2,1.7-2.7,2.9S311.5,375.2,311.5,376.7L311.5,376.7z"/>
	<path class="st0" d="M332.1,378v-10.8h1.8v10.5c0,2.3,0.4,4,1.2,5.2s2,1.7,3.5,1.7c1.1,0,2.1-0.2,3-0.7s1.8-1.1,2.6-2
		c0.7-0.9,1.3-1.8,1.7-3v-11.8h1.8v16.3c0,0.3,0.1,0.5,0.2,0.6s0.3,0.2,0.6,0.2v1.5c-0.2,0-0.4,0-0.6,0s-0.2,0-0.3,0
		c-0.4,0-0.7-0.2-1-0.5s-0.4-0.7-0.4-1.1v-2.8c-0.8,1.5-1.9,2.6-3.4,3.5s-3,1.3-4.6,1.3c-2,0-3.5-0.7-4.5-2.1
		C332.6,382.8,332.1,380.8,332.1,378L332.1,378z"/>
	<path class="st0" d="M362.3,368.8c-1.7,0-3.1,0.5-4.4,1.5s-2.1,2.2-2.6,3.9v11.7h-1.8v-18.7h1.7v4.6c0.6-1.3,1.5-2.4,2.6-3.2
		s2.2-1.3,3.4-1.4c0.2,0,0.5,0,0.6,0h0.5L362.3,368.8L362.3,368.8z"/>
	<path class="st0" d="M380,386.3c-1.5,0-2.9-0.2-4.1-0.8c-1.3-0.5-2.4-1.3-3.4-2.3l0.8-1.3c1,1,2.1,1.7,3.1,2.1
		c1.1,0.4,2.2,0.7,3.5,0.7c1.6,0,2.9-0.3,3.9-1s1.5-1.6,1.5-2.8c0-0.8-0.2-1.4-0.7-1.9s-1.1-0.8-2-1.1c-0.9-0.3-1.9-0.6-3.2-0.9
		c-1.3-0.3-2.4-0.7-3.2-1c-0.9-0.4-1.5-0.8-2-1.4s-0.6-1.4-0.6-2.3c0-1.2,0.3-2.2,0.9-3s1.4-1.4,2.5-1.8s2.2-0.6,3.5-0.6
		c1.5,0,2.7,0.2,3.8,0.7s1.9,1.1,2.5,1.9l-1,1.1c-0.6-0.8-1.4-1.3-2.3-1.7s-2-0.6-3.2-0.6c-0.9,0-1.7,0.1-2.5,0.4
		c-0.8,0.2-1.4,0.6-1.9,1.2c-0.5,0.5-0.7,1.3-0.7,2.2c0,0.7,0.2,1.3,0.5,1.7s0.9,0.7,1.6,1s1.6,0.5,2.6,0.8c1.5,0.4,2.7,0.7,3.8,1.1
		c1.1,0.4,1.9,0.9,2.5,1.5s0.9,1.5,0.9,2.6c0,1.7-0.6,3-1.9,4C383.8,385.8,382.1,386.3,380,386.3L380,386.3z"/>
	<path class="st0" d="M399.7,385.2c-0.1,0-0.4,0.2-0.7,0.4c-0.4,0.2-0.8,0.4-1.4,0.5c-0.5,0.2-1.2,0.2-1.8,0.2s-1.2-0.1-1.8-0.4
		c-0.6-0.2-1-0.6-1.4-1.1s-0.5-1.1-0.5-1.9v-14.2h-2.6v-1.5h2.6v-6.4h1.8v6.4h4.4v1.5h-4.4v13.8c0,0.7,0.3,1.2,0.8,1.6
		s1,0.5,1.6,0.5c0.7,0,1.4-0.1,1.9-0.4s0.9-0.4,1-0.5L399.7,385.2L399.7,385.2z"/>
	<path class="st0" d="M401.3,380.5c0-1.1,0.3-2.1,1-2.9s1.6-1.5,2.8-1.9s2.5-0.7,4.1-0.7c1,0,2,0.1,3,0.2s2,0.4,2.8,0.7v-1.8
		c0-1.7-0.5-3.1-1.5-4.1s-2.4-1.5-4.1-1.5c-0.9,0-1.9,0.2-2.9,0.6s-2,0.9-3.1,1.7l-0.8-1.3c1.2-0.8,2.4-1.4,3.5-1.9
		c1.1-0.4,2.3-0.6,3.4-0.6c2.2,0,4,0.7,5.3,2s1.9,3.1,1.9,5.4v9.2c0,0.3,0.1,0.5,0.2,0.6s0.3,0.2,0.6,0.2v1.5c-0.2,0-0.4,0-0.5,0
		h-0.4c-0.5-0.1-0.8-0.3-1.1-0.6c-0.2-0.3-0.4-0.7-0.4-1v-1.5c-0.9,1.1-2,1.9-3.3,2.5c-1.4,0.6-2.8,0.9-4.3,0.9
		c-1.2,0-2.2-0.2-3.2-0.8s-1.7-1.2-2.2-2.1S401.3,381.6,401.3,380.5L401.3,380.5z M414.2,382.1c0.2-0.3,0.4-0.6,0.5-0.9
		s0.2-0.5,0.2-0.8v-3.1c-0.9-0.3-1.8-0.6-2.7-0.8s-1.9-0.2-2.9-0.2c-1.9,0-3.4,0.4-4.5,1.1c-1.2,0.7-1.8,1.8-1.8,3
		c0,0.8,0.2,1.5,0.6,2.2s1,1.2,1.7,1.6s1.6,0.6,2.5,0.6c1.3,0,2.6-0.3,3.7-0.8C412.8,383.6,413.6,382.9,414.2,382.1z"/>
	<path class="st0" d="M422.9,392.3c0.4,0,0.7,0,1,0s0.5-0.1,0.7-0.2s0.4-0.3,0.7-0.6s0.5-0.9,0.9-1.8s0.9-2.2,1.6-3.9l-8.4-18.7h1.9
		l7.4,16.8l6.9-16.8h1.8l-10.3,24.6c-0.1,0.4-0.3,0.7-0.6,1s-0.6,0.5-0.9,0.7c-0.4,0.2-0.8,0.3-1.3,0.3c-0.2,0-0.4,0-0.7,0
		c-0.2,0-0.5,0-0.8,0L422.9,392.3L422.9,392.3z"/>
	<path class="st0" d="M446.5,386.3c-1.5,0-2.9-0.2-4.1-0.8c-1.3-0.5-2.4-1.3-3.4-2.3l0.8-1.3c1,1,2.1,1.7,3.1,2.1
		c1.1,0.4,2.2,0.7,3.5,0.7c1.6,0,2.9-0.3,3.9-1s1.5-1.6,1.5-2.8c0-0.8-0.2-1.4-0.7-1.9s-1.1-0.8-2-1.1c-0.9-0.3-1.9-0.6-3.2-0.9
		c-1.3-0.3-2.4-0.7-3.2-1c-0.9-0.4-1.5-0.8-2-1.4s-0.6-1.4-0.6-2.3c0-1.2,0.3-2.2,0.9-3s1.4-1.4,2.5-1.8s2.2-0.6,3.5-0.6
		c1.5,0,2.7,0.2,3.8,0.7s1.9,1.1,2.5,1.9l-1,1.1c-0.6-0.8-1.4-1.3-2.3-1.7s-2-0.6-3.2-0.6c-0.9,0-1.7,0.1-2.5,0.4
		c-0.8,0.2-1.4,0.6-1.9,1.2c-0.5,0.5-0.7,1.3-0.7,2.2c0,0.7,0.2,1.3,0.5,1.7s0.9,0.7,1.6,1s1.6,0.5,2.6,0.8c1.5,0.4,2.7,0.7,3.8,1.1
		c1.1,0.4,1.9,0.9,2.5,1.5s0.9,1.5,0.9,2.6c0,1.7-0.6,3-1.9,4C450.4,385.8,448.7,386.3,446.5,386.3L446.5,386.3z"/>
	<path class="st0" d="M38.6,423.7c0-1.1,0.3-2.1,1-2.9s1.6-1.5,2.8-1.9c1.2-0.5,2.5-0.7,4.1-0.7c1,0,2,0.1,3,0.2
		c1,0.2,2,0.4,2.8,0.7v-1.8c0-1.7-0.5-3.1-1.5-4.1s-2.4-1.5-4.1-1.5c-0.9,0-1.9,0.2-2.9,0.6s-2,0.9-3.1,1.7l-0.8-1.3
		c1.2-0.8,2.4-1.4,3.5-1.9s2.3-0.6,3.4-0.6c2.2,0,4,0.7,5.3,2s1.9,3.1,1.9,5.4v9.2c0,0.3,0.1,0.5,0.2,0.6c0.1,0.1,0.3,0.2,0.6,0.2
		v1.5c-0.2,0-0.4,0-0.5,0h-0.4c-0.5-0.1-0.8-0.3-1.1-0.6c-0.2-0.3-0.4-0.7-0.4-1V426c-0.9,1.1-2,1.9-3.3,2.5s-2.8,0.9-4.3,0.9
		c-1.2,0-2.2-0.2-3.2-0.8s-1.7-1.2-2.2-2.1S38.6,424.8,38.6,423.7L38.6,423.7z M51.5,425.3c0.2-0.3,0.4-0.6,0.5-0.9s0.2-0.5,0.2-0.8
		v-3.1c-0.9-0.3-1.8-0.6-2.7-0.8c-0.9-0.2-1.9-0.2-2.9-0.2c-1.9,0-3.4,0.4-4.5,1.1s-1.8,1.8-1.8,3c0,0.8,0.2,1.5,0.6,2.2
		s1,1.2,1.7,1.6s1.6,0.6,2.5,0.6c1.3,0,2.6-0.3,3.7-0.8C50,426.8,50.9,426.1,51.5,425.3z"/>
	<path class="st0" d="M67.7,428.4c-0.1,0-0.4,0.2-0.7,0.4c-0.4,0.2-0.8,0.4-1.4,0.5s-1.2,0.2-1.8,0.2s-1.2-0.1-1.8-0.4
		c-0.6-0.2-1-0.6-1.3-1.1s-0.5-1.1-0.5-1.9v-14.2h-2.6v-1.5h2.6V404H62v6.4h4.4v1.5H62v13.8c0,0.7,0.3,1.2,0.8,1.6s1,0.5,1.6,0.5
		c0.7,0,1.4-0.1,1.9-0.4s0.9-0.4,1-0.5L67.7,428.4L67.7,428.4z"/>
	<path class="st0" d="M88.4,428.4c-0.1,0-0.4,0.2-0.7,0.4c-0.4,0.2-0.8,0.4-1.4,0.5s-1.2,0.2-1.8,0.2s-1.2-0.1-1.8-0.4
		c-0.6-0.2-1-0.6-1.3-1.1s-0.5-1.1-0.5-1.9v-14.2h-2.6v-1.5h2.6V404h1.8v6.4H87v1.5h-4.4v13.8c0.1,0.7,0.3,1.2,0.8,1.6
		s1,0.5,1.6,0.5c0.7,0,1.4-0.1,1.9-0.4s0.9-0.4,1-0.5L88.4,428.4L88.4,428.4z"/>
	<path class="st0" d="M106.9,429.1h-1.8v-10.4c0-2.3-0.4-4-1.2-5.2s-1.9-1.7-3.5-1.7c-1,0-2,0.2-2.9,0.8c-1,0.5-1.8,1.2-2.6,2.1
		s-1.2,1.9-1.6,3v11.5h-1.8v-26.3h1.8V415c0.8-1.5,1.8-2.6,3.2-3.5s2.8-1.3,4.4-1.3c1.1,0,2,0.2,2.7,0.6s1.4,0.9,1.8,1.6
		c0.5,0.7,0.8,1.6,1.1,2.6c0.2,1,0.3,2.1,0.3,3.4L106.9,429.1L106.9,429.1z"/>
	<path class="st0" d="M120.3,429.5c-1.3,0-2.5-0.3-3.7-0.8c-1.1-0.5-2.1-1.2-2.9-2.1s-1.5-1.9-1.9-3.1c-0.5-1.2-0.7-2.4-0.7-3.8
		c0-1.8,0.4-3.4,1.2-4.8s1.9-2.6,3.3-3.5s2.9-1.3,4.7-1.3s3.3,0.4,4.7,1.3c1.4,0.9,2.4,2,3.3,3.5c0.8,1.5,1.2,3,1.2,4.8v0.4
		c0,0.1,0,0.3,0,0.4H113c0.1,1.4,0.5,2.7,1.2,3.8c0.7,1.1,1.6,2,2.7,2.7s2.3,1,3.6,1s2.5-0.3,3.7-1s2-1.5,2.4-2.6l1.6,0.4
		c-0.4,0.9-0.9,1.7-1.7,2.4s-1.7,1.2-2.7,1.6C122.6,429.3,121.5,429.5,120.3,429.5L120.3,429.5z M112.9,419.1h14.8
		c-0.1-1.5-0.5-2.8-1.2-3.9s-1.6-2-2.7-2.6s-2.3-1-3.6-1s-2.5,0.3-3.6,1c-1.1,0.6-2,1.5-2.6,2.6S113,417.7,112.9,419.1z"/>
	<path class="st0" d="M143.1,429.1v-25.6h1.8v25.6H143.1z"/>
	<path class="st0" d="M166.4,429.1h-1.8v-10.4c0-2.4-0.3-4.1-1-5.2s-1.8-1.7-3.3-1.7c-1.1,0-2.1,0.2-3.1,0.8s-1.9,1.2-2.7,2.1
		s-1.3,1.9-1.6,3v11.5h-1.8v-18.7h1.7v4.5c0.5-1,1.2-1.8,2-2.5s1.8-1.3,2.8-1.7s2.1-0.6,3.2-0.6c1,0,1.9,0.2,2.6,0.6
		s1.3,0.9,1.7,1.6s0.8,1.5,0.9,2.6s0.3,2.2,0.3,3.5L166.4,429.1L166.4,429.1z"/>
	<path class="st0" d="M187.2,429.1h-1.8v-10.4c0-2.4-0.3-4.1-1-5.2s-1.8-1.7-3.3-1.7c-1.1,0-2.1,0.2-3.1,0.8s-1.9,1.2-2.7,2.1
		s-1.3,1.9-1.6,3v11.5h-1.8v-18.7h1.7v4.5c0.5-1,1.2-1.8,2-2.5s1.8-1.3,2.8-1.7s2.1-0.6,3.2-0.6c1,0,1.9,0.2,2.6,0.6
		s1.3,0.9,1.7,1.6s0.8,1.5,0.9,2.6s0.3,2.2,0.3,3.5L187.2,429.1L187.2,429.1z"/>
	<path class="st0" d="M200.3,423.7c0-1.1,0.3-2.1,1-2.9s1.6-1.5,2.8-1.9c1.2-0.5,2.5-0.7,4.1-0.7c1,0,2,0.1,3,0.2s2,0.4,2.8,0.7
		v-1.8c0-1.7-0.5-3.1-1.5-4.1s-2.4-1.5-4.1-1.5c-0.9,0-1.9,0.2-2.9,0.6s-2,0.9-3.1,1.7l-0.8-1.3c1.2-0.8,2.4-1.4,3.6-1.9
		s2.3-0.6,3.4-0.6c2.2,0,4,0.7,5.3,2s1.9,3.1,1.9,5.4v9.2c0,0.3,0.1,0.5,0.2,0.6c0.1,0.1,0.3,0.2,0.6,0.2v1.5c-0.2,0-0.4,0-0.5,0
		h-0.4c-0.5-0.1-0.8-0.3-1.1-0.6c-0.2-0.3-0.4-0.7-0.4-1V426c-0.9,1.1-2,1.9-3.3,2.5s-2.8,0.9-4.3,0.9c-1.2,0-2.2-0.2-3.2-0.8
		s-1.7-1.2-2.2-2.1S200.3,424.8,200.3,423.7L200.3,423.7z M213.2,425.3c0.2-0.3,0.4-0.6,0.5-0.9s0.2-0.5,0.2-0.8v-3.1
		c-0.9-0.3-1.8-0.6-2.7-0.8s-1.9-0.2-2.9-0.2c-1.9,0-3.4,0.4-4.6,1.1s-1.8,1.8-1.8,3c0,0.8,0.2,1.5,0.6,2.2s1,1.2,1.7,1.6
		s1.6,0.6,2.5,0.6c1.3,0,2.6-0.3,3.7-0.8C211.8,426.8,212.6,426.1,213.2,425.3L213.2,425.3z"/>
	<path class="st0" d="M229.4,428.4c-0.1,0-0.4,0.2-0.7,0.4c-0.4,0.2-0.8,0.4-1.4,0.5s-1.2,0.2-1.8,0.2s-1.2-0.1-1.8-0.4
		c-0.6-0.2-1-0.6-1.4-1.1c-0.3-0.5-0.5-1.1-0.5-1.9v-14.2h-2.6v-1.5h2.6V404h1.8v6.4h4.4v1.5h-4.4v13.8c0.1,0.7,0.3,1.2,0.8,1.6
		s1,0.5,1.6,0.5c0.7,0,1.4-0.1,1.9-0.4s0.9-0.4,1-0.5L229.4,428.4L229.4,428.4z"/>
	<path class="st0" d="M262.1,403.6v25.6h-1.8V417h-16.1v12.2h-1.8v-25.6h1.8v11.7h16.1v-11.7H262.1z"/>
	<path class="st0" d="M266.5,423.7c0-1.1,0.3-2.1,1-2.9s1.6-1.5,2.8-1.9s2.5-0.7,4.1-0.7c1,0,2,0.1,3,0.2s2,0.4,2.8,0.7v-1.8
		c0-1.7-0.5-3.1-1.5-4.1s-2.4-1.5-4.1-1.5c-0.9,0-1.9,0.2-2.9,0.6s-2,0.9-3.1,1.7l-0.8-1.3c1.2-0.8,2.4-1.4,3.5-1.9
		c1.1-0.4,2.3-0.6,3.4-0.6c2.2,0,4,0.7,5.3,2s1.9,3.1,1.9,5.4v9.2c0,0.3,0.1,0.5,0.2,0.6s0.3,0.2,0.6,0.2v1.5c-0.2,0-0.4,0-0.5,0
		h-0.4c-0.5-0.1-0.8-0.3-1.1-0.6c-0.2-0.3-0.4-0.7-0.4-1V426c-0.9,1.1-2,1.9-3.3,2.5c-1.4,0.6-2.8,0.9-4.3,0.9
		c-1.2,0-2.2-0.2-3.2-0.8s-1.7-1.2-2.2-2.1S266.5,424.8,266.5,423.7L266.5,423.7z M279.4,425.3c0.2-0.3,0.4-0.6,0.5-0.9
		s0.2-0.5,0.2-0.8v-3.1c-0.9-0.3-1.8-0.6-2.7-0.8s-1.9-0.2-2.9-0.2c-1.9,0-3.4,0.4-4.5,1.1c-1.2,0.7-1.8,1.8-1.8,3
		c0,0.8,0.2,1.5,0.6,2.2s1,1.2,1.7,1.6s1.6,0.6,2.5,0.6c1.3,0,2.6-0.3,3.7-0.8C278,426.8,278.9,426.1,279.4,425.3z"/>
	<path class="st0" d="M293.3,429.5c-1.5,0-2.9-0.2-4.1-0.8c-1.3-0.5-2.4-1.3-3.4-2.3l0.8-1.3c1,1,2.1,1.7,3.1,2.1
		c1.1,0.4,2.2,0.7,3.5,0.7c1.6,0,2.9-0.3,3.9-1s1.5-1.6,1.5-2.8c0-0.8-0.2-1.4-0.7-1.9s-1.1-0.8-2-1.1c-0.9-0.3-1.9-0.6-3.2-0.9
		c-1.3-0.3-2.4-0.7-3.2-1c-0.9-0.4-1.5-0.8-2-1.4s-0.6-1.4-0.6-2.3c0-1.2,0.3-2.2,0.9-3s1.4-1.4,2.5-1.8s2.2-0.6,3.5-0.6
		c1.5,0,2.7,0.2,3.8,0.7s1.9,1.1,2.5,1.9l-1,1.1c-0.6-0.8-1.4-1.3-2.3-1.7s-2-0.6-3.2-0.6c-0.9,0-1.7,0.1-2.5,0.4
		c-0.8,0.2-1.4,0.6-1.9,1.2c-0.5,0.5-0.7,1.3-0.7,2.2c0,0.7,0.2,1.3,0.5,1.7s0.9,0.7,1.6,1s1.6,0.5,2.6,0.8c1.5,0.4,2.7,0.7,3.8,1.1
		c1.1,0.4,1.9,0.9,2.5,1.5s0.9,1.5,0.9,2.6c0,1.7-0.6,3-1.9,4C297.2,429,295.4,429.5,293.3,429.5L293.3,429.5z"/>
	<path class="st0" d="M313,428.4c-0.1,0-0.4,0.2-0.7,0.4c-0.4,0.2-0.8,0.4-1.4,0.5c-0.5,0.2-1.2,0.2-1.8,0.2s-1.2-0.1-1.8-0.4
		c-0.6-0.2-1-0.6-1.4-1.1s-0.5-1.1-0.5-1.9v-14.2h-2.6v-1.5h2.6V404h1.8v6.4h4.4v1.5h-4.4v13.8c0,0.7,0.3,1.2,0.8,1.6s1,0.5,1.6,0.5
		c0.7,0,1.4-0.1,1.9-0.4s0.9-0.4,1-0.5L313,428.4L313,428.4z"/>
	<path class="st0" d="M316.2,406.1v-3.3h1.8v3.3H316.2z M316.2,429.1v-18.7h1.8v18.7H316.2z"/>
	<path class="st0" d="M338.9,429.1h-1.8v-10.4c0-2.4-0.3-4.1-1-5.2s-1.8-1.7-3.3-1.7c-1.1,0-2.1,0.2-3.1,0.8s-1.9,1.2-2.7,2.1
		c-0.8,0.9-1.3,1.9-1.6,3v11.5h-1.8v-18.7h1.7v4.5c0.5-1,1.2-1.8,2-2.5s1.8-1.3,2.8-1.7s2.1-0.6,3.2-0.6c1,0,1.9,0.2,2.6,0.6
		s1.3,0.9,1.7,1.6c0.4,0.7,0.8,1.5,1,2.6s0.3,2.2,0.3,3.5L338.9,429.1L338.9,429.1z"/>
	<path class="st0" d="M351.9,429.5c-1.3,0-2.5-0.3-3.5-0.8c-1.1-0.5-2-1.2-2.8-2.2c-0.8-0.9-1.4-2-1.8-3.1s-0.7-2.3-0.7-3.5
		s0.2-2.5,0.6-3.7s1-2.2,1.8-3.1s1.7-1.6,2.8-2.1c1.1-0.5,2.2-0.8,3.5-0.8c1.6,0,3,0.4,4.3,1.3c1.2,0.8,2.2,1.9,3.1,3.1v-4.1h1.7v19
		c0,1.7-0.4,3.1-1.2,4.2c-0.8,1.1-1.9,2-3.2,2.6s-2.8,0.8-4.4,0.8c-2.2,0-3.9-0.4-5.2-1.2s-2.3-1.8-3.1-3.1l1.2-0.8
		c0.7,1.2,1.8,2.2,3,2.8c1.3,0.6,2.6,0.9,4.1,0.9c1.3,0,2.4-0.2,3.5-0.7s1.9-1.1,2.6-2.1c0.6-0.9,1-2,1-3.4v-4.1
		c-0.7,1.2-1.8,2.2-3,2.9C354.7,429.1,353.3,429.5,351.9,429.5L351.9,429.5z M352.4,427.9c0.8,0,1.6-0.1,2.3-0.4s1.4-0.7,2-1.2
		s1.1-1,1.5-1.6s0.6-1.2,0.7-1.8v-6.2c-0.4-1-0.9-1.8-1.6-2.6c-0.7-0.8-1.5-1.3-2.5-1.8c-0.9-0.4-1.9-0.6-2.8-0.6
		c-1.1,0-2.1,0.2-3,0.7s-1.6,1.1-2.2,1.9s-1.1,1.7-1.4,2.6s-0.5,1.9-0.5,2.9c0,1.1,0.2,2.1,0.6,3.1s0.9,1.8,1.6,2.6
		c0.7,0.8,1.5,1.3,2.4,1.8S351.3,427.9,352.4,427.9L352.4,427.9z"/>
	<path class="st0" d="M372.3,429.5c-1.5,0-2.9-0.2-4.1-0.8c-1.3-0.5-2.4-1.3-3.4-2.3l0.8-1.3c1,1,2.1,1.7,3.1,2.1
		c1.1,0.4,2.2,0.7,3.5,0.7c1.6,0,2.9-0.3,3.9-1s1.5-1.6,1.5-2.8c0-0.8-0.2-1.4-0.7-1.9s-1.1-0.8-2-1.1c-0.9-0.3-1.9-0.6-3.2-0.9
		c-1.3-0.3-2.4-0.7-3.2-1c-0.9-0.4-1.5-0.8-2-1.4s-0.6-1.4-0.6-2.3c0-1.2,0.3-2.2,0.9-3s1.4-1.4,2.5-1.8s2.2-0.6,3.5-0.6
		c1.5,0,2.7,0.2,3.8,0.7s1.9,1.1,2.5,1.9l-1,1.1c-0.6-0.8-1.4-1.3-2.3-1.7s-2-0.6-3.2-0.6c-0.9,0-1.7,0.1-2.5,0.4
		c-0.8,0.2-1.4,0.6-1.9,1.2c-0.5,0.5-0.7,1.3-0.7,2.2c0,0.7,0.2,1.3,0.5,1.7s0.9,0.7,1.6,1s1.6,0.5,2.6,0.8c1.5,0.4,2.7,0.7,3.8,1.1
		c1.1,0.4,1.9,0.9,2.5,1.5s0.9,1.5,0.9,2.6c0,1.7-0.6,3-1.9,4C376.1,429,374.4,429.5,372.3,429.5L372.3,429.5z"/>
	<path class="st0" d="M393.4,429.1v-25.6H404c1.1,0,2.1,0.2,3,0.7s1.7,1.1,2.4,1.8c0.7,0.8,1.2,1.6,1.6,2.5s0.6,1.9,0.6,2.9
		c0,1.4-0.3,2.7-0.9,3.9c-0.6,1.2-1.5,2.2-2.5,3c-1.1,0.8-2.3,1.1-3.8,1.1h-8.9v9.6h-2.1V429.1z M395.3,417.8h8.8
		c1.1,0,2.1-0.3,2.9-0.9s1.4-1.4,1.9-2.3s0.6-2,0.6-3.1s-0.3-2.2-0.8-3.1c-0.5-1-1.2-1.7-2-2.3c-0.9-0.6-1.8-0.9-2.8-0.9h-8.6V417.8
		L395.3,417.8z"/>
	<path class="st0" d="M413.5,423.7c0-1.1,0.3-2.1,1-2.9s1.6-1.5,2.8-1.9s2.5-0.7,4.1-0.7c1,0,2,0.1,3,0.2s2,0.4,2.8,0.7v-1.8
		c0-1.7-0.5-3.1-1.5-4.1s-2.4-1.5-4.1-1.5c-0.9,0-1.9,0.2-2.9,0.6s-2,0.9-3.1,1.7l-0.8-1.3c1.2-0.8,2.4-1.4,3.5-1.9
		c1.1-0.4,2.3-0.6,3.4-0.6c2.2,0,4,0.7,5.3,2s1.9,3.1,1.9,5.4v9.2c0,0.3,0.1,0.5,0.2,0.6s0.3,0.2,0.6,0.2v1.5c-0.2,0-0.4,0-0.5,0
		h-0.4c-0.5-0.1-0.8-0.3-1.1-0.6c-0.2-0.3-0.4-0.7-0.4-1V426c-0.9,1.1-2,1.9-3.3,2.5c-1.4,0.6-2.8,0.9-4.3,0.9
		c-1.2,0-2.2-0.2-3.2-0.8s-1.7-1.2-2.2-2.1S413.5,424.8,413.5,423.7L413.5,423.7z M426.4,425.3c0.2-0.3,0.4-0.6,0.5-0.9
		s0.2-0.5,0.2-0.8v-3.1c-0.9-0.3-1.8-0.6-2.7-0.8s-1.9-0.2-2.9-0.2c-1.9,0-3.4,0.4-4.5,1.1c-1.2,0.7-1.8,1.8-1.8,3
		c0,0.8,0.2,1.5,0.6,2.2s1,1.2,1.7,1.6s1.6,0.6,2.5,0.6c1.3,0,2.6-0.3,3.7-0.8C425,426.8,425.8,426.1,426.4,425.3z"/>
	<path class="st0" d="M443.3,412c-1.7,0-3.1,0.5-4.4,1.5s-2.1,2.2-2.6,3.9v11.7h-1.8v-18.7h1.7v4.6c0.6-1.3,1.5-2.4,2.6-3.2
		s2.2-1.3,3.4-1.4c0.2,0,0.5,0,0.6,0h0.5L443.3,412L443.3,412z"/>
	<path class="st0" d="M460.2,429.1l-7.3-10l-4.4,4.1v5.9h-1.8v-26.3h1.8v18.3l11.4-10.7h2l-7.8,7.6l8.1,11.1H460.2L460.2,429.1z"/>
</g>
<path class="st1" d="M230.2,150.8c0-32.7,15.5-61.8,39.5-80.3c-56,0-101.4,45.5-101.4,101.5s45.4,101.5,101.5,101.5
	c23.4,0,44.9-7.9,62-21.2l0,0C275.7,252.2,230.2,206.8,230.2,150.8z"/>
</svg>
