<?xml version="1.0" encoding="utf-8"?>
<!-- Generator: Adobe Illustrator 26.5.0, SVG Export Plug-In . SVG Version: 6.00 Build 0)  -->
<svg version="1.1" id="Capa_1" xmlns="http://www.w3.org/2000/svg" xmlns:xlink="http://www.w3.org/1999/xlink" x="0px" y="0px"
	 viewBox="0 0 500 500" style="enable-background:new 0 0 500 500;" xml:space="preserve">
<style type="text/css">
	.st0{fill:#385072;}
	.st1{fill:#FFFFFF;}
</style>
<path class="st0" d="M449,32.8H47.6c-6.6,0-12,5.4-12,12V306c0,6.6,5.4,12,12,12h402.6c6.6,0,12-5.4,12-12V45.9
	C462.2,38.7,456.3,32.8,449,32.8z"/>
<g>
	<path class="st0" d="M49.8,385.6V360h10.6c1.1,0,2.1,0.2,3,0.7s1.7,1.1,2.3,1.8s1.2,1.6,1.6,2.5s0.6,1.9,0.6,2.9
		c0,1.3-0.2,2.5-0.8,3.6c-0.5,1.1-1.2,2-2.1,2.8s-2,1.2-3.2,1.4l6.4,9.9h-2.1l-6.2-9.6h-8.3v9.6C51.6,385.6,49.8,385.6,49.8,385.6z
		 M51.7,374.3h9c1.1,0,2.1-0.3,2.9-0.9c0.8-0.6,1.5-1.4,1.9-2.3s0.7-2,0.7-3.1s-0.3-2.1-0.8-3.1c-0.5-1-1.2-1.7-2-2.3
		c-0.8-0.6-1.8-0.9-2.9-0.9h-8.7L51.7,374.3L51.7,374.3z"/>
	<path class="st0" d="M78.2,386c-1.3,0-2.5-0.3-3.7-0.8c-1.1-0.5-2.1-1.2-2.9-2.1c-0.8-0.9-1.5-1.9-1.9-3.1
		c-0.5-1.2-0.7-2.4-0.7-3.8c0-1.8,0.4-3.4,1.2-4.8s1.9-2.6,3.3-3.5c1.4-0.9,2.9-1.3,4.7-1.3s3.3,0.4,4.7,1.3c1.4,0.9,2.4,2,3.3,3.5
		c0.8,1.5,1.2,3,1.2,4.8v0.4c0,0.1,0,0.3,0,0.4H70.9c0.1,1.4,0.5,2.7,1.2,3.8c0.7,1.1,1.6,2,2.7,2.7c1.1,0.7,2.3,1,3.6,1
		s2.5-0.3,3.7-1s2-1.5,2.4-2.6l1.6,0.4c-0.4,0.9-0.9,1.7-1.7,2.4s-1.7,1.2-2.7,1.6C80.5,385.8,79.4,386,78.2,386L78.2,386z
		 M70.8,375.6h14.8c-0.1-1.5-0.5-2.8-1.2-3.9s-1.6-2-2.7-2.6c-1.1-0.6-2.3-1-3.6-1s-2.5,0.3-3.6,1c-1.1,0.6-2,1.5-2.6,2.6
		S70.9,374.1,70.8,375.6z"/>
	<path class="st0" d="M88.2,376.3c0-1.8,0.4-3.4,1.1-4.8c0.7-1.5,1.8-2.6,3.1-3.5s2.8-1.3,4.4-1.3s3.1,0.4,4.3,1.3
		c1.3,0.9,2.2,1.9,3,3.1v-11.7h1.8v23.9c0,0.3,0.1,0.5,0.2,0.6c0.1,0.1,0.3,0.2,0.6,0.2v1.5c-0.4,0-0.7,0.1-0.9,0
		c-0.4-0.1-0.8-0.3-1.1-0.6c-0.3-0.3-0.4-0.7-0.4-1.1v-2.1c-0.8,1.2-1.8,2.2-3.1,3c-1.3,0.7-2.6,1.1-4,1.1c-1.3,0-2.5-0.3-3.6-0.8
		s-2.1-1.3-2.9-2.2s-1.4-1.9-1.9-3.1C88.4,378.8,88.2,377.6,88.2,376.3L88.2,376.3z M104.1,379.3v-6.1c-0.3-0.9-0.9-1.7-1.6-2.5
		c-0.7-0.8-1.6-1.4-2.5-1.8c-0.9-0.4-1.9-0.7-2.8-0.7c-1.1,0-2.1,0.2-2.9,0.7c-0.9,0.5-1.6,1.1-2.3,1.8c-0.6,0.8-1.1,1.6-1.5,2.6
		s-0.5,2-0.5,3s0.2,2.1,0.6,3s0.9,1.8,1.6,2.6s1.5,1.3,2.4,1.8s1.9,0.6,2.9,0.6c0.7,0,1.3-0.1,2.1-0.4s1.4-0.6,2.1-1.1
		c0.7-0.5,1.2-1,1.7-1.6C103.7,380.7,104,380,104.1,379.3L104.1,379.3z"/>
	<path class="st0" d="M117.7,386c-1.3,0-2.5-0.3-3.7-0.8c-1.1-0.5-2.1-1.2-2.9-2.1c-0.8-0.9-1.5-1.9-1.9-3.1
		c-0.5-1.2-0.7-2.4-0.7-3.8c0-1.8,0.4-3.4,1.2-4.8s1.9-2.6,3.3-3.5c1.4-0.9,2.9-1.3,4.7-1.3s3.3,0.4,4.7,1.3c1.4,0.9,2.4,2,3.3,3.5
		c0.8,1.5,1.2,3,1.2,4.8v0.4c0,0.1,0,0.3,0,0.4h-16.4c0.1,1.4,0.5,2.7,1.2,3.8c0.7,1.1,1.6,2,2.7,2.7c1.1,0.7,2.3,1,3.6,1
		s2.5-0.3,3.7-1s2-1.5,2.4-2.6l1.6,0.4c-0.4,0.9-0.9,1.7-1.7,2.4s-1.7,1.2-2.7,1.6C120,385.8,118.9,386,117.7,386L117.7,386z
		 M110.3,375.6h14.8c-0.1-1.5-0.5-2.8-1.2-3.9s-1.6-2-2.7-2.6c-1.1-0.6-2.3-1-3.6-1s-2.5,0.3-3.6,1c-1.1,0.6-2,1.5-2.6,2.6
		S110.4,374.1,110.3,375.6z"/>
	<path class="st0" d="M136.9,386c-1.3,0-2.5-0.3-3.7-0.8c-1.1-0.5-2.1-1.2-2.9-2.1c-0.8-0.9-1.5-1.9-1.9-3.1
		c-0.5-1.2-0.7-2.4-0.7-3.8c0-1.8,0.4-3.4,1.2-4.8s1.9-2.6,3.3-3.5c1.4-0.9,2.9-1.3,4.7-1.3s3.4,0.4,4.7,1.3c1.4,0.9,2.4,2,3.3,3.5
		c0.8,1.5,1.2,3,1.2,4.8v0.4c0,0.1,0,0.3,0,0.4h-16.4c0.1,1.4,0.5,2.7,1.2,3.8c0.7,1.1,1.6,2,2.7,2.7s2.3,1,3.6,1s2.5-0.3,3.7-1
		s2-1.5,2.4-2.6l1.6,0.4c-0.4,0.9-0.9,1.7-1.7,2.4c-0.8,0.7-1.7,1.2-2.7,1.6C139.2,385.8,138.1,386,136.9,386L136.9,386z
		 M129.5,375.6h14.8c-0.1-1.5-0.5-2.8-1.1-3.9s-1.6-2-2.6-2.6c-1.1-0.6-2.3-1-3.6-1s-2.5,0.3-3.6,1c-1.1,0.6-2,1.5-2.6,2.6
		S129.6,374.1,129.5,375.6L129.5,375.6z"/>
	<path class="st0" d="M175.7,385.6h-1.8v-10.4c0-2.4-0.4-4.1-1.1-5.2c-0.7-1.1-1.9-1.7-3.4-1.7s-2.9,0.5-4.1,1.6s-2,2.5-2.5,4.2
		v11.5H161v-10.4c0-2.4-0.4-4.1-1.1-5.2s-1.8-1.7-3.4-1.7s-2.9,0.5-4.1,1.6s-2,2.5-2.5,4.2v11.5h-1.8v-18.7h1.7v4.5
		c0.8-1.5,1.8-2.7,3.1-3.5c1.2-0.8,2.6-1.2,4.1-1.2s2.8,0.5,3.8,1.4c1,0.9,1.6,2.1,1.8,3.7c0.9-1.7,1.9-2.9,3.2-3.8
		c1.2-0.9,2.6-1.3,4.2-1.3c1,0,1.9,0.2,2.6,0.6s1.3,0.9,1.8,1.6c0.5,0.7,0.8,1.6,1,2.6c0.2,1,0.3,2.2,0.3,3.5L175.7,385.6
		L175.7,385.6z"/>
	<path class="st0" d="M187.3,385.6V360h10.5c1.1,0,2.1,0.2,3,0.7s1.7,1.1,2.4,1.8s1.2,1.6,1.6,2.5c0.4,0.9,0.6,1.9,0.6,2.9
		c0,1.4-0.3,2.7-0.9,3.9s-1.4,2.2-2.5,3s-2.3,1.1-3.8,1.1h-8.9v9.6H187.3z M189.1,374.3h8.8c1.1,0,2.1-0.3,2.9-0.9
		c0.8-0.6,1.4-1.4,1.9-2.3s0.6-2,0.6-3.1s-0.3-2.2-0.8-3.1c-0.5-1-1.2-1.7-2.1-2.3s-1.8-0.9-2.8-0.9h-8.6L189.1,374.3L189.1,374.3z"
		/>
	<path class="st0" d="M214.8,386c-1.3,0-2.5-0.2-3.6-0.8c-1.1-0.5-2.1-1.2-2.9-2.1c-0.8-0.9-1.4-1.9-1.9-3.1s-0.7-2.4-0.7-3.7
		s0.2-2.5,0.7-3.7s1.1-2.2,1.9-3.1s1.8-1.6,2.9-2.1c1.1-0.5,2.3-0.8,3.6-0.8s2.5,0.3,3.6,0.8c1.1,0.5,2.1,1.2,2.9,2.1
		s1.5,1.9,1.9,3.1c0.5,1.2,0.7,2.4,0.7,3.7s-0.2,2.5-0.7,3.7c-0.5,1.2-1.1,2.2-1.9,3.1s-1.8,1.6-2.9,2.1S216.1,386,214.8,386
		L214.8,386z M207.5,376.4c0,1.5,0.3,2.8,1,4s1.5,2.2,2.6,2.9c1.1,0.7,2.3,1.1,3.7,1.1s2.6-0.4,3.7-1.1s2-1.7,2.7-2.9s1-2.6,1-4
		s-0.3-2.8-1-4s-1.6-2.2-2.7-2.9c-1.1-0.7-2.3-1.1-3.6-1.1s-2.6,0.4-3.7,1.1c-1.1,0.7-2,1.7-2.7,2.9S207.5,374.9,207.5,376.4
		L207.5,376.4z"/>
	<path class="st0" d="M226.5,362.6v-3.3h1.8v3.3H226.5z M226.5,385.6v-18.7h1.8v18.7H226.5z"/>
	<path class="st0" d="M247.4,385.6h-1.8v-10.4c0-2.4-0.3-4.1-1-5.2c-0.7-1.1-1.8-1.7-3.3-1.7c-1.1,0-2.1,0.2-3.1,0.8
		s-1.9,1.2-2.7,2.1c-0.8,0.9-1.3,1.9-1.6,3v11.5h-1.8v-18.7h1.7v4.5c0.5-1,1.2-1.8,2-2.5c0.8-0.7,1.8-1.3,2.8-1.7s2.1-0.6,3.2-0.6
		c1,0,1.9,0.2,2.6,0.6s1.3,0.9,1.7,1.6c0.4,0.7,0.8,1.5,0.9,2.6s0.3,2.2,0.3,3.5L247.4,385.6L247.4,385.6z"/>
	<path class="st0" d="M259.2,384.9c-0.1,0-0.4,0.2-0.7,0.4c-0.4,0.2-0.8,0.4-1.4,0.5c-0.5,0.2-1.2,0.2-1.8,0.2s-1.2-0.1-1.8-0.4
		c-0.6-0.2-1-0.6-1.4-1.1c-0.3-0.5-0.5-1.1-0.5-1.9v-14.2H249v-1.5h2.6v-6.4h1.8v6.4h4.4v1.5h-4.4v13.8c0.1,0.7,0.3,1.2,0.8,1.6
		c0.5,0.4,1,0.5,1.6,0.5c0.7,0,1.4-0.1,1.9-0.4s0.9-0.4,1-0.5L259.2,384.9L259.2,384.9z"/>
	<path class="st0" d="M266.5,386c-1.5,0-2.9-0.2-4.1-0.8c-1.3-0.5-2.4-1.3-3.4-2.3l0.8-1.3c1,1,2.1,1.7,3.1,2.1
		c1.1,0.4,2.2,0.7,3.5,0.7c1.6,0,2.9-0.3,3.9-1s1.5-1.6,1.5-2.8c0-0.8-0.2-1.4-0.7-1.9s-1.1-0.8-2-1.1c-0.9-0.3-1.9-0.6-3.2-0.9
		c-1.3-0.3-2.4-0.7-3.2-1c-0.9-0.4-1.5-0.8-2-1.4s-0.6-1.4-0.6-2.3c0-1.2,0.3-2.2,0.9-3c0.6-0.8,1.4-1.4,2.5-1.8s2.2-0.6,3.5-0.6
		c1.5,0,2.7,0.2,3.8,0.7s1.9,1.1,2.5,1.9l-1,1.1c-0.6-0.8-1.4-1.3-2.3-1.7s-2-0.6-3.2-0.6c-0.9,0-1.7,0.1-2.5,0.4
		c-0.8,0.2-1.4,0.6-1.9,1.2c-0.5,0.5-0.7,1.3-0.7,2.2c0,0.7,0.2,1.3,0.5,1.7s0.9,0.7,1.6,1s1.6,0.5,2.6,0.8c1.5,0.4,2.7,0.7,3.8,1.1
		c1.1,0.4,1.9,0.9,2.5,1.5c0.6,0.6,0.9,1.5,0.9,2.6c0,1.7-0.6,3-1.9,4C270.4,385.5,268.7,386,266.5,386L266.5,386z"/>
	<path class="st0" d="M282,380.2c0-1.1,0.3-2.1,1-2.9c0.7-0.8,1.6-1.5,2.8-1.9s2.5-0.7,4.1-0.7c1,0,2,0.1,3,0.2s2,0.4,2.8,0.7v-1.8
		c0-1.7-0.5-3.1-1.5-4.1c-1-1-2.4-1.5-4.1-1.5c-0.9,0-1.9,0.2-2.9,0.6s-2,0.9-3.1,1.7l-0.8-1.3c1.2-0.8,2.4-1.4,3.5-1.9
		c1.1-0.4,2.3-0.6,3.4-0.6c2.2,0,4,0.7,5.3,2s1.9,3.1,1.9,5.4v9.2c0,0.3,0.1,0.5,0.2,0.6c0.1,0.1,0.3,0.2,0.6,0.2v1.5
		c-0.2,0-0.4,0-0.5,0h-0.4c-0.5-0.1-0.8-0.3-1.1-0.6c-0.2-0.3-0.4-0.7-0.4-1v-1.5c-0.9,1.1-2,1.9-3.3,2.5c-1.4,0.6-2.8,0.9-4.3,0.9
		c-1.2,0-2.2-0.2-3.2-0.8s-1.7-1.2-2.2-2.1S282,381.3,282,380.2L282,380.2z M294.9,381.8c0.2-0.3,0.4-0.6,0.5-0.9s0.2-0.5,0.2-0.8
		V377c-0.9-0.3-1.8-0.6-2.7-0.8S291,376,290,376c-1.9,0-3.4,0.4-4.5,1.1c-1.2,0.7-1.8,1.8-1.8,3c0,0.8,0.2,1.5,0.6,2.2
		c0.4,0.7,1,1.2,1.7,1.6s1.6,0.6,2.5,0.6c1.3,0,2.6-0.3,3.7-0.8C293.4,383.2,294.3,382.6,294.9,381.8z"/>
	<path class="st0" d="M307,386c-1.5,0-2.9-0.2-4.1-0.8c-1.3-0.5-2.4-1.3-3.4-2.3l0.8-1.3c1,1,2.1,1.7,3.1,2.1
		c1.1,0.4,2.2,0.7,3.5,0.7c1.6,0,2.9-0.3,3.9-1s1.5-1.6,1.5-2.8c0-0.8-0.2-1.4-0.7-1.9s-1.1-0.8-2-1.1c-0.9-0.3-1.9-0.6-3.2-0.9
		c-1.3-0.3-2.4-0.7-3.2-1c-0.9-0.4-1.5-0.8-2-1.4s-0.6-1.4-0.6-2.3c0-1.2,0.3-2.2,0.9-3c0.6-0.8,1.4-1.4,2.5-1.8s2.2-0.6,3.5-0.6
		c1.5,0,2.7,0.2,3.8,0.7s1.9,1.1,2.5,1.9l-1,1.1c-0.6-0.8-1.4-1.3-2.3-1.7s-2-0.6-3.2-0.6c-0.9,0-1.7,0.1-2.5,0.4
		c-0.8,0.2-1.4,0.6-1.9,1.2c-0.5,0.5-0.7,1.3-0.7,2.2c0,0.7,0.2,1.3,0.5,1.7s0.9,0.7,1.6,1s1.6,0.5,2.6,0.8c1.5,0.4,2.7,0.7,3.8,1.1
		c1.1,0.4,1.9,0.9,2.5,1.5c0.6,0.6,0.9,1.5,0.9,2.6c0,1.7-0.6,3-1.9,4C310.8,385.5,309.1,386,307,386L307,386z"/>
	<path class="st0" d="M322.4,380.2c0-1.1,0.3-2.1,1-2.9c0.7-0.8,1.6-1.5,2.8-1.9s2.5-0.7,4.1-0.7c1,0,2,0.1,3,0.2s2,0.4,2.8,0.7
		v-1.8c0-1.7-0.5-3.1-1.5-4.1c-1-1-2.4-1.5-4.1-1.5c-0.9,0-1.9,0.2-2.9,0.6s-2,0.9-3.1,1.7l-0.8-1.3c1.2-0.8,2.4-1.4,3.5-1.9
		c1.1-0.4,2.3-0.6,3.4-0.6c2.2,0,4,0.7,5.3,2s1.9,3.1,1.9,5.4v9.2c0,0.3,0.1,0.5,0.2,0.6c0.1,0.1,0.3,0.2,0.6,0.2v1.5
		c-0.2,0-0.4,0-0.5,0h-0.4c-0.5-0.1-0.8-0.3-1.1-0.6c-0.2-0.3-0.4-0.7-0.4-1v-1.5c-0.9,1.1-2,1.9-3.3,2.5c-1.4,0.6-2.8,0.9-4.3,0.9
		c-1.2,0-2.2-0.2-3.2-0.8s-1.7-1.2-2.2-2.1S322.4,381.3,322.4,380.2L322.4,380.2z M335.3,381.8c0.2-0.3,0.4-0.6,0.5-0.9
		s0.2-0.5,0.2-0.8V377c-0.9-0.3-1.8-0.6-2.7-0.8s-1.9-0.2-2.9-0.2c-1.9,0-3.4,0.4-4.5,1.1c-1.2,0.7-1.8,1.8-1.8,3
		c0,0.8,0.2,1.5,0.6,2.2c0.4,0.7,1,1.2,1.7,1.6s1.6,0.6,2.5,0.6c1.3,0,2.6-0.3,3.7-0.8C333.9,383.2,334.7,382.6,335.3,381.8z"/>
	<path class="st0" d="M349.8,385.6v-17.2h-2.6v-1.5h2.6v-0.6c0-1.5,0.2-2.8,0.6-3.9s1-1.9,1.8-2.5c0.8-0.6,1.7-0.9,2.8-0.9
		c0.7,0,1.4,0.1,2.1,0.3c0.7,0.2,1.2,0.5,1.7,0.9l-0.6,1.3c-0.3-0.3-0.7-0.5-1.2-0.7s-1-0.2-1.5-0.2c-1.2,0-2.2,0.5-2.8,1.5
		c-0.7,1-1,2.4-1,4.2v0.6h5.3v1.5h-5.3v17.2L349.8,385.6L349.8,385.6z"/>
	<path class="st0" d="M365.7,386c-1.3,0-2.5-0.2-3.6-0.8c-1.1-0.5-2.1-1.2-2.9-2.1s-1.5-1.9-1.9-3.1s-0.7-2.4-0.7-3.7
		s0.2-2.5,0.7-3.7c0.5-1.2,1.1-2.2,1.9-3.1s1.8-1.6,2.9-2.1c1.1-0.5,2.3-0.8,3.6-0.8s2.5,0.3,3.6,0.8c1.1,0.5,2.1,1.2,2.9,2.1
		s1.5,1.9,1.9,3.1c0.5,1.2,0.7,2.4,0.7,3.7s-0.2,2.5-0.7,3.7c-0.5,1.2-1.1,2.2-1.9,3.1c-0.8,0.9-1.8,1.6-2.9,2.1
		C368.2,385.7,367,386,365.7,386L365.7,386z M358.4,376.4c0,1.5,0.3,2.8,1,4s1.5,2.2,2.6,2.9c1.1,0.7,2.3,1.1,3.7,1.1
		s2.6-0.4,3.7-1.1s2-1.7,2.7-2.9s1-2.6,1-4s-0.3-2.8-1-4s-1.5-2.2-2.7-2.9c-1.1-0.7-2.3-1.1-3.6-1.1s-2.6,0.4-3.7,1.1
		s-2,1.7-2.7,2.9S358.4,374.9,358.4,376.4L358.4,376.4z"/>
	<path class="st0" d="M386.2,368.5c-1.7,0-3.1,0.5-4.4,1.5c-1.3,1-2.1,2.2-2.6,3.9v11.7h-1.8v-18.7h1.7v4.6c0.6-1.3,1.5-2.4,2.6-3.2
		s2.2-1.3,3.4-1.4c0.2,0,0.5,0,0.6,0h0.5L386.2,368.5L386.2,368.5z"/>
	<path class="st0" d="M415.3,385.6h-1.8v-10.4c0-2.4-0.4-4.1-1.1-5.2c-0.7-1.1-1.9-1.7-3.4-1.7s-2.9,0.5-4.1,1.6s-2,2.5-2.5,4.2
		v11.5h-1.8v-10.4c0-2.4-0.4-4.1-1.1-5.2s-1.8-1.7-3.4-1.7s-2.9,0.5-4.1,1.6s-2,2.5-2.5,4.2v11.5h-1.8v-18.7h1.7v4.5
		c0.8-1.5,1.8-2.7,3.1-3.5c1.2-0.8,2.6-1.2,4.1-1.2s2.8,0.5,3.8,1.4c1,0.9,1.6,2.1,1.8,3.7c0.9-1.7,1.9-2.9,3.2-3.8
		c1.2-0.9,2.6-1.3,4.2-1.3c1,0,1.9,0.2,2.6,0.6s1.3,0.9,1.8,1.6c0.5,0.7,0.8,1.6,1,2.6s0.3,2.2,0.3,3.5L415.3,385.6L415.3,385.6z"/>
	<path class="st0" d="M434.3,386c-1.3,0-2.5-0.2-3.6-0.8c-1.1-0.5-2.1-1.2-2.9-2.1s-1.5-1.9-1.9-3.1s-0.7-2.4-0.7-3.7
		s0.2-2.5,0.7-3.7c0.5-1.2,1.1-2.2,1.9-3.1s1.8-1.6,2.9-2.1c1.1-0.5,2.3-0.8,3.6-0.8s2.5,0.3,3.6,0.8c1.1,0.5,2.1,1.2,2.9,2.1
		s1.5,1.9,1.9,3.1c0.5,1.2,0.7,2.4,0.7,3.7s-0.2,2.5-0.7,3.7c-0.5,1.2-1.1,2.2-1.9,3.1c-0.8,0.9-1.8,1.6-2.9,2.1
		C436.8,385.7,435.6,386,434.3,386L434.3,386z M426.9,376.4c0,1.5,0.3,2.8,1,4s1.5,2.2,2.6,2.9c1.1,0.7,2.3,1.1,3.7,1.1
		s2.6-0.4,3.7-1.1s2-1.7,2.7-2.9s1-2.6,1-4s-0.3-2.8-1-4s-1.5-2.2-2.7-2.9c-1.1-0.7-2.3-1.1-3.6-1.1s-2.6,0.4-3.7,1.1
		s-2,1.7-2.7,2.9S426.9,374.9,426.9,376.4L426.9,376.4z"/>
	<path class="st0" d="M446.5,385.6v-17.2h-2.6v-1.5h2.6v-0.6c0-1.5,0.2-2.8,0.6-3.9s1-1.9,1.8-2.5c0.8-0.6,1.7-0.9,2.8-0.9
		c0.7,0,1.4,0.1,2.1,0.3c0.7,0.2,1.2,0.5,1.7,0.9l-0.6,1.3c-0.3-0.3-0.7-0.5-1.2-0.7s-1-0.2-1.5-0.2c-1.2,0-2.2,0.5-2.8,1.5
		c-0.7,1-1,2.4-1,4.2v0.6h5.3v1.5h-5.3v17.2L446.5,385.6L446.5,385.6z"/>
	<path class="st0" d="M48.5,429.2c-1.6,0-3-0.4-4.3-1.3c-1.3-0.9-2.3-1.9-3-3.1v11.7h-1.8v-26.4H41v3.8c0.8-1.2,1.8-2.2,3.1-2.9
		s2.6-1.1,4-1.1c1.3,0,2.5,0.3,3.6,0.8c1.1,0.5,2,1.3,2.8,2.2c0.8,0.9,1.4,2,1.9,3.1c0.4,1.1,0.7,2.3,0.7,3.6c0,1.7-0.4,3.3-1.1,4.8
		s-1.7,2.6-3,3.5C51.7,428.7,50.2,429.2,48.5,429.2L48.5,429.2z M48,427.6c1.1,0,2.1-0.2,3-0.7c0.9-0.5,1.6-1.1,2.2-1.8
		c0.6-0.8,1.1-1.6,1.4-2.6s0.5-1.9,0.5-2.9c0-1.1-0.2-2.1-0.6-3.1c-0.4-1-0.9-1.8-1.6-2.6s-1.5-1.3-2.4-1.8s-1.9-0.7-2.9-0.7
		c-0.7,0-1.3,0.1-2.1,0.4s-1.4,0.6-2.1,1.1c-0.7,0.5-1.2,1-1.6,1.6c-0.4,0.6-0.7,1.2-0.8,1.9v6.1c0.4,0.9,1,1.7,1.7,2.5
		c0.7,0.8,1.5,1.4,2.4,1.8S47,427.6,48,427.6L48,427.6z"/>
	<path class="st0" d="M58,423.4c0-1.1,0.3-2.1,1-2.9c0.7-0.8,1.6-1.5,2.8-1.9c1.2-0.5,2.5-0.7,4.1-0.7c1,0,2,0.1,3,0.2
		s2,0.4,2.8,0.7V417c0-1.7-0.5-3.1-1.5-4.1c-1-1-2.4-1.5-4.1-1.5c-0.9,0-1.9,0.2-2.9,0.6c-1,0.4-2,0.9-3.1,1.7l-0.8-1.3
		c1.2-0.8,2.4-1.4,3.5-1.9s2.3-0.6,3.4-0.6c2.2,0,4,0.7,5.3,2s1.9,3.1,1.9,5.4v9.2c0,0.3,0.1,0.5,0.2,0.6c0.1,0.1,0.3,0.2,0.6,0.2
		v1.5c-0.2,0-0.4,0-0.5,0h-0.4c-0.5-0.1-0.8-0.3-1.1-0.6c-0.2-0.3-0.4-0.7-0.4-1v-1.5c-0.9,1.1-2,1.9-3.3,2.5s-2.8,0.9-4.3,0.9
		c-1.2,0-2.2-0.2-3.2-0.8s-1.7-1.2-2.2-2.1S58,424.5,58,423.4L58,423.4z M70.9,425c0.2-0.3,0.4-0.6,0.5-0.9s0.2-0.5,0.2-0.8v-3.1
		c-0.9-0.3-1.8-0.6-2.7-0.8c-0.9-0.2-1.9-0.2-2.9-0.2c-1.9,0-3.4,0.4-4.5,1.1s-1.8,1.8-1.8,3c0,0.8,0.2,1.5,0.6,2.2s1,1.2,1.7,1.6
		c0.7,0.4,1.6,0.6,2.5,0.6c1.3,0,2.6-0.3,3.7-0.8C69.5,426.4,70.3,425.8,70.9,425z"/>
	<path class="st0" d="M77.8,435.1c0.4,0,0.7,0,1,0c0.3,0,0.5-0.1,0.7-0.2c0.2-0.1,0.4-0.3,0.7-0.6s0.5-0.9,0.9-1.8
		c0.4-0.9,0.9-2.2,1.6-3.9l-8.3-18.7h1.9l7.4,16.8l6.9-16.8h1.8l-10.3,24.6c-0.1,0.4-0.3,0.7-0.6,1s-0.6,0.5-0.9,0.7
		s-0.8,0.3-1.3,0.3c-0.2,0-0.4,0-0.7,0c-0.2,0-0.5,0-0.8,0L77.8,435.1L77.8,435.1z"/>
	<path class="st0" d="M121.7,428.8h-1.8v-10.4c0-2.4-0.4-4.1-1.1-5.2c-0.7-1.1-1.8-1.7-3.4-1.7s-2.9,0.5-4.1,1.6s-2,2.5-2.5,4.2
		v11.5H107v-10.4c0-2.4-0.4-4.1-1.1-5.2s-1.8-1.7-3.3-1.7s-2.9,0.5-4.1,1.6s-2,2.5-2.5,4.2v11.5h-1.8v-18.7h1.7v4.5
		c0.8-1.5,1.8-2.7,3.1-3.5c1.2-0.8,2.6-1.2,4.1-1.2s2.8,0.5,3.8,1.4c1,0.9,1.6,2.1,1.8,3.7c0.9-1.7,1.9-2.9,3.2-3.8
		c1.2-0.9,2.6-1.3,4.2-1.3c1,0,1.9,0.2,2.6,0.6s1.3,0.9,1.8,1.6c0.5,0.7,0.8,1.6,1,2.6c0.2,1,0.3,2.2,0.3,3.5L121.7,428.8
		L121.7,428.8z"/>
	<path class="st0" d="M133.3,429.2c-1.3,0-2.5-0.3-3.7-0.8c-1.1-0.5-2.1-1.2-2.9-2.1c-0.8-0.9-1.5-1.9-1.9-3.1
		c-0.5-1.2-0.7-2.4-0.7-3.8c0-1.8,0.4-3.4,1.2-4.8s1.9-2.6,3.3-3.5c1.4-0.9,2.9-1.3,4.7-1.3s3.4,0.4,4.7,1.3c1.4,0.9,2.4,2,3.3,3.5
		c0.8,1.5,1.2,3,1.2,4.8v0.4c0,0.1,0,0.3,0,0.4h-16.4c0.1,1.4,0.5,2.7,1.2,3.8c0.7,1.1,1.6,2,2.7,2.7s2.3,1,3.6,1s2.5-0.3,3.7-1
		s2-1.5,2.4-2.6l1.6,0.4c-0.4,0.9-0.9,1.7-1.7,2.4c-0.8,0.7-1.7,1.2-2.7,1.6C135.6,429,134.4,429.2,133.3,429.2L133.3,429.2z
		 M125.8,418.8h14.8c-0.1-1.5-0.5-2.8-1.1-3.9s-1.6-2-2.6-2.6c-1.1-0.6-2.3-1-3.6-1s-2.5,0.3-3.6,1c-1.1,0.6-2,1.5-2.6,2.6
		S125.9,417.3,125.8,418.8L125.8,418.8z"/>
	<path class="st0" d="M159.8,428.8H158v-10.4c0-2.4-0.3-4.1-1-5.2c-0.7-1.1-1.8-1.7-3.3-1.7c-1.1,0-2.1,0.2-3.1,0.8
		s-1.9,1.2-2.7,2.1c-0.8,0.9-1.3,1.9-1.6,3v11.5h-1.8v-18.7h1.7v4.5c0.5-1,1.2-1.8,2-2.5c0.8-0.7,1.8-1.3,2.8-1.7s2.1-0.6,3.2-0.6
		c1,0,1.9,0.2,2.6,0.6s1.3,0.9,1.7,1.6c0.4,0.7,0.8,1.5,0.9,2.6s0.3,2.2,0.3,3.5L159.8,428.8L159.8,428.8z"/>
	<path class="st0" d="M171.6,428.1c-0.1,0-0.4,0.2-0.7,0.4c-0.4,0.2-0.8,0.4-1.4,0.5s-1.2,0.2-1.8,0.2s-1.2-0.1-1.8-0.4
		c-0.6-0.2-1-0.6-1.4-1.1c-0.3-0.5-0.5-1.1-0.5-1.9v-14.2h-2.6v-1.5h2.6v-6.4h1.8v6.4h4.4v1.5h-4.4v13.8c0.1,0.7,0.3,1.2,0.8,1.6
		c0.5,0.4,1,0.5,1.6,0.5c0.7,0,1.4-0.1,1.9-0.4s0.9-0.4,1-0.5L171.6,428.1L171.6,428.1z"/>
	<path class="st0" d="M181.3,428.8v-17.2h-2.6v-1.5h2.6v-0.6c0-1.5,0.2-2.8,0.6-3.9s1-1.9,1.8-2.5c0.8-0.6,1.7-0.9,2.8-0.9
		c0.7,0,1.4,0.1,2.1,0.3c0.7,0.2,1.2,0.5,1.7,0.9l-0.6,1.3c-0.3-0.3-0.7-0.5-1.2-0.7s-1-0.2-1.6-0.2c-1.2,0-2.2,0.5-2.8,1.5
		s-1,2.4-1,4.2v0.6h5.3v1.5h-5.3v17.2L181.3,428.8L181.3,428.8z"/>
	<path class="st0" d="M197.2,429.2c-1.3,0-2.5-0.2-3.6-0.8c-1.1-0.5-2.1-1.2-2.9-2.1c-0.8-0.9-1.4-1.9-1.9-3.1s-0.7-2.4-0.7-3.7
		s0.2-2.5,0.7-3.7s1.1-2.2,1.9-3.1s1.8-1.6,2.9-2.1c1.1-0.5,2.3-0.8,3.6-0.8s2.5,0.3,3.6,0.8c1.1,0.5,2.1,1.2,2.9,2.1
		s1.5,1.9,1.9,3.1c0.5,1.2,0.7,2.4,0.7,3.7s-0.2,2.5-0.7,3.7c-0.5,1.2-1.1,2.2-1.9,3.1s-1.8,1.6-2.9,2.1S198.5,429.2,197.2,429.2
		L197.2,429.2z M189.9,419.6c0,1.5,0.3,2.8,1,4s1.5,2.2,2.6,2.9c1.1,0.7,2.3,1.1,3.7,1.1s2.6-0.4,3.7-1.1s2-1.7,2.7-2.9s1-2.6,1-4
		s-0.3-2.8-1-4s-1.6-2.2-2.7-2.9c-1.1-0.7-2.3-1.1-3.6-1.1s-2.6,0.4-3.7,1.1c-1.1,0.7-2,1.7-2.7,2.9S189.9,418.1,189.9,419.6
		L189.9,419.6z"/>
	<path class="st0" d="M217.8,411.7c-1.7,0-3.1,0.5-4.4,1.5c-1.3,1-2.1,2.2-2.6,3.9v11.7h-1.8v-18.7h1.7v4.6c0.6-1.3,1.5-2.4,2.6-3.2
		s2.2-1.3,3.4-1.4c0.2,0,0.5,0,0.6,0h0.5L217.8,411.7L217.8,411.7z"/>
	<path class="st0" d="M241.4,407.5c-0.4-0.5-0.9-0.9-1.4-1.2s-1-0.6-1.6-0.9c-0.6-0.2-1.2-0.4-1.9-0.5s-1.4-0.2-2.2-0.2
		c-2.5,0-4.3,0.5-5.4,1.4s-1.7,2.2-1.7,3.8c0,1.1,0.3,1.9,0.8,2.6c0.5,0.6,1.3,1.1,2.4,1.5s2.5,0.8,4.3,1.1c1.9,0.4,3.4,0.8,4.8,1.4
		c1.3,0.5,2.4,1.2,3.1,2.1c0.7,0.9,1.1,2.1,1.1,3.6c0,1.1-0.2,2.1-0.6,3s-1.1,1.5-1.9,2.1c-0.8,0.5-1.8,1-2.9,1.3s-2.4,0.4-3.7,0.4
		s-2.6-0.1-3.8-0.4c-1.2-0.3-2.3-0.7-3.4-1.3c-1.1-0.5-2-1.3-2.9-2.1l1-1.5c0.5,0.6,1.1,1.1,1.8,1.5s1.4,0.8,2.2,1.1
		s1.6,0.6,2.5,0.7s1.8,0.3,2.8,0.3c2.2,0,4-0.4,5.2-1.2c1.3-0.8,1.9-2,1.9-3.7c0-1.1-0.3-2-0.9-2.7c-0.6-0.7-1.5-1.3-2.7-1.7
		s-2.7-0.9-4.5-1.2s-3.3-0.8-4.6-1.3c-1.3-0.5-2.2-1.1-2.8-1.9s-0.9-1.9-0.9-3.3c0-1.5,0.4-2.8,1.1-3.9s1.8-1.9,3.2-2.4
		s2.9-0.8,4.7-0.8c1.1,0,2.1,0.1,3.1,0.3c0.9,0.2,1.8,0.5,2.6,1s1.6,1,2.2,1.7L241.4,407.5L241.4,407.5z"/>
	<path class="st0" d="M253.8,429.2c-1.3,0-2.5-0.2-3.6-0.8c-1.1-0.5-2.1-1.2-2.9-2.1c-0.8-0.9-1.4-1.9-1.9-3.1s-0.7-2.4-0.7-3.7
		s0.2-2.5,0.7-3.7s1.1-2.2,1.9-3.1s1.8-1.6,2.9-2.1c1.1-0.5,2.3-0.8,3.6-0.8s2.5,0.3,3.6,0.8c1.1,0.5,2.1,1.2,2.9,2.1s1.5,1.9,2,3.1
		c0.5,1.2,0.7,2.4,0.7,3.7s-0.2,2.5-0.7,3.7c-0.5,1.2-1.1,2.2-1.9,3.1c-0.8,0.9-1.8,1.6-2.9,2.1
		C256.3,428.9,255.1,429.2,253.8,429.2L253.8,429.2z M246.4,419.6c0,1.5,0.3,2.8,1,4s1.5,2.2,2.6,2.9c1.1,0.7,2.3,1.1,3.7,1.1
		s2.6-0.4,3.7-1.1s2-1.7,2.7-2.9s1-2.6,1-4s-0.3-2.8-1-4s-1.5-2.2-2.7-2.9c-1.1-0.7-2.3-1.1-3.6-1.1s-2.6,0.4-3.7,1.1
		c-1.1,0.7-2,1.7-2.7,2.9S246.5,418.1,246.4,419.6L246.4,419.6z"/>
	<path class="st0" d="M273.4,429.2c-1.3,0-2.5-0.3-3.6-0.8c-1.1-0.5-2.1-1.2-3-2.1s-1.5-1.9-2-3.1s-0.7-2.4-0.7-3.8
		c0-1.8,0.4-3.4,1.2-4.8s1.9-2.6,3.3-3.4s3-1.3,4.8-1.3s3.2,0.4,4.5,1.2s2.3,1.8,2.9,3.2l-1.8,0.6c-0.5-1-1.3-1.8-2.4-2.4
		s-2.1-0.9-3.4-0.9c-1.4,0-2.6,0.4-3.7,1c-1.1,0.7-2,1.6-2.6,2.9s-1,2.6-1,4.1s0.3,2.8,1,4.1c0.7,1.2,1.6,2.2,2.7,3
		c1.1,0.7,2.4,1.1,3.7,1.1c0.9,0,1.7-0.2,2.5-0.5c0.8-0.3,1.5-0.8,2.2-1.3c0.6-0.5,1-1.1,1.2-1.7l1.8,0.5c-0.3,0.9-0.9,1.7-1.6,2.4
		c-0.8,0.7-1.7,1.2-2.7,1.6S274.6,429.2,273.4,429.2L273.4,429.2z"/>
	<path class="st0" d="M283.3,405.8v-3.3h1.8v3.3H283.3z M283.3,428.8v-18.7h1.8v18.7H283.3z"/>
	<path class="st0" d="M287.4,423.4c0-1.1,0.3-2.1,1-2.9c0.7-0.8,1.6-1.5,2.8-1.9s2.5-0.7,4.1-0.7c1,0,2,0.1,3,0.2s2,0.4,2.8,0.7V417
		c0-1.7-0.5-3.1-1.5-4.1c-1-1-2.4-1.5-4.1-1.5c-0.9,0-1.9,0.2-2.9,0.6s-2,0.9-3.1,1.7l-0.8-1.3c1.2-0.8,2.4-1.4,3.5-1.9
		c1.1-0.4,2.3-0.6,3.4-0.6c2.2,0,4,0.7,5.3,2s1.9,3.1,1.9,5.4v9.2c0,0.3,0.1,0.5,0.2,0.6c0.1,0.1,0.3,0.2,0.6,0.2v1.5
		c-0.2,0-0.4,0-0.5,0h-0.4c-0.5-0.1-0.8-0.3-1.1-0.6c-0.2-0.3-0.4-0.7-0.4-1v-1.5c-0.9,1.1-2,1.9-3.3,2.5c-1.4,0.6-2.8,0.9-4.3,0.9
		c-1.2,0-2.2-0.2-3.2-0.8s-1.7-1.2-2.2-2.1S287.4,424.5,287.4,423.4L287.4,423.4z M300.3,425c0.2-0.3,0.4-0.6,0.5-0.9
		s0.2-0.5,0.2-0.8v-3.1c-0.9-0.3-1.8-0.6-2.7-0.8s-1.9-0.2-2.9-0.2c-1.9,0-3.4,0.4-4.5,1.1c-1.2,0.7-1.8,1.8-1.8,3
		c0,0.8,0.2,1.5,0.6,2.2c0.4,0.7,1,1.2,1.7,1.6s1.6,0.6,2.5,0.6c1.3,0,2.6-0.3,3.7-0.8C298.8,426.4,299.7,425.8,300.3,425z"/>
	<path class="st0" d="M306.6,402.5h1.8v22.7c0,0.9,0.2,1.5,0.5,1.8c0.4,0.3,0.8,0.5,1.4,0.5c0.4,0,0.8,0,1.2-0.1
		c0.4-0.1,0.8-0.2,1.1-0.3l0.4,1.5c-0.4,0.1-0.9,0.3-1.5,0.4s-1.1,0.2-1.5,0.2c-1,0-1.8-0.3-2.4-0.9c-0.6-0.6-0.9-1.4-0.9-2.5
		L306.6,402.5L306.6,402.5z"/>
	<path class="st0" d="M331,403.2l-16.8,25.6h-2l16.8-25.6H331L331,403.2z"/>
	<path class="st0" d="M352.4,422.2c0,1.2-0.3,2.4-0.9,3.4c-0.6,1-1.4,1.8-2.5,2.4s-2.2,0.9-3.5,0.9h-12v-25.6h11.9
		c1.2,0,2.2,0.3,3.1,1c0.9,0.6,1.5,1.5,2,2.5s0.7,2,0.7,3.1c0,1.3-0.3,2.5-1,3.5c-0.6,1.1-1.5,1.9-2.7,2.4c1.5,0.4,2.6,1.2,3.5,2.4
		S352.4,420.7,352.4,422.2L352.4,422.2z M335.4,404.9v10.2h9.4c0.9,0,1.8-0.2,2.5-0.7s1.3-1.1,1.7-1.9c0.4-0.8,0.6-1.6,0.6-2.5
		c0-0.9-0.2-1.8-0.6-2.6c-0.4-0.8-0.9-1.4-1.6-1.9c-0.7-0.5-1.5-0.7-2.4-0.7L335.4,404.9L335.4,404.9z M350.6,421.9
		c0-0.9-0.2-1.8-0.6-2.6s-1-1.4-1.7-1.9s-1.5-0.8-2.5-0.8h-10.4v10.5h10.1c0.9,0,1.8-0.2,2.6-0.7s1.4-1.1,1.8-1.9
		C350.3,423.7,350.6,422.8,350.6,421.9L350.6,421.9z"/>
	<path class="st0" d="M354.9,420.9v-10.8h1.8v10.5c0,2.3,0.4,4,1.2,5.2s2,1.7,3.5,1.7c1.1,0,2.1-0.2,3-0.7s1.8-1.1,2.6-2
		c0.7-0.9,1.3-1.8,1.7-3v-11.8h1.8v16.3c0,0.3,0.1,0.5,0.2,0.6c0.1,0.1,0.3,0.2,0.6,0.2v1.5c-0.2,0-0.4,0-0.6,0s-0.2,0-0.3,0
		c-0.4,0-0.7-0.2-1-0.5c-0.3-0.3-0.4-0.7-0.4-1.1l0-2.8c-0.8,1.5-1.9,2.6-3.4,3.5s-3,1.3-4.6,1.3c-2,0-3.5-0.7-4.5-2.1
		C355.4,425.7,354.9,423.6,354.9,420.9L354.9,420.9z"/>
	<path class="st0" d="M380.3,429.2c-1.5,0-2.9-0.2-4.1-0.8c-1.3-0.5-2.4-1.3-3.4-2.3l0.8-1.3c1,1,2.1,1.7,3.1,2.1
		c1.1,0.4,2.2,0.7,3.5,0.7c1.6,0,2.9-0.3,3.9-1s1.5-1.6,1.5-2.8c0-0.8-0.2-1.4-0.7-1.9s-1.1-0.8-2-1.1c-0.9-0.3-1.9-0.6-3.2-0.9
		c-1.3-0.3-2.4-0.7-3.2-1c-0.9-0.4-1.5-0.8-2-1.4s-0.6-1.4-0.6-2.3c0-1.2,0.3-2.2,0.9-3c0.6-0.8,1.4-1.4,2.5-1.8s2.2-0.6,3.5-0.6
		c1.5,0,2.7,0.2,3.8,0.7s1.9,1.1,2.5,1.9l-1,1.1c-0.6-0.8-1.4-1.3-2.3-1.7s-2-0.6-3.2-0.6c-0.9,0-1.7,0.1-2.5,0.4
		c-0.8,0.2-1.4,0.6-1.9,1.2c-0.5,0.5-0.7,1.3-0.7,2.2c0,0.7,0.2,1.3,0.5,1.7s0.9,0.7,1.6,1s1.6,0.5,2.6,0.8c1.5,0.4,2.7,0.7,3.8,1.1
		c1.1,0.4,1.9,0.9,2.5,1.5c0.6,0.6,0.9,1.5,0.9,2.6c0,1.7-0.6,3-1.9,4C384.1,428.7,382.4,429.2,380.3,429.2L380.3,429.2z"/>
	<path class="st0" d="M389.8,405.8v-3.3h1.8v3.3H389.8z M389.8,428.8v-18.7h1.8v18.7H389.8z"/>
	<path class="st0" d="M410.8,428.8H409v-10.4c0-2.4-0.3-4.1-1-5.2c-0.7-1.1-1.8-1.7-3.3-1.7c-1.1,0-2.1,0.2-3.1,0.8
		s-1.9,1.2-2.7,2.1c-0.8,0.9-1.3,1.9-1.6,3v11.5h-1.8v-18.7h1.7v4.5c0.5-1,1.2-1.8,2-2.5s1.8-1.3,2.8-1.7s2.1-0.6,3.2-0.6
		c1,0,1.9,0.2,2.6,0.6s1.3,0.9,1.7,1.6c0.4,0.7,0.8,1.5,1,2.6s0.3,2.2,0.3,3.5L410.8,428.8L410.8,428.8z"/>
	<path class="st0" d="M422.4,429.2c-1.3,0-2.5-0.3-3.7-0.8c-1.1-0.5-2.1-1.2-2.9-2.1s-1.5-1.9-1.9-3.1s-0.7-2.4-0.7-3.8
		c0-1.8,0.4-3.4,1.2-4.8s1.9-2.6,3.3-3.5s3-1.3,4.7-1.3s3.4,0.4,4.7,1.3c1.4,0.9,2.5,2,3.3,3.5c0.8,1.5,1.2,3,1.2,4.8v0.4
		c0,0.1,0,0.3,0,0.4H415c0.1,1.4,0.5,2.7,1.2,3.8c0.7,1.1,1.6,2,2.7,2.7s2.3,1,3.6,1s2.5-0.3,3.7-1c1.1-0.7,2-1.5,2.4-2.6l1.6,0.4
		c-0.4,0.9-0.9,1.7-1.7,2.4s-1.7,1.2-2.7,1.6C424.6,429,423.5,429.2,422.4,429.2L422.4,429.2z M414.9,418.8h14.8
		c-0.1-1.5-0.5-2.8-1.1-3.9c-0.7-1.1-1.5-2-2.6-2.6s-2.3-1-3.6-1s-2.5,0.3-3.6,1s-2,1.5-2.6,2.6S415,417.3,414.9,418.8z"/>
	<path class="st0" d="M439.5,429.2c-1.5,0-2.9-0.2-4.1-0.8c-1.3-0.5-2.4-1.3-3.4-2.3l0.8-1.3c1,1,2.1,1.7,3.1,2.1
		c1.1,0.4,2.2,0.7,3.5,0.7c1.6,0,2.9-0.3,3.9-1s1.5-1.6,1.5-2.8c0-0.8-0.2-1.4-0.7-1.9s-1.1-0.8-2-1.1c-0.9-0.3-1.9-0.6-3.2-0.9
		c-1.3-0.3-2.4-0.7-3.2-1c-0.9-0.4-1.5-0.8-2-1.4s-0.6-1.4-0.6-2.3c0-1.2,0.3-2.2,0.9-3c0.6-0.8,1.4-1.4,2.5-1.8s2.2-0.6,3.5-0.6
		c1.5,0,2.7,0.2,3.8,0.7s1.9,1.1,2.5,1.9l-1,1.1c-0.6-0.8-1.4-1.3-2.3-1.7s-2-0.6-3.2-0.6c-0.9,0-1.7,0.1-2.5,0.4
		c-0.8,0.2-1.4,0.6-1.9,1.2c-0.5,0.5-0.7,1.3-0.7,2.2c0,0.7,0.2,1.3,0.5,1.7s0.9,0.7,1.6,1s1.6,0.5,2.6,0.8c1.5,0.4,2.7,0.7,3.8,1.1
		c1.1,0.4,1.9,0.9,2.5,1.5c0.6,0.6,0.9,1.5,0.9,2.6c0,1.7-0.6,3-1.9,4C443.3,428.7,441.6,429.2,439.5,429.2L439.5,429.2z"/>
	<path class="st0" d="M454.9,429.2c-1.5,0-2.9-0.2-4.1-0.8c-1.3-0.5-2.4-1.3-3.4-2.3l0.8-1.3c1,1,2.1,1.7,3.1,2.1
		c1.1,0.4,2.2,0.7,3.5,0.7c1.6,0,2.9-0.3,3.9-1s1.5-1.6,1.5-2.8c0-0.8-0.2-1.4-0.7-1.9s-1.1-0.8-2-1.1c-0.9-0.3-1.9-0.6-3.2-0.9
		c-1.3-0.3-2.4-0.7-3.2-1c-0.9-0.4-1.5-0.8-2-1.4s-0.6-1.4-0.6-2.3c0-1.2,0.3-2.2,0.9-3c0.6-0.8,1.4-1.4,2.5-1.8s2.2-0.6,3.5-0.6
		c1.5,0,2.7,0.2,3.8,0.7s1.9,1.1,2.5,1.9l-1,1.1c-0.6-0.8-1.4-1.3-2.3-1.7s-2-0.6-3.2-0.6c-0.9,0-1.7,0.1-2.5,0.4
		c-0.8,0.2-1.4,0.6-1.9,1.2c-0.5,0.5-0.7,1.3-0.7,2.2c0,0.7,0.2,1.3,0.5,1.7s0.9,0.7,1.6,1s1.6,0.5,2.6,0.8c1.5,0.4,2.7,0.7,3.8,1.1
		c1.1,0.4,1.9,0.9,2.5,1.5c0.6,0.6,0.9,1.5,0.9,2.6c0,1.7-0.6,3-1.9,4C458.8,428.7,457.1,429.2,454.9,429.2L454.9,429.2z"/>
	<path class="st0" d="M18.6,472.4c-1.3,0-2.5-0.3-3.7-0.8c-1.1-0.5-2.1-1.2-2.9-2.1c-0.8-0.9-1.5-1.9-1.9-3.1
		c-0.5-1.2-0.7-2.4-0.7-3.8c0-1.8,0.4-3.4,1.2-4.8s1.9-2.6,3.3-3.5c1.4-0.9,2.9-1.3,4.7-1.3s3.4,0.4,4.7,1.3c1.4,0.9,2.5,2,3.3,3.5
		c0.8,1.5,1.2,3,1.2,4.8v0.4c0,0.1,0,0.3,0,0.4H11.2c0.1,1.4,0.5,2.7,1.2,3.8c0.7,1.1,1.6,2,2.7,2.7s2.3,1,3.6,1s2.5-0.3,3.7-1
		s2-1.5,2.4-2.6l1.6,0.4c-0.4,0.9-0.9,1.7-1.7,2.4s-1.7,1.2-2.7,1.6C20.8,472.2,19.7,472.4,18.6,472.4L18.6,472.4z M11.2,462H26
		c-0.1-1.5-0.5-2.8-1.1-3.9s-1.5-2-2.6-2.6c-1.1-0.6-2.3-1-3.6-1s-2.5,0.3-3.6,1c-1.1,0.6-2,1.5-2.6,2.6S11.2,460.5,11.2,462z"/>
	<path class="st0" d="M35.1,472l-7.8-18.7h1.9l6.9,16.8l6.9-16.8h1.8L37,472H35.1L35.1,472z"/>
	<path class="st0" d="M53.8,472.4c-1.3,0-2.5-0.3-3.7-0.8c-1.1-0.5-2.1-1.2-2.9-2.1c-0.8-0.9-1.5-1.9-1.9-3.1
		c-0.5-1.2-0.7-2.4-0.7-3.8c0-1.8,0.4-3.4,1.2-4.8s1.9-2.6,3.3-3.5c1.4-0.9,3-1.3,4.7-1.3s3.3,0.4,4.7,1.3c1.4,0.9,2.5,2,3.3,3.5
		c0.8,1.5,1.2,3,1.2,4.8v0.4c0,0.1,0,0.3,0,0.4H46.5c0.1,1.4,0.5,2.7,1.2,3.8c0.7,1.1,1.6,2,2.7,2.7s2.3,1,3.6,1s2.5-0.3,3.7-1
		c1.2-0.7,2-1.5,2.4-2.6l1.6,0.4c-0.4,0.9-0.9,1.7-1.7,2.4s-1.7,1.2-2.7,1.6C56.1,472.2,55,472.4,53.8,472.4L53.8,472.4z M46.4,462
		h14.8c-0.1-1.5-0.5-2.8-1.2-3.9c-0.7-1.1-1.5-2-2.7-2.6c-1.1-0.6-2.3-1-3.6-1s-2.5,0.3-3.6,1c-1.1,0.6-2,1.5-2.6,2.6
		C46.9,459.2,46.5,460.5,46.4,462z"/>
	<path class="st0" d="M80.4,472h-1.8v-10.4c0-2.4-0.3-4.1-1-5.2c-0.7-1.1-1.8-1.7-3.3-1.7c-1.1,0-2.1,0.2-3.1,0.8
		c-1,0.5-1.9,1.2-2.7,2.1c-0.8,0.9-1.3,1.9-1.6,3V472h-1.8v-18.7h1.7v4.5c0.5-1,1.2-1.8,2-2.5c0.8-0.7,1.8-1.3,2.8-1.7
		s2.1-0.6,3.2-0.6c1,0,1.9,0.2,2.6,0.6s1.3,0.9,1.7,1.6c0.4,0.7,0.8,1.5,0.9,2.6c0.2,1,0.3,2.2,0.3,3.5L80.4,472L80.4,472z"/>
	<path class="st0" d="M92.2,471.3c-0.1,0-0.4,0.2-0.7,0.4c-0.4,0.2-0.8,0.4-1.4,0.5s-1.2,0.2-1.8,0.2s-1.2-0.1-1.8-0.4
		c-0.6-0.2-1-0.6-1.3-1.1s-0.5-1.1-0.5-1.9v-14.2H82v-1.5h2.6v-6.4h1.8v6.4h4.4v1.5h-4.4v13.8c0.1,0.7,0.3,1.2,0.8,1.6
		c0.5,0.4,1,0.5,1.6,0.5c0.7,0,1.4-0.1,1.9-0.4s0.9-0.4,1-0.5L92.2,471.3L92.2,471.3z"/>
	<path class="st0" d="M99.4,472.4c-1.5,0-2.9-0.2-4.1-0.8c-1.3-0.5-2.4-1.3-3.3-2.3l0.8-1.3c1,1,2.1,1.7,3.1,2.1
		c1.1,0.4,2.2,0.7,3.5,0.7c1.6,0,2.9-0.3,3.9-1s1.5-1.6,1.5-2.8c0-0.8-0.2-1.4-0.7-1.9c-0.5-0.4-1.1-0.8-2-1.1
		c-0.9-0.3-1.9-0.6-3.2-0.9c-1.3-0.3-2.3-0.7-3.2-1c-0.9-0.4-1.5-0.8-2-1.4s-0.7-1.4-0.7-2.3c0-1.2,0.3-2.2,0.9-3s1.4-1.4,2.5-1.8
		s2.2-0.6,3.5-0.6c1.5,0,2.7,0.2,3.8,0.7c1.1,0.5,1.9,1.1,2.5,1.9l-1,1.1c-0.6-0.8-1.4-1.3-2.3-1.7s-2-0.6-3.2-0.6
		c-0.9,0-1.7,0.1-2.4,0.4s-1.4,0.6-1.8,1.2c-0.5,0.5-0.7,1.3-0.7,2.2c0,0.7,0.2,1.3,0.5,1.7s0.9,0.7,1.6,1s1.6,0.5,2.6,0.8
		c1.5,0.4,2.7,0.7,3.8,1.1c1.1,0.4,1.9,0.9,2.4,1.5s0.9,1.5,0.9,2.6c0,1.7-0.7,3-1.9,4C103.3,471.9,101.6,472.4,99.4,472.4
		L99.4,472.4z"/>
	<path class="st0" d="M114.9,466.6c0-1.1,0.3-2.1,1-2.9c0.7-0.8,1.6-1.5,2.8-1.9c1.2-0.5,2.5-0.7,4.1-0.7c1,0,2,0.1,3,0.2
		s2,0.4,2.8,0.7v-1.8c0-1.7-0.5-3.1-1.5-4.1c-1-1-2.4-1.5-4.1-1.5c-0.9,0-1.9,0.2-2.9,0.6c-1,0.4-2,0.9-3.1,1.7l-0.8-1.3
		c1.2-0.8,2.4-1.4,3.6-1.9s2.3-0.6,3.4-0.6c2.2,0,4,0.7,5.3,2c1.3,1.3,1.9,3.1,1.9,5.4v9.2c0,0.3,0.1,0.5,0.2,0.6
		c0.1,0.1,0.3,0.2,0.6,0.2v1.5c-0.2,0-0.4,0-0.5,0h-0.4c-0.5-0.1-0.8-0.3-1.1-0.6c-0.2-0.3-0.4-0.7-0.4-1V469
		c-0.9,1.1-2,1.9-3.3,2.5s-2.8,0.9-4.3,0.9c-1.2,0-2.2-0.2-3.2-0.8s-1.7-1.2-2.2-2.1S114.9,467.7,114.9,466.6L114.9,466.6z
		 M127.8,468.2c0.2-0.3,0.4-0.6,0.5-0.9s0.2-0.5,0.2-0.8v-3.1c-0.9-0.3-1.8-0.6-2.7-0.8c-0.9-0.2-1.9-0.2-2.9-0.2
		c-1.9,0-3.4,0.4-4.6,1.1s-1.8,1.8-1.8,3c0,0.8,0.2,1.5,0.6,2.2s1,1.2,1.7,1.6c0.7,0.4,1.6,0.6,2.5,0.6c1.3,0,2.6-0.3,3.7-0.8
		C126.3,469.6,127.2,469,127.8,468.2z"/>
	<path class="st0" d="M142.2,471.3c-0.1,0-0.4,0.2-0.7,0.4c-0.4,0.2-0.8,0.4-1.4,0.5s-1.2,0.2-1.8,0.2s-1.2-0.1-1.8-0.4
		c-0.6-0.2-1-0.6-1.4-1.1c-0.3-0.5-0.5-1.1-0.5-1.9v-14.2h-2.6v-1.5h2.6v-6.4h1.8v6.4h4.4v1.5h-4.4v13.8c0.1,0.7,0.3,1.2,0.8,1.6
		c0.5,0.4,1,0.5,1.6,0.5c0.7,0,1.4-0.1,1.9-0.4s0.9-0.4,1-0.5L142.2,471.3L142.2,471.3z"/>
	<path class="st0" d="M159.4,471.3c-0.1,0-0.4,0.2-0.7,0.4c-0.4,0.2-0.8,0.4-1.4,0.5s-1.2,0.2-1.8,0.2s-1.2-0.1-1.8-0.4
		c-0.6-0.2-1-0.6-1.4-1.1c-0.3-0.5-0.5-1.1-0.5-1.9v-14.2h-2.6v-1.5h2.6v-6.4h1.8v6.4h4.4v1.5h-4.4v13.8c0.1,0.7,0.3,1.2,0.8,1.6
		c0.5,0.4,1,0.5,1.6,0.5c0.7,0,1.4-0.1,1.9-0.4s0.9-0.4,1-0.5L159.4,471.3L159.4,471.3z"/>
	<path class="st0" d="M176,472h-1.8v-10.4c0-2.3-0.4-4-1.2-5.2s-1.9-1.7-3.5-1.7c-1,0-2,0.2-2.9,0.8s-1.8,1.2-2.6,2.1
		s-1.2,1.9-1.6,3V472h-1.8v-26.3h1.8v12.1c0.8-1.5,1.8-2.6,3.2-3.5s2.8-1.3,4.4-1.3c1.1,0,2,0.2,2.7,0.6c0.7,0.4,1.4,0.9,1.8,1.6
		s0.8,1.6,1.1,2.6s0.3,2.1,0.3,3.4L176,472L176,472z"/>
	<path class="st0" d="M187.6,472.4c-1.3,0-2.5-0.3-3.7-0.8c-1.1-0.5-2.1-1.2-2.9-2.1c-0.8-0.9-1.5-1.9-1.9-3.1
		c-0.5-1.2-0.7-2.4-0.7-3.8c0-1.8,0.4-3.4,1.2-4.8s1.9-2.6,3.3-3.5c1.4-0.9,2.9-1.3,4.7-1.3s3.4,0.4,4.7,1.3c1.4,0.9,2.4,2,3.3,3.5
		c0.8,1.5,1.2,3,1.2,4.8v0.4c0,0.1,0,0.3,0,0.4h-16.4c0.1,1.4,0.5,2.7,1.2,3.8c0.7,1.1,1.6,2,2.7,2.7s2.3,1,3.6,1s2.5-0.3,3.7-1
		s2-1.5,2.4-2.6l1.6,0.4c-0.4,0.9-0.9,1.7-1.7,2.4c-0.8,0.7-1.7,1.2-2.7,1.6C189.9,472.2,188.8,472.4,187.6,472.4L187.6,472.4z
		 M180.2,462H195c-0.1-1.5-0.5-2.8-1.1-3.9s-1.6-2-2.6-2.6c-1.1-0.6-2.3-1-3.6-1s-2.5,0.3-3.6,1c-1.1,0.6-2,1.5-2.6,2.6
		S180.3,460.5,180.2,462L180.2,462z"/>
	<path class="st0" d="M206.8,472v-25.6h1.8V472H206.8z"/>
	<path class="st0" d="M228.3,472h-1.8v-10.4c0-2.4-0.3-4.1-1-5.2c-0.7-1.1-1.8-1.7-3.3-1.7c-1.1,0-2.1,0.2-3.1,0.8s-1.9,1.2-2.7,2.1
		c-0.8,0.9-1.3,1.9-1.6,3V472H213v-18.7h1.7v4.5c0.5-1,1.2-1.8,2-2.5c0.8-0.7,1.8-1.3,2.8-1.7s2.1-0.6,3.2-0.6c1,0,1.9,0.2,2.6,0.6
		s1.3,0.9,1.7,1.6c0.4,0.7,0.8,1.5,0.9,2.6s0.3,2.2,0.3,3.5L228.3,472L228.3,472z"/>
	<path class="st0" d="M247.3,472h-1.8v-10.4c0-2.4-0.3-4.1-1-5.2c-0.7-1.1-1.8-1.7-3.3-1.7c-1.1,0-2.1,0.2-3.1,0.8s-1.9,1.2-2.7,2.1
		c-0.8,0.9-1.3,1.9-1.6,3V472H232v-18.7h1.7v4.5c0.5-1,1.2-1.8,2-2.5c0.8-0.7,1.8-1.3,2.8-1.7s2.1-0.6,3.2-0.6c1,0,1.9,0.2,2.6,0.6
		s1.3,0.9,1.7,1.6c0.4,0.7,0.8,1.5,0.9,2.6s0.3,2.2,0.3,3.5L247.3,472L247.3,472z"/>
	<path class="st0" d="M256.8,466.6c0-1.1,0.3-2.1,1-2.9c0.7-0.8,1.6-1.5,2.8-1.9s2.5-0.7,4.1-0.7c1,0,2,0.1,3,0.2s2,0.4,2.8,0.7
		v-1.8c0-1.7-0.5-3.1-1.5-4.1c-1-1-2.4-1.5-4.1-1.5c-0.9,0-1.9,0.2-2.9,0.6s-2,0.9-3.1,1.7l-0.8-1.3c1.2-0.8,2.4-1.4,3.5-1.9
		c1.1-0.4,2.3-0.6,3.4-0.6c2.2,0,4,0.7,5.3,2s1.9,3.1,1.9,5.4v9.2c0,0.3,0.1,0.5,0.2,0.6c0.1,0.1,0.3,0.2,0.6,0.2v1.5
		c-0.2,0-0.4,0-0.5,0h-0.4c-0.5-0.1-0.8-0.3-1.1-0.6c-0.2-0.3-0.4-0.7-0.4-1V469c-0.9,1.1-2,1.9-3.3,2.5c-1.4,0.6-2.8,0.9-4.3,0.9
		c-1.2,0-2.2-0.2-3.2-0.8s-1.7-1.2-2.2-2.1S256.8,467.7,256.8,466.6L256.8,466.6z M269.7,468.2c0.2-0.3,0.4-0.6,0.5-0.9
		s0.2-0.5,0.2-0.8v-3.1c-0.9-0.3-1.8-0.6-2.7-0.8s-1.9-0.2-2.9-0.2c-1.9,0-3.4,0.4-4.5,1.1c-1.2,0.7-1.8,1.8-1.8,3
		c0,0.8,0.2,1.5,0.6,2.2c0.4,0.7,1,1.2,1.7,1.6s1.6,0.6,2.5,0.6c1.3,0,2.6-0.3,3.7-0.8C268.3,469.6,269.1,469,269.7,468.2z"/>
	<path class="st0" d="M284.1,471.3c-0.1,0-0.4,0.2-0.7,0.4c-0.4,0.2-0.8,0.4-1.4,0.5c-0.5,0.2-1.2,0.2-1.8,0.2s-1.2-0.1-1.8-0.4
		c-0.6-0.2-1-0.6-1.4-1.1s-0.5-1.1-0.5-1.9v-14.2h-2.6v-1.5h2.6v-6.4h1.8v6.4h4.4v1.5h-4.4v13.8c0,0.7,0.3,1.2,0.8,1.6
		c0.5,0.4,1,0.5,1.6,0.5c0.7,0,1.4-0.1,1.9-0.4s0.9-0.4,1-0.5L284.1,471.3L284.1,471.3z"/>
	<path class="st0" d="M313.2,446.5V472h-1.8v-12.2h-16.1V472h-1.8v-25.6h1.8v11.7h16.1v-11.7H313.2z"/>
	<path class="st0" d="M315.8,466.6c0-1.1,0.3-2.1,1-2.9c0.7-0.8,1.6-1.5,2.8-1.9s2.5-0.7,4.1-0.7c1,0,2,0.1,3,0.2s2,0.4,2.8,0.7
		v-1.8c0-1.7-0.5-3.1-1.5-4.1c-1-1-2.4-1.5-4.1-1.5c-0.9,0-1.9,0.2-2.9,0.6s-2,0.9-3.1,1.7l-0.8-1.3c1.2-0.8,2.4-1.4,3.5-1.9
		c1.1-0.4,2.3-0.6,3.4-0.6c2.2,0,4,0.7,5.3,2s1.9,3.1,1.9,5.4v9.2c0,0.3,0.1,0.5,0.2,0.6c0.1,0.1,0.3,0.2,0.6,0.2v1.5
		c-0.2,0-0.4,0-0.5,0h-0.4c-0.5-0.1-0.8-0.3-1.1-0.6c-0.2-0.3-0.4-0.7-0.4-1V469c-0.9,1.1-2,1.9-3.3,2.5c-1.4,0.6-2.8,0.9-4.3,0.9
		c-1.2,0-2.2-0.2-3.2-0.8s-1.7-1.2-2.2-2.1S315.8,467.7,315.8,466.6L315.8,466.6z M328.7,468.2c0.2-0.3,0.4-0.6,0.5-0.9
		s0.2-0.5,0.2-0.8v-3.1c-0.9-0.3-1.8-0.6-2.7-0.8s-1.9-0.2-2.9-0.2c-1.9,0-3.4,0.4-4.5,1.1c-1.2,0.7-1.8,1.8-1.8,3
		c0,0.8,0.2,1.5,0.6,2.2c0.4,0.7,1,1.2,1.7,1.6s1.6,0.6,2.5,0.6c1.3,0,2.6-0.3,3.7-0.8C327.3,469.6,328.2,469,328.7,468.2z"/>
	<path class="st0" d="M340.8,472.4c-1.5,0-2.9-0.2-4.1-0.8c-1.3-0.5-2.4-1.3-3.4-2.3l0.8-1.3c1,1,2.1,1.7,3.1,2.1
		c1.1,0.4,2.2,0.7,3.5,0.7c1.6,0,2.9-0.3,3.9-1s1.5-1.6,1.5-2.8c0-0.8-0.2-1.4-0.7-1.9s-1.1-0.8-2-1.1c-0.9-0.3-1.9-0.6-3.2-0.9
		c-1.3-0.3-2.4-0.7-3.2-1c-0.9-0.4-1.5-0.8-2-1.4s-0.6-1.4-0.6-2.3c0-1.2,0.3-2.2,0.9-3c0.6-0.8,1.4-1.4,2.5-1.8s2.2-0.6,3.5-0.6
		c1.5,0,2.7,0.2,3.8,0.7s1.9,1.1,2.5,1.9l-1,1.1c-0.6-0.8-1.4-1.3-2.3-1.7s-2-0.6-3.2-0.6c-0.9,0-1.7,0.1-2.5,0.4
		c-0.8,0.2-1.4,0.6-1.9,1.2c-0.5,0.5-0.7,1.3-0.7,2.2c0,0.7,0.2,1.3,0.5,1.7s0.9,0.7,1.6,1s1.6,0.5,2.6,0.8c1.5,0.4,2.7,0.7,3.8,1.1
		c1.1,0.4,1.9,0.9,2.5,1.5c0.6,0.6,0.9,1.5,0.9,2.6c0,1.7-0.6,3-1.9,4C344.7,471.9,343,472.4,340.8,472.4L340.8,472.4z"/>
	<path class="st0" d="M358.7,471.3c-0.1,0-0.4,0.2-0.7,0.4c-0.4,0.2-0.8,0.4-1.4,0.5c-0.5,0.2-1.2,0.2-1.8,0.2s-1.2-0.1-1.8-0.4
		c-0.6-0.2-1-0.6-1.4-1.1s-0.5-1.1-0.5-1.9v-14.2h-2.6v-1.5h2.6v-6.4h1.8v6.4h4.4v1.5h-4.4v13.8c0,0.7,0.3,1.2,0.8,1.6
		c0.5,0.4,1,0.5,1.6,0.5c0.7,0,1.4-0.1,1.9-0.4s0.9-0.4,1-0.5L358.7,471.3L358.7,471.3z"/>
	<path class="st0" d="M360.1,449v-3.3h1.8v3.3H360.1z M360.1,472v-18.7h1.8V472H360.1z"/>
	<path class="st0" d="M381,472h-1.8v-10.4c0-2.4-0.3-4.1-1-5.2c-0.7-1.1-1.8-1.7-3.3-1.7c-1.1,0-2.1,0.2-3.1,0.8s-1.9,1.2-2.7,2.1
		c-0.8,0.9-1.3,1.9-1.6,3V472h-1.8v-18.7h1.7v4.5c0.5-1,1.2-1.8,2-2.5s1.8-1.3,2.8-1.7s2.1-0.6,3.2-0.6c1,0,1.9,0.2,2.6,0.6
		s1.3,0.9,1.7,1.6c0.4,0.7,0.8,1.5,1,2.6s0.3,2.2,0.3,3.5L381,472L381,472z"/>
	<path class="st0" d="M392.2,472.4c-1.3,0-2.5-0.3-3.5-0.8c-1.1-0.5-2-1.2-2.8-2.2c-0.8-0.9-1.4-2-1.8-3.1c-0.4-1.1-0.7-2.3-0.7-3.5
		s0.2-2.5,0.6-3.7s1-2.2,1.8-3.1s1.7-1.6,2.8-2.1c1.1-0.5,2.2-0.8,3.5-0.8c1.6,0,3,0.4,4.3,1.3c1.2,0.8,2.2,1.9,3.1,3.1v-4.1h1.7v19
		c0,1.7-0.4,3.1-1.2,4.2c-0.8,1.1-1.9,2-3.2,2.6s-2.8,0.8-4.4,0.8c-2.2,0-3.9-0.4-5.2-1.2s-2.3-1.8-3.1-3.1l1.2-0.8
		c0.7,1.2,1.8,2.2,3,2.8c1.3,0.6,2.6,0.9,4.1,0.9c1.3,0,2.4-0.2,3.5-0.7s1.9-1.1,2.6-2.1c0.6-0.9,1-2,1-3.4v-4.1
		c-0.7,1.2-1.8,2.2-3,2.9C395,472,393.6,472.4,392.2,472.4L392.2,472.4z M392.7,470.8c0.8,0,1.6-0.1,2.3-0.4s1.4-0.7,2-1.2
		c0.6-0.5,1.1-1,1.5-1.6c0.4-0.6,0.6-1.2,0.7-1.8v-6.2c-0.4-1-0.9-1.8-1.6-2.6c-0.7-0.8-1.5-1.3-2.5-1.8c-0.9-0.4-1.9-0.6-2.8-0.6
		c-1.1,0-2.1,0.2-3,0.7c-0.9,0.5-1.6,1.1-2.2,1.9c-0.6,0.8-1.1,1.7-1.4,2.6s-0.5,1.9-0.5,2.9c0,1.1,0.2,2.1,0.6,3.1
		c0.4,1,0.9,1.8,1.6,2.6c0.7,0.8,1.5,1.3,2.4,1.8S391.6,470.8,392.7,470.8L392.7,470.8z"/>
	<path class="st0" d="M410.8,472.4c-1.5,0-2.9-0.2-4.1-0.8c-1.3-0.5-2.4-1.3-3.4-2.3l0.8-1.3c1,1,2.1,1.7,3.1,2.1
		c1.1,0.4,2.2,0.7,3.5,0.7c1.6,0,2.9-0.3,3.9-1s1.5-1.6,1.5-2.8c0-0.8-0.2-1.4-0.7-1.9s-1.1-0.8-2-1.1c-0.9-0.3-1.9-0.6-3.2-0.9
		c-1.3-0.3-2.4-0.7-3.2-1c-0.9-0.4-1.5-0.8-2-1.4s-0.6-1.4-0.6-2.3c0-1.2,0.3-2.2,0.9-3c0.6-0.8,1.4-1.4,2.5-1.8s2.2-0.6,3.5-0.6
		c1.5,0,2.7,0.2,3.8,0.7s1.9,1.1,2.5,1.9l-1,1.1c-0.6-0.8-1.4-1.3-2.3-1.7s-2-0.6-3.2-0.6c-0.9,0-1.7,0.1-2.5,0.4
		c-0.8,0.2-1.4,0.6-1.9,1.2c-0.5,0.5-0.7,1.3-0.7,2.2c0,0.7,0.2,1.3,0.5,1.7s0.9,0.7,1.6,1s1.6,0.5,2.6,0.8c1.5,0.4,2.7,0.7,3.8,1.1
		c1.1,0.4,1.9,0.9,2.5,1.5c0.6,0.6,0.9,1.5,0.9,2.6c0,1.7-0.6,3-1.9,4C414.6,471.9,412.9,472.4,410.8,472.4L410.8,472.4z"/>
	<path class="st0" d="M428.3,472v-25.6h10.5c1.1,0,2.1,0.2,3,0.7s1.7,1.1,2.4,1.8c0.7,0.8,1.2,1.6,1.6,2.5c0.4,0.9,0.6,1.9,0.6,2.9
		c0,1.4-0.3,2.7-0.9,3.9c-0.6,1.2-1.5,2.2-2.5,3c-1.1,0.8-2.3,1.1-3.8,1.1h-8.9v9.6H428.3z M430.2,460.7h8.8c1.1,0,2.1-0.3,2.9-0.9
		s1.4-1.4,1.9-2.3s0.6-2,0.6-3.1s-0.3-2.2-0.8-3.1c-0.5-1-1.2-1.7-2-2.3c-0.9-0.6-1.8-0.9-2.8-0.9h-8.6L430.2,460.7L430.2,460.7z"/>
	<path class="st0" d="M446.6,466.6c0-1.1,0.3-2.1,1-2.9c0.7-0.8,1.6-1.5,2.8-1.9s2.5-0.7,4.1-0.7c1,0,2,0.1,3,0.2s2,0.4,2.8,0.7
		v-1.8c0-1.7-0.5-3.1-1.5-4.1c-1-1-2.4-1.5-4.1-1.5c-0.9,0-1.9,0.2-2.9,0.6s-2,0.9-3.1,1.7l-0.8-1.3c1.2-0.8,2.4-1.4,3.5-1.9
		c1.1-0.4,2.3-0.6,3.4-0.6c2.2,0,4,0.7,5.3,2s1.9,3.1,1.9,5.4v9.2c0,0.3,0.1,0.5,0.2,0.6c0.1,0.1,0.3,0.2,0.6,0.2v1.5
		c-0.2,0-0.4,0-0.5,0h-0.4c-0.5-0.1-0.8-0.3-1.1-0.6c-0.2-0.3-0.4-0.7-0.4-1V469c-0.9,1.1-2,1.9-3.3,2.5c-1.4,0.6-2.8,0.9-4.3,0.9
		c-1.2,0-2.2-0.2-3.2-0.8s-1.7-1.2-2.2-2.1S446.6,467.7,446.6,466.6L446.6,466.6z M459.5,468.2c0.2-0.3,0.4-0.6,0.5-0.9
		s0.2-0.5,0.2-0.8v-3.1c-0.9-0.3-1.8-0.6-2.7-0.8s-1.9-0.2-2.9-0.2c-1.9,0-3.4,0.4-4.5,1.1c-1.2,0.7-1.8,1.8-1.8,3
		c0,0.8,0.2,1.5,0.6,2.2c0.4,0.7,1,1.2,1.7,1.6s1.6,0.6,2.5,0.6c1.3,0,2.6-0.3,3.7-0.8C458.1,469.6,459,469,459.5,468.2z"/>
	<path class="st0" d="M474.6,454.9c-1.7,0-3.1,0.5-4.4,1.5c-1.3,1-2.1,2.2-2.6,3.9V472h-1.8v-18.7h1.7v4.6c0.6-1.3,1.5-2.4,2.6-3.2
		s2.2-1.3,3.4-1.4c0.2,0,0.5,0,0.6,0h0.5L474.6,454.9L474.6,454.9z"/>
	<path class="st0" d="M489.7,472l-7.3-10l-4.4,4.1v5.9h-1.8v-26.3h1.8v18.3l11.4-10.7h2l-7.8,7.6l8.1,11.1H489.7L489.7,472z"/>
</g>
<g>
	<g>
		<g>
			<path class="st1" d="M202.9,204.2c-8.3,1-16.9-0.3-24.7-3.6c-24.8-10.6-36.1-38.9-26.1-64.5c1.7-4.3,9.7-19.4,16.5-30
				c0.7-1.1,2-1.5,3.2-1l79.6,34.2c1.2,0.5,1.8,1.8,1.5,3c-3,12.2-8.4,28.5-10.4,32.7C235,191.2,220.2,202.1,202.9,204.2
				L202.9,204.2z M171.8,110.7c-6.3,10.1-13.4,23.5-14.9,27.3c-9,23,1.1,48.4,23,57.8c7.3,3.1,14.9,4.2,22.3,3.3
				c15.2-1.8,28.9-11.9,35.7-26.4c1.7-3.7,6.5-18.1,9.5-29.6L171.8,110.7L171.8,110.7z"/>
			<path class="st1" d="M183,274.5c-0.4,0-0.9,0-1.3-0.2l-59.4-25.5c-1.3-0.6-1.9-2.1-1.3-3.4c0.6-1.3,2.1-1.9,3.4-1.4
				c4.8,2.1,10.1,2.8,15.2,2.2c10.5-1.3,19.7-8.1,23.9-17.8c0.6-1.3,2.1-1.9,3.4-1.4c1.3,0.6,1.9,2.1,1.4,3.4
				c-6.4,15.1,0.6,32.6,15.6,39.1c1.3,0.5,1.9,2.1,1.4,3.4C184.6,273.9,183.8,274.4,183,274.5L183,274.5z M141,251.3l25.9,11.1
				c-4.3-6-6.6-13.4-6.4-20.9C155.3,246.7,148.5,250.2,141,251.3L141,251.3z"/>
			<path class="st1" d="M201.9,195.4c-6.8,0.8-13.8-0.2-20.2-2.9c-20.2-8.7-29.5-31.8-21.3-52.7c1.6-3.8,3.9-5.9,6.9-6.2
				c5.4-0.6,11.1,4.5,18.4,11c7.8,7.1,16.7,15,25.6,15.7c2.6,0.2,4.9,0.2,7.1-0.1c5.9-0.7,10.2-3.1,14.4-8c5.4-6.3,7-11.3,5.4-16.8
				c-0.2-0.8-0.7-1.6-1.1-2.4c-0.6-1.1-1.2-2.1-1.2-3.2c-0.2-3.2,2.3-6,5.5-6.2c3.2-0.2,6,2.3,6.2,5.5c0,0.8-0.1,1.9-0.6,3.4
				c-2.1,8.4-6.5,24.9-12.5,38.8C228.1,184.8,216,193.7,201.9,195.4L201.9,195.4z M167.9,138.7c-0.4,0-1.5,0.2-2.8,3.1
				c-7.1,18.2,0.9,38.4,18.4,45.9c5.8,2.5,11.8,3.4,17.8,2.7c12.1-1.4,23-9.5,28.4-21c1.5-3.5,2.9-7.1,4.2-10.8
				c-6.1,5.7-13.2,7.8-23,7c-10.6-0.8-20.2-9.4-28.6-17C176.7,143.4,170.9,138.3,167.9,138.7L167.9,138.7z M240.9,129.4
				c0.1,0.3,0.4,0.7,0.6,1.1c0.1,0.2,0.3,0.5,0.4,0.7c0.4-1.4,0.4-1.8,0.4-1.8c0-0.3-0.4-0.6-0.8-0.6
				C241.2,128.8,241,129.1,240.9,129.4L240.9,129.4z"/>
		</g>
		<path class="st1" d="M166,232.1c-0.4,0.1-0.9,0-1.3-0.2c-1.3-0.6-1.9-2.1-1.4-3.4l13.4-31.4c0.6-1.3,2.1-1.9,3.4-1.4
			c1.3,0.6,1.9,2.1,1.4,3.4L168,230.5C167.7,231.4,166.9,232,166,232.1L166,232.1z"/>
		<path class="st1" d="M170.1,129.9c-0.5,0.1-1,0-1.5-0.3c-1.2-0.7-1.7-2.2-1-3.5l4.8-8.7c0.7-1.2,2.2-1.7,3.5-1s1.7,2.3,1,3.5
			l-4.8,8.7C171.7,129.3,170.9,129.8,170.1,129.9L170.1,129.9z"/>
	</g>
	<g>
		<g>
			<path class="st1" d="M259.1,134.6c-1.9-4.2-6.9-20.6-9.6-32.9c-0.3-1.2,0.4-2.5,1.6-2.9l80.4-32.3c1.2-0.5,2.5,0,3.1,1.1
				c6.6,10.8,14.3,26.1,15.8,30.4c9.4,25.8-2.6,53.8-27.6,63.9c-7.9,3.2-16.4,4.2-24.7,3C280.9,162.3,266.3,151,259.1,134.6
				L259.1,134.6z M255,102.7c2.7,11.5,7.1,26.1,8.8,29.8c6.4,14.6,19.8,25,35,27.2c7.4,1.1,15,0.1,22.4-2.8
				c22.1-8.9,32.8-34,24.4-57.2c-1.4-3.8-8.2-17.4-14.3-27.6L255,102.7L255,102.7z"/>
			<path class="st1" d="M314.4,234c-0.5-1.3,0.1-2.8,1.4-3.4c15.2-6.1,22.6-23.5,16.5-38.7c-0.5-1.3,0.1-2.8,1.4-3.4
				c1.3-0.5,2.8,0.1,3.4,1.4c4,9.8,12.9,16.9,23.4,18.4c5.1,0.7,10.4,0.1,15.3-1.9c1.3-0.5,2.8,0.1,3.4,1.4c0.5,1.3-0.1,2.8-1.4,3.4
				l-60,24.1c-0.4,0.2-0.9,0.2-1.3,0.2C315.5,235.5,314.7,234.9,314.4,234L314.4,234z M339.6,203.2c0,7.5-2.5,14.8-6.9,20.7
				l26.2-10.5C351.5,212.1,344.7,208.4,339.6,203.2L339.6,203.2z"/>
			<path class="st1" d="M267.5,131.3c-5.7-14.1-9.7-30.7-11.6-39.1c-0.4-1.5-0.6-2.6-0.5-3.4c0.3-3.2,3.1-5.6,6.3-5.4
				c3.3,0.2,5.6,3.1,5.4,6.3c-0.1,1.1-0.6,2-1.3,3.2c-0.5,0.8-1,1.6-1.2,2.4c-1.7,5.5-0.2,10.5,5,16.9c4.1,5,8.4,7.5,14.3,8.4
				c2.1,0.3,4.5,0.4,7,0.2c8.9-0.5,17.9-8.3,25.9-15.1c7.4-6.3,13.3-11.4,18.6-10.6c3,0.4,5.2,2.6,6.8,6.4
				c7.7,21.1-2.1,44-22.5,52.2c-6.4,2.6-13.4,3.4-20.2,2.5C285.3,154,273.4,144.8,267.5,131.3L267.5,131.3z M320.1,109.5
				c-8.6,7.4-18.4,15.8-29,16.4c-9.9,0.6-16.9-1.7-22.8-7.5c1.2,3.7,2.5,7.4,3.9,10.9c5.1,11.6,15.8,19.9,27.9,21.7
				c5.9,0.8,12,0.1,17.8-2.2c17.6-7.1,26.1-27.1,19.4-45.5c-1.2-2.9-2.3-3.1-2.7-3.1C331.6,99.7,325.8,104.7,320.1,109.5
				L320.1,109.5z M261.2,88.5c-0.4,0-0.7,0.3-0.8,0.6c0,0,0,0.4,0.4,1.8c0.1-0.3,0.3-0.5,0.4-0.7c0.2-0.3,0.5-0.8,0.6-1.1
				C261.9,88.8,261.6,88.5,261.2,88.5L261.2,88.5z"/>
		</g>
		<path class="st1" d="M334.4,193.6c0.4,0.1,0.9,0,1.3-0.2c1.3-0.5,2-2,1.4-3.4l-12.7-31.7c-0.5-1.3-2-2-3.4-1.4
			c-1.3,0.5-2,2-1.4,3.4l12.7,31.7C332.7,192.8,333.5,193.4,334.4,193.6L334.4,193.6z"/>
		<path class="st1" d="M332.6,91.3c0.5,0.1,1,0,1.5-0.3c1.3-0.7,1.8-2.2,1.1-3.5l-4.6-8.8c-0.7-1.3-2.2-1.8-3.5-1.1
			c-1.3,0.7-1.8,2.2-1.1,3.5l4.6,8.8C331.1,90.7,331.8,91.2,332.6,91.3z"/>
	</g>
</g>
</svg>
