<?xml version="1.0" encoding="utf-8"?>
<!-- Generator: Adobe Illustrator 26.5.0, SVG Export Plug-In . SVG Version: 6.00 Build 0)  -->
<svg version="1.1" id="Capa_1" xmlns="http://www.w3.org/2000/svg" xmlns:xlink="http://www.w3.org/1999/xlink" x="0px" y="0px"
	 viewBox="0 0 500 500" style="enable-background:new 0 0 500 500;" xml:space="preserve">
<style type="text/css">
	.st0{fill:#385072;}
	.st1{fill:#FFFFFF;}
</style>
<path class="st0" d="M449,32.8H47.6c-6.6,0-12,5.4-12,12V306c0,6.6,5.4,12,12,12h402.6c6.6,0,12-5.4,12-12V45.9
	C462.2,38.7,456.3,32.8,449,32.8z"/>
<g>
	<path class="st0" d="M110.1,364.6c-0.4-0.5-0.9-0.9-1.4-1.2s-1-0.6-1.6-0.9c-0.6-0.2-1.2-0.4-1.9-0.5c-0.7-0.1-1.4-0.2-2.2-0.2
		c-2.5,0-4.3,0.5-5.4,1.4s-1.7,2.2-1.7,3.8c0,1.1,0.3,1.9,0.8,2.6c0.5,0.6,1.3,1.1,2.4,1.5c1.1,0.4,2.5,0.8,4.3,1.1
		c1.8,0.4,3.4,0.8,4.8,1.4s2.4,1.2,3.1,2.1c0.7,0.9,1.1,2.1,1.1,3.6c0,1.1-0.2,2.1-0.7,3s-1.1,1.5-1.9,2.1c-0.8,0.5-1.8,1-2.9,1.3
		s-2.4,0.4-3.7,0.4s-2.6-0.1-3.8-0.4s-2.3-0.7-3.4-1.3c-1.1-0.5-2-1.3-2.9-2.1l1-1.5c0.5,0.6,1.1,1.1,1.8,1.5
		c0.7,0.4,1.4,0.8,2.2,1.1c0.8,0.3,1.6,0.6,2.5,0.7s1.8,0.3,2.8,0.3c2.2,0,4-0.4,5.2-1.2c1.3-0.8,1.9-2,1.9-3.7c0-1.1-0.3-2-0.9-2.7
		s-1.5-1.3-2.7-1.7s-2.7-0.9-4.5-1.2s-3.3-0.8-4.6-1.3c-1.3-0.5-2.2-1.1-2.8-1.9s-0.9-1.9-0.9-3.3c0-1.5,0.4-2.8,1.1-3.9
		s1.8-1.9,3.2-2.4s2.9-0.8,4.7-0.8c1.1,0,2.1,0.1,3.1,0.3s1.8,0.5,2.6,1c0.8,0.4,1.6,1,2.2,1.7L110.1,364.6L110.1,364.6z"/>
	<path class="st0" d="M125.7,386.3c-1.6,0-3-0.4-4.3-1.3s-2.3-1.9-3-3.1v11.7h-1.8v-26.4h1.7v3.8c0.8-1.2,1.8-2.2,3.1-2.9
		s2.6-1.1,4-1.1c1.3,0,2.5,0.3,3.6,0.8s2,1.3,2.8,2.2c0.8,0.9,1.4,2,1.9,3.1c0.4,1.1,0.7,2.3,0.7,3.6c0,1.7-0.4,3.3-1.1,4.8
		s-1.7,2.6-3,3.5C128.9,385.8,127.4,386.3,125.7,386.3L125.7,386.3z M125.2,384.7c1.1,0,2.1-0.2,3-0.7c0.9-0.4,1.6-1.1,2.2-1.8
		s1.1-1.6,1.4-2.6c0.3-1,0.5-1.9,0.5-2.9c0-1.1-0.2-2.1-0.6-3.1c-0.4-1-0.9-1.8-1.6-2.6c-0.7-0.7-1.5-1.3-2.4-1.8s-1.9-0.7-2.9-0.7
		c-0.7,0-1.3,0.1-2.1,0.4s-1.4,0.6-2.1,1.1c-0.7,0.5-1.2,1-1.6,1.6c-0.4,0.6-0.7,1.2-0.8,1.9v6.1c0.4,0.9,1,1.7,1.7,2.5
		s1.5,1.4,2.4,1.8C123.3,384.4,124.2,384.7,125.2,384.7L125.2,384.7z"/>
	<path class="st0" d="M146.5,386.3c-1.3,0-2.5-0.3-3.7-0.8c-1.1-0.5-2.1-1.2-2.9-2.1s-1.5-1.9-1.9-3.1c-0.5-1.2-0.7-2.4-0.7-3.8
		c0-1.8,0.4-3.4,1.2-4.8s1.9-2.6,3.3-3.5c1.4-0.9,2.9-1.3,4.7-1.3s3.4,0.4,4.7,1.3c1.4,0.9,2.4,2,3.3,3.5c0.8,1.5,1.2,3,1.2,4.8v0.4
		c0,0.1,0,0.3,0,0.4h-16.4c0.1,1.4,0.5,2.7,1.2,3.8c0.7,1.1,1.6,2,2.7,2.7s2.3,1,3.6,1s2.5-0.3,3.7-1s2-1.5,2.4-2.6l1.6,0.4
		c-0.4,0.9-0.9,1.7-1.7,2.4c-0.8,0.7-1.7,1.2-2.7,1.6C148.8,386.1,147.7,386.3,146.5,386.3L146.5,386.3z M139.1,375.9h14.8
		c-0.1-1.5-0.5-2.8-1.1-3.9s-1.6-2-2.6-2.6c-1.1-0.6-2.3-1-3.6-1s-2.5,0.3-3.6,1c-1.1,0.6-2,1.5-2.6,2.6S139.1,374.5,139.1,375.9
		L139.1,375.9z"/>
	<path class="st0" d="M167.5,386.3c-1.3,0-2.5-0.3-3.6-0.8c-1.1-0.5-2.1-1.2-2.9-2.1s-1.5-1.9-2-3.1s-0.7-2.4-0.7-3.8
		c0-1.8,0.4-3.4,1.2-4.8s1.9-2.6,3.3-3.4s3-1.3,4.8-1.3s3.2,0.4,4.5,1.2s2.3,1.8,2.9,3.2l-1.8,0.6c-0.6-1-1.3-1.8-2.4-2.4
		s-2.1-0.9-3.4-0.9c-1.4,0-2.6,0.4-3.7,1c-1.1,0.7-2,1.6-2.6,2.9c-0.7,1.2-1,2.6-1,4.1s0.3,2.8,1,4.1s1.6,2.2,2.7,3
		c1.1,0.7,2.4,1.1,3.7,1.1c0.9,0,1.7-0.2,2.5-0.5s1.6-0.8,2.2-1.3s1-1.1,1.2-1.7l1.8,0.5c-0.3,0.9-0.9,1.7-1.6,2.4
		c-0.8,0.7-1.7,1.2-2.7,1.6C169.8,386.1,168.7,386.3,167.5,386.3L167.5,386.3z"/>
	<path class="st0" d="M179.1,363v-3.3h1.8v3.3H179.1z M179.1,385.9v-18.7h1.8v18.7H179.1z"/>
	<path class="st0" d="M185.1,380.5c0-1.1,0.3-2.1,1-2.9c0.7-0.8,1.6-1.5,2.8-1.9s2.5-0.7,4.1-0.7c1,0,2,0.1,3,0.2s2,0.4,2.8,0.7
		v-1.8c0-1.7-0.5-3.1-1.5-4.1c-1-1-2.4-1.5-4.1-1.5c-0.9,0-1.9,0.2-2.9,0.6c-1,0.4-2,0.9-3.1,1.7l-0.8-1.3c1.2-0.8,2.4-1.4,3.6-1.9
		s2.3-0.6,3.4-0.6c2.2,0,4,0.7,5.3,2s1.9,3.1,1.9,5.4v9.2c0,0.3,0.1,0.5,0.2,0.6s0.3,0.2,0.6,0.2v1.5c-0.2,0-0.4,0-0.5,0h-0.4
		c-0.5-0.1-0.8-0.3-1.1-0.6c-0.2-0.3-0.4-0.7-0.4-1v-1.5c-0.9,1.1-2,1.9-3.3,2.5c-1.4,0.6-2.8,0.9-4.3,0.9c-1.2,0-2.2-0.2-3.2-0.8
		s-1.7-1.2-2.2-2.1S185.1,381.6,185.1,380.5L185.1,380.5z M197.9,382.1c0.2-0.3,0.4-0.6,0.5-0.9s0.2-0.5,0.2-0.8v-3.1
		c-0.9-0.3-1.8-0.6-2.7-0.8s-1.9-0.2-2.9-0.2c-1.9,0-3.4,0.4-4.6,1.1s-1.8,1.8-1.8,3c0,0.8,0.2,1.5,0.6,2.2s1,1.2,1.7,1.6
		c0.7,0.4,1.6,0.6,2.5,0.6c1.3,0,2.6-0.3,3.7-0.8C196.5,383.6,197.4,382.9,197.9,382.1L197.9,382.1z"/>
	<path class="st0" d="M206.1,359.6h1.8v22.7c0,0.9,0.2,1.5,0.5,1.8c0.4,0.3,0.8,0.5,1.4,0.5c0.4,0,0.8,0,1.2-0.1
		c0.4-0.1,0.8-0.2,1.1-0.3l0.4,1.5c-0.4,0.1-0.9,0.3-1.5,0.4s-1.1,0.2-1.6,0.2c-1,0-1.8-0.3-2.4-0.9c-0.6-0.6-0.9-1.4-0.9-2.5V359.6
		z"/>
	<path class="st0" d="M223.9,385.9v-25.6h10.5c1.1,0,2.1,0.2,3,0.7c0.9,0.5,1.7,1.1,2.4,1.8s1.2,1.6,1.6,2.5
		c0.4,0.9,0.6,1.9,0.6,2.9c0,1.4-0.3,2.7-0.9,3.9s-1.4,2.2-2.5,3s-2.3,1.1-3.8,1.1h-8.9v9.6H223.9z M225.8,374.6h8.8
		c1.1,0,2.1-0.3,2.9-0.9c0.8-0.6,1.4-1.4,1.9-2.3s0.6-2,0.6-3.1s-0.3-2.2-0.8-3.1c-0.5-1-1.2-1.7-2.1-2.3c-0.9-0.6-1.8-0.9-2.8-0.9
		h-8.6L225.8,374.6L225.8,374.6z"/>
	<path class="st0" d="M254.6,368.8c-1.7,0-3.1,0.5-4.4,1.5c-1.3,1-2.1,2.2-2.6,3.9v11.7h-1.8v-18.7h1.7v4.6c0.6-1.3,1.5-2.4,2.6-3.2
		s2.2-1.3,3.4-1.4c0.2,0,0.5,0,0.6,0h0.5L254.6,368.8L254.6,368.8z"/>
	<path class="st0" d="M265.2,386.3c-1.3,0-2.5-0.2-3.6-0.8c-1.1-0.5-2.1-1.2-2.9-2.1s-1.5-1.9-1.9-3.1s-0.7-2.4-0.7-3.7
		s0.2-2.5,0.7-3.7c0.5-1.2,1.1-2.2,1.9-3.1s1.8-1.6,2.9-2.1c1.1-0.5,2.3-0.8,3.6-0.8s2.5,0.3,3.6,0.8c1.1,0.5,2.1,1.2,2.9,2.1
		s1.5,1.9,1.9,3.1c0.5,1.2,0.7,2.4,0.7,3.7s-0.2,2.5-0.7,3.7c-0.5,1.2-1.1,2.2-1.9,3.1c-0.8,0.9-1.8,1.6-2.9,2.1
		C267.7,386,266.5,386.3,265.2,386.3L265.2,386.3z M257.8,376.7c0,1.5,0.3,2.8,1,4s1.5,2.2,2.6,2.9c1.1,0.7,2.3,1.1,3.7,1.1
		s2.6-0.4,3.7-1.1s2-1.7,2.7-2.9s1-2.6,1-4s-0.3-2.8-1-4s-1.5-2.2-2.7-2.9c-1.1-0.7-2.3-1.1-3.6-1.1s-2.6,0.4-3.7,1.1
		s-2,1.7-2.7,2.9S257.8,375.2,257.8,376.7L257.8,376.7z"/>
	<path class="st0" d="M306.1,385.9h-1.8v-10.4c0-2.4-0.4-4.1-1.1-5.2c-0.7-1.1-1.9-1.7-3.4-1.7s-2.9,0.5-4.1,1.6s-2,2.5-2.5,4.2
		v11.5h-1.8v-10.4c0-2.4-0.4-4.1-1.1-5.2s-1.8-1.7-3.4-1.7s-2.9,0.5-4.1,1.6s-2,2.5-2.5,4.2v11.5h-1.8v-18.7h1.7v4.5
		c0.8-1.5,1.8-2.7,3.1-3.5c1.2-0.8,2.6-1.2,4.1-1.2s2.8,0.5,3.8,1.4c1,0.9,1.6,2.1,1.8,3.7c0.9-1.7,1.9-2.9,3.2-3.8
		c1.2-0.9,2.6-1.3,4.2-1.3c1,0,1.9,0.2,2.6,0.6s1.3,0.9,1.8,1.6c0.5,0.7,0.8,1.6,1,2.6s0.3,2.2,0.3,3.5L306.1,385.9L306.1,385.9z"/>
	<path class="st0" d="M319.4,386.3c-1.3,0-2.5-0.2-3.6-0.8c-1.1-0.5-2.1-1.2-2.9-2.1s-1.5-1.9-1.9-3.1s-0.7-2.4-0.7-3.7
		s0.2-2.5,0.7-3.7c0.5-1.2,1.1-2.2,1.9-3.1s1.8-1.6,2.9-2.1c1.1-0.5,2.3-0.8,3.6-0.8s2.5,0.3,3.6,0.8c1.1,0.5,2.1,1.2,2.9,2.1
		s1.5,1.9,1.9,3.1c0.5,1.2,0.7,2.4,0.7,3.7s-0.2,2.5-0.7,3.7c-0.5,1.2-1.1,2.2-1.9,3.1c-0.8,0.9-1.8,1.6-2.9,2.1
		C321.9,386,320.7,386.3,319.4,386.3L319.4,386.3z M312.1,376.7c0,1.5,0.3,2.8,1,4s1.5,2.2,2.6,2.9c1.1,0.7,2.3,1.1,3.7,1.1
		s2.6-0.4,3.7-1.1s2-1.7,2.7-2.9s1-2.6,1-4s-0.3-2.8-1-4s-1.5-2.2-2.7-2.9c-1.1-0.7-2.3-1.1-3.6-1.1s-2.6,0.4-3.7,1.1
		s-2,1.7-2.7,2.9S312.1,375.2,312.1,376.7L312.1,376.7z"/>
	<path class="st0" d="M341,385.2c-0.1,0-0.4,0.2-0.7,0.4c-0.4,0.2-0.8,0.4-1.4,0.5c-0.5,0.2-1.2,0.2-1.8,0.2s-1.2-0.1-1.8-0.4
		c-0.6-0.2-1-0.6-1.4-1.1s-0.5-1.1-0.5-1.9v-14.2h-2.6v-1.5h2.6v-6.4h1.8v6.4h4.4v1.5h-4.4v13.8c0,0.7,0.3,1.2,0.8,1.6
		c0.5,0.4,1,0.5,1.6,0.5c0.7,0,1.4-0.1,1.9-0.4s0.9-0.4,1-0.5L341,385.2L341,385.2z"/>
	<path class="st0" d="M344.1,363v-3.3h1.8v3.3H344.1z M344.1,385.9v-18.7h1.8v18.7H344.1z"/>
	<path class="st0" d="M359.4,386.3c-1.3,0-2.5-0.2-3.6-0.8c-1.1-0.5-2.1-1.2-2.9-2.1s-1.5-1.9-1.9-3.1s-0.7-2.4-0.7-3.7
		s0.2-2.5,0.7-3.7c0.5-1.2,1.1-2.2,1.9-3.1s1.8-1.6,2.9-2.1c1.1-0.5,2.3-0.8,3.6-0.8s2.5,0.3,3.6,0.8c1.1,0.5,2.1,1.2,2.9,2.1
		s1.5,1.9,1.9,3.1c0.5,1.2,0.7,2.4,0.7,3.7s-0.2,2.5-0.7,3.7c-0.5,1.2-1.1,2.2-1.9,3.1c-0.8,0.9-1.8,1.6-2.9,2.1
		C361.9,386,360.7,386.3,359.4,386.3L359.4,386.3z M352.1,376.7c0,1.5,0.3,2.8,1,4s1.5,2.2,2.6,2.9c1.1,0.7,2.3,1.1,3.7,1.1
		s2.6-0.4,3.7-1.1s2-1.7,2.7-2.9s1-2.6,1-4s-0.3-2.8-1-4s-1.5-2.2-2.7-2.9c-1.1-0.7-2.3-1.1-3.6-1.1s-2.6,0.4-3.7,1.1
		s-2,1.7-2.7,2.9S352.1,375.2,352.1,376.7L352.1,376.7z"/>
	<path class="st0" d="M388.2,385.9h-1.8v-10.4c0-2.4-0.3-4.1-1-5.2c-0.7-1.1-1.8-1.7-3.3-1.7c-1.1,0-2.1,0.2-3.1,0.8
		s-1.9,1.2-2.7,2.1c-0.8,0.9-1.3,1.9-1.6,3v11.5h-1.8v-18.7h1.7v4.5c0.5-1,1.2-1.8,2-2.5s1.8-1.3,2.8-1.7s2.1-0.6,3.2-0.6
		c1,0,1.9,0.2,2.6,0.6s1.3,0.9,1.7,1.6c0.4,0.7,0.8,1.5,1,2.6s0.3,2.2,0.3,3.5L388.2,385.9L388.2,385.9z"/>
	<path class="st0" d="M399.5,386.3c-1.5,0-2.9-0.2-4.1-0.8c-1.3-0.5-2.4-1.3-3.4-2.3l0.8-1.3c1,1,2.1,1.7,3.1,2.1
		c1.1,0.4,2.2,0.7,3.5,0.7c1.6,0,2.9-0.3,3.9-1s1.5-1.6,1.5-2.8c0-0.8-0.2-1.4-0.7-1.9s-1.1-0.8-2-1.1c-0.9-0.3-1.9-0.6-3.2-0.9
		c-1.3-0.3-2.4-0.7-3.2-1c-0.9-0.4-1.5-0.8-2-1.4s-0.6-1.4-0.6-2.3c0-1.2,0.3-2.2,0.9-3c0.6-0.8,1.4-1.4,2.5-1.8s2.2-0.6,3.5-0.6
		c1.5,0,2.7,0.2,3.8,0.7s1.9,1.1,2.5,1.9l-1,1.1c-0.6-0.8-1.4-1.3-2.3-1.7s-2-0.6-3.2-0.6c-0.9,0-1.7,0.1-2.5,0.4
		c-0.8,0.2-1.4,0.6-1.9,1.2c-0.5,0.5-0.7,1.3-0.7,2.2c0,0.7,0.2,1.3,0.5,1.7s0.9,0.7,1.6,1s1.6,0.5,2.6,0.8c1.5,0.4,2.7,0.7,3.8,1.1
		c1.1,0.4,1.9,0.9,2.5,1.5c0.6,0.6,0.9,1.5,0.9,2.6c0,1.7-0.6,3-1.9,4C403.4,385.8,401.7,386.3,399.5,386.3L399.5,386.3z"/>
</g>
<g>
	<path class="st1" d="M201.8,123.3l8.5,6l-4.4,9.4c-0.4,0.8-0.3,1.8,0.1,2.5s1.2,1.3,2.1,1.4l10.4,0.9l0.9,10.4
		c0.1,0.9,0.6,1.7,1.4,2.1c0.8,0.4,1.7,0.5,2.5,0.1l9.4-4.4l5.9,8.5c0.5,0.7,1.3,1.2,2.2,1.2s1.7-0.4,2.2-1.2l5.9-8.5l9.4,4.4
		c0.8,0.4,1.8,0.3,2.5-0.1s1.3-1.2,1.4-2.1l0.9-10.4l10.4-0.9c0.9-0.1,1.7-0.6,2.1-1.4s0.5-1.7,0.1-2.5l-4.4-9.4l8.5-5.9
		c0.7-0.5,1.2-1.3,1.2-2.2s-0.4-1.7-1.2-2.2l-8.5-5.9l4.4-9.4c0.4-0.8,0.3-1.8-0.1-2.5c-0.5-0.8-1.2-1.3-2.1-1.3l-10.4-0.9
		l-0.9-10.3c-0.1-0.9-0.6-1.7-1.4-2.1c-0.8-0.4-1.7-0.5-2.5-0.1l-9.4,4.4l-5.9-8.5c-0.5-0.7-1.3-1.2-2.2-1.2s-1.7,0.4-2.2,1.2
		l-5.9,8.5l-9.4-4.4c-0.8-0.4-1.8-0.3-2.5,0.1s-1.3,1.2-1.4,2.1l-0.9,10.3l-10.4,0.9c-0.9,0.1-1.7,0.6-2.1,1.3
		c-0.4,0.8-0.5,1.7-0.1,2.5l4.4,9.4l-8.5,5.9c-0.7,0.5-1.2,1.3-1.2,2.2S201.1,122.8,201.8,123.3L201.8,123.3z M215.4,116.1
		c1.1-0.8,1.5-2.2,0.9-3.4l-3.7-7.9l8.7-0.8c1.3-0.1,2.4-1.2,2.5-2.5l0.8-8.8l7.9,3.7c1.2,0.6,2.6,0.2,3.4-0.9l5-7.2l5,7.2
		c0.8,1.1,2.2,1.5,3.4,0.9l7.9-3.7l0.8,8.8c0.1,1.3,1.2,2.4,2.5,2.5l8.7,0.8l-3.7,7.9c-0.6,1.2-0.2,2.6,0.9,3.4l7.2,5l-7.2,5
		c-1.1,0.8-1.5,2.2-0.9,3.4l3.7,7.9l-8.7,0.8c-1.3,0.1-2.4,1.2-2.5,2.5l-0.8,8.7l-7.9-3.7c-1.2-0.6-2.6-0.2-3.4,0.9l-5,7.2l-5-7.2
		c-0.5-0.8-1.4-1.2-2.2-1.2c-0.4,0-0.8,0.1-1.1,0.3l-7.9,3.7l-0.8-8.7c-0.1-1.3-1.2-2.4-2.5-2.5l-8.7-0.8l3.7-7.9
		c0.6-1.2,0.2-2.6-0.9-3.4l-7.2-5L215.4,116.1L215.4,116.1z"/>
	<path class="st1" d="M233.8,116.8c1.5,0,2.7-1.2,2.7-2.7s-1.2-2.7-2.7-2.7s-2.7,1.2-2.7,2.7S232.3,116.8,233.8,116.8z"/>
	<path class="st1" d="M247.6,125.4c-1.5,0-2.7,1.2-2.7,2.7c0,1.5,1.2,2.7,2.7,2.7s2.7-1.2,2.7-2.7S249.1,125.4,247.6,125.4z"/>
	<path class="st1" d="M230.6,134.1c0.7,0,1.4-0.3,1.9-0.8l20.7-20.7c1.1-1.1,1.1-2.8,0-3.9s-2.8-1.1-3.9,0l-20.7,20.7
		c-1.1,1.1-1.1,2.8,0,3.9C229.2,133.9,229.9,134.1,230.6,134.1L230.6,134.1z"/>
	<path class="st1" d="M338.1,246.3l-26.4-45.7l-4.3-7.4l0,0l-22.1-38.3c-0.8-1.3-2.4-1.8-3.7-1l-15.6,9c-0.6,0.4-1.1,1-1.3,1.7
		s-0.1,1.4,0.3,2.1l23.3,40.3l0,0v47h-38.8v-54.7H272c1.5,0,2.7-1.2,2.7-2.7s-1.2-2.7-2.7-2.7h-78.2l2.2-1.6
		c1.2-0.9,1.5-2.6,0.6-3.8s-2.6-1.5-3.8-0.6l-9,6.5c-0.1,0-0.1,0.1-0.1,0.1c-0.1,0.1-0.2,0.1-0.2,0.2c-0.1,0.1-0.1,0.1-0.2,0.2
		c-0.1,0.1-0.1,0.1-0.2,0.2s-0.1,0.1-0.1,0.2c0,0.1-0.1,0.2-0.1,0.2c0,0.1-0.1,0.2-0.1,0.2c0,0.1-0.1,0.2-0.1,0.2c0,0.1,0,0.2,0,0.3
		c0,0.1,0,0.1,0,0.2v60.2c0,1.5,1.2,2.7,2.7,2.7H291c1.5,0,2.7-1.2,2.7-2.7v-40.3l1.9,3.4l0,0l22.1,38.3c0.5,0.9,1.4,1.4,2.4,1.4
		c0.5,0,0.9-0.1,1.4-0.4l15.6-9c0.6-0.4,1.1-1,1.3-1.7S338.5,246.9,338.1,246.3L338.1,246.3z M244,253.9h-11.7v-54.7H244V253.9z
		 M188.1,199.2h38.8v54.7h-38.8V199.2z M309.9,208.3l-10.9,6.3l-2.9-5l-2.9-5l10.9-6.3l2.9,5L309.9,208.3z M282,159.9l19.4,33.6
		l-10.9,6.3l-19.4-33.6L282,159.9z M321.2,252.9l-19.4-33.6l10.9-6.3l19.4,33.6L321.2,252.9z"/>
	<path class="st1" d="M164.2,109c0.5,0.8,1.4,1.2,2.2,1.2c0.5,0,1.1-0.2,1.6-0.5c1.2-0.9,1.5-2.6,0.7-3.8l-1.8-2.6
		c-0.9-1.2-2.6-1.5-3.8-0.7c-1.2,0.9-1.5,2.6-0.7,3.8L164.2,109z"/>
	<path class="st1" d="M198.1,157.1c0.5,0.8,1.4,1.2,2.2,1.2c0.5,0,1.1-0.2,1.6-0.5c1.2-0.9,1.5-2.6,0.7-3.8l-28.1-39.8
		c-0.9-1.2-2.6-1.5-3.8-0.7c-1.2,0.9-1.5,2.6-0.7,3.8L198.1,157.1z"/>
	<path class="st1" d="M206,163.5c-1.2,0.9-1.5,2.6-0.7,3.8l1.8,2.6c0.5,0.8,1.4,1.2,2.2,1.2c0.5,0,1.1-0.2,1.6-0.5
		c1.2-0.9,1.5-2.6,0.7-3.8l-1.8-2.6C208.9,163,207.2,162.7,206,163.5z"/>
	<path class="st1" d="M206.1,189.9c0.8,0,1.5-0.3,2-0.9c1-1.1,0.9-2.9-0.2-3.9l-0.5-0.4l4.6-3h49.8c1.5,0,2.7-1.2,2.7-2.7
		s-1.2-2.7-2.7-2.7h-50.6c-0.5,0-1,0.1-1.5,0.4l-6.5,4.2l-19-16.9c-1.1-1-2.9-0.9-3.9,0.2s-0.9,2.9,0.2,3.9l23.7,21.1
		C204.8,189.7,205.4,189.9,206.1,189.9L206.1,189.9z"/>
	<path class="st1" d="M166.2,148.1c-1.1-1-2.9-0.9-3.9,0.2s-0.9,2.9,0.2,3.9l9.4,8.4c0.5,0.5,1.2,0.7,1.8,0.7c0.8,0,1.5-0.3,2-0.9
		c1-1.1,0.9-2.9-0.2-3.9L166.2,148.1L166.2,148.1z"/>
	<path class="st1" d="M173.2,181.6l-7.8-3.8c-1.4-0.7-3-0.1-3.6,1.3c-0.7,1.4-0.1,3,1.3,3.6l7.8,3.8c0.4,0.2,0.8,0.3,1.2,0.3
		c1,0,2-0.6,2.4-1.5C175.1,183.9,174.5,182.2,173.2,181.6L173.2,181.6z"/>
	<path class="st1" d="M316.1,108.9c0.5,0.3,1,0.5,1.6,0.5c0.9,0,1.7-0.4,2.2-1.2l1.2-1.8c0.9-1.2,0.6-2.9-0.7-3.8s-2.9-0.6-3.8,0.7
		l-1.2,1.8C314.6,106.3,314.9,108,316.1,108.9L316.1,108.9z"/>
	<path class="st1" d="M288.6,148.4c0.5,0.3,1,0.5,1.6,0.5c0.9,0,1.7-0.4,2.2-1.2l21.1-30.2c0.9-1.2,0.6-2.9-0.7-3.8
		s-2.9-0.6-3.8,0.7l-21.1,30.2C287,145.8,287.3,147.5,288.6,148.4L288.6,148.4z"/>
	<path class="st1" d="M301.4,162.4l-1.2,1.1c-1.1,1-1.2,2.7-0.2,3.9c0.5,0.6,1.3,0.9,2,0.9c0.6,0,1.3-0.2,1.8-0.7l1.2-1.1
		c1.1-1,1.2-2.7,0.2-3.9S302.6,161.4,301.4,162.4z"/>
	<path class="st1" d="M309.2,159.2c0.5,0.6,1.3,0.9,2,0.9c0.6,0,1.3-0.2,1.8-0.7l13.7-12.1c1.1-1,1.2-2.7,0.2-3.9
		c-1-1.1-2.7-1.2-3.9-0.2l-13.7,12.1C308.3,156.4,308.2,158.1,309.2,159.2z"/>
	<path class="st1" d="M325.2,174.4l-6.2,3c-1.4,0.7-1.9,2.3-1.3,3.6c0.5,1,1.4,1.5,2.5,1.5c0.4,0,0.8-0.1,1.2-0.3l6.2-3
		c1.4-0.7,1.9-2.3,1.3-3.6C328.2,174.3,326.5,173.8,325.2,174.4z"/>
</g>
</svg>
