<svg viewBox="0 0 976 976" xmlns="http://www.w3.org/2000/svg"><path d="m488.06 21.21c-257.8 0-466.85 209-466.85 466.73s209.05 466.85 466.85 466.85 466.73-209.07 466.73-466.85-208.98-466.73-466.73-466.73m0 896.92c-237.53 0-430.15-192.66-430.15-430.19s192.62-430.1 430.15-430.1 430.05 192.59 430.05 430.1-192.54 430.19-430 430.19" fill="#011e41"/><path d="m488.06 57.84c-237.53 0-430.15 192.59-430.15 430.07s192.62 430.22 430.15 430.22 430.05-192.66 430.05-430.22-192.54-430.07-430.05-430.07m0 837.05c-224.76 0-406.95-182.12-406.95-407 0-224.68 182.19-406.86 407-406.86s406.78 182.2 406.78 406.88c0 224.86-182.16 407-406.83 407" fill="#8ab7e9"/><path d="m488.06 81.05c-224.76 0-406.95 182.18-406.95 406.95s182.19 406.88 407 406.88 406.78-182.11 406.78-406.88-182.16-407-406.83-407" fill="#011e41"/><path d="m422.65 613.31h85.44c33.85 0 57.41-12 57.41-45.83 0-36.14-25.22-48.18-57.41-48.18h-85.44zm0-162.81h82.54c18.34 0 43.65-9.73 43.65-39 0-29.78-21.21-39.62-43.65-39.62h-82.54zm-106.65-161.16h191.5c70.59-1.1 148 17.22 148 102.62 0 36.68-21.83 66.55-54 82.62 43.64 12.62 70.54 50.43 70.54 96.91 0 97.5-71.62 127.33-159.36 127.33h-196.68z" fill="#fff"/><path d="m948.68 854.86c0 22.49-18.1 40.38-41.07 40.38s-41.39-17.89-41.39-40.38 18.33-40.17 41.58-40.17c22.78 0 40.88 17.6 40.88 40.17zm-72.19 0c0 17.81 13.51 32.06 31.31 32.06 17.43.25 30.65-14.25 30.65-31.86 0-17.87-13.22-32.31-31.13-32.31-17.32 0-30.83 14.44-30.83 32.11zm24.77 20.8h-9.34v-40.18a110.28 110.28 0 0 1 15.4-1.21c7.64 0 11 1.21 13.73 3.19a10.1 10.1 0 0 1 4.18 8.56c0 4.87-3.7 8.09-8.36 9.57v.47c4 1.22 5.87 4.39 7.13 9.78 1.23 6.14 2.21 8.34 2.9 9.82h-9.75c-1.2-1.48-2-4.9-3.15-9.82-.79-4.13-3.22-6.11-8.36-6.11h-4.38zm.2-22.51h4.43c5.1 0 9.28-1.74 9.28-5.92 0-3.68-2.68-6.09-8.55-6.09a20.24 20.24 0 0 0 -5.16.5z" fill="#011e41"/></svg>