<?xml version="1.0" encoding="utf-8"?>
<!-- Generator: Adobe Illustrator 26.5.0, SVG Export Plug-In . SVG Version: 6.00 Build 0)  -->
<svg version="1.1" id="Capa_2_00000084488464297043778890000013635513427509276829_"
	 xmlns="http://www.w3.org/2000/svg" xmlns:xlink="http://www.w3.org/1999/xlink" x="0px" y="0px" viewBox="0 0 106.8 83.4"
	 style="enable-background:new 0 0 106.8 83.4;" xml:space="preserve">
<style type="text/css">
	.st0{fill:#005F6F;}
</style>
<g id="Capa_2-2">
	<path class="st0" d="M3.3,63.4h1.4c9,0,17.9,0,26.9,0c0.7,0,1.2,0.2,1.7,0.8c0.6,0.8,1.3,1.6,2.2,2.6h-32c0,0.5-0.1,0.8-0.1,1.1
		c0,1.6,0.6,2.2,2.2,2.2c1.1,0,2.2,0,3.2,0c8.7,0,17.4,0,26.1,0H36v3.3h-1c-9.8,0-19.7,0-29.5,0c-3.5,0-5.5-2-5.5-5.5
		C0,47.1,0,26.3,0,5.6C0,2,2,0,5.6,0h95.6c3.6,0,5.6,2,5.6,5.6c0,20.7,0,41.4,0,62.1c0,3.7-2,5.6-5.7,5.6c-12.9,0-25.8,0-38.7,0H61
		v6.7h5.4c0.4,0,0.8,0,1.2,0c0.9,0.1,1.6,0.8,1.6,1.6c0,0.9-0.7,1.6-1.6,1.7c-0.2,0-0.5,0-0.7,0h-27c-0.2,0-0.4,0-0.6,0
		c-1-0.1-1.7-0.7-1.7-1.6c0-0.9,0.7-1.7,1.7-1.7c2,0,4,0,6,0h1.4c0-1.7,0-3.4,0-5c0-0.9,0.2-1.6,0.9-2.2c0.6-0.5,1-1.3,1.3-2.1
		c0.2-0.5,0.5-0.7,1-0.7c0.3,0,0.7,0,1,0h49.7c2.5,0,3-0.6,2.7-3.3H54.7c0-0.1-0.1-0.1-0.1-0.2c1.3-1,2.6-2.1,3.9-3.1
		c0.3-0.2,0.7-0.1,1.1-0.1c14.1,0,28.2,0,42.2,0h1.5c0-0.4,0.1-0.8,0.1-1.2c0-18.8,0-37.7,0-56.5c0-1.9-0.5-2.4-2.4-2.4
		c-31.8,0-63.5,0-95.3,0c-1.8,0-2.4,0.5-2.4,2.2c0,18.9,0,37.9,0,56.8L3.3,63.4L3.3,63.4z M50.1,80h7.4v-6.5h-7.4V80z"/>
	<path class="st0" d="M45.4,36.6c1.8-1.6,3.5-3.2,5.2-4.8c2-1.8,4-3.7,6-5.5c2.1-1.9,4.7-1.9,6.4,0c1.7,1.9,1.5,4.5-0.5,6.4
		C61.4,34,60.2,35,59,36.2c1.8,1.5,2.4,3.3,1.6,5.5c-0.1,0.2,0,0.5,0.1,0.6c1.9,1.5,2.1,3.5,1.3,5.5c0.6,0.8,1.3,1.5,1.7,2.3
		c0.9,1.8,0.4,3.7-1.2,5.3c-5.1,4.8-10.2,9.6-16.7,12.8c0.8,1.6-0.3,2.3-1.3,3.1c-0.8,0.6-1.5,1.2-2.2,1.7c-0.9,0.6-1.8,0.5-2.4-0.2
		c-0.6-0.8-0.5-1.7,0.4-2.5c0.5-0.4,1.1-0.8,1.7-1.4c-4.1-4.7-8.1-9.3-12.2-14c-0.8,0.6-1.6,1.3-2.4,1.9c-1,0.8-2,0.7-2.6,0
		c-0.6-0.8-0.5-1.8,0.5-2.6c1.1-0.8,2.1-1.7,3.2-2.5c0.6-0.4,1.4-0.7,2.1-1l0.2,0.3c0.8-2.5,1.7-5,2.5-7.6c0.8-2.6,1.6-5.2,2.5-7.8
		c0.4-1.2,1-2.4,1.7-3.4c0.9-1.4,2.3-2.2,4-1.8c1.8,0.4,3.1,1.5,3.5,3.3C45.3,34.4,45.3,35.5,45.4,36.6 M42.2,35.8
		c-0.1,0-0.1,0-0.2-0.1c0-0.5,0-0.9-0.2-1.3c-0.1-0.3-0.5-0.7-0.8-0.8c-0.2-0.1-0.7,0.2-0.9,0.5c-0.5,0.8-0.9,1.7-1.2,2.6
		c-1.8,5.4-3.5,10.8-5.3,16.1c-0.2,0.7-0.2,1.1,0.3,1.7c2.9,3.3,5.9,6.7,8.7,10.1c0.7,0.8,1.2,0.8,2,0.3c5.8-3.1,10.6-7.6,15.4-12
		c0.6-0.5,1-1.1,0.4-1.8c-0.7-0.7-1.2-0.2-1.8,0.3c-1.5,1.4-3,2.8-4.6,4.1c-1.1,1-2.5,0.6-2.9-0.8c-0.2-0.8,0.1-1.5,0.7-2
		c2.2-2,4.4-4,6.5-6c0.5-0.5,0.7-1,0.2-1.6c-0.5-0.6-1.1-0.4-1.6,0.1c-2.2,2-4.4,4-6.5,6c-1,0.9-2,0.9-2.7,0.1
		c-0.7-0.8-0.6-1.7,0.4-2.6c2.8-2.6,5.6-5.2,8.5-7.7c0.6-0.5,1-1.1,0.3-1.8c-0.6-0.7-1.2-0.3-1.7,0.2c-1.3,1.2-2.6,2.3-3.8,3.5
		c-1.6,1.4-3.1,2.9-4.7,4.3c-0.8,0.7-1.8,0.7-2.5,0.1c-0.6-0.6-0.8-1.3-0.3-2.1c0.2-0.3,0.5-0.6,0.8-0.8c3-2.7,5.9-5.4,8.9-8.1
		c2.2-2,4.3-3.9,6.5-5.9c0.7-0.7,0.7-1.4,0.1-1.8c-0.7-0.4-1.1,0-1.5,0.4c-5.1,4.6-10.2,9.3-15.3,13.9c-0.9,0.8-1.7,1-2.5,0.3
		c-0.9-0.7-0.7-1.4-0.4-2.3C41.2,39.2,41.7,37.5,42.2,35.8"/>
	<path class="st0" d="M53.4,7.5c13.8,0,27.7,0,41.5,0c2.7,0,4.6,1.3,5.1,3.6c0.1,0.4,0.1,0.8,0.1,1.2c0,7.7,0,15.4,0,23
		c0,0.3,0,0.6,0,0.8c-0.2,0.8-0.8,1.3-1.7,1.3c-0.9,0-1.4-0.5-1.6-1.4c-0.1-0.3,0-0.7,0-1c0-7.4,0-14.7,0-22.1
		c0-1.8-0.3-2.2-2.2-2.2c-13.1,0-26.1,0-39.2,0c-14.2,0-28.5,0-42.7,0c-0.5,0-1,0-1.4,0.1c-0.7,0.1-1.2,0.6-1.1,1.4
		c0,0.6,0,1.2,0,1.8c0,12.3,0,24.5,0,36.8c0,0.4,0,0.8,0,1.1c-0.2,0.8-0.7,1.3-1.6,1.3c-0.9,0-1.4-0.5-1.6-1.3
		c-0.1-0.4-0.1-0.8-0.1-1.1c0-12.6,0-25.2,0-37.8c0-3.8,1.8-5.6,5.5-5.6L53.4,7.5L53.4,7.5z"/>
	<path class="st0" d="M74.7,27.5c1.1-0.1,1.9,0.5,2,1.5c0.1,1-0.7,1.7-1.9,1.8c-1.4,0.1-2.8,0.2-4.2,0.3c-1.2,0.1-2-0.5-2.1-1.5
		c-0.1-1,0.6-1.8,1.9-1.9C71.7,27.8,73.1,27.7,74.7,27.5"/>
	<path class="st0" d="M59.3,18.4c0-0.8,0-1.7,0-2.5c0.1-1.1,0.8-1.8,1.8-1.8c0.9,0.1,1.6,0.8,1.5,1.9c0,1.5,0,3-0.1,4.6
		c0,1.2-0.8,2-1.7,1.9c-1,0-1.6-0.8-1.6-2c0-0.7,0-1.4,0-2.1L59.3,18.4L59.3,18.4z"/>
	<path class="st0" d="M72.8,19.9c-0.3,0.6-0.5,1.1-0.8,1.4c-1,1.1-2.1,2.1-3.2,3.2c-0.8,0.7-1.8,0.8-2.4,0.1c-0.7-0.7-0.7-1.6,0-2.4
		c1.1-1.1,2.2-2.3,3.3-3.3c0.4-0.3,1.3-0.5,1.8-0.3C72,18.7,72.3,19.4,72.8,19.9"/>
	<path class="st0" d="M100.1,42.5c0,0.9-0.7,1.7-1.6,1.7c-0.9,0-1.7-0.7-1.7-1.7c0-0.9,0.8-1.6,1.7-1.6
		C99.3,40.9,100.1,41.6,100.1,42.5"/>
</g>
</svg>
