<?xml version="1.0" encoding="utf-8"?>
<!-- Generator: Adobe Illustrator 26.5.0, SVG Export Plug-In . SVG Version: 6.00 Build 0)  -->
<svg version="1.1" id="Capa_2_00000000202139518385190490000008781490667421700270_"
	 xmlns="http://www.w3.org/2000/svg" xmlns:xlink="http://www.w3.org/1999/xlink" x="0px" y="0px" viewBox="0 0 74.8 74.9"
	 style="enable-background:new 0 0 74.8 74.9;" xml:space="preserve">
<style type="text/css">
	.st0{fill:#005F6F;}
</style>
<g id="Capa_1-2">
	<path class="st0" d="M18.2,74.9c-2.3-0.3-4.8-0.4-7.1-0.9C3.9,72.6,0,67.5,0,58.6C0,25.1,25.5-1.8,61,0.1
		c8.7,0.5,12.9,4.6,13.6,13.2c0.9,11.1-1.7,21.5-6.8,31.4C59.2,61.5,45,70.1,27.2,73.9C24.3,74.5,21.3,74.6,18.2,74.9 M9,67.4
		c11.3,6.1,34.4-0.7,45.2-11.6C67,42.9,72,27.7,69.8,10c-0.3-0.2-0.7-0.3-1.1-0.5c-3.7,4-7.4,8-11.1,11.9c-1.8-1.5-2.9-2.3-5.1-4.1
		c4.7-4.2,8.7-7.8,12.9-11.5C52.2,0.6,28.4,9.3,17,22.8C4.8,37.2,2.4,57.3,6.9,65.7c3.8-4.2,7.4-8.2,11.1-12.3c1.2,1.2,2,2,3.7,3.6
		C17.3,60.6,13.1,64,9,67.4"/>
	<path class="st0" d="M41.5,36.6c-1.6,1.8-3.1,3.5-4.7,5.2c0.7,1,1.7,2.2,2.2,3.4c0.3,0.7-0.2,1.8-0.4,2.7c-0.8-0.2-1.8-0.1-2.4-0.5
		c-1.1-0.7-1.9-1.7-3-2.7c-1.9,2-3.5,3.7-5.2,5.5c1,1,2,1.8,2.5,2.8c0.4,0.9,0.1,2.1,0.2,3.1c-1,0-2.3,0.4-2.8-0.1
		c-3.2-2.8-6.3-5.8-9.3-8.9c-0.5-0.5-0.4-2.1,0-2.5c0.5-0.5,1.9-0.6,2.5-0.3c1.2,0.7,2.2,1.8,3.5,3c1.7-1.9,3.4-3.8,5.1-5.8
		c-1-1-2.1-1.8-2.6-2.9c-0.4-0.9-0.1-2.1-0.1-3.2c1,0.2,2.2,0.1,3,0.6c1.1,0.6,1.9,1.7,2.9,2.7c1.9-2,3.7-3.8,6.4-6.7
		c-1.3-0.7-2.6-1.2-3.5-2.1c-0.5-0.6-0.3-1.9-0.4-2.8c1-0.1,2.2-0.6,3-0.2c1.2,0.6,2.1,1.9,2.8,2.5c1.9-1.6,3.8-3.1,6.7-5.5
		c-1.5-1-3-1.4-3.7-2.4c-0.5-0.7-0.4-2.3,0.1-3.2c0.2-0.4,2.3-0.5,2.8,0c3.2,2.9,6.2,5.9,9.1,9.1c0.5,0.5,0.5,2.3,0.1,2.5
		c-0.9,0.5-2.3,0.9-3.2,0.5c-1-0.4-1.8-1.5-2.9-2.6c-1.8,1.7-3.6,3.2-5.6,5.1c0.8,1,1.8,1.8,2.3,2.8c0.5,0.9,0.4,2,0.6,2.9
		c-1,0-2.1,0.2-3-0.1C43.6,38.4,42.8,37.6,41.5,36.6"/>
</g>
</svg>
