<?xml version="1.0" encoding="utf-8"?>
<!-- Generator: Adobe Illustrator 26.5.0, SVG Export Plug-In . SVG Version: 6.00 Build 0)  -->
<svg version="1.1" id="Capa_2_00000182501481299354816740000016293283252980349850_"
	 xmlns="http://www.w3.org/2000/svg" xmlns:xlink="http://www.w3.org/1999/xlink" x="0px" y="0px" viewBox="0 0 85.4 85.6"
	 style="enable-background:new 0 0 85.4 85.6;" xml:space="preserve">
<style type="text/css">
	.st0{fill:#005F6F;}
</style>
<g id="Capa_2-2">
	<path class="st0" d="M75.8,16.5c0.4,0.3,0.5,0.4,0.6,0.4c7.9,1.4,9.9,6.4,8.7,13.7C84.7,32.7,85,35,85,37.3c0,1.8-0.1,3.4-2.2,4.3
		c-0.8,0.4-1.3,2.1-1.3,3.2c-0.1,7.7-0.1,15.3,0,23c0,2.3-0.7,3.6-3,4.5c-11.3,4.3-22.6,8.8-34,13c-1.3,0.5-3,0.4-4.3-0.1
		C29,80.9,17.8,76.5,6.6,72.2c-2.4-0.9-3.2-2.2-3.1-4.7c0.2-7.5,0.2-15.1,0-22.6c0-1.3-1.3-2.6-2-3.9c-0.5-0.9-1.3-1.7-1.4-2.6
		c-0.1-5.3-0.2-10.6,0-15.9c0-1,1-2.2,1.9-2.9c1-0.8,2.3-1.1,3.6-1.5c2.7-0.8,3.7-2,3.5-5.2C8.3,3,19-3.4,28.1,1.9
		c4.7,2.8,8.5,5.2,13.8,1.9c1.1-0.7,3.6,0.6,5.2,1.4c2.3,1.1,3.9,1,6-0.8c2-1.7,4.5-3,7.1-3.8C69.3-2,77.3,5.2,76,14.7
		C76,15.2,75.9,15.8,75.8,16.5 M40.8,81.7c0-8.3,0-15.8,0-23.4c0-0.6-0.6-1.4-1.1-1.6c-4.5-1.8-9.1-3.5-14.1-5.5
		c0,8.2,0,15.7,0.1,23.2c0,0.7,0.6,1.6,1.2,1.9C31.3,78.1,35.7,79.8,40.8,81.7 M44.3,81.7c2.9-1.1,5.1-1.9,7.3-2.7
		c5.3-2,7.9-5.9,7.9-11.5c0-5.2,0-10.5,0-16.2c-5,2-9.4,3.6-13.8,5.4c-0.7,0.3-1.3,1.4-1.4,2.1C44.2,66.1,44.3,73.6,44.3,81.7
		 M62.9,74.5c3.2-1.2,5.8-2.2,8.5-3.2c4.5-1.8,6.7-5,6.7-9.9c0-5.6,0-11.2,0-17.4c-5.1,2-9.5,3.6-13.8,5.4c-0.7,0.3-1.3,1.4-1.3,2.1
		C62.9,59,62.9,66.4,62.9,74.5 M7,44C7,52.2,7,59.8,7,67.4C7,68,7.6,68.8,8.1,69c4.5,1.8,9,3.5,14,5.4c0-8.1,0-15.5,0-22.9
		c0-0.8-0.6-1.9-1.2-2.2C16.5,47.6,12,45.9,7,44 M22.1,45.7c0-4.7,0-8.8,0-12.9c0-0.5-0.6-1.3-1.1-1.5C15.3,29,9.7,26.7,3.5,24.2
		c0,4.7,0,8.8,0,12.9c0,0.5,0.6,1.4,1.1,1.6C10.2,41,15.9,43.2,22.1,45.7 M81.6,24.2c-6.3,2.6-12.1,4.9-17.8,7.3
		c-0.5,0.2-0.9,1.1-0.9,1.7c-0.1,4,0,7.9,0,12.6c6.3-2.6,12-4.9,17.7-7.3c0.5-0.2,0.9-1.1,1-1.7C81.7,32.9,81.6,28.9,81.6,24.2
		 M40.8,53.3c0-4.7,0-8.5,0-12.4c0-0.7-0.5-1.7-1.1-2c-4.5-1.9-9-3.7-14.1-5.8c0,4.7-0.1,8.6,0.1,12.6c0,0.6,0.7,1.6,1.3,1.8
		C31.3,49.5,35.7,51.3,40.8,53.3 M44.3,53.3c5-2,9.5-3.7,13.8-5.6c0.6-0.3,1.2-1.4,1.2-2.2c0.1-3.8,0.1-7.7,0.1-12.2
		c-5,2-9.5,3.8-14,5.6c-0.5,0.2-1.1,1-1.1,1.6C44.3,44.6,44.3,48.6,44.3,53.3 M56.5,30.6c-4.5-1.8-8.1-3.3-11.7-4.7
		c-1-0.4-2.2-0.8-3-0.5c-4.2,1.5-8.2,3.2-13.2,5.2c5,2,9.1,3.7,13.2,5.3c0.6,0.2,1.4,0.1,2-0.2C47.8,34.2,51.7,32.6,56.5,30.6
		 M35.5,18.1c0.5-1.1,1.3-2.1,1.1-2.8c-1.1-5-10.4-12-15.6-11.8c-5.6,0.2-9.6,5.3-7.9,10.1C21.7,7.8,28.6,11.5,35.5,18.1 M72.5,13.8
		c0.6-7.8-5.9-12.4-13-9.4c-4.9,2-8.1,6-10.7,10.4c-0.4,0.6,0.3,1.9,0.6,3.6C56.6,11.4,63.5,7.9,72.5,13.8 M32.9,21.5
		c-5.1-8.1-14.6-9.7-18.5-3.3C19.8,23.6,26.4,20.6,32.9,21.5 M52.2,21.6c6.7-1.1,13.4,2.1,18.7-3.6C66.5,11.4,56.3,14.4,52.2,21.6
		 M78.3,21.8c-2.6-1.6-3.9-2.1-6.2-0.4c-2.4,1.8-5.6,2.7-8.6,3.2c-3.1,0.5-6.4,0.1-9.6,0.1c-0.1,0.4-0.2,0.8-0.2,1.3
		c2.9,0.8,6.1,2.6,8.7,2C67.6,26.8,72.5,24.2,78.3,21.8 M31.4,24.8c-3.4,0-6.9,0.4-10.2-0.1c-2.8-0.4-5.8-1.4-8-3.1
		C10.9,19.7,9.4,20,7,21.9c4.3,1.7,8.5,3,12.2,5.1C23.9,29.6,27.6,27.5,31.4,24.8 M37.3,9.6c1.5,2.2,2,5.7,5.7,4.6
		c2-0.6,3.5-2.6,5.5-4.1C44.2,6.8,40.8,6.8,37.3,9.6 M38,21h9.3C44.2,16.7,40.9,16.7,38,21"/>
</g>
</svg>
