<?xml version="1.0" encoding="UTF-8"?>
<svg id="Capa_2" data-name="Capa 2" xmlns="http://www.w3.org/2000/svg" xmlns:xlink="http://www.w3.org/1999/xlink" viewBox="0 0 426.91 117.57">
  <defs>
    <style>
      .cls-1 {
        fill: #fff;
      }

      .cls-2 {
        opacity: .5;
      }

      .cls-3 {
        stroke: #fff;
        stroke-miterlimit: 10;
      }

      .cls-3, .cls-4 {
        fill: none;
      }

      .cls-5 {
        fill: #a0a0a0;
      }

      .cls-6 {
        clip-path: url(#clippath-2);
      }

      .cls-7 {
        clip-path: url(#clippath-6);
      }

      .cls-8 {
        clip-path: url(#clippath-1);
      }

      .cls-9 {
        clip-path: url(#clippath-4);
      }

      .cls-10 {
        fill: url(#Degradado_sin_nombre_2);
      }

      .cls-11 {
        clip-path: url(#clippath);
      }

      .cls-12 {
        clip-path: url(#clippath-3);
      }

      .cls-13 {
        clip-path: url(#clippath-5);
      }

      .cls-14 {
        opacity: .51;
      }
    </style>
    <clipPath id="clippath">
      <rect class="cls-4" width="426.91" height="117.57"/>
    </clipPath>
    <clipPath id="clippath-1">
      <rect class="cls-4" x="25.17" y="53.1" width="352.25" height="9.21"/>
    </clipPath>
    <linearGradient id="Degradado_sin_nombre_2" data-name="Degradado sin nombre 2" x1="528.27" y1="1507.66" x2="529.27" y2="1507.66" gradientTransform="translate(188975.29 -538170.89) rotate(-180) scale(357 -357)" gradientUnits="userSpaceOnUse">
      <stop offset="0" stop-color="#da1c24"/>
      <stop offset="1" stop-color="#e9f02b"/>
    </linearGradient>
    <clipPath id="clippath-2">
      <rect class="cls-4" x="54.74" y="85.99" width="11.36" height="11.36"/>
    </clipPath>
    <clipPath id="clippath-3">
      <rect class="cls-4" x="195.38" y="85.99" width="11.36" height="11.36"/>
    </clipPath>
    <clipPath id="clippath-4">
      <rect class="cls-4" x="124.55" y="85.99" width="11.36" height="11.36"/>
    </clipPath>
    <clipPath id="clippath-5">
      <rect class="cls-4" x="337.64" y="85.99" width="11.36" height="11.36"/>
    </clipPath>
    <clipPath id="clippath-6">
      <rect class="cls-4" x="265.12" y="85.99" width="11.36" height="11.36"/>
    </clipPath>
  </defs>
  <g id="Capa_2-2" data-name="Capa 2">
    <g class="cls-2">
      <g class="cls-11">
        <rect class="cls-5" x="0" y="0" width="426.91" height="117.57"/>
      </g>
    </g>
    <g>
      <path class="cls-1" d="M28.59,37.72c-.7-.61-1.05-1.48-1.05-2.6s.36-2,1.08-2.6c.72-.6,1.68-.91,2.89-.93v-1.71h2.26v3.28h-.97c-.92,0-1.63,.14-2.14,.42-.51,.28-.76,.79-.76,1.54,0,.5,.14,.88,.42,1.16,.28,.28,.66,.42,1.14,.42,.52,0,.93-.15,1.24-.45s.46-.69,.46-1.16h2.26c.02,.68-.12,1.29-.44,1.83-.32,.54-.78,.96-1.4,1.27-.62,.31-1.35,.47-2.2,.47-1.15,0-2.08-.31-2.78-.92Zm2.73-9.29v-2.5h2.58v2.5h-2.58Z"/>
      <path class="cls-1" d="M45.16,37.61l-1.87-2.24c-.45,.11-.95,.17-1.49,.17-1.12,0-2.14-.26-3.05-.78-.91-.52-1.63-1.25-2.16-2.19s-.79-2-.79-3.17,.26-2.23,.79-3.17,1.24-1.66,2.16-2.18c.91-.52,1.93-.78,3.05-.78s2.14,.26,3.05,.78,1.63,1.25,2.16,2.18,.79,1.99,.79,3.17c0,1.1-.23,2.09-.68,2.98-.45,.89-1.08,1.6-1.88,2.15l2.83,3.09h-2.9Zm-6.46-6.14c.3,.59,.72,1.05,1.25,1.37,.53,.32,1.15,.48,1.85,.48s1.32-.16,1.85-.48c.53-.32,.95-.77,1.25-1.37,.3-.59,.45-1.29,.45-2.08s-.15-1.49-.45-2.08c-.3-.59-.72-1.05-1.25-1.37-.53-.32-1.15-.48-1.85-.48s-1.32,.16-1.85,.48c-.53,.32-.95,.77-1.25,1.37-.3,.59-.45,1.29-.45,2.08s.15,1.49,.45,2.08Z"/>
      <path class="cls-1" d="M58.59,26.02v9.41h-2.39v-1.9c-.25,.63-.66,1.13-1.23,1.49s-1.23,.54-1.98,.54c-1.09,0-1.95-.36-2.6-1.07-.65-.71-.97-1.71-.97-2.99v-5.47h2.38v5.19c0,.75,.19,1.33,.58,1.74,.38,.41,.91,.62,1.56,.62,.69,0,1.24-.22,1.65-.66,.41-.44,.61-1.08,.61-1.9v-4.99h2.39Z"/>
      <path class="cls-1" d="M69.52,31.18h-6.89c.03,.84,.26,1.45,.68,1.85,.42,.4,.94,.59,1.56,.59,.55,0,1.02-.14,1.38-.41,.37-.27,.6-.64,.7-1.1h2.53c-.12,.66-.39,1.25-.8,1.77-.41,.52-.93,.93-1.57,1.22-.64,.29-1.35,.44-2.13,.44-.92,0-1.73-.2-2.45-.59s-1.27-.95-1.66-1.67c-.4-.72-.59-1.58-.59-2.56s.2-1.84,.59-2.57c.4-.73,.95-1.29,1.66-1.67s1.53-.58,2.45-.58,1.74,.19,2.44,.58c.7,.38,1.23,.91,1.61,1.59,.38,.67,.57,1.44,.57,2.3,0,.24-.03,.51-.08,.82Zm-2.93-2.8c-.44-.4-.97-.59-1.6-.59s-1.19,.2-1.63,.59c-.44,.4-.69,.98-.73,1.75h4.57c.03-.77-.17-1.35-.6-1.75Zm.92-4.91l-3.91,1.83v-1.63l3.91-2.04v1.83Z"/>
      <path class="cls-1" d="M80.03,33.37v2.05h-1.26c-1.05,0-1.86-.25-2.42-.76-.56-.51-.84-1.36-.84-2.55v-4.08h-1.31v-2.02h1.31v-2.33h2.39v2.33h2.1v2.02h-2.1v4.11c0,.45,.09,.77,.27,.95,.18,.18,.49,.27,.92,.27h.93Z"/>
      <path class="cls-1" d="M87.47,26.46c.57,.37,.97,.88,1.21,1.51v-1.95h2.38v9.41h-2.38v-1.97c-.24,.63-.64,1.14-1.21,1.52-.57,.38-1.25,.57-2.04,.57s-1.5-.19-2.14-.58c-.63-.38-1.13-.94-1.49-1.67-.36-.73-.54-1.59-.54-2.57s.18-1.84,.54-2.57c.36-.73,.85-1.29,1.49-1.67,.63-.38,1.35-.58,2.14-.58s1.47,.19,2.04,.56Zm-3.09,2.26c-.45,.49-.68,1.15-.68,2s.23,1.51,.68,2c.45,.48,1.05,.72,1.8,.72s1.32-.25,1.79-.74c.47-.49,.71-1.15,.71-1.98s-.24-1.5-.71-2c-.47-.49-1.07-.74-1.79-.74s-1.35,.24-1.8,.73Z"/>
      <path class="cls-1" d="M101.42,26.95c.64,.71,.97,1.71,.97,3v5.47h-2.38v-5.2c0-.75-.19-1.33-.58-1.74s-.91-.62-1.58-.62-1.22,.22-1.63,.66-.61,1.08-.61,1.9v4.99h-2.39v-9.41h2.39v1.88c.25-.63,.66-1.13,1.23-1.49,.57-.36,1.23-.54,1.98-.54,1.09,0,1.95,.36,2.6,1.07Z"/>
      <path class="cls-1" d="M111.37,24.69c-.28,.25-.42,.69-.42,1.31v.02h1.9v2.02h-1.9v7.39h-2.39v-7.39h-1.21v-2.02h1.21v-.22c0-1.12,.32-1.98,.96-2.59s1.59-.91,2.84-.91c.21,0,.38,0,.49,.02v2.07c-.7-.05-1.19,.06-1.48,.3Z"/>
      <path class="cls-1" d="M120,26.46c.57,.37,.97,.88,1.21,1.51v-1.95h2.38v9.41h-2.38v-1.97c-.24,.63-.64,1.14-1.21,1.52-.57,.38-1.25,.57-2.04,.57s-1.5-.19-2.14-.58c-.63-.38-1.13-.94-1.49-1.67-.36-.73-.54-1.59-.54-2.57s.18-1.84,.54-2.57c.36-.73,.85-1.29,1.49-1.67,.63-.38,1.35-.58,2.14-.58s1.47,.19,2.04,.56Zm-3.09,2.26c-.45,.49-.68,1.15-.68,2s.23,1.51,.68,2c.45,.48,1.05,.72,1.8,.72s1.32-.25,1.79-.74c.47-.49,.71-1.15,.71-1.98s-.24-1.5-.71-2c-.47-.49-1.07-.74-1.79-.74s-1.35,.24-1.8,.73Zm4.36-5.25l-3.9,1.83v-1.63l3.9-2.04v1.83Z"/>
      <path class="cls-1" d="M133.01,26.88c.81,.66,1.32,1.55,1.52,2.68h-2.53c-.1-.5-.33-.89-.7-1.18-.36-.29-.82-.43-1.38-.43-.63,0-1.16,.24-1.59,.71s-.64,1.16-.64,2.06,.21,1.59,.64,2.06,.95,.7,1.59,.7c.55,0,1.01-.14,1.38-.43,.36-.29,.59-.68,.7-1.18h2.53c-.2,1.13-.71,2.03-1.52,2.68-.81,.66-1.82,.99-3.03,.99-.92,0-1.73-.2-2.45-.59s-1.27-.95-1.66-1.67c-.4-.72-.59-1.58-.59-2.56s.2-1.84,.59-2.57c.4-.73,.95-1.29,1.66-1.67s1.53-.58,2.45-.58c1.21,0,2.22,.33,3.03,.98Z"/>
      <path class="cls-1" d="M136.36,22.38c.27-.24,.63-.36,1.07-.36s.8,.12,1.07,.36c.27,.24,.41,.56,.41,.94s-.14,.68-.41,.93-.63,.37-1.07,.37-.8-.12-1.07-.37-.41-.55-.41-.93,.14-.7,.41-.94Zm2.26,3.64v9.41h-2.39v-9.41h2.39Z"/>
      <path class="cls-1" d="M143.19,22.86v12.56h-2.39v-12.56h2.39Z"/>
      <path class="cls-1" d="M155.88,26.48c.73,.38,1.3,.94,1.72,1.67,.42,.73,.63,1.59,.63,2.57s-.21,1.84-.63,2.56c-.42,.72-.99,1.28-1.72,1.67-.73,.39-1.55,.59-2.47,.59s-1.74-.2-2.47-.59c-.73-.39-1.3-.95-1.72-1.67-.42-.72-.63-1.58-.63-2.56s.21-1.84,.63-2.57c.42-.73,.99-1.29,1.72-1.67,.73-.38,1.55-.58,2.47-.58s1.74,.19,2.47,.58Zm-4.17,2.2c-.46,.47-.7,1.15-.7,2.05s.23,1.58,.7,2.05c.46,.47,1.03,.71,1.7,.71s1.23-.24,1.7-.71c.46-.47,.7-1.15,.7-2.05s-.23-1.58-.7-2.05c-.46-.47-1.03-.7-1.7-.7s-1.23,.24-1.7,.7Z"/>
      <path class="cls-1" d="M169.34,26.46c.56,.37,.96,.88,1.21,1.51v-5.11h2.38v12.56h-2.38v-1.97c-.25,.63-.65,1.14-1.21,1.52-.56,.38-1.24,.57-2.03,.57s-1.5-.19-2.14-.58c-.63-.38-1.13-.94-1.49-1.67-.36-.73-.54-1.59-.54-2.57s.18-1.84,.54-2.57c.36-.73,.85-1.29,1.49-1.67,.63-.38,1.35-.58,2.14-.58s1.47,.19,2.03,.56Zm-3.08,2.26c-.45,.49-.68,1.15-.68,2s.23,1.51,.68,2c.45,.48,1.05,.72,1.8,.72s1.32-.25,1.79-.74c.47-.49,.71-1.15,.71-1.98s-.24-1.5-.71-2c-.47-.49-1.07-.74-1.79-.74s-1.35,.24-1.8,.73Z"/>
      <path class="cls-1" d="M175.24,22.38c.27-.24,.63-.36,1.07-.36s.8,.12,1.07,.36c.27,.24,.41,.56,.41,.94s-.14,.68-.41,.93-.63,.37-1.07,.37-.8-.12-1.07-.37-.41-.55-.41-.93,.14-.7,.41-.94Zm2.26,3.64v9.41h-2.39v-9.41h2.39Z"/>
      <path class="cls-1" d="M182.85,24.69c-.28,.25-.42,.69-.42,1.31v.02h1.9v2.02h-1.9v7.39h-2.39v-7.39h-1.21v-2.02h1.21v-.22c0-1.12,.32-1.98,.96-2.59s1.59-.91,2.84-.91c.21,0,.38,0,.49,.02v2.07c-.7-.05-1.19,.06-1.48,.3Z"/>
      <path class="cls-1" d="M189.78,23.47l-3.91,1.83v-1.63l3.91-2.04v1.83Zm-1.38,2.55v9.41h-2.39v-9.41h2.39Z"/>
      <path class="cls-1" d="M198.09,26.88c.81,.66,1.32,1.55,1.52,2.68h-2.53c-.1-.5-.33-.89-.7-1.18-.36-.29-.82-.43-1.38-.43-.63,0-1.16,.24-1.59,.71s-.64,1.16-.64,2.06,.21,1.59,.64,2.06,.95,.7,1.59,.7c.55,0,1.01-.14,1.38-.43,.36-.29,.59-.68,.7-1.18h2.53c-.2,1.13-.71,2.03-1.52,2.68-.81,.66-1.82,.99-3.03,.99-.92,0-1.73-.2-2.45-.59s-1.27-.95-1.66-1.67c-.4-.72-.59-1.58-.59-2.56s.2-1.84,.59-2.57c.4-.73,.95-1.29,1.66-1.67s1.53-.58,2.45-.58c1.21,0,2.22,.33,3.03,.98Z"/>
      <path class="cls-1" d="M201.44,22.38c.27-.24,.63-.36,1.07-.36s.8,.12,1.07,.36c.27,.24,.41,.56,.41,.94s-.14,.68-.41,.93-.63,.37-1.07,.37-.8-.12-1.07-.37-.41-.55-.41-.93,.14-.7,.41-.94Zm2.26,3.64v9.41h-2.39v-9.41h2.39Z"/>
      <path class="cls-1" d="M208.26,22.86v12.56h-2.39v-12.56h2.39Z"/>
      <path class="cls-1" d="M219.16,33.37v2.05h-1.26c-1.05,0-1.86-.25-2.42-.76-.56-.51-.84-1.36-.84-2.55v-4.08h-1.31v-2.02h1.31v-2.33h2.39v2.33h2.1v2.02h-2.1v4.11c0,.45,.09,.77,.27,.95,.18,.18,.49,.27,.92,.27h.93Z"/>
      <path class="cls-1" d="M229.64,31.18h-6.89c.03,.84,.26,1.45,.68,1.85,.42,.4,.94,.59,1.56,.59,.55,0,1.02-.14,1.38-.41,.37-.27,.6-.64,.7-1.1h2.53c-.12,.66-.39,1.25-.8,1.77-.41,.52-.93,.93-1.57,1.22-.64,.29-1.35,.44-2.13,.44-.92,0-1.73-.2-2.45-.59s-1.27-.95-1.66-1.67c-.4-.72-.59-1.58-.59-2.56s.2-1.84,.59-2.57c.4-.73,.95-1.29,1.66-1.67s1.53-.58,2.45-.58,1.74,.19,2.44,.58c.7,.38,1.23,.91,1.61,1.59,.38,.67,.57,1.44,.57,2.3,0,.24-.03,.51-.08,.82Zm-2.93-2.8c-.44-.4-.97-.59-1.6-.59s-1.19,.2-1.63,.59c-.44,.4-.69,.98-.73,1.75h4.57c.03-.77-.17-1.35-.6-1.75Z"/>
      <path class="cls-1" d="M242.88,26.48c.63,.38,1.13,.94,1.49,1.67,.36,.73,.54,1.59,.54,2.57s-.18,1.84-.54,2.57c-.36,.73-.85,1.29-1.49,1.67s-1.35,.58-2.14,.58-1.47-.19-2.03-.57c-.56-.38-.96-.88-1.2-1.52v6.45h-2.39v-13.89h2.39v1.95c.24-.63,.64-1.14,1.2-1.51,.56-.37,1.24-.56,2.03-.56s1.51,.19,2.14,.58Zm-4.68,2.25c-.47,.49-.7,1.16-.7,2s.23,1.49,.7,1.98c.47,.49,1.07,.74,1.79,.74s1.35-.24,1.8-.72c.45-.48,.68-1.15,.68-2s-.23-1.52-.68-2-1.05-.73-1.8-.73-1.32,.25-1.79,.74Z"/>
      <path class="cls-1" d="M252.32,26.46c.57,.37,.97,.88,1.21,1.51v-1.95h2.38v9.41h-2.38v-1.97c-.24,.63-.64,1.14-1.21,1.52-.57,.38-1.25,.57-2.04,.57s-1.5-.19-2.14-.58c-.63-.38-1.13-.94-1.49-1.67-.36-.73-.54-1.59-.54-2.57s.18-1.84,.54-2.57c.36-.73,.85-1.29,1.49-1.67,.63-.38,1.35-.58,2.14-.58s1.47,.19,2.04,.56Zm-3.09,2.26c-.45,.49-.68,1.15-.68,2s.23,1.51,.68,2c.45,.48,1.05,.72,1.8,.72s1.32-.25,1.79-.74c.47-.49,.71-1.15,.71-1.98s-.24-1.5-.71-2c-.47-.49-1.07-.74-1.79-.74s-1.35,.24-1.8,.73Z"/>
      <path class="cls-1" d="M261.86,26.4c.58-.35,1.22-.52,1.94-.52v2.56h-.7c-1.75,0-2.63,.81-2.63,2.44v4.53h-2.39v-9.41h2.39v1.8c.35-.6,.81-1.07,1.39-1.42Z"/>
      <path class="cls-1" d="M273.88,31.18h-6.89c.03,.84,.26,1.45,.68,1.85,.42,.4,.94,.59,1.56,.59,.55,0,1.02-.14,1.38-.41,.37-.27,.6-.64,.7-1.1h2.53c-.12,.66-.39,1.25-.8,1.77-.41,.52-.93,.93-1.57,1.22-.64,.29-1.35,.44-2.13,.44-.92,0-1.73-.2-2.45-.59s-1.27-.95-1.66-1.67c-.4-.72-.59-1.58-.59-2.56s.2-1.84,.59-2.57c.4-.73,.95-1.29,1.66-1.67s1.53-.58,2.45-.58,1.74,.19,2.44,.58c.7,.38,1.23,.91,1.61,1.59,.38,.67,.57,1.44,.57,2.3,0,.24-.03,.51-.08,.82Zm-2.93-2.8c-.44-.4-.97-.59-1.6-.59s-1.19,.2-1.63,.59c-.44,.4-.69,.98-.73,1.75h4.57c.03-.77-.17-1.35-.6-1.75Z"/>
      <path class="cls-1" d="M282.92,26.88c.81,.66,1.32,1.55,1.52,2.68h-2.53c-.1-.5-.33-.89-.7-1.18-.36-.29-.82-.43-1.38-.43-.63,0-1.16,.24-1.59,.71s-.64,1.16-.64,2.06,.21,1.59,.64,2.06,.95,.7,1.59,.7c.55,0,1.01-.14,1.38-.43,.36-.29,.59-.68,.7-1.18h2.53c-.2,1.13-.71,2.03-1.52,2.68-.81,.66-1.82,.99-3.03,.99-.92,0-1.73-.2-2.45-.59s-1.27-.95-1.66-1.67c-.4-.72-.59-1.58-.59-2.56s.2-1.84,.59-2.57c.4-.73,.95-1.29,1.66-1.67s1.53-.58,2.45-.58c1.21,0,2.22,.33,3.03,.98Z"/>
      <path class="cls-1" d="M286.28,22.38c.27-.24,.63-.36,1.07-.36s.8,.12,1.07,.36c.27,.24,.41,.56,.41,.94s-.14,.68-.41,.93-.63,.37-1.07,.37-.8-.12-1.07-.37-.41-.55-.41-.93,.14-.7,.41-.94Zm2.26,3.64v9.41h-2.39v-9.41h2.39Z"/>
      <path class="cls-1" d="M297.52,26.48c.73,.38,1.3,.94,1.72,1.67,.42,.73,.63,1.59,.63,2.57s-.21,1.84-.63,2.56c-.42,.72-.99,1.28-1.72,1.67-.73,.39-1.55,.59-2.47,.59s-1.74-.2-2.47-.59c-.73-.39-1.3-.95-1.72-1.67-.42-.72-.63-1.58-.63-2.56s.21-1.84,.63-2.57c.42-.73,.99-1.29,1.72-1.67,.73-.38,1.55-.58,2.47-.58s1.74,.19,2.47,.58Zm-4.17,2.2c-.46,.47-.7,1.15-.7,2.05s.23,1.58,.7,2.05c.46,.47,1.03,.71,1.7,.71s1.23-.24,1.7-.71c.46-.47,.7-1.15,.7-2.05s-.23-1.58-.7-2.05c-.46-.47-1.03-.7-1.7-.7s-1.23,.24-1.7,.7Zm4.26-5.2l-3.91,1.83v-1.63l3.91-2.04v1.83Z"/>
      <path class="cls-1" d="M307.67,22.86v12.56h-2.39v-12.56h2.39Z"/>
      <path class="cls-1" d="M315.56,26.46c.57,.37,.97,.88,1.21,1.51v-1.95h2.38v9.41h-2.38v-1.97c-.24,.63-.64,1.14-1.21,1.52-.57,.38-1.25,.57-2.04,.57s-1.5-.19-2.14-.58c-.63-.38-1.13-.94-1.49-1.67-.36-.73-.54-1.59-.54-2.57s.18-1.84,.54-2.57c.36-.73,.85-1.29,1.49-1.67,.63-.38,1.35-.58,2.14-.58s1.47,.19,2.04,.56Zm-3.09,2.26c-.45,.49-.68,1.15-.68,2s.23,1.51,.68,2c.45,.48,1.05,.72,1.8,.72s1.32-.25,1.79-.74c.47-.49,.71-1.15,.71-1.98s-.24-1.5-.71-2c-.47-.49-1.07-.74-1.79-.74s-1.35,.24-1.8,.73Z"/>
      <path class="cls-1" d="M330.04,33.37v2.05h-1.26c-1.05,0-1.86-.25-2.42-.76-.56-.51-.84-1.36-.84-2.55v-4.08h-1.31v-2.02h1.31v-2.33h2.39v2.33h2.1v2.02h-2.1v4.11c0,.45,.09,.77,.27,.95,.18,.18,.49,.27,.92,.27h.93Z"/>
      <path class="cls-1" d="M335.55,26.4c.58-.35,1.22-.52,1.94-.52v2.56h-.7c-1.75,0-2.63,.81-2.63,2.44v4.53h-2.39v-9.41h2.39v1.8c.35-.6,.81-1.07,1.39-1.42Z"/>
      <path class="cls-1" d="M338.94,22.38c.27-.24,.63-.36,1.07-.36s.8,.12,1.07,.36c.27,.24,.41,.56,.41,.94s-.14,.68-.41,.93-.63,.37-1.07,.37-.8-.12-1.07-.37-.41-.55-.41-.93,.14-.7,.41-.94Zm2.26,3.64v9.41h-2.39v-9.41h2.39Z"/>
      <path class="cls-1" d="M347.46,33.03l2.38-7.01h2.55l-3.48,9.41h-2.92l-3.48-9.41h2.56l2.39,7.01Z"/>
      <path class="cls-1" d="M353.85,22.38c.27-.24,.63-.36,1.07-.36s.8,.12,1.07,.36c.27,.24,.41,.56,.41,.94s-.14,.68-.41,.93-.63,.37-1.07,.37-.8-.12-1.07-.37-.41-.55-.41-.93,.14-.7,.41-.94Zm2.26,3.64v9.41h-2.39v-9.41h2.39Z"/>
      <path class="cls-1" d="M364,26.46c.57,.37,.97,.88,1.21,1.51v-1.95h2.38v9.41h-2.38v-1.97c-.24,.63-.64,1.14-1.21,1.52-.57,.38-1.25,.57-2.04,.57s-1.5-.19-2.14-.58c-.63-.38-1.13-.94-1.49-1.67-.36-.73-.54-1.59-.54-2.57s.18-1.84,.54-2.57c.36-.73,.85-1.29,1.49-1.67,.63-.38,1.35-.58,2.14-.58s1.47,.19,2.04,.56Zm-3.09,2.26c-.45,.49-.68,1.15-.68,2s.23,1.51,.68,2c.45,.48,1.05,.72,1.8,.72s1.32-.25,1.79-.74c.47-.49,.71-1.15,.71-1.98s-.24-1.5-.71-2c-.47-.49-1.07-.74-1.79-.74s-1.35,.24-1.8,.73Z"/>
      <path class="cls-1" d="M375.9,23.64c.7,.61,1.05,1.48,1.05,2.6s-.36,2-1.08,2.6c-.72,.6-1.68,.91-2.89,.93v1.71h-2.26v-3.28h.97c.92,0,1.63-.14,2.14-.42,.51-.28,.76-.79,.76-1.54,0-.5-.14-.89-.42-1.16-.28-.28-.66-.42-1.14-.42-.52,0-.93,.15-1.24,.45s-.46,.69-.46,1.16h-2.26c-.02-.68,.12-1.29,.44-1.83,.32-.54,.78-.96,1.4-1.27,.62-.31,1.35-.47,2.2-.47,1.15,0,2.08,.31,2.78,.92Zm-2.73,9.29v2.5h-2.58v-2.5h2.58Z"/>
    </g>
    <g class="cls-8">
      <rect class="cls-10" x="25.16" y="53.1" width="352.25" height="9.21"/>
    </g>
    <g>
      <path class="cls-1" d="M23.66,68.29v-.88h2.09v7.3h-1v-6.42h-1.1Z"/>
      <path class="cls-1" d="M33.04,70.52v.8h-4.14v-.8h4.14Z"/>
      <path class="cls-1" d="M41.59,67.41v.77h-3.19v2.53h2.7v.74h-2.7v3.27h-.94v-7.3h4.13Z"/>
      <path class="cls-1" d="M46.44,69.37c.38,.28,.65,.65,.8,1.11v-1.45h.94v5.69h-.94v-1.45c-.15,.46-.42,.83-.8,1.11-.38,.28-.85,.41-1.4,.41-.5,0-.95-.12-1.35-.35-.39-.24-.7-.57-.93-1.01s-.34-.95-.34-1.55,.11-1.11,.34-1.55,.53-.78,.93-1.02c.39-.23,.84-.35,1.35-.35,.55,0,1.02,.14,1.4,.42Zm-2.53,.98c-.35,.37-.52,.88-.52,1.53s.17,1.16,.52,1.53,.81,.55,1.39,.55c.37,0,.71-.09,1-.26,.29-.17,.52-.42,.69-.73,.17-.31,.25-.68,.25-1.09s-.08-.78-.25-1.1c-.17-.32-.4-.56-.69-.73-.29-.17-.63-.25-1-.25-.58,0-1.04,.18-1.39,.55Zm3.1-2.98l-2.21,1.21v-.67l2.21-1.31v.77Z"/>
      <path class="cls-1" d="M54.01,69.53c.48,.39,.77,.9,.88,1.55h-.99c-.07-.41-.26-.73-.57-.96-.31-.23-.69-.35-1.14-.35-.33,0-.63,.08-.91,.23-.27,.15-.49,.38-.66,.7-.17,.31-.25,.7-.25,1.17s.08,.85,.25,1.17c.17,.31,.38,.55,.66,.7,.27,.15,.58,.23,.91,.23,.46,0,.84-.12,1.14-.35,.31-.23,.5-.56,.57-.96h.99c-.11,.66-.4,1.18-.88,1.56-.48,.38-1.08,.58-1.8,.58-.54,0-1.03-.12-1.45-.35-.42-.24-.75-.57-.99-1.01s-.36-.95-.36-1.55,.12-1.11,.36-1.55,.57-.78,.99-1.02c.42-.23,.91-.35,1.45-.35,.73,0,1.33,.19,1.8,.58Z"/>
      <path class="cls-1" d="M56.14,66.94c.12-.11,.27-.16,.47-.16s.35,.05,.47,.16,.18,.25,.18,.42-.06,.31-.18,.42c-.12,.11-.27,.16-.47,.16s-.35-.05-.47-.16c-.12-.11-.18-.25-.18-.42s.06-.31,.18-.42Zm.93,2.09v5.69h-.94v-5.69h.94Z"/>
      <path class="cls-1" d="M59.52,67.05v7.67h-.94v-7.67h.94Z"/>
    </g>
    <g>
      <path class="cls-1" d="M339,68.16h-3.75v2.44c.17-.23,.42-.42,.75-.56,.33-.14,.68-.21,1.07-.21,.52,0,.95,.11,1.29,.33,.34,.22,.59,.5,.76,.86s.24,.75,.24,1.19c0,.75-.21,1.37-.63,1.84-.42,.48-1.04,.71-1.85,.71-.73,0-1.33-.2-1.79-.6s-.72-.93-.78-1.6h.93c.08,.43,.25,.76,.53,1,.28,.24,.63,.36,1.06,.36,.53,0,.93-.16,1.2-.48,.27-.32,.4-.74,.4-1.25s-.14-.9-.41-1.18-.67-.42-1.17-.42c-.36,0-.67,.08-.94,.23-.27,.16-.47,.37-.61,.63h-.91v-4.13h4.62v.84Z"/>
      <path class="cls-1" d="M346.42,70.52v.8h-4.14v-.8h4.14Z"/>
      <path class="cls-1" d="M356.54,72.99c-.3,.55-.73,.97-1.31,1.27-.58,.3-1.27,.45-2.08,.45h-2.32v-7.3h2.32c.81,0,1.5,.15,2.08,.44,.58,.29,1.01,.71,1.31,1.26s.45,1.2,.45,1.94-.15,1.38-.45,1.93Zm-1.27,.14c.5-.49,.76-1.18,.76-2.07s-.25-1.58-.75-2.08-1.23-.74-2.19-.74h-1.31v5.63h1.31c.95,0,1.68-.25,2.19-.74Z"/>
      <path class="cls-1" d="M358.27,66.94c.12-.11,.27-.16,.47-.16s.35,.05,.47,.16,.18,.25,.18,.42-.06,.31-.18,.42c-.12,.11-.27,.16-.47,.16s-.35-.05-.47-.16c-.12-.11-.18-.25-.18-.42s.06-.31,.18-.42Zm.93,2.09v5.69h-.94v-5.69h.94Z"/>
      <path class="cls-1" d="M362.18,67.94c-.2,.18-.3,.49-.3,.93v.16h1.35v.83h-1.35v4.86h-.94v-4.86h-.82v-.83h.82v-.23c0-1.36,.76-2.01,2.29-1.95v.83c-.5,0-.85,.08-1.05,.26Z"/>
      <path class="cls-1" d="M366.53,67.37l-2.21,1.21v-.67l2.21-1.31v.77Zm-1.23,1.66v5.69h-.95v-5.69h.95Z"/>
      <path class="cls-1" d="M371.22,69.53c.48,.39,.77,.9,.88,1.55h-.99c-.07-.41-.26-.73-.57-.96-.31-.23-.69-.35-1.14-.35-.33,0-.63,.08-.91,.23-.27,.15-.49,.38-.66,.7-.17,.31-.25,.7-.25,1.17s.08,.85,.25,1.17c.17,.31,.38,.55,.66,.7,.27,.15,.58,.23,.91,.23,.46,0,.84-.12,1.14-.35,.31-.23,.5-.56,.57-.96h.99c-.11,.66-.4,1.18-.88,1.56-.48,.38-1.08,.58-1.8,.58-.54,0-1.03-.12-1.45-.35-.42-.24-.75-.57-.99-1.01s-.36-.95-.36-1.55,.12-1.11,.36-1.55,.57-.78,.99-1.02c.42-.23,.91-.35,1.45-.35,.73,0,1.33,.19,1.8,.58Z"/>
      <path class="cls-1" d="M373.35,66.94c.12-.11,.27-.16,.47-.16s.35,.05,.47,.16,.18,.25,.18,.42-.06,.31-.18,.42c-.12,.11-.27,.16-.47,.16s-.35-.05-.47-.16c-.12-.11-.18-.25-.18-.42s.06-.31,.18-.42Zm.93,2.09v5.69h-.94v-5.69h.94Z"/>
      <path class="cls-1" d="M376.73,67.05v7.67h-.94v-7.67h.94Z"/>
    </g>
    <g class="cls-14">
      <g class="cls-6">
        <path class="cls-3" d="M65.6,91.67c0,2.86-2.32,5.18-5.18,5.18s-5.18-2.32-5.18-5.18,2.32-5.18,5.18-5.18,5.18,2.32,5.18,5.18Z"/>
      </g>
    </g>
    <g class="cls-14">
      <g class="cls-12">
        <circle class="cls-3" cx="201.06" cy="91.67" r="5.18" transform="translate(-19.78 83.92) rotate(-22.5)"/>
      </g>
    </g>
    <g class="cls-14">
      <g class="cls-9">
        <circle class="cls-3" cx="130.23" cy="91.67" r="5.18" transform="translate(-25.17 56.81) rotate(-22.5)"/>
      </g>
    </g>
    <g class="cls-14">
      <g class="cls-13">
        <circle class="cls-3" cx="343.32" cy="91.67" r="5.18" transform="translate(-8.95 138.36) rotate(-22.5)"/>
      </g>
    </g>
    <g class="cls-14">
      <g class="cls-7">
        <circle class="cls-3" cx="270.8" cy="91.67" r="5.18" transform="translate(-14.47 110.61) rotate(-22.5)"/>
      </g>
    </g>
    <path class="cls-1" d="M58.9,102.48v-.88h2.09v7.3h-1v-6.42h-1.1Z"/>
    <path class="cls-1" d="M130.51,105.83c.71-.78,1.06-1.5,1.06-2.17,0-.41-.11-.75-.32-1-.21-.25-.55-.38-1.02-.38s-.85,.15-1.1,.46c-.25,.31-.39,.73-.41,1.27h-.93c.05-.82,.3-1.44,.76-1.88,.46-.44,1.04-.66,1.76-.66s1.23,.18,1.63,.55c.4,.37,.6,.88,.6,1.55,0,.55-.18,1.11-.53,1.68-.36,.57-.8,1.1-1.34,1.58-.54,.49-1.09,.9-1.65,1.24h3.71v.78h-5.02v-.68c1.17-.79,2.11-1.57,2.82-2.35Z"/>
    <path class="cls-1" d="M202.32,101.65c.34,.17,.59,.39,.77,.68s.26,.62,.26,.98c0,.46-.13,.84-.4,1.15-.27,.31-.65,.5-1.17,.56v.06c.53,.14,.95,.35,1.25,.64s.45,.69,.45,1.2c0,.6-.2,1.09-.6,1.47s-.98,.57-1.73,.57-1.36-.19-1.83-.58-.74-.96-.82-1.71h.93c.06,.46,.24,.82,.52,1.09,.29,.27,.67,.4,1.17,.4,.46,0,.82-.12,1.07-.36,.25-.24,.37-.55,.37-.93,0-.46-.18-.8-.53-1.04s-.86-.36-1.52-.36h-.25v-.79h.25c1.27,0,1.91-.42,1.91-1.27,0-.37-.12-.67-.35-.89-.23-.22-.56-.33-.97-.33s-.76,.12-1.05,.36-.45,.59-.5,1.05h-.92c.05-.69,.29-1.23,.72-1.62,.43-.39,1.02-.59,1.77-.59,.47,0,.87,.08,1.21,.25Z"/>
    <path class="cls-1" d="M267.87,107.23v-.79l3.75-4.89h1.02v4.86h1.08v.82h-1.08v1.68h-.95v-1.68h-3.81Zm3.88-4.53l-2.88,3.71h2.88v-3.71Z"/>
    <path class="cls-1" d="M345.58,102.35h-3.75v2.44c.17-.23,.42-.42,.75-.56,.33-.14,.68-.21,1.07-.21,.52,0,.95,.11,1.29,.33,.34,.22,.59,.5,.76,.86s.24,.75,.24,1.19c0,.75-.21,1.37-.63,1.84-.42,.48-1.04,.71-1.85,.71-.73,0-1.33-.2-1.79-.6s-.72-.93-.78-1.6h.93c.08,.43,.25,.76,.53,1,.28,.24,.63,.36,1.06,.36,.53,0,.93-.16,1.2-.48,.27-.32,.4-.74,.4-1.25s-.14-.9-.41-1.18-.67-.42-1.17-.42c-.36,0-.67,.08-.94,.23-.27,.16-.47,.37-.61,.63h-.91v-4.13h4.62v.84Z"/>
  </g>
</svg>