<?xml version="1.0" encoding="UTF-8"?>
<svg id="Capa_2" data-name="Capa 2" xmlns="http://www.w3.org/2000/svg" viewBox="0 0 25.13 25.13">
  <g id="Capa_2-2" data-name="Capa 2">
    <path d="M13.3,25.13h-1.47c-.07-.02-.14-.04-.21-.04-2.65-.2-5.01-1.15-7.05-2.84C.09,18.55-1.26,12.33,1.25,7.1,3.85,1.69,10.03-1.14,15.81,.43c4.77,1.3,8.28,5.15,9.13,10.02,.08,.46,.13,.92,.19,1.38v1.47c-.01,.06-.04,.12-.04,.19-.14,1.96-.7,3.8-1.73,5.48-1.99,3.26-4.87,5.26-8.63,5.96-.47,.09-.95,.13-1.43,.2m-.74-2.51c5.54,0,10.04-4.5,10.06-10.04,.02-5.54-4.5-10.07-10.06-10.08-5.54,0-10.05,4.5-10.06,10.05-.01,5.54,4.51,10.07,10.06,10.08"/>
    <path d="M13.19,9.98c0,.89,0,1.78,0,2.67,0,.19,.06,.29,.22,.38,1.53,.9,3.05,1.81,4.57,2.72,.41,.24,.58,.61,.49,1-.15,.62-.8,.89-1.37,.56-.9-.53-1.8-1.07-2.69-1.61-.8-.48-1.59-.97-2.4-1.44-.48-.28-.71-.68-.71-1.23,0-1.92,0-3.84,0-5.77,0-.71,.59-1.14,1.25-.93,.4,.12,.63,.46,.63,.92,0,.91,0,1.82,0,2.72"/>
  </g>
</svg>