<?xml version="1.0" encoding="UTF-8"?>
<svg id="Capa_2" data-name="Capa 2" xmlns="http://www.w3.org/2000/svg" viewBox="0 0 33.45 32.8">
  <defs>
    <style>
      .cls-1 {
        fill: none;
        stroke: #000;
        stroke-miterlimit: 10;
        stroke-width: 3px;
      }
    </style>
  </defs>
  <g id="Capa_2-2" data-name="Capa 2">
    <path class="cls-1" d="M15.73,28.4H5.36c-2.13,0-3.86-1.73-3.86-3.86V8.23c0-2.13,1.73-3.86,3.86-3.86H23.13c2.13,0,3.86,1.73,3.86,3.86v7.02"/>
    <path d="M26.63,11.29H1.86v-1.39c0-3.26,2.64-5.9,5.9-5.9h12.97c3.26,0,5.9,2.64,5.9,5.9v1.39Z"/>
    <polygon points="13.95 14.78 15.22 17.35 18.05 17.76 16 19.76 16.49 22.58 13.95 21.25 11.42 22.58 11.9 19.76 9.85 17.76 12.69 17.35 13.95 14.78"/>
    <rect x="4.41" width="3.64" height="4.37"/>
    <rect x="20.44" width="3.64" height="4.37"/>
    <path d="M17.88,24.97c0-4.33,3.41-7.71,7.77-7.72,4.33,0,7.81,3.42,7.8,7.69,0,4.39-3.44,7.87-7.77,7.86-4.35,0-7.8-3.47-7.8-7.83m10.92-4.63c-1.56,1.62-3.12,3.25-4.87,5.07-.81-.91-1.55-1.74-2.18-2.45-.83,.73-1.57,1.39-2.17,1.92,1.58,1.61,3.08,3.15,4.59,4.7,2.29-2.31,4.6-4.65,6.88-6.95-.67-.68-1.37-1.39-2.25-2.29"/>
  </g>
</svg>