<?xml version="1.0" encoding="UTF-8"?>
<svg id="Capa_2" data-name="Capa 2" xmlns="http://www.w3.org/2000/svg" viewBox="0 0 20.82 33.13">
  <defs>
    <style>
      .cls-1 {
        fill: none;
        stroke: #000;
        stroke-miterlimit: 10;
        stroke-width: 2px;
      }
    </style>
  </defs>
  <g id="Capa_2-2" data-name="Capa 2">
    <path class="cls-1" d="M19.82,10.23c.03,3.91-1.62,6.83-3.83,9.48-1.53,1.85-3.16,3.61-4.74,5.41-.5,.57-1.04,.68-1.56,.08-2.03-2.36-4.17-4.64-6.03-7.13C1.42,15.07,.37,11.67,1.39,7.91,2.6,3.45,7.08,.45,11.45,1.09c5.04,.74,8.4,4.53,8.37,9.14Zm-4.23,.14c0-2.81-2.38-5.18-5.17-5.18-2.8,0-5.16,2.38-5.16,5.18,0,2.8,2.36,5.16,5.17,5.18,2.78,.02,5.17-2.39,5.16-5.19Z"/>
    <path d="M18.06,30.22c0,1.61-3.42,2.91-7.65,2.91s-7.65-1.31-7.65-2.91,3.42-2.91,7.65-2.91,7.65,1.3,7.65,2.91"/>
  </g>
</svg>