<?xml version="1.0" encoding="UTF-8"?>
<svg id="Capa_2" data-name="Capa 2" xmlns="http://www.w3.org/2000/svg" viewBox="0 0 27 27">
  <defs>
    <style>
      .cls-1 {
        fill: #245966;
      }

      .cls-2 {
        fill: none;
        stroke: #245966;
        stroke-miterlimit: 10;
      }
    </style>
  </defs>
  <g id="Capa_1-2" data-name="Capa 1">
    <path class="cls-1" d="M21.74,8.38c-1.01,.4-1.85,.47-1.85,.47,1.14-.68,1.43-1.82,1.43-1.82-.76,.45-1.65,.71-2.17,.83-.61-.66-1.49-1.08-2.46-1.08-1.85,0-3.35,1.5-3.35,3.35,0,.29,.04,.58,.11,.85-.65-.02-3.99-.27-7.07-3.56,0,0-1.48,2.5,1.05,4.49,0,0-.89-.06-1.55-.43,0,0-.04,2.69,2.7,3.35,0,0-.78,.28-1.48,.06,0,0,.5,2.24,3.14,2.37,0,0-1.93,1.78-4.99,1.39,0,0,4.04,2.88,9.08,.78,5.01-2.09,5.97-7.56,5.71-9.29,.84-.49,1.69-1.78,1.69-1.78"/>
    <circle class="cls-2" cx="13.5" cy="13.5" r="13"/>
  </g>
</svg>