<?xml version="1.0" encoding="UTF-8"?>
<svg id="Capa_2" data-name="Capa 2" xmlns="http://www.w3.org/2000/svg" viewBox="0 0 51.82 21.83">
  <defs>
    <style>
      .cls-1 {
        fill: #01b1eb;
      }

      .cls-2 {
        fill: none;
        stroke: #01b1eb;
        stroke-miterlimit: 10;
      }
    </style>
  </defs>
  <g id="Capa_1-2" data-name="Capa 1">
    <g>
      <path class="cls-1" d="M11.86,14.01v.22H6.64V6.29h5.11v.22H6.87v3.55h4.29v.22H6.87v3.73h4.99Z"/>
      <path class="cls-1" d="M13.77,6.72v7.51h-.22V6.29h.17l6.08,7.62V6.29h.22v7.95h-.26l-5.99-7.51Z"/>
      <path class="cls-1" d="M21.57,6.29l3.35,7.67,3.33-7.67h.25l-3.46,7.95h-.25l-3.46-7.95h.23Z"/>
      <path class="cls-1" d="M29.82,14.23V6.29h.22v7.95h-.22Z"/>
      <path class="cls-1" d="M34.82,6.29h.2l3.46,7.95h-.25l-1.24-2.84h-4.15l-1.24,2.84h-.25l3.47-7.95Zm2.07,4.88l-1.97-4.55-1.99,4.55h3.96Z"/>
      <path class="cls-1" d="M39.8,14.23V6.29h3.23c.32,0,.62,.07,.9,.21,.28,.14,.51,.32,.71,.55,.2,.23,.35,.49,.46,.77,.11,.29,.17,.58,.17,.88s-.05,.6-.15,.88c-.1,.28-.23,.54-.41,.75-.18,.22-.39,.4-.64,.54-.25,.14-.52,.22-.82,.24l2.01,3.12h-.27l-2.01-3.12h-2.95v3.12h-.22Zm.22-3.35h3.09c.3,0,.57-.06,.81-.19,.24-.13,.44-.29,.61-.5s.3-.44,.39-.7c.09-.26,.13-.53,.13-.81s-.05-.56-.16-.82-.25-.49-.43-.69c-.18-.2-.4-.36-.64-.49-.25-.12-.51-.18-.78-.18h-3.01v4.38Z"/>
    </g>
    <rect class="cls-2" x=".5" y=".5" width="50.82" height="20.83"/>
  </g>
</svg>